<?xml version="1.0" encoding="utf-8" standalone="no"?>
<!DOCTYPE svg PUBLIC "-//W3C//DTD SVG 1.1//EN"
  "http://www.w3.org/Graphics/SVG/1.1/DTD/svg11.dtd">
<svg height="547.92pt" version="1.1" viewBox="0 0 1105.92 547.92" width="1105.92pt" xmlns="http://www.w3.org/2000/svg" xmlns:xlink="http://www.w3.org/1999/xlink">
 <metadata>
  <rdf:RDF xmlns:cc="http://creativecommons.org/ns#" xmlns:dc="http://purl.org/dc/elements/1.1/" xmlns:rdf="http://www.w3.org/1999/02/22-rdf-syntax-ns#">
   <cc:Work>
    <dc:type rdf:resource="http://purl.org/dc/dcmitype/StillImage"/>
    <dc:date>2021-08-26T07:48:38.323650</dc:date>
    <dc:format>image/svg+xml</dc:format>
    <dc:creator>
     <cc:Agent>
      <dc:title>Matplotlib v3.4.2, https://matplotlib.org/</dc:title>
     </cc:Agent>
    </dc:creator>
   </cc:Work>
  </rdf:RDF>
 </metadata>
 <defs>
  <style type="text/css">*{stroke-linecap:butt;stroke-linejoin:round;}</style>
 </defs>
 <g id="figure_1">
  <g id="patch_1">
   <path d="M 0 547.92 
L 1105.92 547.92 
L 1105.92 0 
L 0 0 
z
" style="fill:#ffffff;"/>
  </g>
  <g id="axes_1">
   <g id="patch_2">
    <path d="M 138.24 487.6488 
L 995.328 487.6488 
L 995.328 65.7504 
L 138.24 65.7504 
z
" style="fill:#ffffff;"/>
   </g>
   <g id="matplotlib.axis_1">
    <g id="xtick_1">
     <g id="line2d_1">
      <defs>
       <path d="M 0 0 
L 0 3.5 
" id="m305a2c1c4c" style="stroke:#000000;stroke-width:0.8;"/>
      </defs>
      <g>
       <use style="stroke:#000000;stroke-width:0.8;" x="138.24" xlink:href="#m305a2c1c4c" y="487.6488"/>
      </g>
     </g>
     <g id="text_1">
      <!-- 0 -->
      <g transform="translate(135.05875 502.247238)scale(0.1 -0.1)">
       <defs>
        <path d="M 2034 4250 
Q 1547 4250 1301 3770 
Q 1056 3291 1056 2328 
Q 1056 1369 1301 889 
Q 1547 409 2034 409 
Q 2525 409 2770 889 
Q 3016 1369 3016 2328 
Q 3016 3291 2770 3770 
Q 2525 4250 2034 4250 
z
M 2034 4750 
Q 2819 4750 3233 4129 
Q 3647 3509 3647 2328 
Q 3647 1150 3233 529 
Q 2819 -91 2034 -91 
Q 1250 -91 836 529 
Q 422 1150 422 2328 
Q 422 3509 836 4129 
Q 1250 4750 2034 4750 
z
" id="DejaVuSans-30" transform="scale(0.015625)"/>
       </defs>
       <use xlink:href="#DejaVuSans-30"/>
      </g>
     </g>
    </g>
    <g id="xtick_2">
     <g id="line2d_2">
      <g>
       <use style="stroke:#000000;stroke-width:0.8;" x="294.074182" xlink:href="#m305a2c1c4c" y="487.6488"/>
      </g>
     </g>
     <g id="text_2">
      <!-- 20 -->
      <g transform="translate(287.711682 502.247238)scale(0.1 -0.1)">
       <defs>
        <path d="M 1228 531 
L 3431 531 
L 3431 0 
L 469 0 
L 469 531 
Q 828 903 1448 1529 
Q 2069 2156 2228 2338 
Q 2531 2678 2651 2914 
Q 2772 3150 2772 3378 
Q 2772 3750 2511 3984 
Q 2250 4219 1831 4219 
Q 1534 4219 1204 4116 
Q 875 4013 500 3803 
L 500 4441 
Q 881 4594 1212 4672 
Q 1544 4750 1819 4750 
Q 2544 4750 2975 4387 
Q 3406 4025 3406 3419 
Q 3406 3131 3298 2873 
Q 3191 2616 2906 2266 
Q 2828 2175 2409 1742 
Q 1991 1309 1228 531 
z
" id="DejaVuSans-32" transform="scale(0.015625)"/>
       </defs>
       <use xlink:href="#DejaVuSans-32"/>
       <use x="63.623047" xlink:href="#DejaVuSans-30"/>
      </g>
     </g>
    </g>
    <g id="xtick_3">
     <g id="line2d_3">
      <g>
       <use style="stroke:#000000;stroke-width:0.8;" x="449.908364" xlink:href="#m305a2c1c4c" y="487.6488"/>
      </g>
     </g>
     <g id="text_3">
      <!-- 40 -->
      <g transform="translate(443.545864 502.247238)scale(0.1 -0.1)">
       <defs>
        <path d="M 2419 4116 
L 825 1625 
L 2419 1625 
L 2419 4116 
z
M 2253 4666 
L 3047 4666 
L 3047 1625 
L 3713 1625 
L 3713 1100 
L 3047 1100 
L 3047 0 
L 2419 0 
L 2419 1100 
L 313 1100 
L 313 1709 
L 2253 4666 
z
" id="DejaVuSans-34" transform="scale(0.015625)"/>
       </defs>
       <use xlink:href="#DejaVuSans-34"/>
       <use x="63.623047" xlink:href="#DejaVuSans-30"/>
      </g>
     </g>
    </g>
    <g id="xtick_4">
     <g id="line2d_4">
      <g>
       <use style="stroke:#000000;stroke-width:0.8;" x="605.742545" xlink:href="#m305a2c1c4c" y="487.6488"/>
      </g>
     </g>
     <g id="text_4">
      <!-- 60 -->
      <g transform="translate(599.380045 502.247238)scale(0.1 -0.1)">
       <defs>
        <path d="M 2113 2584 
Q 1688 2584 1439 2293 
Q 1191 2003 1191 1497 
Q 1191 994 1439 701 
Q 1688 409 2113 409 
Q 2538 409 2786 701 
Q 3034 994 3034 1497 
Q 3034 2003 2786 2293 
Q 2538 2584 2113 2584 
z
M 3366 4563 
L 3366 3988 
Q 3128 4100 2886 4159 
Q 2644 4219 2406 4219 
Q 1781 4219 1451 3797 
Q 1122 3375 1075 2522 
Q 1259 2794 1537 2939 
Q 1816 3084 2150 3084 
Q 2853 3084 3261 2657 
Q 3669 2231 3669 1497 
Q 3669 778 3244 343 
Q 2819 -91 2113 -91 
Q 1303 -91 875 529 
Q 447 1150 447 2328 
Q 447 3434 972 4092 
Q 1497 4750 2381 4750 
Q 2619 4750 2861 4703 
Q 3103 4656 3366 4563 
z
" id="DejaVuSans-36" transform="scale(0.015625)"/>
       </defs>
       <use xlink:href="#DejaVuSans-36"/>
       <use x="63.623047" xlink:href="#DejaVuSans-30"/>
      </g>
     </g>
    </g>
    <g id="xtick_5">
     <g id="line2d_5">
      <g>
       <use style="stroke:#000000;stroke-width:0.8;" x="761.576727" xlink:href="#m305a2c1c4c" y="487.6488"/>
      </g>
     </g>
     <g id="text_5">
      <!-- 80 -->
      <g transform="translate(755.214227 502.247238)scale(0.1 -0.1)">
       <defs>
        <path d="M 2034 2216 
Q 1584 2216 1326 1975 
Q 1069 1734 1069 1313 
Q 1069 891 1326 650 
Q 1584 409 2034 409 
Q 2484 409 2743 651 
Q 3003 894 3003 1313 
Q 3003 1734 2745 1975 
Q 2488 2216 2034 2216 
z
M 1403 2484 
Q 997 2584 770 2862 
Q 544 3141 544 3541 
Q 544 4100 942 4425 
Q 1341 4750 2034 4750 
Q 2731 4750 3128 4425 
Q 3525 4100 3525 3541 
Q 3525 3141 3298 2862 
Q 3072 2584 2669 2484 
Q 3125 2378 3379 2068 
Q 3634 1759 3634 1313 
Q 3634 634 3220 271 
Q 2806 -91 2034 -91 
Q 1263 -91 848 271 
Q 434 634 434 1313 
Q 434 1759 690 2068 
Q 947 2378 1403 2484 
z
M 1172 3481 
Q 1172 3119 1398 2916 
Q 1625 2713 2034 2713 
Q 2441 2713 2670 2916 
Q 2900 3119 2900 3481 
Q 2900 3844 2670 4047 
Q 2441 4250 2034 4250 
Q 1625 4250 1398 4047 
Q 1172 3844 1172 3481 
z
" id="DejaVuSans-38" transform="scale(0.015625)"/>
       </defs>
       <use xlink:href="#DejaVuSans-38"/>
       <use x="63.623047" xlink:href="#DejaVuSans-30"/>
      </g>
     </g>
    </g>
    <g id="xtick_6">
     <g id="line2d_6">
      <g>
       <use style="stroke:#000000;stroke-width:0.8;" x="917.410909" xlink:href="#m305a2c1c4c" y="487.6488"/>
      </g>
     </g>
     <g id="text_6">
      <!-- 100 -->
      <g transform="translate(907.867159 502.247238)scale(0.1 -0.1)">
       <defs>
        <path d="M 794 531 
L 1825 531 
L 1825 4091 
L 703 3866 
L 703 4441 
L 1819 4666 
L 2450 4666 
L 2450 531 
L 3481 531 
L 3481 0 
L 794 0 
L 794 531 
z
" id="DejaVuSans-31" transform="scale(0.015625)"/>
       </defs>
       <use xlink:href="#DejaVuSans-31"/>
       <use x="63.623047" xlink:href="#DejaVuSans-30"/>
       <use x="127.246094" xlink:href="#DejaVuSans-30"/>
      </g>
     </g>
    </g>
    <g id="text_7">
     <!-- Pressure Drop [Pa] -->
     <g transform="translate(520.479313 515.925363)scale(0.1 -0.1)">
      <defs>
       <path d="M 1259 4147 
L 1259 2394 
L 2053 2394 
Q 2494 2394 2734 2622 
Q 2975 2850 2975 3272 
Q 2975 3691 2734 3919 
Q 2494 4147 2053 4147 
L 1259 4147 
z
M 628 4666 
L 2053 4666 
Q 2838 4666 3239 4311 
Q 3641 3956 3641 3272 
Q 3641 2581 3239 2228 
Q 2838 1875 2053 1875 
L 1259 1875 
L 1259 0 
L 628 0 
L 628 4666 
z
" id="DejaVuSans-50" transform="scale(0.015625)"/>
       <path d="M 2631 2963 
Q 2534 3019 2420 3045 
Q 2306 3072 2169 3072 
Q 1681 3072 1420 2755 
Q 1159 2438 1159 1844 
L 1159 0 
L 581 0 
L 581 3500 
L 1159 3500 
L 1159 2956 
Q 1341 3275 1631 3429 
Q 1922 3584 2338 3584 
Q 2397 3584 2469 3576 
Q 2541 3569 2628 3553 
L 2631 2963 
z
" id="DejaVuSans-72" transform="scale(0.015625)"/>
       <path d="M 3597 1894 
L 3597 1613 
L 953 1613 
Q 991 1019 1311 708 
Q 1631 397 2203 397 
Q 2534 397 2845 478 
Q 3156 559 3463 722 
L 3463 178 
Q 3153 47 2828 -22 
Q 2503 -91 2169 -91 
Q 1331 -91 842 396 
Q 353 884 353 1716 
Q 353 2575 817 3079 
Q 1281 3584 2069 3584 
Q 2775 3584 3186 3129 
Q 3597 2675 3597 1894 
z
M 3022 2063 
Q 3016 2534 2758 2815 
Q 2500 3097 2075 3097 
Q 1594 3097 1305 2825 
Q 1016 2553 972 2059 
L 3022 2063 
z
" id="DejaVuSans-65" transform="scale(0.015625)"/>
       <path d="M 2834 3397 
L 2834 2853 
Q 2591 2978 2328 3040 
Q 2066 3103 1784 3103 
Q 1356 3103 1142 2972 
Q 928 2841 928 2578 
Q 928 2378 1081 2264 
Q 1234 2150 1697 2047 
L 1894 2003 
Q 2506 1872 2764 1633 
Q 3022 1394 3022 966 
Q 3022 478 2636 193 
Q 2250 -91 1575 -91 
Q 1294 -91 989 -36 
Q 684 19 347 128 
L 347 722 
Q 666 556 975 473 
Q 1284 391 1588 391 
Q 1994 391 2212 530 
Q 2431 669 2431 922 
Q 2431 1156 2273 1281 
Q 2116 1406 1581 1522 
L 1381 1569 
Q 847 1681 609 1914 
Q 372 2147 372 2553 
Q 372 3047 722 3315 
Q 1072 3584 1716 3584 
Q 2034 3584 2315 3537 
Q 2597 3491 2834 3397 
z
" id="DejaVuSans-73" transform="scale(0.015625)"/>
       <path d="M 544 1381 
L 544 3500 
L 1119 3500 
L 1119 1403 
Q 1119 906 1312 657 
Q 1506 409 1894 409 
Q 2359 409 2629 706 
Q 2900 1003 2900 1516 
L 2900 3500 
L 3475 3500 
L 3475 0 
L 2900 0 
L 2900 538 
Q 2691 219 2414 64 
Q 2138 -91 1772 -91 
Q 1169 -91 856 284 
Q 544 659 544 1381 
z
M 1991 3584 
L 1991 3584 
z
" id="DejaVuSans-75" transform="scale(0.015625)"/>
       <path id="DejaVuSans-20" transform="scale(0.015625)"/>
       <path d="M 1259 4147 
L 1259 519 
L 2022 519 
Q 2988 519 3436 956 
Q 3884 1394 3884 2338 
Q 3884 3275 3436 3711 
Q 2988 4147 2022 4147 
L 1259 4147 
z
M 628 4666 
L 1925 4666 
Q 3281 4666 3915 4102 
Q 4550 3538 4550 2338 
Q 4550 1131 3912 565 
Q 3275 0 1925 0 
L 628 0 
L 628 4666 
z
" id="DejaVuSans-44" transform="scale(0.015625)"/>
       <path d="M 1959 3097 
Q 1497 3097 1228 2736 
Q 959 2375 959 1747 
Q 959 1119 1226 758 
Q 1494 397 1959 397 
Q 2419 397 2687 759 
Q 2956 1122 2956 1747 
Q 2956 2369 2687 2733 
Q 2419 3097 1959 3097 
z
M 1959 3584 
Q 2709 3584 3137 3096 
Q 3566 2609 3566 1747 
Q 3566 888 3137 398 
Q 2709 -91 1959 -91 
Q 1206 -91 779 398 
Q 353 888 353 1747 
Q 353 2609 779 3096 
Q 1206 3584 1959 3584 
z
" id="DejaVuSans-6f" transform="scale(0.015625)"/>
       <path d="M 1159 525 
L 1159 -1331 
L 581 -1331 
L 581 3500 
L 1159 3500 
L 1159 2969 
Q 1341 3281 1617 3432 
Q 1894 3584 2278 3584 
Q 2916 3584 3314 3078 
Q 3713 2572 3713 1747 
Q 3713 922 3314 415 
Q 2916 -91 2278 -91 
Q 1894 -91 1617 61 
Q 1341 213 1159 525 
z
M 3116 1747 
Q 3116 2381 2855 2742 
Q 2594 3103 2138 3103 
Q 1681 3103 1420 2742 
Q 1159 2381 1159 1747 
Q 1159 1113 1420 752 
Q 1681 391 2138 391 
Q 2594 391 2855 752 
Q 3116 1113 3116 1747 
z
" id="DejaVuSans-70" transform="scale(0.015625)"/>
       <path d="M 550 4863 
L 1875 4863 
L 1875 4416 
L 1125 4416 
L 1125 -397 
L 1875 -397 
L 1875 -844 
L 550 -844 
L 550 4863 
z
" id="DejaVuSans-5b" transform="scale(0.015625)"/>
       <path d="M 2194 1759 
Q 1497 1759 1228 1600 
Q 959 1441 959 1056 
Q 959 750 1161 570 
Q 1363 391 1709 391 
Q 2188 391 2477 730 
Q 2766 1069 2766 1631 
L 2766 1759 
L 2194 1759 
z
M 3341 1997 
L 3341 0 
L 2766 0 
L 2766 531 
Q 2569 213 2275 61 
Q 1981 -91 1556 -91 
Q 1019 -91 701 211 
Q 384 513 384 1019 
Q 384 1609 779 1909 
Q 1175 2209 1959 2209 
L 2766 2209 
L 2766 2266 
Q 2766 2663 2505 2880 
Q 2244 3097 1772 3097 
Q 1472 3097 1187 3025 
Q 903 2953 641 2809 
L 641 3341 
Q 956 3463 1253 3523 
Q 1550 3584 1831 3584 
Q 2591 3584 2966 3190 
Q 3341 2797 3341 1997 
z
" id="DejaVuSans-61" transform="scale(0.015625)"/>
       <path d="M 1947 4863 
L 1947 -844 
L 622 -844 
L 622 -397 
L 1369 -397 
L 1369 4416 
L 622 4416 
L 622 4863 
L 1947 4863 
z
" id="DejaVuSans-5d" transform="scale(0.015625)"/>
      </defs>
      <use xlink:href="#DejaVuSans-50"/>
      <use x="58.552734" xlink:href="#DejaVuSans-72"/>
      <use x="97.416016" xlink:href="#DejaVuSans-65"/>
      <use x="158.939453" xlink:href="#DejaVuSans-73"/>
      <use x="211.039062" xlink:href="#DejaVuSans-73"/>
      <use x="263.138672" xlink:href="#DejaVuSans-75"/>
      <use x="326.517578" xlink:href="#DejaVuSans-72"/>
      <use x="365.380859" xlink:href="#DejaVuSans-65"/>
      <use x="426.904297" xlink:href="#DejaVuSans-20"/>
      <use x="458.691406" xlink:href="#DejaVuSans-44"/>
      <use x="535.693359" xlink:href="#DejaVuSans-72"/>
      <use x="574.556641" xlink:href="#DejaVuSans-6f"/>
      <use x="635.738281" xlink:href="#DejaVuSans-70"/>
      <use x="699.214844" xlink:href="#DejaVuSans-20"/>
      <use x="731.001953" xlink:href="#DejaVuSans-5b"/>
      <use x="770.015625" xlink:href="#DejaVuSans-50"/>
      <use x="825.818359" xlink:href="#DejaVuSans-61"/>
      <use x="887.097656" xlink:href="#DejaVuSans-5d"/>
     </g>
    </g>
   </g>
   <g id="matplotlib.axis_2">
    <g id="ytick_1">
     <g id="line2d_7">
      <defs>
       <path d="M 0 0 
L -3.5 0 
" id="m300930d7a3" style="stroke:#000000;stroke-width:0.8;"/>
      </defs>
      <g>
       <use style="stroke:#000000;stroke-width:0.8;" x="138.24" xlink:href="#m300930d7a3" y="487.6488"/>
      </g>
     </g>
     <g id="text_8">
      <!-- 0.0 -->
      <g transform="translate(115.336875 491.448019)scale(0.1 -0.1)">
       <defs>
        <path d="M 684 794 
L 1344 794 
L 1344 0 
L 684 0 
L 684 794 
z
" id="DejaVuSans-2e" transform="scale(0.015625)"/>
       </defs>
       <use xlink:href="#DejaVuSans-30"/>
       <use x="63.623047" xlink:href="#DejaVuSans-2e"/>
       <use x="95.410156" xlink:href="#DejaVuSans-30"/>
      </g>
     </g>
    </g>
    <g id="ytick_2">
     <g id="line2d_8">
      <g>
       <use style="stroke:#000000;stroke-width:0.8;" x="138.24" xlink:href="#m300930d7a3" y="404.104562"/>
      </g>
     </g>
     <g id="text_9">
      <!-- 0.2 -->
      <g transform="translate(115.336875 407.903781)scale(0.1 -0.1)">
       <use xlink:href="#DejaVuSans-30"/>
       <use x="63.623047" xlink:href="#DejaVuSans-2e"/>
       <use x="95.410156" xlink:href="#DejaVuSans-32"/>
      </g>
     </g>
    </g>
    <g id="ytick_3">
     <g id="line2d_9">
      <g>
       <use style="stroke:#000000;stroke-width:0.8;" x="138.24" xlink:href="#m300930d7a3" y="320.560325"/>
      </g>
     </g>
     <g id="text_10">
      <!-- 0.4 -->
      <g transform="translate(115.336875 324.359544)scale(0.1 -0.1)">
       <use xlink:href="#DejaVuSans-30"/>
       <use x="63.623047" xlink:href="#DejaVuSans-2e"/>
       <use x="95.410156" xlink:href="#DejaVuSans-34"/>
      </g>
     </g>
    </g>
    <g id="ytick_4">
     <g id="line2d_10">
      <g>
       <use style="stroke:#000000;stroke-width:0.8;" x="138.24" xlink:href="#m300930d7a3" y="237.016087"/>
      </g>
     </g>
     <g id="text_11">
      <!-- 0.6 -->
      <g transform="translate(115.336875 240.815306)scale(0.1 -0.1)">
       <use xlink:href="#DejaVuSans-30"/>
       <use x="63.623047" xlink:href="#DejaVuSans-2e"/>
       <use x="95.410156" xlink:href="#DejaVuSans-36"/>
      </g>
     </g>
    </g>
    <g id="ytick_5">
     <g id="line2d_11">
      <g>
       <use style="stroke:#000000;stroke-width:0.8;" x="138.24" xlink:href="#m300930d7a3" y="153.47185"/>
      </g>
     </g>
     <g id="text_12">
      <!-- 0.8 -->
      <g transform="translate(115.336875 157.271068)scale(0.1 -0.1)">
       <use xlink:href="#DejaVuSans-30"/>
       <use x="63.623047" xlink:href="#DejaVuSans-2e"/>
       <use x="95.410156" xlink:href="#DejaVuSans-38"/>
      </g>
     </g>
    </g>
    <g id="ytick_6">
     <g id="line2d_12">
      <g>
       <use style="stroke:#000000;stroke-width:0.8;" x="138.24" xlink:href="#m300930d7a3" y="69.927612"/>
      </g>
     </g>
     <g id="text_13">
      <!-- 1.0 -->
      <g transform="translate(115.336875 73.726831)scale(0.1 -0.1)">
       <use xlink:href="#DejaVuSans-31"/>
       <use x="63.623047" xlink:href="#DejaVuSans-2e"/>
       <use x="95.410156" xlink:href="#DejaVuSans-30"/>
      </g>
     </g>
    </g>
    <g id="text_14">
     <!-- Filtration Efficency -->
     <g transform="translate(109.257188 323.008975)rotate(-90)scale(0.1 -0.1)">
      <defs>
       <path d="M 628 4666 
L 3309 4666 
L 3309 4134 
L 1259 4134 
L 1259 2759 
L 3109 2759 
L 3109 2228 
L 1259 2228 
L 1259 0 
L 628 0 
L 628 4666 
z
" id="DejaVuSans-46" transform="scale(0.015625)"/>
       <path d="M 603 3500 
L 1178 3500 
L 1178 0 
L 603 0 
L 603 3500 
z
M 603 4863 
L 1178 4863 
L 1178 4134 
L 603 4134 
L 603 4863 
z
" id="DejaVuSans-69" transform="scale(0.015625)"/>
       <path d="M 603 4863 
L 1178 4863 
L 1178 0 
L 603 0 
L 603 4863 
z
" id="DejaVuSans-6c" transform="scale(0.015625)"/>
       <path d="M 1172 4494 
L 1172 3500 
L 2356 3500 
L 2356 3053 
L 1172 3053 
L 1172 1153 
Q 1172 725 1289 603 
Q 1406 481 1766 481 
L 2356 481 
L 2356 0 
L 1766 0 
Q 1100 0 847 248 
Q 594 497 594 1153 
L 594 3053 
L 172 3053 
L 172 3500 
L 594 3500 
L 594 4494 
L 1172 4494 
z
" id="DejaVuSans-74" transform="scale(0.015625)"/>
       <path d="M 3513 2113 
L 3513 0 
L 2938 0 
L 2938 2094 
Q 2938 2591 2744 2837 
Q 2550 3084 2163 3084 
Q 1697 3084 1428 2787 
Q 1159 2491 1159 1978 
L 1159 0 
L 581 0 
L 581 3500 
L 1159 3500 
L 1159 2956 
Q 1366 3272 1645 3428 
Q 1925 3584 2291 3584 
Q 2894 3584 3203 3211 
Q 3513 2838 3513 2113 
z
" id="DejaVuSans-6e" transform="scale(0.015625)"/>
       <path d="M 628 4666 
L 3578 4666 
L 3578 4134 
L 1259 4134 
L 1259 2753 
L 3481 2753 
L 3481 2222 
L 1259 2222 
L 1259 531 
L 3634 531 
L 3634 0 
L 628 0 
L 628 4666 
z
" id="DejaVuSans-45" transform="scale(0.015625)"/>
       <path d="M 2375 4863 
L 2375 4384 
L 1825 4384 
Q 1516 4384 1395 4259 
Q 1275 4134 1275 3809 
L 1275 3500 
L 2222 3500 
L 2222 3053 
L 1275 3053 
L 1275 0 
L 697 0 
L 697 3053 
L 147 3053 
L 147 3500 
L 697 3500 
L 697 3744 
Q 697 4328 969 4595 
Q 1241 4863 1831 4863 
L 2375 4863 
z
" id="DejaVuSans-66" transform="scale(0.015625)"/>
       <path d="M 3122 3366 
L 3122 2828 
Q 2878 2963 2633 3030 
Q 2388 3097 2138 3097 
Q 1578 3097 1268 2742 
Q 959 2388 959 1747 
Q 959 1106 1268 751 
Q 1578 397 2138 397 
Q 2388 397 2633 464 
Q 2878 531 3122 666 
L 3122 134 
Q 2881 22 2623 -34 
Q 2366 -91 2075 -91 
Q 1284 -91 818 406 
Q 353 903 353 1747 
Q 353 2603 823 3093 
Q 1294 3584 2113 3584 
Q 2378 3584 2631 3529 
Q 2884 3475 3122 3366 
z
" id="DejaVuSans-63" transform="scale(0.015625)"/>
       <path d="M 2059 -325 
Q 1816 -950 1584 -1140 
Q 1353 -1331 966 -1331 
L 506 -1331 
L 506 -850 
L 844 -850 
Q 1081 -850 1212 -737 
Q 1344 -625 1503 -206 
L 1606 56 
L 191 3500 
L 800 3500 
L 1894 763 
L 2988 3500 
L 3597 3500 
L 2059 -325 
z
" id="DejaVuSans-79" transform="scale(0.015625)"/>
      </defs>
      <use xlink:href="#DejaVuSans-46"/>
      <use x="50.269531" xlink:href="#DejaVuSans-69"/>
      <use x="78.052734" xlink:href="#DejaVuSans-6c"/>
      <use x="105.835938" xlink:href="#DejaVuSans-74"/>
      <use x="145.044922" xlink:href="#DejaVuSans-72"/>
      <use x="186.158203" xlink:href="#DejaVuSans-61"/>
      <use x="247.4375" xlink:href="#DejaVuSans-74"/>
      <use x="286.646484" xlink:href="#DejaVuSans-69"/>
      <use x="314.429688" xlink:href="#DejaVuSans-6f"/>
      <use x="375.611328" xlink:href="#DejaVuSans-6e"/>
      <use x="438.990234" xlink:href="#DejaVuSans-20"/>
      <use x="470.777344" xlink:href="#DejaVuSans-45"/>
      <use x="533.960938" xlink:href="#DejaVuSans-66"/>
      <use x="569.166016" xlink:href="#DejaVuSans-66"/>
      <use x="604.371094" xlink:href="#DejaVuSans-69"/>
      <use x="632.154297" xlink:href="#DejaVuSans-63"/>
      <use x="687.134766" xlink:href="#DejaVuSans-65"/>
      <use x="748.658203" xlink:href="#DejaVuSans-6e"/>
      <use x="812.037109" xlink:href="#DejaVuSans-63"/>
      <use x="867.017578" xlink:href="#DejaVuSans-79"/>
     </g>
    </g>
   </g>
   <g id="line2d_13">
    <path clip-path="url(#paf58b5e66a)" d="M 138.24 487.6488 
L 497.880847 478.118841 
L 864.243953 468.634273 
L 995.328 465.294512 
L 995.328 465.294512 
" style="fill:none;stroke:#858585;stroke-dasharray:1.5,2.475;stroke-dashoffset:0;stroke-opacity:0.5;stroke-width:1.5;"/>
   </g>
   <g id="line2d_14">
    <path clip-path="url(#paf58b5e66a)" d="M 138.24 487.6488 
L 228.990494 478.03081 
L 319.740988 468.634273 
L 413.852612 459.118173 
L 507.964235 449.829198 
L 602.075859 440.761927 
L 699.548612 431.598903 
L 797.021365 422.662291 
L 894.494118 413.946495 
L 995.328 405.156718 
L 995.328 405.156718 
" style="fill:none;stroke:#858585;stroke-dasharray:1.5,2.475;stroke-dashoffset:0;stroke-opacity:0.5;stroke-width:1.5;"/>
   </g>
   <g id="line2d_15">
    <path clip-path="url(#paf58b5e66a)" d="M 138.24 487.6488 
L 175.212424 477.854803 
L 212.184847 468.290439 
L 249.157271 458.950323 
L 286.129694 449.829198 
L 323.102118 440.921929 
L 363.435671 431.442922 
L 403.769224 422.206106 
L 444.102776 413.205293 
L 484.436329 404.434454 
L 524.769882 395.887712 
L 565.103435 387.559341 
L 605.436988 379.443763 
L 649.131671 370.885714 
L 692.826353 362.564293 
L 736.521035 354.472957 
L 780.215718 346.605345 
L 823.9104 338.955271 
L 870.966212 330.953115 
L 918.022024 323.188982 
L 965.077835 315.655791 
L 995.328 310.931772 
L 995.328 310.931772 
" style="fill:none;stroke:#858585;stroke-dasharray:1.5,2.475;stroke-dashoffset:0;stroke-opacity:0.5;stroke-width:1.5;"/>
   </g>
   <g id="line2d_16">
    <path clip-path="url(#paf58b5e66a)" d="M 138.24 487.6488 
L 158.406776 476.975908 
L 178.573553 466.575712 
L 198.740329 456.441244 
L 218.907106 446.565714 
L 239.073882 436.942506 
L 259.240659 427.565174 
L 279.407435 418.427436 
L 299.574212 409.523169 
L 319.740988 400.846409 
L 339.907765 392.391342 
L 360.074541 384.152305 
L 380.241318 376.123777 
L 403.769224 367.016055 
L 427.297129 358.179239 
L 450.825035 349.605272 
L 474.352941 341.286335 
L 497.880847 333.214843 
L 521.408753 325.383435 
L 544.936659 317.78497 
L 568.464565 310.412519 
L 591.992471 303.259361 
L 615.520376 296.31897 
L 639.048282 289.58502 
L 665.937318 282.133992 
L 692.826353 274.935712 
L 719.715388 267.981605 
L 746.604424 261.263389 
L 773.493459 254.773063 
L 800.382494 248.502896 
L 827.271529 242.445421 
L 854.160565 236.593421 
L 884.410729 230.246861 
L 914.660894 224.141976 
L 944.911059 218.269561 
L 975.161224 212.620766 
L 995.328 208.974916 
L 995.328 208.974916 
" style="fill:none;stroke:#858585;stroke-dasharray:1.5,2.475;stroke-dashoffset:0;stroke-opacity:0.5;stroke-width:1.5;"/>
   </g>
   <g id="line2d_17">
    <path clip-path="url(#paf58b5e66a)" d="M 138.24 487.6488 
L 148.323388 476.975908 
L 158.406776 466.575712 
L 168.490165 456.441244 
L 178.573553 446.565714 
L 188.656941 436.942506 
L 198.740329 427.565174 
L 208.823718 418.427436 
L 218.907106 409.523169 
L 228.990494 400.846409 
L 239.073882 392.391342 
L 252.5184 381.453008 
L 265.962918 370.885714 
L 279.407435 360.676874 
L 292.851953 350.81433 
L 306.296471 341.286335 
L 319.740988 332.08154 
L 333.185506 323.188982 
L 346.630024 314.59807 
L 360.074541 306.298571 
L 373.519059 298.2806 
L 386.963576 290.534609 
L 400.408094 283.05137 
L 413.852612 275.821971 
L 427.297129 268.837801 
L 440.741647 262.090542 
L 454.186165 255.572158 
L 467.630682 249.274885 
L 481.0752 243.191223 
L 494.519718 237.313925 
L 507.964235 231.635992 
L 524.769882 224.808651 
L 541.575529 218.269561 
L 558.381176 212.006553 
L 575.186824 206.007968 
L 591.992471 200.262645 
L 608.798118 194.75989 
L 625.603765 189.489461 
L 642.409412 184.44155 
L 659.215059 179.606763 
L 676.020706 174.9761 
L 696.187482 169.676642 
L 716.354259 164.644529 
L 736.521035 159.866275 
L 756.687812 155.329073 
L 776.854588 151.020763 
L 797.021365 146.929797 
L 817.188141 143.045211 
L 840.716047 138.760175 
L 864.243953 134.726263 
L 887.771859 130.928756 
L 911.299765 127.353802 
L 934.827671 123.988356 
L 961.716706 120.382958 
L 988.605741 117.018009 
L 995.328 116.212439 
L 995.328 116.212439 
" style="fill:none;stroke:#858585;stroke-dasharray:1.5,2.475;stroke-dashoffset:0;stroke-opacity:0.5;stroke-width:1.5;"/>
   </g>
   <g id="line2d_18">
    <path clip-path="url(#paf58b5e66a)" d="M 138.24 487.6488 
L 144.962259 470.012578 
L 151.684518 453.12096 
L 158.406776 436.942506 
L 165.129035 421.447108 
L 171.851294 406.605927 
L 178.573553 392.391342 
L 185.295812 378.776898 
L 192.018071 365.737257 
L 198.740329 353.24815 
L 205.462588 341.286335 
L 212.184847 329.829548 
L 218.907106 318.856468 
L 225.629365 308.346672 
L 232.351624 298.2806 
L 239.073882 288.639519 
L 245.796141 279.405485 
L 252.5184 270.561313 
L 259.240659 262.090542 
L 265.962918 253.977408 
L 272.685176 246.206811 
L 279.407435 238.764289 
L 286.129694 231.635992 
L 292.851953 224.808651 
L 299.574212 218.269561 
L 306.296471 212.006553 
L 313.018729 206.007968 
L 319.740988 200.262645 
L 326.463247 194.75989 
L 333.185506 189.489461 
L 339.907765 184.44155 
L 346.630024 179.606763 
L 353.352282 174.9761 
L 360.074541 170.540945 
L 366.7968 166.293042 
L 373.519059 162.224486 
L 383.602447 156.441451 
L 393.685835 151.020763 
L 403.769224 145.939719 
L 413.852612 141.177037 
L 423.936 136.712769 
L 434.019388 132.528219 
L 444.102776 128.60586 
L 454.186165 124.929264 
L 464.269553 121.483031 
L 474.352941 118.252729 
L 484.436329 115.224828 
L 494.519718 112.386645 
L 507.964235 108.877082 
L 521.408753 105.657612 
L 534.853271 102.704255 
L 548.297788 99.995015 
L 561.742306 97.509715 
L 575.186824 95.229844 
L 588.631341 93.138422 
L 605.436988 90.765544 
L 622.242635 88.635249 
L 639.048282 86.722738 
L 659.215059 84.684013 
L 679.381835 82.892764 
L 699.548612 81.318952 
L 723.076518 79.722621 
L 746.604424 78.349993 
L 773.493459 77.015189 
L 803.743624 75.764664 
L 833.993788 74.734781 
L 867.605082 73.802133 
L 907.938635 72.918584 
L 951.633318 72.187254 
L 995.328 71.634743 
L 995.328 71.634743 
" style="fill:none;stroke:#858585;stroke-dasharray:1.5,2.475;stroke-dashoffset:0;stroke-opacity:0.5;stroke-width:1.5;"/>
   </g>
   <g id="line2d_19">
    <path clip-path="url(#paf58b5e66a)" d="M 138.24 487.6488 
L 141.601129 470.012578 
L 144.962259 453.12096 
L 148.323388 436.942506 
L 151.684518 421.447108 
L 155.045647 406.605927 
L 158.406776 392.391342 
L 161.767906 378.776898 
L 165.129035 365.737257 
L 168.490165 353.24815 
L 171.851294 341.286335 
L 175.212424 329.829548 
L 178.573553 318.856468 
L 181.934682 308.346672 
L 185.295812 298.2806 
L 188.656941 288.639519 
L 192.018071 279.405485 
L 195.3792 270.561313 
L 198.740329 262.090542 
L 202.101459 253.977408 
L 205.462588 246.206811 
L 208.823718 238.764289 
L 212.184847 231.635992 
L 215.545976 224.808651 
L 218.907106 218.269561 
L 222.268235 212.006553 
L 225.629365 206.007968 
L 228.990494 200.262645 
L 232.351624 194.75989 
L 235.712753 189.489461 
L 239.073882 184.44155 
L 242.435012 179.606763 
L 245.796141 174.9761 
L 249.157271 170.540945 
L 252.5184 166.293042 
L 259.240659 158.327705 
L 265.962918 151.020763 
L 272.685176 144.317796 
L 279.407435 138.16888 
L 286.129694 132.528219 
L 292.851953 127.353802 
L 299.574212 122.607089 
L 306.296471 118.252729 
L 313.018729 114.25829 
L 319.740988 110.594021 
L 326.463247 107.232633 
L 333.185506 104.149088 
L 339.907765 101.320422 
L 346.630024 98.725567 
L 353.352282 96.345197 
L 360.074541 94.161582 
L 366.7968 92.15846 
L 373.519059 90.320911 
L 383.602447 87.845411 
L 393.685835 85.670407 
L 403.769224 83.759423 
L 413.852612 82.080408 
L 423.936 80.605206 
L 437.380518 78.912989 
L 450.825035 77.48896 
L 464.269553 76.290615 
L 481.0752 75.056117 
L 497.880847 74.061126 
L 518.047624 73.118516 
L 538.2144 72.39086 
L 561.742306 71.748856 
L 591.992471 71.162876 
L 628.964894 70.696181 
L 676.020706 70.347761 
L 739.882165 70.112731 
L 844.077176 69.976218 
L 995.328 69.934589 
L 995.328 69.934589 
" style="fill:none;stroke:#858585;stroke-dasharray:1.5,2.475;stroke-dashoffset:0;stroke-opacity:0.5;stroke-width:1.5;"/>
   </g>
   <g id="line2d_20">
    <path clip-path="url(#paf58b5e66a)" d="M 138.24 487.6488 
L 141.601129 453.12096 
L 144.962259 421.447108 
L 148.323388 392.391342 
L 151.684518 365.737257 
L 155.045647 341.286335 
L 158.406776 318.856468 
L 161.767906 298.2806 
L 165.129035 279.405485 
L 168.490165 262.090542 
L 171.851294 246.206811 
L 175.212424 231.635992 
L 178.573553 218.269561 
L 181.934682 206.007968 
L 185.295812 194.75989 
L 188.656941 184.44155 
L 192.018071 174.9761 
L 195.3792 166.293042 
L 198.740329 158.327705 
L 202.101459 151.020763 
L 205.462588 144.317796 
L 208.823718 138.16888 
L 212.184847 132.528219 
L 215.545976 127.353802 
L 218.907106 122.607089 
L 222.268235 118.252729 
L 225.629365 114.25829 
L 228.990494 110.594021 
L 232.351624 107.232633 
L 235.712753 104.149088 
L 239.073882 101.320422 
L 242.435012 98.725567 
L 245.796141 96.345197 
L 249.157271 94.161582 
L 252.5184 92.15846 
L 255.879529 90.320911 
L 259.240659 88.635249 
L 262.601788 87.08892 
L 269.324047 84.369145 
L 276.046306 82.080408 
L 282.768565 80.154397 
L 289.490824 78.533626 
L 296.213082 77.169719 
L 302.935341 76.021969 
L 309.6576 75.056117 
L 319.740988 73.886609 
L 329.824376 72.983796 
L 339.907765 72.286861 
L 353.352282 71.598317 
L 370.157929 71.01293 
L 390.324706 70.574376 
L 417.213741 70.25195 
L 454.186165 70.05317 
L 521.408753 69.949972 
L 763.410071 69.927657 
L 995.328 69.927612 
L 995.328 69.927612 
" style="fill:none;stroke:#858585;stroke-dasharray:1.5,2.475;stroke-dashoffset:0;stroke-opacity:0.5;stroke-width:1.5;"/>
   </g>
   <g id="line2d_21">
    <path clip-path="url(#paf58b5e66a)" d="M 138.24 487.6488 
L 141.601129 406.605927 
L 144.962259 341.286335 
L 148.323388 288.639519 
L 151.684518 246.206811 
L 155.045647 212.006553 
L 158.406776 184.44155 
L 161.767906 162.224486 
L 165.129035 144.317796 
L 168.490165 129.885217 
L 171.851294 118.252729 
L 175.212424 108.877082 
L 178.573553 101.320422 
L 181.934682 95.229844 
L 185.295812 90.320911 
L 188.656941 86.364368 
L 192.018071 83.175442 
L 195.3792 80.605206 
L 198.740329 78.533626 
L 202.101459 76.863957 
L 205.462588 75.518224 
L 208.823718 74.433578 
L 212.184847 73.559367 
L 215.545976 72.854764 
L 222.268235 71.829139 
L 228.990494 71.162876 
L 235.712753 70.73006 
L 245.796141 70.347761 
L 259.240659 70.104915 
L 282.768565 69.966788 
L 346.630024 69.928262 
L 995.328 69.927612 
L 995.328 69.927612 
" style="fill:none;stroke:#858585;stroke-dasharray:1.5,2.475;stroke-dashoffset:0;stroke-opacity:0.5;stroke-width:1.5;"/>
   </g>
   <g id="line2d_22">
    <defs>
     <path d="M 0 2.5 
C 0.663008 2.5 1.29895 2.236584 1.767767 1.767767 
C 2.236584 1.29895 2.5 0.663008 2.5 0 
C 2.5 -0.663008 2.236584 -1.29895 1.767767 -1.767767 
C 1.29895 -2.236584 0.663008 -2.5 0 -2.5 
C -0.663008 -2.5 -1.29895 -2.236584 -1.767767 -1.767767 
C -2.236584 -1.29895 -2.5 -0.663008 -2.5 0 
C -2.5 0.663008 -2.236584 1.29895 -1.767767 1.767767 
C -1.29895 2.236584 -0.663008 2.5 0 2.5 
z
" id="m15687e230f" style="stroke:#0d0887;stroke-width:2;"/>
    </defs>
    <g clip-path="url(#paf58b5e66a)">
     <use style="fill:#0d0887;stroke:#0d0887;stroke-width:2;" x="177.198545" xlink:href="#m15687e230f" y="343.053004"/>
    </g>
   </g>
   <g id="line2d_23">
    <g clip-path="url(#paf58b5e66a)">
     <use style="fill:#0d0887;stroke:#0d0887;stroke-width:2;" x="278.490764" xlink:href="#m15687e230f" y="235.476101"/>
    </g>
   </g>
   <g id="line2d_24">
    <g clip-path="url(#paf58b5e66a)">
     <use style="fill:#0d0887;stroke:#0d0887;stroke-width:2;" x="364.199564" xlink:href="#m15687e230f" y="209.615726"/>
    </g>
   </g>
   <g id="line2d_25">
    <g clip-path="url(#paf58b5e66a)">
     <use style="fill:#0d0887;stroke:#0d0887;stroke-width:2;" x="465.491782" xlink:href="#m15687e230f" y="125.455504"/>
    </g>
   </g>
   <g id="line2d_26">
    <g clip-path="url(#paf58b5e66a)">
     <use style="fill:#0d0887;stroke:#0d0887;stroke-width:2;" x="192.781964" xlink:href="#m15687e230f" y="371.342116"/>
    </g>
   </g>
   <g id="line2d_27">
    <g clip-path="url(#paf58b5e66a)">
     <use style="fill:#0d0887;stroke:#0d0887;stroke-width:2;" x="223.9488" xlink:href="#m15687e230f" y="325.82888"/>
    </g>
   </g>
   <g id="line2d_28">
    <g clip-path="url(#paf58b5e66a)">
     <use style="fill:#0d0887;stroke:#0d0887;stroke-width:2;" x="286.282473" xlink:href="#m15687e230f" y="235.319757"/>
    </g>
   </g>
   <g id="line2d_29">
    <defs>
     <path d="M 0 -2.5 
L -2.5 2.5 
L 2.5 2.5 
z
" id="m1d5569e07e" style="stroke:#9c179e;stroke-linejoin:miter;stroke-width:2;"/>
    </defs>
    <g clip-path="url(#paf58b5e66a)">
     <use style="fill:#9c179e;stroke:#9c179e;stroke-linejoin:miter;stroke-width:2;" x="333.032727" xlink:href="#m1d5569e07e" y="107.176635"/>
    </g>
   </g>
   <g id="line2d_30">
    <g clip-path="url(#paf58b5e66a)">
     <use style="fill:#9c179e;stroke:#9c179e;stroke-linejoin:miter;stroke-width:2;" x="512.242036" xlink:href="#m1d5569e07e" y="82.286227"/>
    </g>
   </g>
   <g id="line2d_31">
    <g clip-path="url(#paf58b5e66a)">
     <use style="fill:#9c179e;stroke:#9c179e;stroke-linejoin:miter;stroke-width:2;" x="660.284509" xlink:href="#m1d5569e07e" y="74.827567"/>
    </g>
   </g>
   <g id="line2d_32">
    <g clip-path="url(#paf58b5e66a)">
     <use style="fill:#9c179e;stroke:#9c179e;stroke-linejoin:miter;stroke-width:2;" x="348.616145" xlink:href="#m1d5569e07e" y="77.884206"/>
    </g>
   </g>
   <g id="line2d_33">
    <g clip-path="url(#paf58b5e66a)">
     <use style="fill:#9c179e;stroke:#9c179e;stroke-linejoin:miter;stroke-width:2;" x="590.159127" xlink:href="#m1d5569e07e" y="69.927612"/>
    </g>
   </g>
   <g id="line2d_34">
    <g clip-path="url(#paf58b5e66a)">
     <use style="fill:#9c179e;stroke:#9c179e;stroke-linejoin:miter;stroke-width:2;" x="971.952873" xlink:href="#m1d5569e07e" y="69.927612"/>
    </g>
   </g>
   <g id="line2d_35">
    <g clip-path="url(#paf58b5e66a)">
     <use style="fill:#9c179e;stroke:#9c179e;stroke-linejoin:miter;stroke-width:2;" x="239.532218" xlink:href="#m1d5569e07e" y="164.434668"/>
    </g>
   </g>
   <g id="line2d_36">
    <g clip-path="url(#paf58b5e66a)">
     <use style="fill:#9c179e;stroke:#9c179e;stroke-linejoin:miter;stroke-width:2;" x="348.616145" xlink:href="#m1d5569e07e" y="83.909911"/>
    </g>
   </g>
   <g id="line2d_37">
    <g clip-path="url(#paf58b5e66a)">
     <use style="fill:#9c179e;stroke:#9c179e;stroke-linejoin:miter;stroke-width:2;" x="488.866909" xlink:href="#m1d5569e07e" y="69.927612"/>
    </g>
   </g>
   <g id="line2d_38">
    <g clip-path="url(#paf58b5e66a)">
     <use style="fill:#0d0887;stroke:#0d0887;stroke-width:2;" x="153.823418" xlink:href="#m15687e230f" y="646.500519"/>
    </g>
   </g>
   <g id="line2d_39">
    <g clip-path="url(#paf58b5e66a)">
     <use style="fill:#0d0887;stroke:#0d0887;stroke-width:2;" x="216.157091" xlink:href="#m15687e230f" y="370.422696"/>
    </g>
   </g>
   <g id="line2d_40">
    <g clip-path="url(#paf58b5e66a)">
     <use style="fill:#0d0887;stroke:#0d0887;stroke-width:2;" x="317.449309" xlink:href="#m15687e230f" y="228.756961"/>
    </g>
   </g>
   <g id="line2d_41">
    <g clip-path="url(#paf58b5e66a)">
     <use style="fill:#0d0887;stroke:#0d0887;stroke-width:2;" x="449.908364" xlink:href="#m15687e230f" y="167.260704"/>
    </g>
   </g>
   <g id="line2d_42">
    <defs>
     <path d="M 0 3.535534 
L 3.535534 0 
L 0 -3.535534 
L -3.535534 0 
z
" id="mda5bc3af9a" style="stroke:#ed7953;stroke-linejoin:miter;stroke-width:2;"/>
    </defs>
    <g clip-path="url(#paf58b5e66a)">
     <use style="fill:#ed7953;stroke:#ed7953;stroke-linejoin:miter;stroke-width:2;" x="255.115636" xlink:href="#mda5bc3af9a" y="316.682744"/>
    </g>
   </g>
   <g id="line2d_43">
    <g clip-path="url(#paf58b5e66a)">
     <use style="fill:#ed7953;stroke:#ed7953;stroke-linejoin:miter;stroke-width:2;" x="309.6576" xlink:href="#mda5bc3af9a" y="303.413691"/>
    </g>
   </g>
   <g id="line2d_44">
    <g clip-path="url(#paf58b5e66a)">
     <use style="fill:#ed7953;stroke:#ed7953;stroke-linejoin:miter;stroke-width:2;" x="348.616145" xlink:href="#mda5bc3af9a" y="221.351543"/>
    </g>
   </g>
   <g id="line2d_45">
    <g clip-path="url(#paf58b5e66a)">
     <use style="fill:#ed7953;stroke:#ed7953;stroke-linejoin:miter;stroke-width:2;" x="527.825455" xlink:href="#mda5bc3af9a" y="130.163269"/>
    </g>
   </g>
   <g id="line2d_46">
    <g clip-path="url(#paf58b5e66a)">
     <use style="fill:#ed7953;stroke:#ed7953;stroke-linejoin:miter;stroke-width:2;" x="722.618182" xlink:href="#mda5bc3af9a" y="89.819097"/>
    </g>
   </g>
   <g id="line2d_47">
    <defs>
     <path d="M 0 -2.5 
L -0.561285 -0.772542 
L -2.377641 -0.772542 
L -0.908178 0.295085 
L -1.469463 2.022542 
L -0 0.954915 
L 1.469463 2.022542 
L 0.908178 0.295085 
L 2.377641 -0.772542 
L 0.561285 -0.772542 
z
" id="mf7893cad88" style="stroke:#f0f921;stroke-linejoin:bevel;stroke-width:2;"/>
    </defs>
    <g clip-path="url(#paf58b5e66a)">
     <use style="fill:#f0f921;stroke:#f0f921;stroke-linejoin:bevel;stroke-width:2;" x="410.949818" xlink:href="#mf7893cad88" y="99.070951"/>
    </g>
   </g>
   <g id="line2d_48">
    <g clip-path="url(#paf58b5e66a)">
     <use style="fill:#f0f921;stroke:#f0f921;stroke-linejoin:bevel;stroke-width:2;" x="488.866909" xlink:href="#mf7893cad88" y="69.927612"/>
    </g>
   </g>
   <g id="line2d_49">
    <g clip-path="url(#paf58b5e66a)">
     <use style="fill:#f0f921;stroke:#f0f921;stroke-linejoin:bevel;stroke-width:2;" x="418.741527" xlink:href="#mf7893cad88" y="96.877366"/>
    </g>
   </g>
   <g id="line2d_50">
    <g clip-path="url(#paf58b5e66a)">
     <use style="fill:#f0f921;stroke:#f0f921;stroke-linejoin:bevel;stroke-width:2;" x="208.365382" xlink:href="#mf7893cad88" y="246.047897"/>
    </g>
   </g>
   <g id="line2d_51">
    <g clip-path="url(#paf58b5e66a)">
     <use style="fill:#f0f921;stroke:#f0f921;stroke-linejoin:bevel;stroke-width:2;" x="286.282473" xlink:href="#mf7893cad88" y="180.399331"/>
    </g>
   </g>
   <g id="line2d_52">
    <g clip-path="url(#paf58b5e66a)">
     <use style="fill:#f0f921;stroke:#f0f921;stroke-linejoin:bevel;stroke-width:2;" x="496.658618" xlink:href="#mf7893cad88" y="69.927612"/>
    </g>
   </g>
   <g id="line2d_53">
    <g clip-path="url(#paf58b5e66a)">
     <use style="fill:#f0f921;stroke:#f0f921;stroke-linejoin:bevel;stroke-width:2;" x="208.365382" xlink:href="#mf7893cad88" y="377.266517"/>
    </g>
   </g>
   <g id="line2d_54">
    <g clip-path="url(#paf58b5e66a)">
     <use style="fill:#f0f921;stroke:#f0f921;stroke-linejoin:bevel;stroke-width:2;" x="169.406836" xlink:href="#mf7893cad88" y="286.209648"/>
    </g>
   </g>
   <g id="patch_3">
    <path d="M 138.24 487.6488 
L 138.24 65.7504 
" style="fill:none;stroke:#000000;stroke-linecap:square;stroke-linejoin:miter;stroke-width:0.8;"/>
   </g>
   <g id="patch_4">
    <path d="M 995.328 487.6488 
L 995.328 65.7504 
" style="fill:none;stroke:#000000;stroke-linecap:square;stroke-linejoin:miter;stroke-width:0.8;"/>
   </g>
   <g id="patch_5">
    <path d="M 138.24 487.6488 
L 995.328 487.6488 
" style="fill:none;stroke:#000000;stroke-linecap:square;stroke-linejoin:miter;stroke-width:0.8;"/>
   </g>
   <g id="patch_6">
    <path d="M 138.24 65.7504 
L 995.328 65.7504 
" style="fill:none;stroke:#000000;stroke-linecap:square;stroke-linejoin:miter;stroke-width:0.8;"/>
   </g>
   <g id="text_15">
    <!-- Filtration Efficency vs. Pressure Drop at 2.58 um -->
    <g transform="translate(422.107125 59.7504)scale(0.12 -0.12)">
     <defs>
      <path d="M 191 3500 
L 800 3500 
L 1894 563 
L 2988 3500 
L 3597 3500 
L 2284 0 
L 1503 0 
L 191 3500 
z
" id="DejaVuSans-76" transform="scale(0.015625)"/>
      <path d="M 691 4666 
L 3169 4666 
L 3169 4134 
L 1269 4134 
L 1269 2991 
Q 1406 3038 1543 3061 
Q 1681 3084 1819 3084 
Q 2600 3084 3056 2656 
Q 3513 2228 3513 1497 
Q 3513 744 3044 326 
Q 2575 -91 1722 -91 
Q 1428 -91 1123 -41 
Q 819 9 494 109 
L 494 744 
Q 775 591 1075 516 
Q 1375 441 1709 441 
Q 2250 441 2565 725 
Q 2881 1009 2881 1497 
Q 2881 1984 2565 2268 
Q 2250 2553 1709 2553 
Q 1456 2553 1204 2497 
Q 953 2441 691 2322 
L 691 4666 
z
" id="DejaVuSans-35" transform="scale(0.015625)"/>
      <path d="M 3328 2828 
Q 3544 3216 3844 3400 
Q 4144 3584 4550 3584 
Q 5097 3584 5394 3201 
Q 5691 2819 5691 2113 
L 5691 0 
L 5113 0 
L 5113 2094 
Q 5113 2597 4934 2840 
Q 4756 3084 4391 3084 
Q 3944 3084 3684 2787 
Q 3425 2491 3425 1978 
L 3425 0 
L 2847 0 
L 2847 2094 
Q 2847 2600 2669 2842 
Q 2491 3084 2119 3084 
Q 1678 3084 1418 2786 
Q 1159 2488 1159 1978 
L 1159 0 
L 581 0 
L 581 3500 
L 1159 3500 
L 1159 2956 
Q 1356 3278 1631 3431 
Q 1906 3584 2284 3584 
Q 2666 3584 2933 3390 
Q 3200 3197 3328 2828 
z
" id="DejaVuSans-6d" transform="scale(0.015625)"/>
     </defs>
     <use xlink:href="#DejaVuSans-46"/>
     <use x="50.269531" xlink:href="#DejaVuSans-69"/>
     <use x="78.052734" xlink:href="#DejaVuSans-6c"/>
     <use x="105.835938" xlink:href="#DejaVuSans-74"/>
     <use x="145.044922" xlink:href="#DejaVuSans-72"/>
     <use x="186.158203" xlink:href="#DejaVuSans-61"/>
     <use x="247.4375" xlink:href="#DejaVuSans-74"/>
     <use x="286.646484" xlink:href="#DejaVuSans-69"/>
     <use x="314.429688" xlink:href="#DejaVuSans-6f"/>
     <use x="375.611328" xlink:href="#DejaVuSans-6e"/>
     <use x="438.990234" xlink:href="#DejaVuSans-20"/>
     <use x="470.777344" xlink:href="#DejaVuSans-45"/>
     <use x="533.960938" xlink:href="#DejaVuSans-66"/>
     <use x="569.166016" xlink:href="#DejaVuSans-66"/>
     <use x="604.371094" xlink:href="#DejaVuSans-69"/>
     <use x="632.154297" xlink:href="#DejaVuSans-63"/>
     <use x="687.134766" xlink:href="#DejaVuSans-65"/>
     <use x="748.658203" xlink:href="#DejaVuSans-6e"/>
     <use x="812.037109" xlink:href="#DejaVuSans-63"/>
     <use x="867.017578" xlink:href="#DejaVuSans-79"/>
     <use x="926.197266" xlink:href="#DejaVuSans-20"/>
     <use x="957.984375" xlink:href="#DejaVuSans-76"/>
     <use x="1017.164062" xlink:href="#DejaVuSans-73"/>
     <use x="1069.263672" xlink:href="#DejaVuSans-2e"/>
     <use x="1101.050781" xlink:href="#DejaVuSans-20"/>
     <use x="1132.837891" xlink:href="#DejaVuSans-50"/>
     <use x="1191.390625" xlink:href="#DejaVuSans-72"/>
     <use x="1230.253906" xlink:href="#DejaVuSans-65"/>
     <use x="1291.777344" xlink:href="#DejaVuSans-73"/>
     <use x="1343.876953" xlink:href="#DejaVuSans-73"/>
     <use x="1395.976562" xlink:href="#DejaVuSans-75"/>
     <use x="1459.355469" xlink:href="#DejaVuSans-72"/>
     <use x="1498.21875" xlink:href="#DejaVuSans-65"/>
     <use x="1559.742188" xlink:href="#DejaVuSans-20"/>
     <use x="1591.529297" xlink:href="#DejaVuSans-44"/>
     <use x="1668.53125" xlink:href="#DejaVuSans-72"/>
     <use x="1707.394531" xlink:href="#DejaVuSans-6f"/>
     <use x="1768.576172" xlink:href="#DejaVuSans-70"/>
     <use x="1832.052734" xlink:href="#DejaVuSans-20"/>
     <use x="1863.839844" xlink:href="#DejaVuSans-61"/>
     <use x="1925.119141" xlink:href="#DejaVuSans-74"/>
     <use x="1964.328125" xlink:href="#DejaVuSans-20"/>
     <use x="1996.115234" xlink:href="#DejaVuSans-32"/>
     <use x="2059.738281" xlink:href="#DejaVuSans-2e"/>
     <use x="2091.525391" xlink:href="#DejaVuSans-35"/>
     <use x="2155.148438" xlink:href="#DejaVuSans-38"/>
     <use x="2218.771484" xlink:href="#DejaVuSans-20"/>
     <use x="2250.558594" xlink:href="#DejaVuSans-75"/>
     <use x="2313.9375" xlink:href="#DejaVuSans-6d"/>
    </g>
   </g>
   <g id="legend_1">
    <g id="patch_7">
     <path d="M 1045.1824 562.578525 
L 1159.458963 562.578525 
Q 1161.458963 562.578525 1161.458963 560.578525 
L 1161.458963 72.7504 
Q 1161.458963 70.7504 1159.458963 70.7504 
L 1045.1824 70.7504 
Q 1043.1824 70.7504 1043.1824 72.7504 
L 1043.1824 560.578525 
Q 1043.1824 562.578525 1045.1824 562.578525 
z
" style="fill:#ffffff;opacity:0.8;stroke:#cccccc;stroke-linejoin:miter;"/>
    </g>
    <g id="line2d_55"/>
    <g id="line2d_56">
     <g>
      <use style="fill:#0d0887;stroke:#0d0887;stroke-width:2;" x="1057.1824" xlink:href="#m15687e230f" y="78.848838"/>
     </g>
    </g>
    <g id="text_16">
     <!-- SMT_FB_THCK -->
     <g transform="translate(1075.1824 82.348838)scale(0.1 -0.1)">
      <defs>
       <path d="M 3425 4513 
L 3425 3897 
Q 3066 4069 2747 4153 
Q 2428 4238 2131 4238 
Q 1616 4238 1336 4038 
Q 1056 3838 1056 3469 
Q 1056 3159 1242 3001 
Q 1428 2844 1947 2747 
L 2328 2669 
Q 3034 2534 3370 2195 
Q 3706 1856 3706 1288 
Q 3706 609 3251 259 
Q 2797 -91 1919 -91 
Q 1588 -91 1214 -16 
Q 841 59 441 206 
L 441 856 
Q 825 641 1194 531 
Q 1563 422 1919 422 
Q 2459 422 2753 634 
Q 3047 847 3047 1241 
Q 3047 1584 2836 1778 
Q 2625 1972 2144 2069 
L 1759 2144 
Q 1053 2284 737 2584 
Q 422 2884 422 3419 
Q 422 4038 858 4394 
Q 1294 4750 2059 4750 
Q 2388 4750 2728 4690 
Q 3069 4631 3425 4513 
z
" id="DejaVuSans-53" transform="scale(0.015625)"/>
       <path d="M 628 4666 
L 1569 4666 
L 2759 1491 
L 3956 4666 
L 4897 4666 
L 4897 0 
L 4281 0 
L 4281 4097 
L 3078 897 
L 2444 897 
L 1241 4097 
L 1241 0 
L 628 0 
L 628 4666 
z
" id="DejaVuSans-4d" transform="scale(0.015625)"/>
       <path d="M -19 4666 
L 3928 4666 
L 3928 4134 
L 2272 4134 
L 2272 0 
L 1638 0 
L 1638 4134 
L -19 4134 
L -19 4666 
z
" id="DejaVuSans-54" transform="scale(0.015625)"/>
       <path d="M 3263 -1063 
L 3263 -1509 
L -63 -1509 
L -63 -1063 
L 3263 -1063 
z
" id="DejaVuSans-5f" transform="scale(0.015625)"/>
       <path d="M 1259 2228 
L 1259 519 
L 2272 519 
Q 2781 519 3026 730 
Q 3272 941 3272 1375 
Q 3272 1813 3026 2020 
Q 2781 2228 2272 2228 
L 1259 2228 
z
M 1259 4147 
L 1259 2741 
L 2194 2741 
Q 2656 2741 2882 2914 
Q 3109 3088 3109 3444 
Q 3109 3797 2882 3972 
Q 2656 4147 2194 4147 
L 1259 4147 
z
M 628 4666 
L 2241 4666 
Q 2963 4666 3353 4366 
Q 3744 4066 3744 3513 
Q 3744 3084 3544 2831 
Q 3344 2578 2956 2516 
Q 3422 2416 3680 2098 
Q 3938 1781 3938 1306 
Q 3938 681 3513 340 
Q 3088 0 2303 0 
L 628 0 
L 628 4666 
z
" id="DejaVuSans-42" transform="scale(0.015625)"/>
       <path d="M 628 4666 
L 1259 4666 
L 1259 2753 
L 3553 2753 
L 3553 4666 
L 4184 4666 
L 4184 0 
L 3553 0 
L 3553 2222 
L 1259 2222 
L 1259 0 
L 628 0 
L 628 4666 
z
" id="DejaVuSans-48" transform="scale(0.015625)"/>
       <path d="M 4122 4306 
L 4122 3641 
Q 3803 3938 3442 4084 
Q 3081 4231 2675 4231 
Q 1875 4231 1450 3742 
Q 1025 3253 1025 2328 
Q 1025 1406 1450 917 
Q 1875 428 2675 428 
Q 3081 428 3442 575 
Q 3803 722 4122 1019 
L 4122 359 
Q 3791 134 3420 21 
Q 3050 -91 2638 -91 
Q 1578 -91 968 557 
Q 359 1206 359 2328 
Q 359 3453 968 4101 
Q 1578 4750 2638 4750 
Q 3056 4750 3426 4639 
Q 3797 4528 4122 4306 
z
" id="DejaVuSans-43" transform="scale(0.015625)"/>
       <path d="M 628 4666 
L 1259 4666 
L 1259 2694 
L 3353 4666 
L 4166 4666 
L 1850 2491 
L 4331 0 
L 3500 0 
L 1259 2247 
L 1259 0 
L 628 0 
L 628 4666 
z
" id="DejaVuSans-4b" transform="scale(0.015625)"/>
      </defs>
      <use xlink:href="#DejaVuSans-53"/>
      <use x="63.476562" xlink:href="#DejaVuSans-4d"/>
      <use x="149.755859" xlink:href="#DejaVuSans-54"/>
      <use x="210.839844" xlink:href="#DejaVuSans-5f"/>
      <use x="260.839844" xlink:href="#DejaVuSans-46"/>
      <use x="318.359375" xlink:href="#DejaVuSans-42"/>
      <use x="386.962891" xlink:href="#DejaVuSans-5f"/>
      <use x="436.962891" xlink:href="#DejaVuSans-54"/>
      <use x="498.046875" xlink:href="#DejaVuSans-48"/>
      <use x="573.242188" xlink:href="#DejaVuSans-43"/>
      <use x="643.066406" xlink:href="#DejaVuSans-4b"/>
     </g>
    </g>
    <g id="line2d_57"/>
    <g id="line2d_58">
     <g>
      <use style="fill:#0d0887;stroke:#0d0887;stroke-width:2;" x="1057.1824" xlink:href="#m15687e230f" y="93.805088"/>
     </g>
    </g>
    <g id="text_17">
     <!-- SMT_FB_THCK -->
     <g transform="translate(1075.1824 97.305088)scale(0.1 -0.1)">
      <use xlink:href="#DejaVuSans-53"/>
      <use x="63.476562" xlink:href="#DejaVuSans-4d"/>
      <use x="149.755859" xlink:href="#DejaVuSans-54"/>
      <use x="210.839844" xlink:href="#DejaVuSans-5f"/>
      <use x="260.839844" xlink:href="#DejaVuSans-46"/>
      <use x="318.359375" xlink:href="#DejaVuSans-42"/>
      <use x="386.962891" xlink:href="#DejaVuSans-5f"/>
      <use x="436.962891" xlink:href="#DejaVuSans-54"/>
      <use x="498.046875" xlink:href="#DejaVuSans-48"/>
      <use x="573.242188" xlink:href="#DejaVuSans-43"/>
      <use x="643.066406" xlink:href="#DejaVuSans-4b"/>
     </g>
    </g>
    <g id="line2d_59"/>
    <g id="line2d_60">
     <g>
      <use style="fill:#0d0887;stroke:#0d0887;stroke-width:2;" x="1057.1824" xlink:href="#m15687e230f" y="108.761338"/>
     </g>
    </g>
    <g id="text_18">
     <!-- SMT_FB_THCK -->
     <g transform="translate(1075.1824 112.261338)scale(0.1 -0.1)">
      <use xlink:href="#DejaVuSans-53"/>
      <use x="63.476562" xlink:href="#DejaVuSans-4d"/>
      <use x="149.755859" xlink:href="#DejaVuSans-54"/>
      <use x="210.839844" xlink:href="#DejaVuSans-5f"/>
      <use x="260.839844" xlink:href="#DejaVuSans-46"/>
      <use x="318.359375" xlink:href="#DejaVuSans-42"/>
      <use x="386.962891" xlink:href="#DejaVuSans-5f"/>
      <use x="436.962891" xlink:href="#DejaVuSans-54"/>
      <use x="498.046875" xlink:href="#DejaVuSans-48"/>
      <use x="573.242188" xlink:href="#DejaVuSans-43"/>
      <use x="643.066406" xlink:href="#DejaVuSans-4b"/>
     </g>
    </g>
    <g id="line2d_61"/>
    <g id="line2d_62">
     <g>
      <use style="fill:#0d0887;stroke:#0d0887;stroke-width:2;" x="1057.1824" xlink:href="#m15687e230f" y="123.717588"/>
     </g>
    </g>
    <g id="text_19">
     <!-- SMT_FB_THCK -->
     <g transform="translate(1075.1824 127.217588)scale(0.1 -0.1)">
      <use xlink:href="#DejaVuSans-53"/>
      <use x="63.476562" xlink:href="#DejaVuSans-4d"/>
      <use x="149.755859" xlink:href="#DejaVuSans-54"/>
      <use x="210.839844" xlink:href="#DejaVuSans-5f"/>
      <use x="260.839844" xlink:href="#DejaVuSans-46"/>
      <use x="318.359375" xlink:href="#DejaVuSans-42"/>
      <use x="386.962891" xlink:href="#DejaVuSans-5f"/>
      <use x="436.962891" xlink:href="#DejaVuSans-54"/>
      <use x="498.046875" xlink:href="#DejaVuSans-48"/>
      <use x="573.242188" xlink:href="#DejaVuSans-43"/>
      <use x="643.066406" xlink:href="#DejaVuSans-4b"/>
     </g>
    </g>
    <g id="line2d_63"/>
    <g id="line2d_64">
     <g>
      <use style="fill:#0d0887;stroke:#0d0887;stroke-width:2;" x="1057.1824" xlink:href="#m15687e230f" y="138.673837"/>
     </g>
    </g>
    <g id="text_20">
     <!-- OLFN -->
     <g transform="translate(1075.1824 142.173837)scale(0.1 -0.1)">
      <defs>
       <path d="M 2522 4238 
Q 1834 4238 1429 3725 
Q 1025 3213 1025 2328 
Q 1025 1447 1429 934 
Q 1834 422 2522 422 
Q 3209 422 3611 934 
Q 4013 1447 4013 2328 
Q 4013 3213 3611 3725 
Q 3209 4238 2522 4238 
z
M 2522 4750 
Q 3503 4750 4090 4092 
Q 4678 3434 4678 2328 
Q 4678 1225 4090 567 
Q 3503 -91 2522 -91 
Q 1538 -91 948 565 
Q 359 1222 359 2328 
Q 359 3434 948 4092 
Q 1538 4750 2522 4750 
z
" id="DejaVuSans-4f" transform="scale(0.015625)"/>
       <path d="M 628 4666 
L 1259 4666 
L 1259 531 
L 3531 531 
L 3531 0 
L 628 0 
L 628 4666 
z
" id="DejaVuSans-4c" transform="scale(0.015625)"/>
       <path d="M 628 4666 
L 1478 4666 
L 3547 763 
L 3547 4666 
L 4159 4666 
L 4159 0 
L 3309 0 
L 1241 3903 
L 1241 0 
L 628 0 
L 628 4666 
z
" id="DejaVuSans-4e" transform="scale(0.015625)"/>
      </defs>
      <use xlink:href="#DejaVuSans-4f"/>
      <use x="78.710938" xlink:href="#DejaVuSans-4c"/>
      <use x="134.423828" xlink:href="#DejaVuSans-46"/>
      <use x="191.943359" xlink:href="#DejaVuSans-4e"/>
     </g>
    </g>
    <g id="line2d_65"/>
    <g id="line2d_66">
     <g>
      <use style="fill:#0d0887;stroke:#0d0887;stroke-width:2;" x="1057.1824" xlink:href="#m15687e230f" y="153.351963"/>
     </g>
    </g>
    <g id="text_21">
     <!-- OLFN -->
     <g transform="translate(1075.1824 156.851963)scale(0.1 -0.1)">
      <use xlink:href="#DejaVuSans-4f"/>
      <use x="78.710938" xlink:href="#DejaVuSans-4c"/>
      <use x="134.423828" xlink:href="#DejaVuSans-46"/>
      <use x="191.943359" xlink:href="#DejaVuSans-4e"/>
     </g>
    </g>
    <g id="line2d_67"/>
    <g id="line2d_68">
     <g>
      <use style="fill:#0d0887;stroke:#0d0887;stroke-width:2;" x="1057.1824" xlink:href="#m15687e230f" y="168.030088"/>
     </g>
    </g>
    <g id="text_22">
     <!-- OLFN -->
     <g transform="translate(1075.1824 171.530088)scale(0.1 -0.1)">
      <use xlink:href="#DejaVuSans-4f"/>
      <use x="78.710938" xlink:href="#DejaVuSans-4c"/>
      <use x="134.423828" xlink:href="#DejaVuSans-46"/>
      <use x="191.943359" xlink:href="#DejaVuSans-4e"/>
     </g>
    </g>
    <g id="line2d_69"/>
    <g id="line2d_70">
     <g>
      <use style="fill:#9c179e;stroke:#9c179e;stroke-linejoin:miter;stroke-width:2;" x="1057.1824" xlink:href="#m1d5569e07e" y="182.708213"/>
     </g>
    </g>
    <g id="text_23">
     <!-- ADVANCHK_SMS -->
     <g transform="translate(1075.1824 186.208213)scale(0.1 -0.1)">
      <defs>
       <path d="M 2188 4044 
L 1331 1722 
L 3047 1722 
L 2188 4044 
z
M 1831 4666 
L 2547 4666 
L 4325 0 
L 3669 0 
L 3244 1197 
L 1141 1197 
L 716 0 
L 50 0 
L 1831 4666 
z
" id="DejaVuSans-41" transform="scale(0.015625)"/>
       <path d="M 1831 0 
L 50 4666 
L 709 4666 
L 2188 738 
L 3669 4666 
L 4325 4666 
L 2547 0 
L 1831 0 
z
" id="DejaVuSans-56" transform="scale(0.015625)"/>
      </defs>
      <use xlink:href="#DejaVuSans-41"/>
      <use x="68.408203" xlink:href="#DejaVuSans-44"/>
      <use x="143.660156" xlink:href="#DejaVuSans-56"/>
      <use x="205.693359" xlink:href="#DejaVuSans-41"/>
      <use x="274.101562" xlink:href="#DejaVuSans-4e"/>
      <use x="348.90625" xlink:href="#DejaVuSans-43"/>
      <use x="418.730469" xlink:href="#DejaVuSans-48"/>
      <use x="493.925781" xlink:href="#DejaVuSans-4b"/>
      <use x="559.501953" xlink:href="#DejaVuSans-5f"/>
      <use x="609.501953" xlink:href="#DejaVuSans-53"/>
      <use x="672.978516" xlink:href="#DejaVuSans-4d"/>
      <use x="759.257812" xlink:href="#DejaVuSans-53"/>
     </g>
    </g>
    <g id="line2d_71"/>
    <g id="line2d_72">
     <g>
      <use style="fill:#9c179e;stroke:#9c179e;stroke-linejoin:miter;stroke-width:2;" x="1057.1824" xlink:href="#m1d5569e07e" y="197.664463"/>
     </g>
    </g>
    <g id="text_24">
     <!-- ADVANCHK_SMS -->
     <g transform="translate(1075.1824 201.164463)scale(0.1 -0.1)">
      <use xlink:href="#DejaVuSans-41"/>
      <use x="68.408203" xlink:href="#DejaVuSans-44"/>
      <use x="143.660156" xlink:href="#DejaVuSans-56"/>
      <use x="205.693359" xlink:href="#DejaVuSans-41"/>
      <use x="274.101562" xlink:href="#DejaVuSans-4e"/>
      <use x="348.90625" xlink:href="#DejaVuSans-43"/>
      <use x="418.730469" xlink:href="#DejaVuSans-48"/>
      <use x="493.925781" xlink:href="#DejaVuSans-4b"/>
      <use x="559.501953" xlink:href="#DejaVuSans-5f"/>
      <use x="609.501953" xlink:href="#DejaVuSans-53"/>
      <use x="672.978516" xlink:href="#DejaVuSans-4d"/>
      <use x="759.257812" xlink:href="#DejaVuSans-53"/>
     </g>
    </g>
    <g id="line2d_73"/>
    <g id="line2d_74">
     <g>
      <use style="fill:#9c179e;stroke:#9c179e;stroke-linejoin:miter;stroke-width:2;" x="1057.1824" xlink:href="#m1d5569e07e" y="212.620712"/>
     </g>
    </g>
    <g id="text_25">
     <!-- ADVANCHK_SMS -->
     <g transform="translate(1075.1824 216.120712)scale(0.1 -0.1)">
      <use xlink:href="#DejaVuSans-41"/>
      <use x="68.408203" xlink:href="#DejaVuSans-44"/>
      <use x="143.660156" xlink:href="#DejaVuSans-56"/>
      <use x="205.693359" xlink:href="#DejaVuSans-41"/>
      <use x="274.101562" xlink:href="#DejaVuSans-4e"/>
      <use x="348.90625" xlink:href="#DejaVuSans-43"/>
      <use x="418.730469" xlink:href="#DejaVuSans-48"/>
      <use x="493.925781" xlink:href="#DejaVuSans-4b"/>
      <use x="559.501953" xlink:href="#DejaVuSans-5f"/>
      <use x="609.501953" xlink:href="#DejaVuSans-53"/>
      <use x="672.978516" xlink:href="#DejaVuSans-4d"/>
      <use x="759.257812" xlink:href="#DejaVuSans-53"/>
     </g>
    </g>
    <g id="line2d_75"/>
    <g id="line2d_76">
     <g>
      <use style="fill:#9c179e;stroke:#9c179e;stroke-linejoin:miter;stroke-width:2;" x="1057.1824" xlink:href="#m1d5569e07e" y="227.576963"/>
     </g>
    </g>
    <g id="text_26">
     <!-- H400 -->
     <g transform="translate(1075.1824 231.076963)scale(0.1 -0.1)">
      <use xlink:href="#DejaVuSans-48"/>
      <use x="75.195312" xlink:href="#DejaVuSans-34"/>
      <use x="138.818359" xlink:href="#DejaVuSans-30"/>
      <use x="202.441406" xlink:href="#DejaVuSans-30"/>
     </g>
    </g>
    <g id="line2d_77"/>
    <g id="line2d_78">
     <g>
      <use style="fill:#9c179e;stroke:#9c179e;stroke-linejoin:miter;stroke-width:2;" x="1057.1824" xlink:href="#m1d5569e07e" y="242.255088"/>
     </g>
    </g>
    <g id="text_27">
     <!-- H400 -->
     <g transform="translate(1075.1824 245.755088)scale(0.1 -0.1)">
      <use xlink:href="#DejaVuSans-48"/>
      <use x="75.195312" xlink:href="#DejaVuSans-34"/>
      <use x="138.818359" xlink:href="#DejaVuSans-30"/>
      <use x="202.441406" xlink:href="#DejaVuSans-30"/>
     </g>
    </g>
    <g id="line2d_79"/>
    <g id="line2d_80">
     <g>
      <use style="fill:#9c179e;stroke:#9c179e;stroke-linejoin:miter;stroke-width:2;" x="1057.1824" xlink:href="#m1d5569e07e" y="256.933212"/>
     </g>
    </g>
    <g id="text_28">
     <!-- H400 -->
     <g transform="translate(1075.1824 260.433212)scale(0.1 -0.1)">
      <use xlink:href="#DejaVuSans-48"/>
      <use x="75.195312" xlink:href="#DejaVuSans-34"/>
      <use x="138.818359" xlink:href="#DejaVuSans-30"/>
      <use x="202.441406" xlink:href="#DejaVuSans-30"/>
     </g>
    </g>
    <g id="line2d_81"/>
    <g id="line2d_82">
     <g>
      <use style="fill:#9c179e;stroke:#9c179e;stroke-linejoin:miter;stroke-width:2;" x="1057.1824" xlink:href="#m1d5569e07e" y="271.611337"/>
     </g>
    </g>
    <g id="text_29">
     <!-- H100 -->
     <g transform="translate(1075.1824 275.111337)scale(0.1 -0.1)">
      <use xlink:href="#DejaVuSans-48"/>
      <use x="75.195312" xlink:href="#DejaVuSans-31"/>
      <use x="138.818359" xlink:href="#DejaVuSans-30"/>
      <use x="202.441406" xlink:href="#DejaVuSans-30"/>
     </g>
    </g>
    <g id="line2d_83"/>
    <g id="line2d_84">
     <g>
      <use style="fill:#9c179e;stroke:#9c179e;stroke-linejoin:miter;stroke-width:2;" x="1057.1824" xlink:href="#m1d5569e07e" y="286.289463"/>
     </g>
    </g>
    <g id="text_30">
     <!-- H100 -->
     <g transform="translate(1075.1824 289.789463)scale(0.1 -0.1)">
      <use xlink:href="#DejaVuSans-48"/>
      <use x="75.195312" xlink:href="#DejaVuSans-31"/>
      <use x="138.818359" xlink:href="#DejaVuSans-30"/>
      <use x="202.441406" xlink:href="#DejaVuSans-30"/>
     </g>
    </g>
    <g id="line2d_85"/>
    <g id="line2d_86">
     <g>
      <use style="fill:#9c179e;stroke:#9c179e;stroke-linejoin:miter;stroke-width:2;" x="1057.1824" xlink:href="#m1d5569e07e" y="300.967587"/>
     </g>
    </g>
    <g id="text_31">
     <!-- H100 -->
     <g transform="translate(1075.1824 304.467587)scale(0.1 -0.1)">
      <use xlink:href="#DejaVuSans-48"/>
      <use x="75.195312" xlink:href="#DejaVuSans-31"/>
      <use x="138.818359" xlink:href="#DejaVuSans-30"/>
      <use x="202.441406" xlink:href="#DejaVuSans-30"/>
     </g>
    </g>
    <g id="line2d_87"/>
    <g id="line2d_88">
     <g>
      <use style="fill:#0d0887;stroke:#0d0887;stroke-width:2;" x="1057.1824" xlink:href="#m15687e230f" y="315.645712"/>
     </g>
    </g>
    <g id="text_32">
     <!-- PELL_930 -->
     <g transform="translate(1075.1824 319.145712)scale(0.1 -0.1)">
      <defs>
       <path d="M 703 97 
L 703 672 
Q 941 559 1184 500 
Q 1428 441 1663 441 
Q 2288 441 2617 861 
Q 2947 1281 2994 2138 
Q 2813 1869 2534 1725 
Q 2256 1581 1919 1581 
Q 1219 1581 811 2004 
Q 403 2428 403 3163 
Q 403 3881 828 4315 
Q 1253 4750 1959 4750 
Q 2769 4750 3195 4129 
Q 3622 3509 3622 2328 
Q 3622 1225 3098 567 
Q 2575 -91 1691 -91 
Q 1453 -91 1209 -44 
Q 966 3 703 97 
z
M 1959 2075 
Q 2384 2075 2632 2365 
Q 2881 2656 2881 3163 
Q 2881 3666 2632 3958 
Q 2384 4250 1959 4250 
Q 1534 4250 1286 3958 
Q 1038 3666 1038 3163 
Q 1038 2656 1286 2365 
Q 1534 2075 1959 2075 
z
" id="DejaVuSans-39" transform="scale(0.015625)"/>
       <path d="M 2597 2516 
Q 3050 2419 3304 2112 
Q 3559 1806 3559 1356 
Q 3559 666 3084 287 
Q 2609 -91 1734 -91 
Q 1441 -91 1130 -33 
Q 819 25 488 141 
L 488 750 
Q 750 597 1062 519 
Q 1375 441 1716 441 
Q 2309 441 2620 675 
Q 2931 909 2931 1356 
Q 2931 1769 2642 2001 
Q 2353 2234 1838 2234 
L 1294 2234 
L 1294 2753 
L 1863 2753 
Q 2328 2753 2575 2939 
Q 2822 3125 2822 3475 
Q 2822 3834 2567 4026 
Q 2313 4219 1838 4219 
Q 1578 4219 1281 4162 
Q 984 4106 628 3988 
L 628 4550 
Q 988 4650 1302 4700 
Q 1616 4750 1894 4750 
Q 2613 4750 3031 4423 
Q 3450 4097 3450 3541 
Q 3450 3153 3228 2886 
Q 3006 2619 2597 2516 
z
" id="DejaVuSans-33" transform="scale(0.015625)"/>
      </defs>
      <use xlink:href="#DejaVuSans-50"/>
      <use x="60.302734" xlink:href="#DejaVuSans-45"/>
      <use x="123.486328" xlink:href="#DejaVuSans-4c"/>
      <use x="179.199219" xlink:href="#DejaVuSans-4c"/>
      <use x="234.912109" xlink:href="#DejaVuSans-5f"/>
      <use x="284.912109" xlink:href="#DejaVuSans-39"/>
      <use x="348.535156" xlink:href="#DejaVuSans-33"/>
      <use x="412.158203" xlink:href="#DejaVuSans-30"/>
     </g>
    </g>
    <g id="line2d_89"/>
    <g id="line2d_90">
     <g>
      <use style="fill:#0d0887;stroke:#0d0887;stroke-width:2;" x="1057.1824" xlink:href="#m15687e230f" y="330.601963"/>
     </g>
    </g>
    <g id="text_33">
     <!-- PELL_930 -->
     <g transform="translate(1075.1824 334.101963)scale(0.1 -0.1)">
      <use xlink:href="#DejaVuSans-50"/>
      <use x="60.302734" xlink:href="#DejaVuSans-45"/>
      <use x="123.486328" xlink:href="#DejaVuSans-4c"/>
      <use x="179.199219" xlink:href="#DejaVuSans-4c"/>
      <use x="234.912109" xlink:href="#DejaVuSans-5f"/>
      <use x="284.912109" xlink:href="#DejaVuSans-39"/>
      <use x="348.535156" xlink:href="#DejaVuSans-33"/>
      <use x="412.158203" xlink:href="#DejaVuSans-30"/>
     </g>
    </g>
    <g id="line2d_91"/>
    <g id="line2d_92">
     <g>
      <use style="fill:#0d0887;stroke:#0d0887;stroke-width:2;" x="1057.1824" xlink:href="#m15687e230f" y="345.558212"/>
     </g>
    </g>
    <g id="text_34">
     <!-- PELL_930 -->
     <g transform="translate(1075.1824 349.058212)scale(0.1 -0.1)">
      <use xlink:href="#DejaVuSans-50"/>
      <use x="60.302734" xlink:href="#DejaVuSans-45"/>
      <use x="123.486328" xlink:href="#DejaVuSans-4c"/>
      <use x="179.199219" xlink:href="#DejaVuSans-4c"/>
      <use x="234.912109" xlink:href="#DejaVuSans-5f"/>
      <use x="284.912109" xlink:href="#DejaVuSans-39"/>
      <use x="348.535156" xlink:href="#DejaVuSans-33"/>
      <use x="412.158203" xlink:href="#DejaVuSans-30"/>
     </g>
    </g>
    <g id="line2d_93"/>
    <g id="line2d_94">
     <g>
      <use style="fill:#0d0887;stroke:#0d0887;stroke-width:2;" x="1057.1824" xlink:href="#m15687e230f" y="360.514462"/>
     </g>
    </g>
    <g id="text_35">
     <!-- PELL_930 -->
     <g transform="translate(1075.1824 364.014462)scale(0.1 -0.1)">
      <use xlink:href="#DejaVuSans-50"/>
      <use x="60.302734" xlink:href="#DejaVuSans-45"/>
      <use x="123.486328" xlink:href="#DejaVuSans-4c"/>
      <use x="179.199219" xlink:href="#DejaVuSans-4c"/>
      <use x="234.912109" xlink:href="#DejaVuSans-5f"/>
      <use x="284.912109" xlink:href="#DejaVuSans-39"/>
      <use x="348.535156" xlink:href="#DejaVuSans-33"/>
      <use x="412.158203" xlink:href="#DejaVuSans-30"/>
     </g>
    </g>
    <g id="line2d_95"/>
    <g id="line2d_96">
     <g>
      <use style="fill:#ed7953;stroke:#ed7953;stroke-linejoin:miter;stroke-width:2;" x="1057.1824" xlink:href="#mda5bc3af9a" y="375.470712"/>
     </g>
    </g>
    <g id="text_36">
     <!-- KONA ORNG -->
     <g transform="translate(1075.1824 378.970712)scale(0.1 -0.1)">
      <defs>
       <path d="M 2841 2188 
Q 3044 2119 3236 1894 
Q 3428 1669 3622 1275 
L 4263 0 
L 3584 0 
L 2988 1197 
Q 2756 1666 2539 1819 
Q 2322 1972 1947 1972 
L 1259 1972 
L 1259 0 
L 628 0 
L 628 4666 
L 2053 4666 
Q 2853 4666 3247 4331 
Q 3641 3997 3641 3322 
Q 3641 2881 3436 2590 
Q 3231 2300 2841 2188 
z
M 1259 4147 
L 1259 2491 
L 2053 2491 
Q 2509 2491 2742 2702 
Q 2975 2913 2975 3322 
Q 2975 3731 2742 3939 
Q 2509 4147 2053 4147 
L 1259 4147 
z
" id="DejaVuSans-52" transform="scale(0.015625)"/>
       <path d="M 3809 666 
L 3809 1919 
L 2778 1919 
L 2778 2438 
L 4434 2438 
L 4434 434 
Q 4069 175 3628 42 
Q 3188 -91 2688 -91 
Q 1594 -91 976 548 
Q 359 1188 359 2328 
Q 359 3472 976 4111 
Q 1594 4750 2688 4750 
Q 3144 4750 3555 4637 
Q 3966 4525 4313 4306 
L 4313 3634 
Q 3963 3931 3569 4081 
Q 3175 4231 2741 4231 
Q 1884 4231 1454 3753 
Q 1025 3275 1025 2328 
Q 1025 1384 1454 906 
Q 1884 428 2741 428 
Q 3075 428 3337 486 
Q 3600 544 3809 666 
z
" id="DejaVuSans-47" transform="scale(0.015625)"/>
      </defs>
      <use xlink:href="#DejaVuSans-4b"/>
      <use x="60.076172" xlink:href="#DejaVuSans-4f"/>
      <use x="138.787109" xlink:href="#DejaVuSans-4e"/>
      <use x="213.591797" xlink:href="#DejaVuSans-41"/>
      <use x="282" xlink:href="#DejaVuSans-20"/>
      <use x="313.787109" xlink:href="#DejaVuSans-4f"/>
      <use x="392.498047" xlink:href="#DejaVuSans-52"/>
      <use x="461.980469" xlink:href="#DejaVuSans-4e"/>
      <use x="536.785156" xlink:href="#DejaVuSans-47"/>
     </g>
    </g>
    <g id="line2d_97"/>
    <g id="line2d_98">
     <g>
      <use style="fill:#ed7953;stroke:#ed7953;stroke-linejoin:miter;stroke-width:2;" x="1057.1824" xlink:href="#mda5bc3af9a" y="390.148838"/>
     </g>
    </g>
    <g id="text_37">
     <!-- SATEEN -->
     <g transform="translate(1075.1824 393.648838)scale(0.1 -0.1)">
      <use xlink:href="#DejaVuSans-53"/>
      <use x="65.351562" xlink:href="#DejaVuSans-41"/>
      <use x="126.009766" xlink:href="#DejaVuSans-54"/>
      <use x="187.09375" xlink:href="#DejaVuSans-45"/>
      <use x="250.277344" xlink:href="#DejaVuSans-45"/>
      <use x="313.460938" xlink:href="#DejaVuSans-4e"/>
     </g>
    </g>
    <g id="line2d_99"/>
    <g id="line2d_100">
     <g>
      <use style="fill:#ed7953;stroke:#ed7953;stroke-linejoin:miter;stroke-width:2;" x="1057.1824" xlink:href="#mda5bc3af9a" y="404.826963"/>
     </g>
    </g>
    <g id="text_38">
     <!-- FLANNEL -->
     <g transform="translate(1075.1824 408.326963)scale(0.1 -0.1)">
      <use xlink:href="#DejaVuSans-46"/>
      <use x="57.519531" xlink:href="#DejaVuSans-4c"/>
      <use x="115.482422" xlink:href="#DejaVuSans-41"/>
      <use x="183.890625" xlink:href="#DejaVuSans-4e"/>
      <use x="258.695312" xlink:href="#DejaVuSans-4e"/>
      <use x="333.5" xlink:href="#DejaVuSans-45"/>
      <use x="396.683594" xlink:href="#DejaVuSans-4c"/>
     </g>
    </g>
    <g id="line2d_101"/>
    <g id="line2d_102">
     <g>
      <use style="fill:#ed7953;stroke:#ed7953;stroke-linejoin:miter;stroke-width:2;" x="1057.1824" xlink:href="#mda5bc3af9a" y="419.505088"/>
     </g>
    </g>
    <g id="text_39">
     <!-- FLANNEL -->
     <g transform="translate(1075.1824 423.005088)scale(0.1 -0.1)">
      <use xlink:href="#DejaVuSans-46"/>
      <use x="57.519531" xlink:href="#DejaVuSans-4c"/>
      <use x="115.482422" xlink:href="#DejaVuSans-41"/>
      <use x="183.890625" xlink:href="#DejaVuSans-4e"/>
      <use x="258.695312" xlink:href="#DejaVuSans-4e"/>
      <use x="333.5" xlink:href="#DejaVuSans-45"/>
      <use x="396.683594" xlink:href="#DejaVuSans-4c"/>
     </g>
    </g>
    <g id="line2d_103"/>
    <g id="line2d_104">
     <g>
      <use style="fill:#ed7953;stroke:#ed7953;stroke-linejoin:miter;stroke-width:2;" x="1057.1824" xlink:href="#mda5bc3af9a" y="434.183213"/>
     </g>
    </g>
    <g id="text_40">
     <!-- FLANNEL -->
     <g transform="translate(1075.1824 437.683213)scale(0.1 -0.1)">
      <use xlink:href="#DejaVuSans-46"/>
      <use x="57.519531" xlink:href="#DejaVuSans-4c"/>
      <use x="115.482422" xlink:href="#DejaVuSans-41"/>
      <use x="183.890625" xlink:href="#DejaVuSans-4e"/>
      <use x="258.695312" xlink:href="#DejaVuSans-4e"/>
      <use x="333.5" xlink:href="#DejaVuSans-45"/>
      <use x="396.683594" xlink:href="#DejaVuSans-4c"/>
     </g>
    </g>
    <g id="line2d_105"/>
    <g id="line2d_106">
     <g>
      <use style="fill:#f0f921;stroke:#f0f921;stroke-linejoin:bevel;stroke-width:2;" x="1057.1824" xlink:href="#mf7893cad88" y="448.861338"/>
     </g>
    </g>
    <g id="text_41">
     <!-- 3M_1860_IPA -->
     <g transform="translate(1075.1824 452.361338)scale(0.1 -0.1)">
      <defs>
       <path d="M 628 4666 
L 1259 4666 
L 1259 0 
L 628 0 
L 628 4666 
z
" id="DejaVuSans-49" transform="scale(0.015625)"/>
      </defs>
      <use xlink:href="#DejaVuSans-33"/>
      <use x="63.623047" xlink:href="#DejaVuSans-4d"/>
      <use x="149.902344" xlink:href="#DejaVuSans-5f"/>
      <use x="199.902344" xlink:href="#DejaVuSans-31"/>
      <use x="263.525391" xlink:href="#DejaVuSans-38"/>
      <use x="327.148438" xlink:href="#DejaVuSans-36"/>
      <use x="390.771484" xlink:href="#DejaVuSans-30"/>
      <use x="454.394531" xlink:href="#DejaVuSans-5f"/>
      <use x="504.394531" xlink:href="#DejaVuSans-49"/>
      <use x="533.886719" xlink:href="#DejaVuSans-50"/>
      <use x="587.814453" xlink:href="#DejaVuSans-41"/>
     </g>
    </g>
    <g id="line2d_107"/>
    <g id="line2d_108">
     <g>
      <use style="fill:#f0f921;stroke:#f0f921;stroke-linejoin:bevel;stroke-width:2;" x="1057.1824" xlink:href="#mf7893cad88" y="463.817588"/>
     </g>
    </g>
    <g id="text_42">
     <!-- CA_N95_IPA -->
     <g transform="translate(1075.1824 467.317588)scale(0.1 -0.1)">
      <use xlink:href="#DejaVuSans-43"/>
      <use x="69.824219" xlink:href="#DejaVuSans-41"/>
      <use x="138.232422" xlink:href="#DejaVuSans-5f"/>
      <use x="188.232422" xlink:href="#DejaVuSans-4e"/>
      <use x="263.037109" xlink:href="#DejaVuSans-39"/>
      <use x="326.660156" xlink:href="#DejaVuSans-35"/>
      <use x="390.283203" xlink:href="#DejaVuSans-5f"/>
      <use x="440.283203" xlink:href="#DejaVuSans-49"/>
      <use x="469.775391" xlink:href="#DejaVuSans-50"/>
      <use x="523.703125" xlink:href="#DejaVuSans-41"/>
     </g>
    </g>
    <g id="line2d_109"/>
    <g id="line2d_110">
     <g>
      <use style="fill:#f0f921;stroke:#f0f921;stroke-linejoin:bevel;stroke-width:2;" x="1057.1824" xlink:href="#mf7893cad88" y="478.773838"/>
     </g>
    </g>
    <g id="text_43">
     <!-- CA_N99_IPA -->
     <g transform="translate(1075.1824 482.273838)scale(0.1 -0.1)">
      <use xlink:href="#DejaVuSans-43"/>
      <use x="69.824219" xlink:href="#DejaVuSans-41"/>
      <use x="138.232422" xlink:href="#DejaVuSans-5f"/>
      <use x="188.232422" xlink:href="#DejaVuSans-4e"/>
      <use x="263.037109" xlink:href="#DejaVuSans-39"/>
      <use x="326.660156" xlink:href="#DejaVuSans-39"/>
      <use x="390.283203" xlink:href="#DejaVuSans-5f"/>
      <use x="440.283203" xlink:href="#DejaVuSans-49"/>
      <use x="469.775391" xlink:href="#DejaVuSans-50"/>
      <use x="523.703125" xlink:href="#DejaVuSans-41"/>
     </g>
    </g>
    <g id="line2d_111"/>
    <g id="line2d_112">
     <g>
      <use style="fill:#f0f921;stroke:#f0f921;stroke-linejoin:bevel;stroke-width:2;" x="1057.1824" xlink:href="#mf7893cad88" y="493.730088"/>
     </g>
    </g>
    <g id="text_44">
     <!-- HAL_MASK -->
     <g transform="translate(1075.1824 497.230088)scale(0.1 -0.1)">
      <use xlink:href="#DejaVuSans-48"/>
      <use x="75.195312" xlink:href="#DejaVuSans-41"/>
      <use x="143.603516" xlink:href="#DejaVuSans-4c"/>
      <use x="199.316406" xlink:href="#DejaVuSans-5f"/>
      <use x="249.316406" xlink:href="#DejaVuSans-4d"/>
      <use x="335.595703" xlink:href="#DejaVuSans-41"/>
      <use x="404.003906" xlink:href="#DejaVuSans-53"/>
      <use x="467.480469" xlink:href="#DejaVuSans-4b"/>
     </g>
    </g>
    <g id="line2d_113"/>
    <g id="line2d_114">
     <g>
      <use style="fill:#f0f921;stroke:#f0f921;stroke-linejoin:bevel;stroke-width:2;" x="1057.1824" xlink:href="#mf7893cad88" y="508.686338"/>
     </g>
    </g>
    <g id="text_45">
     <!-- HAL_MASK_IPA -->
     <g transform="translate(1075.1824 512.186338)scale(0.1 -0.1)">
      <use xlink:href="#DejaVuSans-48"/>
      <use x="75.195312" xlink:href="#DejaVuSans-41"/>
      <use x="143.603516" xlink:href="#DejaVuSans-4c"/>
      <use x="199.316406" xlink:href="#DejaVuSans-5f"/>
      <use x="249.316406" xlink:href="#DejaVuSans-4d"/>
      <use x="335.595703" xlink:href="#DejaVuSans-41"/>
      <use x="404.003906" xlink:href="#DejaVuSans-53"/>
      <use x="467.480469" xlink:href="#DejaVuSans-4b"/>
      <use x="533.056641" xlink:href="#DejaVuSans-5f"/>
      <use x="583.056641" xlink:href="#DejaVuSans-49"/>
      <use x="612.548828" xlink:href="#DejaVuSans-50"/>
      <use x="666.476562" xlink:href="#DejaVuSans-41"/>
     </g>
    </g>
    <g id="line2d_115"/>
    <g id="line2d_116">
     <g>
      <use style="fill:#f0f921;stroke:#f0f921;stroke-linejoin:bevel;stroke-width:2;" x="1057.1824" xlink:href="#mf7893cad88" y="523.642588"/>
     </g>
    </g>
    <g id="text_46">
     <!-- LEVEL 2 S.M. -->
     <g transform="translate(1075.1824 527.142588)scale(0.1 -0.1)">
      <use xlink:href="#DejaVuSans-4c"/>
      <use x="55.712891" xlink:href="#DejaVuSans-45"/>
      <use x="118.896484" xlink:href="#DejaVuSans-56"/>
      <use x="187.304688" xlink:href="#DejaVuSans-45"/>
      <use x="250.488281" xlink:href="#DejaVuSans-4c"/>
      <use x="306.201172" xlink:href="#DejaVuSans-20"/>
      <use x="337.988281" xlink:href="#DejaVuSans-32"/>
      <use x="401.611328" xlink:href="#DejaVuSans-20"/>
      <use x="433.398438" xlink:href="#DejaVuSans-53"/>
      <use x="496.875" xlink:href="#DejaVuSans-2e"/>
      <use x="528.662109" xlink:href="#DejaVuSans-4d"/>
      <use x="614.941406" xlink:href="#DejaVuSans-2e"/>
     </g>
    </g>
    <g id="line2d_117"/>
    <g id="line2d_118">
     <g>
      <use style="fill:#f0f921;stroke:#f0f921;stroke-linejoin:bevel;stroke-width:2;" x="1057.1824" xlink:href="#mf7893cad88" y="538.320713"/>
     </g>
    </g>
    <g id="text_47">
     <!-- FILTI -->
     <g transform="translate(1075.1824 541.820713)scale(0.1 -0.1)">
      <use xlink:href="#DejaVuSans-46"/>
      <use x="57.519531" xlink:href="#DejaVuSans-49"/>
      <use x="87.011719" xlink:href="#DejaVuSans-4c"/>
      <use x="128.974609" xlink:href="#DejaVuSans-54"/>
      <use x="190.058594" xlink:href="#DejaVuSans-49"/>
     </g>
    </g>
    <g id="line2d_119"/>
    <g id="line2d_120">
     <g>
      <use style="fill:#f0f921;stroke:#f0f921;stroke-linejoin:bevel;stroke-width:2;" x="1057.1824" xlink:href="#mf7893cad88" y="552.998838"/>
     </g>
    </g>
    <g id="text_48">
     <!-- FILTI WASH -->
     <g transform="translate(1075.1824 556.498838)scale(0.1 -0.1)">
      <defs>
       <path d="M 213 4666 
L 850 4666 
L 1831 722 
L 2809 4666 
L 3519 4666 
L 4500 722 
L 5478 4666 
L 6119 4666 
L 4947 0 
L 4153 0 
L 3169 4050 
L 2175 0 
L 1381 0 
L 213 4666 
z
" id="DejaVuSans-57" transform="scale(0.015625)"/>
      </defs>
      <use xlink:href="#DejaVuSans-46"/>
      <use x="57.519531" xlink:href="#DejaVuSans-49"/>
      <use x="87.011719" xlink:href="#DejaVuSans-4c"/>
      <use x="128.974609" xlink:href="#DejaVuSans-54"/>
      <use x="190.058594" xlink:href="#DejaVuSans-49"/>
      <use x="219.550781" xlink:href="#DejaVuSans-20"/>
      <use x="251.337891" xlink:href="#DejaVuSans-57"/>
      <use x="344.714844" xlink:href="#DejaVuSans-41"/>
      <use x="413.123047" xlink:href="#DejaVuSans-53"/>
      <use x="476.599609" xlink:href="#DejaVuSans-48"/>
     </g>
    </g>
   </g>
  </g>
 </g>
 <defs>
  <clipPath id="paf58b5e66a">
   <rect height="421.8984" width="857.088" x="138.24" y="65.7504"/>
  </clipPath>
 </defs>
</svg>
