<?xml version="1.0" encoding="utf-8" standalone="no"?>
<!DOCTYPE svg PUBLIC "-//W3C//DTD SVG 1.1//EN"
  "http://www.w3.org/Graphics/SVG/1.1/DTD/svg11.dtd">
<svg height="310.86825pt" version="1.1" viewBox="0 0 569.040062 310.86825" width="569.040062pt" xmlns="http://www.w3.org/2000/svg" xmlns:xlink="http://www.w3.org/1999/xlink">
 <metadata>
  <rdf:RDF xmlns:cc="http://creativecommons.org/ns#" xmlns:dc="http://purl.org/dc/elements/1.1/" xmlns:rdf="http://www.w3.org/1999/02/22-rdf-syntax-ns#">
   <cc:Work>
    <dc:type rdf:resource="http://purl.org/dc/dcmitype/StillImage"/>
    <dc:date>2021-11-20T09:34:05.166436</dc:date>
    <dc:format>image/svg+xml</dc:format>
    <dc:creator>
     <cc:Agent>
      <dc:title>Matplotlib v3.4.2, https://matplotlib.org/</dc:title>
     </cc:Agent>
    </dc:creator>
   </cc:Work>
  </rdf:RDF>
 </metadata>
 <defs>
  <style type="text/css">*{stroke-linecap:butt;stroke-linejoin:round;}</style>
 </defs>
 <g id="figure_1">
  <g id="patch_1">
   <path d="M 0 310.86825 
L 569.040062 310.86825 
L 569.040062 0 
L 0 0 
z
" style="fill:#ffffff;"/>
  </g>
  <g id="axes_1">
   <g id="patch_2">
    <path d="M 50.14375 273.312 
L 407.26375 273.312 
L 407.26375 7.2 
L 50.14375 7.2 
z
" style="fill:#ffffff;"/>
   </g>
   <g id="PathCollection_1">
    <defs>
     <path d="M 0 3 
C 0.795609 3 1.55874 2.683901 2.12132 2.12132 
C 2.683901 1.55874 3 0.795609 3 0 
C 3 -0.795609 2.683901 -1.55874 2.12132 -2.12132 
C 1.55874 -2.683901 0.795609 -3 0 -3 
C -0.795609 -3 -1.55874 -2.683901 -2.12132 -2.12132 
C -2.683901 -1.55874 -3 -0.795609 -3 0 
C -3 0.795609 -2.683901 1.55874 -2.12132 2.12132 
C -1.55874 2.683901 -0.795609 3 0 3 
z
" id="m77764110a5" style="stroke:#0d0887;"/>
    </defs>
    <g clip-path="url(#p60da04de50)">
     <use style="fill:#0d0887;stroke:#0d0887;" x="274.619179" xlink:href="#m77764110a5" y="28.14559"/>
    </g>
   </g>
   <g id="PathCollection_2">
    <path clip-path="url(#p60da04de50)" d="M 300.12775 30.888062 
C 300.923359 30.888062 301.68649 30.571963 302.24907 30.009382 
C 302.811651 29.446802 303.12775 28.683671 303.12775 27.888062 
C 303.12775 27.092453 302.811651 26.329322 302.24907 25.766742 
C 301.68649 25.204161 300.923359 24.888062 300.12775 24.888062 
C 299.332141 24.888062 298.56901 25.204161 298.00643 25.766742 
C 297.443849 26.329322 297.12775 27.092453 297.12775 27.888062 
C 297.12775 28.683671 297.443849 29.446802 298.00643 30.009382 
C 298.56901 30.571963 299.332141 30.888062 300.12775 30.888062 
z
" style="fill:none;stroke:#0d0887;"/>
   </g>
   <g id="PathCollection_3">
    <defs>
     <path d="M 0 3 
C 0.795609 3 1.55874 2.683901 2.12132 2.12132 
C 2.683901 1.55874 3 0.795609 3 0 
C 3 -0.795609 2.683901 -1.55874 2.12132 -2.12132 
C 1.55874 -2.683901 0.795609 -3 0 -3 
C -0.795609 -3 -1.55874 -2.683901 -2.12132 -2.12132 
C -2.683901 -1.55874 -3 -0.795609 -3 0 
C -3 0.795609 -2.683901 1.55874 -2.12132 2.12132 
C -1.55874 2.683901 -0.795609 3 0 3 
z
" id="m131582164e" style="stroke:#5302a3;"/>
    </defs>
    <g clip-path="url(#p60da04de50)">
     <use style="fill:#5302a3;stroke:#5302a3;" x="381.755179" xlink:href="#m131582164e" y="19.818859"/>
    </g>
   </g>
   <g id="PathCollection_4">
    <path clip-path="url(#p60da04de50)" d="M 356.246607 31.231432 
C 357.042216 31.231432 357.805347 30.915333 358.367927 30.352753 
C 358.930508 29.790172 359.246607 29.027042 359.246607 28.231432 
C 359.246607 27.435823 358.930508 26.672693 358.367927 26.110112 
C 357.805347 25.547531 357.042216 25.231432 356.246607 25.231432 
C 355.450998 25.231432 354.687868 25.547531 354.125287 26.110112 
C 353.562706 26.672693 353.246607 27.435823 353.246607 28.231432 
C 353.246607 29.027042 353.562706 29.790172 354.125287 30.352753 
C 354.687868 30.915333 355.450998 31.231432 356.246607 31.231432 
z
" style="fill:none;stroke:#5302a3;"/>
   </g>
   <g id="PathCollection_5">
    <defs>
     <path d="M 0 3 
C 0.795609 3 1.55874 2.683901 2.12132 2.12132 
C 2.683901 1.55874 3 0.795609 3 0 
C 3 -0.795609 2.683901 -1.55874 2.12132 -2.12132 
C 1.55874 -2.683901 0.795609 -3 0 -3 
C -0.795609 -3 -1.55874 -2.683901 -2.12132 -2.12132 
C -2.683901 -1.55874 -3 -0.795609 -3 0 
C -3 0.795609 -2.683901 1.55874 -2.12132 2.12132 
C -1.55874 2.683901 -0.795609 3 0 3 
z
" id="mc49a171fd6" style="stroke:#8b0aa5;"/>
    </defs>
    <g clip-path="url(#p60da04de50)">
     <use style="fill:#8b0aa5;stroke:#8b0aa5;" x="203.195179" xlink:href="#mc49a171fd6" y="16.986054"/>
    </g>
   </g>
   <g id="PathCollection_6">
    <path clip-path="url(#p60da04de50)" d="M 203.195179 25.565822 
C 203.990788 25.565822 204.753918 25.249723 205.316499 24.687142 
C 205.87908 24.124562 206.195179 23.361431 206.195179 22.565822 
C 206.195179 21.770213 205.87908 21.007082 205.316499 20.444502 
C 204.753918 19.881921 203.990788 19.565822 203.195179 19.565822 
C 202.399569 19.565822 201.636439 19.881921 201.073858 20.444502 
C 200.511277 21.007082 200.195179 21.770213 200.195179 22.565822 
C 200.195179 23.361431 200.511277 24.124562 201.073858 24.687142 
C 201.636439 25.249723 202.399569 25.565822 203.195179 25.565822 
z
" style="fill:none;stroke:#8b0aa5;"/>
   </g>
   <g id="PathCollection_7">
    <defs>
     <path d="M 0 3 
C 0.795609 3 1.55874 2.683901 2.12132 2.12132 
C 2.683901 1.55874 3 0.795609 3 0 
C 3 -0.795609 2.683901 -1.55874 2.12132 -2.12132 
C 1.55874 -2.683901 0.795609 -3 0 -3 
C -0.795609 -3 -1.55874 -2.683901 -2.12132 -2.12132 
C -2.683901 -1.55874 -3 -0.795609 -3 0 
C -3 0.795609 -2.683901 1.55874 -2.12132 2.12132 
C -1.55874 2.683901 -0.795609 3 0 3 
z
" id="med18214d44" style="stroke:#b83289;"/>
    </defs>
    <g clip-path="url(#p60da04de50)">
     <use style="fill:#b83289;stroke:#b83289;" x="70.550607" xlink:href="#med18214d44" y="226.957006"/>
    </g>
   </g>
   <g id="PathCollection_8">
    <path clip-path="url(#p60da04de50)" d="M 300.12775 18.784258 
C 300.923359 18.784258 301.68649 18.468159 302.24907 17.905578 
C 302.811651 17.342998 303.12775 16.579867 303.12775 15.784258 
C 303.12775 14.988649 302.811651 14.225518 302.24907 13.662938 
C 301.68649 13.100357 300.923359 12.784258 300.12775 12.784258 
C 299.332141 12.784258 298.56901 13.100357 298.00643 13.662938 
C 297.443849 14.225518 297.12775 14.988649 297.12775 15.784258 
C 297.12775 16.579867 297.443849 17.342998 298.00643 17.905578 
C 298.56901 18.468159 299.332141 18.784258 300.12775 18.784258 
z
" style="fill:none;stroke:#b83289;"/>
   </g>
   <g id="PathCollection_9">
    <defs>
     <path d="M 0 3 
C 0.795609 3 1.55874 2.683901 2.12132 2.12132 
C 2.683901 1.55874 3 0.795609 3 0 
C 3 -0.795609 2.683901 -1.55874 2.12132 -2.12132 
C 1.55874 -2.683901 0.795609 -3 0 -3 
C -0.795609 -3 -1.55874 -2.683901 -2.12132 -2.12132 
C -2.683901 -1.55874 -3 -0.795609 -3 0 
C -3 0.795609 -2.683901 1.55874 -2.12132 2.12132 
C -1.55874 2.683901 -0.795609 3 0 3 
z
" id="m0a26dbd7ac" style="stroke:#db5c68;"/>
    </defs>
    <g clip-path="url(#p60da04de50)">
     <use style="fill:#db5c68;stroke:#db5c68;" x="274.619179" xlink:href="#m0a26dbd7ac" y="15.784258"/>
    </g>
   </g>
   <g id="PathCollection_10">
    <path clip-path="url(#p60da04de50)" d="M 259.314036 18.784258 
C 260.109645 18.784258 260.872775 18.468159 261.435356 17.905578 
C 261.997937 17.342998 262.314036 16.579867 262.314036 15.784258 
C 262.314036 14.988649 261.997937 14.225518 261.435356 13.662938 
C 260.872775 13.100357 260.109645 12.784258 259.314036 12.784258 
C 258.518426 12.784258 257.755296 13.100357 257.192715 13.662938 
C 256.630135 14.225518 256.314036 14.988649 256.314036 15.784258 
C 256.314036 16.579867 256.630135 17.342998 257.192715 17.905578 
C 257.755296 18.468159 258.518426 18.784258 259.314036 18.784258 
z
" style="fill:none;stroke:#db5c68;"/>
   </g>
   <g id="PathCollection_11">
    <defs>
     <path d="M 0 3 
C 0.795609 3 1.55874 2.683901 2.12132 2.12132 
C 2.683901 1.55874 3 0.795609 3 0 
C 3 -0.795609 2.683901 -1.55874 2.12132 -2.12132 
C 1.55874 -2.683901 0.795609 -3 0 -3 
C -0.795609 -3 -1.55874 -2.683901 -2.12132 -2.12132 
C -2.683901 -1.55874 -3 -0.795609 -3 0 
C -3 0.795609 -2.683901 1.55874 -2.12132 2.12132 
C -1.55874 2.683901 -0.795609 3 0 3 
z
" id="m49d9c5e9dd" style="stroke:#f48849;"/>
    </defs>
    <g clip-path="url(#p60da04de50)">
     <use style="fill:#f48849;stroke:#f48849;" x="121.56775" xlink:href="#m49d9c5e9dd" y="165.922932"/>
    </g>
   </g>
   <g id="PathCollection_12">
    <path clip-path="url(#p60da04de50)" d="M 121.56775 210.814111 
C 122.363359 210.814111 123.12649 210.498012 123.68907 209.935431 
C 124.251651 209.372851 124.56775 208.60972 124.56775 207.814111 
C 124.56775 207.018502 124.251651 206.255371 123.68907 205.692791 
C 123.12649 205.13021 122.363359 204.814111 121.56775 204.814111 
C 120.772141 204.814111 120.00901 205.13021 119.44643 205.692791 
C 118.883849 206.255371 118.56775 207.018502 118.56775 207.814111 
C 118.56775 208.60972 118.883849 209.372851 119.44643 209.935431 
C 120.00901 210.498012 120.772141 210.814111 121.56775 210.814111 
z
" style="fill:none;stroke:#f48849;"/>
   </g>
   <g id="PathCollection_13">
    <defs>
     <path d="M 0 3 
C 0.795609 3 1.55874 2.683901 2.12132 2.12132 
C 2.683901 1.55874 3 0.795609 3 0 
C 3 -0.795609 2.683901 -1.55874 2.12132 -2.12132 
C 1.55874 -2.683901 0.795609 -3 0 -3 
C -0.795609 -3 -1.55874 -2.683901 -2.12132 -2.12132 
C -2.683901 -1.55874 -3 -0.795609 -3 0 
C -3 0.795609 -2.683901 1.55874 -2.12132 2.12132 
C -1.55874 2.683901 -0.795609 3 0 3 
z
" id="m7f779213f4" style="stroke:#febd2a;"/>
    </defs>
    <g clip-path="url(#p60da04de50)">
     <use style="fill:#febd2a;stroke:#febd2a;" x="238.907179" xlink:href="#m7f779213f4" y="90.03809"/>
    </g>
   </g>
   <g id="PathCollection_14">
    <path clip-path="url(#p60da04de50)" d="M 361.348321 87.458323 
C 362.143931 87.458323 362.907061 87.142224 363.469642 86.579643 
C 364.032223 86.017062 364.348321 85.253932 364.348321 84.458323 
C 364.348321 83.662713 364.032223 82.899583 363.469642 82.337002 
C 362.907061 81.774422 362.143931 81.458323 361.348321 81.458323 
C 360.552712 81.458323 359.789582 81.774422 359.227001 82.337002 
C 358.66442 82.899583 358.348321 83.662713 358.348321 84.458323 
C 358.348321 85.253932 358.66442 86.017062 359.227001 86.579643 
C 359.789582 87.142224 360.552712 87.458323 361.348321 87.458323 
z
" style="fill:none;stroke:#febd2a;"/>
   </g>
   <g id="matplotlib.axis_1">
    <g id="xtick_1">
     <g id="line2d_1">
      <defs>
       <path d="M 0 0 
L 0 3.5 
" id="m38a382fcc4" style="stroke:#000000;stroke-width:0.8;"/>
      </defs>
      <g>
       <use style="stroke:#000000;stroke-width:0.8;" x="50.14375" xlink:href="#m38a382fcc4" y="273.312"/>
      </g>
     </g>
     <g id="text_1">
      <!-- 30 -->
      <g transform="translate(43.78125 287.910437)scale(0.1 -0.1)">
       <defs>
        <path d="M 2597 2516 
Q 3050 2419 3304 2112 
Q 3559 1806 3559 1356 
Q 3559 666 3084 287 
Q 2609 -91 1734 -91 
Q 1441 -91 1130 -33 
Q 819 25 488 141 
L 488 750 
Q 750 597 1062 519 
Q 1375 441 1716 441 
Q 2309 441 2620 675 
Q 2931 909 2931 1356 
Q 2931 1769 2642 2001 
Q 2353 2234 1838 2234 
L 1294 2234 
L 1294 2753 
L 1863 2753 
Q 2328 2753 2575 2939 
Q 2822 3125 2822 3475 
Q 2822 3834 2567 4026 
Q 2313 4219 1838 4219 
Q 1578 4219 1281 4162 
Q 984 4106 628 3988 
L 628 4550 
Q 988 4650 1302 4700 
Q 1616 4750 1894 4750 
Q 2613 4750 3031 4423 
Q 3450 4097 3450 3541 
Q 3450 3153 3228 2886 
Q 3006 2619 2597 2516 
z
" id="DejaVuSans-33" transform="scale(0.015625)"/>
        <path d="M 2034 4250 
Q 1547 4250 1301 3770 
Q 1056 3291 1056 2328 
Q 1056 1369 1301 889 
Q 1547 409 2034 409 
Q 2525 409 2770 889 
Q 3016 1369 3016 2328 
Q 3016 3291 2770 3770 
Q 2525 4250 2034 4250 
z
M 2034 4750 
Q 2819 4750 3233 4129 
Q 3647 3509 3647 2328 
Q 3647 1150 3233 529 
Q 2819 -91 2034 -91 
Q 1250 -91 836 529 
Q 422 1150 422 2328 
Q 422 3509 836 4129 
Q 1250 4750 2034 4750 
z
" id="DejaVuSans-30" transform="scale(0.015625)"/>
       </defs>
       <use xlink:href="#DejaVuSans-33"/>
       <use x="63.623047" xlink:href="#DejaVuSans-30"/>
      </g>
     </g>
    </g>
    <g id="xtick_2">
     <g id="line2d_2">
      <g>
       <use style="stroke:#000000;stroke-width:0.8;" x="101.160893" xlink:href="#m38a382fcc4" y="273.312"/>
      </g>
     </g>
     <g id="text_2">
      <!-- 40 -->
      <g transform="translate(94.798393 287.910437)scale(0.1 -0.1)">
       <defs>
        <path d="M 2419 4116 
L 825 1625 
L 2419 1625 
L 2419 4116 
z
M 2253 4666 
L 3047 4666 
L 3047 1625 
L 3713 1625 
L 3713 1100 
L 3047 1100 
L 3047 0 
L 2419 0 
L 2419 1100 
L 313 1100 
L 313 1709 
L 2253 4666 
z
" id="DejaVuSans-34" transform="scale(0.015625)"/>
       </defs>
       <use xlink:href="#DejaVuSans-34"/>
       <use x="63.623047" xlink:href="#DejaVuSans-30"/>
      </g>
     </g>
    </g>
    <g id="xtick_3">
     <g id="line2d_3">
      <g>
       <use style="stroke:#000000;stroke-width:0.8;" x="152.178036" xlink:href="#m38a382fcc4" y="273.312"/>
      </g>
     </g>
     <g id="text_3">
      <!-- 50 -->
      <g transform="translate(145.815536 287.910437)scale(0.1 -0.1)">
       <defs>
        <path d="M 691 4666 
L 3169 4666 
L 3169 4134 
L 1269 4134 
L 1269 2991 
Q 1406 3038 1543 3061 
Q 1681 3084 1819 3084 
Q 2600 3084 3056 2656 
Q 3513 2228 3513 1497 
Q 3513 744 3044 326 
Q 2575 -91 1722 -91 
Q 1428 -91 1123 -41 
Q 819 9 494 109 
L 494 744 
Q 775 591 1075 516 
Q 1375 441 1709 441 
Q 2250 441 2565 725 
Q 2881 1009 2881 1497 
Q 2881 1984 2565 2268 
Q 2250 2553 1709 2553 
Q 1456 2553 1204 2497 
Q 953 2441 691 2322 
L 691 4666 
z
" id="DejaVuSans-35" transform="scale(0.015625)"/>
       </defs>
       <use xlink:href="#DejaVuSans-35"/>
       <use x="63.623047" xlink:href="#DejaVuSans-30"/>
      </g>
     </g>
    </g>
    <g id="xtick_4">
     <g id="line2d_4">
      <g>
       <use style="stroke:#000000;stroke-width:0.8;" x="203.195179" xlink:href="#m38a382fcc4" y="273.312"/>
      </g>
     </g>
     <g id="text_4">
      <!-- 60 -->
      <g transform="translate(196.832679 287.910437)scale(0.1 -0.1)">
       <defs>
        <path d="M 2113 2584 
Q 1688 2584 1439 2293 
Q 1191 2003 1191 1497 
Q 1191 994 1439 701 
Q 1688 409 2113 409 
Q 2538 409 2786 701 
Q 3034 994 3034 1497 
Q 3034 2003 2786 2293 
Q 2538 2584 2113 2584 
z
M 3366 4563 
L 3366 3988 
Q 3128 4100 2886 4159 
Q 2644 4219 2406 4219 
Q 1781 4219 1451 3797 
Q 1122 3375 1075 2522 
Q 1259 2794 1537 2939 
Q 1816 3084 2150 3084 
Q 2853 3084 3261 2657 
Q 3669 2231 3669 1497 
Q 3669 778 3244 343 
Q 2819 -91 2113 -91 
Q 1303 -91 875 529 
Q 447 1150 447 2328 
Q 447 3434 972 4092 
Q 1497 4750 2381 4750 
Q 2619 4750 2861 4703 
Q 3103 4656 3366 4563 
z
" id="DejaVuSans-36" transform="scale(0.015625)"/>
       </defs>
       <use xlink:href="#DejaVuSans-36"/>
       <use x="63.623047" xlink:href="#DejaVuSans-30"/>
      </g>
     </g>
    </g>
    <g id="xtick_5">
     <g id="line2d_5">
      <g>
       <use style="stroke:#000000;stroke-width:0.8;" x="254.212321" xlink:href="#m38a382fcc4" y="273.312"/>
      </g>
     </g>
     <g id="text_5">
      <!-- 70 -->
      <g transform="translate(247.849821 287.910437)scale(0.1 -0.1)">
       <defs>
        <path d="M 525 4666 
L 3525 4666 
L 3525 4397 
L 1831 0 
L 1172 0 
L 2766 4134 
L 525 4134 
L 525 4666 
z
" id="DejaVuSans-37" transform="scale(0.015625)"/>
       </defs>
       <use xlink:href="#DejaVuSans-37"/>
       <use x="63.623047" xlink:href="#DejaVuSans-30"/>
      </g>
     </g>
    </g>
    <g id="xtick_6">
     <g id="line2d_6">
      <g>
       <use style="stroke:#000000;stroke-width:0.8;" x="305.229464" xlink:href="#m38a382fcc4" y="273.312"/>
      </g>
     </g>
     <g id="text_6">
      <!-- 80 -->
      <g transform="translate(298.866964 287.910437)scale(0.1 -0.1)">
       <defs>
        <path d="M 2034 2216 
Q 1584 2216 1326 1975 
Q 1069 1734 1069 1313 
Q 1069 891 1326 650 
Q 1584 409 2034 409 
Q 2484 409 2743 651 
Q 3003 894 3003 1313 
Q 3003 1734 2745 1975 
Q 2488 2216 2034 2216 
z
M 1403 2484 
Q 997 2584 770 2862 
Q 544 3141 544 3541 
Q 544 4100 942 4425 
Q 1341 4750 2034 4750 
Q 2731 4750 3128 4425 
Q 3525 4100 3525 3541 
Q 3525 3141 3298 2862 
Q 3072 2584 2669 2484 
Q 3125 2378 3379 2068 
Q 3634 1759 3634 1313 
Q 3634 634 3220 271 
Q 2806 -91 2034 -91 
Q 1263 -91 848 271 
Q 434 634 434 1313 
Q 434 1759 690 2068 
Q 947 2378 1403 2484 
z
M 1172 3481 
Q 1172 3119 1398 2916 
Q 1625 2713 2034 2713 
Q 2441 2713 2670 2916 
Q 2900 3119 2900 3481 
Q 2900 3844 2670 4047 
Q 2441 4250 2034 4250 
Q 1625 4250 1398 4047 
Q 1172 3844 1172 3481 
z
" id="DejaVuSans-38" transform="scale(0.015625)"/>
       </defs>
       <use xlink:href="#DejaVuSans-38"/>
       <use x="63.623047" xlink:href="#DejaVuSans-30"/>
      </g>
     </g>
    </g>
    <g id="xtick_7">
     <g id="line2d_7">
      <g>
       <use style="stroke:#000000;stroke-width:0.8;" x="356.246607" xlink:href="#m38a382fcc4" y="273.312"/>
      </g>
     </g>
     <g id="text_7">
      <!-- 90 -->
      <g transform="translate(349.884107 287.910437)scale(0.1 -0.1)">
       <defs>
        <path d="M 703 97 
L 703 672 
Q 941 559 1184 500 
Q 1428 441 1663 441 
Q 2288 441 2617 861 
Q 2947 1281 2994 2138 
Q 2813 1869 2534 1725 
Q 2256 1581 1919 1581 
Q 1219 1581 811 2004 
Q 403 2428 403 3163 
Q 403 3881 828 4315 
Q 1253 4750 1959 4750 
Q 2769 4750 3195 4129 
Q 3622 3509 3622 2328 
Q 3622 1225 3098 567 
Q 2575 -91 1691 -91 
Q 1453 -91 1209 -44 
Q 966 3 703 97 
z
M 1959 2075 
Q 2384 2075 2632 2365 
Q 2881 2656 2881 3163 
Q 2881 3666 2632 3958 
Q 2384 4250 1959 4250 
Q 1534 4250 1286 3958 
Q 1038 3666 1038 3163 
Q 1038 2656 1286 2365 
Q 1534 2075 1959 2075 
z
" id="DejaVuSans-39" transform="scale(0.015625)"/>
       </defs>
       <use xlink:href="#DejaVuSans-39"/>
       <use x="63.623047" xlink:href="#DejaVuSans-30"/>
      </g>
     </g>
    </g>
    <g id="xtick_8">
     <g id="line2d_8">
      <g>
       <use style="stroke:#000000;stroke-width:0.8;" x="407.26375" xlink:href="#m38a382fcc4" y="273.312"/>
      </g>
     </g>
     <g id="text_8">
      <!-- 100 -->
      <g transform="translate(397.72 287.910437)scale(0.1 -0.1)">
       <defs>
        <path d="M 794 531 
L 1825 531 
L 1825 4091 
L 703 3866 
L 703 4441 
L 1819 4666 
L 2450 4666 
L 2450 531 
L 3481 531 
L 3481 0 
L 794 0 
L 794 531 
z
" id="DejaVuSans-31" transform="scale(0.015625)"/>
       </defs>
       <use xlink:href="#DejaVuSans-31"/>
       <use x="63.623047" xlink:href="#DejaVuSans-30"/>
       <use x="127.246094" xlink:href="#DejaVuSans-30"/>
      </g>
     </g>
    </g>
    <g id="text_9">
     <!-- Pressure Drop [Pa] -->
     <g transform="translate(182.399063 301.588562)scale(0.1 -0.1)">
      <defs>
       <path d="M 1259 4147 
L 1259 2394 
L 2053 2394 
Q 2494 2394 2734 2622 
Q 2975 2850 2975 3272 
Q 2975 3691 2734 3919 
Q 2494 4147 2053 4147 
L 1259 4147 
z
M 628 4666 
L 2053 4666 
Q 2838 4666 3239 4311 
Q 3641 3956 3641 3272 
Q 3641 2581 3239 2228 
Q 2838 1875 2053 1875 
L 1259 1875 
L 1259 0 
L 628 0 
L 628 4666 
z
" id="DejaVuSans-50" transform="scale(0.015625)"/>
       <path d="M 2631 2963 
Q 2534 3019 2420 3045 
Q 2306 3072 2169 3072 
Q 1681 3072 1420 2755 
Q 1159 2438 1159 1844 
L 1159 0 
L 581 0 
L 581 3500 
L 1159 3500 
L 1159 2956 
Q 1341 3275 1631 3429 
Q 1922 3584 2338 3584 
Q 2397 3584 2469 3576 
Q 2541 3569 2628 3553 
L 2631 2963 
z
" id="DejaVuSans-72" transform="scale(0.015625)"/>
       <path d="M 3597 1894 
L 3597 1613 
L 953 1613 
Q 991 1019 1311 708 
Q 1631 397 2203 397 
Q 2534 397 2845 478 
Q 3156 559 3463 722 
L 3463 178 
Q 3153 47 2828 -22 
Q 2503 -91 2169 -91 
Q 1331 -91 842 396 
Q 353 884 353 1716 
Q 353 2575 817 3079 
Q 1281 3584 2069 3584 
Q 2775 3584 3186 3129 
Q 3597 2675 3597 1894 
z
M 3022 2063 
Q 3016 2534 2758 2815 
Q 2500 3097 2075 3097 
Q 1594 3097 1305 2825 
Q 1016 2553 972 2059 
L 3022 2063 
z
" id="DejaVuSans-65" transform="scale(0.015625)"/>
       <path d="M 2834 3397 
L 2834 2853 
Q 2591 2978 2328 3040 
Q 2066 3103 1784 3103 
Q 1356 3103 1142 2972 
Q 928 2841 928 2578 
Q 928 2378 1081 2264 
Q 1234 2150 1697 2047 
L 1894 2003 
Q 2506 1872 2764 1633 
Q 3022 1394 3022 966 
Q 3022 478 2636 193 
Q 2250 -91 1575 -91 
Q 1294 -91 989 -36 
Q 684 19 347 128 
L 347 722 
Q 666 556 975 473 
Q 1284 391 1588 391 
Q 1994 391 2212 530 
Q 2431 669 2431 922 
Q 2431 1156 2273 1281 
Q 2116 1406 1581 1522 
L 1381 1569 
Q 847 1681 609 1914 
Q 372 2147 372 2553 
Q 372 3047 722 3315 
Q 1072 3584 1716 3584 
Q 2034 3584 2315 3537 
Q 2597 3491 2834 3397 
z
" id="DejaVuSans-73" transform="scale(0.015625)"/>
       <path d="M 544 1381 
L 544 3500 
L 1119 3500 
L 1119 1403 
Q 1119 906 1312 657 
Q 1506 409 1894 409 
Q 2359 409 2629 706 
Q 2900 1003 2900 1516 
L 2900 3500 
L 3475 3500 
L 3475 0 
L 2900 0 
L 2900 538 
Q 2691 219 2414 64 
Q 2138 -91 1772 -91 
Q 1169 -91 856 284 
Q 544 659 544 1381 
z
M 1991 3584 
L 1991 3584 
z
" id="DejaVuSans-75" transform="scale(0.015625)"/>
       <path id="DejaVuSans-20" transform="scale(0.015625)"/>
       <path d="M 1259 4147 
L 1259 519 
L 2022 519 
Q 2988 519 3436 956 
Q 3884 1394 3884 2338 
Q 3884 3275 3436 3711 
Q 2988 4147 2022 4147 
L 1259 4147 
z
M 628 4666 
L 1925 4666 
Q 3281 4666 3915 4102 
Q 4550 3538 4550 2338 
Q 4550 1131 3912 565 
Q 3275 0 1925 0 
L 628 0 
L 628 4666 
z
" id="DejaVuSans-44" transform="scale(0.015625)"/>
       <path d="M 1959 3097 
Q 1497 3097 1228 2736 
Q 959 2375 959 1747 
Q 959 1119 1226 758 
Q 1494 397 1959 397 
Q 2419 397 2687 759 
Q 2956 1122 2956 1747 
Q 2956 2369 2687 2733 
Q 2419 3097 1959 3097 
z
M 1959 3584 
Q 2709 3584 3137 3096 
Q 3566 2609 3566 1747 
Q 3566 888 3137 398 
Q 2709 -91 1959 -91 
Q 1206 -91 779 398 
Q 353 888 353 1747 
Q 353 2609 779 3096 
Q 1206 3584 1959 3584 
z
" id="DejaVuSans-6f" transform="scale(0.015625)"/>
       <path d="M 1159 525 
L 1159 -1331 
L 581 -1331 
L 581 3500 
L 1159 3500 
L 1159 2969 
Q 1341 3281 1617 3432 
Q 1894 3584 2278 3584 
Q 2916 3584 3314 3078 
Q 3713 2572 3713 1747 
Q 3713 922 3314 415 
Q 2916 -91 2278 -91 
Q 1894 -91 1617 61 
Q 1341 213 1159 525 
z
M 3116 1747 
Q 3116 2381 2855 2742 
Q 2594 3103 2138 3103 
Q 1681 3103 1420 2742 
Q 1159 2381 1159 1747 
Q 1159 1113 1420 752 
Q 1681 391 2138 391 
Q 2594 391 2855 752 
Q 3116 1113 3116 1747 
z
" id="DejaVuSans-70" transform="scale(0.015625)"/>
       <path d="M 550 4863 
L 1875 4863 
L 1875 4416 
L 1125 4416 
L 1125 -397 
L 1875 -397 
L 1875 -844 
L 550 -844 
L 550 4863 
z
" id="DejaVuSans-5b" transform="scale(0.015625)"/>
       <path d="M 2194 1759 
Q 1497 1759 1228 1600 
Q 959 1441 959 1056 
Q 959 750 1161 570 
Q 1363 391 1709 391 
Q 2188 391 2477 730 
Q 2766 1069 2766 1631 
L 2766 1759 
L 2194 1759 
z
M 3341 1997 
L 3341 0 
L 2766 0 
L 2766 531 
Q 2569 213 2275 61 
Q 1981 -91 1556 -91 
Q 1019 -91 701 211 
Q 384 513 384 1019 
Q 384 1609 779 1909 
Q 1175 2209 1959 2209 
L 2766 2209 
L 2766 2266 
Q 2766 2663 2505 2880 
Q 2244 3097 1772 3097 
Q 1472 3097 1187 3025 
Q 903 2953 641 2809 
L 641 3341 
Q 956 3463 1253 3523 
Q 1550 3584 1831 3584 
Q 2591 3584 2966 3190 
Q 3341 2797 3341 1997 
z
" id="DejaVuSans-61" transform="scale(0.015625)"/>
       <path d="M 1947 4863 
L 1947 -844 
L 622 -844 
L 622 -397 
L 1369 -397 
L 1369 4416 
L 622 4416 
L 622 4863 
L 1947 4863 
z
" id="DejaVuSans-5d" transform="scale(0.015625)"/>
      </defs>
      <use xlink:href="#DejaVuSans-50"/>
      <use x="58.552734" xlink:href="#DejaVuSans-72"/>
      <use x="97.416016" xlink:href="#DejaVuSans-65"/>
      <use x="158.939453" xlink:href="#DejaVuSans-73"/>
      <use x="211.039062" xlink:href="#DejaVuSans-73"/>
      <use x="263.138672" xlink:href="#DejaVuSans-75"/>
      <use x="326.517578" xlink:href="#DejaVuSans-72"/>
      <use x="365.380859" xlink:href="#DejaVuSans-65"/>
      <use x="426.904297" xlink:href="#DejaVuSans-20"/>
      <use x="458.691406" xlink:href="#DejaVuSans-44"/>
      <use x="535.693359" xlink:href="#DejaVuSans-72"/>
      <use x="574.556641" xlink:href="#DejaVuSans-6f"/>
      <use x="635.738281" xlink:href="#DejaVuSans-70"/>
      <use x="699.214844" xlink:href="#DejaVuSans-20"/>
      <use x="731.001953" xlink:href="#DejaVuSans-5b"/>
      <use x="770.015625" xlink:href="#DejaVuSans-50"/>
      <use x="825.818359" xlink:href="#DejaVuSans-61"/>
      <use x="887.097656" xlink:href="#DejaVuSans-5d"/>
     </g>
    </g>
   </g>
   <g id="matplotlib.axis_2">
    <g id="ytick_1">
     <g id="line2d_9">
      <defs>
       <path d="M 0 0 
L -3.5 0 
" id="m9553798f95" style="stroke:#000000;stroke-width:0.8;"/>
      </defs>
      <g>
       <use style="stroke:#000000;stroke-width:0.8;" x="50.14375" xlink:href="#m9553798f95" y="273.312"/>
      </g>
     </g>
     <g id="text_10">
      <!-- 0.70 -->
      <g transform="translate(20.878125 277.111219)scale(0.1 -0.1)">
       <defs>
        <path d="M 684 794 
L 1344 794 
L 1344 0 
L 684 0 
L 684 794 
z
" id="DejaVuSans-2e" transform="scale(0.015625)"/>
       </defs>
       <use xlink:href="#DejaVuSans-30"/>
       <use x="63.623047" xlink:href="#DejaVuSans-2e"/>
       <use x="95.410156" xlink:href="#DejaVuSans-37"/>
       <use x="159.033203" xlink:href="#DejaVuSans-30"/>
      </g>
     </g>
    </g>
    <g id="ytick_2">
     <g id="line2d_10">
      <g>
       <use style="stroke:#000000;stroke-width:0.8;" x="50.14375" xlink:href="#m9553798f95" y="230.39071"/>
      </g>
     </g>
     <g id="text_11">
      <!-- 0.75 -->
      <g transform="translate(20.878125 234.189928)scale(0.1 -0.1)">
       <use xlink:href="#DejaVuSans-30"/>
       <use x="63.623047" xlink:href="#DejaVuSans-2e"/>
       <use x="95.410156" xlink:href="#DejaVuSans-37"/>
       <use x="159.033203" xlink:href="#DejaVuSans-35"/>
      </g>
     </g>
    </g>
    <g id="ytick_3">
     <g id="line2d_11">
      <g>
       <use style="stroke:#000000;stroke-width:0.8;" x="50.14375" xlink:href="#m9553798f95" y="187.469419"/>
      </g>
     </g>
     <g id="text_12">
      <!-- 0.80 -->
      <g transform="translate(20.878125 191.268638)scale(0.1 -0.1)">
       <use xlink:href="#DejaVuSans-30"/>
       <use x="63.623047" xlink:href="#DejaVuSans-2e"/>
       <use x="95.410156" xlink:href="#DejaVuSans-38"/>
       <use x="159.033203" xlink:href="#DejaVuSans-30"/>
      </g>
     </g>
    </g>
    <g id="ytick_4">
     <g id="line2d_12">
      <g>
       <use style="stroke:#000000;stroke-width:0.8;" x="50.14375" xlink:href="#m9553798f95" y="144.548129"/>
      </g>
     </g>
     <g id="text_13">
      <!-- 0.85 -->
      <g transform="translate(20.878125 148.347348)scale(0.1 -0.1)">
       <use xlink:href="#DejaVuSans-30"/>
       <use x="63.623047" xlink:href="#DejaVuSans-2e"/>
       <use x="95.410156" xlink:href="#DejaVuSans-38"/>
       <use x="159.033203" xlink:href="#DejaVuSans-35"/>
      </g>
     </g>
    </g>
    <g id="ytick_5">
     <g id="line2d_13">
      <g>
       <use style="stroke:#000000;stroke-width:0.8;" x="50.14375" xlink:href="#m9553798f95" y="101.626839"/>
      </g>
     </g>
     <g id="text_14">
      <!-- 0.90 -->
      <g transform="translate(20.878125 105.426057)scale(0.1 -0.1)">
       <use xlink:href="#DejaVuSans-30"/>
       <use x="63.623047" xlink:href="#DejaVuSans-2e"/>
       <use x="95.410156" xlink:href="#DejaVuSans-39"/>
       <use x="159.033203" xlink:href="#DejaVuSans-30"/>
      </g>
     </g>
    </g>
    <g id="ytick_6">
     <g id="line2d_14">
      <g>
       <use style="stroke:#000000;stroke-width:0.8;" x="50.14375" xlink:href="#m9553798f95" y="58.705548"/>
      </g>
     </g>
     <g id="text_15">
      <!-- 0.95 -->
      <g transform="translate(20.878125 62.504767)scale(0.1 -0.1)">
       <use xlink:href="#DejaVuSans-30"/>
       <use x="63.623047" xlink:href="#DejaVuSans-2e"/>
       <use x="95.410156" xlink:href="#DejaVuSans-39"/>
       <use x="159.033203" xlink:href="#DejaVuSans-35"/>
      </g>
     </g>
    </g>
    <g id="ytick_7">
     <g id="line2d_15">
      <g>
       <use style="stroke:#000000;stroke-width:0.8;" x="50.14375" xlink:href="#m9553798f95" y="15.784258"/>
      </g>
     </g>
     <g id="text_16">
      <!-- 1.00 -->
      <g transform="translate(20.878125 19.583477)scale(0.1 -0.1)">
       <use xlink:href="#DejaVuSans-31"/>
       <use x="63.623047" xlink:href="#DejaVuSans-2e"/>
       <use x="95.410156" xlink:href="#DejaVuSans-30"/>
       <use x="159.033203" xlink:href="#DejaVuSans-30"/>
      </g>
     </g>
    </g>
    <g id="text_17">
     <!-- Filtration Efficency -->
     <g transform="translate(14.798438 186.565375)rotate(-90)scale(0.1 -0.1)">
      <defs>
       <path d="M 628 4666 
L 3309 4666 
L 3309 4134 
L 1259 4134 
L 1259 2759 
L 3109 2759 
L 3109 2228 
L 1259 2228 
L 1259 0 
L 628 0 
L 628 4666 
z
" id="DejaVuSans-46" transform="scale(0.015625)"/>
       <path d="M 603 3500 
L 1178 3500 
L 1178 0 
L 603 0 
L 603 3500 
z
M 603 4863 
L 1178 4863 
L 1178 4134 
L 603 4134 
L 603 4863 
z
" id="DejaVuSans-69" transform="scale(0.015625)"/>
       <path d="M 603 4863 
L 1178 4863 
L 1178 0 
L 603 0 
L 603 4863 
z
" id="DejaVuSans-6c" transform="scale(0.015625)"/>
       <path d="M 1172 4494 
L 1172 3500 
L 2356 3500 
L 2356 3053 
L 1172 3053 
L 1172 1153 
Q 1172 725 1289 603 
Q 1406 481 1766 481 
L 2356 481 
L 2356 0 
L 1766 0 
Q 1100 0 847 248 
Q 594 497 594 1153 
L 594 3053 
L 172 3053 
L 172 3500 
L 594 3500 
L 594 4494 
L 1172 4494 
z
" id="DejaVuSans-74" transform="scale(0.015625)"/>
       <path d="M 3513 2113 
L 3513 0 
L 2938 0 
L 2938 2094 
Q 2938 2591 2744 2837 
Q 2550 3084 2163 3084 
Q 1697 3084 1428 2787 
Q 1159 2491 1159 1978 
L 1159 0 
L 581 0 
L 581 3500 
L 1159 3500 
L 1159 2956 
Q 1366 3272 1645 3428 
Q 1925 3584 2291 3584 
Q 2894 3584 3203 3211 
Q 3513 2838 3513 2113 
z
" id="DejaVuSans-6e" transform="scale(0.015625)"/>
       <path d="M 628 4666 
L 3578 4666 
L 3578 4134 
L 1259 4134 
L 1259 2753 
L 3481 2753 
L 3481 2222 
L 1259 2222 
L 1259 531 
L 3634 531 
L 3634 0 
L 628 0 
L 628 4666 
z
" id="DejaVuSans-45" transform="scale(0.015625)"/>
       <path d="M 2375 4863 
L 2375 4384 
L 1825 4384 
Q 1516 4384 1395 4259 
Q 1275 4134 1275 3809 
L 1275 3500 
L 2222 3500 
L 2222 3053 
L 1275 3053 
L 1275 0 
L 697 0 
L 697 3053 
L 147 3053 
L 147 3500 
L 697 3500 
L 697 3744 
Q 697 4328 969 4595 
Q 1241 4863 1831 4863 
L 2375 4863 
z
" id="DejaVuSans-66" transform="scale(0.015625)"/>
       <path d="M 3122 3366 
L 3122 2828 
Q 2878 2963 2633 3030 
Q 2388 3097 2138 3097 
Q 1578 3097 1268 2742 
Q 959 2388 959 1747 
Q 959 1106 1268 751 
Q 1578 397 2138 397 
Q 2388 397 2633 464 
Q 2878 531 3122 666 
L 3122 134 
Q 2881 22 2623 -34 
Q 2366 -91 2075 -91 
Q 1284 -91 818 406 
Q 353 903 353 1747 
Q 353 2603 823 3093 
Q 1294 3584 2113 3584 
Q 2378 3584 2631 3529 
Q 2884 3475 3122 3366 
z
" id="DejaVuSans-63" transform="scale(0.015625)"/>
       <path d="M 2059 -325 
Q 1816 -950 1584 -1140 
Q 1353 -1331 966 -1331 
L 506 -1331 
L 506 -850 
L 844 -850 
Q 1081 -850 1212 -737 
Q 1344 -625 1503 -206 
L 1606 56 
L 191 3500 
L 800 3500 
L 1894 763 
L 2988 3500 
L 3597 3500 
L 2059 -325 
z
" id="DejaVuSans-79" transform="scale(0.015625)"/>
      </defs>
      <use xlink:href="#DejaVuSans-46"/>
      <use x="50.269531" xlink:href="#DejaVuSans-69"/>
      <use x="78.052734" xlink:href="#DejaVuSans-6c"/>
      <use x="105.835938" xlink:href="#DejaVuSans-74"/>
      <use x="145.044922" xlink:href="#DejaVuSans-72"/>
      <use x="186.158203" xlink:href="#DejaVuSans-61"/>
      <use x="247.4375" xlink:href="#DejaVuSans-74"/>
      <use x="286.646484" xlink:href="#DejaVuSans-69"/>
      <use x="314.429688" xlink:href="#DejaVuSans-6f"/>
      <use x="375.611328" xlink:href="#DejaVuSans-6e"/>
      <use x="438.990234" xlink:href="#DejaVuSans-20"/>
      <use x="470.777344" xlink:href="#DejaVuSans-45"/>
      <use x="533.960938" xlink:href="#DejaVuSans-66"/>
      <use x="569.166016" xlink:href="#DejaVuSans-66"/>
      <use x="604.371094" xlink:href="#DejaVuSans-69"/>
      <use x="632.154297" xlink:href="#DejaVuSans-63"/>
      <use x="687.134766" xlink:href="#DejaVuSans-65"/>
      <use x="748.658203" xlink:href="#DejaVuSans-6e"/>
      <use x="812.037109" xlink:href="#DejaVuSans-63"/>
      <use x="867.017578" xlink:href="#DejaVuSans-79"/>
     </g>
    </g>
   </g>
   <g id="line2d_16">
    <path clip-path="url(#p60da04de50)" d="M 274.619179 28.14559 
L 300.12775 27.888062 
" style="fill:none;stroke:#0d0887;stroke-linecap:square;stroke-width:1.5;"/>
   </g>
   <g id="line2d_17">
    <path clip-path="url(#p60da04de50)" d="M 381.755179 19.818859 
L 356.246607 28.231432 
" style="fill:none;stroke:#5302a3;stroke-linecap:square;stroke-width:1.5;"/>
   </g>
   <g id="line2d_18">
    <path clip-path="url(#p60da04de50)" d="M 203.195179 16.986054 
L 203.195179 22.565822 
" style="fill:none;stroke:#8b0aa5;stroke-linecap:square;stroke-width:1.5;"/>
   </g>
   <g id="line2d_19">
    <path clip-path="url(#p60da04de50)" d="M 70.550607 226.957006 
L 300.12775 15.784258 
" style="fill:none;stroke:#b83289;stroke-linecap:square;stroke-width:1.5;"/>
   </g>
   <g id="line2d_20">
    <path clip-path="url(#p60da04de50)" d="M 274.619179 15.784258 
L 259.314036 15.784258 
" style="fill:none;stroke:#db5c68;stroke-linecap:square;stroke-width:1.5;"/>
   </g>
   <g id="line2d_21">
    <path clip-path="url(#p60da04de50)" d="M 121.56775 165.922932 
L 121.56775 207.814111 
" style="fill:none;stroke:#f48849;stroke-linecap:square;stroke-width:1.5;"/>
   </g>
   <g id="line2d_22">
    <path clip-path="url(#p60da04de50)" d="M 238.907179 90.03809 
L 361.348321 84.458323 
" style="fill:none;stroke:#febd2a;stroke-linecap:square;stroke-width:1.5;"/>
   </g>
   <g id="line2d_23">
    <path clip-path="url(#p60da04de50)" d="M 0 0 
" style="fill:none;stroke:#858585;stroke-dasharray:1.5,2.475;stroke-dashoffset:0;stroke-opacity:0.5;stroke-width:1.5;"/>
   </g>
   <g id="line2d_24">
    <path clip-path="url(#p60da04de50)" d="M 0 0 
" style="fill:none;stroke:#858585;stroke-dasharray:1.5,2.475;stroke-dashoffset:0;stroke-opacity:0.5;stroke-width:1.5;"/>
   </g>
   <g id="line2d_25">
    <path clip-path="url(#p60da04de50)" d="M 0 0 
" style="fill:none;stroke:#858585;stroke-dasharray:1.5,2.475;stroke-dashoffset:0;stroke-opacity:0.5;stroke-width:1.5;"/>
   </g>
   <g id="line2d_26">
    <path clip-path="url(#p60da04de50)" d="M 0 0 
" style="fill:none;stroke:#858585;stroke-dasharray:1.5,2.475;stroke-dashoffset:0;stroke-opacity:0.5;stroke-width:1.5;"/>
   </g>
   <g id="line2d_27">
    <path clip-path="url(#p60da04de50)" d="M 168.621704 311.86825 
L 175.185767 304.344587 
L 183.188456 295.432246 
L 191.191145 286.795168 
L 199.193834 278.42485 
L 209.197195 268.324559 
L 219.200557 258.612691 
L 229.203918 249.27431 
L 239.207279 240.295052 
L 249.210641 231.661106 
L 259.214002 223.359194 
L 269.217363 215.376546 
L 279.220725 207.700884 
L 289.224086 200.320403 
L 299.227447 193.223751 
L 309.230809 186.400013 
L 319.23417 179.838693 
L 329.237532 173.5297 
L 339.240893 167.46333 
L 349.244254 161.630253 
L 359.247616 156.021496 
L 369.250977 150.628434 
L 381.255011 144.42982 
L 393.259044 138.516147 
L 405.263078 132.874319 
L 407.26375 131.959558 
L 407.26375 131.959558 
" style="fill:none;stroke:#858585;stroke-dasharray:1.5,2.475;stroke-dashoffset:0;stroke-opacity:0.5;stroke-width:1.5;"/>
   </g>
   <g id="line2d_28">
    <path clip-path="url(#p60da04de50)" d="M 5.707462 311.86825 
L 11.130641 296.531058 
L 17.132658 280.492876 
L 23.134674 265.370905 
L 29.136691 251.112804 
L 35.138708 237.669224 
L 41.140725 224.993634 
L 47.142742 213.04216 
L 53.144758 201.773436 
L 59.146775 191.148459 
L 65.148792 181.130454 
L 71.150809 171.684745 
L 77.152826 162.778641 
L 83.154842 154.381314 
L 89.156859 146.4637 
L 95.158876 138.998394 
L 101.160893 131.959558 
L 107.16291 125.322828 
L 113.164926 119.065234 
L 119.166943 113.165117 
L 125.16896 107.602054 
L 131.170977 102.356792 
L 137.172994 97.411175 
L 143.175011 92.748086 
L 149.177027 88.351385 
L 155.179044 84.205853 
L 161.181061 80.297142 
L 167.183078 76.611724 
L 173.185095 73.136842 
L 179.187111 69.860469 
L 187.1898 65.781258 
L 195.192489 62.00976 
L 203.195179 58.522762 
L 211.197868 55.298805 
L 219.200557 52.318045 
L 227.203246 49.562138 
L 235.205935 47.01412 
L 245.209296 44.097668 
L 255.212658 41.453574 
L 265.216019 39.056402 
L 275.21938 36.883095 
L 285.222742 34.912745 
L 297.226775 32.78967 
L 309.230809 30.902235 
L 321.234842 29.224287 
L 335.239548 27.500576 
L 349.244254 25.997935 
L 365.249632 24.515128 
L 381.255011 23.247592 
L 399.261061 22.040199 
L 407.26375 21.568286 
L 407.26375 21.568286 
" style="fill:none;stroke:#858585;stroke-dasharray:1.5,2.475;stroke-dashoffset:0;stroke-opacity:0.5;stroke-width:1.5;"/>
   </g>
   <g id="line2d_29">
    <path clip-path="url(#p60da04de50)" d="M -1 132.253593 
L 1.127279 127.491839 
L 5.128624 119.065234 
L 9.129968 111.274286 
L 13.131313 104.071044 
L 17.132658 97.411175 
L 21.134002 91.25369 
L 25.135347 85.560692 
L 29.136691 80.297142 
L 33.138036 75.430646 
L 37.13938 70.931251 
L 41.140725 66.771265 
L 45.142069 62.925086 
L 49.143414 59.369042 
L 53.144758 56.081246 
L 57.146103 53.041463 
L 61.147447 50.230985 
L 65.148792 47.632514 
L 69.150137 45.230057 
L 73.151481 43.008828 
L 79.153498 39.987166 
L 85.155515 37.30088 
L 91.157532 34.912745 
L 97.159548 32.78967 
L 103.161565 30.902235 
L 109.163582 29.224287 
L 115.165599 27.732575 
L 123.168288 25.997935 
L 131.170977 24.515128 
L 139.173666 23.247592 
L 149.177027 21.918729 
L 159.180389 20.826472 
L 171.184422 19.769314 
L 183.188456 18.9338 
L 197.193162 18.177736 
L 213.19854 17.533219 
L 233.205263 16.965853 
L 257.21333 16.522323 
L 289.224086 16.178349 
L 333.238876 15.950565 
L 407.26375 15.823231 
L 407.26375 15.823231 
" style="fill:none;stroke:#858585;stroke-dasharray:1.5,2.475;stroke-dashoffset:0;stroke-opacity:0.5;stroke-width:1.5;"/>
   </g>
   <g id="line2d_30">
    <path clip-path="url(#p60da04de50)" d="M -1 31.588053 
L 1.127279 30.320848 
L 5.128624 28.210446 
L 9.129968 26.406429 
L 13.131313 24.864317 
L 17.132658 23.546086 
L 21.134002 22.419235 
L 27.136019 21.028135 
L 33.138036 19.928695 
L 39.140053 19.059766 
L 47.142742 18.177736 
L 55.145431 17.533219 
L 65.148792 16.965853 
L 77.152826 16.522323 
L 93.158204 16.178349 
L 115.165599 15.950565 
L 153.178372 15.821732 
L 257.21333 15.784893 
L 407.26375 15.78426 
L 407.26375 15.78426 
" style="fill:none;stroke:#858585;stroke-dasharray:1.5,2.475;stroke-dashoffset:0;stroke-opacity:0.5;stroke-width:1.5;"/>
   </g>
   <g id="line2d_31">
    <path clip-path="url(#p60da04de50)" d="M -1 15.823765 
L 33.138036 15.785648 
L 407.26375 15.784258 
L 407.26375 15.784258 
" style="fill:none;stroke:#858585;stroke-dasharray:1.5,2.475;stroke-dashoffset:0;stroke-opacity:0.5;stroke-width:1.5;"/>
   </g>
   <g id="patch_3">
    <path d="M 50.14375 273.312 
L 50.14375 7.2 
" style="fill:none;stroke:#000000;stroke-linecap:square;stroke-linejoin:miter;stroke-width:0.8;"/>
   </g>
   <g id="patch_4">
    <path d="M 407.26375 273.312 
L 407.26375 7.2 
" style="fill:none;stroke:#000000;stroke-linecap:square;stroke-linejoin:miter;stroke-width:0.8;"/>
   </g>
   <g id="patch_5">
    <path d="M 50.14375 273.312 
L 407.26375 273.312 
" style="fill:none;stroke:#000000;stroke-linecap:square;stroke-linejoin:miter;stroke-width:0.8;"/>
   </g>
   <g id="patch_6">
    <path d="M 50.14375 7.2 
L 407.26375 7.2 
" style="fill:none;stroke:#000000;stroke-linecap:square;stroke-linejoin:miter;stroke-width:0.8;"/>
   </g>
   <g id="legend_1">
    <g id="patch_7">
     <path d="M 432.11975 220.69375 
L 559.840063 220.69375 
Q 561.840063 220.69375 561.840063 218.69375 
L 561.840063 14.2 
Q 561.840063 12.2 559.840063 12.2 
L 432.11975 12.2 
Q 430.11975 12.2 430.11975 14.2 
L 430.11975 218.69375 
Q 430.11975 220.69375 432.11975 220.69375 
z
" style="fill:#ffffff;opacity:0.8;stroke:#cccccc;stroke-linejoin:miter;"/>
    </g>
    <g id="PathCollection_15">
     <g>
      <use style="fill:#0d0887;stroke:#0d0887;" x="444.11975" xlink:href="#m77764110a5" y="21.173437"/>
     </g>
    </g>
    <g id="text_18">
     <!-- Mask A Theoretical -->
     <g transform="translate(462.11975 23.798437)scale(0.1 -0.1)">
      <defs>
       <path d="M 628 4666 
L 1569 4666 
L 2759 1491 
L 3956 4666 
L 4897 4666 
L 4897 0 
L 4281 0 
L 4281 4097 
L 3078 897 
L 2444 897 
L 1241 4097 
L 1241 0 
L 628 0 
L 628 4666 
z
" id="DejaVuSans-4d" transform="scale(0.015625)"/>
       <path d="M 581 4863 
L 1159 4863 
L 1159 1991 
L 2875 3500 
L 3609 3500 
L 1753 1863 
L 3688 0 
L 2938 0 
L 1159 1709 
L 1159 0 
L 581 0 
L 581 4863 
z
" id="DejaVuSans-6b" transform="scale(0.015625)"/>
       <path d="M 2188 4044 
L 1331 1722 
L 3047 1722 
L 2188 4044 
z
M 1831 4666 
L 2547 4666 
L 4325 0 
L 3669 0 
L 3244 1197 
L 1141 1197 
L 716 0 
L 50 0 
L 1831 4666 
z
" id="DejaVuSans-41" transform="scale(0.015625)"/>
       <path d="M -19 4666 
L 3928 4666 
L 3928 4134 
L 2272 4134 
L 2272 0 
L 1638 0 
L 1638 4134 
L -19 4134 
L -19 4666 
z
" id="DejaVuSans-54" transform="scale(0.015625)"/>
       <path d="M 3513 2113 
L 3513 0 
L 2938 0 
L 2938 2094 
Q 2938 2591 2744 2837 
Q 2550 3084 2163 3084 
Q 1697 3084 1428 2787 
Q 1159 2491 1159 1978 
L 1159 0 
L 581 0 
L 581 4863 
L 1159 4863 
L 1159 2956 
Q 1366 3272 1645 3428 
Q 1925 3584 2291 3584 
Q 2894 3584 3203 3211 
Q 3513 2838 3513 2113 
z
" id="DejaVuSans-68" transform="scale(0.015625)"/>
      </defs>
      <use xlink:href="#DejaVuSans-4d"/>
      <use x="86.279297" xlink:href="#DejaVuSans-61"/>
      <use x="147.558594" xlink:href="#DejaVuSans-73"/>
      <use x="199.658203" xlink:href="#DejaVuSans-6b"/>
      <use x="257.568359" xlink:href="#DejaVuSans-20"/>
      <use x="289.355469" xlink:href="#DejaVuSans-41"/>
      <use x="357.763672" xlink:href="#DejaVuSans-20"/>
      <use x="389.550781" xlink:href="#DejaVuSans-54"/>
      <use x="450.634766" xlink:href="#DejaVuSans-68"/>
      <use x="514.013672" xlink:href="#DejaVuSans-65"/>
      <use x="575.537109" xlink:href="#DejaVuSans-6f"/>
      <use x="636.71875" xlink:href="#DejaVuSans-72"/>
      <use x="675.582031" xlink:href="#DejaVuSans-65"/>
      <use x="737.105469" xlink:href="#DejaVuSans-74"/>
      <use x="776.314453" xlink:href="#DejaVuSans-69"/>
      <use x="804.097656" xlink:href="#DejaVuSans-63"/>
      <use x="859.078125" xlink:href="#DejaVuSans-61"/>
      <use x="920.357422" xlink:href="#DejaVuSans-6c"/>
     </g>
    </g>
    <g id="PathCollection_16">
     <path d="M 444.11975 38.851562 
C 444.915359 38.851562 445.67849 38.535464 446.24107 37.972883 
C 446.803651 37.410302 447.11975 36.647172 447.11975 35.851562 
C 447.11975 35.055953 446.803651 34.292823 446.24107 33.730242 
C 445.67849 33.167661 444.915359 32.851562 444.11975 32.851562 
C 443.324141 32.851562 442.56101 33.167661 441.99843 33.730242 
C 441.435849 34.292823 441.11975 35.055953 441.11975 35.851562 
C 441.11975 36.647172 441.435849 37.410302 441.99843 37.972883 
C 442.56101 38.535464 443.324141 38.851562 444.11975 38.851562 
z
" style="fill:none;stroke:#0d0887;"/>
    </g>
    <g id="text_19">
     <!-- Mask A Measured -->
     <g transform="translate(462.11975 38.476562)scale(0.1 -0.1)">
      <defs>
       <path d="M 2906 2969 
L 2906 4863 
L 3481 4863 
L 3481 0 
L 2906 0 
L 2906 525 
Q 2725 213 2448 61 
Q 2172 -91 1784 -91 
Q 1150 -91 751 415 
Q 353 922 353 1747 
Q 353 2572 751 3078 
Q 1150 3584 1784 3584 
Q 2172 3584 2448 3432 
Q 2725 3281 2906 2969 
z
M 947 1747 
Q 947 1113 1208 752 
Q 1469 391 1925 391 
Q 2381 391 2643 752 
Q 2906 1113 2906 1747 
Q 2906 2381 2643 2742 
Q 2381 3103 1925 3103 
Q 1469 3103 1208 2742 
Q 947 2381 947 1747 
z
" id="DejaVuSans-64" transform="scale(0.015625)"/>
      </defs>
      <use xlink:href="#DejaVuSans-4d"/>
      <use x="86.279297" xlink:href="#DejaVuSans-61"/>
      <use x="147.558594" xlink:href="#DejaVuSans-73"/>
      <use x="199.658203" xlink:href="#DejaVuSans-6b"/>
      <use x="257.568359" xlink:href="#DejaVuSans-20"/>
      <use x="289.355469" xlink:href="#DejaVuSans-41"/>
      <use x="357.763672" xlink:href="#DejaVuSans-20"/>
      <use x="389.550781" xlink:href="#DejaVuSans-4d"/>
      <use x="475.830078" xlink:href="#DejaVuSans-65"/>
      <use x="537.353516" xlink:href="#DejaVuSans-61"/>
      <use x="598.632812" xlink:href="#DejaVuSans-73"/>
      <use x="650.732422" xlink:href="#DejaVuSans-75"/>
      <use x="714.111328" xlink:href="#DejaVuSans-72"/>
      <use x="752.974609" xlink:href="#DejaVuSans-65"/>
      <use x="814.498047" xlink:href="#DejaVuSans-64"/>
     </g>
    </g>
    <g id="PathCollection_17">
     <g>
      <use style="fill:#5302a3;stroke:#5302a3;" x="444.11975" xlink:href="#m131582164e" y="50.529687"/>
     </g>
    </g>
    <g id="text_20">
     <!-- Mask B Theoretical -->
     <g transform="translate(462.11975 53.154687)scale(0.1 -0.1)">
      <defs>
       <path d="M 1259 2228 
L 1259 519 
L 2272 519 
Q 2781 519 3026 730 
Q 3272 941 3272 1375 
Q 3272 1813 3026 2020 
Q 2781 2228 2272 2228 
L 1259 2228 
z
M 1259 4147 
L 1259 2741 
L 2194 2741 
Q 2656 2741 2882 2914 
Q 3109 3088 3109 3444 
Q 3109 3797 2882 3972 
Q 2656 4147 2194 4147 
L 1259 4147 
z
M 628 4666 
L 2241 4666 
Q 2963 4666 3353 4366 
Q 3744 4066 3744 3513 
Q 3744 3084 3544 2831 
Q 3344 2578 2956 2516 
Q 3422 2416 3680 2098 
Q 3938 1781 3938 1306 
Q 3938 681 3513 340 
Q 3088 0 2303 0 
L 628 0 
L 628 4666 
z
" id="DejaVuSans-42" transform="scale(0.015625)"/>
      </defs>
      <use xlink:href="#DejaVuSans-4d"/>
      <use x="86.279297" xlink:href="#DejaVuSans-61"/>
      <use x="147.558594" xlink:href="#DejaVuSans-73"/>
      <use x="199.658203" xlink:href="#DejaVuSans-6b"/>
      <use x="257.568359" xlink:href="#DejaVuSans-20"/>
      <use x="289.355469" xlink:href="#DejaVuSans-42"/>
      <use x="357.958984" xlink:href="#DejaVuSans-20"/>
      <use x="389.746094" xlink:href="#DejaVuSans-54"/>
      <use x="450.830078" xlink:href="#DejaVuSans-68"/>
      <use x="514.208984" xlink:href="#DejaVuSans-65"/>
      <use x="575.732422" xlink:href="#DejaVuSans-6f"/>
      <use x="636.914062" xlink:href="#DejaVuSans-72"/>
      <use x="675.777344" xlink:href="#DejaVuSans-65"/>
      <use x="737.300781" xlink:href="#DejaVuSans-74"/>
      <use x="776.509766" xlink:href="#DejaVuSans-69"/>
      <use x="804.292969" xlink:href="#DejaVuSans-63"/>
      <use x="859.273438" xlink:href="#DejaVuSans-61"/>
      <use x="920.552734" xlink:href="#DejaVuSans-6c"/>
     </g>
    </g>
    <g id="PathCollection_18">
     <path d="M 444.11975 68.207812 
C 444.915359 68.207812 445.67849 67.891714 446.24107 67.329133 
C 446.803651 66.766552 447.11975 66.003422 447.11975 65.207812 
C 447.11975 64.412203 446.803651 63.649073 446.24107 63.086492 
C 445.67849 62.523911 444.915359 62.207812 444.11975 62.207812 
C 443.324141 62.207812 442.56101 62.523911 441.99843 63.086492 
C 441.435849 63.649073 441.11975 64.412203 441.11975 65.207812 
C 441.11975 66.003422 441.435849 66.766552 441.99843 67.329133 
C 442.56101 67.891714 443.324141 68.207812 444.11975 68.207812 
z
" style="fill:none;stroke:#5302a3;"/>
    </g>
    <g id="text_21">
     <!-- Mask B Measured -->
     <g transform="translate(462.11975 67.832812)scale(0.1 -0.1)">
      <use xlink:href="#DejaVuSans-4d"/>
      <use x="86.279297" xlink:href="#DejaVuSans-61"/>
      <use x="147.558594" xlink:href="#DejaVuSans-73"/>
      <use x="199.658203" xlink:href="#DejaVuSans-6b"/>
      <use x="257.568359" xlink:href="#DejaVuSans-20"/>
      <use x="289.355469" xlink:href="#DejaVuSans-42"/>
      <use x="357.958984" xlink:href="#DejaVuSans-20"/>
      <use x="389.746094" xlink:href="#DejaVuSans-4d"/>
      <use x="476.025391" xlink:href="#DejaVuSans-65"/>
      <use x="537.548828" xlink:href="#DejaVuSans-61"/>
      <use x="598.828125" xlink:href="#DejaVuSans-73"/>
      <use x="650.927734" xlink:href="#DejaVuSans-75"/>
      <use x="714.306641" xlink:href="#DejaVuSans-72"/>
      <use x="753.169922" xlink:href="#DejaVuSans-65"/>
      <use x="814.693359" xlink:href="#DejaVuSans-64"/>
     </g>
    </g>
    <g id="PathCollection_19">
     <g>
      <use style="fill:#8b0aa5;stroke:#8b0aa5;" x="444.11975" xlink:href="#mc49a171fd6" y="79.885937"/>
     </g>
    </g>
    <g id="text_22">
     <!-- Mask C Theoretical -->
     <g transform="translate(462.11975 82.510937)scale(0.1 -0.1)">
      <defs>
       <path d="M 4122 4306 
L 4122 3641 
Q 3803 3938 3442 4084 
Q 3081 4231 2675 4231 
Q 1875 4231 1450 3742 
Q 1025 3253 1025 2328 
Q 1025 1406 1450 917 
Q 1875 428 2675 428 
Q 3081 428 3442 575 
Q 3803 722 4122 1019 
L 4122 359 
Q 3791 134 3420 21 
Q 3050 -91 2638 -91 
Q 1578 -91 968 557 
Q 359 1206 359 2328 
Q 359 3453 968 4101 
Q 1578 4750 2638 4750 
Q 3056 4750 3426 4639 
Q 3797 4528 4122 4306 
z
" id="DejaVuSans-43" transform="scale(0.015625)"/>
      </defs>
      <use xlink:href="#DejaVuSans-4d"/>
      <use x="86.279297" xlink:href="#DejaVuSans-61"/>
      <use x="147.558594" xlink:href="#DejaVuSans-73"/>
      <use x="199.658203" xlink:href="#DejaVuSans-6b"/>
      <use x="257.568359" xlink:href="#DejaVuSans-20"/>
      <use x="289.355469" xlink:href="#DejaVuSans-43"/>
      <use x="359.179688" xlink:href="#DejaVuSans-20"/>
      <use x="390.966797" xlink:href="#DejaVuSans-54"/>
      <use x="452.050781" xlink:href="#DejaVuSans-68"/>
      <use x="515.429688" xlink:href="#DejaVuSans-65"/>
      <use x="576.953125" xlink:href="#DejaVuSans-6f"/>
      <use x="638.134766" xlink:href="#DejaVuSans-72"/>
      <use x="676.998047" xlink:href="#DejaVuSans-65"/>
      <use x="738.521484" xlink:href="#DejaVuSans-74"/>
      <use x="777.730469" xlink:href="#DejaVuSans-69"/>
      <use x="805.513672" xlink:href="#DejaVuSans-63"/>
      <use x="860.494141" xlink:href="#DejaVuSans-61"/>
      <use x="921.773438" xlink:href="#DejaVuSans-6c"/>
     </g>
    </g>
    <g id="PathCollection_20">
     <path d="M 444.11975 97.564062 
C 444.915359 97.564062 445.67849 97.247964 446.24107 96.685383 
C 446.803651 96.122802 447.11975 95.359672 447.11975 94.564062 
C 447.11975 93.768453 446.803651 93.005323 446.24107 92.442742 
C 445.67849 91.880161 444.915359 91.564062 444.11975 91.564062 
C 443.324141 91.564062 442.56101 91.880161 441.99843 92.442742 
C 441.435849 93.005323 441.11975 93.768453 441.11975 94.564062 
C 441.11975 95.359672 441.435849 96.122802 441.99843 96.685383 
C 442.56101 97.247964 443.324141 97.564062 444.11975 97.564062 
z
" style="fill:none;stroke:#8b0aa5;"/>
    </g>
    <g id="text_23">
     <!-- Mask C Measured -->
     <g transform="translate(462.11975 97.189062)scale(0.1 -0.1)">
      <use xlink:href="#DejaVuSans-4d"/>
      <use x="86.279297" xlink:href="#DejaVuSans-61"/>
      <use x="147.558594" xlink:href="#DejaVuSans-73"/>
      <use x="199.658203" xlink:href="#DejaVuSans-6b"/>
      <use x="257.568359" xlink:href="#DejaVuSans-20"/>
      <use x="289.355469" xlink:href="#DejaVuSans-43"/>
      <use x="359.179688" xlink:href="#DejaVuSans-20"/>
      <use x="390.966797" xlink:href="#DejaVuSans-4d"/>
      <use x="477.246094" xlink:href="#DejaVuSans-65"/>
      <use x="538.769531" xlink:href="#DejaVuSans-61"/>
      <use x="600.048828" xlink:href="#DejaVuSans-73"/>
      <use x="652.148438" xlink:href="#DejaVuSans-75"/>
      <use x="715.527344" xlink:href="#DejaVuSans-72"/>
      <use x="754.390625" xlink:href="#DejaVuSans-65"/>
      <use x="815.914062" xlink:href="#DejaVuSans-64"/>
     </g>
    </g>
    <g id="PathCollection_21">
     <g>
      <use style="fill:#b83289;stroke:#b83289;" x="444.11975" xlink:href="#med18214d44" y="109.242188"/>
     </g>
    </g>
    <g id="text_24">
     <!-- Mask D Theoretical -->
     <g transform="translate(462.11975 111.867188)scale(0.1 -0.1)">
      <use xlink:href="#DejaVuSans-4d"/>
      <use x="86.279297" xlink:href="#DejaVuSans-61"/>
      <use x="147.558594" xlink:href="#DejaVuSans-73"/>
      <use x="199.658203" xlink:href="#DejaVuSans-6b"/>
      <use x="257.568359" xlink:href="#DejaVuSans-20"/>
      <use x="289.355469" xlink:href="#DejaVuSans-44"/>
      <use x="366.357422" xlink:href="#DejaVuSans-20"/>
      <use x="398.144531" xlink:href="#DejaVuSans-54"/>
      <use x="459.228516" xlink:href="#DejaVuSans-68"/>
      <use x="522.607422" xlink:href="#DejaVuSans-65"/>
      <use x="584.130859" xlink:href="#DejaVuSans-6f"/>
      <use x="645.3125" xlink:href="#DejaVuSans-72"/>
      <use x="684.175781" xlink:href="#DejaVuSans-65"/>
      <use x="745.699219" xlink:href="#DejaVuSans-74"/>
      <use x="784.908203" xlink:href="#DejaVuSans-69"/>
      <use x="812.691406" xlink:href="#DejaVuSans-63"/>
      <use x="867.671875" xlink:href="#DejaVuSans-61"/>
      <use x="928.951172" xlink:href="#DejaVuSans-6c"/>
     </g>
    </g>
    <g id="PathCollection_22">
     <path d="M 444.11975 126.920312 
C 444.915359 126.920312 445.67849 126.604214 446.24107 126.041633 
C 446.803651 125.479052 447.11975 124.715922 447.11975 123.920312 
C 447.11975 123.124703 446.803651 122.361573 446.24107 121.798992 
C 445.67849 121.236411 444.915359 120.920312 444.11975 120.920312 
C 443.324141 120.920312 442.56101 121.236411 441.99843 121.798992 
C 441.435849 122.361573 441.11975 123.124703 441.11975 123.920312 
C 441.11975 124.715922 441.435849 125.479052 441.99843 126.041633 
C 442.56101 126.604214 443.324141 126.920312 444.11975 126.920312 
z
" style="fill:none;stroke:#b83289;"/>
    </g>
    <g id="text_25">
     <!-- Mask D Measured -->
     <g transform="translate(462.11975 126.545312)scale(0.1 -0.1)">
      <use xlink:href="#DejaVuSans-4d"/>
      <use x="86.279297" xlink:href="#DejaVuSans-61"/>
      <use x="147.558594" xlink:href="#DejaVuSans-73"/>
      <use x="199.658203" xlink:href="#DejaVuSans-6b"/>
      <use x="257.568359" xlink:href="#DejaVuSans-20"/>
      <use x="289.355469" xlink:href="#DejaVuSans-44"/>
      <use x="366.357422" xlink:href="#DejaVuSans-20"/>
      <use x="398.144531" xlink:href="#DejaVuSans-4d"/>
      <use x="484.423828" xlink:href="#DejaVuSans-65"/>
      <use x="545.947266" xlink:href="#DejaVuSans-61"/>
      <use x="607.226562" xlink:href="#DejaVuSans-73"/>
      <use x="659.326172" xlink:href="#DejaVuSans-75"/>
      <use x="722.705078" xlink:href="#DejaVuSans-72"/>
      <use x="761.568359" xlink:href="#DejaVuSans-65"/>
      <use x="823.091797" xlink:href="#DejaVuSans-64"/>
     </g>
    </g>
    <g id="PathCollection_23">
     <g>
      <use style="fill:#db5c68;stroke:#db5c68;" x="444.11975" xlink:href="#m0a26dbd7ac" y="138.598437"/>
     </g>
    </g>
    <g id="text_26">
     <!-- Mask E Theoretical -->
     <g transform="translate(462.11975 141.223437)scale(0.1 -0.1)">
      <use xlink:href="#DejaVuSans-4d"/>
      <use x="86.279297" xlink:href="#DejaVuSans-61"/>
      <use x="147.558594" xlink:href="#DejaVuSans-73"/>
      <use x="199.658203" xlink:href="#DejaVuSans-6b"/>
      <use x="257.568359" xlink:href="#DejaVuSans-20"/>
      <use x="289.355469" xlink:href="#DejaVuSans-45"/>
      <use x="352.539062" xlink:href="#DejaVuSans-20"/>
      <use x="384.326172" xlink:href="#DejaVuSans-54"/>
      <use x="445.410156" xlink:href="#DejaVuSans-68"/>
      <use x="508.789062" xlink:href="#DejaVuSans-65"/>
      <use x="570.3125" xlink:href="#DejaVuSans-6f"/>
      <use x="631.494141" xlink:href="#DejaVuSans-72"/>
      <use x="670.357422" xlink:href="#DejaVuSans-65"/>
      <use x="731.880859" xlink:href="#DejaVuSans-74"/>
      <use x="771.089844" xlink:href="#DejaVuSans-69"/>
      <use x="798.873047" xlink:href="#DejaVuSans-63"/>
      <use x="853.853516" xlink:href="#DejaVuSans-61"/>
      <use x="915.132812" xlink:href="#DejaVuSans-6c"/>
     </g>
    </g>
    <g id="PathCollection_24">
     <path d="M 444.11975 156.276562 
C 444.915359 156.276562 445.67849 155.960464 446.24107 155.397883 
C 446.803651 154.835302 447.11975 154.072172 447.11975 153.276562 
C 447.11975 152.480953 446.803651 151.717823 446.24107 151.155242 
C 445.67849 150.592661 444.915359 150.276562 444.11975 150.276562 
C 443.324141 150.276562 442.56101 150.592661 441.99843 151.155242 
C 441.435849 151.717823 441.11975 152.480953 441.11975 153.276562 
C 441.11975 154.072172 441.435849 154.835302 441.99843 155.397883 
C 442.56101 155.960464 443.324141 156.276562 444.11975 156.276562 
z
" style="fill:none;stroke:#db5c68;"/>
    </g>
    <g id="text_27">
     <!-- Mask E Measured -->
     <g transform="translate(462.11975 155.901562)scale(0.1 -0.1)">
      <use xlink:href="#DejaVuSans-4d"/>
      <use x="86.279297" xlink:href="#DejaVuSans-61"/>
      <use x="147.558594" xlink:href="#DejaVuSans-73"/>
      <use x="199.658203" xlink:href="#DejaVuSans-6b"/>
      <use x="257.568359" xlink:href="#DejaVuSans-20"/>
      <use x="289.355469" xlink:href="#DejaVuSans-45"/>
      <use x="352.539062" xlink:href="#DejaVuSans-20"/>
      <use x="384.326172" xlink:href="#DejaVuSans-4d"/>
      <use x="470.605469" xlink:href="#DejaVuSans-65"/>
      <use x="532.128906" xlink:href="#DejaVuSans-61"/>
      <use x="593.408203" xlink:href="#DejaVuSans-73"/>
      <use x="645.507812" xlink:href="#DejaVuSans-75"/>
      <use x="708.886719" xlink:href="#DejaVuSans-72"/>
      <use x="747.75" xlink:href="#DejaVuSans-65"/>
      <use x="809.273438" xlink:href="#DejaVuSans-64"/>
     </g>
    </g>
    <g id="PathCollection_25">
     <g>
      <use style="fill:#f48849;stroke:#f48849;" x="444.11975" xlink:href="#m49d9c5e9dd" y="167.954687"/>
     </g>
    </g>
    <g id="text_28">
     <!-- Mask F Theoretical -->
     <g transform="translate(462.11975 170.579687)scale(0.1 -0.1)">
      <use xlink:href="#DejaVuSans-4d"/>
      <use x="86.279297" xlink:href="#DejaVuSans-61"/>
      <use x="147.558594" xlink:href="#DejaVuSans-73"/>
      <use x="199.658203" xlink:href="#DejaVuSans-6b"/>
      <use x="257.568359" xlink:href="#DejaVuSans-20"/>
      <use x="289.355469" xlink:href="#DejaVuSans-46"/>
      <use x="346.875" xlink:href="#DejaVuSans-20"/>
      <use x="378.662109" xlink:href="#DejaVuSans-54"/>
      <use x="439.746094" xlink:href="#DejaVuSans-68"/>
      <use x="503.125" xlink:href="#DejaVuSans-65"/>
      <use x="564.648438" xlink:href="#DejaVuSans-6f"/>
      <use x="625.830078" xlink:href="#DejaVuSans-72"/>
      <use x="664.693359" xlink:href="#DejaVuSans-65"/>
      <use x="726.216797" xlink:href="#DejaVuSans-74"/>
      <use x="765.425781" xlink:href="#DejaVuSans-69"/>
      <use x="793.208984" xlink:href="#DejaVuSans-63"/>
      <use x="848.189453" xlink:href="#DejaVuSans-61"/>
      <use x="909.46875" xlink:href="#DejaVuSans-6c"/>
     </g>
    </g>
    <g id="PathCollection_26">
     <path d="M 444.11975 185.632812 
C 444.915359 185.632812 445.67849 185.316714 446.24107 184.754133 
C 446.803651 184.191552 447.11975 183.428422 447.11975 182.632812 
C 447.11975 181.837203 446.803651 181.074073 446.24107 180.511492 
C 445.67849 179.948911 444.915359 179.632812 444.11975 179.632812 
C 443.324141 179.632812 442.56101 179.948911 441.99843 180.511492 
C 441.435849 181.074073 441.11975 181.837203 441.11975 182.632812 
C 441.11975 183.428422 441.435849 184.191552 441.99843 184.754133 
C 442.56101 185.316714 443.324141 185.632812 444.11975 185.632812 
z
" style="fill:none;stroke:#f48849;"/>
    </g>
    <g id="text_29">
     <!-- Mask F Measured -->
     <g transform="translate(462.11975 185.257812)scale(0.1 -0.1)">
      <use xlink:href="#DejaVuSans-4d"/>
      <use x="86.279297" xlink:href="#DejaVuSans-61"/>
      <use x="147.558594" xlink:href="#DejaVuSans-73"/>
      <use x="199.658203" xlink:href="#DejaVuSans-6b"/>
      <use x="257.568359" xlink:href="#DejaVuSans-20"/>
      <use x="289.355469" xlink:href="#DejaVuSans-46"/>
      <use x="346.875" xlink:href="#DejaVuSans-20"/>
      <use x="378.662109" xlink:href="#DejaVuSans-4d"/>
      <use x="464.941406" xlink:href="#DejaVuSans-65"/>
      <use x="526.464844" xlink:href="#DejaVuSans-61"/>
      <use x="587.744141" xlink:href="#DejaVuSans-73"/>
      <use x="639.84375" xlink:href="#DejaVuSans-75"/>
      <use x="703.222656" xlink:href="#DejaVuSans-72"/>
      <use x="742.085938" xlink:href="#DejaVuSans-65"/>
      <use x="803.609375" xlink:href="#DejaVuSans-64"/>
     </g>
    </g>
    <g id="PathCollection_27">
     <g>
      <use style="fill:#febd2a;stroke:#febd2a;" x="444.11975" xlink:href="#m7f779213f4" y="197.310937"/>
     </g>
    </g>
    <g id="text_30">
     <!-- Mask G Theoretical -->
     <g transform="translate(462.11975 199.935937)scale(0.1 -0.1)">
      <defs>
       <path d="M 3809 666 
L 3809 1919 
L 2778 1919 
L 2778 2438 
L 4434 2438 
L 4434 434 
Q 4069 175 3628 42 
Q 3188 -91 2688 -91 
Q 1594 -91 976 548 
Q 359 1188 359 2328 
Q 359 3472 976 4111 
Q 1594 4750 2688 4750 
Q 3144 4750 3555 4637 
Q 3966 4525 4313 4306 
L 4313 3634 
Q 3963 3931 3569 4081 
Q 3175 4231 2741 4231 
Q 1884 4231 1454 3753 
Q 1025 3275 1025 2328 
Q 1025 1384 1454 906 
Q 1884 428 2741 428 
Q 3075 428 3337 486 
Q 3600 544 3809 666 
z
" id="DejaVuSans-47" transform="scale(0.015625)"/>
      </defs>
      <use xlink:href="#DejaVuSans-4d"/>
      <use x="86.279297" xlink:href="#DejaVuSans-61"/>
      <use x="147.558594" xlink:href="#DejaVuSans-73"/>
      <use x="199.658203" xlink:href="#DejaVuSans-6b"/>
      <use x="257.568359" xlink:href="#DejaVuSans-20"/>
      <use x="289.355469" xlink:href="#DejaVuSans-47"/>
      <use x="366.845703" xlink:href="#DejaVuSans-20"/>
      <use x="398.632812" xlink:href="#DejaVuSans-54"/>
      <use x="459.716797" xlink:href="#DejaVuSans-68"/>
      <use x="523.095703" xlink:href="#DejaVuSans-65"/>
      <use x="584.619141" xlink:href="#DejaVuSans-6f"/>
      <use x="645.800781" xlink:href="#DejaVuSans-72"/>
      <use x="684.664062" xlink:href="#DejaVuSans-65"/>
      <use x="746.1875" xlink:href="#DejaVuSans-74"/>
      <use x="785.396484" xlink:href="#DejaVuSans-69"/>
      <use x="813.179688" xlink:href="#DejaVuSans-63"/>
      <use x="868.160156" xlink:href="#DejaVuSans-61"/>
      <use x="929.439453" xlink:href="#DejaVuSans-6c"/>
     </g>
    </g>
    <g id="PathCollection_28">
     <path d="M 444.11975 214.989062 
C 444.915359 214.989062 445.67849 214.672964 446.24107 214.110383 
C 446.803651 213.547802 447.11975 212.784672 447.11975 211.989062 
C 447.11975 211.193453 446.803651 210.430323 446.24107 209.867742 
C 445.67849 209.305161 444.915359 208.989062 444.11975 208.989062 
C 443.324141 208.989062 442.56101 209.305161 441.99843 209.867742 
C 441.435849 210.430323 441.11975 211.193453 441.11975 211.989062 
C 441.11975 212.784672 441.435849 213.547802 441.99843 214.110383 
C 442.56101 214.672964 443.324141 214.989062 444.11975 214.989062 
z
" style="fill:none;stroke:#febd2a;"/>
    </g>
    <g id="text_31">
     <!-- Mask G Measured -->
     <g transform="translate(462.11975 214.614062)scale(0.1 -0.1)">
      <use xlink:href="#DejaVuSans-4d"/>
      <use x="86.279297" xlink:href="#DejaVuSans-61"/>
      <use x="147.558594" xlink:href="#DejaVuSans-73"/>
      <use x="199.658203" xlink:href="#DejaVuSans-6b"/>
      <use x="257.568359" xlink:href="#DejaVuSans-20"/>
      <use x="289.355469" xlink:href="#DejaVuSans-47"/>
      <use x="366.845703" xlink:href="#DejaVuSans-20"/>
      <use x="398.632812" xlink:href="#DejaVuSans-4d"/>
      <use x="484.912109" xlink:href="#DejaVuSans-65"/>
      <use x="546.435547" xlink:href="#DejaVuSans-61"/>
      <use x="607.714844" xlink:href="#DejaVuSans-73"/>
      <use x="659.814453" xlink:href="#DejaVuSans-75"/>
      <use x="723.193359" xlink:href="#DejaVuSans-72"/>
      <use x="762.056641" xlink:href="#DejaVuSans-65"/>
      <use x="823.580078" xlink:href="#DejaVuSans-64"/>
     </g>
    </g>
   </g>
  </g>
 </g>
 <defs>
  <clipPath id="p60da04de50">
   <rect height="266.112" width="357.12" x="50.14375" y="7.2"/>
  </clipPath>
 </defs>
</svg>
