<?xml version="1.0" encoding="utf-8" standalone="no"?>
<!DOCTYPE svg PUBLIC "-//W3C//DTD SVG 1.1//EN"
  "http://www.w3.org/Graphics/SVG/1.1/DTD/svg11.dtd">
<svg height="312.032696pt" version="1.1" viewBox="0 0 488.28225 312.032696" width="488.28225pt" xmlns="http://www.w3.org/2000/svg" xmlns:xlink="http://www.w3.org/1999/xlink">
 <metadata>
  <rdf:RDF xmlns:cc="http://creativecommons.org/ns#" xmlns:dc="http://purl.org/dc/elements/1.1/" xmlns:rdf="http://www.w3.org/1999/02/22-rdf-syntax-ns#">
   <cc:Work>
    <dc:type rdf:resource="http://purl.org/dc/dcmitype/StillImage"/>
    <dc:date>2021-11-30T09:33:55.156822</dc:date>
    <dc:format>image/svg+xml</dc:format>
    <dc:creator>
     <cc:Agent>
      <dc:title>Matplotlib v3.4.2, https://matplotlib.org/</dc:title>
     </cc:Agent>
    </dc:creator>
   </cc:Work>
  </rdf:RDF>
 </metadata>
 <defs>
  <style type="text/css">*{stroke-linecap:butt;stroke-linejoin:round;}</style>
 </defs>
 <g id="figure_1">
  <g id="patch_1">
   <path d="M 0 312.032696 
L 488.28225 312.032696 
L 488.28225 0 
L 0 0 
z
" style="fill:#ffffff;"/>
  </g>
  <g id="axes_1">
   <g id="patch_2">
    <path d="M 43.78125 274.476446 
L 400.90125 274.476446 
L 400.90125 8.364446 
L 43.78125 8.364446 
z
" style="fill:#ffffff;"/>
   </g>
   <g id="PathCollection_1">
    <defs>
     <path d="M 0 2.738613 
C 0.726289 2.738613 1.422928 2.450055 1.936492 1.936492 
C 2.450055 1.422928 2.738613 0.726289 2.738613 0 
C 2.738613 -0.726289 2.450055 -1.422928 1.936492 -1.936492 
C 1.422928 -2.450055 0.726289 -2.738613 0 -2.738613 
C -0.726289 -2.738613 -1.422928 -2.450055 -1.936492 -1.936492 
C -2.450055 -1.422928 -2.738613 -0.726289 -2.738613 0 
C -2.738613 0.726289 -2.450055 1.422928 -1.936492 1.936492 
C -1.422928 2.450055 -0.726289 2.738613 0 2.738613 
z
" id="mf92b4ceaaf" style="stroke:#0d0887;"/>
    </defs>
    <g clip-path="url(#pf9b4e70080)"/>
   </g>
   <g id="PathCollection_2">
    <defs>
     <path d="M 0 -2.738613 
L -2.738613 2.738613 
L 2.738613 2.738613 
z
" id="m3330c6cbf3" style="stroke:#7e03a8;"/>
    </defs>
    <g clip-path="url(#pf9b4e70080)"/>
   </g>
   <g id="PathCollection_3">
    <defs>
     <path d="M 0 3.872983 
L 3.872983 0 
L 0 -3.872983 
L -3.872983 0 
z
" id="m917a02b767" style="stroke:#cc4778;"/>
    </defs>
    <g clip-path="url(#pf9b4e70080)"/>
   </g>
   <g id="PathCollection_4">
    <defs>
     <path d="M -2.738613 2.738613 
L 2.738613 2.738613 
L 2.738613 -2.738613 
L -2.738613 -2.738613 
z
" id="ma9af3d0ed1" style="stroke:#f89540;"/>
    </defs>
    <g clip-path="url(#pf9b4e70080)"/>
   </g>
   <g id="matplotlib.axis_1">
    <g id="xtick_1">
     <g id="line2d_1">
      <defs>
       <path d="M 0 0 
L 0 3.5 
" id="m07e6f4da33" style="stroke:#000000;stroke-width:0.8;"/>
      </defs>
      <g>
       <use style="stroke:#000000;stroke-width:0.8;" x="43.78125" xlink:href="#m07e6f4da33" y="274.476446"/>
      </g>
     </g>
     <g id="text_1">
      <!-- 0 -->
      <g transform="translate(40.6 289.074884)scale(0.1 -0.1)">
       <defs>
        <path d="M 2034 4250 
Q 1547 4250 1301 3770 
Q 1056 3291 1056 2328 
Q 1056 1369 1301 889 
Q 1547 409 2034 409 
Q 2525 409 2770 889 
Q 3016 1369 3016 2328 
Q 3016 3291 2770 3770 
Q 2525 4250 2034 4250 
z
M 2034 4750 
Q 2819 4750 3233 4129 
Q 3647 3509 3647 2328 
Q 3647 1150 3233 529 
Q 2819 -91 2034 -91 
Q 1250 -91 836 529 
Q 422 1150 422 2328 
Q 422 3509 836 4129 
Q 1250 4750 2034 4750 
z
" id="DejaVuSans-30" transform="scale(0.015625)"/>
       </defs>
       <use xlink:href="#DejaVuSans-30"/>
      </g>
     </g>
    </g>
    <g id="xtick_2">
     <g id="line2d_2">
      <g>
       <use style="stroke:#000000;stroke-width:0.8;" x="108.712159" xlink:href="#m07e6f4da33" y="274.476446"/>
      </g>
     </g>
     <g id="text_2">
      <!-- 20 -->
      <g transform="translate(102.349659 289.074884)scale(0.1 -0.1)">
       <defs>
        <path d="M 1228 531 
L 3431 531 
L 3431 0 
L 469 0 
L 469 531 
Q 828 903 1448 1529 
Q 2069 2156 2228 2338 
Q 2531 2678 2651 2914 
Q 2772 3150 2772 3378 
Q 2772 3750 2511 3984 
Q 2250 4219 1831 4219 
Q 1534 4219 1204 4116 
Q 875 4013 500 3803 
L 500 4441 
Q 881 4594 1212 4672 
Q 1544 4750 1819 4750 
Q 2544 4750 2975 4387 
Q 3406 4025 3406 3419 
Q 3406 3131 3298 2873 
Q 3191 2616 2906 2266 
Q 2828 2175 2409 1742 
Q 1991 1309 1228 531 
z
" id="DejaVuSans-32" transform="scale(0.015625)"/>
       </defs>
       <use xlink:href="#DejaVuSans-32"/>
       <use x="63.623047" xlink:href="#DejaVuSans-30"/>
      </g>
     </g>
    </g>
    <g id="xtick_3">
     <g id="line2d_3">
      <g>
       <use style="stroke:#000000;stroke-width:0.8;" x="173.643068" xlink:href="#m07e6f4da33" y="274.476446"/>
      </g>
     </g>
     <g id="text_3">
      <!-- 40 -->
      <g transform="translate(167.280568 289.074884)scale(0.1 -0.1)">
       <defs>
        <path d="M 2419 4116 
L 825 1625 
L 2419 1625 
L 2419 4116 
z
M 2253 4666 
L 3047 4666 
L 3047 1625 
L 3713 1625 
L 3713 1100 
L 3047 1100 
L 3047 0 
L 2419 0 
L 2419 1100 
L 313 1100 
L 313 1709 
L 2253 4666 
z
" id="DejaVuSans-34" transform="scale(0.015625)"/>
       </defs>
       <use xlink:href="#DejaVuSans-34"/>
       <use x="63.623047" xlink:href="#DejaVuSans-30"/>
      </g>
     </g>
    </g>
    <g id="xtick_4">
     <g id="line2d_4">
      <g>
       <use style="stroke:#000000;stroke-width:0.8;" x="238.573977" xlink:href="#m07e6f4da33" y="274.476446"/>
      </g>
     </g>
     <g id="text_4">
      <!-- 60 -->
      <g transform="translate(232.211477 289.074884)scale(0.1 -0.1)">
       <defs>
        <path d="M 2113 2584 
Q 1688 2584 1439 2293 
Q 1191 2003 1191 1497 
Q 1191 994 1439 701 
Q 1688 409 2113 409 
Q 2538 409 2786 701 
Q 3034 994 3034 1497 
Q 3034 2003 2786 2293 
Q 2538 2584 2113 2584 
z
M 3366 4563 
L 3366 3988 
Q 3128 4100 2886 4159 
Q 2644 4219 2406 4219 
Q 1781 4219 1451 3797 
Q 1122 3375 1075 2522 
Q 1259 2794 1537 2939 
Q 1816 3084 2150 3084 
Q 2853 3084 3261 2657 
Q 3669 2231 3669 1497 
Q 3669 778 3244 343 
Q 2819 -91 2113 -91 
Q 1303 -91 875 529 
Q 447 1150 447 2328 
Q 447 3434 972 4092 
Q 1497 4750 2381 4750 
Q 2619 4750 2861 4703 
Q 3103 4656 3366 4563 
z
" id="DejaVuSans-36" transform="scale(0.015625)"/>
       </defs>
       <use xlink:href="#DejaVuSans-36"/>
       <use x="63.623047" xlink:href="#DejaVuSans-30"/>
      </g>
     </g>
    </g>
    <g id="xtick_5">
     <g id="line2d_5">
      <g>
       <use style="stroke:#000000;stroke-width:0.8;" x="303.504886" xlink:href="#m07e6f4da33" y="274.476446"/>
      </g>
     </g>
     <g id="text_5">
      <!-- 80 -->
      <g transform="translate(297.142386 289.074884)scale(0.1 -0.1)">
       <defs>
        <path d="M 2034 2216 
Q 1584 2216 1326 1975 
Q 1069 1734 1069 1313 
Q 1069 891 1326 650 
Q 1584 409 2034 409 
Q 2484 409 2743 651 
Q 3003 894 3003 1313 
Q 3003 1734 2745 1975 
Q 2488 2216 2034 2216 
z
M 1403 2484 
Q 997 2584 770 2862 
Q 544 3141 544 3541 
Q 544 4100 942 4425 
Q 1341 4750 2034 4750 
Q 2731 4750 3128 4425 
Q 3525 4100 3525 3541 
Q 3525 3141 3298 2862 
Q 3072 2584 2669 2484 
Q 3125 2378 3379 2068 
Q 3634 1759 3634 1313 
Q 3634 634 3220 271 
Q 2806 -91 2034 -91 
Q 1263 -91 848 271 
Q 434 634 434 1313 
Q 434 1759 690 2068 
Q 947 2378 1403 2484 
z
M 1172 3481 
Q 1172 3119 1398 2916 
Q 1625 2713 2034 2713 
Q 2441 2713 2670 2916 
Q 2900 3119 2900 3481 
Q 2900 3844 2670 4047 
Q 2441 4250 2034 4250 
Q 1625 4250 1398 4047 
Q 1172 3844 1172 3481 
z
" id="DejaVuSans-38" transform="scale(0.015625)"/>
       </defs>
       <use xlink:href="#DejaVuSans-38"/>
       <use x="63.623047" xlink:href="#DejaVuSans-30"/>
      </g>
     </g>
    </g>
    <g id="xtick_6">
     <g id="line2d_6">
      <g>
       <use style="stroke:#000000;stroke-width:0.8;" x="368.435795" xlink:href="#m07e6f4da33" y="274.476446"/>
      </g>
     </g>
     <g id="text_6">
      <!-- 100 -->
      <g transform="translate(358.892045 289.074884)scale(0.1 -0.1)">
       <defs>
        <path d="M 794 531 
L 1825 531 
L 1825 4091 
L 703 3866 
L 703 4441 
L 1819 4666 
L 2450 4666 
L 2450 531 
L 3481 531 
L 3481 0 
L 794 0 
L 794 531 
z
" id="DejaVuSans-31" transform="scale(0.015625)"/>
       </defs>
       <use xlink:href="#DejaVuSans-31"/>
       <use x="63.623047" xlink:href="#DejaVuSans-30"/>
       <use x="127.246094" xlink:href="#DejaVuSans-30"/>
      </g>
     </g>
    </g>
    <g id="text_7">
     <!-- Pressure Drop [Pa] -->
     <g transform="translate(176.036563 302.753009)scale(0.1 -0.1)">
      <defs>
       <path d="M 1259 4147 
L 1259 2394 
L 2053 2394 
Q 2494 2394 2734 2622 
Q 2975 2850 2975 3272 
Q 2975 3691 2734 3919 
Q 2494 4147 2053 4147 
L 1259 4147 
z
M 628 4666 
L 2053 4666 
Q 2838 4666 3239 4311 
Q 3641 3956 3641 3272 
Q 3641 2581 3239 2228 
Q 2838 1875 2053 1875 
L 1259 1875 
L 1259 0 
L 628 0 
L 628 4666 
z
" id="DejaVuSans-50" transform="scale(0.015625)"/>
       <path d="M 2631 2963 
Q 2534 3019 2420 3045 
Q 2306 3072 2169 3072 
Q 1681 3072 1420 2755 
Q 1159 2438 1159 1844 
L 1159 0 
L 581 0 
L 581 3500 
L 1159 3500 
L 1159 2956 
Q 1341 3275 1631 3429 
Q 1922 3584 2338 3584 
Q 2397 3584 2469 3576 
Q 2541 3569 2628 3553 
L 2631 2963 
z
" id="DejaVuSans-72" transform="scale(0.015625)"/>
       <path d="M 3597 1894 
L 3597 1613 
L 953 1613 
Q 991 1019 1311 708 
Q 1631 397 2203 397 
Q 2534 397 2845 478 
Q 3156 559 3463 722 
L 3463 178 
Q 3153 47 2828 -22 
Q 2503 -91 2169 -91 
Q 1331 -91 842 396 
Q 353 884 353 1716 
Q 353 2575 817 3079 
Q 1281 3584 2069 3584 
Q 2775 3584 3186 3129 
Q 3597 2675 3597 1894 
z
M 3022 2063 
Q 3016 2534 2758 2815 
Q 2500 3097 2075 3097 
Q 1594 3097 1305 2825 
Q 1016 2553 972 2059 
L 3022 2063 
z
" id="DejaVuSans-65" transform="scale(0.015625)"/>
       <path d="M 2834 3397 
L 2834 2853 
Q 2591 2978 2328 3040 
Q 2066 3103 1784 3103 
Q 1356 3103 1142 2972 
Q 928 2841 928 2578 
Q 928 2378 1081 2264 
Q 1234 2150 1697 2047 
L 1894 2003 
Q 2506 1872 2764 1633 
Q 3022 1394 3022 966 
Q 3022 478 2636 193 
Q 2250 -91 1575 -91 
Q 1294 -91 989 -36 
Q 684 19 347 128 
L 347 722 
Q 666 556 975 473 
Q 1284 391 1588 391 
Q 1994 391 2212 530 
Q 2431 669 2431 922 
Q 2431 1156 2273 1281 
Q 2116 1406 1581 1522 
L 1381 1569 
Q 847 1681 609 1914 
Q 372 2147 372 2553 
Q 372 3047 722 3315 
Q 1072 3584 1716 3584 
Q 2034 3584 2315 3537 
Q 2597 3491 2834 3397 
z
" id="DejaVuSans-73" transform="scale(0.015625)"/>
       <path d="M 544 1381 
L 544 3500 
L 1119 3500 
L 1119 1403 
Q 1119 906 1312 657 
Q 1506 409 1894 409 
Q 2359 409 2629 706 
Q 2900 1003 2900 1516 
L 2900 3500 
L 3475 3500 
L 3475 0 
L 2900 0 
L 2900 538 
Q 2691 219 2414 64 
Q 2138 -91 1772 -91 
Q 1169 -91 856 284 
Q 544 659 544 1381 
z
M 1991 3584 
L 1991 3584 
z
" id="DejaVuSans-75" transform="scale(0.015625)"/>
       <path id="DejaVuSans-20" transform="scale(0.015625)"/>
       <path d="M 1259 4147 
L 1259 519 
L 2022 519 
Q 2988 519 3436 956 
Q 3884 1394 3884 2338 
Q 3884 3275 3436 3711 
Q 2988 4147 2022 4147 
L 1259 4147 
z
M 628 4666 
L 1925 4666 
Q 3281 4666 3915 4102 
Q 4550 3538 4550 2338 
Q 4550 1131 3912 565 
Q 3275 0 1925 0 
L 628 0 
L 628 4666 
z
" id="DejaVuSans-44" transform="scale(0.015625)"/>
       <path d="M 1959 3097 
Q 1497 3097 1228 2736 
Q 959 2375 959 1747 
Q 959 1119 1226 758 
Q 1494 397 1959 397 
Q 2419 397 2687 759 
Q 2956 1122 2956 1747 
Q 2956 2369 2687 2733 
Q 2419 3097 1959 3097 
z
M 1959 3584 
Q 2709 3584 3137 3096 
Q 3566 2609 3566 1747 
Q 3566 888 3137 398 
Q 2709 -91 1959 -91 
Q 1206 -91 779 398 
Q 353 888 353 1747 
Q 353 2609 779 3096 
Q 1206 3584 1959 3584 
z
" id="DejaVuSans-6f" transform="scale(0.015625)"/>
       <path d="M 1159 525 
L 1159 -1331 
L 581 -1331 
L 581 3500 
L 1159 3500 
L 1159 2969 
Q 1341 3281 1617 3432 
Q 1894 3584 2278 3584 
Q 2916 3584 3314 3078 
Q 3713 2572 3713 1747 
Q 3713 922 3314 415 
Q 2916 -91 2278 -91 
Q 1894 -91 1617 61 
Q 1341 213 1159 525 
z
M 3116 1747 
Q 3116 2381 2855 2742 
Q 2594 3103 2138 3103 
Q 1681 3103 1420 2742 
Q 1159 2381 1159 1747 
Q 1159 1113 1420 752 
Q 1681 391 2138 391 
Q 2594 391 2855 752 
Q 3116 1113 3116 1747 
z
" id="DejaVuSans-70" transform="scale(0.015625)"/>
       <path d="M 550 4863 
L 1875 4863 
L 1875 4416 
L 1125 4416 
L 1125 -397 
L 1875 -397 
L 1875 -844 
L 550 -844 
L 550 4863 
z
" id="DejaVuSans-5b" transform="scale(0.015625)"/>
       <path d="M 2194 1759 
Q 1497 1759 1228 1600 
Q 959 1441 959 1056 
Q 959 750 1161 570 
Q 1363 391 1709 391 
Q 2188 391 2477 730 
Q 2766 1069 2766 1631 
L 2766 1759 
L 2194 1759 
z
M 3341 1997 
L 3341 0 
L 2766 0 
L 2766 531 
Q 2569 213 2275 61 
Q 1981 -91 1556 -91 
Q 1019 -91 701 211 
Q 384 513 384 1019 
Q 384 1609 779 1909 
Q 1175 2209 1959 2209 
L 2766 2209 
L 2766 2266 
Q 2766 2663 2505 2880 
Q 2244 3097 1772 3097 
Q 1472 3097 1187 3025 
Q 903 2953 641 2809 
L 641 3341 
Q 956 3463 1253 3523 
Q 1550 3584 1831 3584 
Q 2591 3584 2966 3190 
Q 3341 2797 3341 1997 
z
" id="DejaVuSans-61" transform="scale(0.015625)"/>
       <path d="M 1947 4863 
L 1947 -844 
L 622 -844 
L 622 -397 
L 1369 -397 
L 1369 4416 
L 622 4416 
L 622 4863 
L 1947 4863 
z
" id="DejaVuSans-5d" transform="scale(0.015625)"/>
      </defs>
      <use xlink:href="#DejaVuSans-50"/>
      <use x="58.552734" xlink:href="#DejaVuSans-72"/>
      <use x="97.416016" xlink:href="#DejaVuSans-65"/>
      <use x="158.939453" xlink:href="#DejaVuSans-73"/>
      <use x="211.039062" xlink:href="#DejaVuSans-73"/>
      <use x="263.138672" xlink:href="#DejaVuSans-75"/>
      <use x="326.517578" xlink:href="#DejaVuSans-72"/>
      <use x="365.380859" xlink:href="#DejaVuSans-65"/>
      <use x="426.904297" xlink:href="#DejaVuSans-20"/>
      <use x="458.691406" xlink:href="#DejaVuSans-44"/>
      <use x="535.693359" xlink:href="#DejaVuSans-72"/>
      <use x="574.556641" xlink:href="#DejaVuSans-6f"/>
      <use x="635.738281" xlink:href="#DejaVuSans-70"/>
      <use x="699.214844" xlink:href="#DejaVuSans-20"/>
      <use x="731.001953" xlink:href="#DejaVuSans-5b"/>
      <use x="770.015625" xlink:href="#DejaVuSans-50"/>
      <use x="825.818359" xlink:href="#DejaVuSans-61"/>
      <use x="887.097656" xlink:href="#DejaVuSans-5d"/>
     </g>
    </g>
   </g>
   <g id="matplotlib.axis_2">
    <g id="ytick_1">
     <g id="line2d_7">
      <defs>
       <path d="M 0 0 
L -3.5 0 
" id="m2a68b35dff" style="stroke:#000000;stroke-width:0.8;"/>
      </defs>
      <g>
       <use style="stroke:#000000;stroke-width:0.8;" x="43.78125" xlink:href="#m2a68b35dff" y="274.476446"/>
      </g>
     </g>
     <g id="text_8">
      <!-- 0.0 -->
      <g transform="translate(20.878125 278.275665)scale(0.1 -0.1)">
       <defs>
        <path d="M 684 794 
L 1344 794 
L 1344 0 
L 684 0 
L 684 794 
z
" id="DejaVuSans-2e" transform="scale(0.015625)"/>
       </defs>
       <use xlink:href="#DejaVuSans-30"/>
       <use x="63.623047" xlink:href="#DejaVuSans-2e"/>
       <use x="95.410156" xlink:href="#DejaVuSans-30"/>
      </g>
     </g>
    </g>
    <g id="ytick_2">
     <g id="line2d_8">
      <g>
       <use style="stroke:#000000;stroke-width:0.8;" x="43.78125" xlink:href="#m2a68b35dff" y="221.781001"/>
      </g>
     </g>
     <g id="text_9">
      <!-- 0.2 -->
      <g transform="translate(20.878125 225.58022)scale(0.1 -0.1)">
       <use xlink:href="#DejaVuSans-30"/>
       <use x="63.623047" xlink:href="#DejaVuSans-2e"/>
       <use x="95.410156" xlink:href="#DejaVuSans-32"/>
      </g>
     </g>
    </g>
    <g id="ytick_3">
     <g id="line2d_9">
      <g>
       <use style="stroke:#000000;stroke-width:0.8;" x="43.78125" xlink:href="#m2a68b35dff" y="169.085555"/>
      </g>
     </g>
     <g id="text_10">
      <!-- 0.4 -->
      <g transform="translate(20.878125 172.884774)scale(0.1 -0.1)">
       <use xlink:href="#DejaVuSans-30"/>
       <use x="63.623047" xlink:href="#DejaVuSans-2e"/>
       <use x="95.410156" xlink:href="#DejaVuSans-34"/>
      </g>
     </g>
    </g>
    <g id="ytick_4">
     <g id="line2d_10">
      <g>
       <use style="stroke:#000000;stroke-width:0.8;" x="43.78125" xlink:href="#m2a68b35dff" y="116.39011"/>
      </g>
     </g>
     <g id="text_11">
      <!-- 0.6 -->
      <g transform="translate(20.878125 120.189329)scale(0.1 -0.1)">
       <use xlink:href="#DejaVuSans-30"/>
       <use x="63.623047" xlink:href="#DejaVuSans-2e"/>
       <use x="95.410156" xlink:href="#DejaVuSans-36"/>
      </g>
     </g>
    </g>
    <g id="ytick_5">
     <g id="line2d_11">
      <g>
       <use style="stroke:#000000;stroke-width:0.8;" x="43.78125" xlink:href="#m2a68b35dff" y="63.694664"/>
      </g>
     </g>
     <g id="text_12">
      <!-- 0.8 -->
      <g transform="translate(20.878125 67.493883)scale(0.1 -0.1)">
       <use xlink:href="#DejaVuSans-30"/>
       <use x="63.623047" xlink:href="#DejaVuSans-2e"/>
       <use x="95.410156" xlink:href="#DejaVuSans-38"/>
      </g>
     </g>
    </g>
    <g id="ytick_6">
     <g id="line2d_12">
      <g>
       <use style="stroke:#000000;stroke-width:0.8;" x="43.78125" xlink:href="#m2a68b35dff" y="10.999219"/>
      </g>
     </g>
     <g id="text_13">
      <!-- 1.0 -->
      <g transform="translate(20.878125 14.798437)scale(0.1 -0.1)">
       <use xlink:href="#DejaVuSans-31"/>
       <use x="63.623047" xlink:href="#DejaVuSans-2e"/>
       <use x="95.410156" xlink:href="#DejaVuSans-30"/>
      </g>
     </g>
    </g>
    <g id="text_14">
     <!-- Filtration Efficency -->
     <g transform="translate(14.798438 187.729821)rotate(-90)scale(0.1 -0.1)">
      <defs>
       <path d="M 628 4666 
L 3309 4666 
L 3309 4134 
L 1259 4134 
L 1259 2759 
L 3109 2759 
L 3109 2228 
L 1259 2228 
L 1259 0 
L 628 0 
L 628 4666 
z
" id="DejaVuSans-46" transform="scale(0.015625)"/>
       <path d="M 603 3500 
L 1178 3500 
L 1178 0 
L 603 0 
L 603 3500 
z
M 603 4863 
L 1178 4863 
L 1178 4134 
L 603 4134 
L 603 4863 
z
" id="DejaVuSans-69" transform="scale(0.015625)"/>
       <path d="M 603 4863 
L 1178 4863 
L 1178 0 
L 603 0 
L 603 4863 
z
" id="DejaVuSans-6c" transform="scale(0.015625)"/>
       <path d="M 1172 4494 
L 1172 3500 
L 2356 3500 
L 2356 3053 
L 1172 3053 
L 1172 1153 
Q 1172 725 1289 603 
Q 1406 481 1766 481 
L 2356 481 
L 2356 0 
L 1766 0 
Q 1100 0 847 248 
Q 594 497 594 1153 
L 594 3053 
L 172 3053 
L 172 3500 
L 594 3500 
L 594 4494 
L 1172 4494 
z
" id="DejaVuSans-74" transform="scale(0.015625)"/>
       <path d="M 3513 2113 
L 3513 0 
L 2938 0 
L 2938 2094 
Q 2938 2591 2744 2837 
Q 2550 3084 2163 3084 
Q 1697 3084 1428 2787 
Q 1159 2491 1159 1978 
L 1159 0 
L 581 0 
L 581 3500 
L 1159 3500 
L 1159 2956 
Q 1366 3272 1645 3428 
Q 1925 3584 2291 3584 
Q 2894 3584 3203 3211 
Q 3513 2838 3513 2113 
z
" id="DejaVuSans-6e" transform="scale(0.015625)"/>
       <path d="M 628 4666 
L 3578 4666 
L 3578 4134 
L 1259 4134 
L 1259 2753 
L 3481 2753 
L 3481 2222 
L 1259 2222 
L 1259 531 
L 3634 531 
L 3634 0 
L 628 0 
L 628 4666 
z
" id="DejaVuSans-45" transform="scale(0.015625)"/>
       <path d="M 2375 4863 
L 2375 4384 
L 1825 4384 
Q 1516 4384 1395 4259 
Q 1275 4134 1275 3809 
L 1275 3500 
L 2222 3500 
L 2222 3053 
L 1275 3053 
L 1275 0 
L 697 0 
L 697 3053 
L 147 3053 
L 147 3500 
L 697 3500 
L 697 3744 
Q 697 4328 969 4595 
Q 1241 4863 1831 4863 
L 2375 4863 
z
" id="DejaVuSans-66" transform="scale(0.015625)"/>
       <path d="M 3122 3366 
L 3122 2828 
Q 2878 2963 2633 3030 
Q 2388 3097 2138 3097 
Q 1578 3097 1268 2742 
Q 959 2388 959 1747 
Q 959 1106 1268 751 
Q 1578 397 2138 397 
Q 2388 397 2633 464 
Q 2878 531 3122 666 
L 3122 134 
Q 2881 22 2623 -34 
Q 2366 -91 2075 -91 
Q 1284 -91 818 406 
Q 353 903 353 1747 
Q 353 2603 823 3093 
Q 1294 3584 2113 3584 
Q 2378 3584 2631 3529 
Q 2884 3475 3122 3366 
z
" id="DejaVuSans-63" transform="scale(0.015625)"/>
       <path d="M 2059 -325 
Q 1816 -950 1584 -1140 
Q 1353 -1331 966 -1331 
L 506 -1331 
L 506 -850 
L 844 -850 
Q 1081 -850 1212 -737 
Q 1344 -625 1503 -206 
L 1606 56 
L 191 3500 
L 800 3500 
L 1894 763 
L 2988 3500 
L 3597 3500 
L 2059 -325 
z
" id="DejaVuSans-79" transform="scale(0.015625)"/>
      </defs>
      <use xlink:href="#DejaVuSans-46"/>
      <use x="50.269531" xlink:href="#DejaVuSans-69"/>
      <use x="78.052734" xlink:href="#DejaVuSans-6c"/>
      <use x="105.835938" xlink:href="#DejaVuSans-74"/>
      <use x="145.044922" xlink:href="#DejaVuSans-72"/>
      <use x="186.158203" xlink:href="#DejaVuSans-61"/>
      <use x="247.4375" xlink:href="#DejaVuSans-74"/>
      <use x="286.646484" xlink:href="#DejaVuSans-69"/>
      <use x="314.429688" xlink:href="#DejaVuSans-6f"/>
      <use x="375.611328" xlink:href="#DejaVuSans-6e"/>
      <use x="438.990234" xlink:href="#DejaVuSans-20"/>
      <use x="470.777344" xlink:href="#DejaVuSans-45"/>
      <use x="533.960938" xlink:href="#DejaVuSans-66"/>
      <use x="569.166016" xlink:href="#DejaVuSans-66"/>
      <use x="604.371094" xlink:href="#DejaVuSans-69"/>
      <use x="632.154297" xlink:href="#DejaVuSans-63"/>
      <use x="687.134766" xlink:href="#DejaVuSans-65"/>
      <use x="748.658203" xlink:href="#DejaVuSans-6e"/>
      <use x="812.037109" xlink:href="#DejaVuSans-63"/>
      <use x="867.017578" xlink:href="#DejaVuSans-79"/>
     </g>
    </g>
   </g>
   <g id="line2d_13">
    <path clip-path="url(#pf9b4e70080)" d="M 43.78125 274.476446 
L 232.844779 266.915226 
L 400.90125 260.376502 
L 400.90125 260.376502 
" style="fill:none;stroke:#858585;stroke-dasharray:1.5,2.475;stroke-dashoffset:0;stroke-opacity:0.5;stroke-width:1.5;"/>
   </g>
   <g id="line2d_14">
    <path clip-path="url(#pf9b4e70080)" d="M 43.78125 274.476446 
L 91.39725 266.860035 
L 140.413721 259.249523 
L 189.430191 251.865385 
L 239.847132 244.499347 
L 290.264074 237.358574 
L 342.081485 230.24694 
L 393.898897 223.358735 
L 400.90125 222.444647 
L 400.90125 222.444647 
" style="fill:none;stroke:#858585;stroke-dasharray:1.5,2.475;stroke-dashoffset:0;stroke-opacity:0.5;stroke-width:1.5;"/>
   </g>
   <g id="line2d_15">
    <path clip-path="url(#pf9b4e70080)" d="M 43.78125 274.476446 
L 63.387838 266.639387 
L 82.994426 259.035439 
L 102.601015 251.657668 
L 123.608074 243.996262 
L 144.615132 236.578759 
L 165.622191 229.397393 
L 186.62925 222.444647 
L 209.036779 215.272179 
L 231.444309 208.343009 
L 253.851838 201.648884 
L 276.259368 195.181832 
L 300.067368 188.550781 
L 323.875368 182.158466 
L 347.683368 175.99629 
L 371.491368 170.055969 
L 396.699838 163.999159 
L 400.90125 163.012355 
L 400.90125 163.012355 
" style="fill:none;stroke:#858585;stroke-dasharray:1.5,2.475;stroke-dashoffset:0;stroke-opacity:0.5;stroke-width:1.5;"/>
   </g>
   <g id="line2d_16">
    <path clip-path="url(#pf9b4e70080)" d="M 43.78125 274.476446 
L 54.985015 265.539001 
L 66.188779 256.904723 
L 77.392544 248.56333 
L 88.596309 240.504887 
L 99.800074 232.719795 
L 111.003838 225.198782 
L 122.207603 217.93289 
L 133.411368 210.913466 
L 144.615132 204.132148 
L 157.219368 196.777732 
L 169.823603 189.703369 
L 182.427838 182.898395 
L 195.032074 176.352551 
L 207.636309 170.055969 
L 220.240544 163.999159 
L 232.844779 158.172989 
L 246.849485 151.959301 
L 260.854191 146.007955 
L 274.858897 140.307876 
L 288.863603 134.848454 
L 302.868309 129.61953 
L 316.873015 124.611371 
L 332.278191 119.346268 
L 347.683368 114.325164 
L 363.088544 109.536753 
L 378.493721 104.970249 
L 395.299368 100.229624 
L 400.90125 98.703169 
L 400.90125 98.703169 
" style="fill:none;stroke:#858585;stroke-dasharray:1.5,2.475;stroke-dashoffset:0;stroke-opacity:0.5;stroke-width:1.5;"/>
   </g>
   <g id="line2d_17">
    <path clip-path="url(#pf9b4e70080)" d="M 43.78125 274.476446 
L 50.783603 263.352417 
L 57.785956 252.698045 
L 64.788309 242.493502 
L 71.790662 232.719795 
L 78.793015 223.358735 
L 85.795368 214.392899 
L 92.797721 205.805602 
L 99.800074 197.580861 
L 106.802426 189.703369 
L 113.804779 182.158466 
L 120.807132 174.932109 
L 127.809485 168.010849 
L 134.811838 161.381806 
L 141.814191 155.032641 
L 148.816544 148.951539 
L 155.818897 143.127181 
L 162.82125 137.548728 
L 171.224074 131.164592 
L 179.626897 125.102521 
L 188.029721 119.346268 
L 196.432544 113.880404 
L 204.835368 108.690282 
L 213.238191 103.761989 
L 221.641015 99.082317 
L 230.043838 94.638724 
L 238.446662 90.419301 
L 248.249956 85.764909 
L 258.05325 81.383288 
L 267.856544 77.258449 
L 277.659838 73.375346 
L 287.463132 69.719811 
L 297.266426 66.278508 
L 308.470191 62.591842 
L 319.673956 59.151047 
L 330.877721 55.939723 
L 342.081485 52.942568 
L 354.685721 49.80902 
L 367.289956 46.909576 
L 379.894191 44.226747 
L 393.898897 41.480239 
L 400.90125 40.193328 
L 400.90125 40.193328 
" style="fill:none;stroke:#858585;stroke-dasharray:1.5,2.475;stroke-dashoffset:0;stroke-opacity:0.5;stroke-width:1.5;"/>
   </g>
   <g id="line2d_18">
    <path clip-path="url(#pf9b4e70080)" d="M 43.78125 274.476446 
L 47.982662 257.967783 
L 52.184074 242.493502 
L 56.385485 227.98879 
L 60.586897 214.392899 
L 64.788309 201.648884 
L 68.989721 189.703369 
L 73.191132 178.506323 
L 77.392544 168.010849 
L 81.593956 158.172989 
L 85.795368 148.951539 
L 89.996779 140.307876 
L 94.198191 132.205798 
L 98.399603 124.611371 
L 102.601015 117.492787 
L 106.802426 110.820231 
L 111.003838 104.565757 
L 115.20525 98.703169 
L 119.406662 93.207912 
L 123.608074 88.056972 
L 127.809485 83.228773 
L 132.010897 78.703094 
L 136.212309 74.460979 
L 140.413721 70.484663 
L 144.615132 66.75749 
L 148.816544 63.26385 
L 154.418426 58.94378 
L 160.020309 54.980797 
L 165.622191 51.345384 
L 171.224074 48.010466 
L 176.825956 44.951204 
L 182.427838 42.144814 
L 188.029721 39.570393 
L 193.631603 37.208768 
L 200.633956 34.529324 
L 207.636309 32.123804 
L 214.638662 29.964204 
L 221.641015 28.025383 
L 230.043838 25.958613 
L 238.446662 24.142724 
L 246.849485 22.547261 
L 256.652779 20.928971 
L 266.456074 19.537461 
L 277.659838 18.184295 
L 288.863603 17.045583 
L 301.467838 15.978769 
L 315.472544 15.012677 
L 330.877721 14.164995 
L 349.083838 13.390923 
L 370.090897 12.729834 
L 395.299368 12.173013 
L 400.90125 12.07599 
L 400.90125 12.07599 
" style="fill:none;stroke:#858585;stroke-dasharray:1.5,2.475;stroke-dashoffset:0;stroke-opacity:0.5;stroke-width:1.5;"/>
   </g>
   <g id="line2d_19">
    <path clip-path="url(#pf9b4e70080)" d="M 43.78125 274.476446 
L 46.582191 252.698045 
L 49.383132 232.719795 
L 52.184074 214.392899 
L 54.985015 197.580861 
L 57.785956 182.158466 
L 60.586897 168.010849 
L 63.387838 155.032641 
L 66.188779 143.127181 
L 68.989721 132.205798 
L 71.790662 122.18715 
L 74.591603 112.99662 
L 77.392544 104.565757 
L 80.193485 96.83177 
L 82.994426 89.737055 
L 85.795368 83.228773 
L 88.596309 77.258449 
L 91.39725 71.781619 
L 94.198191 66.75749 
L 96.999132 62.148644 
L 99.800074 57.920754 
L 102.601015 54.042332 
L 105.401956 50.48449 
L 108.202897 47.220731 
L 111.003838 44.226747 
L 113.804779 41.480239 
L 116.605721 38.96075 
L 119.406662 36.649516 
L 123.608074 33.535881 
L 127.809485 30.800203 
L 132.010897 28.396603 
L 136.212309 26.284772 
L 140.413721 24.429291 
L 144.615132 22.799042 
L 148.816544 21.366687 
L 154.418426 19.72362 
L 160.020309 18.340951 
L 165.622191 17.177411 
L 172.624544 15.978769 
L 179.626897 15.012677 
L 188.029721 14.097445 
L 197.833015 13.289945 
L 209.036779 12.621399 
L 221.641015 12.099467 
L 237.046191 11.683782 
L 258.05325 11.357645 
L 287.463132 11.144089 
L 339.280544 11.028583 
L 400.90125 11.003619 
L 400.90125 11.003619 
" style="fill:none;stroke:#858585;stroke-dasharray:1.5,2.475;stroke-dashoffset:0;stroke-opacity:0.5;stroke-width:1.5;"/>
   </g>
   <g id="line2d_20">
    <path clip-path="url(#pf9b4e70080)" d="M 43.78125 274.476446 
L 45.181721 252.698045 
L 46.582191 232.719795 
L 47.982662 214.392899 
L 49.383132 197.580861 
L 50.783603 182.158466 
L 52.184074 168.010849 
L 53.584544 155.032641 
L 54.985015 143.127181 
L 56.385485 132.205798 
L 57.785956 122.18715 
L 59.186426 112.99662 
L 60.586897 104.565757 
L 61.987368 96.83177 
L 63.387838 89.737055 
L 64.788309 83.228773 
L 66.188779 77.258449 
L 67.58925 71.781619 
L 68.989721 66.75749 
L 71.790662 57.920754 
L 74.591603 50.48449 
L 77.392544 44.226747 
L 80.193485 38.96075 
L 82.994426 34.529324 
L 85.795368 30.800203 
L 88.596309 27.662084 
L 91.39725 25.021304 
L 94.198191 22.799042 
L 96.999132 20.928971 
L 99.800074 19.355275 
L 102.601015 18.030982 
L 105.401956 16.916568 
L 108.202897 15.978769 
L 112.404309 14.843228 
L 116.605721 13.966637 
L 120.807132 13.289945 
L 126.409015 12.621399 
L 133.411368 12.053014 
L 141.814191 11.627198 
L 153.017956 11.314136 
L 169.823603 11.111053 
L 200.633956 11.015978 
L 329.47725 10.999225 
L 400.90125 10.999219 
L 400.90125 10.999219 
" style="fill:none;stroke:#858585;stroke-dasharray:1.5,2.475;stroke-dashoffset:0;stroke-opacity:0.5;stroke-width:1.5;"/>
   </g>
   <g id="line2d_21">
    <path clip-path="url(#pf9b4e70080)" d="M 43.78125 274.476446 
L 45.181721 223.358735 
L 46.582191 182.158466 
L 47.982662 148.951539 
L 49.383132 122.18715 
L 50.783603 100.615371 
L 52.184074 83.228773 
L 53.584544 69.215381 
L 54.985015 57.920754 
L 56.385485 48.817419 
L 57.785956 41.480239 
L 59.186426 35.566559 
L 60.586897 30.800203 
L 61.987368 26.958577 
L 63.387838 23.862272 
L 64.788309 21.366687 
L 66.188779 19.355275 
L 67.58925 17.734101 
L 68.989721 16.427454 
L 70.390191 15.374312 
L 71.790662 14.525492 
L 73.191132 13.841353 
L 75.992074 12.845517 
L 78.793015 12.198605 
L 81.593956 11.77836 
L 85.795368 11.407164 
L 91.39725 11.171373 
L 101.200544 11.037257 
L 129.209956 10.999728 
L 400.90125 10.999219 
L 400.90125 10.999219 
" style="fill:none;stroke:#858585;stroke-dasharray:1.5,2.475;stroke-dashoffset:0;stroke-opacity:0.5;stroke-width:1.5;"/>
   </g>
   <g id="line2d_22">
    <defs>
     <path d="M 0 2.5 
C 0.663008 2.5 1.29895 2.236584 1.767767 1.767767 
C 2.236584 1.29895 2.5 0.663008 2.5 0 
C 2.5 -0.663008 2.236584 -1.29895 1.767767 -1.767767 
C 1.29895 -2.236584 0.663008 -2.5 0 -2.5 
C -0.663008 -2.5 -1.29895 -2.236584 -1.767767 -1.767767 
C -2.236584 -1.29895 -2.5 -0.663008 -2.5 0 
C -2.5 0.663008 -2.236584 1.29895 -1.767767 1.767767 
C -1.29895 2.236584 -0.663008 2.5 0 2.5 
z
" id="m2c0b8808f2" style="stroke:#0d0887;stroke-width:2;"/>
    </defs>
    <g clip-path="url(#pf9b4e70080)">
     <use style="fill:#0d0887;stroke:#0d0887;stroke-width:2;" x="101.136886" xlink:href="#m2c0b8808f2" y="231.447964"/>
    </g>
   </g>
   <g id="line2d_23">
    <g clip-path="url(#pf9b4e70080)">
     <use style="fill:#0d0887;stroke:#0d0887;stroke-width:2;" x="143.341977" xlink:href="#m2c0b8808f2" y="200.744193"/>
    </g>
   </g>
   <g id="line2d_24">
    <g clip-path="url(#pf9b4e70080)">
     <use style="fill:#0d0887;stroke:#0d0887;stroke-width:2;" x="184.464886" xlink:href="#m2c0b8808f2" y="173.577789"/>
    </g>
   </g>
   <g id="line2d_25">
    <g clip-path="url(#pf9b4e70080)">
     <use style="fill:#0d0887;stroke:#0d0887;stroke-width:2;" x="65.424886" xlink:href="#m2c0b8808f2" y="252.442072"/>
    </g>
   </g>
   <g id="line2d_26">
    <g clip-path="url(#pf9b4e70080)">
     <use style="fill:#0d0887;stroke:#0d0887;stroke-width:2;" x="87.068523" xlink:href="#m2c0b8808f2" y="241.738941"/>
    </g>
   </g>
   <g id="line2d_27">
    <g clip-path="url(#pf9b4e70080)">
     <use style="fill:#0d0887;stroke:#0d0887;stroke-width:2;" x="110.876523" xlink:href="#m2c0b8808f2" y="229.670063"/>
    </g>
   </g>
   <g id="line2d_28">
    <defs>
     <path d="M 0 -2.5 
L -2.5 2.5 
L 2.5 2.5 
z
" id="m55723e1e4f" style="stroke:#7e03a8;stroke-linejoin:miter;stroke-width:2;"/>
    </defs>
    <g clip-path="url(#pf9b4e70080)">
     <use style="fill:#7e03a8;stroke:#7e03a8;stroke-linejoin:miter;stroke-width:2;" x="121.698341" xlink:href="#m55723e1e4f" y="210.284166"/>
    </g>
   </g>
   <g id="line2d_29">
    <g clip-path="url(#pf9b4e70080)">
     <use style="fill:#7e03a8;stroke:#7e03a8;stroke-linejoin:miter;stroke-width:2;" x="195.286705" xlink:href="#m55723e1e4f" y="146.28138"/>
    </g>
   </g>
   <g id="line2d_30">
    <g clip-path="url(#pf9b4e70080)">
     <use style="fill:#7e03a8;stroke:#7e03a8;stroke-linejoin:miter;stroke-width:2;" x="287.272159" xlink:href="#m55723e1e4f" y="97.821688"/>
    </g>
   </g>
   <g id="line2d_31">
    <g clip-path="url(#pf9b4e70080)">
     <use style="fill:#7e03a8;stroke:#7e03a8;stroke-linejoin:miter;stroke-width:2;" x="147.670705" xlink:href="#m55723e1e4f" y="87.421529"/>
    </g>
   </g>
   <g id="line2d_32">
    <g clip-path="url(#pf9b4e70080)">
     <use style="fill:#7e03a8;stroke:#7e03a8;stroke-linejoin:miter;stroke-width:2;" x="236.409614" xlink:href="#m55723e1e4f" y="47.780759"/>
    </g>
   </g>
   <g id="line2d_33">
    <g clip-path="url(#pf9b4e70080)">
     <use style="fill:#7e03a8;stroke:#7e03a8;stroke-linejoin:miter;stroke-width:2;" x="385.750705" xlink:href="#m55723e1e4f" y="16.621295"/>
    </g>
   </g>
   <g id="line2d_34">
    <g clip-path="url(#pf9b4e70080)">
     <use style="fill:#7e03a8;stroke:#7e03a8;stroke-linejoin:miter;stroke-width:2;" x="87.068523" xlink:href="#m55723e1e4f" y="172.174017"/>
    </g>
   </g>
   <g id="line2d_35">
    <g clip-path="url(#pf9b4e70080)">
     <use style="fill:#7e03a8;stroke:#7e03a8;stroke-linejoin:miter;stroke-width:2;" x="132.520159" xlink:href="#m55723e1e4f" y="120.652439"/>
    </g>
   </g>
   <g id="line2d_36">
    <g clip-path="url(#pf9b4e70080)">
     <use style="fill:#7e03a8;stroke:#7e03a8;stroke-linejoin:miter;stroke-width:2;" x="188.793614" xlink:href="#m55723e1e4f" y="69.002569"/>
    </g>
   </g>
   <g id="line2d_37">
    <g clip-path="url(#pf9b4e70080)">
     <use style="fill:#0d0887;stroke:#0d0887;stroke-width:2;" x="76.246705" xlink:href="#m2c0b8808f2" y="250.460653"/>
    </g>
   </g>
   <g id="line2d_38">
    <g clip-path="url(#pf9b4e70080)">
     <use style="fill:#0d0887;stroke:#0d0887;stroke-width:2;" x="118.451795" xlink:href="#m2c0b8808f2" y="226.832013"/>
    </g>
   </g>
   <g id="line2d_39">
    <g clip-path="url(#pf9b4e70080)">
     <use style="fill:#0d0887;stroke:#0d0887;stroke-width:2;" x="176.889614" xlink:href="#m2c0b8808f2" y="203.615852"/>
    </g>
   </g>
   <g id="line2d_40">
    <defs>
     <path d="M 0 3.535534 
L 3.535534 0 
L 0 -3.535534 
L -3.535534 0 
z
" id="mf9959acd09" style="stroke:#cc4778;stroke-linejoin:miter;stroke-width:2;"/>
    </defs>
    <g clip-path="url(#pf9b4e70080)">
     <use style="fill:#cc4778;stroke:#cc4778;stroke-linejoin:miter;stroke-width:2;" x="94.643795" xlink:href="#mf9959acd09" y="251.257999"/>
    </g>
   </g>
   <g id="line2d_41">
    <g clip-path="url(#pf9b4e70080)">
     <use style="fill:#cc4778;stroke:#cc4778;stroke-linejoin:miter;stroke-width:2;" x="119.533977" xlink:href="#mf9959acd09" y="250.914225"/>
    </g>
   </g>
   <g id="line2d_42">
    <g clip-path="url(#pf9b4e70080)">
     <use style="fill:#cc4778;stroke:#cc4778;stroke-linejoin:miter;stroke-width:2;" x="124.944886" xlink:href="#mf9959acd09" y="230.064044"/>
    </g>
   </g>
   <g id="line2d_43">
    <g clip-path="url(#pf9b4e70080)">
     <use style="fill:#cc4778;stroke:#cc4778;stroke-linejoin:miter;stroke-width:2;" x="210.43725" xlink:href="#mf9959acd09" y="189.922613"/>
    </g>
   </g>
   <g id="line2d_44">
    <g clip-path="url(#pf9b4e70080)">
     <use style="fill:#cc4778;stroke:#cc4778;stroke-linejoin:miter;stroke-width:2;" x="299.176159" xlink:href="#mf9959acd09" y="159.007564"/>
    </g>
   </g>
   <g id="line2d_45">
    <defs>
     <path d="M -2.5 2.5 
L 2.5 2.5 
L 2.5 -2.5 
L -2.5 -2.5 
z
" id="m336ec6fc8e" style="stroke:#f89540;stroke-linejoin:miter;stroke-width:2;"/>
    </defs>
    <g clip-path="url(#pf9b4e70080)">
     <use style="fill:#f89540;stroke:#f89540;stroke-linejoin:miter;stroke-width:2;" x="184.464886" xlink:href="#m336ec6fc8e" y="95.531909"/>
    </g>
   </g>
   <g id="line2d_46">
    <g clip-path="url(#pf9b4e70080)">
     <use style="fill:#f89540;stroke:#f89540;stroke-linejoin:miter;stroke-width:2;" x="195.286705" xlink:href="#m336ec6fc8e" y="33.859268"/>
    </g>
   </g>
   <g id="line2d_47">
    <g clip-path="url(#pf9b4e70080)">
     <use style="fill:#f89540;stroke:#f89540;stroke-linejoin:miter;stroke-width:2;" x="175.807432" xlink:href="#m336ec6fc8e" y="54.773186"/>
    </g>
   </g>
   <g id="line2d_48">
    <g clip-path="url(#pf9b4e70080)">
     <use style="fill:#f89540;stroke:#f89540;stroke-linejoin:miter;stroke-width:2;" x="78.411068" xlink:href="#m336ec6fc8e" y="124.247707"/>
    </g>
   </g>
   <g id="line2d_49">
    <g clip-path="url(#pf9b4e70080)">
     <use style="fill:#f89540;stroke:#f89540;stroke-linejoin:miter;stroke-width:2;" x="101.136886" xlink:href="#m336ec6fc8e" y="191.41181"/>
    </g>
   </g>
   <g id="line2d_50">
    <g clip-path="url(#pf9b4e70080)">
     <use style="fill:#f89540;stroke:#f89540;stroke-linejoin:miter;stroke-width:2;" x="186.62925" xlink:href="#m336ec6fc8e" y="12.687771"/>
    </g>
   </g>
   <g id="line2d_51">
    <g clip-path="url(#pf9b4e70080)">
     <use style="fill:#f89540;stroke:#f89540;stroke-linejoin:miter;stroke-width:2;" x="69.753614" xlink:href="#m336ec6fc8e" y="221.03896"/>
    </g>
   </g>
   <g id="line2d_52">
    <g clip-path="url(#pf9b4e70080)">
     <use style="fill:#f89540;stroke:#f89540;stroke-linejoin:miter;stroke-width:2;" x="53.520886" xlink:href="#m336ec6fc8e" y="245.963059"/>
    </g>
   </g>
   <g id="patch_3">
    <path d="M 43.78125 274.476446 
L 43.78125 8.364446 
" style="fill:none;stroke:#000000;stroke-linecap:square;stroke-linejoin:miter;stroke-width:0.8;"/>
   </g>
   <g id="patch_4">
    <path d="M 400.90125 274.476446 
L 400.90125 8.364446 
" style="fill:none;stroke:#000000;stroke-linecap:square;stroke-linejoin:miter;stroke-width:0.8;"/>
   </g>
   <g id="patch_5">
    <path d="M 43.78125 274.476446 
L 400.90125 274.476446 
" style="fill:none;stroke:#000000;stroke-linecap:square;stroke-linejoin:miter;stroke-width:0.8;"/>
   </g>
   <g id="patch_6">
    <path d="M 43.78125 8.364446 
L 400.90125 8.364446 
" style="fill:none;stroke:#000000;stroke-linecap:square;stroke-linejoin:miter;stroke-width:0.8;"/>
   </g>
   <g id="legend_1">
    <g id="patch_7">
     <path d="M 425.75725 75.076946 
L 479.08225 75.076946 
Q 481.08225 75.076946 481.08225 73.076946 
L 481.08225 15.364446 
Q 481.08225 13.364446 479.08225 13.364446 
L 425.75725 13.364446 
Q 423.75725 13.364446 423.75725 15.364446 
L 423.75725 73.076946 
Q 423.75725 75.076946 425.75725 75.076946 
z
" style="fill:#ffffff;opacity:0.8;stroke:#cccccc;stroke-linejoin:miter;"/>
    </g>
    <g id="PathCollection_5">
     <g>
      <use style="fill:#0d0887;stroke:#0d0887;" x="437.75725" xlink:href="#mf92b4ceaaf" y="22.337884"/>
     </g>
    </g>
    <g id="text_15">
     <!-- SB -->
     <g transform="translate(455.75725 24.962884)scale(0.1 -0.1)">
      <defs>
       <path d="M 3425 4513 
L 3425 3897 
Q 3066 4069 2747 4153 
Q 2428 4238 2131 4238 
Q 1616 4238 1336 4038 
Q 1056 3838 1056 3469 
Q 1056 3159 1242 3001 
Q 1428 2844 1947 2747 
L 2328 2669 
Q 3034 2534 3370 2195 
Q 3706 1856 3706 1288 
Q 3706 609 3251 259 
Q 2797 -91 1919 -91 
Q 1588 -91 1214 -16 
Q 841 59 441 206 
L 441 856 
Q 825 641 1194 531 
Q 1563 422 1919 422 
Q 2459 422 2753 634 
Q 3047 847 3047 1241 
Q 3047 1584 2836 1778 
Q 2625 1972 2144 2069 
L 1759 2144 
Q 1053 2284 737 2584 
Q 422 2884 422 3419 
Q 422 4038 858 4394 
Q 1294 4750 2059 4750 
Q 2388 4750 2728 4690 
Q 3069 4631 3425 4513 
z
" id="DejaVuSans-53" transform="scale(0.015625)"/>
       <path d="M 1259 2228 
L 1259 519 
L 2272 519 
Q 2781 519 3026 730 
Q 3272 941 3272 1375 
Q 3272 1813 3026 2020 
Q 2781 2228 2272 2228 
L 1259 2228 
z
M 1259 4147 
L 1259 2741 
L 2194 2741 
Q 2656 2741 2882 2914 
Q 3109 3088 3109 3444 
Q 3109 3797 2882 3972 
Q 2656 4147 2194 4147 
L 1259 4147 
z
M 628 4666 
L 2241 4666 
Q 2963 4666 3353 4366 
Q 3744 4066 3744 3513 
Q 3744 3084 3544 2831 
Q 3344 2578 2956 2516 
Q 3422 2416 3680 2098 
Q 3938 1781 3938 1306 
Q 3938 681 3513 340 
Q 3088 0 2303 0 
L 628 0 
L 628 4666 
z
" id="DejaVuSans-42" transform="scale(0.015625)"/>
      </defs>
      <use xlink:href="#DejaVuSans-53"/>
      <use x="63.476562" xlink:href="#DejaVuSans-42"/>
     </g>
    </g>
    <g id="PathCollection_6">
     <g>
      <use style="fill:#7e03a8;stroke:#7e03a8;" x="437.75725" xlink:href="#m3330c6cbf3" y="37.016009"/>
     </g>
    </g>
    <g id="text_16">
     <!-- SMS -->
     <g transform="translate(455.75725 39.641009)scale(0.1 -0.1)">
      <defs>
       <path d="M 628 4666 
L 1569 4666 
L 2759 1491 
L 3956 4666 
L 4897 4666 
L 4897 0 
L 4281 0 
L 4281 4097 
L 3078 897 
L 2444 897 
L 1241 4097 
L 1241 0 
L 628 0 
L 628 4666 
z
" id="DejaVuSans-4d" transform="scale(0.015625)"/>
      </defs>
      <use xlink:href="#DejaVuSans-53"/>
      <use x="63.476562" xlink:href="#DejaVuSans-4d"/>
      <use x="149.755859" xlink:href="#DejaVuSans-53"/>
     </g>
    </g>
    <g id="PathCollection_7">
     <g>
      <use style="fill:#cc4778;stroke:#cc4778;" x="437.75725" xlink:href="#m917a02b767" y="51.694134"/>
     </g>
    </g>
    <g id="text_17">
     <!-- W -->
     <g transform="translate(455.75725 54.319134)scale(0.1 -0.1)">
      <defs>
       <path d="M 213 4666 
L 850 4666 
L 1831 722 
L 2809 4666 
L 3519 4666 
L 4500 722 
L 5478 4666 
L 6119 4666 
L 4947 0 
L 4153 0 
L 3169 4050 
L 2175 0 
L 1381 0 
L 213 4666 
z
" id="DejaVuSans-57" transform="scale(0.015625)"/>
      </defs>
      <use xlink:href="#DejaVuSans-57"/>
     </g>
    </g>
    <g id="PathCollection_8">
     <g>
      <use style="fill:#f89540;stroke:#f89540;" x="437.75725" xlink:href="#ma9af3d0ed1" y="66.372259"/>
     </g>
    </g>
    <g id="text_18">
     <!-- ML -->
     <g transform="translate(455.75725 68.997259)scale(0.1 -0.1)">
      <defs>
       <path d="M 628 4666 
L 1259 4666 
L 1259 531 
L 3531 531 
L 3531 0 
L 628 0 
L 628 4666 
z
" id="DejaVuSans-4c" transform="scale(0.015625)"/>
      </defs>
      <use xlink:href="#DejaVuSans-4d"/>
      <use x="86.279297" xlink:href="#DejaVuSans-4c"/>
     </g>
    </g>
   </g>
  </g>
 </g>
 <defs>
  <clipPath id="pf9b4e70080">
   <rect height="266.112" width="357.12" x="43.78125" y="8.364446"/>
  </clipPath>
 </defs>
</svg>
