<?xml version="1.0" encoding="utf-8" standalone="no"?>
<!DOCTYPE svg PUBLIC "-//W3C//DTD SVG 1.1//EN"
  "http://www.w3.org/Graphics/SVG/1.1/DTD/svg11.dtd">
<svg height="310.86825pt" version="1.1" viewBox="0 0 569.040062 310.86825" width="569.040062pt" xmlns="http://www.w3.org/2000/svg" xmlns:xlink="http://www.w3.org/1999/xlink">
 <metadata>
  <rdf:RDF xmlns:cc="http://creativecommons.org/ns#" xmlns:dc="http://purl.org/dc/elements/1.1/" xmlns:rdf="http://www.w3.org/1999/02/22-rdf-syntax-ns#">
   <cc:Work>
    <dc:type rdf:resource="http://purl.org/dc/dcmitype/StillImage"/>
    <dc:date>2021-11-12T10:07:45.573843</dc:date>
    <dc:format>image/svg+xml</dc:format>
    <dc:creator>
     <cc:Agent>
      <dc:title>Matplotlib v3.4.2, https://matplotlib.org/</dc:title>
     </cc:Agent>
    </dc:creator>
   </cc:Work>
  </rdf:RDF>
 </metadata>
 <defs>
  <style type="text/css">*{stroke-linecap:butt;stroke-linejoin:round;}</style>
 </defs>
 <g id="figure_1">
  <g id="patch_1">
   <path d="M 0 310.86825 
L 569.040062 310.86825 
L 569.040062 0 
L 0 0 
z
" style="fill:#ffffff;"/>
  </g>
  <g id="axes_1">
   <g id="patch_2">
    <path d="M 50.14375 273.312 
L 407.26375 273.312 
L 407.26375 7.2 
L 50.14375 7.2 
z
" style="fill:#ffffff;"/>
   </g>
   <g id="PathCollection_1">
    <defs>
     <path d="M 0 3 
C 0.795609 3 1.55874 2.683901 2.12132 2.12132 
C 2.683901 1.55874 3 0.795609 3 0 
C 3 -0.795609 2.683901 -1.55874 2.12132 -2.12132 
C 1.55874 -2.683901 0.795609 -3 0 -3 
C -0.795609 -3 -1.55874 -2.683901 -2.12132 -2.12132 
C -2.683901 -1.55874 -3 -0.795609 -3 0 
C -3 0.795609 -2.683901 1.55874 -2.12132 2.12132 
C -1.55874 2.683901 -0.795609 3 0 3 
z
" id="ma7b7e61072" style="stroke:#0d0887;"/>
    </defs>
    <g clip-path="url(#p96af32f0ce)">
     <use style="fill:#0d0887;stroke:#0d0887;" x="199.794036" xlink:href="#ma7b7e61072" y="28.14559"/>
    </g>
   </g>
   <g id="PathCollection_2">
    <path clip-path="url(#p96af32f0ce)" d="M 216.79975 30.888062 
C 217.595359 30.888062 218.35849 30.571963 218.92107 30.009382 
C 219.483651 29.446802 219.79975 28.683671 219.79975 27.888062 
C 219.79975 27.092453 219.483651 26.329322 218.92107 25.766742 
C 218.35849 25.204161 217.595359 24.888062 216.79975 24.888062 
C 216.004141 24.888062 215.24101 25.204161 214.67843 25.766742 
C 214.115849 26.329322 213.79975 27.092453 213.79975 27.888062 
C 213.79975 28.683671 214.115849 29.446802 214.67843 30.009382 
C 215.24101 30.571963 216.004141 30.888062 216.79975 30.888062 
z
" style="fill:none;stroke:#0d0887;"/>
   </g>
   <g id="PathCollection_3">
    <defs>
     <path d="M 0 3 
C 0.795609 3 1.55874 2.683901 2.12132 2.12132 
C 2.683901 1.55874 3 0.795609 3 0 
C 3 -0.795609 2.683901 -1.55874 2.12132 -2.12132 
C 1.55874 -2.683901 0.795609 -3 0 -3 
C -0.795609 -3 -1.55874 -2.683901 -2.12132 -2.12132 
C -2.683901 -1.55874 -3 -0.795609 -3 0 
C -3 0.795609 -2.683901 1.55874 -2.12132 2.12132 
C -1.55874 2.683901 -0.795609 3 0 3 
z
" id="mfa178e56c8" style="stroke:#4c02a1;"/>
    </defs>
    <g clip-path="url(#p96af32f0ce)">
     <use style="fill:#4c02a1;stroke:#4c02a1;" x="271.218036" xlink:href="#mfa178e56c8" y="19.818859"/>
    </g>
   </g>
   <g id="PathCollection_4">
    <path clip-path="url(#p96af32f0ce)" d="M 254.212321 31.231432 
C 255.007931 31.231432 255.771061 30.915333 256.333642 30.352753 
C 256.896223 29.790172 257.212321 29.027042 257.212321 28.231432 
C 257.212321 27.435823 256.896223 26.672693 256.333642 26.110112 
C 255.771061 25.547531 255.007931 25.231432 254.212321 25.231432 
C 253.416712 25.231432 252.653582 25.547531 252.091001 26.110112 
C 251.52842 26.672693 251.212321 27.435823 251.212321 28.231432 
C 251.212321 29.027042 251.52842 29.790172 252.091001 30.352753 
C 252.653582 30.915333 253.416712 31.231432 254.212321 31.231432 
z
" style="fill:none;stroke:#4c02a1;"/>
   </g>
   <g id="PathCollection_5">
    <defs>
     <path d="M 0 3 
C 0.795609 3 1.55874 2.683901 2.12132 2.12132 
C 2.683901 1.55874 3 0.795609 3 0 
C 3 -0.795609 2.683901 -1.55874 2.12132 -2.12132 
C 1.55874 -2.683901 0.795609 -3 0 -3 
C -0.795609 -3 -1.55874 -2.683901 -2.12132 -2.12132 
C -2.683901 -1.55874 -3 -0.795609 -3 0 
C -3 0.795609 -2.683901 1.55874 -2.12132 2.12132 
C -1.55874 2.683901 -0.795609 3 0 3 
z
" id="m2d0488df33" style="stroke:#7e03a8;"/>
    </defs>
    <g clip-path="url(#p96af32f0ce)">
     <use style="fill:#7e03a8;stroke:#7e03a8;" x="152.178036" xlink:href="#m2d0488df33" y="16.986054"/>
    </g>
   </g>
   <g id="PathCollection_6">
    <path clip-path="url(#p96af32f0ce)" d="M 152.178036 25.565822 
C 152.973645 25.565822 153.736775 25.249723 154.299356 24.687142 
C 154.861937 24.124562 155.178036 23.361431 155.178036 22.565822 
C 155.178036 21.770213 154.861937 21.007082 154.299356 20.444502 
C 153.736775 19.881921 152.973645 19.565822 152.178036 19.565822 
C 151.382426 19.565822 150.619296 19.881921 150.056715 20.444502 
C 149.494135 21.007082 149.178036 21.770213 149.178036 22.565822 
C 149.178036 23.361431 149.494135 24.124562 150.056715 24.687142 
C 150.619296 25.249723 151.382426 25.565822 152.178036 25.565822 
z
" style="fill:none;stroke:#7e03a8;"/>
   </g>
   <g id="PathCollection_7">
    <defs>
     <path d="M 0 3 
C 0.795609 3 1.55874 2.683901 2.12132 2.12132 
C 2.683901 1.55874 3 0.795609 3 0 
C 3 -0.795609 2.683901 -1.55874 2.12132 -2.12132 
C 1.55874 -2.683901 0.795609 -3 0 -3 
C -0.795609 -3 -1.55874 -2.683901 -2.12132 -2.12132 
C -2.683901 -1.55874 -3 -0.795609 -3 0 
C -3 0.795609 -2.683901 1.55874 -2.12132 2.12132 
C -1.55874 2.683901 -0.795609 3 0 3 
z
" id="m08e03e8830" style="stroke:#aa2395;"/>
    </defs>
    <g clip-path="url(#p96af32f0ce)">
     <use style="fill:#aa2395;stroke:#aa2395;" x="63.748321" xlink:href="#m08e03e8830" y="226.957006"/>
    </g>
   </g>
   <g id="PathCollection_8">
    <path clip-path="url(#p96af32f0ce)" d="M 216.79975 18.784258 
C 217.595359 18.784258 218.35849 18.468159 218.92107 17.905578 
C 219.483651 17.342998 219.79975 16.579867 219.79975 15.784258 
C 219.79975 14.988649 219.483651 14.225518 218.92107 13.662938 
C 218.35849 13.100357 217.595359 12.784258 216.79975 12.784258 
C 216.004141 12.784258 215.24101 13.100357 214.67843 13.662938 
C 214.115849 14.225518 213.79975 14.988649 213.79975 15.784258 
C 213.79975 16.579867 214.115849 17.342998 214.67843 17.905578 
C 215.24101 18.468159 216.004141 18.784258 216.79975 18.784258 
z
" style="fill:none;stroke:#aa2395;"/>
   </g>
   <g id="PathCollection_9">
    <defs>
     <path d="M 0 3 
C 0.795609 3 1.55874 2.683901 2.12132 2.12132 
C 2.683901 1.55874 3 0.795609 3 0 
C 3 -0.795609 2.683901 -1.55874 2.12132 -2.12132 
C 1.55874 -2.683901 0.795609 -3 0 -3 
C -0.795609 -3 -1.55874 -2.683901 -2.12132 -2.12132 
C -2.683901 -1.55874 -3 -0.795609 -3 0 
C -3 0.795609 -2.683901 1.55874 -2.12132 2.12132 
C -1.55874 2.683901 -0.795609 3 0 3 
z
" id="m2057d0c93e" style="stroke:#cc4778;"/>
    </defs>
    <g clip-path="url(#p96af32f0ce)">
     <use style="fill:#cc4778;stroke:#cc4778;" x="199.794036" xlink:href="#m2057d0c93e" y="15.784258"/>
    </g>
   </g>
   <g id="PathCollection_10">
    <path clip-path="url(#p96af32f0ce)" d="M 189.590607 18.784258 
C 190.386216 18.784258 191.149347 18.468159 191.711927 17.905578 
C 192.274508 17.342998 192.590607 16.579867 192.590607 15.784258 
C 192.590607 14.988649 192.274508 14.225518 191.711927 13.662938 
C 191.149347 13.100357 190.386216 12.784258 189.590607 12.784258 
C 188.794998 12.784258 188.031868 13.100357 187.469287 13.662938 
C 186.906706 14.225518 186.590607 14.988649 186.590607 15.784258 
C 186.590607 16.579867 186.906706 17.342998 187.469287 17.905578 
C 188.031868 18.468159 188.794998 18.784258 189.590607 18.784258 
z
" style="fill:none;stroke:#cc4778;"/>
   </g>
   <g id="PathCollection_11">
    <defs>
     <path d="M 0 3 
C 0.795609 3 1.55874 2.683901 2.12132 2.12132 
C 2.683901 1.55874 3 0.795609 3 0 
C 3 -0.795609 2.683901 -1.55874 2.12132 -2.12132 
C 1.55874 -2.683901 0.795609 -3 0 -3 
C -0.795609 -3 -1.55874 -2.683901 -2.12132 -2.12132 
C -2.683901 -1.55874 -3 -0.795609 -3 0 
C -3 0.795609 -2.683901 1.55874 -2.12132 2.12132 
C -1.55874 2.683901 -0.795609 3 0 3 
z
" id="m89453a887b" style="stroke:#e66c5c;"/>
    </defs>
    <g clip-path="url(#p96af32f0ce)">
     <use style="fill:#e66c5c;stroke:#e66c5c;" x="97.75975" xlink:href="#m89453a887b" y="165.922932"/>
    </g>
   </g>
   <g id="PathCollection_12">
    <path clip-path="url(#p96af32f0ce)" d="M 97.75975 210.814111 
C 98.555359 210.814111 99.31849 210.498012 99.88107 209.935431 
C 100.443651 209.372851 100.75975 208.60972 100.75975 207.814111 
C 100.75975 207.018502 100.443651 206.255371 99.88107 205.692791 
C 99.31849 205.13021 98.555359 204.814111 97.75975 204.814111 
C 96.964141 204.814111 96.20101 205.13021 95.63843 205.692791 
C 95.075849 206.255371 94.75975 207.018502 94.75975 207.814111 
C 94.75975 208.60972 95.075849 209.372851 95.63843 209.935431 
C 96.20101 210.498012 96.964141 210.814111 97.75975 210.814111 
z
" style="fill:none;stroke:#e66c5c;"/>
   </g>
   <g id="PathCollection_13">
    <defs>
     <path d="M 0 3 
C 0.795609 3 1.55874 2.683901 2.12132 2.12132 
C 2.683901 1.55874 3 0.795609 3 0 
C 3 -0.795609 2.683901 -1.55874 2.12132 -2.12132 
C 1.55874 -2.683901 0.795609 -3 0 -3 
C -0.795609 -3 -1.55874 -2.683901 -2.12132 -2.12132 
C -2.683901 -1.55874 -3 -0.795609 -3 0 
C -3 0.795609 -2.683901 1.55874 -2.12132 2.12132 
C -1.55874 2.683901 -0.795609 3 0 3 
z
" id="m11bde43a67" style="stroke:#f89540;"/>
    </defs>
    <g clip-path="url(#p96af32f0ce)">
     <use style="fill:#f89540;stroke:#f89540;" x="175.986036" xlink:href="#m11bde43a67" y="90.03809"/>
    </g>
   </g>
   <g id="PathCollection_14">
    <path clip-path="url(#p96af32f0ce)" d="M 257.613464 87.458323 
C 258.409074 87.458323 259.172204 87.142224 259.734785 86.579643 
C 260.297365 86.017062 260.613464 85.253932 260.613464 84.458323 
C 260.613464 83.662713 260.297365 82.899583 259.734785 82.337002 
C 259.172204 81.774422 258.409074 81.458323 257.613464 81.458323 
C 256.817855 81.458323 256.054725 81.774422 255.492144 82.337002 
C 254.929563 82.899583 254.613464 83.662713 254.613464 84.458323 
C 254.613464 85.253932 254.929563 86.017062 255.492144 86.579643 
C 256.054725 87.142224 256.817855 87.458323 257.613464 87.458323 
z
" style="fill:none;stroke:#f89540;"/>
   </g>
   <g id="PathCollection_15">
    <defs>
     <path d="M 0 3 
C 0.795609 3 1.55874 2.683901 2.12132 2.12132 
C 2.683901 1.55874 3 0.795609 3 0 
C 3 -0.795609 2.683901 -1.55874 2.12132 -2.12132 
C 1.55874 -2.683901 0.795609 -3 0 -3 
C -0.795609 -3 -1.55874 -2.683901 -2.12132 -2.12132 
C -2.683901 -1.55874 -3 -0.795609 -3 0 
C -3 0.795609 -2.683901 1.55874 -2.12132 2.12132 
C -1.55874 2.683901 -0.795609 3 0 3 
z
" id="md3ece7d72e" style="stroke:#fdc527;"/>
    </defs>
    <g clip-path="url(#p96af32f0ce)">
     <use style="fill:#fdc527;stroke:#fdc527;" x="386.856893" xlink:href="#md3ece7d72e" y="15.784258"/>
    </g>
   </g>
   <g id="PathCollection_16"/>
   <g id="matplotlib.axis_1">
    <g id="xtick_1">
     <g id="line2d_1">
      <defs>
       <path d="M 0 0 
L 0 3.5 
" id="mea28e2e966" style="stroke:#000000;stroke-width:0.8;"/>
      </defs>
      <g>
       <use style="stroke:#000000;stroke-width:0.8;" x="84.155179" xlink:href="#mea28e2e966" y="273.312"/>
      </g>
     </g>
     <g id="text_1">
      <!-- 40 -->
      <g transform="translate(77.792679 287.910437)scale(0.1 -0.1)">
       <defs>
        <path d="M 2419 4116 
L 825 1625 
L 2419 1625 
L 2419 4116 
z
M 2253 4666 
L 3047 4666 
L 3047 1625 
L 3713 1625 
L 3713 1100 
L 3047 1100 
L 3047 0 
L 2419 0 
L 2419 1100 
L 313 1100 
L 313 1709 
L 2253 4666 
z
" id="DejaVuSans-34" transform="scale(0.015625)"/>
        <path d="M 2034 4250 
Q 1547 4250 1301 3770 
Q 1056 3291 1056 2328 
Q 1056 1369 1301 889 
Q 1547 409 2034 409 
Q 2525 409 2770 889 
Q 3016 1369 3016 2328 
Q 3016 3291 2770 3770 
Q 2525 4250 2034 4250 
z
M 2034 4750 
Q 2819 4750 3233 4129 
Q 3647 3509 3647 2328 
Q 3647 1150 3233 529 
Q 2819 -91 2034 -91 
Q 1250 -91 836 529 
Q 422 1150 422 2328 
Q 422 3509 836 4129 
Q 1250 4750 2034 4750 
z
" id="DejaVuSans-30" transform="scale(0.015625)"/>
       </defs>
       <use xlink:href="#DejaVuSans-34"/>
       <use x="63.623047" xlink:href="#DejaVuSans-30"/>
      </g>
     </g>
    </g>
    <g id="xtick_2">
     <g id="line2d_2">
      <g>
       <use style="stroke:#000000;stroke-width:0.8;" x="152.178036" xlink:href="#mea28e2e966" y="273.312"/>
      </g>
     </g>
     <g id="text_2">
      <!-- 60 -->
      <g transform="translate(145.815536 287.910437)scale(0.1 -0.1)">
       <defs>
        <path d="M 2113 2584 
Q 1688 2584 1439 2293 
Q 1191 2003 1191 1497 
Q 1191 994 1439 701 
Q 1688 409 2113 409 
Q 2538 409 2786 701 
Q 3034 994 3034 1497 
Q 3034 2003 2786 2293 
Q 2538 2584 2113 2584 
z
M 3366 4563 
L 3366 3988 
Q 3128 4100 2886 4159 
Q 2644 4219 2406 4219 
Q 1781 4219 1451 3797 
Q 1122 3375 1075 2522 
Q 1259 2794 1537 2939 
Q 1816 3084 2150 3084 
Q 2853 3084 3261 2657 
Q 3669 2231 3669 1497 
Q 3669 778 3244 343 
Q 2819 -91 2113 -91 
Q 1303 -91 875 529 
Q 447 1150 447 2328 
Q 447 3434 972 4092 
Q 1497 4750 2381 4750 
Q 2619 4750 2861 4703 
Q 3103 4656 3366 4563 
z
" id="DejaVuSans-36" transform="scale(0.015625)"/>
       </defs>
       <use xlink:href="#DejaVuSans-36"/>
       <use x="63.623047" xlink:href="#DejaVuSans-30"/>
      </g>
     </g>
    </g>
    <g id="xtick_3">
     <g id="line2d_3">
      <g>
       <use style="stroke:#000000;stroke-width:0.8;" x="220.200893" xlink:href="#mea28e2e966" y="273.312"/>
      </g>
     </g>
     <g id="text_3">
      <!-- 80 -->
      <g transform="translate(213.838393 287.910437)scale(0.1 -0.1)">
       <defs>
        <path d="M 2034 2216 
Q 1584 2216 1326 1975 
Q 1069 1734 1069 1313 
Q 1069 891 1326 650 
Q 1584 409 2034 409 
Q 2484 409 2743 651 
Q 3003 894 3003 1313 
Q 3003 1734 2745 1975 
Q 2488 2216 2034 2216 
z
M 1403 2484 
Q 997 2584 770 2862 
Q 544 3141 544 3541 
Q 544 4100 942 4425 
Q 1341 4750 2034 4750 
Q 2731 4750 3128 4425 
Q 3525 4100 3525 3541 
Q 3525 3141 3298 2862 
Q 3072 2584 2669 2484 
Q 3125 2378 3379 2068 
Q 3634 1759 3634 1313 
Q 3634 634 3220 271 
Q 2806 -91 2034 -91 
Q 1263 -91 848 271 
Q 434 634 434 1313 
Q 434 1759 690 2068 
Q 947 2378 1403 2484 
z
M 1172 3481 
Q 1172 3119 1398 2916 
Q 1625 2713 2034 2713 
Q 2441 2713 2670 2916 
Q 2900 3119 2900 3481 
Q 2900 3844 2670 4047 
Q 2441 4250 2034 4250 
Q 1625 4250 1398 4047 
Q 1172 3844 1172 3481 
z
" id="DejaVuSans-38" transform="scale(0.015625)"/>
       </defs>
       <use xlink:href="#DejaVuSans-38"/>
       <use x="63.623047" xlink:href="#DejaVuSans-30"/>
      </g>
     </g>
    </g>
    <g id="xtick_4">
     <g id="line2d_4">
      <g>
       <use style="stroke:#000000;stroke-width:0.8;" x="288.22375" xlink:href="#mea28e2e966" y="273.312"/>
      </g>
     </g>
     <g id="text_4">
      <!-- 100 -->
      <g transform="translate(278.68 287.910437)scale(0.1 -0.1)">
       <defs>
        <path d="M 794 531 
L 1825 531 
L 1825 4091 
L 703 3866 
L 703 4441 
L 1819 4666 
L 2450 4666 
L 2450 531 
L 3481 531 
L 3481 0 
L 794 0 
L 794 531 
z
" id="DejaVuSans-31" transform="scale(0.015625)"/>
       </defs>
       <use xlink:href="#DejaVuSans-31"/>
       <use x="63.623047" xlink:href="#DejaVuSans-30"/>
       <use x="127.246094" xlink:href="#DejaVuSans-30"/>
      </g>
     </g>
    </g>
    <g id="xtick_5">
     <g id="line2d_5">
      <g>
       <use style="stroke:#000000;stroke-width:0.8;" x="356.246607" xlink:href="#mea28e2e966" y="273.312"/>
      </g>
     </g>
     <g id="text_5">
      <!-- 120 -->
      <g transform="translate(346.702857 287.910437)scale(0.1 -0.1)">
       <defs>
        <path d="M 1228 531 
L 3431 531 
L 3431 0 
L 469 0 
L 469 531 
Q 828 903 1448 1529 
Q 2069 2156 2228 2338 
Q 2531 2678 2651 2914 
Q 2772 3150 2772 3378 
Q 2772 3750 2511 3984 
Q 2250 4219 1831 4219 
Q 1534 4219 1204 4116 
Q 875 4013 500 3803 
L 500 4441 
Q 881 4594 1212 4672 
Q 1544 4750 1819 4750 
Q 2544 4750 2975 4387 
Q 3406 4025 3406 3419 
Q 3406 3131 3298 2873 
Q 3191 2616 2906 2266 
Q 2828 2175 2409 1742 
Q 1991 1309 1228 531 
z
" id="DejaVuSans-32" transform="scale(0.015625)"/>
       </defs>
       <use xlink:href="#DejaVuSans-31"/>
       <use x="63.623047" xlink:href="#DejaVuSans-32"/>
       <use x="127.246094" xlink:href="#DejaVuSans-30"/>
      </g>
     </g>
    </g>
    <g id="text_6">
     <!-- Pressure Drop [Pa] -->
     <g transform="translate(182.399063 301.588562)scale(0.1 -0.1)">
      <defs>
       <path d="M 1259 4147 
L 1259 2394 
L 2053 2394 
Q 2494 2394 2734 2622 
Q 2975 2850 2975 3272 
Q 2975 3691 2734 3919 
Q 2494 4147 2053 4147 
L 1259 4147 
z
M 628 4666 
L 2053 4666 
Q 2838 4666 3239 4311 
Q 3641 3956 3641 3272 
Q 3641 2581 3239 2228 
Q 2838 1875 2053 1875 
L 1259 1875 
L 1259 0 
L 628 0 
L 628 4666 
z
" id="DejaVuSans-50" transform="scale(0.015625)"/>
       <path d="M 2631 2963 
Q 2534 3019 2420 3045 
Q 2306 3072 2169 3072 
Q 1681 3072 1420 2755 
Q 1159 2438 1159 1844 
L 1159 0 
L 581 0 
L 581 3500 
L 1159 3500 
L 1159 2956 
Q 1341 3275 1631 3429 
Q 1922 3584 2338 3584 
Q 2397 3584 2469 3576 
Q 2541 3569 2628 3553 
L 2631 2963 
z
" id="DejaVuSans-72" transform="scale(0.015625)"/>
       <path d="M 3597 1894 
L 3597 1613 
L 953 1613 
Q 991 1019 1311 708 
Q 1631 397 2203 397 
Q 2534 397 2845 478 
Q 3156 559 3463 722 
L 3463 178 
Q 3153 47 2828 -22 
Q 2503 -91 2169 -91 
Q 1331 -91 842 396 
Q 353 884 353 1716 
Q 353 2575 817 3079 
Q 1281 3584 2069 3584 
Q 2775 3584 3186 3129 
Q 3597 2675 3597 1894 
z
M 3022 2063 
Q 3016 2534 2758 2815 
Q 2500 3097 2075 3097 
Q 1594 3097 1305 2825 
Q 1016 2553 972 2059 
L 3022 2063 
z
" id="DejaVuSans-65" transform="scale(0.015625)"/>
       <path d="M 2834 3397 
L 2834 2853 
Q 2591 2978 2328 3040 
Q 2066 3103 1784 3103 
Q 1356 3103 1142 2972 
Q 928 2841 928 2578 
Q 928 2378 1081 2264 
Q 1234 2150 1697 2047 
L 1894 2003 
Q 2506 1872 2764 1633 
Q 3022 1394 3022 966 
Q 3022 478 2636 193 
Q 2250 -91 1575 -91 
Q 1294 -91 989 -36 
Q 684 19 347 128 
L 347 722 
Q 666 556 975 473 
Q 1284 391 1588 391 
Q 1994 391 2212 530 
Q 2431 669 2431 922 
Q 2431 1156 2273 1281 
Q 2116 1406 1581 1522 
L 1381 1569 
Q 847 1681 609 1914 
Q 372 2147 372 2553 
Q 372 3047 722 3315 
Q 1072 3584 1716 3584 
Q 2034 3584 2315 3537 
Q 2597 3491 2834 3397 
z
" id="DejaVuSans-73" transform="scale(0.015625)"/>
       <path d="M 544 1381 
L 544 3500 
L 1119 3500 
L 1119 1403 
Q 1119 906 1312 657 
Q 1506 409 1894 409 
Q 2359 409 2629 706 
Q 2900 1003 2900 1516 
L 2900 3500 
L 3475 3500 
L 3475 0 
L 2900 0 
L 2900 538 
Q 2691 219 2414 64 
Q 2138 -91 1772 -91 
Q 1169 -91 856 284 
Q 544 659 544 1381 
z
M 1991 3584 
L 1991 3584 
z
" id="DejaVuSans-75" transform="scale(0.015625)"/>
       <path id="DejaVuSans-20" transform="scale(0.015625)"/>
       <path d="M 1259 4147 
L 1259 519 
L 2022 519 
Q 2988 519 3436 956 
Q 3884 1394 3884 2338 
Q 3884 3275 3436 3711 
Q 2988 4147 2022 4147 
L 1259 4147 
z
M 628 4666 
L 1925 4666 
Q 3281 4666 3915 4102 
Q 4550 3538 4550 2338 
Q 4550 1131 3912 565 
Q 3275 0 1925 0 
L 628 0 
L 628 4666 
z
" id="DejaVuSans-44" transform="scale(0.015625)"/>
       <path d="M 1959 3097 
Q 1497 3097 1228 2736 
Q 959 2375 959 1747 
Q 959 1119 1226 758 
Q 1494 397 1959 397 
Q 2419 397 2687 759 
Q 2956 1122 2956 1747 
Q 2956 2369 2687 2733 
Q 2419 3097 1959 3097 
z
M 1959 3584 
Q 2709 3584 3137 3096 
Q 3566 2609 3566 1747 
Q 3566 888 3137 398 
Q 2709 -91 1959 -91 
Q 1206 -91 779 398 
Q 353 888 353 1747 
Q 353 2609 779 3096 
Q 1206 3584 1959 3584 
z
" id="DejaVuSans-6f" transform="scale(0.015625)"/>
       <path d="M 1159 525 
L 1159 -1331 
L 581 -1331 
L 581 3500 
L 1159 3500 
L 1159 2969 
Q 1341 3281 1617 3432 
Q 1894 3584 2278 3584 
Q 2916 3584 3314 3078 
Q 3713 2572 3713 1747 
Q 3713 922 3314 415 
Q 2916 -91 2278 -91 
Q 1894 -91 1617 61 
Q 1341 213 1159 525 
z
M 3116 1747 
Q 3116 2381 2855 2742 
Q 2594 3103 2138 3103 
Q 1681 3103 1420 2742 
Q 1159 2381 1159 1747 
Q 1159 1113 1420 752 
Q 1681 391 2138 391 
Q 2594 391 2855 752 
Q 3116 1113 3116 1747 
z
" id="DejaVuSans-70" transform="scale(0.015625)"/>
       <path d="M 550 4863 
L 1875 4863 
L 1875 4416 
L 1125 4416 
L 1125 -397 
L 1875 -397 
L 1875 -844 
L 550 -844 
L 550 4863 
z
" id="DejaVuSans-5b" transform="scale(0.015625)"/>
       <path d="M 2194 1759 
Q 1497 1759 1228 1600 
Q 959 1441 959 1056 
Q 959 750 1161 570 
Q 1363 391 1709 391 
Q 2188 391 2477 730 
Q 2766 1069 2766 1631 
L 2766 1759 
L 2194 1759 
z
M 3341 1997 
L 3341 0 
L 2766 0 
L 2766 531 
Q 2569 213 2275 61 
Q 1981 -91 1556 -91 
Q 1019 -91 701 211 
Q 384 513 384 1019 
Q 384 1609 779 1909 
Q 1175 2209 1959 2209 
L 2766 2209 
L 2766 2266 
Q 2766 2663 2505 2880 
Q 2244 3097 1772 3097 
Q 1472 3097 1187 3025 
Q 903 2953 641 2809 
L 641 3341 
Q 956 3463 1253 3523 
Q 1550 3584 1831 3584 
Q 2591 3584 2966 3190 
Q 3341 2797 3341 1997 
z
" id="DejaVuSans-61" transform="scale(0.015625)"/>
       <path d="M 1947 4863 
L 1947 -844 
L 622 -844 
L 622 -397 
L 1369 -397 
L 1369 4416 
L 622 4416 
L 622 4863 
L 1947 4863 
z
" id="DejaVuSans-5d" transform="scale(0.015625)"/>
      </defs>
      <use xlink:href="#DejaVuSans-50"/>
      <use x="58.552734" xlink:href="#DejaVuSans-72"/>
      <use x="97.416016" xlink:href="#DejaVuSans-65"/>
      <use x="158.939453" xlink:href="#DejaVuSans-73"/>
      <use x="211.039062" xlink:href="#DejaVuSans-73"/>
      <use x="263.138672" xlink:href="#DejaVuSans-75"/>
      <use x="326.517578" xlink:href="#DejaVuSans-72"/>
      <use x="365.380859" xlink:href="#DejaVuSans-65"/>
      <use x="426.904297" xlink:href="#DejaVuSans-20"/>
      <use x="458.691406" xlink:href="#DejaVuSans-44"/>
      <use x="535.693359" xlink:href="#DejaVuSans-72"/>
      <use x="574.556641" xlink:href="#DejaVuSans-6f"/>
      <use x="635.738281" xlink:href="#DejaVuSans-70"/>
      <use x="699.214844" xlink:href="#DejaVuSans-20"/>
      <use x="731.001953" xlink:href="#DejaVuSans-5b"/>
      <use x="770.015625" xlink:href="#DejaVuSans-50"/>
      <use x="825.818359" xlink:href="#DejaVuSans-61"/>
      <use x="887.097656" xlink:href="#DejaVuSans-5d"/>
     </g>
    </g>
   </g>
   <g id="matplotlib.axis_2">
    <g id="ytick_1">
     <g id="line2d_6">
      <defs>
       <path d="M 0 0 
L -3.5 0 
" id="m77bc7c473f" style="stroke:#000000;stroke-width:0.8;"/>
      </defs>
      <g>
       <use style="stroke:#000000;stroke-width:0.8;" x="50.14375" xlink:href="#m77bc7c473f" y="273.312"/>
      </g>
     </g>
     <g id="text_7">
      <!-- 0.70 -->
      <g transform="translate(20.878125 277.111219)scale(0.1 -0.1)">
       <defs>
        <path d="M 684 794 
L 1344 794 
L 1344 0 
L 684 0 
L 684 794 
z
" id="DejaVuSans-2e" transform="scale(0.015625)"/>
        <path d="M 525 4666 
L 3525 4666 
L 3525 4397 
L 1831 0 
L 1172 0 
L 2766 4134 
L 525 4134 
L 525 4666 
z
" id="DejaVuSans-37" transform="scale(0.015625)"/>
       </defs>
       <use xlink:href="#DejaVuSans-30"/>
       <use x="63.623047" xlink:href="#DejaVuSans-2e"/>
       <use x="95.410156" xlink:href="#DejaVuSans-37"/>
       <use x="159.033203" xlink:href="#DejaVuSans-30"/>
      </g>
     </g>
    </g>
    <g id="ytick_2">
     <g id="line2d_7">
      <g>
       <use style="stroke:#000000;stroke-width:0.8;" x="50.14375" xlink:href="#m77bc7c473f" y="230.39071"/>
      </g>
     </g>
     <g id="text_8">
      <!-- 0.75 -->
      <g transform="translate(20.878125 234.189928)scale(0.1 -0.1)">
       <defs>
        <path d="M 691 4666 
L 3169 4666 
L 3169 4134 
L 1269 4134 
L 1269 2991 
Q 1406 3038 1543 3061 
Q 1681 3084 1819 3084 
Q 2600 3084 3056 2656 
Q 3513 2228 3513 1497 
Q 3513 744 3044 326 
Q 2575 -91 1722 -91 
Q 1428 -91 1123 -41 
Q 819 9 494 109 
L 494 744 
Q 775 591 1075 516 
Q 1375 441 1709 441 
Q 2250 441 2565 725 
Q 2881 1009 2881 1497 
Q 2881 1984 2565 2268 
Q 2250 2553 1709 2553 
Q 1456 2553 1204 2497 
Q 953 2441 691 2322 
L 691 4666 
z
" id="DejaVuSans-35" transform="scale(0.015625)"/>
       </defs>
       <use xlink:href="#DejaVuSans-30"/>
       <use x="63.623047" xlink:href="#DejaVuSans-2e"/>
       <use x="95.410156" xlink:href="#DejaVuSans-37"/>
       <use x="159.033203" xlink:href="#DejaVuSans-35"/>
      </g>
     </g>
    </g>
    <g id="ytick_3">
     <g id="line2d_8">
      <g>
       <use style="stroke:#000000;stroke-width:0.8;" x="50.14375" xlink:href="#m77bc7c473f" y="187.469419"/>
      </g>
     </g>
     <g id="text_9">
      <!-- 0.80 -->
      <g transform="translate(20.878125 191.268638)scale(0.1 -0.1)">
       <use xlink:href="#DejaVuSans-30"/>
       <use x="63.623047" xlink:href="#DejaVuSans-2e"/>
       <use x="95.410156" xlink:href="#DejaVuSans-38"/>
       <use x="159.033203" xlink:href="#DejaVuSans-30"/>
      </g>
     </g>
    </g>
    <g id="ytick_4">
     <g id="line2d_9">
      <g>
       <use style="stroke:#000000;stroke-width:0.8;" x="50.14375" xlink:href="#m77bc7c473f" y="144.548129"/>
      </g>
     </g>
     <g id="text_10">
      <!-- 0.85 -->
      <g transform="translate(20.878125 148.347348)scale(0.1 -0.1)">
       <use xlink:href="#DejaVuSans-30"/>
       <use x="63.623047" xlink:href="#DejaVuSans-2e"/>
       <use x="95.410156" xlink:href="#DejaVuSans-38"/>
       <use x="159.033203" xlink:href="#DejaVuSans-35"/>
      </g>
     </g>
    </g>
    <g id="ytick_5">
     <g id="line2d_10">
      <g>
       <use style="stroke:#000000;stroke-width:0.8;" x="50.14375" xlink:href="#m77bc7c473f" y="101.626839"/>
      </g>
     </g>
     <g id="text_11">
      <!-- 0.90 -->
      <g transform="translate(20.878125 105.426057)scale(0.1 -0.1)">
       <defs>
        <path d="M 703 97 
L 703 672 
Q 941 559 1184 500 
Q 1428 441 1663 441 
Q 2288 441 2617 861 
Q 2947 1281 2994 2138 
Q 2813 1869 2534 1725 
Q 2256 1581 1919 1581 
Q 1219 1581 811 2004 
Q 403 2428 403 3163 
Q 403 3881 828 4315 
Q 1253 4750 1959 4750 
Q 2769 4750 3195 4129 
Q 3622 3509 3622 2328 
Q 3622 1225 3098 567 
Q 2575 -91 1691 -91 
Q 1453 -91 1209 -44 
Q 966 3 703 97 
z
M 1959 2075 
Q 2384 2075 2632 2365 
Q 2881 2656 2881 3163 
Q 2881 3666 2632 3958 
Q 2384 4250 1959 4250 
Q 1534 4250 1286 3958 
Q 1038 3666 1038 3163 
Q 1038 2656 1286 2365 
Q 1534 2075 1959 2075 
z
" id="DejaVuSans-39" transform="scale(0.015625)"/>
       </defs>
       <use xlink:href="#DejaVuSans-30"/>
       <use x="63.623047" xlink:href="#DejaVuSans-2e"/>
       <use x="95.410156" xlink:href="#DejaVuSans-39"/>
       <use x="159.033203" xlink:href="#DejaVuSans-30"/>
      </g>
     </g>
    </g>
    <g id="ytick_6">
     <g id="line2d_11">
      <g>
       <use style="stroke:#000000;stroke-width:0.8;" x="50.14375" xlink:href="#m77bc7c473f" y="58.705548"/>
      </g>
     </g>
     <g id="text_12">
      <!-- 0.95 -->
      <g transform="translate(20.878125 62.504767)scale(0.1 -0.1)">
       <use xlink:href="#DejaVuSans-30"/>
       <use x="63.623047" xlink:href="#DejaVuSans-2e"/>
       <use x="95.410156" xlink:href="#DejaVuSans-39"/>
       <use x="159.033203" xlink:href="#DejaVuSans-35"/>
      </g>
     </g>
    </g>
    <g id="ytick_7">
     <g id="line2d_12">
      <g>
       <use style="stroke:#000000;stroke-width:0.8;" x="50.14375" xlink:href="#m77bc7c473f" y="15.784258"/>
      </g>
     </g>
     <g id="text_13">
      <!-- 1.00 -->
      <g transform="translate(20.878125 19.583477)scale(0.1 -0.1)">
       <use xlink:href="#DejaVuSans-31"/>
       <use x="63.623047" xlink:href="#DejaVuSans-2e"/>
       <use x="95.410156" xlink:href="#DejaVuSans-30"/>
       <use x="159.033203" xlink:href="#DejaVuSans-30"/>
      </g>
     </g>
    </g>
    <g id="text_14">
     <!-- Filtration Efficency -->
     <g transform="translate(14.798438 186.565375)rotate(-90)scale(0.1 -0.1)">
      <defs>
       <path d="M 628 4666 
L 3309 4666 
L 3309 4134 
L 1259 4134 
L 1259 2759 
L 3109 2759 
L 3109 2228 
L 1259 2228 
L 1259 0 
L 628 0 
L 628 4666 
z
" id="DejaVuSans-46" transform="scale(0.015625)"/>
       <path d="M 603 3500 
L 1178 3500 
L 1178 0 
L 603 0 
L 603 3500 
z
M 603 4863 
L 1178 4863 
L 1178 4134 
L 603 4134 
L 603 4863 
z
" id="DejaVuSans-69" transform="scale(0.015625)"/>
       <path d="M 603 4863 
L 1178 4863 
L 1178 0 
L 603 0 
L 603 4863 
z
" id="DejaVuSans-6c" transform="scale(0.015625)"/>
       <path d="M 1172 4494 
L 1172 3500 
L 2356 3500 
L 2356 3053 
L 1172 3053 
L 1172 1153 
Q 1172 725 1289 603 
Q 1406 481 1766 481 
L 2356 481 
L 2356 0 
L 1766 0 
Q 1100 0 847 248 
Q 594 497 594 1153 
L 594 3053 
L 172 3053 
L 172 3500 
L 594 3500 
L 594 4494 
L 1172 4494 
z
" id="DejaVuSans-74" transform="scale(0.015625)"/>
       <path d="M 3513 2113 
L 3513 0 
L 2938 0 
L 2938 2094 
Q 2938 2591 2744 2837 
Q 2550 3084 2163 3084 
Q 1697 3084 1428 2787 
Q 1159 2491 1159 1978 
L 1159 0 
L 581 0 
L 581 3500 
L 1159 3500 
L 1159 2956 
Q 1366 3272 1645 3428 
Q 1925 3584 2291 3584 
Q 2894 3584 3203 3211 
Q 3513 2838 3513 2113 
z
" id="DejaVuSans-6e" transform="scale(0.015625)"/>
       <path d="M 628 4666 
L 3578 4666 
L 3578 4134 
L 1259 4134 
L 1259 2753 
L 3481 2753 
L 3481 2222 
L 1259 2222 
L 1259 531 
L 3634 531 
L 3634 0 
L 628 0 
L 628 4666 
z
" id="DejaVuSans-45" transform="scale(0.015625)"/>
       <path d="M 2375 4863 
L 2375 4384 
L 1825 4384 
Q 1516 4384 1395 4259 
Q 1275 4134 1275 3809 
L 1275 3500 
L 2222 3500 
L 2222 3053 
L 1275 3053 
L 1275 0 
L 697 0 
L 697 3053 
L 147 3053 
L 147 3500 
L 697 3500 
L 697 3744 
Q 697 4328 969 4595 
Q 1241 4863 1831 4863 
L 2375 4863 
z
" id="DejaVuSans-66" transform="scale(0.015625)"/>
       <path d="M 3122 3366 
L 3122 2828 
Q 2878 2963 2633 3030 
Q 2388 3097 2138 3097 
Q 1578 3097 1268 2742 
Q 959 2388 959 1747 
Q 959 1106 1268 751 
Q 1578 397 2138 397 
Q 2388 397 2633 464 
Q 2878 531 3122 666 
L 3122 134 
Q 2881 22 2623 -34 
Q 2366 -91 2075 -91 
Q 1284 -91 818 406 
Q 353 903 353 1747 
Q 353 2603 823 3093 
Q 1294 3584 2113 3584 
Q 2378 3584 2631 3529 
Q 2884 3475 3122 3366 
z
" id="DejaVuSans-63" transform="scale(0.015625)"/>
       <path d="M 2059 -325 
Q 1816 -950 1584 -1140 
Q 1353 -1331 966 -1331 
L 506 -1331 
L 506 -850 
L 844 -850 
Q 1081 -850 1212 -737 
Q 1344 -625 1503 -206 
L 1606 56 
L 191 3500 
L 800 3500 
L 1894 763 
L 2988 3500 
L 3597 3500 
L 2059 -325 
z
" id="DejaVuSans-79" transform="scale(0.015625)"/>
      </defs>
      <use xlink:href="#DejaVuSans-46"/>
      <use x="50.269531" xlink:href="#DejaVuSans-69"/>
      <use x="78.052734" xlink:href="#DejaVuSans-6c"/>
      <use x="105.835938" xlink:href="#DejaVuSans-74"/>
      <use x="145.044922" xlink:href="#DejaVuSans-72"/>
      <use x="186.158203" xlink:href="#DejaVuSans-61"/>
      <use x="247.4375" xlink:href="#DejaVuSans-74"/>
      <use x="286.646484" xlink:href="#DejaVuSans-69"/>
      <use x="314.429688" xlink:href="#DejaVuSans-6f"/>
      <use x="375.611328" xlink:href="#DejaVuSans-6e"/>
      <use x="438.990234" xlink:href="#DejaVuSans-20"/>
      <use x="470.777344" xlink:href="#DejaVuSans-45"/>
      <use x="533.960938" xlink:href="#DejaVuSans-66"/>
      <use x="569.166016" xlink:href="#DejaVuSans-66"/>
      <use x="604.371094" xlink:href="#DejaVuSans-69"/>
      <use x="632.154297" xlink:href="#DejaVuSans-63"/>
      <use x="687.134766" xlink:href="#DejaVuSans-65"/>
      <use x="748.658203" xlink:href="#DejaVuSans-6e"/>
      <use x="812.037109" xlink:href="#DejaVuSans-63"/>
      <use x="867.017578" xlink:href="#DejaVuSans-79"/>
     </g>
    </g>
   </g>
   <g id="line2d_13">
    <path clip-path="url(#p96af32f0ce)" d="M 199.794036 28.14559 
L 216.79975 27.888062 
" style="fill:none;stroke:#0d0887;stroke-linecap:square;stroke-width:1.5;"/>
   </g>
   <g id="line2d_14">
    <path clip-path="url(#p96af32f0ce)" d="M 271.218036 19.818859 
L 254.212321 28.231432 
" style="fill:none;stroke:#4c02a1;stroke-linecap:square;stroke-width:1.5;"/>
   </g>
   <g id="line2d_15">
    <path clip-path="url(#p96af32f0ce)" d="M 152.178036 16.986054 
L 152.178036 22.565822 
" style="fill:none;stroke:#7e03a8;stroke-linecap:square;stroke-width:1.5;"/>
   </g>
   <g id="line2d_16">
    <path clip-path="url(#p96af32f0ce)" d="M 63.748321 226.957006 
L 216.79975 15.784258 
" style="fill:none;stroke:#aa2395;stroke-linecap:square;stroke-width:1.5;"/>
   </g>
   <g id="line2d_17">
    <path clip-path="url(#p96af32f0ce)" d="M 199.794036 15.784258 
L 189.590607 15.784258 
" style="fill:none;stroke:#cc4778;stroke-linecap:square;stroke-width:1.5;"/>
   </g>
   <g id="line2d_18">
    <path clip-path="url(#p96af32f0ce)" d="M 97.75975 165.922932 
L 97.75975 207.814111 
" style="fill:none;stroke:#e66c5c;stroke-linecap:square;stroke-width:1.5;"/>
   </g>
   <g id="line2d_19">
    <path clip-path="url(#p96af32f0ce)" d="M 175.986036 90.03809 
L 257.613464 84.458323 
" style="fill:none;stroke:#f89540;stroke-linecap:square;stroke-width:1.5;"/>
   </g>
   <g id="line2d_20">
    <path clip-path="url(#p96af32f0ce)" d="M 386.856893 15.784258 
" style="fill:none;stroke:#fdc527;stroke-linecap:square;stroke-width:1.5;"/>
   </g>
   <g id="line2d_21">
    <path clip-path="url(#p96af32f0ce)" d="M 0 0 
" style="fill:none;stroke:#858585;stroke-dasharray:1.5,2.475;stroke-dashoffset:0;stroke-opacity:0.5;stroke-width:1.5;"/>
   </g>
   <g id="line2d_22">
    <path clip-path="url(#p96af32f0ce)" d="M 0 0 
" style="fill:none;stroke:#858585;stroke-dasharray:1.5,2.475;stroke-dashoffset:0;stroke-opacity:0.5;stroke-width:1.5;"/>
   </g>
   <g id="line2d_23">
    <path clip-path="url(#p96af32f0ce)" d="M 0 0 
" style="fill:none;stroke:#858585;stroke-dasharray:1.5,2.475;stroke-dashoffset:0;stroke-opacity:0.5;stroke-width:1.5;"/>
   </g>
   <g id="line2d_24">
    <path clip-path="url(#p96af32f0ce)" d="M 310.146811 311.86825 
L 320.834708 302.70841 
L 331.638338 293.737581 
L 342.441968 285.047229 
L 353.245599 276.628586 
L 364.049229 268.473156 
L 374.852859 260.572709 
L 385.656489 252.919274 
L 396.46012 245.505127 
L 407.26375 238.322788 
L 407.26375 238.322788 
" style="fill:none;stroke:#858585;stroke-dasharray:1.5,2.475;stroke-dashoffset:0;stroke-opacity:0.5;stroke-width:1.5;"/>
   </g>
   <g id="line2d_25">
    <path clip-path="url(#p96af32f0ce)" d="M 129.130368 311.86825 
L 135.372389 301.193413 
L 142.574809 289.3579 
L 149.777229 278.013188 
L 156.979649 267.138926 
L 164.182069 256.715603 
L 171.384489 246.724522 
L 178.58691 237.147756 
L 185.78933 227.968125 
L 192.99175 219.16916 
L 200.19417 210.735076 
L 207.39659 202.650742 
L 214.599011 194.901653 
L 221.801431 187.473909 
L 229.003851 180.354182 
L 236.206271 173.5297 
L 243.408691 166.98822 
L 250.611111 160.718006 
L 257.813532 154.707808 
L 265.015952 148.946845 
L 272.218372 143.424781 
L 279.420792 138.13171 
L 288.423817 131.822961 
L 297.426842 125.839518 
L 306.429868 120.164607 
L 315.432893 114.782318 
L 324.435918 109.677562 
L 333.438943 104.836029 
L 342.441968 100.244146 
L 351.444994 95.88904 
L 360.448019 91.758501 
L 369.451044 87.84095 
L 380.254674 83.40561 
L 391.058305 79.24328 
L 401.861935 75.337156 
L 407.26375 73.475205 
L 407.26375 73.475205 
" style="fill:none;stroke:#858585;stroke-dasharray:1.5,2.475;stroke-dashoffset:0;stroke-opacity:0.5;stroke-width:1.5;"/>
   </g>
   <g id="line2d_26">
    <path clip-path="url(#p96af32f0ce)" d="M 20.520879 311.86825 
L 23.734876 298.187377 
L 27.336086 283.625486 
L 30.937296 269.814468 
L 34.538506 256.715603 
L 38.139716 244.292172 
L 41.740926 232.509344 
L 45.342137 221.334089 
L 48.943347 210.735076 
L 52.544557 200.682594 
L 56.145767 191.148459 
L 59.746977 182.105945 
L 63.348187 173.5297 
L 66.949397 165.395683 
L 70.550607 157.681089 
L 74.151817 150.364293 
L 77.753027 143.424781 
L 81.354237 136.8431 
L 84.955447 130.600798 
L 88.556658 124.680375 
L 92.157868 119.065234 
L 95.759078 113.739633 
L 99.360288 108.688643 
L 102.961498 103.898103 
L 108.363313 97.171449 
L 113.765128 90.958311 
L 119.166943 85.219488 
L 124.568758 79.918769 
L 129.970574 75.022709 
L 135.372389 70.500417 
L 140.774204 66.323359 
L 146.176019 62.46518 
L 151.577834 58.901535 
L 156.979649 55.609942 
L 162.381464 52.56963 
L 167.783279 49.761417 
L 173.185095 47.167584 
L 178.58691 44.771766 
L 185.78933 41.859404 
L 192.99175 39.239647 
L 200.19417 36.883095 
L 207.39659 34.763304 
L 214.599011 32.856489 
L 223.602036 30.740074 
L 232.605061 28.886028 
L 241.608086 27.261824 
L 250.611111 25.838971 
L 261.414742 24.362405 
L 272.218372 23.102677 
L 284.822607 21.864839 
L 299.227447 20.704391 
L 313.632288 19.765409 
L 329.837733 18.921473 
L 349.644389 18.128962 
L 371.251649 17.490873 
L 398.260725 16.931606 
L 407.26375 16.789371 
L 407.26375 16.789371 
" style="fill:none;stroke:#858585;stroke-dasharray:1.5,2.475;stroke-dashoffset:0;stroke-opacity:0.5;stroke-width:1.5;"/>
   </g>
   <g id="line2d_27">
    <path clip-path="url(#p96af32f0ce)" d="M -1 208.091076 
L 2.127616 191.148459 
L 5.728826 173.5297 
L 9.330036 157.681089 
L 12.931246 143.424781 
L 16.532456 130.600798 
L 20.133666 119.065234 
L 23.734876 108.688643 
L 27.336086 99.354583 
L 30.937296 90.958311 
L 34.538506 83.40561 
L 38.139716 76.611724 
L 41.740926 70.500417 
L 45.342137 65.00311 
L 48.943347 60.058115 
L 52.544557 55.609942 
L 56.145767 51.608674 
L 59.746977 48.009412 
L 63.348187 44.771766 
L 66.949397 41.859404 
L 70.550607 39.239647 
L 74.151817 36.883095 
L 77.753027 34.763304 
L 81.354237 32.856489 
L 84.955447 31.14125 
L 90.357263 28.886028 
L 95.759078 26.961992 
L 101.160893 25.320507 
L 106.562708 23.92008 
L 111.964523 22.725309 
L 119.166943 21.400645 
L 126.369363 20.328786 
L 133.571784 19.461486 
L 142.574809 18.606279 
L 153.378439 17.838293 
L 165.982674 17.202216 
L 180.387515 16.712641 
L 198.393565 16.33103 
L 223.602036 16.044824 
L 261.414742 15.869978 
L 337.040153 15.793535 
L 407.26375 15.785435 
L 407.26375 15.785435 
" style="fill:none;stroke:#858585;stroke-dasharray:1.5,2.475;stroke-dashoffset:0;stroke-opacity:0.5;stroke-width:1.5;"/>
   </g>
   <g id="line2d_28">
    <path clip-path="url(#p96af32f0ce)" d="M -1 58.888158 
L 0.327011 55.609942 
L 2.127616 51.608674 
L 3.928221 48.009412 
L 5.728826 44.771766 
L 7.529431 41.859404 
L 9.330036 39.239647 
L 11.130641 36.883095 
L 12.931246 34.763304 
L 14.731851 32.856489 
L 16.532456 31.14125 
L 18.333061 29.59834 
L 21.934271 26.961992 
L 25.535481 24.828778 
L 29.136691 23.102677 
L 32.737901 21.705994 
L 36.339111 20.575861 
L 39.940321 19.661408 
L 45.342137 18.606279 
L 50.743952 17.838293 
L 56.145767 17.279307 
L 63.348187 16.763114 
L 72.351212 16.360757 
L 84.955447 16.05899 
L 102.961498 15.879553 
L 138.973599 15.795723 
L 329.837733 15.784258 
L 407.26375 15.784258 
L 407.26375 15.784258 
" style="fill:none;stroke:#858585;stroke-dasharray:1.5,2.475;stroke-dashoffset:0;stroke-opacity:0.5;stroke-width:1.5;"/>
   </g>
   <g id="line2d_29">
    <path clip-path="url(#p96af32f0ce)" d="M -1 16.271115 
L 3.928221 16.018645 
L 12.931246 15.84665 
L 32.737901 15.787651 
L 293.825632 15.784258 
L 407.26375 15.784258 
L 407.26375 15.784258 
" style="fill:none;stroke:#858585;stroke-dasharray:1.5,2.475;stroke-dashoffset:0;stroke-opacity:0.5;stroke-width:1.5;"/>
   </g>
   <g id="patch_3">
    <path d="M 50.14375 273.312 
L 50.14375 7.2 
" style="fill:none;stroke:#000000;stroke-linecap:square;stroke-linejoin:miter;stroke-width:0.8;"/>
   </g>
   <g id="patch_4">
    <path d="M 407.26375 273.312 
L 407.26375 7.2 
" style="fill:none;stroke:#000000;stroke-linecap:square;stroke-linejoin:miter;stroke-width:0.8;"/>
   </g>
   <g id="patch_5">
    <path d="M 50.14375 273.312 
L 407.26375 273.312 
" style="fill:none;stroke:#000000;stroke-linecap:square;stroke-linejoin:miter;stroke-width:0.8;"/>
   </g>
   <g id="patch_6">
    <path d="M 50.14375 7.2 
L 407.26375 7.2 
" style="fill:none;stroke:#000000;stroke-linecap:square;stroke-linejoin:miter;stroke-width:0.8;"/>
   </g>
   <g id="legend_1">
    <g id="patch_7">
     <path d="M 432.11975 250.05 
L 559.840063 250.05 
Q 561.840063 250.05 561.840063 248.05 
L 561.840063 14.2 
Q 561.840063 12.2 559.840063 12.2 
L 432.11975 12.2 
Q 430.11975 12.2 430.11975 14.2 
L 430.11975 248.05 
Q 430.11975 250.05 432.11975 250.05 
z
" style="fill:#ffffff;opacity:0.8;stroke:#cccccc;stroke-linejoin:miter;"/>
    </g>
    <g id="PathCollection_17">
     <g>
      <use style="fill:#0d0887;stroke:#0d0887;" x="444.11975" xlink:href="#ma7b7e61072" y="21.173437"/>
     </g>
    </g>
    <g id="text_15">
     <!-- Mask A Theoretical -->
     <g transform="translate(462.11975 23.798437)scale(0.1 -0.1)">
      <defs>
       <path d="M 628 4666 
L 1569 4666 
L 2759 1491 
L 3956 4666 
L 4897 4666 
L 4897 0 
L 4281 0 
L 4281 4097 
L 3078 897 
L 2444 897 
L 1241 4097 
L 1241 0 
L 628 0 
L 628 4666 
z
" id="DejaVuSans-4d" transform="scale(0.015625)"/>
       <path d="M 581 4863 
L 1159 4863 
L 1159 1991 
L 2875 3500 
L 3609 3500 
L 1753 1863 
L 3688 0 
L 2938 0 
L 1159 1709 
L 1159 0 
L 581 0 
L 581 4863 
z
" id="DejaVuSans-6b" transform="scale(0.015625)"/>
       <path d="M 2188 4044 
L 1331 1722 
L 3047 1722 
L 2188 4044 
z
M 1831 4666 
L 2547 4666 
L 4325 0 
L 3669 0 
L 3244 1197 
L 1141 1197 
L 716 0 
L 50 0 
L 1831 4666 
z
" id="DejaVuSans-41" transform="scale(0.015625)"/>
       <path d="M -19 4666 
L 3928 4666 
L 3928 4134 
L 2272 4134 
L 2272 0 
L 1638 0 
L 1638 4134 
L -19 4134 
L -19 4666 
z
" id="DejaVuSans-54" transform="scale(0.015625)"/>
       <path d="M 3513 2113 
L 3513 0 
L 2938 0 
L 2938 2094 
Q 2938 2591 2744 2837 
Q 2550 3084 2163 3084 
Q 1697 3084 1428 2787 
Q 1159 2491 1159 1978 
L 1159 0 
L 581 0 
L 581 4863 
L 1159 4863 
L 1159 2956 
Q 1366 3272 1645 3428 
Q 1925 3584 2291 3584 
Q 2894 3584 3203 3211 
Q 3513 2838 3513 2113 
z
" id="DejaVuSans-68" transform="scale(0.015625)"/>
      </defs>
      <use xlink:href="#DejaVuSans-4d"/>
      <use x="86.279297" xlink:href="#DejaVuSans-61"/>
      <use x="147.558594" xlink:href="#DejaVuSans-73"/>
      <use x="199.658203" xlink:href="#DejaVuSans-6b"/>
      <use x="257.568359" xlink:href="#DejaVuSans-20"/>
      <use x="289.355469" xlink:href="#DejaVuSans-41"/>
      <use x="357.763672" xlink:href="#DejaVuSans-20"/>
      <use x="389.550781" xlink:href="#DejaVuSans-54"/>
      <use x="450.634766" xlink:href="#DejaVuSans-68"/>
      <use x="514.013672" xlink:href="#DejaVuSans-65"/>
      <use x="575.537109" xlink:href="#DejaVuSans-6f"/>
      <use x="636.71875" xlink:href="#DejaVuSans-72"/>
      <use x="675.582031" xlink:href="#DejaVuSans-65"/>
      <use x="737.105469" xlink:href="#DejaVuSans-74"/>
      <use x="776.314453" xlink:href="#DejaVuSans-69"/>
      <use x="804.097656" xlink:href="#DejaVuSans-63"/>
      <use x="859.078125" xlink:href="#DejaVuSans-61"/>
      <use x="920.357422" xlink:href="#DejaVuSans-6c"/>
     </g>
    </g>
    <g id="PathCollection_18">
     <path d="M 444.11975 38.851562 
C 444.915359 38.851562 445.67849 38.535464 446.24107 37.972883 
C 446.803651 37.410302 447.11975 36.647172 447.11975 35.851562 
C 447.11975 35.055953 446.803651 34.292823 446.24107 33.730242 
C 445.67849 33.167661 444.915359 32.851562 444.11975 32.851562 
C 443.324141 32.851562 442.56101 33.167661 441.99843 33.730242 
C 441.435849 34.292823 441.11975 35.055953 441.11975 35.851562 
C 441.11975 36.647172 441.435849 37.410302 441.99843 37.972883 
C 442.56101 38.535464 443.324141 38.851562 444.11975 38.851562 
z
" style="fill:none;stroke:#0d0887;"/>
    </g>
    <g id="text_16">
     <!-- Mask A Measured -->
     <g transform="translate(462.11975 38.476562)scale(0.1 -0.1)">
      <defs>
       <path d="M 2906 2969 
L 2906 4863 
L 3481 4863 
L 3481 0 
L 2906 0 
L 2906 525 
Q 2725 213 2448 61 
Q 2172 -91 1784 -91 
Q 1150 -91 751 415 
Q 353 922 353 1747 
Q 353 2572 751 3078 
Q 1150 3584 1784 3584 
Q 2172 3584 2448 3432 
Q 2725 3281 2906 2969 
z
M 947 1747 
Q 947 1113 1208 752 
Q 1469 391 1925 391 
Q 2381 391 2643 752 
Q 2906 1113 2906 1747 
Q 2906 2381 2643 2742 
Q 2381 3103 1925 3103 
Q 1469 3103 1208 2742 
Q 947 2381 947 1747 
z
" id="DejaVuSans-64" transform="scale(0.015625)"/>
      </defs>
      <use xlink:href="#DejaVuSans-4d"/>
      <use x="86.279297" xlink:href="#DejaVuSans-61"/>
      <use x="147.558594" xlink:href="#DejaVuSans-73"/>
      <use x="199.658203" xlink:href="#DejaVuSans-6b"/>
      <use x="257.568359" xlink:href="#DejaVuSans-20"/>
      <use x="289.355469" xlink:href="#DejaVuSans-41"/>
      <use x="357.763672" xlink:href="#DejaVuSans-20"/>
      <use x="389.550781" xlink:href="#DejaVuSans-4d"/>
      <use x="475.830078" xlink:href="#DejaVuSans-65"/>
      <use x="537.353516" xlink:href="#DejaVuSans-61"/>
      <use x="598.632812" xlink:href="#DejaVuSans-73"/>
      <use x="650.732422" xlink:href="#DejaVuSans-75"/>
      <use x="714.111328" xlink:href="#DejaVuSans-72"/>
      <use x="752.974609" xlink:href="#DejaVuSans-65"/>
      <use x="814.498047" xlink:href="#DejaVuSans-64"/>
     </g>
    </g>
    <g id="PathCollection_19">
     <g>
      <use style="fill:#4c02a1;stroke:#4c02a1;" x="444.11975" xlink:href="#mfa178e56c8" y="50.529687"/>
     </g>
    </g>
    <g id="text_17">
     <!-- Mask B Theoretical -->
     <g transform="translate(462.11975 53.154687)scale(0.1 -0.1)">
      <defs>
       <path d="M 1259 2228 
L 1259 519 
L 2272 519 
Q 2781 519 3026 730 
Q 3272 941 3272 1375 
Q 3272 1813 3026 2020 
Q 2781 2228 2272 2228 
L 1259 2228 
z
M 1259 4147 
L 1259 2741 
L 2194 2741 
Q 2656 2741 2882 2914 
Q 3109 3088 3109 3444 
Q 3109 3797 2882 3972 
Q 2656 4147 2194 4147 
L 1259 4147 
z
M 628 4666 
L 2241 4666 
Q 2963 4666 3353 4366 
Q 3744 4066 3744 3513 
Q 3744 3084 3544 2831 
Q 3344 2578 2956 2516 
Q 3422 2416 3680 2098 
Q 3938 1781 3938 1306 
Q 3938 681 3513 340 
Q 3088 0 2303 0 
L 628 0 
L 628 4666 
z
" id="DejaVuSans-42" transform="scale(0.015625)"/>
      </defs>
      <use xlink:href="#DejaVuSans-4d"/>
      <use x="86.279297" xlink:href="#DejaVuSans-61"/>
      <use x="147.558594" xlink:href="#DejaVuSans-73"/>
      <use x="199.658203" xlink:href="#DejaVuSans-6b"/>
      <use x="257.568359" xlink:href="#DejaVuSans-20"/>
      <use x="289.355469" xlink:href="#DejaVuSans-42"/>
      <use x="357.958984" xlink:href="#DejaVuSans-20"/>
      <use x="389.746094" xlink:href="#DejaVuSans-54"/>
      <use x="450.830078" xlink:href="#DejaVuSans-68"/>
      <use x="514.208984" xlink:href="#DejaVuSans-65"/>
      <use x="575.732422" xlink:href="#DejaVuSans-6f"/>
      <use x="636.914062" xlink:href="#DejaVuSans-72"/>
      <use x="675.777344" xlink:href="#DejaVuSans-65"/>
      <use x="737.300781" xlink:href="#DejaVuSans-74"/>
      <use x="776.509766" xlink:href="#DejaVuSans-69"/>
      <use x="804.292969" xlink:href="#DejaVuSans-63"/>
      <use x="859.273438" xlink:href="#DejaVuSans-61"/>
      <use x="920.552734" xlink:href="#DejaVuSans-6c"/>
     </g>
    </g>
    <g id="PathCollection_20">
     <path d="M 444.11975 68.207812 
C 444.915359 68.207812 445.67849 67.891714 446.24107 67.329133 
C 446.803651 66.766552 447.11975 66.003422 447.11975 65.207812 
C 447.11975 64.412203 446.803651 63.649073 446.24107 63.086492 
C 445.67849 62.523911 444.915359 62.207812 444.11975 62.207812 
C 443.324141 62.207812 442.56101 62.523911 441.99843 63.086492 
C 441.435849 63.649073 441.11975 64.412203 441.11975 65.207812 
C 441.11975 66.003422 441.435849 66.766552 441.99843 67.329133 
C 442.56101 67.891714 443.324141 68.207812 444.11975 68.207812 
z
" style="fill:none;stroke:#4c02a1;"/>
    </g>
    <g id="text_18">
     <!-- Mask B Measured -->
     <g transform="translate(462.11975 67.832812)scale(0.1 -0.1)">
      <use xlink:href="#DejaVuSans-4d"/>
      <use x="86.279297" xlink:href="#DejaVuSans-61"/>
      <use x="147.558594" xlink:href="#DejaVuSans-73"/>
      <use x="199.658203" xlink:href="#DejaVuSans-6b"/>
      <use x="257.568359" xlink:href="#DejaVuSans-20"/>
      <use x="289.355469" xlink:href="#DejaVuSans-42"/>
      <use x="357.958984" xlink:href="#DejaVuSans-20"/>
      <use x="389.746094" xlink:href="#DejaVuSans-4d"/>
      <use x="476.025391" xlink:href="#DejaVuSans-65"/>
      <use x="537.548828" xlink:href="#DejaVuSans-61"/>
      <use x="598.828125" xlink:href="#DejaVuSans-73"/>
      <use x="650.927734" xlink:href="#DejaVuSans-75"/>
      <use x="714.306641" xlink:href="#DejaVuSans-72"/>
      <use x="753.169922" xlink:href="#DejaVuSans-65"/>
      <use x="814.693359" xlink:href="#DejaVuSans-64"/>
     </g>
    </g>
    <g id="PathCollection_21">
     <g>
      <use style="fill:#7e03a8;stroke:#7e03a8;" x="444.11975" xlink:href="#m2d0488df33" y="79.885937"/>
     </g>
    </g>
    <g id="text_19">
     <!-- Mask C Theoretical -->
     <g transform="translate(462.11975 82.510937)scale(0.1 -0.1)">
      <defs>
       <path d="M 4122 4306 
L 4122 3641 
Q 3803 3938 3442 4084 
Q 3081 4231 2675 4231 
Q 1875 4231 1450 3742 
Q 1025 3253 1025 2328 
Q 1025 1406 1450 917 
Q 1875 428 2675 428 
Q 3081 428 3442 575 
Q 3803 722 4122 1019 
L 4122 359 
Q 3791 134 3420 21 
Q 3050 -91 2638 -91 
Q 1578 -91 968 557 
Q 359 1206 359 2328 
Q 359 3453 968 4101 
Q 1578 4750 2638 4750 
Q 3056 4750 3426 4639 
Q 3797 4528 4122 4306 
z
" id="DejaVuSans-43" transform="scale(0.015625)"/>
      </defs>
      <use xlink:href="#DejaVuSans-4d"/>
      <use x="86.279297" xlink:href="#DejaVuSans-61"/>
      <use x="147.558594" xlink:href="#DejaVuSans-73"/>
      <use x="199.658203" xlink:href="#DejaVuSans-6b"/>
      <use x="257.568359" xlink:href="#DejaVuSans-20"/>
      <use x="289.355469" xlink:href="#DejaVuSans-43"/>
      <use x="359.179688" xlink:href="#DejaVuSans-20"/>
      <use x="390.966797" xlink:href="#DejaVuSans-54"/>
      <use x="452.050781" xlink:href="#DejaVuSans-68"/>
      <use x="515.429688" xlink:href="#DejaVuSans-65"/>
      <use x="576.953125" xlink:href="#DejaVuSans-6f"/>
      <use x="638.134766" xlink:href="#DejaVuSans-72"/>
      <use x="676.998047" xlink:href="#DejaVuSans-65"/>
      <use x="738.521484" xlink:href="#DejaVuSans-74"/>
      <use x="777.730469" xlink:href="#DejaVuSans-69"/>
      <use x="805.513672" xlink:href="#DejaVuSans-63"/>
      <use x="860.494141" xlink:href="#DejaVuSans-61"/>
      <use x="921.773438" xlink:href="#DejaVuSans-6c"/>
     </g>
    </g>
    <g id="PathCollection_22">
     <path d="M 444.11975 97.564063 
C 444.915359 97.564063 445.67849 97.247964 446.24107 96.685383 
C 446.803651 96.122802 447.11975 95.359672 447.11975 94.564063 
C 447.11975 93.768453 446.803651 93.005323 446.24107 92.442742 
C 445.67849 91.880161 444.915359 91.564063 444.11975 91.564063 
C 443.324141 91.564063 442.56101 91.880161 441.99843 92.442742 
C 441.435849 93.005323 441.11975 93.768453 441.11975 94.564063 
C 441.11975 95.359672 441.435849 96.122802 441.99843 96.685383 
C 442.56101 97.247964 443.324141 97.564063 444.11975 97.564063 
z
" style="fill:none;stroke:#7e03a8;"/>
    </g>
    <g id="text_20">
     <!-- Mask C Measured -->
     <g transform="translate(462.11975 97.189063)scale(0.1 -0.1)">
      <use xlink:href="#DejaVuSans-4d"/>
      <use x="86.279297" xlink:href="#DejaVuSans-61"/>
      <use x="147.558594" xlink:href="#DejaVuSans-73"/>
      <use x="199.658203" xlink:href="#DejaVuSans-6b"/>
      <use x="257.568359" xlink:href="#DejaVuSans-20"/>
      <use x="289.355469" xlink:href="#DejaVuSans-43"/>
      <use x="359.179688" xlink:href="#DejaVuSans-20"/>
      <use x="390.966797" xlink:href="#DejaVuSans-4d"/>
      <use x="477.246094" xlink:href="#DejaVuSans-65"/>
      <use x="538.769531" xlink:href="#DejaVuSans-61"/>
      <use x="600.048828" xlink:href="#DejaVuSans-73"/>
      <use x="652.148438" xlink:href="#DejaVuSans-75"/>
      <use x="715.527344" xlink:href="#DejaVuSans-72"/>
      <use x="754.390625" xlink:href="#DejaVuSans-65"/>
      <use x="815.914062" xlink:href="#DejaVuSans-64"/>
     </g>
    </g>
    <g id="PathCollection_23">
     <g>
      <use style="fill:#aa2395;stroke:#aa2395;" x="444.11975" xlink:href="#m08e03e8830" y="109.242187"/>
     </g>
    </g>
    <g id="text_21">
     <!-- Mask D Theoretical -->
     <g transform="translate(462.11975 111.867187)scale(0.1 -0.1)">
      <use xlink:href="#DejaVuSans-4d"/>
      <use x="86.279297" xlink:href="#DejaVuSans-61"/>
      <use x="147.558594" xlink:href="#DejaVuSans-73"/>
      <use x="199.658203" xlink:href="#DejaVuSans-6b"/>
      <use x="257.568359" xlink:href="#DejaVuSans-20"/>
      <use x="289.355469" xlink:href="#DejaVuSans-44"/>
      <use x="366.357422" xlink:href="#DejaVuSans-20"/>
      <use x="398.144531" xlink:href="#DejaVuSans-54"/>
      <use x="459.228516" xlink:href="#DejaVuSans-68"/>
      <use x="522.607422" xlink:href="#DejaVuSans-65"/>
      <use x="584.130859" xlink:href="#DejaVuSans-6f"/>
      <use x="645.3125" xlink:href="#DejaVuSans-72"/>
      <use x="684.175781" xlink:href="#DejaVuSans-65"/>
      <use x="745.699219" xlink:href="#DejaVuSans-74"/>
      <use x="784.908203" xlink:href="#DejaVuSans-69"/>
      <use x="812.691406" xlink:href="#DejaVuSans-63"/>
      <use x="867.671875" xlink:href="#DejaVuSans-61"/>
      <use x="928.951172" xlink:href="#DejaVuSans-6c"/>
     </g>
    </g>
    <g id="PathCollection_24">
     <path d="M 444.11975 126.920312 
C 444.915359 126.920312 445.67849 126.604214 446.24107 126.041633 
C 446.803651 125.479052 447.11975 124.715922 447.11975 123.920312 
C 447.11975 123.124703 446.803651 122.361573 446.24107 121.798992 
C 445.67849 121.236411 444.915359 120.920312 444.11975 120.920312 
C 443.324141 120.920312 442.56101 121.236411 441.99843 121.798992 
C 441.435849 122.361573 441.11975 123.124703 441.11975 123.920312 
C 441.11975 124.715922 441.435849 125.479052 441.99843 126.041633 
C 442.56101 126.604214 443.324141 126.920312 444.11975 126.920312 
z
" style="fill:none;stroke:#aa2395;"/>
    </g>
    <g id="text_22">
     <!-- Mask D Measured -->
     <g transform="translate(462.11975 126.545312)scale(0.1 -0.1)">
      <use xlink:href="#DejaVuSans-4d"/>
      <use x="86.279297" xlink:href="#DejaVuSans-61"/>
      <use x="147.558594" xlink:href="#DejaVuSans-73"/>
      <use x="199.658203" xlink:href="#DejaVuSans-6b"/>
      <use x="257.568359" xlink:href="#DejaVuSans-20"/>
      <use x="289.355469" xlink:href="#DejaVuSans-44"/>
      <use x="366.357422" xlink:href="#DejaVuSans-20"/>
      <use x="398.144531" xlink:href="#DejaVuSans-4d"/>
      <use x="484.423828" xlink:href="#DejaVuSans-65"/>
      <use x="545.947266" xlink:href="#DejaVuSans-61"/>
      <use x="607.226562" xlink:href="#DejaVuSans-73"/>
      <use x="659.326172" xlink:href="#DejaVuSans-75"/>
      <use x="722.705078" xlink:href="#DejaVuSans-72"/>
      <use x="761.568359" xlink:href="#DejaVuSans-65"/>
      <use x="823.091797" xlink:href="#DejaVuSans-64"/>
     </g>
    </g>
    <g id="PathCollection_25">
     <g>
      <use style="fill:#cc4778;stroke:#cc4778;" x="444.11975" xlink:href="#m2057d0c93e" y="138.598437"/>
     </g>
    </g>
    <g id="text_23">
     <!-- Mask E Theoretical -->
     <g transform="translate(462.11975 141.223437)scale(0.1 -0.1)">
      <use xlink:href="#DejaVuSans-4d"/>
      <use x="86.279297" xlink:href="#DejaVuSans-61"/>
      <use x="147.558594" xlink:href="#DejaVuSans-73"/>
      <use x="199.658203" xlink:href="#DejaVuSans-6b"/>
      <use x="257.568359" xlink:href="#DejaVuSans-20"/>
      <use x="289.355469" xlink:href="#DejaVuSans-45"/>
      <use x="352.539062" xlink:href="#DejaVuSans-20"/>
      <use x="384.326172" xlink:href="#DejaVuSans-54"/>
      <use x="445.410156" xlink:href="#DejaVuSans-68"/>
      <use x="508.789062" xlink:href="#DejaVuSans-65"/>
      <use x="570.3125" xlink:href="#DejaVuSans-6f"/>
      <use x="631.494141" xlink:href="#DejaVuSans-72"/>
      <use x="670.357422" xlink:href="#DejaVuSans-65"/>
      <use x="731.880859" xlink:href="#DejaVuSans-74"/>
      <use x="771.089844" xlink:href="#DejaVuSans-69"/>
      <use x="798.873047" xlink:href="#DejaVuSans-63"/>
      <use x="853.853516" xlink:href="#DejaVuSans-61"/>
      <use x="915.132812" xlink:href="#DejaVuSans-6c"/>
     </g>
    </g>
    <g id="PathCollection_26">
     <path d="M 444.11975 156.276562 
C 444.915359 156.276562 445.67849 155.960464 446.24107 155.397883 
C 446.803651 154.835302 447.11975 154.072172 447.11975 153.276562 
C 447.11975 152.480953 446.803651 151.717823 446.24107 151.155242 
C 445.67849 150.592661 444.915359 150.276562 444.11975 150.276562 
C 443.324141 150.276562 442.56101 150.592661 441.99843 151.155242 
C 441.435849 151.717823 441.11975 152.480953 441.11975 153.276562 
C 441.11975 154.072172 441.435849 154.835302 441.99843 155.397883 
C 442.56101 155.960464 443.324141 156.276562 444.11975 156.276562 
z
" style="fill:none;stroke:#cc4778;"/>
    </g>
    <g id="text_24">
     <!-- Mask E Measured -->
     <g transform="translate(462.11975 155.901562)scale(0.1 -0.1)">
      <use xlink:href="#DejaVuSans-4d"/>
      <use x="86.279297" xlink:href="#DejaVuSans-61"/>
      <use x="147.558594" xlink:href="#DejaVuSans-73"/>
      <use x="199.658203" xlink:href="#DejaVuSans-6b"/>
      <use x="257.568359" xlink:href="#DejaVuSans-20"/>
      <use x="289.355469" xlink:href="#DejaVuSans-45"/>
      <use x="352.539062" xlink:href="#DejaVuSans-20"/>
      <use x="384.326172" xlink:href="#DejaVuSans-4d"/>
      <use x="470.605469" xlink:href="#DejaVuSans-65"/>
      <use x="532.128906" xlink:href="#DejaVuSans-61"/>
      <use x="593.408203" xlink:href="#DejaVuSans-73"/>
      <use x="645.507812" xlink:href="#DejaVuSans-75"/>
      <use x="708.886719" xlink:href="#DejaVuSans-72"/>
      <use x="747.75" xlink:href="#DejaVuSans-65"/>
      <use x="809.273438" xlink:href="#DejaVuSans-64"/>
     </g>
    </g>
    <g id="PathCollection_27">
     <g>
      <use style="fill:#e66c5c;stroke:#e66c5c;" x="444.11975" xlink:href="#m89453a887b" y="167.954687"/>
     </g>
    </g>
    <g id="text_25">
     <!-- Mask F Theoretical -->
     <g transform="translate(462.11975 170.579687)scale(0.1 -0.1)">
      <use xlink:href="#DejaVuSans-4d"/>
      <use x="86.279297" xlink:href="#DejaVuSans-61"/>
      <use x="147.558594" xlink:href="#DejaVuSans-73"/>
      <use x="199.658203" xlink:href="#DejaVuSans-6b"/>
      <use x="257.568359" xlink:href="#DejaVuSans-20"/>
      <use x="289.355469" xlink:href="#DejaVuSans-46"/>
      <use x="346.875" xlink:href="#DejaVuSans-20"/>
      <use x="378.662109" xlink:href="#DejaVuSans-54"/>
      <use x="439.746094" xlink:href="#DejaVuSans-68"/>
      <use x="503.125" xlink:href="#DejaVuSans-65"/>
      <use x="564.648438" xlink:href="#DejaVuSans-6f"/>
      <use x="625.830078" xlink:href="#DejaVuSans-72"/>
      <use x="664.693359" xlink:href="#DejaVuSans-65"/>
      <use x="726.216797" xlink:href="#DejaVuSans-74"/>
      <use x="765.425781" xlink:href="#DejaVuSans-69"/>
      <use x="793.208984" xlink:href="#DejaVuSans-63"/>
      <use x="848.189453" xlink:href="#DejaVuSans-61"/>
      <use x="909.46875" xlink:href="#DejaVuSans-6c"/>
     </g>
    </g>
    <g id="PathCollection_28">
     <path d="M 444.11975 185.632812 
C 444.915359 185.632812 445.67849 185.316714 446.24107 184.754133 
C 446.803651 184.191552 447.11975 183.428422 447.11975 182.632812 
C 447.11975 181.837203 446.803651 181.074073 446.24107 180.511492 
C 445.67849 179.948911 444.915359 179.632812 444.11975 179.632812 
C 443.324141 179.632812 442.56101 179.948911 441.99843 180.511492 
C 441.435849 181.074073 441.11975 181.837203 441.11975 182.632812 
C 441.11975 183.428422 441.435849 184.191552 441.99843 184.754133 
C 442.56101 185.316714 443.324141 185.632812 444.11975 185.632812 
z
" style="fill:none;stroke:#e66c5c;"/>
    </g>
    <g id="text_26">
     <!-- Mask F Measured -->
     <g transform="translate(462.11975 185.257812)scale(0.1 -0.1)">
      <use xlink:href="#DejaVuSans-4d"/>
      <use x="86.279297" xlink:href="#DejaVuSans-61"/>
      <use x="147.558594" xlink:href="#DejaVuSans-73"/>
      <use x="199.658203" xlink:href="#DejaVuSans-6b"/>
      <use x="257.568359" xlink:href="#DejaVuSans-20"/>
      <use x="289.355469" xlink:href="#DejaVuSans-46"/>
      <use x="346.875" xlink:href="#DejaVuSans-20"/>
      <use x="378.662109" xlink:href="#DejaVuSans-4d"/>
      <use x="464.941406" xlink:href="#DejaVuSans-65"/>
      <use x="526.464844" xlink:href="#DejaVuSans-61"/>
      <use x="587.744141" xlink:href="#DejaVuSans-73"/>
      <use x="639.84375" xlink:href="#DejaVuSans-75"/>
      <use x="703.222656" xlink:href="#DejaVuSans-72"/>
      <use x="742.085938" xlink:href="#DejaVuSans-65"/>
      <use x="803.609375" xlink:href="#DejaVuSans-64"/>
     </g>
    </g>
    <g id="PathCollection_29">
     <g>
      <use style="fill:#f89540;stroke:#f89540;" x="444.11975" xlink:href="#m11bde43a67" y="197.310937"/>
     </g>
    </g>
    <g id="text_27">
     <!-- Mask G Theoretical -->
     <g transform="translate(462.11975 199.935937)scale(0.1 -0.1)">
      <defs>
       <path d="M 3809 666 
L 3809 1919 
L 2778 1919 
L 2778 2438 
L 4434 2438 
L 4434 434 
Q 4069 175 3628 42 
Q 3188 -91 2688 -91 
Q 1594 -91 976 548 
Q 359 1188 359 2328 
Q 359 3472 976 4111 
Q 1594 4750 2688 4750 
Q 3144 4750 3555 4637 
Q 3966 4525 4313 4306 
L 4313 3634 
Q 3963 3931 3569 4081 
Q 3175 4231 2741 4231 
Q 1884 4231 1454 3753 
Q 1025 3275 1025 2328 
Q 1025 1384 1454 906 
Q 1884 428 2741 428 
Q 3075 428 3337 486 
Q 3600 544 3809 666 
z
" id="DejaVuSans-47" transform="scale(0.015625)"/>
      </defs>
      <use xlink:href="#DejaVuSans-4d"/>
      <use x="86.279297" xlink:href="#DejaVuSans-61"/>
      <use x="147.558594" xlink:href="#DejaVuSans-73"/>
      <use x="199.658203" xlink:href="#DejaVuSans-6b"/>
      <use x="257.568359" xlink:href="#DejaVuSans-20"/>
      <use x="289.355469" xlink:href="#DejaVuSans-47"/>
      <use x="366.845703" xlink:href="#DejaVuSans-20"/>
      <use x="398.632812" xlink:href="#DejaVuSans-54"/>
      <use x="459.716797" xlink:href="#DejaVuSans-68"/>
      <use x="523.095703" xlink:href="#DejaVuSans-65"/>
      <use x="584.619141" xlink:href="#DejaVuSans-6f"/>
      <use x="645.800781" xlink:href="#DejaVuSans-72"/>
      <use x="684.664062" xlink:href="#DejaVuSans-65"/>
      <use x="746.1875" xlink:href="#DejaVuSans-74"/>
      <use x="785.396484" xlink:href="#DejaVuSans-69"/>
      <use x="813.179688" xlink:href="#DejaVuSans-63"/>
      <use x="868.160156" xlink:href="#DejaVuSans-61"/>
      <use x="929.439453" xlink:href="#DejaVuSans-6c"/>
     </g>
    </g>
    <g id="PathCollection_30">
     <path d="M 444.11975 214.989062 
C 444.915359 214.989062 445.67849 214.672964 446.24107 214.110383 
C 446.803651 213.547802 447.11975 212.784672 447.11975 211.989062 
C 447.11975 211.193453 446.803651 210.430323 446.24107 209.867742 
C 445.67849 209.305161 444.915359 208.989062 444.11975 208.989062 
C 443.324141 208.989062 442.56101 209.305161 441.99843 209.867742 
C 441.435849 210.430323 441.11975 211.193453 441.11975 211.989062 
C 441.11975 212.784672 441.435849 213.547802 441.99843 214.110383 
C 442.56101 214.672964 443.324141 214.989062 444.11975 214.989062 
z
" style="fill:none;stroke:#f89540;"/>
    </g>
    <g id="text_28">
     <!-- Mask G Measured -->
     <g transform="translate(462.11975 214.614062)scale(0.1 -0.1)">
      <use xlink:href="#DejaVuSans-4d"/>
      <use x="86.279297" xlink:href="#DejaVuSans-61"/>
      <use x="147.558594" xlink:href="#DejaVuSans-73"/>
      <use x="199.658203" xlink:href="#DejaVuSans-6b"/>
      <use x="257.568359" xlink:href="#DejaVuSans-20"/>
      <use x="289.355469" xlink:href="#DejaVuSans-47"/>
      <use x="366.845703" xlink:href="#DejaVuSans-20"/>
      <use x="398.632812" xlink:href="#DejaVuSans-4d"/>
      <use x="484.912109" xlink:href="#DejaVuSans-65"/>
      <use x="546.435547" xlink:href="#DejaVuSans-61"/>
      <use x="607.714844" xlink:href="#DejaVuSans-73"/>
      <use x="659.814453" xlink:href="#DejaVuSans-75"/>
      <use x="723.193359" xlink:href="#DejaVuSans-72"/>
      <use x="762.056641" xlink:href="#DejaVuSans-65"/>
      <use x="823.580078" xlink:href="#DejaVuSans-64"/>
     </g>
    </g>
    <g id="PathCollection_31">
     <g>
      <use style="fill:#fdc527;stroke:#fdc527;" x="444.11975" xlink:href="#md3ece7d72e" y="226.667187"/>
     </g>
    </g>
    <g id="text_29">
     <!-- N95 Theoretical -->
     <g transform="translate(462.11975 229.292187)scale(0.1 -0.1)">
      <defs>
       <path d="M 628 4666 
L 1478 4666 
L 3547 763 
L 3547 4666 
L 4159 4666 
L 4159 0 
L 3309 0 
L 1241 3903 
L 1241 0 
L 628 0 
L 628 4666 
z
" id="DejaVuSans-4e" transform="scale(0.015625)"/>
      </defs>
      <use xlink:href="#DejaVuSans-4e"/>
      <use x="74.804688" xlink:href="#DejaVuSans-39"/>
      <use x="138.427734" xlink:href="#DejaVuSans-35"/>
      <use x="202.050781" xlink:href="#DejaVuSans-20"/>
      <use x="233.837891" xlink:href="#DejaVuSans-54"/>
      <use x="294.921875" xlink:href="#DejaVuSans-68"/>
      <use x="358.300781" xlink:href="#DejaVuSans-65"/>
      <use x="419.824219" xlink:href="#DejaVuSans-6f"/>
      <use x="481.005859" xlink:href="#DejaVuSans-72"/>
      <use x="519.869141" xlink:href="#DejaVuSans-65"/>
      <use x="581.392578" xlink:href="#DejaVuSans-74"/>
      <use x="620.601562" xlink:href="#DejaVuSans-69"/>
      <use x="648.384766" xlink:href="#DejaVuSans-63"/>
      <use x="703.365234" xlink:href="#DejaVuSans-61"/>
      <use x="764.644531" xlink:href="#DejaVuSans-6c"/>
     </g>
    </g>
    <g id="PathCollection_32">
     <path d="M 444.11975 244.345312 
C 444.915359 244.345312 445.67849 244.029214 446.24107 243.466633 
C 446.803651 242.904052 447.11975 242.140922 447.11975 241.345312 
C 447.11975 240.549703 446.803651 239.786573 446.24107 239.223992 
C 445.67849 238.661411 444.915359 238.345312 444.11975 238.345312 
C 443.324141 238.345312 442.56101 238.661411 441.99843 239.223992 
C 441.435849 239.786573 441.11975 240.549703 441.11975 241.345312 
C 441.11975 242.140922 441.435849 242.904052 441.99843 243.466633 
C 442.56101 244.029214 443.324141 244.345312 444.11975 244.345312 
z
" style="fill:none;stroke:#fdc527;"/>
    </g>
    <g id="text_30">
     <!-- N95 Measured -->
     <g transform="translate(462.11975 243.970312)scale(0.1 -0.1)">
      <use xlink:href="#DejaVuSans-4e"/>
      <use x="74.804688" xlink:href="#DejaVuSans-39"/>
      <use x="138.427734" xlink:href="#DejaVuSans-35"/>
      <use x="202.050781" xlink:href="#DejaVuSans-20"/>
      <use x="233.837891" xlink:href="#DejaVuSans-4d"/>
      <use x="320.117188" xlink:href="#DejaVuSans-65"/>
      <use x="381.640625" xlink:href="#DejaVuSans-61"/>
      <use x="442.919922" xlink:href="#DejaVuSans-73"/>
      <use x="495.019531" xlink:href="#DejaVuSans-75"/>
      <use x="558.398438" xlink:href="#DejaVuSans-72"/>
      <use x="597.261719" xlink:href="#DejaVuSans-65"/>
      <use x="658.785156" xlink:href="#DejaVuSans-64"/>
     </g>
    </g>
   </g>
  </g>
 </g>
 <defs>
  <clipPath id="p96af32f0ce">
   <rect height="266.112" width="357.12" x="50.14375" y="7.2"/>
  </clipPath>
 </defs>
</svg>
