<?xml version="1.0" encoding="utf-8" standalone="no"?>
<!DOCTYPE svg PUBLIC "-//W3C//DTD SVG 1.1//EN"
  "http://www.w3.org/Graphics/SVG/1.1/DTD/svg11.dtd">
<svg height="312.032696pt" version="1.1" viewBox="0 0 562.677563 312.032696" width="562.677563pt" xmlns="http://www.w3.org/2000/svg" xmlns:xlink="http://www.w3.org/1999/xlink">
 <metadata>
  <rdf:RDF xmlns:cc="http://creativecommons.org/ns#" xmlns:dc="http://purl.org/dc/elements/1.1/" xmlns:rdf="http://www.w3.org/1999/02/22-rdf-syntax-ns#">
   <cc:Work>
    <dc:type rdf:resource="http://purl.org/dc/dcmitype/StillImage"/>
    <dc:date>2021-11-20T09:27:22.046145</dc:date>
    <dc:format>image/svg+xml</dc:format>
    <dc:creator>
     <cc:Agent>
      <dc:title>Matplotlib v3.4.2, https://matplotlib.org/</dc:title>
     </cc:Agent>
    </dc:creator>
   </cc:Work>
  </rdf:RDF>
 </metadata>
 <defs>
  <style type="text/css">*{stroke-linecap:butt;stroke-linejoin:round;}</style>
 </defs>
 <g id="figure_1">
  <g id="patch_1">
   <path d="M 0 312.032696 
L 562.677563 312.032696 
L 562.677563 0 
L 0 0 
z
" style="fill:#ffffff;"/>
  </g>
  <g id="axes_1">
   <g id="patch_2">
    <path d="M 43.78125 274.476446 
L 400.90125 274.476446 
L 400.90125 8.364446 
L 43.78125 8.364446 
z
" style="fill:#ffffff;"/>
   </g>
   <g id="PathCollection_1">
    <defs>
     <path d="M 0 3 
C 0.795609 3 1.55874 2.683901 2.12132 2.12132 
C 2.683901 1.55874 3 0.795609 3 0 
C 3 -0.795609 2.683901 -1.55874 2.12132 -2.12132 
C 1.55874 -2.683901 0.795609 -3 0 -3 
C -0.795609 -3 -1.55874 -2.683901 -2.12132 -2.12132 
C -2.683901 -1.55874 -3 -0.795609 -3 0 
C -3 0.795609 -2.683901 1.55874 -2.12132 2.12132 
C -1.55874 2.683901 -0.795609 3 0 3 
z
" id="mf2e29bd5fa" style="stroke:#0d0887;"/>
    </defs>
    <g clip-path="url(#p432558aee1)">
     <use style="fill:#0d0887;stroke:#0d0887;" x="268.256679" xlink:href="#mf2e29bd5fa" y="215.510243"/>
    </g>
   </g>
   <g id="PathCollection_2">
    <path clip-path="url(#p432558aee1)" d="M 293.76525 206.875665 
C 294.560859 206.875665 295.32399 206.559566 295.88657 205.996985 
C 296.449151 205.434405 296.76525 204.671274 296.76525 203.875665 
C 296.76525 203.080056 296.449151 202.316925 295.88657 201.754345 
C 295.32399 201.191764 294.560859 200.875665 293.76525 200.875665 
C 292.969641 200.875665 292.20651 201.191764 291.64393 201.754345 
C 291.081349 202.316925 290.76525 203.080056 290.76525 203.875665 
C 290.76525 204.671274 291.081349 205.434405 291.64393 205.996985 
C 292.20651 206.559566 292.969641 206.875665 293.76525 206.875665 
z
" style="fill:none;stroke:#0d0887;"/>
   </g>
   <g id="PathCollection_3">
    <defs>
     <path d="M 0 3 
C 0.795609 3 1.55874 2.683901 2.12132 2.12132 
C 2.683901 1.55874 3 0.795609 3 0 
C 3 -0.795609 2.683901 -1.55874 2.12132 -2.12132 
C 1.55874 -2.683901 0.795609 -3 0 -3 
C -0.795609 -3 -1.55874 -2.683901 -2.12132 -2.12132 
C -2.683901 -1.55874 -3 -0.795609 -3 0 
C -3 0.795609 -2.683901 1.55874 -2.12132 2.12132 
C -1.55874 2.683901 -0.795609 3 0 3 
z
" id="me517026dc7" style="stroke:#5302a3;"/>
    </defs>
    <g clip-path="url(#p432558aee1)">
     <use style="fill:#5302a3;stroke:#5302a3;" x="375.392679" xlink:href="#me517026dc7" y="247.101163"/>
    </g>
   </g>
   <g id="PathCollection_4">
    <path clip-path="url(#p432558aee1)" d="M 349.884107 178.992568 
C 350.679716 178.992568 351.442847 178.676469 352.005427 178.113888 
C 352.568008 177.551308 352.884107 176.788177 352.884107 175.992568 
C 352.884107 175.196959 352.568008 174.433828 352.005427 173.871248 
C 351.442847 173.308667 350.679716 172.992568 349.884107 172.992568 
C 349.088498 172.992568 348.325368 173.308667 347.762787 173.871248 
C 347.200206 174.433828 346.884107 175.196959 346.884107 175.992568 
C 346.884107 176.788177 347.200206 177.551308 347.762787 178.113888 
C 348.325368 178.676469 349.088498 178.992568 349.884107 178.992568 
z
" style="fill:none;stroke:#5302a3;"/>
   </g>
   <g id="PathCollection_5">
    <defs>
     <path d="M 0 3 
C 0.795609 3 1.55874 2.683901 2.12132 2.12132 
C 2.683901 1.55874 3 0.795609 3 0 
C 3 -0.795609 2.683901 -1.55874 2.12132 -2.12132 
C 1.55874 -2.683901 0.795609 -3 0 -3 
C -0.795609 -3 -1.55874 -2.683901 -2.12132 -2.12132 
C -2.683901 -1.55874 -3 -0.795609 -3 0 
C -3 0.795609 -2.683901 1.55874 -2.12132 2.12132 
C -1.55874 2.683901 -0.795609 3 0 3 
z
" id="mf6e8c99114" style="stroke:#8b0aa5;"/>
    </defs>
    <g clip-path="url(#p432558aee1)">
     <use style="fill:#8b0aa5;stroke:#8b0aa5;" x="196.832679" xlink:href="#mf6e8c99114" y="217.670756"/>
    </g>
   </g>
   <g id="PathCollection_6">
    <path clip-path="url(#p432558aee1)" d="M 196.832679 144.940009 
C 197.628288 144.940009 198.391418 144.62391 198.953999 144.061329 
C 199.51658 143.498748 199.832679 142.735618 199.832679 141.940009 
C 199.832679 141.144399 199.51658 140.381269 198.953999 139.818688 
C 198.391418 139.256108 197.628288 138.940009 196.832679 138.940009 
C 196.037069 138.940009 195.273939 139.256108 194.711358 139.818688 
C 194.148777 140.381269 193.832679 141.144399 193.832679 141.940009 
C 193.832679 142.735618 194.148777 143.498748 194.711358 144.061329 
C 195.273939 144.62391 196.037069 144.940009 196.832679 144.940009 
z
" style="fill:none;stroke:#8b0aa5;"/>
   </g>
   <g id="PathCollection_7">
    <defs>
     <path d="M 0 3 
C 0.795609 3 1.55874 2.683901 2.12132 2.12132 
C 2.683901 1.55874 3 0.795609 3 0 
C 3 -0.795609 2.683901 -1.55874 2.12132 -2.12132 
C 1.55874 -2.683901 0.795609 -3 0 -3 
C -0.795609 -3 -1.55874 -2.683901 -2.12132 -2.12132 
C -2.683901 -1.55874 -3 -0.795609 -3 0 
C -3 0.795609 -2.683901 1.55874 -2.12132 2.12132 
C -1.55874 2.683901 -0.795609 3 0 3 
z
" id="mcbfa1fdb1a" style="stroke:#b83289;"/>
    </defs>
    <g clip-path="url(#p432558aee1)">
     <use style="fill:#b83289;stroke:#b83289;" x="64.188107" xlink:href="#mcbfa1fdb1a" y="218.513883"/>
    </g>
   </g>
   <g id="PathCollection_8">
    <path clip-path="url(#p432558aee1)" d="M 293.76525 26.079015 
C 294.560859 26.079015 295.32399 25.762916 295.88657 25.200335 
C 296.449151 24.637755 296.76525 23.874624 296.76525 23.079015 
C 296.76525 22.283406 296.449151 21.520275 295.88657 20.957695 
C 295.32399 20.395114 294.560859 20.079015 293.76525 20.079015 
C 292.969641 20.079015 292.20651 20.395114 291.64393 20.957695 
C 291.081349 21.520275 290.76525 22.283406 290.76525 23.079015 
C 290.76525 23.874624 291.081349 24.637755 291.64393 25.200335 
C 292.20651 25.762916 292.969641 26.079015 293.76525 26.079015 
z
" style="fill:none;stroke:#b83289;"/>
   </g>
   <g id="PathCollection_9">
    <defs>
     <path d="M 0 3 
C 0.795609 3 1.55874 2.683901 2.12132 2.12132 
C 2.683901 1.55874 3 0.795609 3 0 
C 3 -0.795609 2.683901 -1.55874 2.12132 -2.12132 
C 1.55874 -2.683901 0.795609 -3 0 -3 
C -0.795609 -3 -1.55874 -2.683901 -2.12132 -2.12132 
C -2.683901 -1.55874 -3 -0.795609 -3 0 
C -3 0.795609 -2.683901 1.55874 -2.12132 2.12132 
C -1.55874 2.683901 -0.795609 3 0 3 
z
" id="m26d2770ea2" style="stroke:#db5c68;"/>
    </defs>
    <g clip-path="url(#p432558aee1)">
     <use style="fill:#db5c68;stroke:#db5c68;" x="268.256679" xlink:href="#m26d2770ea2" y="21.670046"/>
    </g>
   </g>
   <g id="PathCollection_10">
    <path clip-path="url(#p432558aee1)" d="M 252.951536 22.379165 
C 253.747145 22.379165 254.510275 22.063067 255.072856 21.500486 
C 255.635437 20.937905 255.951536 20.174775 255.951536 19.379165 
C 255.951536 18.583556 255.635437 17.820426 255.072856 17.257845 
C 254.510275 16.695264 253.747145 16.379165 252.951536 16.379165 
C 252.155926 16.379165 251.392796 16.695264 250.830215 17.257845 
C 250.267635 17.820426 249.951536 18.583556 249.951536 19.379165 
C 249.951536 20.174775 250.267635 20.937905 250.830215 21.500486 
C 251.392796 22.063067 252.155926 22.379165 252.951536 22.379165 
z
" style="fill:none;stroke:#db5c68;"/>
   </g>
   <g id="PathCollection_11">
    <defs>
     <path d="M 0 3 
C 0.795609 3 1.55874 2.683901 2.12132 2.12132 
C 2.683901 1.55874 3 0.795609 3 0 
C 3 -0.795609 2.683901 -1.55874 2.12132 -2.12132 
C 1.55874 -2.683901 0.795609 -3 0 -3 
C -0.795609 -3 -1.55874 -2.683901 -2.12132 -2.12132 
C -2.683901 -1.55874 -3 -0.795609 -3 0 
C -3 0.795609 -2.683901 1.55874 -2.12132 2.12132 
C -1.55874 2.683901 -0.795609 3 0 3 
z
" id="m64e20dc2d9" style="stroke:#f48849;"/>
    </defs>
    <g clip-path="url(#p432558aee1)">
     <use style="fill:#f48849;stroke:#f48849;" x="115.20525" xlink:href="#m64e20dc2d9" y="232.267395"/>
    </g>
   </g>
   <g id="PathCollection_12">
    <path clip-path="url(#p432558aee1)" d="M 115.20525 212.887916 
C 116.000859 212.887916 116.76399 212.571817 117.32657 212.009236 
C 117.889151 211.446655 118.20525 210.683525 118.20525 209.887916 
C 118.20525 209.092306 117.889151 208.329176 117.32657 207.766595 
C 116.76399 207.204015 116.000859 206.887916 115.20525 206.887916 
C 114.409641 206.887916 113.64651 207.204015 113.08393 207.766595 
C 112.521349 208.329176 112.20525 209.092306 112.20525 209.887916 
C 112.20525 210.683525 112.521349 211.446655 113.08393 212.009236 
C 113.64651 212.571817 114.409641 212.887916 115.20525 212.887916 
z
" style="fill:none;stroke:#f48849;"/>
   </g>
   <g id="PathCollection_13">
    <defs>
     <path d="M 0 3 
C 0.795609 3 1.55874 2.683901 2.12132 2.12132 
C 2.683901 1.55874 3 0.795609 3 0 
C 3 -0.795609 2.683901 -1.55874 2.12132 -2.12132 
C 1.55874 -2.683901 0.795609 -3 0 -3 
C -0.795609 -3 -1.55874 -2.683901 -2.12132 -2.12132 
C -2.683901 -1.55874 -3 -0.795609 -3 0 
C -3 0.795609 -2.683901 1.55874 -2.12132 2.12132 
C -1.55874 2.683901 -0.795609 3 0 3 
z
" id="mfd99a79676" style="stroke:#febd2a;"/>
    </defs>
    <g clip-path="url(#p432558aee1)">
     <use style="fill:#febd2a;stroke:#febd2a;" x="232.544679" xlink:href="#mfd99a79676" y="232.873392"/>
    </g>
   </g>
   <g id="PathCollection_14">
    <path clip-path="url(#p432558aee1)" d="M 354.985821 210.283373 
C 355.781431 210.283373 356.544561 209.967274 357.107142 209.404694 
C 357.669723 208.842113 357.985821 208.078982 357.985821 207.283373 
C 357.985821 206.487764 357.669723 205.724634 357.107142 205.162053 
C 356.544561 204.599472 355.781431 204.283373 354.985821 204.283373 
C 354.190212 204.283373 353.427082 204.599472 352.864501 205.162053 
C 352.30192 205.724634 351.985821 206.487764 351.985821 207.283373 
C 351.985821 208.078982 352.30192 208.842113 352.864501 209.404694 
C 353.427082 209.967274 354.190212 210.283373 354.985821 210.283373 
z
" style="fill:none;stroke:#febd2a;"/>
   </g>
   <g id="matplotlib.axis_1">
    <g id="xtick_1">
     <g id="line2d_1">
      <defs>
       <path d="M 0 0 
L 0 3.5 
" id="m534b3a0bcf" style="stroke:#000000;stroke-width:0.8;"/>
      </defs>
      <g>
       <use style="stroke:#000000;stroke-width:0.8;" x="43.78125" xlink:href="#m534b3a0bcf" y="274.476446"/>
      </g>
     </g>
     <g id="text_1">
      <!-- 30 -->
      <g transform="translate(37.41875 289.074884)scale(0.1 -0.1)">
       <defs>
        <path d="M 2597 2516 
Q 3050 2419 3304 2112 
Q 3559 1806 3559 1356 
Q 3559 666 3084 287 
Q 2609 -91 1734 -91 
Q 1441 -91 1130 -33 
Q 819 25 488 141 
L 488 750 
Q 750 597 1062 519 
Q 1375 441 1716 441 
Q 2309 441 2620 675 
Q 2931 909 2931 1356 
Q 2931 1769 2642 2001 
Q 2353 2234 1838 2234 
L 1294 2234 
L 1294 2753 
L 1863 2753 
Q 2328 2753 2575 2939 
Q 2822 3125 2822 3475 
Q 2822 3834 2567 4026 
Q 2313 4219 1838 4219 
Q 1578 4219 1281 4162 
Q 984 4106 628 3988 
L 628 4550 
Q 988 4650 1302 4700 
Q 1616 4750 1894 4750 
Q 2613 4750 3031 4423 
Q 3450 4097 3450 3541 
Q 3450 3153 3228 2886 
Q 3006 2619 2597 2516 
z
" id="DejaVuSans-33" transform="scale(0.015625)"/>
        <path d="M 2034 4250 
Q 1547 4250 1301 3770 
Q 1056 3291 1056 2328 
Q 1056 1369 1301 889 
Q 1547 409 2034 409 
Q 2525 409 2770 889 
Q 3016 1369 3016 2328 
Q 3016 3291 2770 3770 
Q 2525 4250 2034 4250 
z
M 2034 4750 
Q 2819 4750 3233 4129 
Q 3647 3509 3647 2328 
Q 3647 1150 3233 529 
Q 2819 -91 2034 -91 
Q 1250 -91 836 529 
Q 422 1150 422 2328 
Q 422 3509 836 4129 
Q 1250 4750 2034 4750 
z
" id="DejaVuSans-30" transform="scale(0.015625)"/>
       </defs>
       <use xlink:href="#DejaVuSans-33"/>
       <use x="63.623047" xlink:href="#DejaVuSans-30"/>
      </g>
     </g>
    </g>
    <g id="xtick_2">
     <g id="line2d_2">
      <g>
       <use style="stroke:#000000;stroke-width:0.8;" x="94.798393" xlink:href="#m534b3a0bcf" y="274.476446"/>
      </g>
     </g>
     <g id="text_2">
      <!-- 40 -->
      <g transform="translate(88.435893 289.074884)scale(0.1 -0.1)">
       <defs>
        <path d="M 2419 4116 
L 825 1625 
L 2419 1625 
L 2419 4116 
z
M 2253 4666 
L 3047 4666 
L 3047 1625 
L 3713 1625 
L 3713 1100 
L 3047 1100 
L 3047 0 
L 2419 0 
L 2419 1100 
L 313 1100 
L 313 1709 
L 2253 4666 
z
" id="DejaVuSans-34" transform="scale(0.015625)"/>
       </defs>
       <use xlink:href="#DejaVuSans-34"/>
       <use x="63.623047" xlink:href="#DejaVuSans-30"/>
      </g>
     </g>
    </g>
    <g id="xtick_3">
     <g id="line2d_3">
      <g>
       <use style="stroke:#000000;stroke-width:0.8;" x="145.815536" xlink:href="#m534b3a0bcf" y="274.476446"/>
      </g>
     </g>
     <g id="text_3">
      <!-- 50 -->
      <g transform="translate(139.453036 289.074884)scale(0.1 -0.1)">
       <defs>
        <path d="M 691 4666 
L 3169 4666 
L 3169 4134 
L 1269 4134 
L 1269 2991 
Q 1406 3038 1543 3061 
Q 1681 3084 1819 3084 
Q 2600 3084 3056 2656 
Q 3513 2228 3513 1497 
Q 3513 744 3044 326 
Q 2575 -91 1722 -91 
Q 1428 -91 1123 -41 
Q 819 9 494 109 
L 494 744 
Q 775 591 1075 516 
Q 1375 441 1709 441 
Q 2250 441 2565 725 
Q 2881 1009 2881 1497 
Q 2881 1984 2565 2268 
Q 2250 2553 1709 2553 
Q 1456 2553 1204 2497 
Q 953 2441 691 2322 
L 691 4666 
z
" id="DejaVuSans-35" transform="scale(0.015625)"/>
       </defs>
       <use xlink:href="#DejaVuSans-35"/>
       <use x="63.623047" xlink:href="#DejaVuSans-30"/>
      </g>
     </g>
    </g>
    <g id="xtick_4">
     <g id="line2d_4">
      <g>
       <use style="stroke:#000000;stroke-width:0.8;" x="196.832679" xlink:href="#m534b3a0bcf" y="274.476446"/>
      </g>
     </g>
     <g id="text_4">
      <!-- 60 -->
      <g transform="translate(190.470179 289.074884)scale(0.1 -0.1)">
       <defs>
        <path d="M 2113 2584 
Q 1688 2584 1439 2293 
Q 1191 2003 1191 1497 
Q 1191 994 1439 701 
Q 1688 409 2113 409 
Q 2538 409 2786 701 
Q 3034 994 3034 1497 
Q 3034 2003 2786 2293 
Q 2538 2584 2113 2584 
z
M 3366 4563 
L 3366 3988 
Q 3128 4100 2886 4159 
Q 2644 4219 2406 4219 
Q 1781 4219 1451 3797 
Q 1122 3375 1075 2522 
Q 1259 2794 1537 2939 
Q 1816 3084 2150 3084 
Q 2853 3084 3261 2657 
Q 3669 2231 3669 1497 
Q 3669 778 3244 343 
Q 2819 -91 2113 -91 
Q 1303 -91 875 529 
Q 447 1150 447 2328 
Q 447 3434 972 4092 
Q 1497 4750 2381 4750 
Q 2619 4750 2861 4703 
Q 3103 4656 3366 4563 
z
" id="DejaVuSans-36" transform="scale(0.015625)"/>
       </defs>
       <use xlink:href="#DejaVuSans-36"/>
       <use x="63.623047" xlink:href="#DejaVuSans-30"/>
      </g>
     </g>
    </g>
    <g id="xtick_5">
     <g id="line2d_5">
      <g>
       <use style="stroke:#000000;stroke-width:0.8;" x="247.849821" xlink:href="#m534b3a0bcf" y="274.476446"/>
      </g>
     </g>
     <g id="text_5">
      <!-- 70 -->
      <g transform="translate(241.487321 289.074884)scale(0.1 -0.1)">
       <defs>
        <path d="M 525 4666 
L 3525 4666 
L 3525 4397 
L 1831 0 
L 1172 0 
L 2766 4134 
L 525 4134 
L 525 4666 
z
" id="DejaVuSans-37" transform="scale(0.015625)"/>
       </defs>
       <use xlink:href="#DejaVuSans-37"/>
       <use x="63.623047" xlink:href="#DejaVuSans-30"/>
      </g>
     </g>
    </g>
    <g id="xtick_6">
     <g id="line2d_6">
      <g>
       <use style="stroke:#000000;stroke-width:0.8;" x="298.866964" xlink:href="#m534b3a0bcf" y="274.476446"/>
      </g>
     </g>
     <g id="text_6">
      <!-- 80 -->
      <g transform="translate(292.504464 289.074884)scale(0.1 -0.1)">
       <defs>
        <path d="M 2034 2216 
Q 1584 2216 1326 1975 
Q 1069 1734 1069 1313 
Q 1069 891 1326 650 
Q 1584 409 2034 409 
Q 2484 409 2743 651 
Q 3003 894 3003 1313 
Q 3003 1734 2745 1975 
Q 2488 2216 2034 2216 
z
M 1403 2484 
Q 997 2584 770 2862 
Q 544 3141 544 3541 
Q 544 4100 942 4425 
Q 1341 4750 2034 4750 
Q 2731 4750 3128 4425 
Q 3525 4100 3525 3541 
Q 3525 3141 3298 2862 
Q 3072 2584 2669 2484 
Q 3125 2378 3379 2068 
Q 3634 1759 3634 1313 
Q 3634 634 3220 271 
Q 2806 -91 2034 -91 
Q 1263 -91 848 271 
Q 434 634 434 1313 
Q 434 1759 690 2068 
Q 947 2378 1403 2484 
z
M 1172 3481 
Q 1172 3119 1398 2916 
Q 1625 2713 2034 2713 
Q 2441 2713 2670 2916 
Q 2900 3119 2900 3481 
Q 2900 3844 2670 4047 
Q 2441 4250 2034 4250 
Q 1625 4250 1398 4047 
Q 1172 3844 1172 3481 
z
" id="DejaVuSans-38" transform="scale(0.015625)"/>
       </defs>
       <use xlink:href="#DejaVuSans-38"/>
       <use x="63.623047" xlink:href="#DejaVuSans-30"/>
      </g>
     </g>
    </g>
    <g id="xtick_7">
     <g id="line2d_7">
      <g>
       <use style="stroke:#000000;stroke-width:0.8;" x="349.884107" xlink:href="#m534b3a0bcf" y="274.476446"/>
      </g>
     </g>
     <g id="text_7">
      <!-- 90 -->
      <g transform="translate(343.521607 289.074884)scale(0.1 -0.1)">
       <defs>
        <path d="M 703 97 
L 703 672 
Q 941 559 1184 500 
Q 1428 441 1663 441 
Q 2288 441 2617 861 
Q 2947 1281 2994 2138 
Q 2813 1869 2534 1725 
Q 2256 1581 1919 1581 
Q 1219 1581 811 2004 
Q 403 2428 403 3163 
Q 403 3881 828 4315 
Q 1253 4750 1959 4750 
Q 2769 4750 3195 4129 
Q 3622 3509 3622 2328 
Q 3622 1225 3098 567 
Q 2575 -91 1691 -91 
Q 1453 -91 1209 -44 
Q 966 3 703 97 
z
M 1959 2075 
Q 2384 2075 2632 2365 
Q 2881 2656 2881 3163 
Q 2881 3666 2632 3958 
Q 2384 4250 1959 4250 
Q 1534 4250 1286 3958 
Q 1038 3666 1038 3163 
Q 1038 2656 1286 2365 
Q 1534 2075 1959 2075 
z
" id="DejaVuSans-39" transform="scale(0.015625)"/>
       </defs>
       <use xlink:href="#DejaVuSans-39"/>
       <use x="63.623047" xlink:href="#DejaVuSans-30"/>
      </g>
     </g>
    </g>
    <g id="xtick_8">
     <g id="line2d_8">
      <g>
       <use style="stroke:#000000;stroke-width:0.8;" x="400.90125" xlink:href="#m534b3a0bcf" y="274.476446"/>
      </g>
     </g>
     <g id="text_8">
      <!-- 100 -->
      <g transform="translate(391.3575 289.074884)scale(0.1 -0.1)">
       <defs>
        <path d="M 794 531 
L 1825 531 
L 1825 4091 
L 703 3866 
L 703 4441 
L 1819 4666 
L 2450 4666 
L 2450 531 
L 3481 531 
L 3481 0 
L 794 0 
L 794 531 
z
" id="DejaVuSans-31" transform="scale(0.015625)"/>
       </defs>
       <use xlink:href="#DejaVuSans-31"/>
       <use x="63.623047" xlink:href="#DejaVuSans-30"/>
       <use x="127.246094" xlink:href="#DejaVuSans-30"/>
      </g>
     </g>
    </g>
    <g id="text_9">
     <!-- Pressure Drop [Pa] -->
     <g transform="translate(176.036563 302.753009)scale(0.1 -0.1)">
      <defs>
       <path d="M 1259 4147 
L 1259 2394 
L 2053 2394 
Q 2494 2394 2734 2622 
Q 2975 2850 2975 3272 
Q 2975 3691 2734 3919 
Q 2494 4147 2053 4147 
L 1259 4147 
z
M 628 4666 
L 2053 4666 
Q 2838 4666 3239 4311 
Q 3641 3956 3641 3272 
Q 3641 2581 3239 2228 
Q 2838 1875 2053 1875 
L 1259 1875 
L 1259 0 
L 628 0 
L 628 4666 
z
" id="DejaVuSans-50" transform="scale(0.015625)"/>
       <path d="M 2631 2963 
Q 2534 3019 2420 3045 
Q 2306 3072 2169 3072 
Q 1681 3072 1420 2755 
Q 1159 2438 1159 1844 
L 1159 0 
L 581 0 
L 581 3500 
L 1159 3500 
L 1159 2956 
Q 1341 3275 1631 3429 
Q 1922 3584 2338 3584 
Q 2397 3584 2469 3576 
Q 2541 3569 2628 3553 
L 2631 2963 
z
" id="DejaVuSans-72" transform="scale(0.015625)"/>
       <path d="M 3597 1894 
L 3597 1613 
L 953 1613 
Q 991 1019 1311 708 
Q 1631 397 2203 397 
Q 2534 397 2845 478 
Q 3156 559 3463 722 
L 3463 178 
Q 3153 47 2828 -22 
Q 2503 -91 2169 -91 
Q 1331 -91 842 396 
Q 353 884 353 1716 
Q 353 2575 817 3079 
Q 1281 3584 2069 3584 
Q 2775 3584 3186 3129 
Q 3597 2675 3597 1894 
z
M 3022 2063 
Q 3016 2534 2758 2815 
Q 2500 3097 2075 3097 
Q 1594 3097 1305 2825 
Q 1016 2553 972 2059 
L 3022 2063 
z
" id="DejaVuSans-65" transform="scale(0.015625)"/>
       <path d="M 2834 3397 
L 2834 2853 
Q 2591 2978 2328 3040 
Q 2066 3103 1784 3103 
Q 1356 3103 1142 2972 
Q 928 2841 928 2578 
Q 928 2378 1081 2264 
Q 1234 2150 1697 2047 
L 1894 2003 
Q 2506 1872 2764 1633 
Q 3022 1394 3022 966 
Q 3022 478 2636 193 
Q 2250 -91 1575 -91 
Q 1294 -91 989 -36 
Q 684 19 347 128 
L 347 722 
Q 666 556 975 473 
Q 1284 391 1588 391 
Q 1994 391 2212 530 
Q 2431 669 2431 922 
Q 2431 1156 2273 1281 
Q 2116 1406 1581 1522 
L 1381 1569 
Q 847 1681 609 1914 
Q 372 2147 372 2553 
Q 372 3047 722 3315 
Q 1072 3584 1716 3584 
Q 2034 3584 2315 3537 
Q 2597 3491 2834 3397 
z
" id="DejaVuSans-73" transform="scale(0.015625)"/>
       <path d="M 544 1381 
L 544 3500 
L 1119 3500 
L 1119 1403 
Q 1119 906 1312 657 
Q 1506 409 1894 409 
Q 2359 409 2629 706 
Q 2900 1003 2900 1516 
L 2900 3500 
L 3475 3500 
L 3475 0 
L 2900 0 
L 2900 538 
Q 2691 219 2414 64 
Q 2138 -91 1772 -91 
Q 1169 -91 856 284 
Q 544 659 544 1381 
z
M 1991 3584 
L 1991 3584 
z
" id="DejaVuSans-75" transform="scale(0.015625)"/>
       <path id="DejaVuSans-20" transform="scale(0.015625)"/>
       <path d="M 1259 4147 
L 1259 519 
L 2022 519 
Q 2988 519 3436 956 
Q 3884 1394 3884 2338 
Q 3884 3275 3436 3711 
Q 2988 4147 2022 4147 
L 1259 4147 
z
M 628 4666 
L 1925 4666 
Q 3281 4666 3915 4102 
Q 4550 3538 4550 2338 
Q 4550 1131 3912 565 
Q 3275 0 1925 0 
L 628 0 
L 628 4666 
z
" id="DejaVuSans-44" transform="scale(0.015625)"/>
       <path d="M 1959 3097 
Q 1497 3097 1228 2736 
Q 959 2375 959 1747 
Q 959 1119 1226 758 
Q 1494 397 1959 397 
Q 2419 397 2687 759 
Q 2956 1122 2956 1747 
Q 2956 2369 2687 2733 
Q 2419 3097 1959 3097 
z
M 1959 3584 
Q 2709 3584 3137 3096 
Q 3566 2609 3566 1747 
Q 3566 888 3137 398 
Q 2709 -91 1959 -91 
Q 1206 -91 779 398 
Q 353 888 353 1747 
Q 353 2609 779 3096 
Q 1206 3584 1959 3584 
z
" id="DejaVuSans-6f" transform="scale(0.015625)"/>
       <path d="M 1159 525 
L 1159 -1331 
L 581 -1331 
L 581 3500 
L 1159 3500 
L 1159 2969 
Q 1341 3281 1617 3432 
Q 1894 3584 2278 3584 
Q 2916 3584 3314 3078 
Q 3713 2572 3713 1747 
Q 3713 922 3314 415 
Q 2916 -91 2278 -91 
Q 1894 -91 1617 61 
Q 1341 213 1159 525 
z
M 3116 1747 
Q 3116 2381 2855 2742 
Q 2594 3103 2138 3103 
Q 1681 3103 1420 2742 
Q 1159 2381 1159 1747 
Q 1159 1113 1420 752 
Q 1681 391 2138 391 
Q 2594 391 2855 752 
Q 3116 1113 3116 1747 
z
" id="DejaVuSans-70" transform="scale(0.015625)"/>
       <path d="M 550 4863 
L 1875 4863 
L 1875 4416 
L 1125 4416 
L 1125 -397 
L 1875 -397 
L 1875 -844 
L 550 -844 
L 550 4863 
z
" id="DejaVuSans-5b" transform="scale(0.015625)"/>
       <path d="M 2194 1759 
Q 1497 1759 1228 1600 
Q 959 1441 959 1056 
Q 959 750 1161 570 
Q 1363 391 1709 391 
Q 2188 391 2477 730 
Q 2766 1069 2766 1631 
L 2766 1759 
L 2194 1759 
z
M 3341 1997 
L 3341 0 
L 2766 0 
L 2766 531 
Q 2569 213 2275 61 
Q 1981 -91 1556 -91 
Q 1019 -91 701 211 
Q 384 513 384 1019 
Q 384 1609 779 1909 
Q 1175 2209 1959 2209 
L 2766 2209 
L 2766 2266 
Q 2766 2663 2505 2880 
Q 2244 3097 1772 3097 
Q 1472 3097 1187 3025 
Q 903 2953 641 2809 
L 641 3341 
Q 956 3463 1253 3523 
Q 1550 3584 1831 3584 
Q 2591 3584 2966 3190 
Q 3341 2797 3341 1997 
z
" id="DejaVuSans-61" transform="scale(0.015625)"/>
       <path d="M 1947 4863 
L 1947 -844 
L 622 -844 
L 622 -397 
L 1369 -397 
L 1369 4416 
L 622 4416 
L 622 4863 
L 1947 4863 
z
" id="DejaVuSans-5d" transform="scale(0.015625)"/>
      </defs>
      <use xlink:href="#DejaVuSans-50"/>
      <use x="58.552734" xlink:href="#DejaVuSans-72"/>
      <use x="97.416016" xlink:href="#DejaVuSans-65"/>
      <use x="158.939453" xlink:href="#DejaVuSans-73"/>
      <use x="211.039062" xlink:href="#DejaVuSans-73"/>
      <use x="263.138672" xlink:href="#DejaVuSans-75"/>
      <use x="326.517578" xlink:href="#DejaVuSans-72"/>
      <use x="365.380859" xlink:href="#DejaVuSans-65"/>
      <use x="426.904297" xlink:href="#DejaVuSans-20"/>
      <use x="458.691406" xlink:href="#DejaVuSans-44"/>
      <use x="535.693359" xlink:href="#DejaVuSans-72"/>
      <use x="574.556641" xlink:href="#DejaVuSans-6f"/>
      <use x="635.738281" xlink:href="#DejaVuSans-70"/>
      <use x="699.214844" xlink:href="#DejaVuSans-20"/>
      <use x="731.001953" xlink:href="#DejaVuSans-5b"/>
      <use x="770.015625" xlink:href="#DejaVuSans-50"/>
      <use x="825.818359" xlink:href="#DejaVuSans-61"/>
      <use x="887.097656" xlink:href="#DejaVuSans-5d"/>
     </g>
    </g>
   </g>
   <g id="matplotlib.axis_2">
    <g id="ytick_1">
     <g id="line2d_9">
      <defs>
       <path d="M 0 0 
L -3.5 0 
" id="m78f32f034a" style="stroke:#000000;stroke-width:0.8;"/>
      </defs>
      <g>
       <use style="stroke:#000000;stroke-width:0.8;" x="43.78125" xlink:href="#m78f32f034a" y="274.476446"/>
      </g>
     </g>
     <g id="text_10">
      <!-- 0.0 -->
      <g transform="translate(20.878125 278.275665)scale(0.1 -0.1)">
       <defs>
        <path d="M 684 794 
L 1344 794 
L 1344 0 
L 684 0 
L 684 794 
z
" id="DejaVuSans-2e" transform="scale(0.015625)"/>
       </defs>
       <use xlink:href="#DejaVuSans-30"/>
       <use x="63.623047" xlink:href="#DejaVuSans-2e"/>
       <use x="95.410156" xlink:href="#DejaVuSans-30"/>
      </g>
     </g>
    </g>
    <g id="ytick_2">
     <g id="line2d_10">
      <g>
       <use style="stroke:#000000;stroke-width:0.8;" x="43.78125" xlink:href="#m78f32f034a" y="221.781001"/>
      </g>
     </g>
     <g id="text_11">
      <!-- 0.2 -->
      <g transform="translate(20.878125 225.58022)scale(0.1 -0.1)">
       <defs>
        <path d="M 1228 531 
L 3431 531 
L 3431 0 
L 469 0 
L 469 531 
Q 828 903 1448 1529 
Q 2069 2156 2228 2338 
Q 2531 2678 2651 2914 
Q 2772 3150 2772 3378 
Q 2772 3750 2511 3984 
Q 2250 4219 1831 4219 
Q 1534 4219 1204 4116 
Q 875 4013 500 3803 
L 500 4441 
Q 881 4594 1212 4672 
Q 1544 4750 1819 4750 
Q 2544 4750 2975 4387 
Q 3406 4025 3406 3419 
Q 3406 3131 3298 2873 
Q 3191 2616 2906 2266 
Q 2828 2175 2409 1742 
Q 1991 1309 1228 531 
z
" id="DejaVuSans-32" transform="scale(0.015625)"/>
       </defs>
       <use xlink:href="#DejaVuSans-30"/>
       <use x="63.623047" xlink:href="#DejaVuSans-2e"/>
       <use x="95.410156" xlink:href="#DejaVuSans-32"/>
      </g>
     </g>
    </g>
    <g id="ytick_3">
     <g id="line2d_11">
      <g>
       <use style="stroke:#000000;stroke-width:0.8;" x="43.78125" xlink:href="#m78f32f034a" y="169.085555"/>
      </g>
     </g>
     <g id="text_12">
      <!-- 0.4 -->
      <g transform="translate(20.878125 172.884774)scale(0.1 -0.1)">
       <use xlink:href="#DejaVuSans-30"/>
       <use x="63.623047" xlink:href="#DejaVuSans-2e"/>
       <use x="95.410156" xlink:href="#DejaVuSans-34"/>
      </g>
     </g>
    </g>
    <g id="ytick_4">
     <g id="line2d_12">
      <g>
       <use style="stroke:#000000;stroke-width:0.8;" x="43.78125" xlink:href="#m78f32f034a" y="116.39011"/>
      </g>
     </g>
     <g id="text_13">
      <!-- 0.6 -->
      <g transform="translate(20.878125 120.189329)scale(0.1 -0.1)">
       <use xlink:href="#DejaVuSans-30"/>
       <use x="63.623047" xlink:href="#DejaVuSans-2e"/>
       <use x="95.410156" xlink:href="#DejaVuSans-36"/>
      </g>
     </g>
    </g>
    <g id="ytick_5">
     <g id="line2d_13">
      <g>
       <use style="stroke:#000000;stroke-width:0.8;" x="43.78125" xlink:href="#m78f32f034a" y="63.694664"/>
      </g>
     </g>
     <g id="text_14">
      <!-- 0.8 -->
      <g transform="translate(20.878125 67.493883)scale(0.1 -0.1)">
       <use xlink:href="#DejaVuSans-30"/>
       <use x="63.623047" xlink:href="#DejaVuSans-2e"/>
       <use x="95.410156" xlink:href="#DejaVuSans-38"/>
      </g>
     </g>
    </g>
    <g id="ytick_6">
     <g id="line2d_14">
      <g>
       <use style="stroke:#000000;stroke-width:0.8;" x="43.78125" xlink:href="#m78f32f034a" y="10.999219"/>
      </g>
     </g>
     <g id="text_15">
      <!-- 1.0 -->
      <g transform="translate(20.878125 14.798437)scale(0.1 -0.1)">
       <use xlink:href="#DejaVuSans-31"/>
       <use x="63.623047" xlink:href="#DejaVuSans-2e"/>
       <use x="95.410156" xlink:href="#DejaVuSans-30"/>
      </g>
     </g>
    </g>
    <g id="text_16">
     <!-- Filtration Efficency -->
     <g transform="translate(14.798438 187.729821)rotate(-90)scale(0.1 -0.1)">
      <defs>
       <path d="M 628 4666 
L 3309 4666 
L 3309 4134 
L 1259 4134 
L 1259 2759 
L 3109 2759 
L 3109 2228 
L 1259 2228 
L 1259 0 
L 628 0 
L 628 4666 
z
" id="DejaVuSans-46" transform="scale(0.015625)"/>
       <path d="M 603 3500 
L 1178 3500 
L 1178 0 
L 603 0 
L 603 3500 
z
M 603 4863 
L 1178 4863 
L 1178 4134 
L 603 4134 
L 603 4863 
z
" id="DejaVuSans-69" transform="scale(0.015625)"/>
       <path d="M 603 4863 
L 1178 4863 
L 1178 0 
L 603 0 
L 603 4863 
z
" id="DejaVuSans-6c" transform="scale(0.015625)"/>
       <path d="M 1172 4494 
L 1172 3500 
L 2356 3500 
L 2356 3053 
L 1172 3053 
L 1172 1153 
Q 1172 725 1289 603 
Q 1406 481 1766 481 
L 2356 481 
L 2356 0 
L 1766 0 
Q 1100 0 847 248 
Q 594 497 594 1153 
L 594 3053 
L 172 3053 
L 172 3500 
L 594 3500 
L 594 4494 
L 1172 4494 
z
" id="DejaVuSans-74" transform="scale(0.015625)"/>
       <path d="M 3513 2113 
L 3513 0 
L 2938 0 
L 2938 2094 
Q 2938 2591 2744 2837 
Q 2550 3084 2163 3084 
Q 1697 3084 1428 2787 
Q 1159 2491 1159 1978 
L 1159 0 
L 581 0 
L 581 3500 
L 1159 3500 
L 1159 2956 
Q 1366 3272 1645 3428 
Q 1925 3584 2291 3584 
Q 2894 3584 3203 3211 
Q 3513 2838 3513 2113 
z
" id="DejaVuSans-6e" transform="scale(0.015625)"/>
       <path d="M 628 4666 
L 3578 4666 
L 3578 4134 
L 1259 4134 
L 1259 2753 
L 3481 2753 
L 3481 2222 
L 1259 2222 
L 1259 531 
L 3634 531 
L 3634 0 
L 628 0 
L 628 4666 
z
" id="DejaVuSans-45" transform="scale(0.015625)"/>
       <path d="M 2375 4863 
L 2375 4384 
L 1825 4384 
Q 1516 4384 1395 4259 
Q 1275 4134 1275 3809 
L 1275 3500 
L 2222 3500 
L 2222 3053 
L 1275 3053 
L 1275 0 
L 697 0 
L 697 3053 
L 147 3053 
L 147 3500 
L 697 3500 
L 697 3744 
Q 697 4328 969 4595 
Q 1241 4863 1831 4863 
L 2375 4863 
z
" id="DejaVuSans-66" transform="scale(0.015625)"/>
       <path d="M 3122 3366 
L 3122 2828 
Q 2878 2963 2633 3030 
Q 2388 3097 2138 3097 
Q 1578 3097 1268 2742 
Q 959 2388 959 1747 
Q 959 1106 1268 751 
Q 1578 397 2138 397 
Q 2388 397 2633 464 
Q 2878 531 3122 666 
L 3122 134 
Q 2881 22 2623 -34 
Q 2366 -91 2075 -91 
Q 1284 -91 818 406 
Q 353 903 353 1747 
Q 353 2603 823 3093 
Q 1294 3584 2113 3584 
Q 2378 3584 2631 3529 
Q 2884 3475 3122 3366 
z
" id="DejaVuSans-63" transform="scale(0.015625)"/>
       <path d="M 2059 -325 
Q 1816 -950 1584 -1140 
Q 1353 -1331 966 -1331 
L 506 -1331 
L 506 -850 
L 844 -850 
Q 1081 -850 1212 -737 
Q 1344 -625 1503 -206 
L 1606 56 
L 191 3500 
L 800 3500 
L 1894 763 
L 2988 3500 
L 3597 3500 
L 2059 -325 
z
" id="DejaVuSans-79" transform="scale(0.015625)"/>
      </defs>
      <use xlink:href="#DejaVuSans-46"/>
      <use x="50.269531" xlink:href="#DejaVuSans-69"/>
      <use x="78.052734" xlink:href="#DejaVuSans-6c"/>
      <use x="105.835938" xlink:href="#DejaVuSans-74"/>
      <use x="145.044922" xlink:href="#DejaVuSans-72"/>
      <use x="186.158203" xlink:href="#DejaVuSans-61"/>
      <use x="247.4375" xlink:href="#DejaVuSans-74"/>
      <use x="286.646484" xlink:href="#DejaVuSans-69"/>
      <use x="314.429688" xlink:href="#DejaVuSans-6f"/>
      <use x="375.611328" xlink:href="#DejaVuSans-6e"/>
      <use x="438.990234" xlink:href="#DejaVuSans-20"/>
      <use x="470.777344" xlink:href="#DejaVuSans-45"/>
      <use x="533.960938" xlink:href="#DejaVuSans-66"/>
      <use x="569.166016" xlink:href="#DejaVuSans-66"/>
      <use x="604.371094" xlink:href="#DejaVuSans-69"/>
      <use x="632.154297" xlink:href="#DejaVuSans-63"/>
      <use x="687.134766" xlink:href="#DejaVuSans-65"/>
      <use x="748.658203" xlink:href="#DejaVuSans-6e"/>
      <use x="812.037109" xlink:href="#DejaVuSans-63"/>
      <use x="867.017578" xlink:href="#DejaVuSans-79"/>
     </g>
    </g>
   </g>
   <g id="line2d_15">
    <path clip-path="url(#p432558aee1)" d="M 268.256679 215.510243 
L 293.76525 203.875665 
" style="fill:none;stroke:#0d0887;stroke-linecap:square;stroke-width:1.5;"/>
   </g>
   <g id="line2d_16">
    <path clip-path="url(#p432558aee1)" d="M 375.392679 247.101163 
L 349.884107 175.992568 
" style="fill:none;stroke:#5302a3;stroke-linecap:square;stroke-width:1.5;"/>
   </g>
   <g id="line2d_17">
    <path clip-path="url(#p432558aee1)" d="M 196.832679 217.670756 
L 196.832679 141.940009 
" style="fill:none;stroke:#8b0aa5;stroke-linecap:square;stroke-width:1.5;"/>
   </g>
   <g id="line2d_18">
    <path clip-path="url(#p432558aee1)" d="M 64.188107 218.513883 
L 293.76525 23.079015 
" style="fill:none;stroke:#b83289;stroke-linecap:square;stroke-width:1.5;"/>
   </g>
   <g id="line2d_19">
    <path clip-path="url(#p432558aee1)" d="M 268.256679 21.670046 
L 252.951536 19.379165 
" style="fill:none;stroke:#db5c68;stroke-linecap:square;stroke-width:1.5;"/>
   </g>
   <g id="line2d_20">
    <path clip-path="url(#p432558aee1)" d="M 115.20525 232.267395 
L 115.20525 209.887916 
" style="fill:none;stroke:#f48849;stroke-linecap:square;stroke-width:1.5;"/>
   </g>
   <g id="line2d_21">
    <path clip-path="url(#p432558aee1)" d="M 232.544679 232.873392 
L 354.985821 207.283373 
" style="fill:none;stroke:#febd2a;stroke-linecap:square;stroke-width:1.5;"/>
   </g>
   <g id="line2d_22">
    <path clip-path="url(#p432558aee1)" d="M -1 271.69543 
L 298.866964 264.145357 
L 400.90125 261.62651 
L 400.90125 261.62651 
" style="fill:none;stroke:#858585;stroke-dasharray:1.5,2.475;stroke-dashoffset:0;stroke-opacity:0.5;stroke-width:1.5;"/>
   </g>
   <g id="line2d_23">
    <path clip-path="url(#p432558aee1)" d="M -1 263.527273 
L 74.79167 256.134464 
L 152.817889 248.749728 
L 230.844107 241.587459 
L 310.870998 234.465617 
L 392.898561 227.393949 
L 400.90125 226.716128 
L 400.90125 226.716128 
" style="fill:none;stroke:#858585;stroke-dasharray:1.5,2.475;stroke-dashoffset:0;stroke-opacity:0.5;stroke-width:1.5;"/>
   </g>
   <g id="line2d_24">
    <path clip-path="url(#p432558aee1)" d="M -1 247.950741 
L 30.77688 240.684962 
L 62.787637 233.590994 
L 94.798393 226.716128 
L 128.809821 219.644086 
L 162.82125 212.803894 
L 196.832679 206.18795 
L 230.844107 199.788902 
L 266.856208 193.241951 
L 302.868309 186.922038 
L 338.88041 180.821291 
L 376.893183 174.610987 
L 400.90125 170.806235 
L 400.90125 170.806235 
" style="fill:none;stroke:#858585;stroke-dasharray:1.5,2.475;stroke-dashoffset:0;stroke-opacity:0.5;stroke-width:1.5;"/>
   </g>
   <g id="line2d_25">
    <path clip-path="url(#p432558aee1)" d="M -1 224.09561 
L 16.772174 216.799897 
L 34.778225 209.663029 
L 52.784275 202.773657 
L 70.790326 196.123199 
L 88.796376 189.703369 
L 106.802426 183.50617 
L 124.808477 177.52388 
L 144.8152 171.11989 
L 164.821922 164.962177 
L 184.828645 159.041269 
L 204.835368 153.348059 
L 224.84209 147.873792 
L 246.849485 142.094937 
L 268.85688 136.560065 
L 290.864275 131.258876 
L 312.87167 126.181504 
L 334.879065 121.318499 
L 358.887132 116.247262 
L 382.8952 111.409144 
L 400.90125 107.927074 
L 400.90125 107.927074 
" style="fill:none;stroke:#858585;stroke-dasharray:1.5,2.475;stroke-dashoffset:0;stroke-opacity:0.5;stroke-width:1.5;"/>
   </g>
   <g id="line2d_26">
    <path clip-path="url(#p432558aee1)" d="M -1 183.348625 
L 8.769485 176.872121 
L 18.772847 170.493195 
L 28.776208 164.359583 
L 38.779569 158.461848 
L 48.782931 152.790922 
L 58.786292 147.33808 
L 70.790326 141.070756 
L 82.794359 135.091534 
L 94.798393 129.387169 
L 106.802426 123.945026 
L 118.80646 118.753051 
L 130.810494 113.799745 
L 142.814527 109.074136 
L 154.818561 104.565757 
L 166.822595 100.264623 
L 180.8273 95.495882 
L 194.832006 90.981896 
L 208.836712 86.709057 
L 222.841418 82.664482 
L 236.846124 78.835976 
L 252.851502 74.710338 
L 268.85688 70.835609 
L 284.862258 67.196529 
L 300.867637 63.778769 
L 316.873015 60.568867 
L 334.879065 57.190473 
L 352.885116 54.042332 
L 370.891166 51.10875 
L 390.897889 48.083108 
L 400.90125 46.656984 
L 400.90125 46.656984 
" style="fill:none;stroke:#858585;stroke-dasharray:1.5,2.475;stroke-dashoffset:0;stroke-opacity:0.5;stroke-width:1.5;"/>
   </g>
   <g id="line2d_27">
    <path clip-path="url(#p432558aee1)" d="M -1 102.182451 
L 4.768141 97.169029 
L 10.770158 92.246418 
L 16.772174 87.605021 
L 22.774191 83.228773 
L 28.776208 79.102525 
L 34.778225 75.211997 
L 40.780242 71.543723 
L 46.782258 68.085006 
L 52.784275 64.823875 
L 60.786964 60.763639 
L 68.789653 57.009685 
L 76.792342 53.538909 
L 84.795032 50.329949 
L 92.797721 47.363056 
L 100.80041 44.619968 
L 108.803099 42.083804 
L 118.80646 39.180919 
L 128.809821 36.549124 
L 138.813183 34.163104 
L 148.816544 31.999906 
L 158.819905 30.038722 
L 170.823939 27.925523 
L 182.827973 26.046869 
L 194.832006 24.376727 
L 208.836712 22.661034 
L 222.841418 21.165383 
L 238.846796 19.689473 
L 254.852174 18.427834 
L 272.858225 17.226058 
L 292.864947 16.117356 
L 314.872342 15.124376 
L 338.88041 14.259489 
L 366.889821 13.476843 
L 398.900578 12.809668 
L 400.90125 12.774514 
L 400.90125 12.774514 
" style="fill:none;stroke:#858585;stroke-dasharray:1.5,2.475;stroke-dashoffset:0;stroke-opacity:0.5;stroke-width:1.5;"/>
   </g>
   <g id="line2d_28">
    <path clip-path="url(#p432558aee1)" d="M -1 42.556811 
L 2.767468 40.308039 
L 6.768813 38.097143 
L 12.77083 35.089538 
L 18.772847 32.415748 
L 24.774863 30.038722 
L 30.77688 27.925523 
L 36.778897 26.046869 
L 42.780914 24.376727 
L 48.782931 22.891954 
L 56.78562 21.165383 
L 64.788309 19.689473 
L 72.790998 18.427834 
L 82.794359 17.105153 
L 92.797721 16.017977 
L 104.801754 14.965736 
L 116.805788 14.13411 
L 130.810494 13.381562 
L 146.815872 12.740044 
L 166.822595 12.175317 
L 190.830662 11.73385 
L 222.841418 11.391476 
L 266.856208 11.164752 
L 340.881082 11.03801 
L 400.90125 11.011181 
L 400.90125 11.011181 
" style="fill:none;stroke:#858585;stroke-dasharray:1.5,2.475;stroke-dashoffset:0;stroke-opacity:0.5;stroke-width:1.5;"/>
   </g>
   <g id="line2d_29">
    <path clip-path="url(#p432558aee1)" d="M -1 14.779565 
L 4.768141 14.013552 
L 12.77083 13.201851 
L 20.773519 12.608725 
L 30.77688 12.086598 
L 42.780914 11.678434 
L 58.786292 11.361886 
L 82.794359 11.14072 
L 124.808477 11.026474 
L 258.853519 10.999361 
L 400.90125 10.999219 
L 400.90125 10.999219 
" style="fill:none;stroke:#858585;stroke-dasharray:1.5,2.475;stroke-dashoffset:0;stroke-opacity:0.5;stroke-width:1.5;"/>
   </g>
   <g id="line2d_30">
    <path clip-path="url(#p432558aee1)" d="M -1 11.005723 
L 196.832679 10.999219 
L 400.90125 10.999219 
L 400.90125 10.999219 
" style="fill:none;stroke:#858585;stroke-dasharray:1.5,2.475;stroke-dashoffset:0;stroke-opacity:0.5;stroke-width:1.5;"/>
   </g>
   <g id="patch_3">
    <path d="M 43.78125 274.476446 
L 43.78125 8.364446 
" style="fill:none;stroke:#000000;stroke-linecap:square;stroke-linejoin:miter;stroke-width:0.8;"/>
   </g>
   <g id="patch_4">
    <path d="M 400.90125 274.476446 
L 400.90125 8.364446 
" style="fill:none;stroke:#000000;stroke-linecap:square;stroke-linejoin:miter;stroke-width:0.8;"/>
   </g>
   <g id="patch_5">
    <path d="M 43.78125 274.476446 
L 400.90125 274.476446 
" style="fill:none;stroke:#000000;stroke-linecap:square;stroke-linejoin:miter;stroke-width:0.8;"/>
   </g>
   <g id="patch_6">
    <path d="M 43.78125 8.364446 
L 400.90125 8.364446 
" style="fill:none;stroke:#000000;stroke-linecap:square;stroke-linejoin:miter;stroke-width:0.8;"/>
   </g>
   <g id="legend_1">
    <g id="patch_7">
     <path d="M 425.75725 221.858196 
L 553.477563 221.858196 
Q 555.477563 221.858196 555.477563 219.858196 
L 555.477563 15.364446 
Q 555.477563 13.364446 553.477563 13.364446 
L 425.75725 13.364446 
Q 423.75725 13.364446 423.75725 15.364446 
L 423.75725 219.858196 
Q 423.75725 221.858196 425.75725 221.858196 
z
" style="fill:#ffffff;opacity:0.8;stroke:#cccccc;stroke-linejoin:miter;"/>
    </g>
    <g id="PathCollection_15">
     <g>
      <use style="fill:#0d0887;stroke:#0d0887;" x="437.75725" xlink:href="#mf2e29bd5fa" y="22.337884"/>
     </g>
    </g>
    <g id="text_17">
     <!-- Mask A Theoretical -->
     <g transform="translate(455.75725 24.962884)scale(0.1 -0.1)">
      <defs>
       <path d="M 628 4666 
L 1569 4666 
L 2759 1491 
L 3956 4666 
L 4897 4666 
L 4897 0 
L 4281 0 
L 4281 4097 
L 3078 897 
L 2444 897 
L 1241 4097 
L 1241 0 
L 628 0 
L 628 4666 
z
" id="DejaVuSans-4d" transform="scale(0.015625)"/>
       <path d="M 581 4863 
L 1159 4863 
L 1159 1991 
L 2875 3500 
L 3609 3500 
L 1753 1863 
L 3688 0 
L 2938 0 
L 1159 1709 
L 1159 0 
L 581 0 
L 581 4863 
z
" id="DejaVuSans-6b" transform="scale(0.015625)"/>
       <path d="M 2188 4044 
L 1331 1722 
L 3047 1722 
L 2188 4044 
z
M 1831 4666 
L 2547 4666 
L 4325 0 
L 3669 0 
L 3244 1197 
L 1141 1197 
L 716 0 
L 50 0 
L 1831 4666 
z
" id="DejaVuSans-41" transform="scale(0.015625)"/>
       <path d="M -19 4666 
L 3928 4666 
L 3928 4134 
L 2272 4134 
L 2272 0 
L 1638 0 
L 1638 4134 
L -19 4134 
L -19 4666 
z
" id="DejaVuSans-54" transform="scale(0.015625)"/>
       <path d="M 3513 2113 
L 3513 0 
L 2938 0 
L 2938 2094 
Q 2938 2591 2744 2837 
Q 2550 3084 2163 3084 
Q 1697 3084 1428 2787 
Q 1159 2491 1159 1978 
L 1159 0 
L 581 0 
L 581 4863 
L 1159 4863 
L 1159 2956 
Q 1366 3272 1645 3428 
Q 1925 3584 2291 3584 
Q 2894 3584 3203 3211 
Q 3513 2838 3513 2113 
z
" id="DejaVuSans-68" transform="scale(0.015625)"/>
      </defs>
      <use xlink:href="#DejaVuSans-4d"/>
      <use x="86.279297" xlink:href="#DejaVuSans-61"/>
      <use x="147.558594" xlink:href="#DejaVuSans-73"/>
      <use x="199.658203" xlink:href="#DejaVuSans-6b"/>
      <use x="257.568359" xlink:href="#DejaVuSans-20"/>
      <use x="289.355469" xlink:href="#DejaVuSans-41"/>
      <use x="357.763672" xlink:href="#DejaVuSans-20"/>
      <use x="389.550781" xlink:href="#DejaVuSans-54"/>
      <use x="450.634766" xlink:href="#DejaVuSans-68"/>
      <use x="514.013672" xlink:href="#DejaVuSans-65"/>
      <use x="575.537109" xlink:href="#DejaVuSans-6f"/>
      <use x="636.71875" xlink:href="#DejaVuSans-72"/>
      <use x="675.582031" xlink:href="#DejaVuSans-65"/>
      <use x="737.105469" xlink:href="#DejaVuSans-74"/>
      <use x="776.314453" xlink:href="#DejaVuSans-69"/>
      <use x="804.097656" xlink:href="#DejaVuSans-63"/>
      <use x="859.078125" xlink:href="#DejaVuSans-61"/>
      <use x="920.357422" xlink:href="#DejaVuSans-6c"/>
     </g>
    </g>
    <g id="PathCollection_16">
     <path d="M 437.75725 40.016009 
C 438.552859 40.016009 439.31599 39.69991 439.87857 39.137329 
C 440.441151 38.574749 440.75725 37.811618 440.75725 37.016009 
C 440.75725 36.2204 440.441151 35.457269 439.87857 34.894689 
C 439.31599 34.332108 438.552859 34.016009 437.75725 34.016009 
C 436.961641 34.016009 436.19851 34.332108 435.63593 34.894689 
C 435.073349 35.457269 434.75725 36.2204 434.75725 37.016009 
C 434.75725 37.811618 435.073349 38.574749 435.63593 39.137329 
C 436.19851 39.69991 436.961641 40.016009 437.75725 40.016009 
z
" style="fill:none;stroke:#0d0887;"/>
    </g>
    <g id="text_18">
     <!-- Mask A Measured -->
     <g transform="translate(455.75725 39.641009)scale(0.1 -0.1)">
      <defs>
       <path d="M 2906 2969 
L 2906 4863 
L 3481 4863 
L 3481 0 
L 2906 0 
L 2906 525 
Q 2725 213 2448 61 
Q 2172 -91 1784 -91 
Q 1150 -91 751 415 
Q 353 922 353 1747 
Q 353 2572 751 3078 
Q 1150 3584 1784 3584 
Q 2172 3584 2448 3432 
Q 2725 3281 2906 2969 
z
M 947 1747 
Q 947 1113 1208 752 
Q 1469 391 1925 391 
Q 2381 391 2643 752 
Q 2906 1113 2906 1747 
Q 2906 2381 2643 2742 
Q 2381 3103 1925 3103 
Q 1469 3103 1208 2742 
Q 947 2381 947 1747 
z
" id="DejaVuSans-64" transform="scale(0.015625)"/>
      </defs>
      <use xlink:href="#DejaVuSans-4d"/>
      <use x="86.279297" xlink:href="#DejaVuSans-61"/>
      <use x="147.558594" xlink:href="#DejaVuSans-73"/>
      <use x="199.658203" xlink:href="#DejaVuSans-6b"/>
      <use x="257.568359" xlink:href="#DejaVuSans-20"/>
      <use x="289.355469" xlink:href="#DejaVuSans-41"/>
      <use x="357.763672" xlink:href="#DejaVuSans-20"/>
      <use x="389.550781" xlink:href="#DejaVuSans-4d"/>
      <use x="475.830078" xlink:href="#DejaVuSans-65"/>
      <use x="537.353516" xlink:href="#DejaVuSans-61"/>
      <use x="598.632812" xlink:href="#DejaVuSans-73"/>
      <use x="650.732422" xlink:href="#DejaVuSans-75"/>
      <use x="714.111328" xlink:href="#DejaVuSans-72"/>
      <use x="752.974609" xlink:href="#DejaVuSans-65"/>
      <use x="814.498047" xlink:href="#DejaVuSans-64"/>
     </g>
    </g>
    <g id="PathCollection_17">
     <g>
      <use style="fill:#5302a3;stroke:#5302a3;" x="437.75725" xlink:href="#me517026dc7" y="51.694134"/>
     </g>
    </g>
    <g id="text_19">
     <!-- Mask B Theoretical -->
     <g transform="translate(455.75725 54.319134)scale(0.1 -0.1)">
      <defs>
       <path d="M 1259 2228 
L 1259 519 
L 2272 519 
Q 2781 519 3026 730 
Q 3272 941 3272 1375 
Q 3272 1813 3026 2020 
Q 2781 2228 2272 2228 
L 1259 2228 
z
M 1259 4147 
L 1259 2741 
L 2194 2741 
Q 2656 2741 2882 2914 
Q 3109 3088 3109 3444 
Q 3109 3797 2882 3972 
Q 2656 4147 2194 4147 
L 1259 4147 
z
M 628 4666 
L 2241 4666 
Q 2963 4666 3353 4366 
Q 3744 4066 3744 3513 
Q 3744 3084 3544 2831 
Q 3344 2578 2956 2516 
Q 3422 2416 3680 2098 
Q 3938 1781 3938 1306 
Q 3938 681 3513 340 
Q 3088 0 2303 0 
L 628 0 
L 628 4666 
z
" id="DejaVuSans-42" transform="scale(0.015625)"/>
      </defs>
      <use xlink:href="#DejaVuSans-4d"/>
      <use x="86.279297" xlink:href="#DejaVuSans-61"/>
      <use x="147.558594" xlink:href="#DejaVuSans-73"/>
      <use x="199.658203" xlink:href="#DejaVuSans-6b"/>
      <use x="257.568359" xlink:href="#DejaVuSans-20"/>
      <use x="289.355469" xlink:href="#DejaVuSans-42"/>
      <use x="357.958984" xlink:href="#DejaVuSans-20"/>
      <use x="389.746094" xlink:href="#DejaVuSans-54"/>
      <use x="450.830078" xlink:href="#DejaVuSans-68"/>
      <use x="514.208984" xlink:href="#DejaVuSans-65"/>
      <use x="575.732422" xlink:href="#DejaVuSans-6f"/>
      <use x="636.914062" xlink:href="#DejaVuSans-72"/>
      <use x="675.777344" xlink:href="#DejaVuSans-65"/>
      <use x="737.300781" xlink:href="#DejaVuSans-74"/>
      <use x="776.509766" xlink:href="#DejaVuSans-69"/>
      <use x="804.292969" xlink:href="#DejaVuSans-63"/>
      <use x="859.273438" xlink:href="#DejaVuSans-61"/>
      <use x="920.552734" xlink:href="#DejaVuSans-6c"/>
     </g>
    </g>
    <g id="PathCollection_18">
     <path d="M 437.75725 69.372259 
C 438.552859 69.372259 439.31599 69.05616 439.87857 68.493579 
C 440.441151 67.930999 440.75725 67.167868 440.75725 66.372259 
C 440.75725 65.57665 440.441151 64.813519 439.87857 64.250939 
C 439.31599 63.688358 438.552859 63.372259 437.75725 63.372259 
C 436.961641 63.372259 436.19851 63.688358 435.63593 64.250939 
C 435.073349 64.813519 434.75725 65.57665 434.75725 66.372259 
C 434.75725 67.167868 435.073349 67.930999 435.63593 68.493579 
C 436.19851 69.05616 436.961641 69.372259 437.75725 69.372259 
z
" style="fill:none;stroke:#5302a3;"/>
    </g>
    <g id="text_20">
     <!-- Mask B Measured -->
     <g transform="translate(455.75725 68.997259)scale(0.1 -0.1)">
      <use xlink:href="#DejaVuSans-4d"/>
      <use x="86.279297" xlink:href="#DejaVuSans-61"/>
      <use x="147.558594" xlink:href="#DejaVuSans-73"/>
      <use x="199.658203" xlink:href="#DejaVuSans-6b"/>
      <use x="257.568359" xlink:href="#DejaVuSans-20"/>
      <use x="289.355469" xlink:href="#DejaVuSans-42"/>
      <use x="357.958984" xlink:href="#DejaVuSans-20"/>
      <use x="389.746094" xlink:href="#DejaVuSans-4d"/>
      <use x="476.025391" xlink:href="#DejaVuSans-65"/>
      <use x="537.548828" xlink:href="#DejaVuSans-61"/>
      <use x="598.828125" xlink:href="#DejaVuSans-73"/>
      <use x="650.927734" xlink:href="#DejaVuSans-75"/>
      <use x="714.306641" xlink:href="#DejaVuSans-72"/>
      <use x="753.169922" xlink:href="#DejaVuSans-65"/>
      <use x="814.693359" xlink:href="#DejaVuSans-64"/>
     </g>
    </g>
    <g id="PathCollection_19">
     <g>
      <use style="fill:#8b0aa5;stroke:#8b0aa5;" x="437.75725" xlink:href="#mf6e8c99114" y="81.050384"/>
     </g>
    </g>
    <g id="text_21">
     <!-- Mask C Theoretical -->
     <g transform="translate(455.75725 83.675384)scale(0.1 -0.1)">
      <defs>
       <path d="M 4122 4306 
L 4122 3641 
Q 3803 3938 3442 4084 
Q 3081 4231 2675 4231 
Q 1875 4231 1450 3742 
Q 1025 3253 1025 2328 
Q 1025 1406 1450 917 
Q 1875 428 2675 428 
Q 3081 428 3442 575 
Q 3803 722 4122 1019 
L 4122 359 
Q 3791 134 3420 21 
Q 3050 -91 2638 -91 
Q 1578 -91 968 557 
Q 359 1206 359 2328 
Q 359 3453 968 4101 
Q 1578 4750 2638 4750 
Q 3056 4750 3426 4639 
Q 3797 4528 4122 4306 
z
" id="DejaVuSans-43" transform="scale(0.015625)"/>
      </defs>
      <use xlink:href="#DejaVuSans-4d"/>
      <use x="86.279297" xlink:href="#DejaVuSans-61"/>
      <use x="147.558594" xlink:href="#DejaVuSans-73"/>
      <use x="199.658203" xlink:href="#DejaVuSans-6b"/>
      <use x="257.568359" xlink:href="#DejaVuSans-20"/>
      <use x="289.355469" xlink:href="#DejaVuSans-43"/>
      <use x="359.179688" xlink:href="#DejaVuSans-20"/>
      <use x="390.966797" xlink:href="#DejaVuSans-54"/>
      <use x="452.050781" xlink:href="#DejaVuSans-68"/>
      <use x="515.429688" xlink:href="#DejaVuSans-65"/>
      <use x="576.953125" xlink:href="#DejaVuSans-6f"/>
      <use x="638.134766" xlink:href="#DejaVuSans-72"/>
      <use x="676.998047" xlink:href="#DejaVuSans-65"/>
      <use x="738.521484" xlink:href="#DejaVuSans-74"/>
      <use x="777.730469" xlink:href="#DejaVuSans-69"/>
      <use x="805.513672" xlink:href="#DejaVuSans-63"/>
      <use x="860.494141" xlink:href="#DejaVuSans-61"/>
      <use x="921.773438" xlink:href="#DejaVuSans-6c"/>
     </g>
    </g>
    <g id="PathCollection_20">
     <path d="M 437.75725 98.728509 
C 438.552859 98.728509 439.31599 98.41241 439.87857 97.849829 
C 440.441151 97.287249 440.75725 96.524118 440.75725 95.728509 
C 440.75725 94.9329 440.441151 94.169769 439.87857 93.607189 
C 439.31599 93.044608 438.552859 92.728509 437.75725 92.728509 
C 436.961641 92.728509 436.19851 93.044608 435.63593 93.607189 
C 435.073349 94.169769 434.75725 94.9329 434.75725 95.728509 
C 434.75725 96.524118 435.073349 97.287249 435.63593 97.849829 
C 436.19851 98.41241 436.961641 98.728509 437.75725 98.728509 
z
" style="fill:none;stroke:#8b0aa5;"/>
    </g>
    <g id="text_22">
     <!-- Mask C Measured -->
     <g transform="translate(455.75725 98.353509)scale(0.1 -0.1)">
      <use xlink:href="#DejaVuSans-4d"/>
      <use x="86.279297" xlink:href="#DejaVuSans-61"/>
      <use x="147.558594" xlink:href="#DejaVuSans-73"/>
      <use x="199.658203" xlink:href="#DejaVuSans-6b"/>
      <use x="257.568359" xlink:href="#DejaVuSans-20"/>
      <use x="289.355469" xlink:href="#DejaVuSans-43"/>
      <use x="359.179688" xlink:href="#DejaVuSans-20"/>
      <use x="390.966797" xlink:href="#DejaVuSans-4d"/>
      <use x="477.246094" xlink:href="#DejaVuSans-65"/>
      <use x="538.769531" xlink:href="#DejaVuSans-61"/>
      <use x="600.048828" xlink:href="#DejaVuSans-73"/>
      <use x="652.148438" xlink:href="#DejaVuSans-75"/>
      <use x="715.527344" xlink:href="#DejaVuSans-72"/>
      <use x="754.390625" xlink:href="#DejaVuSans-65"/>
      <use x="815.914062" xlink:href="#DejaVuSans-64"/>
     </g>
    </g>
    <g id="PathCollection_21">
     <g>
      <use style="fill:#b83289;stroke:#b83289;" x="437.75725" xlink:href="#mcbfa1fdb1a" y="110.406634"/>
     </g>
    </g>
    <g id="text_23">
     <!-- Mask D Theoretical -->
     <g transform="translate(455.75725 113.031634)scale(0.1 -0.1)">
      <use xlink:href="#DejaVuSans-4d"/>
      <use x="86.279297" xlink:href="#DejaVuSans-61"/>
      <use x="147.558594" xlink:href="#DejaVuSans-73"/>
      <use x="199.658203" xlink:href="#DejaVuSans-6b"/>
      <use x="257.568359" xlink:href="#DejaVuSans-20"/>
      <use x="289.355469" xlink:href="#DejaVuSans-44"/>
      <use x="366.357422" xlink:href="#DejaVuSans-20"/>
      <use x="398.144531" xlink:href="#DejaVuSans-54"/>
      <use x="459.228516" xlink:href="#DejaVuSans-68"/>
      <use x="522.607422" xlink:href="#DejaVuSans-65"/>
      <use x="584.130859" xlink:href="#DejaVuSans-6f"/>
      <use x="645.3125" xlink:href="#DejaVuSans-72"/>
      <use x="684.175781" xlink:href="#DejaVuSans-65"/>
      <use x="745.699219" xlink:href="#DejaVuSans-74"/>
      <use x="784.908203" xlink:href="#DejaVuSans-69"/>
      <use x="812.691406" xlink:href="#DejaVuSans-63"/>
      <use x="867.671875" xlink:href="#DejaVuSans-61"/>
      <use x="928.951172" xlink:href="#DejaVuSans-6c"/>
     </g>
    </g>
    <g id="PathCollection_22">
     <path d="M 437.75725 128.084759 
C 438.552859 128.084759 439.31599 127.76866 439.87857 127.206079 
C 440.441151 126.643499 440.75725 125.880368 440.75725 125.084759 
C 440.75725 124.28915 440.441151 123.526019 439.87857 122.963439 
C 439.31599 122.400858 438.552859 122.084759 437.75725 122.084759 
C 436.961641 122.084759 436.19851 122.400858 435.63593 122.963439 
C 435.073349 123.526019 434.75725 124.28915 434.75725 125.084759 
C 434.75725 125.880368 435.073349 126.643499 435.63593 127.206079 
C 436.19851 127.76866 436.961641 128.084759 437.75725 128.084759 
z
" style="fill:none;stroke:#b83289;"/>
    </g>
    <g id="text_24">
     <!-- Mask D Measured -->
     <g transform="translate(455.75725 127.709759)scale(0.1 -0.1)">
      <use xlink:href="#DejaVuSans-4d"/>
      <use x="86.279297" xlink:href="#DejaVuSans-61"/>
      <use x="147.558594" xlink:href="#DejaVuSans-73"/>
      <use x="199.658203" xlink:href="#DejaVuSans-6b"/>
      <use x="257.568359" xlink:href="#DejaVuSans-20"/>
      <use x="289.355469" xlink:href="#DejaVuSans-44"/>
      <use x="366.357422" xlink:href="#DejaVuSans-20"/>
      <use x="398.144531" xlink:href="#DejaVuSans-4d"/>
      <use x="484.423828" xlink:href="#DejaVuSans-65"/>
      <use x="545.947266" xlink:href="#DejaVuSans-61"/>
      <use x="607.226562" xlink:href="#DejaVuSans-73"/>
      <use x="659.326172" xlink:href="#DejaVuSans-75"/>
      <use x="722.705078" xlink:href="#DejaVuSans-72"/>
      <use x="761.568359" xlink:href="#DejaVuSans-65"/>
      <use x="823.091797" xlink:href="#DejaVuSans-64"/>
     </g>
    </g>
    <g id="PathCollection_23">
     <g>
      <use style="fill:#db5c68;stroke:#db5c68;" x="437.75725" xlink:href="#m26d2770ea2" y="139.762884"/>
     </g>
    </g>
    <g id="text_25">
     <!-- Mask E Theoretical -->
     <g transform="translate(455.75725 142.387884)scale(0.1 -0.1)">
      <use xlink:href="#DejaVuSans-4d"/>
      <use x="86.279297" xlink:href="#DejaVuSans-61"/>
      <use x="147.558594" xlink:href="#DejaVuSans-73"/>
      <use x="199.658203" xlink:href="#DejaVuSans-6b"/>
      <use x="257.568359" xlink:href="#DejaVuSans-20"/>
      <use x="289.355469" xlink:href="#DejaVuSans-45"/>
      <use x="352.539062" xlink:href="#DejaVuSans-20"/>
      <use x="384.326172" xlink:href="#DejaVuSans-54"/>
      <use x="445.410156" xlink:href="#DejaVuSans-68"/>
      <use x="508.789062" xlink:href="#DejaVuSans-65"/>
      <use x="570.3125" xlink:href="#DejaVuSans-6f"/>
      <use x="631.494141" xlink:href="#DejaVuSans-72"/>
      <use x="670.357422" xlink:href="#DejaVuSans-65"/>
      <use x="731.880859" xlink:href="#DejaVuSans-74"/>
      <use x="771.089844" xlink:href="#DejaVuSans-69"/>
      <use x="798.873047" xlink:href="#DejaVuSans-63"/>
      <use x="853.853516" xlink:href="#DejaVuSans-61"/>
      <use x="915.132812" xlink:href="#DejaVuSans-6c"/>
     </g>
    </g>
    <g id="PathCollection_24">
     <path d="M 437.75725 157.441009 
C 438.552859 157.441009 439.31599 157.12491 439.87857 156.562329 
C 440.441151 155.999749 440.75725 155.236618 440.75725 154.441009 
C 440.75725 153.6454 440.441151 152.882269 439.87857 152.319689 
C 439.31599 151.757108 438.552859 151.441009 437.75725 151.441009 
C 436.961641 151.441009 436.19851 151.757108 435.63593 152.319689 
C 435.073349 152.882269 434.75725 153.6454 434.75725 154.441009 
C 434.75725 155.236618 435.073349 155.999749 435.63593 156.562329 
C 436.19851 157.12491 436.961641 157.441009 437.75725 157.441009 
z
" style="fill:none;stroke:#db5c68;"/>
    </g>
    <g id="text_26">
     <!-- Mask E Measured -->
     <g transform="translate(455.75725 157.066009)scale(0.1 -0.1)">
      <use xlink:href="#DejaVuSans-4d"/>
      <use x="86.279297" xlink:href="#DejaVuSans-61"/>
      <use x="147.558594" xlink:href="#DejaVuSans-73"/>
      <use x="199.658203" xlink:href="#DejaVuSans-6b"/>
      <use x="257.568359" xlink:href="#DejaVuSans-20"/>
      <use x="289.355469" xlink:href="#DejaVuSans-45"/>
      <use x="352.539062" xlink:href="#DejaVuSans-20"/>
      <use x="384.326172" xlink:href="#DejaVuSans-4d"/>
      <use x="470.605469" xlink:href="#DejaVuSans-65"/>
      <use x="532.128906" xlink:href="#DejaVuSans-61"/>
      <use x="593.408203" xlink:href="#DejaVuSans-73"/>
      <use x="645.507812" xlink:href="#DejaVuSans-75"/>
      <use x="708.886719" xlink:href="#DejaVuSans-72"/>
      <use x="747.75" xlink:href="#DejaVuSans-65"/>
      <use x="809.273438" xlink:href="#DejaVuSans-64"/>
     </g>
    </g>
    <g id="PathCollection_25">
     <g>
      <use style="fill:#f48849;stroke:#f48849;" x="437.75725" xlink:href="#m64e20dc2d9" y="169.119134"/>
     </g>
    </g>
    <g id="text_27">
     <!-- Mask F Theoretical -->
     <g transform="translate(455.75725 171.744134)scale(0.1 -0.1)">
      <use xlink:href="#DejaVuSans-4d"/>
      <use x="86.279297" xlink:href="#DejaVuSans-61"/>
      <use x="147.558594" xlink:href="#DejaVuSans-73"/>
      <use x="199.658203" xlink:href="#DejaVuSans-6b"/>
      <use x="257.568359" xlink:href="#DejaVuSans-20"/>
      <use x="289.355469" xlink:href="#DejaVuSans-46"/>
      <use x="346.875" xlink:href="#DejaVuSans-20"/>
      <use x="378.662109" xlink:href="#DejaVuSans-54"/>
      <use x="439.746094" xlink:href="#DejaVuSans-68"/>
      <use x="503.125" xlink:href="#DejaVuSans-65"/>
      <use x="564.648438" xlink:href="#DejaVuSans-6f"/>
      <use x="625.830078" xlink:href="#DejaVuSans-72"/>
      <use x="664.693359" xlink:href="#DejaVuSans-65"/>
      <use x="726.216797" xlink:href="#DejaVuSans-74"/>
      <use x="765.425781" xlink:href="#DejaVuSans-69"/>
      <use x="793.208984" xlink:href="#DejaVuSans-63"/>
      <use x="848.189453" xlink:href="#DejaVuSans-61"/>
      <use x="909.46875" xlink:href="#DejaVuSans-6c"/>
     </g>
    </g>
    <g id="PathCollection_26">
     <path d="M 437.75725 186.797259 
C 438.552859 186.797259 439.31599 186.48116 439.87857 185.918579 
C 440.441151 185.355999 440.75725 184.592868 440.75725 183.797259 
C 440.75725 183.00165 440.441151 182.238519 439.87857 181.675939 
C 439.31599 181.113358 438.552859 180.797259 437.75725 180.797259 
C 436.961641 180.797259 436.19851 181.113358 435.63593 181.675939 
C 435.073349 182.238519 434.75725 183.00165 434.75725 183.797259 
C 434.75725 184.592868 435.073349 185.355999 435.63593 185.918579 
C 436.19851 186.48116 436.961641 186.797259 437.75725 186.797259 
z
" style="fill:none;stroke:#f48849;"/>
    </g>
    <g id="text_28">
     <!-- Mask F Measured -->
     <g transform="translate(455.75725 186.422259)scale(0.1 -0.1)">
      <use xlink:href="#DejaVuSans-4d"/>
      <use x="86.279297" xlink:href="#DejaVuSans-61"/>
      <use x="147.558594" xlink:href="#DejaVuSans-73"/>
      <use x="199.658203" xlink:href="#DejaVuSans-6b"/>
      <use x="257.568359" xlink:href="#DejaVuSans-20"/>
      <use x="289.355469" xlink:href="#DejaVuSans-46"/>
      <use x="346.875" xlink:href="#DejaVuSans-20"/>
      <use x="378.662109" xlink:href="#DejaVuSans-4d"/>
      <use x="464.941406" xlink:href="#DejaVuSans-65"/>
      <use x="526.464844" xlink:href="#DejaVuSans-61"/>
      <use x="587.744141" xlink:href="#DejaVuSans-73"/>
      <use x="639.84375" xlink:href="#DejaVuSans-75"/>
      <use x="703.222656" xlink:href="#DejaVuSans-72"/>
      <use x="742.085938" xlink:href="#DejaVuSans-65"/>
      <use x="803.609375" xlink:href="#DejaVuSans-64"/>
     </g>
    </g>
    <g id="PathCollection_27">
     <g>
      <use style="fill:#febd2a;stroke:#febd2a;" x="437.75725" xlink:href="#mfd99a79676" y="198.475384"/>
     </g>
    </g>
    <g id="text_29">
     <!-- Mask G Theoretical -->
     <g transform="translate(455.75725 201.100384)scale(0.1 -0.1)">
      <defs>
       <path d="M 3809 666 
L 3809 1919 
L 2778 1919 
L 2778 2438 
L 4434 2438 
L 4434 434 
Q 4069 175 3628 42 
Q 3188 -91 2688 -91 
Q 1594 -91 976 548 
Q 359 1188 359 2328 
Q 359 3472 976 4111 
Q 1594 4750 2688 4750 
Q 3144 4750 3555 4637 
Q 3966 4525 4313 4306 
L 4313 3634 
Q 3963 3931 3569 4081 
Q 3175 4231 2741 4231 
Q 1884 4231 1454 3753 
Q 1025 3275 1025 2328 
Q 1025 1384 1454 906 
Q 1884 428 2741 428 
Q 3075 428 3337 486 
Q 3600 544 3809 666 
z
" id="DejaVuSans-47" transform="scale(0.015625)"/>
      </defs>
      <use xlink:href="#DejaVuSans-4d"/>
      <use x="86.279297" xlink:href="#DejaVuSans-61"/>
      <use x="147.558594" xlink:href="#DejaVuSans-73"/>
      <use x="199.658203" xlink:href="#DejaVuSans-6b"/>
      <use x="257.568359" xlink:href="#DejaVuSans-20"/>
      <use x="289.355469" xlink:href="#DejaVuSans-47"/>
      <use x="366.845703" xlink:href="#DejaVuSans-20"/>
      <use x="398.632812" xlink:href="#DejaVuSans-54"/>
      <use x="459.716797" xlink:href="#DejaVuSans-68"/>
      <use x="523.095703" xlink:href="#DejaVuSans-65"/>
      <use x="584.619141" xlink:href="#DejaVuSans-6f"/>
      <use x="645.800781" xlink:href="#DejaVuSans-72"/>
      <use x="684.664062" xlink:href="#DejaVuSans-65"/>
      <use x="746.1875" xlink:href="#DejaVuSans-74"/>
      <use x="785.396484" xlink:href="#DejaVuSans-69"/>
      <use x="813.179688" xlink:href="#DejaVuSans-63"/>
      <use x="868.160156" xlink:href="#DejaVuSans-61"/>
      <use x="929.439453" xlink:href="#DejaVuSans-6c"/>
     </g>
    </g>
    <g id="PathCollection_28">
     <path d="M 437.75725 216.153509 
C 438.552859 216.153509 439.31599 215.83741 439.87857 215.274829 
C 440.441151 214.712249 440.75725 213.949118 440.75725 213.153509 
C 440.75725 212.3579 440.441151 211.594769 439.87857 211.032189 
C 439.31599 210.469608 438.552859 210.153509 437.75725 210.153509 
C 436.961641 210.153509 436.19851 210.469608 435.63593 211.032189 
C 435.073349 211.594769 434.75725 212.3579 434.75725 213.153509 
C 434.75725 213.949118 435.073349 214.712249 435.63593 215.274829 
C 436.19851 215.83741 436.961641 216.153509 437.75725 216.153509 
z
" style="fill:none;stroke:#febd2a;"/>
    </g>
    <g id="text_30">
     <!-- Mask G Measured -->
     <g transform="translate(455.75725 215.778509)scale(0.1 -0.1)">
      <use xlink:href="#DejaVuSans-4d"/>
      <use x="86.279297" xlink:href="#DejaVuSans-61"/>
      <use x="147.558594" xlink:href="#DejaVuSans-73"/>
      <use x="199.658203" xlink:href="#DejaVuSans-6b"/>
      <use x="257.568359" xlink:href="#DejaVuSans-20"/>
      <use x="289.355469" xlink:href="#DejaVuSans-47"/>
      <use x="366.845703" xlink:href="#DejaVuSans-20"/>
      <use x="398.632812" xlink:href="#DejaVuSans-4d"/>
      <use x="484.912109" xlink:href="#DejaVuSans-65"/>
      <use x="546.435547" xlink:href="#DejaVuSans-61"/>
      <use x="607.714844" xlink:href="#DejaVuSans-73"/>
      <use x="659.814453" xlink:href="#DejaVuSans-75"/>
      <use x="723.193359" xlink:href="#DejaVuSans-72"/>
      <use x="762.056641" xlink:href="#DejaVuSans-65"/>
      <use x="823.580078" xlink:href="#DejaVuSans-64"/>
     </g>
    </g>
   </g>
  </g>
 </g>
 <defs>
  <clipPath id="p432558aee1">
   <rect height="266.112" width="357.12" x="43.78125" y="8.364446"/>
  </clipPath>
 </defs>
</svg>
