<?xml version="1.0" encoding="utf-8" standalone="no"?>
<!DOCTYPE svg PUBLIC "-//W3C//DTD SVG 1.1//EN"
  "http://www.w3.org/Graphics/SVG/1.1/DTD/svg11.dtd">
<svg height="325.986375pt" version="1.1" viewBox="0 0 488.28225 325.986375" width="488.28225pt" xmlns="http://www.w3.org/2000/svg" xmlns:xlink="http://www.w3.org/1999/xlink">
 <metadata>
  <rdf:RDF xmlns:cc="http://creativecommons.org/ns#" xmlns:dc="http://purl.org/dc/elements/1.1/" xmlns:rdf="http://www.w3.org/1999/02/22-rdf-syntax-ns#">
   <cc:Work>
    <dc:type rdf:resource="http://purl.org/dc/dcmitype/StillImage"/>
    <dc:date>2021-09-08T15:15:23.060256</dc:date>
    <dc:format>image/svg+xml</dc:format>
    <dc:creator>
     <cc:Agent>
      <dc:title>Matplotlib v3.4.2, https://matplotlib.org/</dc:title>
     </cc:Agent>
    </dc:creator>
   </cc:Work>
  </rdf:RDF>
 </metadata>
 <defs>
  <style type="text/css">*{stroke-linecap:butt;stroke-linejoin:round;}</style>
 </defs>
 <g id="figure_1">
  <g id="patch_1">
   <path d="M 0 325.986375 
L 488.28225 325.986375 
L 488.28225 0 
L 0 0 
z
" style="fill:#ffffff;"/>
  </g>
  <g id="axes_1">
   <g id="patch_2">
    <path d="M 43.78125 288.430125 
L 400.90125 288.430125 
L 400.90125 22.318125 
L 43.78125 22.318125 
z
" style="fill:#ffffff;"/>
   </g>
   <g id="PathCollection_1">
    <defs>
     <path d="M 0 2.738613 
C 0.726289 2.738613 1.422928 2.450055 1.936492 1.936492 
C 2.450055 1.422928 2.738613 0.726289 2.738613 0 
C 2.738613 -0.726289 2.450055 -1.422928 1.936492 -1.936492 
C 1.422928 -2.450055 0.726289 -2.738613 0 -2.738613 
C -0.726289 -2.738613 -1.422928 -2.450055 -1.936492 -1.936492 
C -2.450055 -1.422928 -2.738613 -0.726289 -2.738613 0 
C -2.738613 0.726289 -2.450055 1.422928 -1.936492 1.936492 
C -1.422928 2.450055 -0.726289 2.738613 0 2.738613 
z
" id="m77e50d44de" style="stroke:#0d0887;"/>
    </defs>
    <g clip-path="url(#p3499a1fbf6)"/>
   </g>
   <g id="PathCollection_2">
    <defs>
     <path d="M 0 -2.738613 
L -2.738613 2.738613 
L 2.738613 2.738613 
z
" id="m4865dc0065" style="stroke:#7e03a8;"/>
    </defs>
    <g clip-path="url(#p3499a1fbf6)"/>
   </g>
   <g id="PathCollection_3">
    <defs>
     <path d="M 0 3.872983 
L 3.872983 0 
L 0 -3.872983 
L -3.872983 0 
z
" id="md327927f55" style="stroke:#cc4778;"/>
    </defs>
    <g clip-path="url(#p3499a1fbf6)"/>
   </g>
   <g id="PathCollection_4">
    <defs>
     <path d="M -2.738613 2.738613 
L 2.738613 2.738613 
L 2.738613 -2.738613 
L -2.738613 -2.738613 
z
" id="m3eb7508f66" style="stroke:#f89540;"/>
    </defs>
    <g clip-path="url(#p3499a1fbf6)"/>
   </g>
   <g id="matplotlib.axis_1">
    <g id="xtick_1">
     <g id="line2d_1">
      <defs>
       <path d="M 0 0 
L 0 3.5 
" id="m93079617e9" style="stroke:#000000;stroke-width:0.8;"/>
      </defs>
      <g>
       <use style="stroke:#000000;stroke-width:0.8;" x="43.78125" xlink:href="#m93079617e9" y="288.430125"/>
      </g>
     </g>
     <g id="text_1">
      <!-- 0 -->
      <g transform="translate(40.6 303.028562)scale(0.1 -0.1)">
       <defs>
        <path d="M 2034 4250 
Q 1547 4250 1301 3770 
Q 1056 3291 1056 2328 
Q 1056 1369 1301 889 
Q 1547 409 2034 409 
Q 2525 409 2770 889 
Q 3016 1369 3016 2328 
Q 3016 3291 2770 3770 
Q 2525 4250 2034 4250 
z
M 2034 4750 
Q 2819 4750 3233 4129 
Q 3647 3509 3647 2328 
Q 3647 1150 3233 529 
Q 2819 -91 2034 -91 
Q 1250 -91 836 529 
Q 422 1150 422 2328 
Q 422 3509 836 4129 
Q 1250 4750 2034 4750 
z
" id="DejaVuSans-30" transform="scale(0.015625)"/>
       </defs>
       <use xlink:href="#DejaVuSans-30"/>
      </g>
     </g>
    </g>
    <g id="xtick_2">
     <g id="line2d_2">
      <g>
       <use style="stroke:#000000;stroke-width:0.8;" x="108.712159" xlink:href="#m93079617e9" y="288.430125"/>
      </g>
     </g>
     <g id="text_2">
      <!-- 20 -->
      <g transform="translate(102.349659 303.028562)scale(0.1 -0.1)">
       <defs>
        <path d="M 1228 531 
L 3431 531 
L 3431 0 
L 469 0 
L 469 531 
Q 828 903 1448 1529 
Q 2069 2156 2228 2338 
Q 2531 2678 2651 2914 
Q 2772 3150 2772 3378 
Q 2772 3750 2511 3984 
Q 2250 4219 1831 4219 
Q 1534 4219 1204 4116 
Q 875 4013 500 3803 
L 500 4441 
Q 881 4594 1212 4672 
Q 1544 4750 1819 4750 
Q 2544 4750 2975 4387 
Q 3406 4025 3406 3419 
Q 3406 3131 3298 2873 
Q 3191 2616 2906 2266 
Q 2828 2175 2409 1742 
Q 1991 1309 1228 531 
z
" id="DejaVuSans-32" transform="scale(0.015625)"/>
       </defs>
       <use xlink:href="#DejaVuSans-32"/>
       <use x="63.623047" xlink:href="#DejaVuSans-30"/>
      </g>
     </g>
    </g>
    <g id="xtick_3">
     <g id="line2d_3">
      <g>
       <use style="stroke:#000000;stroke-width:0.8;" x="173.643068" xlink:href="#m93079617e9" y="288.430125"/>
      </g>
     </g>
     <g id="text_3">
      <!-- 40 -->
      <g transform="translate(167.280568 303.028562)scale(0.1 -0.1)">
       <defs>
        <path d="M 2419 4116 
L 825 1625 
L 2419 1625 
L 2419 4116 
z
M 2253 4666 
L 3047 4666 
L 3047 1625 
L 3713 1625 
L 3713 1100 
L 3047 1100 
L 3047 0 
L 2419 0 
L 2419 1100 
L 313 1100 
L 313 1709 
L 2253 4666 
z
" id="DejaVuSans-34" transform="scale(0.015625)"/>
       </defs>
       <use xlink:href="#DejaVuSans-34"/>
       <use x="63.623047" xlink:href="#DejaVuSans-30"/>
      </g>
     </g>
    </g>
    <g id="xtick_4">
     <g id="line2d_4">
      <g>
       <use style="stroke:#000000;stroke-width:0.8;" x="238.573977" xlink:href="#m93079617e9" y="288.430125"/>
      </g>
     </g>
     <g id="text_4">
      <!-- 60 -->
      <g transform="translate(232.211477 303.028562)scale(0.1 -0.1)">
       <defs>
        <path d="M 2113 2584 
Q 1688 2584 1439 2293 
Q 1191 2003 1191 1497 
Q 1191 994 1439 701 
Q 1688 409 2113 409 
Q 2538 409 2786 701 
Q 3034 994 3034 1497 
Q 3034 2003 2786 2293 
Q 2538 2584 2113 2584 
z
M 3366 4563 
L 3366 3988 
Q 3128 4100 2886 4159 
Q 2644 4219 2406 4219 
Q 1781 4219 1451 3797 
Q 1122 3375 1075 2522 
Q 1259 2794 1537 2939 
Q 1816 3084 2150 3084 
Q 2853 3084 3261 2657 
Q 3669 2231 3669 1497 
Q 3669 778 3244 343 
Q 2819 -91 2113 -91 
Q 1303 -91 875 529 
Q 447 1150 447 2328 
Q 447 3434 972 4092 
Q 1497 4750 2381 4750 
Q 2619 4750 2861 4703 
Q 3103 4656 3366 4563 
z
" id="DejaVuSans-36" transform="scale(0.015625)"/>
       </defs>
       <use xlink:href="#DejaVuSans-36"/>
       <use x="63.623047" xlink:href="#DejaVuSans-30"/>
      </g>
     </g>
    </g>
    <g id="xtick_5">
     <g id="line2d_5">
      <g>
       <use style="stroke:#000000;stroke-width:0.8;" x="303.504886" xlink:href="#m93079617e9" y="288.430125"/>
      </g>
     </g>
     <g id="text_5">
      <!-- 80 -->
      <g transform="translate(297.142386 303.028562)scale(0.1 -0.1)">
       <defs>
        <path d="M 2034 2216 
Q 1584 2216 1326 1975 
Q 1069 1734 1069 1313 
Q 1069 891 1326 650 
Q 1584 409 2034 409 
Q 2484 409 2743 651 
Q 3003 894 3003 1313 
Q 3003 1734 2745 1975 
Q 2488 2216 2034 2216 
z
M 1403 2484 
Q 997 2584 770 2862 
Q 544 3141 544 3541 
Q 544 4100 942 4425 
Q 1341 4750 2034 4750 
Q 2731 4750 3128 4425 
Q 3525 4100 3525 3541 
Q 3525 3141 3298 2862 
Q 3072 2584 2669 2484 
Q 3125 2378 3379 2068 
Q 3634 1759 3634 1313 
Q 3634 634 3220 271 
Q 2806 -91 2034 -91 
Q 1263 -91 848 271 
Q 434 634 434 1313 
Q 434 1759 690 2068 
Q 947 2378 1403 2484 
z
M 1172 3481 
Q 1172 3119 1398 2916 
Q 1625 2713 2034 2713 
Q 2441 2713 2670 2916 
Q 2900 3119 2900 3481 
Q 2900 3844 2670 4047 
Q 2441 4250 2034 4250 
Q 1625 4250 1398 4047 
Q 1172 3844 1172 3481 
z
" id="DejaVuSans-38" transform="scale(0.015625)"/>
       </defs>
       <use xlink:href="#DejaVuSans-38"/>
       <use x="63.623047" xlink:href="#DejaVuSans-30"/>
      </g>
     </g>
    </g>
    <g id="xtick_6">
     <g id="line2d_6">
      <g>
       <use style="stroke:#000000;stroke-width:0.8;" x="368.435795" xlink:href="#m93079617e9" y="288.430125"/>
      </g>
     </g>
     <g id="text_6">
      <!-- 100 -->
      <g transform="translate(358.892045 303.028562)scale(0.1 -0.1)">
       <defs>
        <path d="M 794 531 
L 1825 531 
L 1825 4091 
L 703 3866 
L 703 4441 
L 1819 4666 
L 2450 4666 
L 2450 531 
L 3481 531 
L 3481 0 
L 794 0 
L 794 531 
z
" id="DejaVuSans-31" transform="scale(0.015625)"/>
       </defs>
       <use xlink:href="#DejaVuSans-31"/>
       <use x="63.623047" xlink:href="#DejaVuSans-30"/>
       <use x="127.246094" xlink:href="#DejaVuSans-30"/>
      </g>
     </g>
    </g>
    <g id="text_7">
     <!-- Pressure Drop [Pa] -->
     <g transform="translate(176.036563 316.706687)scale(0.1 -0.1)">
      <defs>
       <path d="M 1259 4147 
L 1259 2394 
L 2053 2394 
Q 2494 2394 2734 2622 
Q 2975 2850 2975 3272 
Q 2975 3691 2734 3919 
Q 2494 4147 2053 4147 
L 1259 4147 
z
M 628 4666 
L 2053 4666 
Q 2838 4666 3239 4311 
Q 3641 3956 3641 3272 
Q 3641 2581 3239 2228 
Q 2838 1875 2053 1875 
L 1259 1875 
L 1259 0 
L 628 0 
L 628 4666 
z
" id="DejaVuSans-50" transform="scale(0.015625)"/>
       <path d="M 2631 2963 
Q 2534 3019 2420 3045 
Q 2306 3072 2169 3072 
Q 1681 3072 1420 2755 
Q 1159 2438 1159 1844 
L 1159 0 
L 581 0 
L 581 3500 
L 1159 3500 
L 1159 2956 
Q 1341 3275 1631 3429 
Q 1922 3584 2338 3584 
Q 2397 3584 2469 3576 
Q 2541 3569 2628 3553 
L 2631 2963 
z
" id="DejaVuSans-72" transform="scale(0.015625)"/>
       <path d="M 3597 1894 
L 3597 1613 
L 953 1613 
Q 991 1019 1311 708 
Q 1631 397 2203 397 
Q 2534 397 2845 478 
Q 3156 559 3463 722 
L 3463 178 
Q 3153 47 2828 -22 
Q 2503 -91 2169 -91 
Q 1331 -91 842 396 
Q 353 884 353 1716 
Q 353 2575 817 3079 
Q 1281 3584 2069 3584 
Q 2775 3584 3186 3129 
Q 3597 2675 3597 1894 
z
M 3022 2063 
Q 3016 2534 2758 2815 
Q 2500 3097 2075 3097 
Q 1594 3097 1305 2825 
Q 1016 2553 972 2059 
L 3022 2063 
z
" id="DejaVuSans-65" transform="scale(0.015625)"/>
       <path d="M 2834 3397 
L 2834 2853 
Q 2591 2978 2328 3040 
Q 2066 3103 1784 3103 
Q 1356 3103 1142 2972 
Q 928 2841 928 2578 
Q 928 2378 1081 2264 
Q 1234 2150 1697 2047 
L 1894 2003 
Q 2506 1872 2764 1633 
Q 3022 1394 3022 966 
Q 3022 478 2636 193 
Q 2250 -91 1575 -91 
Q 1294 -91 989 -36 
Q 684 19 347 128 
L 347 722 
Q 666 556 975 473 
Q 1284 391 1588 391 
Q 1994 391 2212 530 
Q 2431 669 2431 922 
Q 2431 1156 2273 1281 
Q 2116 1406 1581 1522 
L 1381 1569 
Q 847 1681 609 1914 
Q 372 2147 372 2553 
Q 372 3047 722 3315 
Q 1072 3584 1716 3584 
Q 2034 3584 2315 3537 
Q 2597 3491 2834 3397 
z
" id="DejaVuSans-73" transform="scale(0.015625)"/>
       <path d="M 544 1381 
L 544 3500 
L 1119 3500 
L 1119 1403 
Q 1119 906 1312 657 
Q 1506 409 1894 409 
Q 2359 409 2629 706 
Q 2900 1003 2900 1516 
L 2900 3500 
L 3475 3500 
L 3475 0 
L 2900 0 
L 2900 538 
Q 2691 219 2414 64 
Q 2138 -91 1772 -91 
Q 1169 -91 856 284 
Q 544 659 544 1381 
z
M 1991 3584 
L 1991 3584 
z
" id="DejaVuSans-75" transform="scale(0.015625)"/>
       <path id="DejaVuSans-20" transform="scale(0.015625)"/>
       <path d="M 1259 4147 
L 1259 519 
L 2022 519 
Q 2988 519 3436 956 
Q 3884 1394 3884 2338 
Q 3884 3275 3436 3711 
Q 2988 4147 2022 4147 
L 1259 4147 
z
M 628 4666 
L 1925 4666 
Q 3281 4666 3915 4102 
Q 4550 3538 4550 2338 
Q 4550 1131 3912 565 
Q 3275 0 1925 0 
L 628 0 
L 628 4666 
z
" id="DejaVuSans-44" transform="scale(0.015625)"/>
       <path d="M 1959 3097 
Q 1497 3097 1228 2736 
Q 959 2375 959 1747 
Q 959 1119 1226 758 
Q 1494 397 1959 397 
Q 2419 397 2687 759 
Q 2956 1122 2956 1747 
Q 2956 2369 2687 2733 
Q 2419 3097 1959 3097 
z
M 1959 3584 
Q 2709 3584 3137 3096 
Q 3566 2609 3566 1747 
Q 3566 888 3137 398 
Q 2709 -91 1959 -91 
Q 1206 -91 779 398 
Q 353 888 353 1747 
Q 353 2609 779 3096 
Q 1206 3584 1959 3584 
z
" id="DejaVuSans-6f" transform="scale(0.015625)"/>
       <path d="M 1159 525 
L 1159 -1331 
L 581 -1331 
L 581 3500 
L 1159 3500 
L 1159 2969 
Q 1341 3281 1617 3432 
Q 1894 3584 2278 3584 
Q 2916 3584 3314 3078 
Q 3713 2572 3713 1747 
Q 3713 922 3314 415 
Q 2916 -91 2278 -91 
Q 1894 -91 1617 61 
Q 1341 213 1159 525 
z
M 3116 1747 
Q 3116 2381 2855 2742 
Q 2594 3103 2138 3103 
Q 1681 3103 1420 2742 
Q 1159 2381 1159 1747 
Q 1159 1113 1420 752 
Q 1681 391 2138 391 
Q 2594 391 2855 752 
Q 3116 1113 3116 1747 
z
" id="DejaVuSans-70" transform="scale(0.015625)"/>
       <path d="M 550 4863 
L 1875 4863 
L 1875 4416 
L 1125 4416 
L 1125 -397 
L 1875 -397 
L 1875 -844 
L 550 -844 
L 550 4863 
z
" id="DejaVuSans-5b" transform="scale(0.015625)"/>
       <path d="M 2194 1759 
Q 1497 1759 1228 1600 
Q 959 1441 959 1056 
Q 959 750 1161 570 
Q 1363 391 1709 391 
Q 2188 391 2477 730 
Q 2766 1069 2766 1631 
L 2766 1759 
L 2194 1759 
z
M 3341 1997 
L 3341 0 
L 2766 0 
L 2766 531 
Q 2569 213 2275 61 
Q 1981 -91 1556 -91 
Q 1019 -91 701 211 
Q 384 513 384 1019 
Q 384 1609 779 1909 
Q 1175 2209 1959 2209 
L 2766 2209 
L 2766 2266 
Q 2766 2663 2505 2880 
Q 2244 3097 1772 3097 
Q 1472 3097 1187 3025 
Q 903 2953 641 2809 
L 641 3341 
Q 956 3463 1253 3523 
Q 1550 3584 1831 3584 
Q 2591 3584 2966 3190 
Q 3341 2797 3341 1997 
z
" id="DejaVuSans-61" transform="scale(0.015625)"/>
       <path d="M 1947 4863 
L 1947 -844 
L 622 -844 
L 622 -397 
L 1369 -397 
L 1369 4416 
L 622 4416 
L 622 4863 
L 1947 4863 
z
" id="DejaVuSans-5d" transform="scale(0.015625)"/>
      </defs>
      <use xlink:href="#DejaVuSans-50"/>
      <use x="58.552734" xlink:href="#DejaVuSans-72"/>
      <use x="97.416016" xlink:href="#DejaVuSans-65"/>
      <use x="158.939453" xlink:href="#DejaVuSans-73"/>
      <use x="211.039062" xlink:href="#DejaVuSans-73"/>
      <use x="263.138672" xlink:href="#DejaVuSans-75"/>
      <use x="326.517578" xlink:href="#DejaVuSans-72"/>
      <use x="365.380859" xlink:href="#DejaVuSans-65"/>
      <use x="426.904297" xlink:href="#DejaVuSans-20"/>
      <use x="458.691406" xlink:href="#DejaVuSans-44"/>
      <use x="535.693359" xlink:href="#DejaVuSans-72"/>
      <use x="574.556641" xlink:href="#DejaVuSans-6f"/>
      <use x="635.738281" xlink:href="#DejaVuSans-70"/>
      <use x="699.214844" xlink:href="#DejaVuSans-20"/>
      <use x="731.001953" xlink:href="#DejaVuSans-5b"/>
      <use x="770.015625" xlink:href="#DejaVuSans-50"/>
      <use x="825.818359" xlink:href="#DejaVuSans-61"/>
      <use x="887.097656" xlink:href="#DejaVuSans-5d"/>
     </g>
    </g>
   </g>
   <g id="matplotlib.axis_2">
    <g id="ytick_1">
     <g id="line2d_7">
      <defs>
       <path d="M 0 0 
L -3.5 0 
" id="m304faa36fe" style="stroke:#000000;stroke-width:0.8;"/>
      </defs>
      <g>
       <use style="stroke:#000000;stroke-width:0.8;" x="43.78125" xlink:href="#m304faa36fe" y="288.430125"/>
      </g>
     </g>
     <g id="text_8">
      <!-- 0.0 -->
      <g transform="translate(20.878125 292.229344)scale(0.1 -0.1)">
       <defs>
        <path d="M 684 794 
L 1344 794 
L 1344 0 
L 684 0 
L 684 794 
z
" id="DejaVuSans-2e" transform="scale(0.015625)"/>
       </defs>
       <use xlink:href="#DejaVuSans-30"/>
       <use x="63.623047" xlink:href="#DejaVuSans-2e"/>
       <use x="95.410156" xlink:href="#DejaVuSans-30"/>
      </g>
     </g>
    </g>
    <g id="ytick_2">
     <g id="line2d_8">
      <g>
       <use style="stroke:#000000;stroke-width:0.8;" x="43.78125" xlink:href="#m304faa36fe" y="235.734679"/>
      </g>
     </g>
     <g id="text_9">
      <!-- 0.2 -->
      <g transform="translate(20.878125 239.533898)scale(0.1 -0.1)">
       <use xlink:href="#DejaVuSans-30"/>
       <use x="63.623047" xlink:href="#DejaVuSans-2e"/>
       <use x="95.410156" xlink:href="#DejaVuSans-32"/>
      </g>
     </g>
    </g>
    <g id="ytick_3">
     <g id="line2d_9">
      <g>
       <use style="stroke:#000000;stroke-width:0.8;" x="43.78125" xlink:href="#m304faa36fe" y="183.039234"/>
      </g>
     </g>
     <g id="text_10">
      <!-- 0.4 -->
      <g transform="translate(20.878125 186.838453)scale(0.1 -0.1)">
       <use xlink:href="#DejaVuSans-30"/>
       <use x="63.623047" xlink:href="#DejaVuSans-2e"/>
       <use x="95.410156" xlink:href="#DejaVuSans-34"/>
      </g>
     </g>
    </g>
    <g id="ytick_4">
     <g id="line2d_10">
      <g>
       <use style="stroke:#000000;stroke-width:0.8;" x="43.78125" xlink:href="#m304faa36fe" y="130.343788"/>
      </g>
     </g>
     <g id="text_11">
      <!-- 0.6 -->
      <g transform="translate(20.878125 134.143007)scale(0.1 -0.1)">
       <use xlink:href="#DejaVuSans-30"/>
       <use x="63.623047" xlink:href="#DejaVuSans-2e"/>
       <use x="95.410156" xlink:href="#DejaVuSans-36"/>
      </g>
     </g>
    </g>
    <g id="ytick_5">
     <g id="line2d_11">
      <g>
       <use style="stroke:#000000;stroke-width:0.8;" x="43.78125" xlink:href="#m304faa36fe" y="77.648343"/>
      </g>
     </g>
     <g id="text_12">
      <!-- 0.8 -->
      <g transform="translate(20.878125 81.447562)scale(0.1 -0.1)">
       <use xlink:href="#DejaVuSans-30"/>
       <use x="63.623047" xlink:href="#DejaVuSans-2e"/>
       <use x="95.410156" xlink:href="#DejaVuSans-38"/>
      </g>
     </g>
    </g>
    <g id="ytick_6">
     <g id="line2d_12">
      <g>
       <use style="stroke:#000000;stroke-width:0.8;" x="43.78125" xlink:href="#m304faa36fe" y="24.952897"/>
      </g>
     </g>
     <g id="text_13">
      <!-- 1.0 -->
      <g transform="translate(20.878125 28.752116)scale(0.1 -0.1)">
       <use xlink:href="#DejaVuSans-31"/>
       <use x="63.623047" xlink:href="#DejaVuSans-2e"/>
       <use x="95.410156" xlink:href="#DejaVuSans-30"/>
      </g>
     </g>
    </g>
    <g id="text_14">
     <!-- Filtration Efficency -->
     <g transform="translate(14.798438 201.6835)rotate(-90)scale(0.1 -0.1)">
      <defs>
       <path d="M 628 4666 
L 3309 4666 
L 3309 4134 
L 1259 4134 
L 1259 2759 
L 3109 2759 
L 3109 2228 
L 1259 2228 
L 1259 0 
L 628 0 
L 628 4666 
z
" id="DejaVuSans-46" transform="scale(0.015625)"/>
       <path d="M 603 3500 
L 1178 3500 
L 1178 0 
L 603 0 
L 603 3500 
z
M 603 4863 
L 1178 4863 
L 1178 4134 
L 603 4134 
L 603 4863 
z
" id="DejaVuSans-69" transform="scale(0.015625)"/>
       <path d="M 603 4863 
L 1178 4863 
L 1178 0 
L 603 0 
L 603 4863 
z
" id="DejaVuSans-6c" transform="scale(0.015625)"/>
       <path d="M 1172 4494 
L 1172 3500 
L 2356 3500 
L 2356 3053 
L 1172 3053 
L 1172 1153 
Q 1172 725 1289 603 
Q 1406 481 1766 481 
L 2356 481 
L 2356 0 
L 1766 0 
Q 1100 0 847 248 
Q 594 497 594 1153 
L 594 3053 
L 172 3053 
L 172 3500 
L 594 3500 
L 594 4494 
L 1172 4494 
z
" id="DejaVuSans-74" transform="scale(0.015625)"/>
       <path d="M 3513 2113 
L 3513 0 
L 2938 0 
L 2938 2094 
Q 2938 2591 2744 2837 
Q 2550 3084 2163 3084 
Q 1697 3084 1428 2787 
Q 1159 2491 1159 1978 
L 1159 0 
L 581 0 
L 581 3500 
L 1159 3500 
L 1159 2956 
Q 1366 3272 1645 3428 
Q 1925 3584 2291 3584 
Q 2894 3584 3203 3211 
Q 3513 2838 3513 2113 
z
" id="DejaVuSans-6e" transform="scale(0.015625)"/>
       <path d="M 628 4666 
L 3578 4666 
L 3578 4134 
L 1259 4134 
L 1259 2753 
L 3481 2753 
L 3481 2222 
L 1259 2222 
L 1259 531 
L 3634 531 
L 3634 0 
L 628 0 
L 628 4666 
z
" id="DejaVuSans-45" transform="scale(0.015625)"/>
       <path d="M 2375 4863 
L 2375 4384 
L 1825 4384 
Q 1516 4384 1395 4259 
Q 1275 4134 1275 3809 
L 1275 3500 
L 2222 3500 
L 2222 3053 
L 1275 3053 
L 1275 0 
L 697 0 
L 697 3053 
L 147 3053 
L 147 3500 
L 697 3500 
L 697 3744 
Q 697 4328 969 4595 
Q 1241 4863 1831 4863 
L 2375 4863 
z
" id="DejaVuSans-66" transform="scale(0.015625)"/>
       <path d="M 3122 3366 
L 3122 2828 
Q 2878 2963 2633 3030 
Q 2388 3097 2138 3097 
Q 1578 3097 1268 2742 
Q 959 2388 959 1747 
Q 959 1106 1268 751 
Q 1578 397 2138 397 
Q 2388 397 2633 464 
Q 2878 531 3122 666 
L 3122 134 
Q 2881 22 2623 -34 
Q 2366 -91 2075 -91 
Q 1284 -91 818 406 
Q 353 903 353 1747 
Q 353 2603 823 3093 
Q 1294 3584 2113 3584 
Q 2378 3584 2631 3529 
Q 2884 3475 3122 3366 
z
" id="DejaVuSans-63" transform="scale(0.015625)"/>
       <path d="M 2059 -325 
Q 1816 -950 1584 -1140 
Q 1353 -1331 966 -1331 
L 506 -1331 
L 506 -850 
L 844 -850 
Q 1081 -850 1212 -737 
Q 1344 -625 1503 -206 
L 1606 56 
L 191 3500 
L 800 3500 
L 1894 763 
L 2988 3500 
L 3597 3500 
L 2059 -325 
z
" id="DejaVuSans-79" transform="scale(0.015625)"/>
      </defs>
      <use xlink:href="#DejaVuSans-46"/>
      <use x="50.269531" xlink:href="#DejaVuSans-69"/>
      <use x="78.052734" xlink:href="#DejaVuSans-6c"/>
      <use x="105.835938" xlink:href="#DejaVuSans-74"/>
      <use x="145.044922" xlink:href="#DejaVuSans-72"/>
      <use x="186.158203" xlink:href="#DejaVuSans-61"/>
      <use x="247.4375" xlink:href="#DejaVuSans-74"/>
      <use x="286.646484" xlink:href="#DejaVuSans-69"/>
      <use x="314.429688" xlink:href="#DejaVuSans-6f"/>
      <use x="375.611328" xlink:href="#DejaVuSans-6e"/>
      <use x="438.990234" xlink:href="#DejaVuSans-20"/>
      <use x="470.777344" xlink:href="#DejaVuSans-45"/>
      <use x="533.960938" xlink:href="#DejaVuSans-66"/>
      <use x="569.166016" xlink:href="#DejaVuSans-66"/>
      <use x="604.371094" xlink:href="#DejaVuSans-69"/>
      <use x="632.154297" xlink:href="#DejaVuSans-63"/>
      <use x="687.134766" xlink:href="#DejaVuSans-65"/>
      <use x="748.658203" xlink:href="#DejaVuSans-6e"/>
      <use x="812.037109" xlink:href="#DejaVuSans-63"/>
      <use x="867.017578" xlink:href="#DejaVuSans-79"/>
     </g>
    </g>
   </g>
   <g id="line2d_13">
    <path clip-path="url(#p3499a1fbf6)" d="M 43.78125 288.430125 
L 47.982662 276.762391 
L 52.184074 265.611347 
L 56.385485 254.954112 
L 60.586897 244.768818 
L 64.788309 235.034566 
L 68.989721 225.731382 
L 73.191132 216.840178 
L 77.392544 208.342708 
L 82.994426 197.595201 
L 88.596309 187.477548 
L 94.198191 177.952837 
L 99.800074 168.98632 
L 105.401956 160.545282 
L 111.003838 152.598929 
L 116.605721 145.11827 
L 122.207603 138.076013 
L 127.809485 131.446465 
L 133.411368 125.20544 
L 139.01325 119.330169 
L 144.615132 113.799216 
L 150.217015 108.592403 
L 155.818897 103.690733 
L 161.420779 99.076325 
L 167.022662 94.732343 
L 172.624544 90.642938 
L 178.226426 86.793192 
L 183.828309 83.16906 
L 190.830662 78.936094 
L 197.833015 75.010912 
L 204.835368 71.371135 
L 211.837721 67.99601 
L 218.840074 64.866295 
L 225.842426 61.964144 
L 232.844779 59.273013 
L 241.247603 56.300676 
L 249.650426 53.585762 
L 258.05325 51.105977 
L 266.456074 48.840956 
L 276.259368 46.445148 
L 286.062662 44.289623 
L 295.865956 42.350282 
L 307.069721 40.370896 
L 318.273485 38.616714 
L 330.877721 36.880663 
L 343.481956 35.365184 
L 357.486662 33.906054 
L 372.891838 32.53604 
L 389.697485 31.279423 
L 400.90125 30.559623 
L 400.90125 30.559623 
" style="fill:none;stroke:#858585;stroke-dasharray:1.5,2.475;stroke-dashoffset:0;stroke-opacity:0.5;stroke-width:1.5;"/>
   </g>
   <g id="line2d_14">
    <path clip-path="url(#p3499a1fbf6)" d="M 43.78125 288.430125 
L 47.982662 271.921462 
L 52.184074 256.44718 
L 56.385485 241.942469 
L 60.586897 228.346578 
L 64.788309 215.602562 
L 68.989721 203.657048 
L 73.191132 192.460002 
L 77.392544 181.964528 
L 81.593956 172.126668 
L 85.795368 162.905217 
L 89.996779 154.261554 
L 94.198191 146.159476 
L 98.399603 138.565049 
L 102.601015 131.446465 
L 106.802426 124.77391 
L 111.003838 118.519436 
L 115.20525 112.656848 
L 119.406662 107.161591 
L 123.608074 102.01065 
L 127.809485 97.182451 
L 132.010897 92.656772 
L 136.212309 88.414658 
L 140.413721 84.438342 
L 144.615132 80.711169 
L 148.816544 77.217529 
L 154.418426 72.897459 
L 160.020309 68.934475 
L 165.622191 65.299063 
L 171.224074 61.964144 
L 176.825956 58.904883 
L 182.427838 56.098492 
L 188.029721 53.524071 
L 193.631603 51.162446 
L 200.633956 48.483002 
L 207.636309 46.077482 
L 214.638662 43.917882 
L 221.641015 41.979062 
L 230.043838 39.912292 
L 238.446662 38.096402 
L 246.849485 36.50094 
L 256.652779 34.88265 
L 266.456074 33.49114 
L 277.659838 32.137974 
L 288.863603 30.999262 
L 301.467838 29.932447 
L 315.472544 28.966355 
L 330.877721 28.118674 
L 349.083838 27.344601 
L 370.090897 26.683512 
L 395.299368 26.126692 
L 400.90125 26.029668 
L 400.90125 26.029668 
" style="fill:none;stroke:#858585;stroke-dasharray:1.5,2.475;stroke-dashoffset:0;stroke-opacity:0.5;stroke-width:1.5;"/>
   </g>
   <g id="line2d_15">
    <path clip-path="url(#p3499a1fbf6)" d="M 43.78125 288.430125 
L 47.982662 268.74599 
L 52.184074 250.532437 
L 56.385485 233.679602 
L 60.586897 218.085827 
L 64.788309 203.657048 
L 68.989721 190.306229 
L 73.191132 177.952837 
L 77.392544 166.522356 
L 81.593956 155.945835 
L 85.795368 146.159476 
L 89.996779 137.104247 
L 94.198191 128.725525 
L 98.399603 120.97277 
L 102.601015 113.799216 
L 106.802426 107.161591 
L 111.003838 101.019857 
L 115.20525 95.336966 
L 119.406662 90.078639 
L 123.608074 85.213156 
L 127.809485 80.711169 
L 132.010897 76.545521 
L 136.212309 72.691084 
L 140.413721 69.124609 
L 144.615132 65.824582 
L 148.816544 62.771097 
L 153.017956 59.945735 
L 157.219368 57.331453 
L 162.82125 54.147006 
L 168.423132 51.275751 
L 174.025015 48.686885 
L 179.626897 46.352636 
L 185.228779 44.247961 
L 190.830662 42.350282 
L 197.833015 40.23845 
L 204.835368 38.382969 
L 211.837721 36.752721 
L 220.240544 35.055474 
L 228.643368 33.602353 
L 237.046191 32.358244 
L 246.849485 31.13109 
L 258.05325 29.975594 
L 270.657485 28.931878 
L 284.662191 28.024508 
L 300.067368 27.263472 
L 318.273485 26.603311 
L 339.280544 26.072295 
L 365.889485 25.637461 
L 399.500779 25.320721 
L 400.90125 25.311323 
L 400.90125 25.311323 
" style="fill:none;stroke:#858585;stroke-dasharray:1.5,2.475;stroke-dashoffset:0;stroke-opacity:0.5;stroke-width:1.5;"/>
   </g>
   <g id="line2d_16">
    <path clip-path="url(#p3499a1fbf6)" d="M 43.78125 288.430125 
L 46.582191 266.651724 
L 49.383132 246.673473 
L 52.184074 228.346578 
L 54.985015 211.534539 
L 57.785956 196.112144 
L 60.586897 181.964528 
L 63.387838 168.98632 
L 66.188779 157.080859 
L 68.989721 146.159476 
L 71.790662 136.140829 
L 74.591603 126.950298 
L 77.392544 118.519436 
L 80.193485 110.785448 
L 82.994426 103.690733 
L 85.795368 97.182451 
L 88.596309 91.212128 
L 91.39725 85.735297 
L 94.198191 80.711169 
L 96.999132 76.102323 
L 99.800074 71.874433 
L 102.601015 67.99601 
L 105.401956 64.438169 
L 108.202897 61.17441 
L 111.003838 58.180426 
L 113.804779 55.433917 
L 116.605721 52.914429 
L 119.406662 50.603195 
L 123.608074 47.489559 
L 127.809485 44.753882 
L 132.010897 42.350282 
L 136.212309 40.23845 
L 140.413721 38.382969 
L 144.615132 36.752721 
L 148.816544 35.320365 
L 154.418426 33.677298 
L 160.020309 32.294629 
L 165.622191 31.13109 
L 172.624544 29.932447 
L 179.626897 28.966355 
L 188.029721 28.051123 
L 197.833015 27.243624 
L 209.036779 26.575077 
L 221.641015 26.053145 
L 237.046191 25.637461 
L 258.05325 25.311323 
L 287.463132 25.097768 
L 339.280544 24.982261 
L 400.90125 24.957298 
L 400.90125 24.957298 
" style="fill:none;stroke:#858585;stroke-dasharray:1.5,2.475;stroke-dashoffset:0;stroke-opacity:0.5;stroke-width:1.5;"/>
   </g>
   <g id="line2d_17">
    <path clip-path="url(#p3499a1fbf6)" d="M 43.78125 288.430125 
L 45.181721 266.651724 
L 46.582191 246.673473 
L 47.982662 228.346578 
L 49.383132 211.534539 
L 50.783603 196.112144 
L 52.184074 181.964528 
L 53.584544 168.98632 
L 54.985015 157.080859 
L 56.385485 146.159476 
L 57.785956 136.140829 
L 59.186426 126.950298 
L 60.586897 118.519436 
L 61.987368 110.785448 
L 63.387838 103.690733 
L 64.788309 97.182451 
L 66.188779 91.212128 
L 67.58925 85.735297 
L 68.989721 80.711169 
L 71.790662 71.874433 
L 74.591603 64.438169 
L 77.392544 58.180426 
L 80.193485 52.914429 
L 82.994426 48.483002 
L 85.795368 44.753882 
L 88.596309 41.615763 
L 91.39725 38.974983 
L 94.198191 36.752721 
L 96.999132 34.88265 
L 99.800074 33.308953 
L 102.601015 31.984661 
L 105.401956 30.870246 
L 108.202897 29.932447 
L 112.404309 28.796907 
L 116.605721 27.920316 
L 120.807132 27.243624 
L 126.409015 26.575077 
L 133.411368 26.006693 
L 141.814191 25.580876 
L 153.017956 25.267815 
L 169.823603 25.064731 
L 200.633956 24.969657 
L 329.47725 24.952903 
L 400.90125 24.952897 
L 400.90125 24.952897 
" style="fill:none;stroke:#858585;stroke-dasharray:1.5,2.475;stroke-dashoffset:0;stroke-opacity:0.5;stroke-width:1.5;"/>
   </g>
   <g id="line2d_18">
    <path clip-path="url(#p3499a1fbf6)" d="M 43.78125 288.430125 
L 45.181721 237.312413 
L 46.582191 196.112144 
L 47.982662 162.905217 
L 49.383132 136.140829 
L 50.783603 114.569049 
L 52.184074 97.182451 
L 53.584544 83.16906 
L 54.985015 71.874433 
L 56.385485 62.771097 
L 57.785956 55.433917 
L 59.186426 49.520237 
L 60.586897 44.753882 
L 61.987368 40.912255 
L 63.387838 37.81595 
L 64.788309 35.320365 
L 66.188779 33.308953 
L 67.58925 31.687779 
L 68.989721 30.381132 
L 70.390191 29.32799 
L 71.790662 28.47917 
L 73.191132 27.795031 
L 75.992074 26.799195 
L 78.793015 26.152284 
L 81.593956 25.732039 
L 85.795368 25.360843 
L 91.39725 25.125051 
L 101.200544 24.990935 
L 129.209956 24.953406 
L 400.90125 24.952897 
L 400.90125 24.952897 
" style="fill:none;stroke:#858585;stroke-dasharray:1.5,2.475;stroke-dashoffset:0;stroke-opacity:0.5;stroke-width:1.5;"/>
   </g>
   <g id="line2d_19">
    <defs>
     <path d="M 0 2.5 
C 0.663008 2.5 1.29895 2.236584 1.767767 1.767767 
C 2.236584 1.29895 2.5 0.663008 2.5 0 
C 2.5 -0.663008 2.236584 -1.29895 1.767767 -1.767767 
C 1.29895 -2.236584 0.663008 -2.5 0 -2.5 
C -0.663008 -2.5 -1.29895 -2.236584 -1.767767 -1.767767 
C -2.236584 -1.29895 -2.5 -0.663008 -2.5 0 
C -2.5 0.663008 -2.236584 1.29895 -1.767767 1.767767 
C -1.29895 2.236584 -0.663008 2.5 0 2.5 
z
" id="m583e83f74f" style="stroke:#0d0887;stroke-width:2;"/>
    </defs>
    <g clip-path="url(#p3499a1fbf6)">
     <use style="fill:#0d0887;stroke:#0d0887;stroke-width:2;" x="101.136886" xlink:href="#m583e83f74f" y="159.855498"/>
    </g>
   </g>
   <g id="line2d_20">
    <g clip-path="url(#p3499a1fbf6)">
     <use style="fill:#0d0887;stroke:#0d0887;stroke-width:2;" x="143.341977" xlink:href="#m583e83f74f" y="107.332702"/>
    </g>
   </g>
   <g id="line2d_21">
    <g clip-path="url(#p3499a1fbf6)">
     <use style="fill:#0d0887;stroke:#0d0887;stroke-width:2;" x="184.464886" xlink:href="#m583e83f74f" y="73.52745"/>
    </g>
   </g>
   <g id="line2d_22">
    <g clip-path="url(#p3499a1fbf6)">
     <use style="fill:#0d0887;stroke:#0d0887;stroke-width:2;" x="65.424886" xlink:href="#m583e83f74f" y="213.084898"/>
    </g>
   </g>
   <g id="line2d_23">
    <g clip-path="url(#p3499a1fbf6)">
     <use style="fill:#0d0887;stroke:#0d0887;stroke-width:2;" x="87.068523" xlink:href="#m583e83f74f" y="147.018324"/>
    </g>
   </g>
   <g id="line2d_24">
    <g clip-path="url(#p3499a1fbf6)">
     <use style="fill:#0d0887;stroke:#0d0887;stroke-width:2;" x="110.876523" xlink:href="#m583e83f74f" y="126.875256"/>
    </g>
   </g>
   <g id="line2d_25">
    <defs>
     <path d="M 0 -2.5 
L -2.5 2.5 
L 2.5 2.5 
z
" id="m85be67dbc5" style="stroke:#7e03a8;stroke-linejoin:miter;stroke-width:2;"/>
    </defs>
    <g clip-path="url(#p3499a1fbf6)">
     <use style="fill:#7e03a8;stroke:#7e03a8;stroke-linejoin:miter;stroke-width:2;" x="121.698341" xlink:href="#m85be67dbc5" y="62.805087"/>
    </g>
   </g>
   <g id="line2d_26">
    <g clip-path="url(#p3499a1fbf6)">
     <use style="fill:#7e03a8;stroke:#7e03a8;stroke-linejoin:miter;stroke-width:2;" x="195.286705" xlink:href="#m85be67dbc5" y="33.071471"/>
    </g>
   </g>
   <g id="line2d_27">
    <g clip-path="url(#p3499a1fbf6)">
     <use style="fill:#7e03a8;stroke:#7e03a8;stroke-linejoin:miter;stroke-width:2;" x="287.272159" xlink:href="#m85be67dbc5" y="27.602871"/>
    </g>
   </g>
   <g id="line2d_28">
    <g clip-path="url(#p3499a1fbf6)">
     <use style="fill:#7e03a8;stroke:#7e03a8;stroke-linejoin:miter;stroke-width:2;" x="147.670705" xlink:href="#m85be67dbc5" y="26.625769"/>
    </g>
   </g>
   <g id="line2d_29">
    <g clip-path="url(#p3499a1fbf6)">
     <use style="fill:#7e03a8;stroke:#7e03a8;stroke-linejoin:miter;stroke-width:2;" x="236.409614" xlink:href="#m85be67dbc5" y="26.956526"/>
    </g>
   </g>
   <g id="line2d_30">
    <g clip-path="url(#p3499a1fbf6)">
     <use style="fill:#7e03a8;stroke:#7e03a8;stroke-linejoin:miter;stroke-width:2;" x="385.750705" xlink:href="#m85be67dbc5" y="25.713293"/>
    </g>
   </g>
   <g id="line2d_31">
    <g clip-path="url(#p3499a1fbf6)">
     <use style="fill:#7e03a8;stroke:#7e03a8;stroke-linejoin:miter;stroke-width:2;" x="87.068523" xlink:href="#m85be67dbc5" y="80.943678"/>
    </g>
   </g>
   <g id="line2d_32">
    <g clip-path="url(#p3499a1fbf6)">
     <use style="fill:#7e03a8;stroke:#7e03a8;stroke-linejoin:miter;stroke-width:2;" x="132.520159" xlink:href="#m85be67dbc5" y="36.053858"/>
    </g>
   </g>
   <g id="line2d_33">
    <g clip-path="url(#p3499a1fbf6)">
     <use style="fill:#7e03a8;stroke:#7e03a8;stroke-linejoin:miter;stroke-width:2;" x="188.793614" xlink:href="#m85be67dbc5" y="24.952897"/>
    </g>
   </g>
   <g id="line2d_34">
    <g clip-path="url(#p3499a1fbf6)">
     <use style="fill:#0d0887;stroke:#0d0887;stroke-width:2;" x="76.246705" xlink:href="#m583e83f74f" y="207.513268"/>
    </g>
   </g>
   <g id="line2d_35">
    <g clip-path="url(#p3499a1fbf6)">
     <use style="fill:#0d0887;stroke:#0d0887;stroke-width:2;" x="118.451795" xlink:href="#m583e83f74f" y="119.383003"/>
    </g>
   </g>
   <g id="line2d_36">
    <g clip-path="url(#p3499a1fbf6)">
     <use style="fill:#0d0887;stroke:#0d0887;stroke-width:2;" x="176.889614" xlink:href="#m583e83f74f" y="78.371888"/>
    </g>
   </g>
   <g id="line2d_37">
    <defs>
     <path d="M 0 3.535534 
L 3.535534 0 
L 0 -3.535534 
L -3.535534 0 
z
" id="m5568523a7f" style="stroke:#cc4778;stroke-linejoin:miter;stroke-width:2;"/>
    </defs>
    <g clip-path="url(#p3499a1fbf6)">
     <use style="fill:#cc4778;stroke:#cc4778;stroke-linejoin:miter;stroke-width:2;" x="94.643795" xlink:href="#m5568523a7f" y="208.299393"/>
    </g>
   </g>
   <g id="line2d_38">
    <g clip-path="url(#p3499a1fbf6)">
     <use style="fill:#cc4778;stroke:#cc4778;stroke-linejoin:miter;stroke-width:2;" x="119.533977" xlink:href="#m5568523a7f" y="175.235795"/>
    </g>
   </g>
   <g id="line2d_39">
    <g clip-path="url(#p3499a1fbf6)">
     <use style="fill:#cc4778;stroke:#cc4778;stroke-linejoin:miter;stroke-width:2;" x="124.944886" xlink:href="#m5568523a7f" y="124.603454"/>
    </g>
   </g>
   <g id="line2d_40">
    <g clip-path="url(#p3499a1fbf6)">
     <use style="fill:#cc4778;stroke:#cc4778;stroke-linejoin:miter;stroke-width:2;" x="210.43725" xlink:href="#m5568523a7f" y="60.932242"/>
    </g>
   </g>
   <g id="line2d_41">
    <g clip-path="url(#p3499a1fbf6)">
     <use style="fill:#cc4778;stroke:#cc4778;stroke-linejoin:miter;stroke-width:2;" x="299.176159" xlink:href="#m5568523a7f" y="35.838571"/>
    </g>
   </g>
   <g id="line2d_42">
    <defs>
     <path d="M -2.5 2.5 
L 2.5 2.5 
L 2.5 -2.5 
L -2.5 -2.5 
z
" id="m80e9ffa500" style="stroke:#f89540;stroke-linejoin:miter;stroke-width:2;"/>
    </defs>
    <g clip-path="url(#p3499a1fbf6)">
     <use style="fill:#f89540;stroke:#f89540;stroke-linejoin:miter;stroke-width:2;" x="184.464886" xlink:href="#m80e9ffa500" y="31.080275"/>
    </g>
   </g>
   <g id="line2d_43">
    <g clip-path="url(#p3499a1fbf6)">
     <use style="fill:#f89540;stroke:#f89540;stroke-linejoin:miter;stroke-width:2;" x="195.286705" xlink:href="#m80e9ffa500" y="24.952897"/>
    </g>
   </g>
   <g id="line2d_44">
    <g clip-path="url(#p3499a1fbf6)">
     <use style="fill:#f89540;stroke:#f89540;stroke-linejoin:miter;stroke-width:2;" x="175.807432" xlink:href="#m80e9ffa500" y="39.095788"/>
    </g>
   </g>
   <g id="line2d_45">
    <g clip-path="url(#p3499a1fbf6)">
     <use style="fill:#f89540;stroke:#f89540;stroke-linejoin:miter;stroke-width:2;" x="78.411068" xlink:href="#m80e9ffa500" y="121.992286"/>
    </g>
   </g>
   <g id="line2d_46">
    <g clip-path="url(#p3499a1fbf6)">
     <use style="fill:#f89540;stroke:#f89540;stroke-linejoin:miter;stroke-width:2;" x="101.136886" xlink:href="#m80e9ffa500" y="117.681444"/>
    </g>
   </g>
   <g id="line2d_47">
    <g clip-path="url(#p3499a1fbf6)">
     <use style="fill:#f89540;stroke:#f89540;stroke-linejoin:miter;stroke-width:2;" x="186.62925" xlink:href="#m80e9ffa500" y="24.952897"/>
    </g>
   </g>
   <g id="line2d_48">
    <g clip-path="url(#p3499a1fbf6)">
     <use style="fill:#f89540;stroke:#f89540;stroke-linejoin:miter;stroke-width:2;" x="69.753614" xlink:href="#m80e9ffa500" y="208.836892"/>
    </g>
   </g>
   <g id="line2d_49">
    <g clip-path="url(#p3499a1fbf6)">
     <use style="fill:#f89540;stroke:#f89540;stroke-linejoin:miter;stroke-width:2;" x="53.520886" xlink:href="#m80e9ffa500" y="219.298118"/>
    </g>
   </g>
   <g id="patch_3">
    <path d="M 43.78125 288.430125 
L 43.78125 22.318125 
" style="fill:none;stroke:#000000;stroke-linecap:square;stroke-linejoin:miter;stroke-width:0.8;"/>
   </g>
   <g id="patch_4">
    <path d="M 400.90125 288.430125 
L 400.90125 22.318125 
" style="fill:none;stroke:#000000;stroke-linecap:square;stroke-linejoin:miter;stroke-width:0.8;"/>
   </g>
   <g id="patch_5">
    <path d="M 43.78125 288.430125 
L 400.90125 288.430125 
" style="fill:none;stroke:#000000;stroke-linecap:square;stroke-linejoin:miter;stroke-width:0.8;"/>
   </g>
   <g id="patch_6">
    <path d="M 43.78125 22.318125 
L 400.90125 22.318125 
" style="fill:none;stroke:#000000;stroke-linecap:square;stroke-linejoin:miter;stroke-width:0.8;"/>
   </g>
   <g id="text_15">
    <!-- Filtration Efficency vs. Pressure Drop at 2.58 um -->
    <g transform="translate(77.664375 16.318125)scale(0.12 -0.12)">
     <defs>
      <path d="M 191 3500 
L 800 3500 
L 1894 563 
L 2988 3500 
L 3597 3500 
L 2284 0 
L 1503 0 
L 191 3500 
z
" id="DejaVuSans-76" transform="scale(0.015625)"/>
      <path d="M 691 4666 
L 3169 4666 
L 3169 4134 
L 1269 4134 
L 1269 2991 
Q 1406 3038 1543 3061 
Q 1681 3084 1819 3084 
Q 2600 3084 3056 2656 
Q 3513 2228 3513 1497 
Q 3513 744 3044 326 
Q 2575 -91 1722 -91 
Q 1428 -91 1123 -41 
Q 819 9 494 109 
L 494 744 
Q 775 591 1075 516 
Q 1375 441 1709 441 
Q 2250 441 2565 725 
Q 2881 1009 2881 1497 
Q 2881 1984 2565 2268 
Q 2250 2553 1709 2553 
Q 1456 2553 1204 2497 
Q 953 2441 691 2322 
L 691 4666 
z
" id="DejaVuSans-35" transform="scale(0.015625)"/>
      <path d="M 3328 2828 
Q 3544 3216 3844 3400 
Q 4144 3584 4550 3584 
Q 5097 3584 5394 3201 
Q 5691 2819 5691 2113 
L 5691 0 
L 5113 0 
L 5113 2094 
Q 5113 2597 4934 2840 
Q 4756 3084 4391 3084 
Q 3944 3084 3684 2787 
Q 3425 2491 3425 1978 
L 3425 0 
L 2847 0 
L 2847 2094 
Q 2847 2600 2669 2842 
Q 2491 3084 2119 3084 
Q 1678 3084 1418 2786 
Q 1159 2488 1159 1978 
L 1159 0 
L 581 0 
L 581 3500 
L 1159 3500 
L 1159 2956 
Q 1356 3278 1631 3431 
Q 1906 3584 2284 3584 
Q 2666 3584 2933 3390 
Q 3200 3197 3328 2828 
z
" id="DejaVuSans-6d" transform="scale(0.015625)"/>
     </defs>
     <use xlink:href="#DejaVuSans-46"/>
     <use x="50.269531" xlink:href="#DejaVuSans-69"/>
     <use x="78.052734" xlink:href="#DejaVuSans-6c"/>
     <use x="105.835938" xlink:href="#DejaVuSans-74"/>
     <use x="145.044922" xlink:href="#DejaVuSans-72"/>
     <use x="186.158203" xlink:href="#DejaVuSans-61"/>
     <use x="247.4375" xlink:href="#DejaVuSans-74"/>
     <use x="286.646484" xlink:href="#DejaVuSans-69"/>
     <use x="314.429688" xlink:href="#DejaVuSans-6f"/>
     <use x="375.611328" xlink:href="#DejaVuSans-6e"/>
     <use x="438.990234" xlink:href="#DejaVuSans-20"/>
     <use x="470.777344" xlink:href="#DejaVuSans-45"/>
     <use x="533.960938" xlink:href="#DejaVuSans-66"/>
     <use x="569.166016" xlink:href="#DejaVuSans-66"/>
     <use x="604.371094" xlink:href="#DejaVuSans-69"/>
     <use x="632.154297" xlink:href="#DejaVuSans-63"/>
     <use x="687.134766" xlink:href="#DejaVuSans-65"/>
     <use x="748.658203" xlink:href="#DejaVuSans-6e"/>
     <use x="812.037109" xlink:href="#DejaVuSans-63"/>
     <use x="867.017578" xlink:href="#DejaVuSans-79"/>
     <use x="926.197266" xlink:href="#DejaVuSans-20"/>
     <use x="957.984375" xlink:href="#DejaVuSans-76"/>
     <use x="1017.164062" xlink:href="#DejaVuSans-73"/>
     <use x="1069.263672" xlink:href="#DejaVuSans-2e"/>
     <use x="1101.050781" xlink:href="#DejaVuSans-20"/>
     <use x="1132.837891" xlink:href="#DejaVuSans-50"/>
     <use x="1191.390625" xlink:href="#DejaVuSans-72"/>
     <use x="1230.253906" xlink:href="#DejaVuSans-65"/>
     <use x="1291.777344" xlink:href="#DejaVuSans-73"/>
     <use x="1343.876953" xlink:href="#DejaVuSans-73"/>
     <use x="1395.976562" xlink:href="#DejaVuSans-75"/>
     <use x="1459.355469" xlink:href="#DejaVuSans-72"/>
     <use x="1498.21875" xlink:href="#DejaVuSans-65"/>
     <use x="1559.742188" xlink:href="#DejaVuSans-20"/>
     <use x="1591.529297" xlink:href="#DejaVuSans-44"/>
     <use x="1668.53125" xlink:href="#DejaVuSans-72"/>
     <use x="1707.394531" xlink:href="#DejaVuSans-6f"/>
     <use x="1768.576172" xlink:href="#DejaVuSans-70"/>
     <use x="1832.052734" xlink:href="#DejaVuSans-20"/>
     <use x="1863.839844" xlink:href="#DejaVuSans-61"/>
     <use x="1925.119141" xlink:href="#DejaVuSans-74"/>
     <use x="1964.328125" xlink:href="#DejaVuSans-20"/>
     <use x="1996.115234" xlink:href="#DejaVuSans-32"/>
     <use x="2059.738281" xlink:href="#DejaVuSans-2e"/>
     <use x="2091.525391" xlink:href="#DejaVuSans-35"/>
     <use x="2155.148438" xlink:href="#DejaVuSans-38"/>
     <use x="2218.771484" xlink:href="#DejaVuSans-20"/>
     <use x="2250.558594" xlink:href="#DejaVuSans-75"/>
     <use x="2313.9375" xlink:href="#DejaVuSans-6d"/>
    </g>
   </g>
   <g id="legend_1">
    <g id="patch_7">
     <path d="M 425.75725 89.030625 
L 479.08225 89.030625 
Q 481.08225 89.030625 481.08225 87.030625 
L 481.08225 29.318125 
Q 481.08225 27.318125 479.08225 27.318125 
L 425.75725 27.318125 
Q 423.75725 27.318125 423.75725 29.318125 
L 423.75725 87.030625 
Q 423.75725 89.030625 425.75725 89.030625 
z
" style="fill:#ffffff;opacity:0.8;stroke:#cccccc;stroke-linejoin:miter;"/>
    </g>
    <g id="PathCollection_5">
     <g>
      <use style="fill:#0d0887;stroke:#0d0887;" x="437.75725" xlink:href="#m77e50d44de" y="36.291562"/>
     </g>
    </g>
    <g id="text_16">
     <!-- SB -->
     <g transform="translate(455.75725 38.916562)scale(0.1 -0.1)">
      <defs>
       <path d="M 3425 4513 
L 3425 3897 
Q 3066 4069 2747 4153 
Q 2428 4238 2131 4238 
Q 1616 4238 1336 4038 
Q 1056 3838 1056 3469 
Q 1056 3159 1242 3001 
Q 1428 2844 1947 2747 
L 2328 2669 
Q 3034 2534 3370 2195 
Q 3706 1856 3706 1288 
Q 3706 609 3251 259 
Q 2797 -91 1919 -91 
Q 1588 -91 1214 -16 
Q 841 59 441 206 
L 441 856 
Q 825 641 1194 531 
Q 1563 422 1919 422 
Q 2459 422 2753 634 
Q 3047 847 3047 1241 
Q 3047 1584 2836 1778 
Q 2625 1972 2144 2069 
L 1759 2144 
Q 1053 2284 737 2584 
Q 422 2884 422 3419 
Q 422 4038 858 4394 
Q 1294 4750 2059 4750 
Q 2388 4750 2728 4690 
Q 3069 4631 3425 4513 
z
" id="DejaVuSans-53" transform="scale(0.015625)"/>
       <path d="M 1259 2228 
L 1259 519 
L 2272 519 
Q 2781 519 3026 730 
Q 3272 941 3272 1375 
Q 3272 1813 3026 2020 
Q 2781 2228 2272 2228 
L 1259 2228 
z
M 1259 4147 
L 1259 2741 
L 2194 2741 
Q 2656 2741 2882 2914 
Q 3109 3088 3109 3444 
Q 3109 3797 2882 3972 
Q 2656 4147 2194 4147 
L 1259 4147 
z
M 628 4666 
L 2241 4666 
Q 2963 4666 3353 4366 
Q 3744 4066 3744 3513 
Q 3744 3084 3544 2831 
Q 3344 2578 2956 2516 
Q 3422 2416 3680 2098 
Q 3938 1781 3938 1306 
Q 3938 681 3513 340 
Q 3088 0 2303 0 
L 628 0 
L 628 4666 
z
" id="DejaVuSans-42" transform="scale(0.015625)"/>
      </defs>
      <use xlink:href="#DejaVuSans-53"/>
      <use x="63.476562" xlink:href="#DejaVuSans-42"/>
     </g>
    </g>
    <g id="PathCollection_6">
     <g>
      <use style="fill:#7e03a8;stroke:#7e03a8;" x="437.75725" xlink:href="#m4865dc0065" y="50.969688"/>
     </g>
    </g>
    <g id="text_17">
     <!-- SMS -->
     <g transform="translate(455.75725 53.594688)scale(0.1 -0.1)">
      <defs>
       <path d="M 628 4666 
L 1569 4666 
L 2759 1491 
L 3956 4666 
L 4897 4666 
L 4897 0 
L 4281 0 
L 4281 4097 
L 3078 897 
L 2444 897 
L 1241 4097 
L 1241 0 
L 628 0 
L 628 4666 
z
" id="DejaVuSans-4d" transform="scale(0.015625)"/>
      </defs>
      <use xlink:href="#DejaVuSans-53"/>
      <use x="63.476562" xlink:href="#DejaVuSans-4d"/>
      <use x="149.755859" xlink:href="#DejaVuSans-53"/>
     </g>
    </g>
    <g id="PathCollection_7">
     <g>
      <use style="fill:#cc4778;stroke:#cc4778;" x="437.75725" xlink:href="#md327927f55" y="65.647812"/>
     </g>
    </g>
    <g id="text_18">
     <!-- W -->
     <g transform="translate(455.75725 68.272812)scale(0.1 -0.1)">
      <defs>
       <path d="M 213 4666 
L 850 4666 
L 1831 722 
L 2809 4666 
L 3519 4666 
L 4500 722 
L 5478 4666 
L 6119 4666 
L 4947 0 
L 4153 0 
L 3169 4050 
L 2175 0 
L 1381 0 
L 213 4666 
z
" id="DejaVuSans-57" transform="scale(0.015625)"/>
      </defs>
      <use xlink:href="#DejaVuSans-57"/>
     </g>
    </g>
    <g id="PathCollection_8">
     <g>
      <use style="fill:#f89540;stroke:#f89540;" x="437.75725" xlink:href="#m3eb7508f66" y="80.325938"/>
     </g>
    </g>
    <g id="text_19">
     <!-- ML -->
     <g transform="translate(455.75725 82.950938)scale(0.1 -0.1)">
      <defs>
       <path d="M 628 4666 
L 1259 4666 
L 1259 531 
L 3531 531 
L 3531 0 
L 628 0 
L 628 4666 
z
" id="DejaVuSans-4c" transform="scale(0.015625)"/>
      </defs>
      <use xlink:href="#DejaVuSans-4d"/>
      <use x="86.279297" xlink:href="#DejaVuSans-4c"/>
     </g>
    </g>
   </g>
  </g>
 </g>
 <defs>
  <clipPath id="p3499a1fbf6">
   <rect height="266.112" width="357.12" x="43.78125" y="22.318125"/>
  </clipPath>
 </defs>
</svg>
