<?xml version="1.0" encoding="utf-8" standalone="no"?>
<!DOCTYPE svg PUBLIC "-//W3C//DTD SVG 1.1//EN"
  "http://www.w3.org/Graphics/SVG/1.1/DTD/svg11.dtd">
<svg height="325.986375pt" version="1.1" viewBox="0 0 536.865063 325.986375" width="536.865063pt" xmlns="http://www.w3.org/2000/svg" xmlns:xlink="http://www.w3.org/1999/xlink">
 <metadata>
  <rdf:RDF xmlns:cc="http://creativecommons.org/ns#" xmlns:dc="http://purl.org/dc/elements/1.1/" xmlns:rdf="http://www.w3.org/1999/02/22-rdf-syntax-ns#">
   <cc:Work>
    <dc:type rdf:resource="http://purl.org/dc/dcmitype/StillImage"/>
    <dc:date>2022-01-01T17:17:29.695335</dc:date>
    <dc:format>image/svg+xml</dc:format>
    <dc:creator>
     <cc:Agent>
      <dc:title>Matplotlib v3.4.2, https://matplotlib.org/</dc:title>
     </cc:Agent>
    </dc:creator>
   </cc:Work>
  </rdf:RDF>
 </metadata>
 <defs>
  <style type="text/css">*{stroke-linecap:butt;stroke-linejoin:round;}</style>
 </defs>
 <g id="figure_1">
  <g id="patch_1">
   <path d="M 0 325.986375 
L 536.865063 325.986375 
L 536.865063 0 
L 0 0 
z
" style="fill:#ffffff;"/>
  </g>
  <g id="axes_1">
   <g id="patch_2">
    <path d="M 43.78125 288.430125 
L 400.90125 288.430125 
L 400.90125 22.318125 
L 43.78125 22.318125 
z
" style="fill:#ffffff;"/>
   </g>
   <g id="matplotlib.axis_1">
    <g id="xtick_1">
     <g id="line2d_1">
      <defs>
       <path d="M 0 0 
L 0 3.5 
" id="mec06d2b81b" style="stroke:#000000;stroke-width:0.8;"/>
      </defs>
      <g>
       <use style="stroke:#000000;stroke-width:0.8;" x="61.63725" xlink:href="#mec06d2b81b" y="288.430125"/>
      </g>
     </g>
     <g id="text_1">
      <!-- 40 -->
      <g transform="translate(55.27475 303.028562)scale(0.1 -0.1)">
       <defs>
        <path d="M 2419 4116 
L 825 1625 
L 2419 1625 
L 2419 4116 
z
M 2253 4666 
L 3047 4666 
L 3047 1625 
L 3713 1625 
L 3713 1100 
L 3047 1100 
L 3047 0 
L 2419 0 
L 2419 1100 
L 313 1100 
L 313 1709 
L 2253 4666 
z
" id="DejaVuSans-34" transform="scale(0.015625)"/>
        <path d="M 2034 4250 
Q 1547 4250 1301 3770 
Q 1056 3291 1056 2328 
Q 1056 1369 1301 889 
Q 1547 409 2034 409 
Q 2525 409 2770 889 
Q 3016 1369 3016 2328 
Q 3016 3291 2770 3770 
Q 2525 4250 2034 4250 
z
M 2034 4750 
Q 2819 4750 3233 4129 
Q 3647 3509 3647 2328 
Q 3647 1150 3233 529 
Q 2819 -91 2034 -91 
Q 1250 -91 836 529 
Q 422 1150 422 2328 
Q 422 3509 836 4129 
Q 1250 4750 2034 4750 
z
" id="DejaVuSans-30" transform="scale(0.015625)"/>
       </defs>
       <use xlink:href="#DejaVuSans-34"/>
       <use x="63.623047" xlink:href="#DejaVuSans-30"/>
      </g>
     </g>
    </g>
    <g id="xtick_2">
     <g id="line2d_2">
      <g>
       <use style="stroke:#000000;stroke-width:0.8;" x="133.06125" xlink:href="#mec06d2b81b" y="288.430125"/>
      </g>
     </g>
     <g id="text_2">
      <!-- 60 -->
      <g transform="translate(126.69875 303.028562)scale(0.1 -0.1)">
       <defs>
        <path d="M 2113 2584 
Q 1688 2584 1439 2293 
Q 1191 2003 1191 1497 
Q 1191 994 1439 701 
Q 1688 409 2113 409 
Q 2538 409 2786 701 
Q 3034 994 3034 1497 
Q 3034 2003 2786 2293 
Q 2538 2584 2113 2584 
z
M 3366 4563 
L 3366 3988 
Q 3128 4100 2886 4159 
Q 2644 4219 2406 4219 
Q 1781 4219 1451 3797 
Q 1122 3375 1075 2522 
Q 1259 2794 1537 2939 
Q 1816 3084 2150 3084 
Q 2853 3084 3261 2657 
Q 3669 2231 3669 1497 
Q 3669 778 3244 343 
Q 2819 -91 2113 -91 
Q 1303 -91 875 529 
Q 447 1150 447 2328 
Q 447 3434 972 4092 
Q 1497 4750 2381 4750 
Q 2619 4750 2861 4703 
Q 3103 4656 3366 4563 
z
" id="DejaVuSans-36" transform="scale(0.015625)"/>
       </defs>
       <use xlink:href="#DejaVuSans-36"/>
       <use x="63.623047" xlink:href="#DejaVuSans-30"/>
      </g>
     </g>
    </g>
    <g id="xtick_3">
     <g id="line2d_3">
      <g>
       <use style="stroke:#000000;stroke-width:0.8;" x="204.48525" xlink:href="#mec06d2b81b" y="288.430125"/>
      </g>
     </g>
     <g id="text_3">
      <!-- 80 -->
      <g transform="translate(198.12275 303.028562)scale(0.1 -0.1)">
       <defs>
        <path d="M 2034 2216 
Q 1584 2216 1326 1975 
Q 1069 1734 1069 1313 
Q 1069 891 1326 650 
Q 1584 409 2034 409 
Q 2484 409 2743 651 
Q 3003 894 3003 1313 
Q 3003 1734 2745 1975 
Q 2488 2216 2034 2216 
z
M 1403 2484 
Q 997 2584 770 2862 
Q 544 3141 544 3541 
Q 544 4100 942 4425 
Q 1341 4750 2034 4750 
Q 2731 4750 3128 4425 
Q 3525 4100 3525 3541 
Q 3525 3141 3298 2862 
Q 3072 2584 2669 2484 
Q 3125 2378 3379 2068 
Q 3634 1759 3634 1313 
Q 3634 634 3220 271 
Q 2806 -91 2034 -91 
Q 1263 -91 848 271 
Q 434 634 434 1313 
Q 434 1759 690 2068 
Q 947 2378 1403 2484 
z
M 1172 3481 
Q 1172 3119 1398 2916 
Q 1625 2713 2034 2713 
Q 2441 2713 2670 2916 
Q 2900 3119 2900 3481 
Q 2900 3844 2670 4047 
Q 2441 4250 2034 4250 
Q 1625 4250 1398 4047 
Q 1172 3844 1172 3481 
z
" id="DejaVuSans-38" transform="scale(0.015625)"/>
       </defs>
       <use xlink:href="#DejaVuSans-38"/>
       <use x="63.623047" xlink:href="#DejaVuSans-30"/>
      </g>
     </g>
    </g>
    <g id="xtick_4">
     <g id="line2d_4">
      <g>
       <use style="stroke:#000000;stroke-width:0.8;" x="275.90925" xlink:href="#mec06d2b81b" y="288.430125"/>
      </g>
     </g>
     <g id="text_4">
      <!-- 100 -->
      <g transform="translate(266.3655 303.028562)scale(0.1 -0.1)">
       <defs>
        <path d="M 794 531 
L 1825 531 
L 1825 4091 
L 703 3866 
L 703 4441 
L 1819 4666 
L 2450 4666 
L 2450 531 
L 3481 531 
L 3481 0 
L 794 0 
L 794 531 
z
" id="DejaVuSans-31" transform="scale(0.015625)"/>
       </defs>
       <use xlink:href="#DejaVuSans-31"/>
       <use x="63.623047" xlink:href="#DejaVuSans-30"/>
       <use x="127.246094" xlink:href="#DejaVuSans-30"/>
      </g>
     </g>
    </g>
    <g id="xtick_5">
     <g id="line2d_5">
      <g>
       <use style="stroke:#000000;stroke-width:0.8;" x="347.33325" xlink:href="#mec06d2b81b" y="288.430125"/>
      </g>
     </g>
     <g id="text_5">
      <!-- 120 -->
      <g transform="translate(337.7895 303.028562)scale(0.1 -0.1)">
       <defs>
        <path d="M 1228 531 
L 3431 531 
L 3431 0 
L 469 0 
L 469 531 
Q 828 903 1448 1529 
Q 2069 2156 2228 2338 
Q 2531 2678 2651 2914 
Q 2772 3150 2772 3378 
Q 2772 3750 2511 3984 
Q 2250 4219 1831 4219 
Q 1534 4219 1204 4116 
Q 875 4013 500 3803 
L 500 4441 
Q 881 4594 1212 4672 
Q 1544 4750 1819 4750 
Q 2544 4750 2975 4387 
Q 3406 4025 3406 3419 
Q 3406 3131 3298 2873 
Q 3191 2616 2906 2266 
Q 2828 2175 2409 1742 
Q 1991 1309 1228 531 
z
" id="DejaVuSans-32" transform="scale(0.015625)"/>
       </defs>
       <use xlink:href="#DejaVuSans-31"/>
       <use x="63.623047" xlink:href="#DejaVuSans-32"/>
       <use x="127.246094" xlink:href="#DejaVuSans-30"/>
      </g>
     </g>
    </g>
    <g id="text_6">
     <!-- Pressure Drop [Pa] -->
     <g transform="translate(176.036563 316.706687)scale(0.1 -0.1)">
      <defs>
       <path d="M 1259 4147 
L 1259 2394 
L 2053 2394 
Q 2494 2394 2734 2622 
Q 2975 2850 2975 3272 
Q 2975 3691 2734 3919 
Q 2494 4147 2053 4147 
L 1259 4147 
z
M 628 4666 
L 2053 4666 
Q 2838 4666 3239 4311 
Q 3641 3956 3641 3272 
Q 3641 2581 3239 2228 
Q 2838 1875 2053 1875 
L 1259 1875 
L 1259 0 
L 628 0 
L 628 4666 
z
" id="DejaVuSans-50" transform="scale(0.015625)"/>
       <path d="M 2631 2963 
Q 2534 3019 2420 3045 
Q 2306 3072 2169 3072 
Q 1681 3072 1420 2755 
Q 1159 2438 1159 1844 
L 1159 0 
L 581 0 
L 581 3500 
L 1159 3500 
L 1159 2956 
Q 1341 3275 1631 3429 
Q 1922 3584 2338 3584 
Q 2397 3584 2469 3576 
Q 2541 3569 2628 3553 
L 2631 2963 
z
" id="DejaVuSans-72" transform="scale(0.015625)"/>
       <path d="M 3597 1894 
L 3597 1613 
L 953 1613 
Q 991 1019 1311 708 
Q 1631 397 2203 397 
Q 2534 397 2845 478 
Q 3156 559 3463 722 
L 3463 178 
Q 3153 47 2828 -22 
Q 2503 -91 2169 -91 
Q 1331 -91 842 396 
Q 353 884 353 1716 
Q 353 2575 817 3079 
Q 1281 3584 2069 3584 
Q 2775 3584 3186 3129 
Q 3597 2675 3597 1894 
z
M 3022 2063 
Q 3016 2534 2758 2815 
Q 2500 3097 2075 3097 
Q 1594 3097 1305 2825 
Q 1016 2553 972 2059 
L 3022 2063 
z
" id="DejaVuSans-65" transform="scale(0.015625)"/>
       <path d="M 2834 3397 
L 2834 2853 
Q 2591 2978 2328 3040 
Q 2066 3103 1784 3103 
Q 1356 3103 1142 2972 
Q 928 2841 928 2578 
Q 928 2378 1081 2264 
Q 1234 2150 1697 2047 
L 1894 2003 
Q 2506 1872 2764 1633 
Q 3022 1394 3022 966 
Q 3022 478 2636 193 
Q 2250 -91 1575 -91 
Q 1294 -91 989 -36 
Q 684 19 347 128 
L 347 722 
Q 666 556 975 473 
Q 1284 391 1588 391 
Q 1994 391 2212 530 
Q 2431 669 2431 922 
Q 2431 1156 2273 1281 
Q 2116 1406 1581 1522 
L 1381 1569 
Q 847 1681 609 1914 
Q 372 2147 372 2553 
Q 372 3047 722 3315 
Q 1072 3584 1716 3584 
Q 2034 3584 2315 3537 
Q 2597 3491 2834 3397 
z
" id="DejaVuSans-73" transform="scale(0.015625)"/>
       <path d="M 544 1381 
L 544 3500 
L 1119 3500 
L 1119 1403 
Q 1119 906 1312 657 
Q 1506 409 1894 409 
Q 2359 409 2629 706 
Q 2900 1003 2900 1516 
L 2900 3500 
L 3475 3500 
L 3475 0 
L 2900 0 
L 2900 538 
Q 2691 219 2414 64 
Q 2138 -91 1772 -91 
Q 1169 -91 856 284 
Q 544 659 544 1381 
z
M 1991 3584 
L 1991 3584 
z
" id="DejaVuSans-75" transform="scale(0.015625)"/>
       <path id="DejaVuSans-20" transform="scale(0.015625)"/>
       <path d="M 1259 4147 
L 1259 519 
L 2022 519 
Q 2988 519 3436 956 
Q 3884 1394 3884 2338 
Q 3884 3275 3436 3711 
Q 2988 4147 2022 4147 
L 1259 4147 
z
M 628 4666 
L 1925 4666 
Q 3281 4666 3915 4102 
Q 4550 3538 4550 2338 
Q 4550 1131 3912 565 
Q 3275 0 1925 0 
L 628 0 
L 628 4666 
z
" id="DejaVuSans-44" transform="scale(0.015625)"/>
       <path d="M 1959 3097 
Q 1497 3097 1228 2736 
Q 959 2375 959 1747 
Q 959 1119 1226 758 
Q 1494 397 1959 397 
Q 2419 397 2687 759 
Q 2956 1122 2956 1747 
Q 2956 2369 2687 2733 
Q 2419 3097 1959 3097 
z
M 1959 3584 
Q 2709 3584 3137 3096 
Q 3566 2609 3566 1747 
Q 3566 888 3137 398 
Q 2709 -91 1959 -91 
Q 1206 -91 779 398 
Q 353 888 353 1747 
Q 353 2609 779 3096 
Q 1206 3584 1959 3584 
z
" id="DejaVuSans-6f" transform="scale(0.015625)"/>
       <path d="M 1159 525 
L 1159 -1331 
L 581 -1331 
L 581 3500 
L 1159 3500 
L 1159 2969 
Q 1341 3281 1617 3432 
Q 1894 3584 2278 3584 
Q 2916 3584 3314 3078 
Q 3713 2572 3713 1747 
Q 3713 922 3314 415 
Q 2916 -91 2278 -91 
Q 1894 -91 1617 61 
Q 1341 213 1159 525 
z
M 3116 1747 
Q 3116 2381 2855 2742 
Q 2594 3103 2138 3103 
Q 1681 3103 1420 2742 
Q 1159 2381 1159 1747 
Q 1159 1113 1420 752 
Q 1681 391 2138 391 
Q 2594 391 2855 752 
Q 3116 1113 3116 1747 
z
" id="DejaVuSans-70" transform="scale(0.015625)"/>
       <path d="M 550 4863 
L 1875 4863 
L 1875 4416 
L 1125 4416 
L 1125 -397 
L 1875 -397 
L 1875 -844 
L 550 -844 
L 550 4863 
z
" id="DejaVuSans-5b" transform="scale(0.015625)"/>
       <path d="M 2194 1759 
Q 1497 1759 1228 1600 
Q 959 1441 959 1056 
Q 959 750 1161 570 
Q 1363 391 1709 391 
Q 2188 391 2477 730 
Q 2766 1069 2766 1631 
L 2766 1759 
L 2194 1759 
z
M 3341 1997 
L 3341 0 
L 2766 0 
L 2766 531 
Q 2569 213 2275 61 
Q 1981 -91 1556 -91 
Q 1019 -91 701 211 
Q 384 513 384 1019 
Q 384 1609 779 1909 
Q 1175 2209 1959 2209 
L 2766 2209 
L 2766 2266 
Q 2766 2663 2505 2880 
Q 2244 3097 1772 3097 
Q 1472 3097 1187 3025 
Q 903 2953 641 2809 
L 641 3341 
Q 956 3463 1253 3523 
Q 1550 3584 1831 3584 
Q 2591 3584 2966 3190 
Q 3341 2797 3341 1997 
z
" id="DejaVuSans-61" transform="scale(0.015625)"/>
       <path d="M 1947 4863 
L 1947 -844 
L 622 -844 
L 622 -397 
L 1369 -397 
L 1369 4416 
L 622 4416 
L 622 4863 
L 1947 4863 
z
" id="DejaVuSans-5d" transform="scale(0.015625)"/>
      </defs>
      <use xlink:href="#DejaVuSans-50"/>
      <use x="58.552734" xlink:href="#DejaVuSans-72"/>
      <use x="97.416016" xlink:href="#DejaVuSans-65"/>
      <use x="158.939453" xlink:href="#DejaVuSans-73"/>
      <use x="211.039062" xlink:href="#DejaVuSans-73"/>
      <use x="263.138672" xlink:href="#DejaVuSans-75"/>
      <use x="326.517578" xlink:href="#DejaVuSans-72"/>
      <use x="365.380859" xlink:href="#DejaVuSans-65"/>
      <use x="426.904297" xlink:href="#DejaVuSans-20"/>
      <use x="458.691406" xlink:href="#DejaVuSans-44"/>
      <use x="535.693359" xlink:href="#DejaVuSans-72"/>
      <use x="574.556641" xlink:href="#DejaVuSans-6f"/>
      <use x="635.738281" xlink:href="#DejaVuSans-70"/>
      <use x="699.214844" xlink:href="#DejaVuSans-20"/>
      <use x="731.001953" xlink:href="#DejaVuSans-5b"/>
      <use x="770.015625" xlink:href="#DejaVuSans-50"/>
      <use x="825.818359" xlink:href="#DejaVuSans-61"/>
      <use x="887.097656" xlink:href="#DejaVuSans-5d"/>
     </g>
    </g>
   </g>
   <g id="matplotlib.axis_2">
    <g id="ytick_1">
     <g id="line2d_6">
      <defs>
       <path d="M 0 0 
L -3.5 0 
" id="mdf5eda1e72" style="stroke:#000000;stroke-width:0.8;"/>
      </defs>
      <g>
       <use style="stroke:#000000;stroke-width:0.8;" x="43.78125" xlink:href="#mdf5eda1e72" y="288.430125"/>
      </g>
     </g>
     <g id="text_7">
      <!-- 0.0 -->
      <g transform="translate(20.878125 292.229344)scale(0.1 -0.1)">
       <defs>
        <path d="M 684 794 
L 1344 794 
L 1344 0 
L 684 0 
L 684 794 
z
" id="DejaVuSans-2e" transform="scale(0.015625)"/>
       </defs>
       <use xlink:href="#DejaVuSans-30"/>
       <use x="63.623047" xlink:href="#DejaVuSans-2e"/>
       <use x="95.410156" xlink:href="#DejaVuSans-30"/>
      </g>
     </g>
    </g>
    <g id="ytick_2">
     <g id="line2d_7">
      <g>
       <use style="stroke:#000000;stroke-width:0.8;" x="43.78125" xlink:href="#mdf5eda1e72" y="235.734679"/>
      </g>
     </g>
     <g id="text_8">
      <!-- 0.2 -->
      <g transform="translate(20.878125 239.533898)scale(0.1 -0.1)">
       <use xlink:href="#DejaVuSans-30"/>
       <use x="63.623047" xlink:href="#DejaVuSans-2e"/>
       <use x="95.410156" xlink:href="#DejaVuSans-32"/>
      </g>
     </g>
    </g>
    <g id="ytick_3">
     <g id="line2d_8">
      <g>
       <use style="stroke:#000000;stroke-width:0.8;" x="43.78125" xlink:href="#mdf5eda1e72" y="183.039234"/>
      </g>
     </g>
     <g id="text_9">
      <!-- 0.4 -->
      <g transform="translate(20.878125 186.838453)scale(0.1 -0.1)">
       <use xlink:href="#DejaVuSans-30"/>
       <use x="63.623047" xlink:href="#DejaVuSans-2e"/>
       <use x="95.410156" xlink:href="#DejaVuSans-34"/>
      </g>
     </g>
    </g>
    <g id="ytick_4">
     <g id="line2d_9">
      <g>
       <use style="stroke:#000000;stroke-width:0.8;" x="43.78125" xlink:href="#mdf5eda1e72" y="130.343788"/>
      </g>
     </g>
     <g id="text_10">
      <!-- 0.6 -->
      <g transform="translate(20.878125 134.143007)scale(0.1 -0.1)">
       <use xlink:href="#DejaVuSans-30"/>
       <use x="63.623047" xlink:href="#DejaVuSans-2e"/>
       <use x="95.410156" xlink:href="#DejaVuSans-36"/>
      </g>
     </g>
    </g>
    <g id="ytick_5">
     <g id="line2d_10">
      <g>
       <use style="stroke:#000000;stroke-width:0.8;" x="43.78125" xlink:href="#mdf5eda1e72" y="77.648343"/>
      </g>
     </g>
     <g id="text_11">
      <!-- 0.8 -->
      <g transform="translate(20.878125 81.447562)scale(0.1 -0.1)">
       <use xlink:href="#DejaVuSans-30"/>
       <use x="63.623047" xlink:href="#DejaVuSans-2e"/>
       <use x="95.410156" xlink:href="#DejaVuSans-38"/>
      </g>
     </g>
    </g>
    <g id="ytick_6">
     <g id="line2d_11">
      <g>
       <use style="stroke:#000000;stroke-width:0.8;" x="43.78125" xlink:href="#mdf5eda1e72" y="24.952897"/>
      </g>
     </g>
     <g id="text_12">
      <!-- 1.0 -->
      <g transform="translate(20.878125 28.752116)scale(0.1 -0.1)">
       <use xlink:href="#DejaVuSans-31"/>
       <use x="63.623047" xlink:href="#DejaVuSans-2e"/>
       <use x="95.410156" xlink:href="#DejaVuSans-30"/>
      </g>
     </g>
    </g>
    <g id="text_13">
     <!-- Filtration Efficency -->
     <g transform="translate(14.798438 201.6835)rotate(-90)scale(0.1 -0.1)">
      <defs>
       <path d="M 628 4666 
L 3309 4666 
L 3309 4134 
L 1259 4134 
L 1259 2759 
L 3109 2759 
L 3109 2228 
L 1259 2228 
L 1259 0 
L 628 0 
L 628 4666 
z
" id="DejaVuSans-46" transform="scale(0.015625)"/>
       <path d="M 603 3500 
L 1178 3500 
L 1178 0 
L 603 0 
L 603 3500 
z
M 603 4863 
L 1178 4863 
L 1178 4134 
L 603 4134 
L 603 4863 
z
" id="DejaVuSans-69" transform="scale(0.015625)"/>
       <path d="M 603 4863 
L 1178 4863 
L 1178 0 
L 603 0 
L 603 4863 
z
" id="DejaVuSans-6c" transform="scale(0.015625)"/>
       <path d="M 1172 4494 
L 1172 3500 
L 2356 3500 
L 2356 3053 
L 1172 3053 
L 1172 1153 
Q 1172 725 1289 603 
Q 1406 481 1766 481 
L 2356 481 
L 2356 0 
L 1766 0 
Q 1100 0 847 248 
Q 594 497 594 1153 
L 594 3053 
L 172 3053 
L 172 3500 
L 594 3500 
L 594 4494 
L 1172 4494 
z
" id="DejaVuSans-74" transform="scale(0.015625)"/>
       <path d="M 3513 2113 
L 3513 0 
L 2938 0 
L 2938 2094 
Q 2938 2591 2744 2837 
Q 2550 3084 2163 3084 
Q 1697 3084 1428 2787 
Q 1159 2491 1159 1978 
L 1159 0 
L 581 0 
L 581 3500 
L 1159 3500 
L 1159 2956 
Q 1366 3272 1645 3428 
Q 1925 3584 2291 3584 
Q 2894 3584 3203 3211 
Q 3513 2838 3513 2113 
z
" id="DejaVuSans-6e" transform="scale(0.015625)"/>
       <path d="M 628 4666 
L 3578 4666 
L 3578 4134 
L 1259 4134 
L 1259 2753 
L 3481 2753 
L 3481 2222 
L 1259 2222 
L 1259 531 
L 3634 531 
L 3634 0 
L 628 0 
L 628 4666 
z
" id="DejaVuSans-45" transform="scale(0.015625)"/>
       <path d="M 2375 4863 
L 2375 4384 
L 1825 4384 
Q 1516 4384 1395 4259 
Q 1275 4134 1275 3809 
L 1275 3500 
L 2222 3500 
L 2222 3053 
L 1275 3053 
L 1275 0 
L 697 0 
L 697 3053 
L 147 3053 
L 147 3500 
L 697 3500 
L 697 3744 
Q 697 4328 969 4595 
Q 1241 4863 1831 4863 
L 2375 4863 
z
" id="DejaVuSans-66" transform="scale(0.015625)"/>
       <path d="M 3122 3366 
L 3122 2828 
Q 2878 2963 2633 3030 
Q 2388 3097 2138 3097 
Q 1578 3097 1268 2742 
Q 959 2388 959 1747 
Q 959 1106 1268 751 
Q 1578 397 2138 397 
Q 2388 397 2633 464 
Q 2878 531 3122 666 
L 3122 134 
Q 2881 22 2623 -34 
Q 2366 -91 2075 -91 
Q 1284 -91 818 406 
Q 353 903 353 1747 
Q 353 2603 823 3093 
Q 1294 3584 2113 3584 
Q 2378 3584 2631 3529 
Q 2884 3475 3122 3366 
z
" id="DejaVuSans-63" transform="scale(0.015625)"/>
       <path d="M 2059 -325 
Q 1816 -950 1584 -1140 
Q 1353 -1331 966 -1331 
L 506 -1331 
L 506 -850 
L 844 -850 
Q 1081 -850 1212 -737 
Q 1344 -625 1503 -206 
L 1606 56 
L 191 3500 
L 800 3500 
L 1894 763 
L 2988 3500 
L 3597 3500 
L 2059 -325 
z
" id="DejaVuSans-79" transform="scale(0.015625)"/>
      </defs>
      <use xlink:href="#DejaVuSans-46"/>
      <use x="50.269531" xlink:href="#DejaVuSans-69"/>
      <use x="78.052734" xlink:href="#DejaVuSans-6c"/>
      <use x="105.835938" xlink:href="#DejaVuSans-74"/>
      <use x="145.044922" xlink:href="#DejaVuSans-72"/>
      <use x="186.158203" xlink:href="#DejaVuSans-61"/>
      <use x="247.4375" xlink:href="#DejaVuSans-74"/>
      <use x="286.646484" xlink:href="#DejaVuSans-69"/>
      <use x="314.429688" xlink:href="#DejaVuSans-6f"/>
      <use x="375.611328" xlink:href="#DejaVuSans-6e"/>
      <use x="438.990234" xlink:href="#DejaVuSans-20"/>
      <use x="470.777344" xlink:href="#DejaVuSans-45"/>
      <use x="533.960938" xlink:href="#DejaVuSans-66"/>
      <use x="569.166016" xlink:href="#DejaVuSans-66"/>
      <use x="604.371094" xlink:href="#DejaVuSans-69"/>
      <use x="632.154297" xlink:href="#DejaVuSans-63"/>
      <use x="687.134766" xlink:href="#DejaVuSans-65"/>
      <use x="748.658203" xlink:href="#DejaVuSans-6e"/>
      <use x="812.037109" xlink:href="#DejaVuSans-63"/>
      <use x="867.017578" xlink:href="#DejaVuSans-79"/>
     </g>
    </g>
   </g>
   <g id="line2d_12">
    <path clip-path="url(#p56b93562dd)" d="M 199.72365 217.829344 
L 166.39245 241.624939 
" style="fill:none;stroke:#ff0000;stroke-linecap:square;stroke-width:1.5;"/>
   </g>
   <g id="line2d_13">
    <path clip-path="url(#p56b93562dd)" d="M 240.19725 189.946247 
L 273.52845 220.293406 
" style="fill:none;stroke:#ff2a00;stroke-linecap:square;stroke-width:1.5;"/>
   </g>
   <g id="line2d_14">
    <path clip-path="url(#p56b93562dd)" d="M 134.25165 155.893687 
L 173.53485 239.833153 
" style="fill:none;stroke:#ff5500;stroke-linecap:square;stroke-width:1.5;"/>
   </g>
   <g id="line2d_15">
    <path clip-path="url(#p56b93562dd)" d="M 200.91405 37.032693 
L 378.28365 186.379199 
" style="fill:none;stroke:#ff8000;stroke-linecap:square;stroke-width:1.5;"/>
   </g>
   <g id="line2d_16">
    <path clip-path="url(#p56b93562dd)" d="M 171.15405 33.332844 
L 209.24685 191.301895 
" style="fill:none;stroke:#ffaa00;stroke-linecap:square;stroke-width:1.5;"/>
   </g>
   <g id="line2d_17">
    <path clip-path="url(#p56b93562dd)" d="M 75.92205 223.841594 
L 79.49325 250.651606 
" style="fill:none;stroke:#ffd400;stroke-linecap:square;stroke-width:1.5;"/>
   </g>
   <g id="line2d_18">
    <path clip-path="url(#p56b93562dd)" d="M 243.76845 221.237052 
L 173.53485 242.664829 
" style="fill:none;stroke:#ffff00;stroke-linecap:square;stroke-width:1.5;"/>
   </g>
   <g id="line2d_19">
    <path clip-path="url(#p56b93562dd)" d="M -1 285.487772 
L 208.05645 277.972494 
L 400.90125 271.232366 
L 400.90125 271.232366 
" style="fill:none;stroke:#858585;stroke-dasharray:1.5,2.475;stroke-dashoffset:0;stroke-opacity:0.5;stroke-width:1.5;"/>
   </g>
   <g id="line2d_20">
    <path clip-path="url(#p56b93562dd)" d="M -1 276.856424 
L 51.133721 269.607956 
L 105.962144 262.209772 
L 160.790568 255.035303 
L 217.509626 247.84166 
L 274.228685 240.87293 
L 332.838379 233.900724 
L 391.448074 227.153656 
L 400.90125 226.08601 
L 400.90125 226.08601 
" style="fill:none;stroke:#858585;stroke-dasharray:1.5,2.475;stroke-dashoffset:0;stroke-opacity:0.5;stroke-width:1.5;"/>
   </g>
   <g id="line2d_21">
    <path clip-path="url(#p56b93562dd)" d="M -1 260.442217 
L 20.883556 253.33629 
L 43.571179 246.195768 
L 66.258803 239.278497 
L 90.837062 232.028631 
L 115.415321 225.024001 
L 139.993579 218.256314 
L 164.571838 211.717552 
L 189.150097 205.399974 
L 215.618991 198.83521 
L 242.087885 192.509276 
L 268.556779 186.413483 
L 295.025674 180.539458 
L 323.385203 174.482794 
L 351.744732 168.661904 
L 380.104262 163.06761 
L 400.90125 159.104019 
L 400.90125 159.104019 
" style="fill:none;stroke:#858585;stroke-dasharray:1.5,2.475;stroke-dashoffset:0;stroke-opacity:0.5;stroke-width:1.5;"/>
   </g>
   <g id="line2d_22">
    <path clip-path="url(#p56b93562dd)" d="M -1 235.427689 
L 11.430379 228.226969 
L 24.664826 220.831747 
L 37.899274 213.705567 
L 51.133721 206.838641 
L 64.368168 200.221537 
L 77.602615 193.845168 
L 90.837062 187.700774 
L 104.071509 181.779917 
L 119.196591 175.276522 
L 134.321674 169.042815 
L 149.446756 163.06761 
L 164.571838 157.340188 
L 179.696921 151.850275 
L 194.822003 146.58802 
L 209.947085 141.543984 
L 226.962803 136.119029 
L 243.978521 130.946496 
L 260.994238 126.01464 
L 278.009956 121.312262 
L 295.025674 116.828685 
L 313.932026 112.091184 
L 332.838379 107.597968 
L 351.744732 103.336441 
L 370.651085 99.294656 
L 391.448074 95.08899 
L 400.90125 93.256802 
L 400.90125 93.256802 
" style="fill:none;stroke:#858585;stroke-dasharray:1.5,2.475;stroke-dashoffset:0;stroke-opacity:0.5;stroke-width:1.5;"/>
   </g>
   <g id="line2d_23">
    <path clip-path="url(#p56b93562dd)" d="M -1 193.088647 
L 5.758474 186.841445 
L 13.321015 180.128156 
L 20.883556 173.693257 
L 28.446097 167.525205 
L 36.008638 161.612933 
L 43.571179 155.945835 
L 51.133721 150.513743 
L 58.696262 145.306913 
L 68.149438 139.100955 
L 77.602615 133.215001 
L 87.055791 127.632553 
L 96.508968 122.337959 
L 105.962144 117.316376 
L 115.415321 112.553727 
L 124.868497 108.036661 
L 134.321674 103.752513 
L 143.77485 99.689274 
L 153.228026 95.835552 
L 164.571838 91.472478 
L 175.91565 87.377966 
L 187.259462 83.535486 
L 198.603274 79.929524 
L 209.947085 76.545521 
L 221.290897 73.369815 
L 234.525344 69.911029 
L 247.759791 66.69933 
L 260.994238 63.717067 
L 274.228685 60.947849 
L 289.353768 58.024428 
L 304.47885 55.33844 
L 319.603932 52.870602 
L 336.61965 50.333036 
L 353.635368 48.026122 
L 372.541721 45.707966 
L 391.448074 43.622714 
L 400.90125 42.660019 
L 400.90125 42.660019 
" style="fill:none;stroke:#858585;stroke-dasharray:1.5,2.475;stroke-dashoffset:0;stroke-opacity:0.5;stroke-width:1.5;"/>
   </g>
   <g id="line2d_24">
    <path clip-path="url(#p56b93562dd)" d="M -1 110.66809 
L 1.977203 107.161591 
L 7.649109 100.88574 
L 13.321015 95.08899 
L 18.992921 89.734766 
L 24.664826 84.789287 
L 30.336732 80.221348 
L 36.008638 76.002128 
L 41.680544 72.105005 
L 47.35245 68.50539 
L 53.024356 65.180572 
L 58.696262 62.109572 
L 64.368168 59.273013 
L 70.040074 56.652999 
L 75.711979 54.232998 
L 83.274521 51.29124 
L 90.837062 48.645039 
L 98.399603 46.2647 
L 105.962144 44.123514 
L 113.524685 42.197451 
L 121.087226 40.464899 
L 130.540403 38.541903 
L 139.993579 36.857298 
L 149.446756 35.38153 
L 160.790568 33.850053 
L 172.134379 32.543478 
L 185.368826 31.259606 
L 198.603274 30.192889 
L 213.728356 29.192863 
L 230.744074 28.294063 
L 249.650426 27.517014 
L 272.33805 26.819214 
L 298.806944 26.241268 
L 330.947744 25.774399 
L 372.541721 25.411774 
L 400.90125 25.261397 
L 400.90125 25.261397 
" style="fill:none;stroke:#858585;stroke-dasharray:1.5,2.475;stroke-dashoffset:0;stroke-opacity:0.5;stroke-width:1.5;"/>
   </g>
   <g id="line2d_25">
    <path clip-path="url(#p56b93562dd)" d="M -1 52.842774 
L 1.977203 50.603195 
L 5.758474 48.026122 
L 9.539744 45.707966 
L 13.321015 43.622714 
L 17.102285 41.746966 
L 20.883556 40.059674 
L 26.555462 37.841197 
L 32.227368 35.94851 
L 37.899274 34.33377 
L 43.571179 32.95616 
L 49.243085 31.780856 
L 56.805626 30.477775 
L 64.368168 29.42338 
L 71.930709 28.570211 
L 81.383885 27.728938 
L 92.727697 26.973465 
L 105.962144 26.347752 
L 121.087226 25.866153 
L 139.993579 25.490761 
L 166.462474 25.209218 
L 206.165815 25.037221 
L 285.572497 24.962023 
L 400.90125 24.953258 
L 400.90125 24.953258 
" style="fill:none;stroke:#858585;stroke-dasharray:1.5,2.475;stroke-dashoffset:0;stroke-opacity:0.5;stroke-width:1.5;"/>
   </g>
   <g id="line2d_26">
    <path clip-path="url(#p56b93562dd)" d="M -1 27.907132 
L 3.867838 27.199145 
L 9.539744 26.58785 
L 17.102285 26.023353 
L 26.555462 25.583344 
L 37.899274 25.286895 
L 54.914991 25.081689 
L 85.165156 24.976564 
L 191.040732 24.95296 
L 400.90125 24.952897 
L 400.90125 24.952897 
" style="fill:none;stroke:#858585;stroke-dasharray:1.5,2.475;stroke-dashoffset:0;stroke-opacity:0.5;stroke-width:1.5;"/>
   </g>
   <g id="line2d_27">
    <path clip-path="url(#p56b93562dd)" d="M -1 24.956422 
L 236.415979 24.952897 
L 400.90125 24.952897 
L 400.90125 24.952897 
" style="fill:none;stroke:#858585;stroke-dasharray:1.5,2.475;stroke-dashoffset:0;stroke-opacity:0.5;stroke-width:1.5;"/>
   </g>
   <g id="line2d_28">
    <defs>
     <path d="M 0 3 
C 0.795609 3 1.55874 2.683901 2.12132 2.12132 
C 2.683901 1.55874 3 0.795609 3 0 
C 3 -0.795609 2.683901 -1.55874 2.12132 -2.12132 
C 1.55874 -2.683901 0.795609 -3 0 -3 
C -0.795609 -3 -1.55874 -2.683901 -2.12132 -2.12132 
C -2.683901 -1.55874 -3 -0.795609 -3 0 
C -3 0.795609 -2.683901 1.55874 -2.12132 2.12132 
C -1.55874 2.683901 -0.795609 3 0 3 
z
" id="m81c8b56c91" style="stroke:#ff0000;stroke-width:2;"/>
    </defs>
    <g clip-path="url(#p56b93562dd)">
     <use style="fill:#ff0000;stroke:#ff0000;stroke-width:2;" x="199.72365" xlink:href="#m81c8b56c91" y="217.829344"/>
    </g>
   </g>
   <g id="line2d_29">
    <defs>
     <path d="M 0 3 
C 0.795609 3 1.55874 2.683901 2.12132 2.12132 
C 2.683901 1.55874 3 0.795609 3 0 
C 3 -0.795609 2.683901 -1.55874 2.12132 -2.12132 
C 1.55874 -2.683901 0.795609 -3 0 -3 
C -0.795609 -3 -1.55874 -2.683901 -2.12132 -2.12132 
C -2.683901 -1.55874 -3 -0.795609 -3 0 
C -3 0.795609 -2.683901 1.55874 -2.12132 2.12132 
C -1.55874 2.683901 -0.795609 3 0 3 
z
" id="m3192c37432" style="stroke:#ff2a00;stroke-width:2;"/>
    </defs>
    <g clip-path="url(#p56b93562dd)">
     <use style="fill:#ff2a00;stroke:#ff2a00;stroke-width:2;" x="240.19725" xlink:href="#m3192c37432" y="189.946247"/>
    </g>
   </g>
   <g id="line2d_30">
    <defs>
     <path d="M 0 3 
C 0.795609 3 1.55874 2.683901 2.12132 2.12132 
C 2.683901 1.55874 3 0.795609 3 0 
C 3 -0.795609 2.683901 -1.55874 2.12132 -2.12132 
C 1.55874 -2.683901 0.795609 -3 0 -3 
C -0.795609 -3 -1.55874 -2.683901 -2.12132 -2.12132 
C -2.683901 -1.55874 -3 -0.795609 -3 0 
C -3 0.795609 -2.683901 1.55874 -2.12132 2.12132 
C -1.55874 2.683901 -0.795609 3 0 3 
z
" id="meb768131c5" style="stroke:#ff5500;stroke-width:2;"/>
    </defs>
    <g clip-path="url(#p56b93562dd)">
     <use style="fill:#ff5500;stroke:#ff5500;stroke-width:2;" x="134.25165" xlink:href="#meb768131c5" y="155.893687"/>
    </g>
   </g>
   <g id="line2d_31">
    <defs>
     <path d="M 0 3 
C 0.795609 3 1.55874 2.683901 2.12132 2.12132 
C 2.683901 1.55874 3 0.795609 3 0 
C 3 -0.795609 2.683901 -1.55874 2.12132 -2.12132 
C 1.55874 -2.683901 0.795609 -3 0 -3 
C -0.795609 -3 -1.55874 -2.683901 -2.12132 -2.12132 
C -2.683901 -1.55874 -3 -0.795609 -3 0 
C -3 0.795609 -2.683901 1.55874 -2.12132 2.12132 
C -1.55874 2.683901 -0.795609 3 0 3 
z
" id="m5a6a931de8" style="stroke:#ff8000;stroke-width:2;"/>
    </defs>
    <g clip-path="url(#p56b93562dd)">
     <use style="fill:#ff8000;stroke:#ff8000;stroke-width:2;" x="200.91405" xlink:href="#m5a6a931de8" y="37.032693"/>
    </g>
   </g>
   <g id="line2d_32">
    <defs>
     <path d="M 0 3 
C 0.795609 3 1.55874 2.683901 2.12132 2.12132 
C 2.683901 1.55874 3 0.795609 3 0 
C 3 -0.795609 2.683901 -1.55874 2.12132 -2.12132 
C 1.55874 -2.683901 0.795609 -3 0 -3 
C -0.795609 -3 -1.55874 -2.683901 -2.12132 -2.12132 
C -2.683901 -1.55874 -3 -0.795609 -3 0 
C -3 0.795609 -2.683901 1.55874 -2.12132 2.12132 
C -1.55874 2.683901 -0.795609 3 0 3 
z
" id="mfc07bc2d3e" style="stroke:#ffaa00;stroke-width:2;"/>
    </defs>
    <g clip-path="url(#p56b93562dd)">
     <use style="fill:#ffaa00;stroke:#ffaa00;stroke-width:2;" x="171.15405" xlink:href="#mfc07bc2d3e" y="33.332844"/>
    </g>
   </g>
   <g id="line2d_33">
    <defs>
     <path d="M 0 3 
C 0.795609 3 1.55874 2.683901 2.12132 2.12132 
C 2.683901 1.55874 3 0.795609 3 0 
C 3 -0.795609 2.683901 -1.55874 2.12132 -2.12132 
C 1.55874 -2.683901 0.795609 -3 0 -3 
C -0.795609 -3 -1.55874 -2.683901 -2.12132 -2.12132 
C -2.683901 -1.55874 -3 -0.795609 -3 0 
C -3 0.795609 -2.683901 1.55874 -2.12132 2.12132 
C -1.55874 2.683901 -0.795609 3 0 3 
z
" id="m5b2d2142b6" style="stroke:#ffd400;stroke-width:2;"/>
    </defs>
    <g clip-path="url(#p56b93562dd)">
     <use style="fill:#ffd400;stroke:#ffd400;stroke-width:2;" x="75.92205" xlink:href="#m5b2d2142b6" y="223.841594"/>
    </g>
   </g>
   <g id="line2d_34">
    <defs>
     <path d="M 0 3 
C 0.795609 3 1.55874 2.683901 2.12132 2.12132 
C 2.683901 1.55874 3 0.795609 3 0 
C 3 -0.795609 2.683901 -1.55874 2.12132 -2.12132 
C 1.55874 -2.683901 0.795609 -3 0 -3 
C -0.795609 -3 -1.55874 -2.683901 -2.12132 -2.12132 
C -2.683901 -1.55874 -3 -0.795609 -3 0 
C -3 0.795609 -2.683901 1.55874 -2.12132 2.12132 
C -1.55874 2.683901 -0.795609 3 0 3 
z
" id="mf7ce6aff43" style="stroke:#ffff00;stroke-width:2;"/>
    </defs>
    <g clip-path="url(#p56b93562dd)">
     <use style="fill:#ffff00;stroke:#ffff00;stroke-width:2;" x="243.76845" xlink:href="#mf7ce6aff43" y="221.237052"/>
    </g>
   </g>
   <g id="line2d_35">
    <defs>
     <path d="M 0 3 
C 0.795609 3 1.55874 2.683901 2.12132 2.12132 
C 2.683901 1.55874 3 0.795609 3 0 
C 3 -0.795609 2.683901 -1.55874 2.12132 -2.12132 
C 1.55874 -2.683901 0.795609 -3 0 -3 
C -0.795609 -3 -1.55874 -2.683901 -2.12132 -2.12132 
C -2.683901 -1.55874 -3 -0.795609 -3 0 
C -3 0.795609 -2.683901 1.55874 -2.12132 2.12132 
C -1.55874 2.683901 -0.795609 3 0 3 
z
" id="mc9f6f16b35" style="stroke:#0000ff;stroke-width:2;"/>
    </defs>
    <g clip-path="url(#p56b93562dd)">
     <use style="fill:#0000ff;stroke:#0000ff;stroke-width:2;" x="166.39245" xlink:href="#mc9f6f16b35" y="241.624939"/>
    </g>
   </g>
   <g id="line2d_36">
    <defs>
     <path d="M 0 3 
C 0.795609 3 1.55874 2.683901 2.12132 2.12132 
C 2.683901 1.55874 3 0.795609 3 0 
C 3 -0.795609 2.683901 -1.55874 2.12132 -2.12132 
C 1.55874 -2.683901 0.795609 -3 0 -3 
C -0.795609 -3 -1.55874 -2.683901 -2.12132 -2.12132 
C -2.683901 -1.55874 -3 -0.795609 -3 0 
C -3 0.795609 -2.683901 1.55874 -2.12132 2.12132 
C -1.55874 2.683901 -0.795609 3 0 3 
z
" id="m00113fbe3f" style="stroke:#002aea;stroke-width:2;"/>
    </defs>
    <g clip-path="url(#p56b93562dd)">
     <use style="fill:#002aea;stroke:#002aea;stroke-width:2;" x="273.52845" xlink:href="#m00113fbe3f" y="220.293406"/>
    </g>
   </g>
   <g id="line2d_37">
    <defs>
     <path d="M 0 3 
C 0.795609 3 1.55874 2.683901 2.12132 2.12132 
C 2.683901 1.55874 3 0.795609 3 0 
C 3 -0.795609 2.683901 -1.55874 2.12132 -2.12132 
C 1.55874 -2.683901 0.795609 -3 0 -3 
C -0.795609 -3 -1.55874 -2.683901 -2.12132 -2.12132 
C -2.683901 -1.55874 -3 -0.795609 -3 0 
C -3 0.795609 -2.683901 1.55874 -2.12132 2.12132 
C -1.55874 2.683901 -0.795609 3 0 3 
z
" id="m3ab02ef8b5" style="stroke:#0055d4;stroke-width:2;"/>
    </defs>
    <g clip-path="url(#p56b93562dd)">
     <use style="fill:#0055d4;stroke:#0055d4;stroke-width:2;" x="173.53485" xlink:href="#m3ab02ef8b5" y="239.833153"/>
    </g>
   </g>
   <g id="line2d_38">
    <defs>
     <path d="M 0 3 
C 0.795609 3 1.55874 2.683901 2.12132 2.12132 
C 2.683901 1.55874 3 0.795609 3 0 
C 3 -0.795609 2.683901 -1.55874 2.12132 -2.12132 
C 1.55874 -2.683901 0.795609 -3 0 -3 
C -0.795609 -3 -1.55874 -2.683901 -2.12132 -2.12132 
C -2.683901 -1.55874 -3 -0.795609 -3 0 
C -3 0.795609 -2.683901 1.55874 -2.12132 2.12132 
C -1.55874 2.683901 -0.795609 3 0 3 
z
" id="m8bb5a6bd6d" style="stroke:#0080bf;stroke-width:2;"/>
    </defs>
    <g clip-path="url(#p56b93562dd)">
     <use style="fill:#0080bf;stroke:#0080bf;stroke-width:2;" x="378.28365" xlink:href="#m8bb5a6bd6d" y="186.379199"/>
    </g>
   </g>
   <g id="line2d_39">
    <defs>
     <path d="M 0 3 
C 0.795609 3 1.55874 2.683901 2.12132 2.12132 
C 2.683901 1.55874 3 0.795609 3 0 
C 3 -0.795609 2.683901 -1.55874 2.12132 -2.12132 
C 1.55874 -2.683901 0.795609 -3 0 -3 
C -0.795609 -3 -1.55874 -2.683901 -2.12132 -2.12132 
C -2.683901 -1.55874 -3 -0.795609 -3 0 
C -3 0.795609 -2.683901 1.55874 -2.12132 2.12132 
C -1.55874 2.683901 -0.795609 3 0 3 
z
" id="m81c5cdc28e" style="stroke:#00aaaa;stroke-width:2;"/>
    </defs>
    <g clip-path="url(#p56b93562dd)">
     <use style="fill:#00aaaa;stroke:#00aaaa;stroke-width:2;" x="209.24685" xlink:href="#m81c5cdc28e" y="191.301895"/>
    </g>
   </g>
   <g id="line2d_40">
    <defs>
     <path d="M 0 3 
C 0.795609 3 1.55874 2.683901 2.12132 2.12132 
C 2.683901 1.55874 3 0.795609 3 0 
C 3 -0.795609 2.683901 -1.55874 2.12132 -2.12132 
C 1.55874 -2.683901 0.795609 -3 0 -3 
C -0.795609 -3 -1.55874 -2.683901 -2.12132 -2.12132 
C -2.683901 -1.55874 -3 -0.795609 -3 0 
C -3 0.795609 -2.683901 1.55874 -2.12132 2.12132 
C -1.55874 2.683901 -0.795609 3 0 3 
z
" id="mb247bdcfe4" style="stroke:#00d495;stroke-width:2;"/>
    </defs>
    <g clip-path="url(#p56b93562dd)">
     <use style="fill:#00d495;stroke:#00d495;stroke-width:2;" x="79.49325" xlink:href="#mb247bdcfe4" y="250.651606"/>
    </g>
   </g>
   <g id="line2d_41">
    <defs>
     <path d="M 0 3 
C 0.795609 3 1.55874 2.683901 2.12132 2.12132 
C 2.683901 1.55874 3 0.795609 3 0 
C 3 -0.795609 2.683901 -1.55874 2.12132 -2.12132 
C 1.55874 -2.683901 0.795609 -3 0 -3 
C -0.795609 -3 -1.55874 -2.683901 -2.12132 -2.12132 
C -2.683901 -1.55874 -3 -0.795609 -3 0 
C -3 0.795609 -2.683901 1.55874 -2.12132 2.12132 
C -1.55874 2.683901 -0.795609 3 0 3 
z
" id="m5ec7f1151e" style="stroke:#00ff80;stroke-width:2;"/>
    </defs>
    <g clip-path="url(#p56b93562dd)">
     <use style="fill:#00ff80;stroke:#00ff80;stroke-width:2;" x="173.53485" xlink:href="#m5ec7f1151e" y="242.664829"/>
    </g>
   </g>
   <g id="patch_3">
    <path d="M 43.78125 288.430125 
L 43.78125 22.318125 
" style="fill:none;stroke:#000000;stroke-linecap:square;stroke-linejoin:miter;stroke-width:0.8;"/>
   </g>
   <g id="patch_4">
    <path d="M 400.90125 288.430125 
L 400.90125 22.318125 
" style="fill:none;stroke:#000000;stroke-linecap:square;stroke-linejoin:miter;stroke-width:0.8;"/>
   </g>
   <g id="patch_5">
    <path d="M 43.78125 288.430125 
L 400.90125 288.430125 
" style="fill:none;stroke:#000000;stroke-linecap:square;stroke-linejoin:miter;stroke-width:0.8;"/>
   </g>
   <g id="patch_6">
    <path d="M 43.78125 22.318125 
L 400.90125 22.318125 
" style="fill:none;stroke:#000000;stroke-linecap:square;stroke-linejoin:miter;stroke-width:0.8;"/>
   </g>
   <g id="text_14">
    <!-- Filtration Efficency vs. Pressure Drop at 0.3 um -->
    <g transform="translate(81.481875 16.318125)scale(0.12 -0.12)">
     <defs>
      <path d="M 191 3500 
L 800 3500 
L 1894 563 
L 2988 3500 
L 3597 3500 
L 2284 0 
L 1503 0 
L 191 3500 
z
" id="DejaVuSans-76" transform="scale(0.015625)"/>
      <path d="M 2597 2516 
Q 3050 2419 3304 2112 
Q 3559 1806 3559 1356 
Q 3559 666 3084 287 
Q 2609 -91 1734 -91 
Q 1441 -91 1130 -33 
Q 819 25 488 141 
L 488 750 
Q 750 597 1062 519 
Q 1375 441 1716 441 
Q 2309 441 2620 675 
Q 2931 909 2931 1356 
Q 2931 1769 2642 2001 
Q 2353 2234 1838 2234 
L 1294 2234 
L 1294 2753 
L 1863 2753 
Q 2328 2753 2575 2939 
Q 2822 3125 2822 3475 
Q 2822 3834 2567 4026 
Q 2313 4219 1838 4219 
Q 1578 4219 1281 4162 
Q 984 4106 628 3988 
L 628 4550 
Q 988 4650 1302 4700 
Q 1616 4750 1894 4750 
Q 2613 4750 3031 4423 
Q 3450 4097 3450 3541 
Q 3450 3153 3228 2886 
Q 3006 2619 2597 2516 
z
" id="DejaVuSans-33" transform="scale(0.015625)"/>
      <path d="M 3328 2828 
Q 3544 3216 3844 3400 
Q 4144 3584 4550 3584 
Q 5097 3584 5394 3201 
Q 5691 2819 5691 2113 
L 5691 0 
L 5113 0 
L 5113 2094 
Q 5113 2597 4934 2840 
Q 4756 3084 4391 3084 
Q 3944 3084 3684 2787 
Q 3425 2491 3425 1978 
L 3425 0 
L 2847 0 
L 2847 2094 
Q 2847 2600 2669 2842 
Q 2491 3084 2119 3084 
Q 1678 3084 1418 2786 
Q 1159 2488 1159 1978 
L 1159 0 
L 581 0 
L 581 3500 
L 1159 3500 
L 1159 2956 
Q 1356 3278 1631 3431 
Q 1906 3584 2284 3584 
Q 2666 3584 2933 3390 
Q 3200 3197 3328 2828 
z
" id="DejaVuSans-6d" transform="scale(0.015625)"/>
     </defs>
     <use xlink:href="#DejaVuSans-46"/>
     <use x="50.269531" xlink:href="#DejaVuSans-69"/>
     <use x="78.052734" xlink:href="#DejaVuSans-6c"/>
     <use x="105.835938" xlink:href="#DejaVuSans-74"/>
     <use x="145.044922" xlink:href="#DejaVuSans-72"/>
     <use x="186.158203" xlink:href="#DejaVuSans-61"/>
     <use x="247.4375" xlink:href="#DejaVuSans-74"/>
     <use x="286.646484" xlink:href="#DejaVuSans-69"/>
     <use x="314.429688" xlink:href="#DejaVuSans-6f"/>
     <use x="375.611328" xlink:href="#DejaVuSans-6e"/>
     <use x="438.990234" xlink:href="#DejaVuSans-20"/>
     <use x="470.777344" xlink:href="#DejaVuSans-45"/>
     <use x="533.960938" xlink:href="#DejaVuSans-66"/>
     <use x="569.166016" xlink:href="#DejaVuSans-66"/>
     <use x="604.371094" xlink:href="#DejaVuSans-69"/>
     <use x="632.154297" xlink:href="#DejaVuSans-63"/>
     <use x="687.134766" xlink:href="#DejaVuSans-65"/>
     <use x="748.658203" xlink:href="#DejaVuSans-6e"/>
     <use x="812.037109" xlink:href="#DejaVuSans-63"/>
     <use x="867.017578" xlink:href="#DejaVuSans-79"/>
     <use x="926.197266" xlink:href="#DejaVuSans-20"/>
     <use x="957.984375" xlink:href="#DejaVuSans-76"/>
     <use x="1017.164062" xlink:href="#DejaVuSans-73"/>
     <use x="1069.263672" xlink:href="#DejaVuSans-2e"/>
     <use x="1101.050781" xlink:href="#DejaVuSans-20"/>
     <use x="1132.837891" xlink:href="#DejaVuSans-50"/>
     <use x="1191.390625" xlink:href="#DejaVuSans-72"/>
     <use x="1230.253906" xlink:href="#DejaVuSans-65"/>
     <use x="1291.777344" xlink:href="#DejaVuSans-73"/>
     <use x="1343.876953" xlink:href="#DejaVuSans-73"/>
     <use x="1395.976562" xlink:href="#DejaVuSans-75"/>
     <use x="1459.355469" xlink:href="#DejaVuSans-72"/>
     <use x="1498.21875" xlink:href="#DejaVuSans-65"/>
     <use x="1559.742188" xlink:href="#DejaVuSans-20"/>
     <use x="1591.529297" xlink:href="#DejaVuSans-44"/>
     <use x="1668.53125" xlink:href="#DejaVuSans-72"/>
     <use x="1707.394531" xlink:href="#DejaVuSans-6f"/>
     <use x="1768.576172" xlink:href="#DejaVuSans-70"/>
     <use x="1832.052734" xlink:href="#DejaVuSans-20"/>
     <use x="1863.839844" xlink:href="#DejaVuSans-61"/>
     <use x="1925.119141" xlink:href="#DejaVuSans-74"/>
     <use x="1964.328125" xlink:href="#DejaVuSans-20"/>
     <use x="1996.115234" xlink:href="#DejaVuSans-30"/>
     <use x="2059.738281" xlink:href="#DejaVuSans-2e"/>
     <use x="2091.525391" xlink:href="#DejaVuSans-33"/>
     <use x="2155.148438" xlink:href="#DejaVuSans-20"/>
     <use x="2186.935547" xlink:href="#DejaVuSans-75"/>
     <use x="2250.314453" xlink:href="#DejaVuSans-6d"/>
    </g>
   </g>
   <g id="legend_1">
    <g id="patch_7">
     <path d="M 425.75725 235.811875 
L 527.665063 235.811875 
Q 529.665063 235.811875 529.665063 233.811875 
L 529.665063 29.318125 
Q 529.665063 27.318125 527.665063 27.318125 
L 425.75725 27.318125 
Q 423.75725 27.318125 423.75725 29.318125 
L 423.75725 233.811875 
Q 423.75725 235.811875 425.75725 235.811875 
z
" style="fill:#ffffff;opacity:0.8;stroke:#cccccc;stroke-linejoin:miter;"/>
    </g>
    <g id="line2d_42"/>
    <g id="line2d_43">
     <g>
      <use style="fill:#ff0000;stroke:#ff0000;stroke-width:2;" x="437.75725" xlink:href="#m81c8b56c91" y="35.416562"/>
     </g>
    </g>
    <g id="text_15">
     <!-- Mask A -->
     <g transform="translate(455.75725 38.916562)scale(0.1 -0.1)">
      <defs>
       <path d="M 628 4666 
L 1569 4666 
L 2759 1491 
L 3956 4666 
L 4897 4666 
L 4897 0 
L 4281 0 
L 4281 4097 
L 3078 897 
L 2444 897 
L 1241 4097 
L 1241 0 
L 628 0 
L 628 4666 
z
" id="DejaVuSans-4d" transform="scale(0.015625)"/>
       <path d="M 581 4863 
L 1159 4863 
L 1159 1991 
L 2875 3500 
L 3609 3500 
L 1753 1863 
L 3688 0 
L 2938 0 
L 1159 1709 
L 1159 0 
L 581 0 
L 581 4863 
z
" id="DejaVuSans-6b" transform="scale(0.015625)"/>
       <path d="M 2188 4044 
L 1331 1722 
L 3047 1722 
L 2188 4044 
z
M 1831 4666 
L 2547 4666 
L 4325 0 
L 3669 0 
L 3244 1197 
L 1141 1197 
L 716 0 
L 50 0 
L 1831 4666 
z
" id="DejaVuSans-41" transform="scale(0.015625)"/>
      </defs>
      <use xlink:href="#DejaVuSans-4d"/>
      <use x="86.279297" xlink:href="#DejaVuSans-61"/>
      <use x="147.558594" xlink:href="#DejaVuSans-73"/>
      <use x="199.658203" xlink:href="#DejaVuSans-6b"/>
      <use x="257.568359" xlink:href="#DejaVuSans-20"/>
      <use x="289.355469" xlink:href="#DejaVuSans-41"/>
     </g>
    </g>
    <g id="line2d_44"/>
    <g id="line2d_45">
     <g>
      <use style="fill:#ff2a00;stroke:#ff2a00;stroke-width:2;" x="437.75725" xlink:href="#m3192c37432" y="50.094688"/>
     </g>
    </g>
    <g id="text_16">
     <!-- Mask B -->
     <g transform="translate(455.75725 53.594688)scale(0.1 -0.1)">
      <defs>
       <path d="M 1259 2228 
L 1259 519 
L 2272 519 
Q 2781 519 3026 730 
Q 3272 941 3272 1375 
Q 3272 1813 3026 2020 
Q 2781 2228 2272 2228 
L 1259 2228 
z
M 1259 4147 
L 1259 2741 
L 2194 2741 
Q 2656 2741 2882 2914 
Q 3109 3088 3109 3444 
Q 3109 3797 2882 3972 
Q 2656 4147 2194 4147 
L 1259 4147 
z
M 628 4666 
L 2241 4666 
Q 2963 4666 3353 4366 
Q 3744 4066 3744 3513 
Q 3744 3084 3544 2831 
Q 3344 2578 2956 2516 
Q 3422 2416 3680 2098 
Q 3938 1781 3938 1306 
Q 3938 681 3513 340 
Q 3088 0 2303 0 
L 628 0 
L 628 4666 
z
" id="DejaVuSans-42" transform="scale(0.015625)"/>
      </defs>
      <use xlink:href="#DejaVuSans-4d"/>
      <use x="86.279297" xlink:href="#DejaVuSans-61"/>
      <use x="147.558594" xlink:href="#DejaVuSans-73"/>
      <use x="199.658203" xlink:href="#DejaVuSans-6b"/>
      <use x="257.568359" xlink:href="#DejaVuSans-20"/>
      <use x="289.355469" xlink:href="#DejaVuSans-42"/>
     </g>
    </g>
    <g id="line2d_46"/>
    <g id="line2d_47">
     <g>
      <use style="fill:#ff5500;stroke:#ff5500;stroke-width:2;" x="437.75725" xlink:href="#meb768131c5" y="64.772812"/>
     </g>
    </g>
    <g id="text_17">
     <!-- Mask C -->
     <g transform="translate(455.75725 68.272812)scale(0.1 -0.1)">
      <defs>
       <path d="M 4122 4306 
L 4122 3641 
Q 3803 3938 3442 4084 
Q 3081 4231 2675 4231 
Q 1875 4231 1450 3742 
Q 1025 3253 1025 2328 
Q 1025 1406 1450 917 
Q 1875 428 2675 428 
Q 3081 428 3442 575 
Q 3803 722 4122 1019 
L 4122 359 
Q 3791 134 3420 21 
Q 3050 -91 2638 -91 
Q 1578 -91 968 557 
Q 359 1206 359 2328 
Q 359 3453 968 4101 
Q 1578 4750 2638 4750 
Q 3056 4750 3426 4639 
Q 3797 4528 4122 4306 
z
" id="DejaVuSans-43" transform="scale(0.015625)"/>
      </defs>
      <use xlink:href="#DejaVuSans-4d"/>
      <use x="86.279297" xlink:href="#DejaVuSans-61"/>
      <use x="147.558594" xlink:href="#DejaVuSans-73"/>
      <use x="199.658203" xlink:href="#DejaVuSans-6b"/>
      <use x="257.568359" xlink:href="#DejaVuSans-20"/>
      <use x="289.355469" xlink:href="#DejaVuSans-43"/>
     </g>
    </g>
    <g id="line2d_48"/>
    <g id="line2d_49">
     <g>
      <use style="fill:#ff8000;stroke:#ff8000;stroke-width:2;" x="437.75725" xlink:href="#m5a6a931de8" y="79.450938"/>
     </g>
    </g>
    <g id="text_18">
     <!-- Mask D -->
     <g transform="translate(455.75725 82.950938)scale(0.1 -0.1)">
      <use xlink:href="#DejaVuSans-4d"/>
      <use x="86.279297" xlink:href="#DejaVuSans-61"/>
      <use x="147.558594" xlink:href="#DejaVuSans-73"/>
      <use x="199.658203" xlink:href="#DejaVuSans-6b"/>
      <use x="257.568359" xlink:href="#DejaVuSans-20"/>
      <use x="289.355469" xlink:href="#DejaVuSans-44"/>
     </g>
    </g>
    <g id="line2d_50"/>
    <g id="line2d_51">
     <g>
      <use style="fill:#ffaa00;stroke:#ffaa00;stroke-width:2;" x="437.75725" xlink:href="#mfc07bc2d3e" y="94.129063"/>
     </g>
    </g>
    <g id="text_19">
     <!-- Mask E -->
     <g transform="translate(455.75725 97.629063)scale(0.1 -0.1)">
      <use xlink:href="#DejaVuSans-4d"/>
      <use x="86.279297" xlink:href="#DejaVuSans-61"/>
      <use x="147.558594" xlink:href="#DejaVuSans-73"/>
      <use x="199.658203" xlink:href="#DejaVuSans-6b"/>
      <use x="257.568359" xlink:href="#DejaVuSans-20"/>
      <use x="289.355469" xlink:href="#DejaVuSans-45"/>
     </g>
    </g>
    <g id="line2d_52"/>
    <g id="line2d_53">
     <g>
      <use style="fill:#ffd400;stroke:#ffd400;stroke-width:2;" x="437.75725" xlink:href="#m5b2d2142b6" y="108.807187"/>
     </g>
    </g>
    <g id="text_20">
     <!-- Mask F -->
     <g transform="translate(455.75725 112.307187)scale(0.1 -0.1)">
      <use xlink:href="#DejaVuSans-4d"/>
      <use x="86.279297" xlink:href="#DejaVuSans-61"/>
      <use x="147.558594" xlink:href="#DejaVuSans-73"/>
      <use x="199.658203" xlink:href="#DejaVuSans-6b"/>
      <use x="257.568359" xlink:href="#DejaVuSans-20"/>
      <use x="289.355469" xlink:href="#DejaVuSans-46"/>
     </g>
    </g>
    <g id="line2d_54"/>
    <g id="line2d_55">
     <g>
      <use style="fill:#ffff00;stroke:#ffff00;stroke-width:2;" x="437.75725" xlink:href="#mf7ce6aff43" y="123.485313"/>
     </g>
    </g>
    <g id="text_21">
     <!-- Mask G -->
     <g transform="translate(455.75725 126.985313)scale(0.1 -0.1)">
      <defs>
       <path d="M 3809 666 
L 3809 1919 
L 2778 1919 
L 2778 2438 
L 4434 2438 
L 4434 434 
Q 4069 175 3628 42 
Q 3188 -91 2688 -91 
Q 1594 -91 976 548 
Q 359 1188 359 2328 
Q 359 3472 976 4111 
Q 1594 4750 2688 4750 
Q 3144 4750 3555 4637 
Q 3966 4525 4313 4306 
L 4313 3634 
Q 3963 3931 3569 4081 
Q 3175 4231 2741 4231 
Q 1884 4231 1454 3753 
Q 1025 3275 1025 2328 
Q 1025 1384 1454 906 
Q 1884 428 2741 428 
Q 3075 428 3337 486 
Q 3600 544 3809 666 
z
" id="DejaVuSans-47" transform="scale(0.015625)"/>
      </defs>
      <use xlink:href="#DejaVuSans-4d"/>
      <use x="86.279297" xlink:href="#DejaVuSans-61"/>
      <use x="147.558594" xlink:href="#DejaVuSans-73"/>
      <use x="199.658203" xlink:href="#DejaVuSans-6b"/>
      <use x="257.568359" xlink:href="#DejaVuSans-20"/>
      <use x="289.355469" xlink:href="#DejaVuSans-47"/>
     </g>
    </g>
    <g id="line2d_56"/>
    <g id="line2d_57">
     <g>
      <use style="fill:#0000ff;stroke:#0000ff;stroke-width:2;" x="437.75725" xlink:href="#mc9f6f16b35" y="138.163437"/>
     </g>
    </g>
    <g id="text_22">
     <!-- Mask A WASH -->
     <g transform="translate(455.75725 141.663437)scale(0.1 -0.1)">
      <defs>
       <path d="M 213 4666 
L 850 4666 
L 1831 722 
L 2809 4666 
L 3519 4666 
L 4500 722 
L 5478 4666 
L 6119 4666 
L 4947 0 
L 4153 0 
L 3169 4050 
L 2175 0 
L 1381 0 
L 213 4666 
z
" id="DejaVuSans-57" transform="scale(0.015625)"/>
       <path d="M 3425 4513 
L 3425 3897 
Q 3066 4069 2747 4153 
Q 2428 4238 2131 4238 
Q 1616 4238 1336 4038 
Q 1056 3838 1056 3469 
Q 1056 3159 1242 3001 
Q 1428 2844 1947 2747 
L 2328 2669 
Q 3034 2534 3370 2195 
Q 3706 1856 3706 1288 
Q 3706 609 3251 259 
Q 2797 -91 1919 -91 
Q 1588 -91 1214 -16 
Q 841 59 441 206 
L 441 856 
Q 825 641 1194 531 
Q 1563 422 1919 422 
Q 2459 422 2753 634 
Q 3047 847 3047 1241 
Q 3047 1584 2836 1778 
Q 2625 1972 2144 2069 
L 1759 2144 
Q 1053 2284 737 2584 
Q 422 2884 422 3419 
Q 422 4038 858 4394 
Q 1294 4750 2059 4750 
Q 2388 4750 2728 4690 
Q 3069 4631 3425 4513 
z
" id="DejaVuSans-53" transform="scale(0.015625)"/>
       <path d="M 628 4666 
L 1259 4666 
L 1259 2753 
L 3553 2753 
L 3553 4666 
L 4184 4666 
L 4184 0 
L 3553 0 
L 3553 2222 
L 1259 2222 
L 1259 0 
L 628 0 
L 628 4666 
z
" id="DejaVuSans-48" transform="scale(0.015625)"/>
      </defs>
      <use xlink:href="#DejaVuSans-4d"/>
      <use x="86.279297" xlink:href="#DejaVuSans-61"/>
      <use x="147.558594" xlink:href="#DejaVuSans-73"/>
      <use x="199.658203" xlink:href="#DejaVuSans-6b"/>
      <use x="257.568359" xlink:href="#DejaVuSans-20"/>
      <use x="289.355469" xlink:href="#DejaVuSans-41"/>
      <use x="357.763672" xlink:href="#DejaVuSans-20"/>
      <use x="389.550781" xlink:href="#DejaVuSans-57"/>
      <use x="482.927734" xlink:href="#DejaVuSans-41"/>
      <use x="551.335938" xlink:href="#DejaVuSans-53"/>
      <use x="614.8125" xlink:href="#DejaVuSans-48"/>
     </g>
    </g>
    <g id="line2d_58"/>
    <g id="line2d_59">
     <g>
      <use style="fill:#002aea;stroke:#002aea;stroke-width:2;" x="437.75725" xlink:href="#m00113fbe3f" y="152.841563"/>
     </g>
    </g>
    <g id="text_23">
     <!-- Mask B WASH -->
     <g transform="translate(455.75725 156.341563)scale(0.1 -0.1)">
      <use xlink:href="#DejaVuSans-4d"/>
      <use x="86.279297" xlink:href="#DejaVuSans-61"/>
      <use x="147.558594" xlink:href="#DejaVuSans-73"/>
      <use x="199.658203" xlink:href="#DejaVuSans-6b"/>
      <use x="257.568359" xlink:href="#DejaVuSans-20"/>
      <use x="289.355469" xlink:href="#DejaVuSans-42"/>
      <use x="357.958984" xlink:href="#DejaVuSans-20"/>
      <use x="389.746094" xlink:href="#DejaVuSans-57"/>
      <use x="483.123047" xlink:href="#DejaVuSans-41"/>
      <use x="551.53125" xlink:href="#DejaVuSans-53"/>
      <use x="615.007812" xlink:href="#DejaVuSans-48"/>
     </g>
    </g>
    <g id="line2d_60"/>
    <g id="line2d_61">
     <g>
      <use style="fill:#0055d4;stroke:#0055d4;stroke-width:2;" x="437.75725" xlink:href="#m3ab02ef8b5" y="167.519687"/>
     </g>
    </g>
    <g id="text_24">
     <!-- Mask C WASH -->
     <g transform="translate(455.75725 171.019687)scale(0.1 -0.1)">
      <use xlink:href="#DejaVuSans-4d"/>
      <use x="86.279297" xlink:href="#DejaVuSans-61"/>
      <use x="147.558594" xlink:href="#DejaVuSans-73"/>
      <use x="199.658203" xlink:href="#DejaVuSans-6b"/>
      <use x="257.568359" xlink:href="#DejaVuSans-20"/>
      <use x="289.355469" xlink:href="#DejaVuSans-43"/>
      <use x="359.179688" xlink:href="#DejaVuSans-20"/>
      <use x="390.966797" xlink:href="#DejaVuSans-57"/>
      <use x="484.34375" xlink:href="#DejaVuSans-41"/>
      <use x="552.751953" xlink:href="#DejaVuSans-53"/>
      <use x="616.228516" xlink:href="#DejaVuSans-48"/>
     </g>
    </g>
    <g id="line2d_62"/>
    <g id="line2d_63">
     <g>
      <use style="fill:#0080bf;stroke:#0080bf;stroke-width:2;" x="437.75725" xlink:href="#m8bb5a6bd6d" y="182.197812"/>
     </g>
    </g>
    <g id="text_25">
     <!-- Mask D WASH -->
     <g transform="translate(455.75725 185.697812)scale(0.1 -0.1)">
      <use xlink:href="#DejaVuSans-4d"/>
      <use x="86.279297" xlink:href="#DejaVuSans-61"/>
      <use x="147.558594" xlink:href="#DejaVuSans-73"/>
      <use x="199.658203" xlink:href="#DejaVuSans-6b"/>
      <use x="257.568359" xlink:href="#DejaVuSans-20"/>
      <use x="289.355469" xlink:href="#DejaVuSans-44"/>
      <use x="366.357422" xlink:href="#DejaVuSans-20"/>
      <use x="398.144531" xlink:href="#DejaVuSans-57"/>
      <use x="491.521484" xlink:href="#DejaVuSans-41"/>
      <use x="559.929688" xlink:href="#DejaVuSans-53"/>
      <use x="623.40625" xlink:href="#DejaVuSans-48"/>
     </g>
    </g>
    <g id="line2d_64"/>
    <g id="line2d_65">
     <g>
      <use style="fill:#00aaaa;stroke:#00aaaa;stroke-width:2;" x="437.75725" xlink:href="#m81c5cdc28e" y="196.875937"/>
     </g>
    </g>
    <g id="text_26">
     <!-- Mask E WASH -->
     <g transform="translate(455.75725 200.375937)scale(0.1 -0.1)">
      <use xlink:href="#DejaVuSans-4d"/>
      <use x="86.279297" xlink:href="#DejaVuSans-61"/>
      <use x="147.558594" xlink:href="#DejaVuSans-73"/>
      <use x="199.658203" xlink:href="#DejaVuSans-6b"/>
      <use x="257.568359" xlink:href="#DejaVuSans-20"/>
      <use x="289.355469" xlink:href="#DejaVuSans-45"/>
      <use x="352.539062" xlink:href="#DejaVuSans-20"/>
      <use x="384.326172" xlink:href="#DejaVuSans-57"/>
      <use x="477.703125" xlink:href="#DejaVuSans-41"/>
      <use x="546.111328" xlink:href="#DejaVuSans-53"/>
      <use x="609.587891" xlink:href="#DejaVuSans-48"/>
     </g>
    </g>
    <g id="line2d_66"/>
    <g id="line2d_67">
     <g>
      <use style="fill:#00d495;stroke:#00d495;stroke-width:2;" x="437.75725" xlink:href="#mb247bdcfe4" y="211.554062"/>
     </g>
    </g>
    <g id="text_27">
     <!-- Mask F WASH -->
     <g transform="translate(455.75725 215.054062)scale(0.1 -0.1)">
      <use xlink:href="#DejaVuSans-4d"/>
      <use x="86.279297" xlink:href="#DejaVuSans-61"/>
      <use x="147.558594" xlink:href="#DejaVuSans-73"/>
      <use x="199.658203" xlink:href="#DejaVuSans-6b"/>
      <use x="257.568359" xlink:href="#DejaVuSans-20"/>
      <use x="289.355469" xlink:href="#DejaVuSans-46"/>
      <use x="346.875" xlink:href="#DejaVuSans-20"/>
      <use x="378.662109" xlink:href="#DejaVuSans-57"/>
      <use x="472.039062" xlink:href="#DejaVuSans-41"/>
      <use x="540.447266" xlink:href="#DejaVuSans-53"/>
      <use x="603.923828" xlink:href="#DejaVuSans-48"/>
     </g>
    </g>
    <g id="line2d_68"/>
    <g id="line2d_69">
     <g>
      <use style="fill:#00ff80;stroke:#00ff80;stroke-width:2;" x="437.75725" xlink:href="#m5ec7f1151e" y="226.232187"/>
     </g>
    </g>
    <g id="text_28">
     <!-- Mask G WASH -->
     <g transform="translate(455.75725 229.732187)scale(0.1 -0.1)">
      <use xlink:href="#DejaVuSans-4d"/>
      <use x="86.279297" xlink:href="#DejaVuSans-61"/>
      <use x="147.558594" xlink:href="#DejaVuSans-73"/>
      <use x="199.658203" xlink:href="#DejaVuSans-6b"/>
      <use x="257.568359" xlink:href="#DejaVuSans-20"/>
      <use x="289.355469" xlink:href="#DejaVuSans-47"/>
      <use x="366.845703" xlink:href="#DejaVuSans-20"/>
      <use x="398.632812" xlink:href="#DejaVuSans-57"/>
      <use x="492.009766" xlink:href="#DejaVuSans-41"/>
      <use x="560.417969" xlink:href="#DejaVuSans-53"/>
      <use x="623.894531" xlink:href="#DejaVuSans-48"/>
     </g>
    </g>
   </g>
  </g>
 </g>
 <defs>
  <clipPath id="p56b93562dd">
   <rect height="266.112" width="357.12" x="43.78125" y="22.318125"/>
  </clipPath>
 </defs>
</svg>
