<?xml version="1.0" encoding="utf-8" standalone="no"?>
<!DOCTYPE svg PUBLIC "-//W3C//DTD SVG 1.1//EN"
  "http://www.w3.org/Graphics/SVG/1.1/DTD/svg11.dtd">
<svg height="314.667469pt" version="1.1" viewBox="0 0 495.879125 314.667469" width="495.879125pt" xmlns="http://www.w3.org/2000/svg" xmlns:xlink="http://www.w3.org/1999/xlink">
 <metadata>
  <rdf:RDF xmlns:cc="http://creativecommons.org/ns#" xmlns:dc="http://purl.org/dc/elements/1.1/" xmlns:rdf="http://www.w3.org/1999/02/22-rdf-syntax-ns#">
   <cc:Work>
    <dc:type rdf:resource="http://purl.org/dc/dcmitype/StillImage"/>
    <dc:date>2021-11-28T12:28:22.619407</dc:date>
    <dc:format>image/svg+xml</dc:format>
    <dc:creator>
     <cc:Agent>
      <dc:title>Matplotlib v3.4.2, https://matplotlib.org/</dc:title>
     </cc:Agent>
    </dc:creator>
   </cc:Work>
  </rdf:RDF>
 </metadata>
 <defs>
  <style type="text/css">*{stroke-linecap:butt;stroke-linejoin:round;}</style>
 </defs>
 <g id="figure_1">
  <g id="patch_1">
   <path d="M 0 314.667469 
L 495.879125 314.667469 
L 495.879125 0 
L 0 0 
z
" style="fill:#ffffff;"/>
  </g>
  <g id="axes_1">
   <g id="patch_2">
    <path d="M 51.378125 277.111219 
L 408.498125 277.111219 
L 408.498125 10.999219 
L 51.378125 10.999219 
z
" style="fill:#ffffff;"/>
   </g>
   <g id="PathCollection_1">
    <defs>
     <path d="M 0 2.738613 
C 0.726289 2.738613 1.422928 2.450055 1.936492 1.936492 
C 2.450055 1.422928 2.738613 0.726289 2.738613 0 
C 2.738613 -0.726289 2.450055 -1.422928 1.936492 -1.936492 
C 1.422928 -2.450055 0.726289 -2.738613 0 -2.738613 
C -0.726289 -2.738613 -1.422928 -2.450055 -1.936492 -1.936492 
C -2.450055 -1.422928 -2.738613 -0.726289 -2.738613 0 
C -2.738613 0.726289 -2.450055 1.422928 -1.936492 1.936492 
C -1.422928 2.450055 -0.726289 2.738613 0 2.738613 
z
" id="m9a4fb3ef04" style="stroke:#0d0887;"/>
    </defs>
    <g clip-path="url(#p20711bc279)">
     <use style="fill:#0d0887;stroke:#0d0887;" x="213.705398" xlink:href="#m9a4fb3ef04" y="543.223219"/>
    </g>
   </g>
   <g id="PathCollection_2">
    <defs>
     <path d="M 0 -2.738613 
L -2.738613 2.738613 
L 2.738613 2.738613 
z
" id="m3183e588b9" style="stroke:#7e03a8;"/>
    </defs>
    <g clip-path="url(#p20711bc279)">
     <use style="fill:#7e03a8;stroke:#7e03a8;" x="213.705398" xlink:href="#m3183e588b9" y="543.223219"/>
    </g>
   </g>
   <g id="PathCollection_3">
    <defs>
     <path d="M 0 3.872983 
L 3.872983 0 
L 0 -3.872983 
L -3.872983 0 
z
" id="m6cd18a6992" style="stroke:#cc4778;"/>
    </defs>
    <g clip-path="url(#p20711bc279)">
     <use style="fill:#cc4778;stroke:#cc4778;" x="213.705398" xlink:href="#m6cd18a6992" y="543.223219"/>
    </g>
   </g>
   <g id="PathCollection_4">
    <defs>
     <path d="M -2.738613 2.738613 
L 2.738613 2.738613 
L 2.738613 -2.738613 
L -2.738613 -2.738613 
z
" id="m66c4291c6c" style="stroke:#f89540;"/>
    </defs>
    <g clip-path="url(#p20711bc279)">
     <use style="fill:#f89540;stroke:#f89540;" x="213.705398" xlink:href="#m66c4291c6c" y="543.223219"/>
    </g>
   </g>
   <g id="matplotlib.axis_1">
    <g id="xtick_1">
     <g id="line2d_1">
      <defs>
       <path d="M 0 0 
L 0 3.5 
" id="mb12a5a36a9" style="stroke:#000000;stroke-width:0.8;"/>
      </defs>
      <g>
       <use style="stroke:#000000;stroke-width:0.8;" x="51.378125" xlink:href="#mb12a5a36a9" y="277.111219"/>
      </g>
     </g>
     <g id="text_1">
      <!-- 0 -->
      <g transform="translate(48.196875 291.709656)scale(0.1 -0.1)">
       <defs>
        <path d="M 2034 4250 
Q 1547 4250 1301 3770 
Q 1056 3291 1056 2328 
Q 1056 1369 1301 889 
Q 1547 409 2034 409 
Q 2525 409 2770 889 
Q 3016 1369 3016 2328 
Q 3016 3291 2770 3770 
Q 2525 4250 2034 4250 
z
M 2034 4750 
Q 2819 4750 3233 4129 
Q 3647 3509 3647 2328 
Q 3647 1150 3233 529 
Q 2819 -91 2034 -91 
Q 1250 -91 836 529 
Q 422 1150 422 2328 
Q 422 3509 836 4129 
Q 1250 4750 2034 4750 
z
" id="DejaVuSans-30" transform="scale(0.015625)"/>
       </defs>
       <use xlink:href="#DejaVuSans-30"/>
      </g>
     </g>
    </g>
    <g id="xtick_2">
     <g id="line2d_2">
      <g>
       <use style="stroke:#000000;stroke-width:0.8;" x="116.309034" xlink:href="#mb12a5a36a9" y="277.111219"/>
      </g>
     </g>
     <g id="text_2">
      <!-- 20 -->
      <g transform="translate(109.946534 291.709656)scale(0.1 -0.1)">
       <defs>
        <path d="M 1228 531 
L 3431 531 
L 3431 0 
L 469 0 
L 469 531 
Q 828 903 1448 1529 
Q 2069 2156 2228 2338 
Q 2531 2678 2651 2914 
Q 2772 3150 2772 3378 
Q 2772 3750 2511 3984 
Q 2250 4219 1831 4219 
Q 1534 4219 1204 4116 
Q 875 4013 500 3803 
L 500 4441 
Q 881 4594 1212 4672 
Q 1544 4750 1819 4750 
Q 2544 4750 2975 4387 
Q 3406 4025 3406 3419 
Q 3406 3131 3298 2873 
Q 3191 2616 2906 2266 
Q 2828 2175 2409 1742 
Q 1991 1309 1228 531 
z
" id="DejaVuSans-32" transform="scale(0.015625)"/>
       </defs>
       <use xlink:href="#DejaVuSans-32"/>
       <use x="63.623047" xlink:href="#DejaVuSans-30"/>
      </g>
     </g>
    </g>
    <g id="xtick_3">
     <g id="line2d_3">
      <g>
       <use style="stroke:#000000;stroke-width:0.8;" x="181.239943" xlink:href="#mb12a5a36a9" y="277.111219"/>
      </g>
     </g>
     <g id="text_3">
      <!-- 40 -->
      <g transform="translate(174.877443 291.709656)scale(0.1 -0.1)">
       <defs>
        <path d="M 2419 4116 
L 825 1625 
L 2419 1625 
L 2419 4116 
z
M 2253 4666 
L 3047 4666 
L 3047 1625 
L 3713 1625 
L 3713 1100 
L 3047 1100 
L 3047 0 
L 2419 0 
L 2419 1100 
L 313 1100 
L 313 1709 
L 2253 4666 
z
" id="DejaVuSans-34" transform="scale(0.015625)"/>
       </defs>
       <use xlink:href="#DejaVuSans-34"/>
       <use x="63.623047" xlink:href="#DejaVuSans-30"/>
      </g>
     </g>
    </g>
    <g id="xtick_4">
     <g id="line2d_4">
      <g>
       <use style="stroke:#000000;stroke-width:0.8;" x="246.170852" xlink:href="#mb12a5a36a9" y="277.111219"/>
      </g>
     </g>
     <g id="text_4">
      <!-- 60 -->
      <g transform="translate(239.808352 291.709656)scale(0.1 -0.1)">
       <defs>
        <path d="M 2113 2584 
Q 1688 2584 1439 2293 
Q 1191 2003 1191 1497 
Q 1191 994 1439 701 
Q 1688 409 2113 409 
Q 2538 409 2786 701 
Q 3034 994 3034 1497 
Q 3034 2003 2786 2293 
Q 2538 2584 2113 2584 
z
M 3366 4563 
L 3366 3988 
Q 3128 4100 2886 4159 
Q 2644 4219 2406 4219 
Q 1781 4219 1451 3797 
Q 1122 3375 1075 2522 
Q 1259 2794 1537 2939 
Q 1816 3084 2150 3084 
Q 2853 3084 3261 2657 
Q 3669 2231 3669 1497 
Q 3669 778 3244 343 
Q 2819 -91 2113 -91 
Q 1303 -91 875 529 
Q 447 1150 447 2328 
Q 447 3434 972 4092 
Q 1497 4750 2381 4750 
Q 2619 4750 2861 4703 
Q 3103 4656 3366 4563 
z
" id="DejaVuSans-36" transform="scale(0.015625)"/>
       </defs>
       <use xlink:href="#DejaVuSans-36"/>
       <use x="63.623047" xlink:href="#DejaVuSans-30"/>
      </g>
     </g>
    </g>
    <g id="xtick_5">
     <g id="line2d_5">
      <g>
       <use style="stroke:#000000;stroke-width:0.8;" x="311.101761" xlink:href="#mb12a5a36a9" y="277.111219"/>
      </g>
     </g>
     <g id="text_5">
      <!-- 80 -->
      <g transform="translate(304.739261 291.709656)scale(0.1 -0.1)">
       <defs>
        <path d="M 2034 2216 
Q 1584 2216 1326 1975 
Q 1069 1734 1069 1313 
Q 1069 891 1326 650 
Q 1584 409 2034 409 
Q 2484 409 2743 651 
Q 3003 894 3003 1313 
Q 3003 1734 2745 1975 
Q 2488 2216 2034 2216 
z
M 1403 2484 
Q 997 2584 770 2862 
Q 544 3141 544 3541 
Q 544 4100 942 4425 
Q 1341 4750 2034 4750 
Q 2731 4750 3128 4425 
Q 3525 4100 3525 3541 
Q 3525 3141 3298 2862 
Q 3072 2584 2669 2484 
Q 3125 2378 3379 2068 
Q 3634 1759 3634 1313 
Q 3634 634 3220 271 
Q 2806 -91 2034 -91 
Q 1263 -91 848 271 
Q 434 634 434 1313 
Q 434 1759 690 2068 
Q 947 2378 1403 2484 
z
M 1172 3481 
Q 1172 3119 1398 2916 
Q 1625 2713 2034 2713 
Q 2441 2713 2670 2916 
Q 2900 3119 2900 3481 
Q 2900 3844 2670 4047 
Q 2441 4250 2034 4250 
Q 1625 4250 1398 4047 
Q 1172 3844 1172 3481 
z
" id="DejaVuSans-38" transform="scale(0.015625)"/>
       </defs>
       <use xlink:href="#DejaVuSans-38"/>
       <use x="63.623047" xlink:href="#DejaVuSans-30"/>
      </g>
     </g>
    </g>
    <g id="xtick_6">
     <g id="line2d_6">
      <g>
       <use style="stroke:#000000;stroke-width:0.8;" x="376.03267" xlink:href="#mb12a5a36a9" y="277.111219"/>
      </g>
     </g>
     <g id="text_6">
      <!-- 100 -->
      <g transform="translate(366.48892 291.709656)scale(0.1 -0.1)">
       <defs>
        <path d="M 794 531 
L 1825 531 
L 1825 4091 
L 703 3866 
L 703 4441 
L 1819 4666 
L 2450 4666 
L 2450 531 
L 3481 531 
L 3481 0 
L 794 0 
L 794 531 
z
" id="DejaVuSans-31" transform="scale(0.015625)"/>
       </defs>
       <use xlink:href="#DejaVuSans-31"/>
       <use x="63.623047" xlink:href="#DejaVuSans-30"/>
       <use x="127.246094" xlink:href="#DejaVuSans-30"/>
      </g>
     </g>
    </g>
    <g id="text_7">
     <!-- Pressure Drop [Pa] -->
     <g transform="translate(183.633438 305.387781)scale(0.1 -0.1)">
      <defs>
       <path d="M 1259 4147 
L 1259 2394 
L 2053 2394 
Q 2494 2394 2734 2622 
Q 2975 2850 2975 3272 
Q 2975 3691 2734 3919 
Q 2494 4147 2053 4147 
L 1259 4147 
z
M 628 4666 
L 2053 4666 
Q 2838 4666 3239 4311 
Q 3641 3956 3641 3272 
Q 3641 2581 3239 2228 
Q 2838 1875 2053 1875 
L 1259 1875 
L 1259 0 
L 628 0 
L 628 4666 
z
" id="DejaVuSans-50" transform="scale(0.015625)"/>
       <path d="M 2631 2963 
Q 2534 3019 2420 3045 
Q 2306 3072 2169 3072 
Q 1681 3072 1420 2755 
Q 1159 2438 1159 1844 
L 1159 0 
L 581 0 
L 581 3500 
L 1159 3500 
L 1159 2956 
Q 1341 3275 1631 3429 
Q 1922 3584 2338 3584 
Q 2397 3584 2469 3576 
Q 2541 3569 2628 3553 
L 2631 2963 
z
" id="DejaVuSans-72" transform="scale(0.015625)"/>
       <path d="M 3597 1894 
L 3597 1613 
L 953 1613 
Q 991 1019 1311 708 
Q 1631 397 2203 397 
Q 2534 397 2845 478 
Q 3156 559 3463 722 
L 3463 178 
Q 3153 47 2828 -22 
Q 2503 -91 2169 -91 
Q 1331 -91 842 396 
Q 353 884 353 1716 
Q 353 2575 817 3079 
Q 1281 3584 2069 3584 
Q 2775 3584 3186 3129 
Q 3597 2675 3597 1894 
z
M 3022 2063 
Q 3016 2534 2758 2815 
Q 2500 3097 2075 3097 
Q 1594 3097 1305 2825 
Q 1016 2553 972 2059 
L 3022 2063 
z
" id="DejaVuSans-65" transform="scale(0.015625)"/>
       <path d="M 2834 3397 
L 2834 2853 
Q 2591 2978 2328 3040 
Q 2066 3103 1784 3103 
Q 1356 3103 1142 2972 
Q 928 2841 928 2578 
Q 928 2378 1081 2264 
Q 1234 2150 1697 2047 
L 1894 2003 
Q 2506 1872 2764 1633 
Q 3022 1394 3022 966 
Q 3022 478 2636 193 
Q 2250 -91 1575 -91 
Q 1294 -91 989 -36 
Q 684 19 347 128 
L 347 722 
Q 666 556 975 473 
Q 1284 391 1588 391 
Q 1994 391 2212 530 
Q 2431 669 2431 922 
Q 2431 1156 2273 1281 
Q 2116 1406 1581 1522 
L 1381 1569 
Q 847 1681 609 1914 
Q 372 2147 372 2553 
Q 372 3047 722 3315 
Q 1072 3584 1716 3584 
Q 2034 3584 2315 3537 
Q 2597 3491 2834 3397 
z
" id="DejaVuSans-73" transform="scale(0.015625)"/>
       <path d="M 544 1381 
L 544 3500 
L 1119 3500 
L 1119 1403 
Q 1119 906 1312 657 
Q 1506 409 1894 409 
Q 2359 409 2629 706 
Q 2900 1003 2900 1516 
L 2900 3500 
L 3475 3500 
L 3475 0 
L 2900 0 
L 2900 538 
Q 2691 219 2414 64 
Q 2138 -91 1772 -91 
Q 1169 -91 856 284 
Q 544 659 544 1381 
z
M 1991 3584 
L 1991 3584 
z
" id="DejaVuSans-75" transform="scale(0.015625)"/>
       <path id="DejaVuSans-20" transform="scale(0.015625)"/>
       <path d="M 1259 4147 
L 1259 519 
L 2022 519 
Q 2988 519 3436 956 
Q 3884 1394 3884 2338 
Q 3884 3275 3436 3711 
Q 2988 4147 2022 4147 
L 1259 4147 
z
M 628 4666 
L 1925 4666 
Q 3281 4666 3915 4102 
Q 4550 3538 4550 2338 
Q 4550 1131 3912 565 
Q 3275 0 1925 0 
L 628 0 
L 628 4666 
z
" id="DejaVuSans-44" transform="scale(0.015625)"/>
       <path d="M 1959 3097 
Q 1497 3097 1228 2736 
Q 959 2375 959 1747 
Q 959 1119 1226 758 
Q 1494 397 1959 397 
Q 2419 397 2687 759 
Q 2956 1122 2956 1747 
Q 2956 2369 2687 2733 
Q 2419 3097 1959 3097 
z
M 1959 3584 
Q 2709 3584 3137 3096 
Q 3566 2609 3566 1747 
Q 3566 888 3137 398 
Q 2709 -91 1959 -91 
Q 1206 -91 779 398 
Q 353 888 353 1747 
Q 353 2609 779 3096 
Q 1206 3584 1959 3584 
z
" id="DejaVuSans-6f" transform="scale(0.015625)"/>
       <path d="M 1159 525 
L 1159 -1331 
L 581 -1331 
L 581 3500 
L 1159 3500 
L 1159 2969 
Q 1341 3281 1617 3432 
Q 1894 3584 2278 3584 
Q 2916 3584 3314 3078 
Q 3713 2572 3713 1747 
Q 3713 922 3314 415 
Q 2916 -91 2278 -91 
Q 1894 -91 1617 61 
Q 1341 213 1159 525 
z
M 3116 1747 
Q 3116 2381 2855 2742 
Q 2594 3103 2138 3103 
Q 1681 3103 1420 2742 
Q 1159 2381 1159 1747 
Q 1159 1113 1420 752 
Q 1681 391 2138 391 
Q 2594 391 2855 752 
Q 3116 1113 3116 1747 
z
" id="DejaVuSans-70" transform="scale(0.015625)"/>
       <path d="M 550 4863 
L 1875 4863 
L 1875 4416 
L 1125 4416 
L 1125 -397 
L 1875 -397 
L 1875 -844 
L 550 -844 
L 550 4863 
z
" id="DejaVuSans-5b" transform="scale(0.015625)"/>
       <path d="M 2194 1759 
Q 1497 1759 1228 1600 
Q 959 1441 959 1056 
Q 959 750 1161 570 
Q 1363 391 1709 391 
Q 2188 391 2477 730 
Q 2766 1069 2766 1631 
L 2766 1759 
L 2194 1759 
z
M 3341 1997 
L 3341 0 
L 2766 0 
L 2766 531 
Q 2569 213 2275 61 
Q 1981 -91 1556 -91 
Q 1019 -91 701 211 
Q 384 513 384 1019 
Q 384 1609 779 1909 
Q 1175 2209 1959 2209 
L 2766 2209 
L 2766 2266 
Q 2766 2663 2505 2880 
Q 2244 3097 1772 3097 
Q 1472 3097 1187 3025 
Q 903 2953 641 2809 
L 641 3341 
Q 956 3463 1253 3523 
Q 1550 3584 1831 3584 
Q 2591 3584 2966 3190 
Q 3341 2797 3341 1997 
z
" id="DejaVuSans-61" transform="scale(0.015625)"/>
       <path d="M 1947 4863 
L 1947 -844 
L 622 -844 
L 622 -397 
L 1369 -397 
L 1369 4416 
L 622 4416 
L 622 4863 
L 1947 4863 
z
" id="DejaVuSans-5d" transform="scale(0.015625)"/>
      </defs>
      <use xlink:href="#DejaVuSans-50"/>
      <use x="58.552734" xlink:href="#DejaVuSans-72"/>
      <use x="97.416016" xlink:href="#DejaVuSans-65"/>
      <use x="158.939453" xlink:href="#DejaVuSans-73"/>
      <use x="211.039062" xlink:href="#DejaVuSans-73"/>
      <use x="263.138672" xlink:href="#DejaVuSans-75"/>
      <use x="326.517578" xlink:href="#DejaVuSans-72"/>
      <use x="365.380859" xlink:href="#DejaVuSans-65"/>
      <use x="426.904297" xlink:href="#DejaVuSans-20"/>
      <use x="458.691406" xlink:href="#DejaVuSans-44"/>
      <use x="535.693359" xlink:href="#DejaVuSans-72"/>
      <use x="574.556641" xlink:href="#DejaVuSans-6f"/>
      <use x="635.738281" xlink:href="#DejaVuSans-70"/>
      <use x="699.214844" xlink:href="#DejaVuSans-20"/>
      <use x="731.001953" xlink:href="#DejaVuSans-5b"/>
      <use x="770.015625" xlink:href="#DejaVuSans-50"/>
      <use x="825.818359" xlink:href="#DejaVuSans-61"/>
      <use x="887.097656" xlink:href="#DejaVuSans-5d"/>
     </g>
    </g>
   </g>
   <g id="matplotlib.axis_2">
    <g id="ytick_1">
     <g id="line2d_7">
      <defs>
       <path d="M 0 0 
L -3.5 0 
" id="m297515eda3" style="stroke:#000000;stroke-width:0.8;"/>
      </defs>
      <g>
       <use style="stroke:#000000;stroke-width:0.8;" x="51.378125" xlink:href="#m297515eda3" y="10.999219"/>
      </g>
     </g>
     <g id="text_8">
      <!-- $\mathdefault{10^{-2}}$ -->
      <g transform="translate(20.878125 14.798437)scale(0.1 -0.1)">
       <defs>
        <path d="M 678 2272 
L 4684 2272 
L 4684 1741 
L 678 1741 
L 678 2272 
z
" id="DejaVuSans-2212" transform="scale(0.015625)"/>
       </defs>
       <use transform="translate(0 0.765625)" xlink:href="#DejaVuSans-31"/>
       <use transform="translate(63.623047 0.765625)" xlink:href="#DejaVuSans-30"/>
       <use transform="translate(128.203125 39.046875)scale(0.7)" xlink:href="#DejaVuSans-2212"/>
       <use transform="translate(186.855469 39.046875)scale(0.7)" xlink:href="#DejaVuSans-32"/>
      </g>
     </g>
    </g>
    <g id="ytick_2">
     <g id="line2d_8">
      <g>
       <use style="stroke:#000000;stroke-width:0.8;" x="51.378125" xlink:href="#m297515eda3" y="144.055219"/>
      </g>
     </g>
     <g id="text_9">
      <!-- $\mathdefault{10^{-1}}$ -->
      <g transform="translate(20.878125 147.854437)scale(0.1 -0.1)">
       <use transform="translate(0 0.684375)" xlink:href="#DejaVuSans-31"/>
       <use transform="translate(63.623047 0.684375)" xlink:href="#DejaVuSans-30"/>
       <use transform="translate(128.203125 38.965625)scale(0.7)" xlink:href="#DejaVuSans-2212"/>
       <use transform="translate(186.855469 38.965625)scale(0.7)" xlink:href="#DejaVuSans-31"/>
      </g>
     </g>
    </g>
    <g id="ytick_3">
     <g id="line2d_9">
      <g>
       <use style="stroke:#000000;stroke-width:0.8;" x="51.378125" xlink:href="#m297515eda3" y="277.111219"/>
      </g>
     </g>
     <g id="text_10">
      <!-- $\mathdefault{10^{0}}$ -->
      <g transform="translate(26.778125 280.910437)scale(0.1 -0.1)">
       <use transform="translate(0 0.765625)" xlink:href="#DejaVuSans-31"/>
       <use transform="translate(63.623047 0.765625)" xlink:href="#DejaVuSans-30"/>
       <use transform="translate(128.203125 39.046875)scale(0.7)" xlink:href="#DejaVuSans-30"/>
      </g>
     </g>
    </g>
    <g id="ytick_4">
     <g id="line2d_10">
      <defs>
       <path d="M 0 0 
L -2 0 
" id="m999b5616a7" style="stroke:#000000;stroke-width:0.6;"/>
      </defs>
      <g>
       <use style="stroke:#000000;stroke-width:0.6;" x="51.378125" xlink:href="#m999b5616a7" y="51.053066"/>
      </g>
     </g>
    </g>
    <g id="ytick_5">
     <g id="line2d_11">
      <g>
       <use style="stroke:#000000;stroke-width:0.6;" x="51.378125" xlink:href="#m999b5616a7" y="74.483064"/>
      </g>
     </g>
    </g>
    <g id="ytick_6">
     <g id="line2d_12">
      <g>
       <use style="stroke:#000000;stroke-width:0.6;" x="51.378125" xlink:href="#m999b5616a7" y="91.106913"/>
      </g>
     </g>
    </g>
    <g id="ytick_7">
     <g id="line2d_13">
      <g>
       <use style="stroke:#000000;stroke-width:0.6;" x="51.378125" xlink:href="#m999b5616a7" y="104.001372"/>
      </g>
     </g>
    </g>
    <g id="ytick_8">
     <g id="line2d_14">
      <g>
       <use style="stroke:#000000;stroke-width:0.6;" x="51.378125" xlink:href="#m999b5616a7" y="114.536912"/>
      </g>
     </g>
    </g>
    <g id="ytick_9">
     <g id="line2d_15">
      <g>
       <use style="stroke:#000000;stroke-width:0.6;" x="51.378125" xlink:href="#m999b5616a7" y="123.444584"/>
      </g>
     </g>
    </g>
    <g id="ytick_10">
     <g id="line2d_16">
      <g>
       <use style="stroke:#000000;stroke-width:0.6;" x="51.378125" xlink:href="#m999b5616a7" y="131.16076"/>
      </g>
     </g>
    </g>
    <g id="ytick_11">
     <g id="line2d_17">
      <g>
       <use style="stroke:#000000;stroke-width:0.6;" x="51.378125" xlink:href="#m999b5616a7" y="137.96691"/>
      </g>
     </g>
    </g>
    <g id="ytick_12">
     <g id="line2d_18">
      <g>
       <use style="stroke:#000000;stroke-width:0.6;" x="51.378125" xlink:href="#m999b5616a7" y="184.109066"/>
      </g>
     </g>
    </g>
    <g id="ytick_13">
     <g id="line2d_19">
      <g>
       <use style="stroke:#000000;stroke-width:0.6;" x="51.378125" xlink:href="#m999b5616a7" y="207.539064"/>
      </g>
     </g>
    </g>
    <g id="ytick_14">
     <g id="line2d_20">
      <g>
       <use style="stroke:#000000;stroke-width:0.6;" x="51.378125" xlink:href="#m999b5616a7" y="224.162913"/>
      </g>
     </g>
    </g>
    <g id="ytick_15">
     <g id="line2d_21">
      <g>
       <use style="stroke:#000000;stroke-width:0.6;" x="51.378125" xlink:href="#m999b5616a7" y="237.057372"/>
      </g>
     </g>
    </g>
    <g id="ytick_16">
     <g id="line2d_22">
      <g>
       <use style="stroke:#000000;stroke-width:0.6;" x="51.378125" xlink:href="#m999b5616a7" y="247.592912"/>
      </g>
     </g>
    </g>
    <g id="ytick_17">
     <g id="line2d_23">
      <g>
       <use style="stroke:#000000;stroke-width:0.6;" x="51.378125" xlink:href="#m999b5616a7" y="256.500584"/>
      </g>
     </g>
    </g>
    <g id="ytick_18">
     <g id="line2d_24">
      <g>
       <use style="stroke:#000000;stroke-width:0.6;" x="51.378125" xlink:href="#m999b5616a7" y="264.21676"/>
      </g>
     </g>
    </g>
    <g id="ytick_19">
     <g id="line2d_25">
      <g>
       <use style="stroke:#000000;stroke-width:0.6;" x="51.378125" xlink:href="#m999b5616a7" y="271.02291"/>
      </g>
     </g>
    </g>
    <g id="text_11">
     <!-- Penitration -->
     <g transform="translate(14.798438 171.180219)rotate(-90)scale(0.1 -0.1)">
      <defs>
       <path d="M 3513 2113 
L 3513 0 
L 2938 0 
L 2938 2094 
Q 2938 2591 2744 2837 
Q 2550 3084 2163 3084 
Q 1697 3084 1428 2787 
Q 1159 2491 1159 1978 
L 1159 0 
L 581 0 
L 581 3500 
L 1159 3500 
L 1159 2956 
Q 1366 3272 1645 3428 
Q 1925 3584 2291 3584 
Q 2894 3584 3203 3211 
Q 3513 2838 3513 2113 
z
" id="DejaVuSans-6e" transform="scale(0.015625)"/>
       <path d="M 603 3500 
L 1178 3500 
L 1178 0 
L 603 0 
L 603 3500 
z
M 603 4863 
L 1178 4863 
L 1178 4134 
L 603 4134 
L 603 4863 
z
" id="DejaVuSans-69" transform="scale(0.015625)"/>
       <path d="M 1172 4494 
L 1172 3500 
L 2356 3500 
L 2356 3053 
L 1172 3053 
L 1172 1153 
Q 1172 725 1289 603 
Q 1406 481 1766 481 
L 2356 481 
L 2356 0 
L 1766 0 
Q 1100 0 847 248 
Q 594 497 594 1153 
L 594 3053 
L 172 3053 
L 172 3500 
L 594 3500 
L 594 4494 
L 1172 4494 
z
" id="DejaVuSans-74" transform="scale(0.015625)"/>
      </defs>
      <use xlink:href="#DejaVuSans-50"/>
      <use x="56.677734" xlink:href="#DejaVuSans-65"/>
      <use x="118.201172" xlink:href="#DejaVuSans-6e"/>
      <use x="181.580078" xlink:href="#DejaVuSans-69"/>
      <use x="209.363281" xlink:href="#DejaVuSans-74"/>
      <use x="248.572266" xlink:href="#DejaVuSans-72"/>
      <use x="289.685547" xlink:href="#DejaVuSans-61"/>
      <use x="350.964844" xlink:href="#DejaVuSans-74"/>
      <use x="390.173828" xlink:href="#DejaVuSans-69"/>
      <use x="417.957031" xlink:href="#DejaVuSans-6f"/>
      <use x="479.138672" xlink:href="#DejaVuSans-6e"/>
     </g>
    </g>
   </g>
   <g id="line2d_26">
    <path clip-path="url(#p20711bc279)" d="M 51.378125 277.111219 
L 408.498125 273.933017 
L 408.498125 273.933017 
" style="fill:none;stroke:#858585;stroke-dasharray:1.5,2.475;stroke-dashoffset:0;stroke-opacity:0.5;stroke-width:1.5;"/>
   </g>
   <g id="line2d_27">
    <path clip-path="url(#p20711bc279)" d="M 51.378125 277.111219 
L 408.498125 264.398412 
L 408.498125 264.398412 
" style="fill:none;stroke:#858585;stroke-dasharray:1.5,2.475;stroke-dashoffset:0;stroke-opacity:0.5;stroke-width:1.5;"/>
   </g>
   <g id="line2d_28">
    <path clip-path="url(#p20711bc279)" d="M 51.378125 277.111219 
L 408.498125 245.329201 
L 408.498125 245.329201 
" style="fill:none;stroke:#858585;stroke-dasharray:1.5,2.475;stroke-dashoffset:0;stroke-opacity:0.5;stroke-width:1.5;"/>
   </g>
   <g id="line2d_29">
    <path clip-path="url(#p20711bc279)" d="M 51.378125 277.111219 
L 408.498125 213.547184 
L 408.498125 213.547184 
" style="fill:none;stroke:#858585;stroke-dasharray:1.5,2.475;stroke-dashoffset:0;stroke-opacity:0.5;stroke-width:1.5;"/>
   </g>
   <g id="line2d_30">
    <path clip-path="url(#p20711bc279)" d="M 51.378125 277.111219 
L 408.498125 149.983148 
L 408.498125 149.983148 
" style="fill:none;stroke:#858585;stroke-dasharray:1.5,2.475;stroke-dashoffset:0;stroke-opacity:0.5;stroke-width:1.5;"/>
   </g>
   <g id="line2d_31">
    <path clip-path="url(#p20711bc279)" d="M 51.378125 277.111219 
L 363.878985 -1 
L 363.878985 -1 
" style="fill:none;stroke:#858585;stroke-dasharray:1.5,2.475;stroke-dashoffset:0;stroke-opacity:0.5;stroke-width:1.5;"/>
   </g>
   <g id="line2d_32">
    <path clip-path="url(#p20711bc279)" d="M 51.378125 277.111219 
L 207.628555 -1 
L 207.628555 -1 
" style="fill:none;stroke:#858585;stroke-dasharray:1.5,2.475;stroke-dashoffset:0;stroke-opacity:0.5;stroke-width:1.5;"/>
   </g>
   <g id="line2d_33">
    <path clip-path="url(#p20711bc279)" d="M 51.378125 277.111219 
L 129.50334 -1 
L 129.50334 -1 
" style="fill:none;stroke:#858585;stroke-dasharray:1.5,2.475;stroke-dashoffset:0;stroke-opacity:0.5;stroke-width:1.5;"/>
   </g>
   <g id="line2d_34">
    <path clip-path="url(#p20711bc279)" d="M 51.378125 277.111219 
L 82.628211 -1 
L 82.628211 -1 
" style="fill:none;stroke:#858585;stroke-dasharray:1.5,2.475;stroke-dashoffset:0;stroke-opacity:0.5;stroke-width:1.5;"/>
   </g>
   <g id="line2d_35">
    <defs>
     <path d="M 0 2.5 
C 0.663008 2.5 1.29895 2.236584 1.767767 1.767767 
C 2.236584 1.29895 2.5 0.663008 2.5 0 
C 2.5 -0.663008 2.236584 -1.29895 1.767767 -1.767767 
C 1.29895 -2.236584 0.663008 -2.5 0 -2.5 
C -0.663008 -2.5 -1.29895 -2.236584 -1.767767 -1.767767 
C -2.236584 -1.29895 -2.5 -0.663008 -2.5 0 
C -2.5 0.663008 -2.236584 1.29895 -1.767767 1.767767 
C -1.29895 2.236584 -0.663008 2.5 0 2.5 
z
" id="mc34522dddc" style="stroke:#0d0887;stroke-width:2;"/>
    </defs>
    <g clip-path="url(#p20711bc279)">
     <use style="fill:#0d0887;stroke:#0d0887;stroke-width:2;" x="108.733761" xlink:href="#mc34522dddc" y="271.809976"/>
    </g>
   </g>
   <g id="line2d_36">
    <g clip-path="url(#p20711bc279)">
     <use style="fill:#0d0887;stroke:#0d0887;stroke-width:2;" x="150.938852" xlink:href="#mc34522dddc" y="267.593537"/>
    </g>
   </g>
   <g id="line2d_37">
    <g clip-path="url(#p20711bc279)">
     <use style="fill:#0d0887;stroke:#0d0887;stroke-width:2;" x="192.061761" xlink:href="#mc34522dddc" y="261.905465"/>
    </g>
   </g>
   <g id="line2d_38">
    <g clip-path="url(#p20711bc279)">
     <use style="fill:#0d0887;stroke:#0d0887;stroke-width:2;" x="73.021761" xlink:href="#mc34522dddc" y="275.349669"/>
    </g>
   </g>
   <g id="line2d_39">
    <g clip-path="url(#p20711bc279)">
     <use style="fill:#0d0887;stroke:#0d0887;stroke-width:2;" x="94.665398" xlink:href="#mc34522dddc" y="273.189079"/>
    </g>
   </g>
   <g id="line2d_40">
    <g clip-path="url(#p20711bc279)">
     <use style="fill:#0d0887;stroke:#0d0887;stroke-width:2;" x="118.473398" xlink:href="#mc34522dddc" y="272.52723"/>
    </g>
   </g>
   <g id="line2d_41">
    <defs>
     <path d="M 0 -2.5 
L -2.5 2.5 
L 2.5 2.5 
z
" id="m8e2d5b9e8f" style="stroke:#7e03a8;stroke-linejoin:miter;stroke-width:2;"/>
    </defs>
    <g clip-path="url(#p20711bc279)">
     <use style="fill:#7e03a8;stroke:#7e03a8;stroke-linejoin:miter;stroke-width:2;" x="129.295216" xlink:href="#m8e2d5b9e8f" y="273.491158"/>
    </g>
   </g>
   <g id="line2d_42">
    <g clip-path="url(#p20711bc279)">
     <use style="fill:#7e03a8;stroke:#7e03a8;stroke-linejoin:miter;stroke-width:2;" x="202.88358" xlink:href="#m8e2d5b9e8f" y="265.419287"/>
    </g>
   </g>
   <g id="line2d_43">
    <g clip-path="url(#p20711bc279)">
     <use style="fill:#7e03a8;stroke:#7e03a8;stroke-linejoin:miter;stroke-width:2;" x="294.869034" xlink:href="#m8e2d5b9e8f" y="254.855246"/>
    </g>
   </g>
   <g id="line2d_44">
    <g clip-path="url(#p20711bc279)">
     <use style="fill:#7e03a8;stroke:#7e03a8;stroke-linejoin:miter;stroke-width:2;" x="155.26758" xlink:href="#m8e2d5b9e8f" y="249.38453"/>
    </g>
   </g>
   <g id="line2d_45">
    <g clip-path="url(#p20711bc279)">
     <use style="fill:#7e03a8;stroke:#7e03a8;stroke-linejoin:miter;stroke-width:2;" x="244.006489" xlink:href="#m8e2d5b9e8f" y="227.982898"/>
    </g>
   </g>
   <g id="line2d_46">
    <g clip-path="url(#p20711bc279)">
     <use style="fill:#7e03a8;stroke:#7e03a8;stroke-linejoin:miter;stroke-width:2;" x="393.34758" xlink:href="#m8e2d5b9e8f" y="168.344341"/>
    </g>
   </g>
   <g id="line2d_47">
    <g clip-path="url(#p20711bc279)">
     <use style="fill:#7e03a8;stroke:#7e03a8;stroke-linejoin:miter;stroke-width:2;" x="94.665398" xlink:href="#m8e2d5b9e8f" y="269.915633"/>
    </g>
   </g>
   <g id="line2d_48">
    <g clip-path="url(#p20711bc279)">
     <use style="fill:#7e03a8;stroke:#7e03a8;stroke-linejoin:miter;stroke-width:2;" x="140.117034" xlink:href="#m8e2d5b9e8f" y="262.994267"/>
    </g>
   </g>
   <g id="line2d_49">
    <g clip-path="url(#p20711bc279)">
     <use style="fill:#7e03a8;stroke:#7e03a8;stroke-linejoin:miter;stroke-width:2;" x="196.390489" xlink:href="#m8e2d5b9e8f" y="245.363191"/>
    </g>
   </g>
   <g id="line2d_50">
    <g clip-path="url(#p20711bc279)">
     <use style="fill:#0d0887;stroke:#0d0887;stroke-width:2;" x="83.84358" xlink:href="#mc34522dddc" y="274.768678"/>
    </g>
   </g>
   <g id="line2d_51">
    <g clip-path="url(#p20711bc279)">
     <use style="fill:#0d0887;stroke:#0d0887;stroke-width:2;" x="126.04867" xlink:href="#mc34522dddc" y="272.365325"/>
    </g>
   </g>
   <g id="line2d_52">
    <g clip-path="url(#p20711bc279)">
     <use style="fill:#0d0887;stroke:#0d0887;stroke-width:2;" x="184.486489" xlink:href="#mc34522dddc" y="268.790148"/>
    </g>
   </g>
   <g id="line2d_53">
    <defs>
     <path d="M 0 3.535534 
L 3.535534 0 
L 0 -3.535534 
L -3.535534 0 
z
" id="m8aa0685f31" style="stroke:#cc4778;stroke-linejoin:miter;stroke-width:2;"/>
    </defs>
    <g clip-path="url(#p20711bc279)">
     <use style="fill:#cc4778;stroke:#cc4778;stroke-linejoin:miter;stroke-width:2;" x="102.24067" xlink:href="#m8aa0685f31" y="275.9181"/>
    </g>
   </g>
   <g id="line2d_54">
    <g clip-path="url(#p20711bc279)">
     <use style="fill:#cc4778;stroke:#cc4778;stroke-linejoin:miter;stroke-width:2;" x="127.130852" xlink:href="#m8aa0685f31" y="275.911383"/>
    </g>
   </g>
   <g id="line2d_55">
    <g clip-path="url(#p20711bc279)">
     <use style="fill:#cc4778;stroke:#cc4778;stroke-linejoin:miter;stroke-width:2;" x="132.541761" xlink:href="#m8aa0685f31" y="273.310634"/>
    </g>
   </g>
   <g id="line2d_56">
    <g clip-path="url(#p20711bc279)">
     <use style="fill:#cc4778;stroke:#cc4778;stroke-linejoin:miter;stroke-width:2;" x="218.034125" xlink:href="#m8aa0685f31" y="268.393838"/>
    </g>
   </g>
   <g id="line2d_57">
    <g clip-path="url(#p20711bc279)">
     <use style="fill:#cc4778;stroke:#cc4778;stroke-linejoin:miter;stroke-width:2;" x="306.773034" xlink:href="#m8aa0685f31" y="263.730339"/>
    </g>
   </g>
   <g id="line2d_58">
    <defs>
     <path d="M -2.5 2.5 
L 2.5 2.5 
L 2.5 -2.5 
L -2.5 -2.5 
z
" id="m669a26e83d" style="stroke:#f89540;stroke-linejoin:miter;stroke-width:2;"/>
    </defs>
    <g clip-path="url(#p20711bc279)">
     <use style="fill:#f89540;stroke:#f89540;stroke-linejoin:miter;stroke-width:2;" x="192.061761" xlink:href="#m669a26e83d" y="238.213197"/>
    </g>
   </g>
   <g id="line2d_59">
    <g clip-path="url(#p20711bc279)">
     <use style="fill:#f89540;stroke:#f89540;stroke-linejoin:miter;stroke-width:2;" x="202.88358" xlink:href="#m669a26e83d" y="183.5576"/>
    </g>
   </g>
   <g id="line2d_60">
    <g clip-path="url(#p20711bc279)">
     <use style="fill:#f89540;stroke:#f89540;stroke-linejoin:miter;stroke-width:2;" x="183.404307" xlink:href="#m669a26e83d" y="199.538324"/>
    </g>
   </g>
   <g id="line2d_61">
    <g clip-path="url(#p20711bc279)">
     <use style="fill:#f89540;stroke:#f89540;stroke-linejoin:miter;stroke-width:2;" x="86.007943" xlink:href="#m669a26e83d" y="245.978868"/>
    </g>
   </g>
   <g id="line2d_62">
    <g clip-path="url(#p20711bc279)">
     <use style="fill:#f89540;stroke:#f89540;stroke-linejoin:miter;stroke-width:2;" x="108.733761" xlink:href="#m669a26e83d" y="269.240648"/>
    </g>
   </g>
   <g id="line2d_63">
    <g clip-path="url(#p20711bc279)">
     <use style="fill:#f89540;stroke:#f89540;stroke-linejoin:miter;stroke-width:2;" x="194.226125" xlink:href="#m669a26e83d" y="97.231649"/>
    </g>
   </g>
   <g id="line2d_64">
    <g clip-path="url(#p20711bc279)">
     <use style="fill:#f89540;stroke:#f89540;stroke-linejoin:miter;stroke-width:2;" x="77.350489" xlink:href="#m669a26e83d" y="267.678107"/>
    </g>
   </g>
   <g id="line2d_65">
    <g clip-path="url(#p20711bc279)">
     <use style="fill:#f89540;stroke:#f89540;stroke-linejoin:miter;stroke-width:2;" x="61.117761" xlink:href="#m669a26e83d" y="274.241978"/>
    </g>
   </g>
   <g id="patch_3">
    <path d="M 51.378125 277.111219 
L 51.378125 10.999219 
" style="fill:none;stroke:#000000;stroke-linecap:square;stroke-linejoin:miter;stroke-width:0.8;"/>
   </g>
   <g id="patch_4">
    <path d="M 408.498125 277.111219 
L 408.498125 10.999219 
" style="fill:none;stroke:#000000;stroke-linecap:square;stroke-linejoin:miter;stroke-width:0.8;"/>
   </g>
   <g id="patch_5">
    <path d="M 51.378125 277.111219 
L 408.498125 277.111219 
" style="fill:none;stroke:#000000;stroke-linecap:square;stroke-linejoin:miter;stroke-width:0.8;"/>
   </g>
   <g id="patch_6">
    <path d="M 51.378125 10.999219 
L 408.498125 10.999219 
" style="fill:none;stroke:#000000;stroke-linecap:square;stroke-linejoin:miter;stroke-width:0.8;"/>
   </g>
   <g id="legend_1">
    <g id="patch_7">
     <path d="M 433.354125 77.711719 
L 486.679125 77.711719 
Q 488.679125 77.711719 488.679125 75.711719 
L 488.679125 17.999219 
Q 488.679125 15.999219 486.679125 15.999219 
L 433.354125 15.999219 
Q 431.354125 15.999219 431.354125 17.999219 
L 431.354125 75.711719 
Q 431.354125 77.711719 433.354125 77.711719 
z
" style="fill:#ffffff;opacity:0.8;stroke:#cccccc;stroke-linejoin:miter;"/>
    </g>
    <g id="PathCollection_5">
     <g>
      <use style="fill:#0d0887;stroke:#0d0887;" x="445.354125" xlink:href="#m9a4fb3ef04" y="24.972656"/>
     </g>
    </g>
    <g id="text_12">
     <!-- SB -->
     <g transform="translate(463.354125 27.597656)scale(0.1 -0.1)">
      <defs>
       <path d="M 3425 4513 
L 3425 3897 
Q 3066 4069 2747 4153 
Q 2428 4238 2131 4238 
Q 1616 4238 1336 4038 
Q 1056 3838 1056 3469 
Q 1056 3159 1242 3001 
Q 1428 2844 1947 2747 
L 2328 2669 
Q 3034 2534 3370 2195 
Q 3706 1856 3706 1288 
Q 3706 609 3251 259 
Q 2797 -91 1919 -91 
Q 1588 -91 1214 -16 
Q 841 59 441 206 
L 441 856 
Q 825 641 1194 531 
Q 1563 422 1919 422 
Q 2459 422 2753 634 
Q 3047 847 3047 1241 
Q 3047 1584 2836 1778 
Q 2625 1972 2144 2069 
L 1759 2144 
Q 1053 2284 737 2584 
Q 422 2884 422 3419 
Q 422 4038 858 4394 
Q 1294 4750 2059 4750 
Q 2388 4750 2728 4690 
Q 3069 4631 3425 4513 
z
" id="DejaVuSans-53" transform="scale(0.015625)"/>
       <path d="M 1259 2228 
L 1259 519 
L 2272 519 
Q 2781 519 3026 730 
Q 3272 941 3272 1375 
Q 3272 1813 3026 2020 
Q 2781 2228 2272 2228 
L 1259 2228 
z
M 1259 4147 
L 1259 2741 
L 2194 2741 
Q 2656 2741 2882 2914 
Q 3109 3088 3109 3444 
Q 3109 3797 2882 3972 
Q 2656 4147 2194 4147 
L 1259 4147 
z
M 628 4666 
L 2241 4666 
Q 2963 4666 3353 4366 
Q 3744 4066 3744 3513 
Q 3744 3084 3544 2831 
Q 3344 2578 2956 2516 
Q 3422 2416 3680 2098 
Q 3938 1781 3938 1306 
Q 3938 681 3513 340 
Q 3088 0 2303 0 
L 628 0 
L 628 4666 
z
" id="DejaVuSans-42" transform="scale(0.015625)"/>
      </defs>
      <use xlink:href="#DejaVuSans-53"/>
      <use x="63.476562" xlink:href="#DejaVuSans-42"/>
     </g>
    </g>
    <g id="PathCollection_6">
     <g>
      <use style="fill:#7e03a8;stroke:#7e03a8;" x="445.354125" xlink:href="#m3183e588b9" y="39.650781"/>
     </g>
    </g>
    <g id="text_13">
     <!-- SMS -->
     <g transform="translate(463.354125 42.275781)scale(0.1 -0.1)">
      <defs>
       <path d="M 628 4666 
L 1569 4666 
L 2759 1491 
L 3956 4666 
L 4897 4666 
L 4897 0 
L 4281 0 
L 4281 4097 
L 3078 897 
L 2444 897 
L 1241 4097 
L 1241 0 
L 628 0 
L 628 4666 
z
" id="DejaVuSans-4d" transform="scale(0.015625)"/>
      </defs>
      <use xlink:href="#DejaVuSans-53"/>
      <use x="63.476562" xlink:href="#DejaVuSans-4d"/>
      <use x="149.755859" xlink:href="#DejaVuSans-53"/>
     </g>
    </g>
    <g id="PathCollection_7">
     <g>
      <use style="fill:#cc4778;stroke:#cc4778;" x="445.354125" xlink:href="#m6cd18a6992" y="54.328906"/>
     </g>
    </g>
    <g id="text_14">
     <!-- W -->
     <g transform="translate(463.354125 56.953906)scale(0.1 -0.1)">
      <defs>
       <path d="M 213 4666 
L 850 4666 
L 1831 722 
L 2809 4666 
L 3519 4666 
L 4500 722 
L 5478 4666 
L 6119 4666 
L 4947 0 
L 4153 0 
L 3169 4050 
L 2175 0 
L 1381 0 
L 213 4666 
z
" id="DejaVuSans-57" transform="scale(0.015625)"/>
      </defs>
      <use xlink:href="#DejaVuSans-57"/>
     </g>
    </g>
    <g id="PathCollection_8">
     <g>
      <use style="fill:#f89540;stroke:#f89540;" x="445.354125" xlink:href="#m66c4291c6c" y="69.007031"/>
     </g>
    </g>
    <g id="text_15">
     <!-- ML -->
     <g transform="translate(463.354125 71.632031)scale(0.1 -0.1)">
      <defs>
       <path d="M 628 4666 
L 1259 4666 
L 1259 531 
L 3531 531 
L 3531 0 
L 628 0 
L 628 4666 
z
" id="DejaVuSans-4c" transform="scale(0.015625)"/>
      </defs>
      <use xlink:href="#DejaVuSans-4d"/>
      <use x="86.279297" xlink:href="#DejaVuSans-4c"/>
     </g>
    </g>
   </g>
  </g>
 </g>
 <defs>
  <clipPath id="p20711bc279">
   <rect height="266.112" width="357.12" x="51.378125" y="10.999219"/>
  </clipPath>
 </defs>
</svg>
