<?xml version="1.0" encoding="utf-8" standalone="no"?>
<!DOCTYPE svg PUBLIC "-//W3C//DTD SVG 1.1//EN"
  "http://www.w3.org/Graphics/SVG/1.1/DTD/svg11.dtd">
<svg height="325.986375pt" version="1.1" viewBox="0 0 436.970625 325.986375" width="436.970625pt" xmlns="http://www.w3.org/2000/svg" xmlns:xlink="http://www.w3.org/1999/xlink">
 <metadata>
  <rdf:RDF xmlns:cc="http://creativecommons.org/ns#" xmlns:dc="http://purl.org/dc/elements/1.1/" xmlns:rdf="http://www.w3.org/1999/02/22-rdf-syntax-ns#">
   <cc:Work>
    <dc:type rdf:resource="http://purl.org/dc/dcmitype/StillImage"/>
    <dc:date>2021-09-02T09:38:01.232660</dc:date>
    <dc:format>image/svg+xml</dc:format>
    <dc:creator>
     <cc:Agent>
      <dc:title>Matplotlib v3.4.2, https://matplotlib.org/</dc:title>
     </cc:Agent>
    </dc:creator>
   </cc:Work>
  </rdf:RDF>
 </metadata>
 <defs>
  <style type="text/css">*{stroke-linecap:butt;stroke-linejoin:round;}</style>
 </defs>
 <g id="figure_1">
  <g id="patch_1">
   <path d="M 0 325.986375 
L 436.970625 325.986375 
L 436.970625 0 
L 0 0 
z
" style="fill:#ffffff;"/>
  </g>
  <g id="axes_1">
   <g id="patch_2">
    <path d="M 43.78125 288.430125 
L 400.90125 288.430125 
L 400.90125 22.318125 
L 43.78125 22.318125 
z
" style="fill:#ffffff;"/>
   </g>
   <g id="matplotlib.axis_1">
    <g id="xtick_1">
     <g id="line2d_1">
      <defs>
       <path d="M 0 0 
L 0 3.5 
" id="m548ca3e80c" style="stroke:#000000;stroke-width:0.8;"/>
      </defs>
      <g>
       <use style="stroke:#000000;stroke-width:0.8;" x="60.013977" xlink:href="#m548ca3e80c" y="288.430125"/>
      </g>
     </g>
     <g id="text_1">
      <!-- 0 -->
      <g transform="translate(56.832727 303.028562)scale(0.1 -0.1)">
       <defs>
        <path d="M 2034 4250 
Q 1547 4250 1301 3770 
Q 1056 3291 1056 2328 
Q 1056 1369 1301 889 
Q 1547 409 2034 409 
Q 2525 409 2770 889 
Q 3016 1369 3016 2328 
Q 3016 3291 2770 3770 
Q 2525 4250 2034 4250 
z
M 2034 4750 
Q 2819 4750 3233 4129 
Q 3647 3509 3647 2328 
Q 3647 1150 3233 529 
Q 2819 -91 2034 -91 
Q 1250 -91 836 529 
Q 422 1150 422 2328 
Q 422 3509 836 4129 
Q 1250 4750 2034 4750 
z
" id="DejaVuSans-30" transform="scale(0.015625)"/>
       </defs>
       <use xlink:href="#DejaVuSans-30"/>
      </g>
     </g>
    </g>
    <g id="xtick_2">
     <g id="line2d_2">
      <g>
       <use style="stroke:#000000;stroke-width:0.8;" x="103.30125" xlink:href="#m548ca3e80c" y="288.430125"/>
      </g>
     </g>
     <g id="text_2">
      <!-- 2 -->
      <g transform="translate(100.12 303.028562)scale(0.1 -0.1)">
       <defs>
        <path d="M 1228 531 
L 3431 531 
L 3431 0 
L 469 0 
L 469 531 
Q 828 903 1448 1529 
Q 2069 2156 2228 2338 
Q 2531 2678 2651 2914 
Q 2772 3150 2772 3378 
Q 2772 3750 2511 3984 
Q 2250 4219 1831 4219 
Q 1534 4219 1204 4116 
Q 875 4013 500 3803 
L 500 4441 
Q 881 4594 1212 4672 
Q 1544 4750 1819 4750 
Q 2544 4750 2975 4387 
Q 3406 4025 3406 3419 
Q 3406 3131 3298 2873 
Q 3191 2616 2906 2266 
Q 2828 2175 2409 1742 
Q 1991 1309 1228 531 
z
" id="DejaVuSans-32" transform="scale(0.015625)"/>
       </defs>
       <use xlink:href="#DejaVuSans-32"/>
      </g>
     </g>
    </g>
    <g id="xtick_3">
     <g id="line2d_3">
      <g>
       <use style="stroke:#000000;stroke-width:0.8;" x="146.588523" xlink:href="#m548ca3e80c" y="288.430125"/>
      </g>
     </g>
     <g id="text_3">
      <!-- 4 -->
      <g transform="translate(143.407273 303.028562)scale(0.1 -0.1)">
       <defs>
        <path d="M 2419 4116 
L 825 1625 
L 2419 1625 
L 2419 4116 
z
M 2253 4666 
L 3047 4666 
L 3047 1625 
L 3713 1625 
L 3713 1100 
L 3047 1100 
L 3047 0 
L 2419 0 
L 2419 1100 
L 313 1100 
L 313 1709 
L 2253 4666 
z
" id="DejaVuSans-34" transform="scale(0.015625)"/>
       </defs>
       <use xlink:href="#DejaVuSans-34"/>
      </g>
     </g>
    </g>
    <g id="xtick_4">
     <g id="line2d_4">
      <g>
       <use style="stroke:#000000;stroke-width:0.8;" x="189.875795" xlink:href="#m548ca3e80c" y="288.430125"/>
      </g>
     </g>
     <g id="text_4">
      <!-- 6 -->
      <g transform="translate(186.694545 303.028562)scale(0.1 -0.1)">
       <defs>
        <path d="M 2113 2584 
Q 1688 2584 1439 2293 
Q 1191 2003 1191 1497 
Q 1191 994 1439 701 
Q 1688 409 2113 409 
Q 2538 409 2786 701 
Q 3034 994 3034 1497 
Q 3034 2003 2786 2293 
Q 2538 2584 2113 2584 
z
M 3366 4563 
L 3366 3988 
Q 3128 4100 2886 4159 
Q 2644 4219 2406 4219 
Q 1781 4219 1451 3797 
Q 1122 3375 1075 2522 
Q 1259 2794 1537 2939 
Q 1816 3084 2150 3084 
Q 2853 3084 3261 2657 
Q 3669 2231 3669 1497 
Q 3669 778 3244 343 
Q 2819 -91 2113 -91 
Q 1303 -91 875 529 
Q 447 1150 447 2328 
Q 447 3434 972 4092 
Q 1497 4750 2381 4750 
Q 2619 4750 2861 4703 
Q 3103 4656 3366 4563 
z
" id="DejaVuSans-36" transform="scale(0.015625)"/>
       </defs>
       <use xlink:href="#DejaVuSans-36"/>
      </g>
     </g>
    </g>
    <g id="xtick_5">
     <g id="line2d_5">
      <g>
       <use style="stroke:#000000;stroke-width:0.8;" x="233.163068" xlink:href="#m548ca3e80c" y="288.430125"/>
      </g>
     </g>
     <g id="text_5">
      <!-- 8 -->
      <g transform="translate(229.981818 303.028562)scale(0.1 -0.1)">
       <defs>
        <path d="M 2034 2216 
Q 1584 2216 1326 1975 
Q 1069 1734 1069 1313 
Q 1069 891 1326 650 
Q 1584 409 2034 409 
Q 2484 409 2743 651 
Q 3003 894 3003 1313 
Q 3003 1734 2745 1975 
Q 2488 2216 2034 2216 
z
M 1403 2484 
Q 997 2584 770 2862 
Q 544 3141 544 3541 
Q 544 4100 942 4425 
Q 1341 4750 2034 4750 
Q 2731 4750 3128 4425 
Q 3525 4100 3525 3541 
Q 3525 3141 3298 2862 
Q 3072 2584 2669 2484 
Q 3125 2378 3379 2068 
Q 3634 1759 3634 1313 
Q 3634 634 3220 271 
Q 2806 -91 2034 -91 
Q 1263 -91 848 271 
Q 434 634 434 1313 
Q 434 1759 690 2068 
Q 947 2378 1403 2484 
z
M 1172 3481 
Q 1172 3119 1398 2916 
Q 1625 2713 2034 2713 
Q 2441 2713 2670 2916 
Q 2900 3119 2900 3481 
Q 2900 3844 2670 4047 
Q 2441 4250 2034 4250 
Q 1625 4250 1398 4047 
Q 1172 3844 1172 3481 
z
" id="DejaVuSans-38" transform="scale(0.015625)"/>
       </defs>
       <use xlink:href="#DejaVuSans-38"/>
      </g>
     </g>
    </g>
    <g id="xtick_6">
     <g id="line2d_6">
      <g>
       <use style="stroke:#000000;stroke-width:0.8;" x="276.450341" xlink:href="#m548ca3e80c" y="288.430125"/>
      </g>
     </g>
     <g id="text_6">
      <!-- 10 -->
      <g transform="translate(270.087841 303.028562)scale(0.1 -0.1)">
       <defs>
        <path d="M 794 531 
L 1825 531 
L 1825 4091 
L 703 3866 
L 703 4441 
L 1819 4666 
L 2450 4666 
L 2450 531 
L 3481 531 
L 3481 0 
L 794 0 
L 794 531 
z
" id="DejaVuSans-31" transform="scale(0.015625)"/>
       </defs>
       <use xlink:href="#DejaVuSans-31"/>
       <use x="63.623047" xlink:href="#DejaVuSans-30"/>
      </g>
     </g>
    </g>
    <g id="xtick_7">
     <g id="line2d_7">
      <g>
       <use style="stroke:#000000;stroke-width:0.8;" x="319.737614" xlink:href="#m548ca3e80c" y="288.430125"/>
      </g>
     </g>
     <g id="text_7">
      <!-- 12 -->
      <g transform="translate(313.375114 303.028562)scale(0.1 -0.1)">
       <use xlink:href="#DejaVuSans-31"/>
       <use x="63.623047" xlink:href="#DejaVuSans-32"/>
      </g>
     </g>
    </g>
    <g id="xtick_8">
     <g id="line2d_8">
      <g>
       <use style="stroke:#000000;stroke-width:0.8;" x="363.024886" xlink:href="#m548ca3e80c" y="288.430125"/>
      </g>
     </g>
     <g id="text_8">
      <!-- 14 -->
      <g transform="translate(356.662386 303.028562)scale(0.1 -0.1)">
       <use xlink:href="#DejaVuSans-31"/>
       <use x="63.623047" xlink:href="#DejaVuSans-34"/>
      </g>
     </g>
    </g>
    <g id="text_9">
     <!-- Number of Layers [#] -->
     <g transform="translate(168.031094 316.706687)scale(0.1 -0.1)">
      <defs>
       <path d="M 628 4666 
L 1478 4666 
L 3547 763 
L 3547 4666 
L 4159 4666 
L 4159 0 
L 3309 0 
L 1241 3903 
L 1241 0 
L 628 0 
L 628 4666 
z
" id="DejaVuSans-4e" transform="scale(0.015625)"/>
       <path d="M 544 1381 
L 544 3500 
L 1119 3500 
L 1119 1403 
Q 1119 906 1312 657 
Q 1506 409 1894 409 
Q 2359 409 2629 706 
Q 2900 1003 2900 1516 
L 2900 3500 
L 3475 3500 
L 3475 0 
L 2900 0 
L 2900 538 
Q 2691 219 2414 64 
Q 2138 -91 1772 -91 
Q 1169 -91 856 284 
Q 544 659 544 1381 
z
M 1991 3584 
L 1991 3584 
z
" id="DejaVuSans-75" transform="scale(0.015625)"/>
       <path d="M 3328 2828 
Q 3544 3216 3844 3400 
Q 4144 3584 4550 3584 
Q 5097 3584 5394 3201 
Q 5691 2819 5691 2113 
L 5691 0 
L 5113 0 
L 5113 2094 
Q 5113 2597 4934 2840 
Q 4756 3084 4391 3084 
Q 3944 3084 3684 2787 
Q 3425 2491 3425 1978 
L 3425 0 
L 2847 0 
L 2847 2094 
Q 2847 2600 2669 2842 
Q 2491 3084 2119 3084 
Q 1678 3084 1418 2786 
Q 1159 2488 1159 1978 
L 1159 0 
L 581 0 
L 581 3500 
L 1159 3500 
L 1159 2956 
Q 1356 3278 1631 3431 
Q 1906 3584 2284 3584 
Q 2666 3584 2933 3390 
Q 3200 3197 3328 2828 
z
" id="DejaVuSans-6d" transform="scale(0.015625)"/>
       <path d="M 3116 1747 
Q 3116 2381 2855 2742 
Q 2594 3103 2138 3103 
Q 1681 3103 1420 2742 
Q 1159 2381 1159 1747 
Q 1159 1113 1420 752 
Q 1681 391 2138 391 
Q 2594 391 2855 752 
Q 3116 1113 3116 1747 
z
M 1159 2969 
Q 1341 3281 1617 3432 
Q 1894 3584 2278 3584 
Q 2916 3584 3314 3078 
Q 3713 2572 3713 1747 
Q 3713 922 3314 415 
Q 2916 -91 2278 -91 
Q 1894 -91 1617 61 
Q 1341 213 1159 525 
L 1159 0 
L 581 0 
L 581 4863 
L 1159 4863 
L 1159 2969 
z
" id="DejaVuSans-62" transform="scale(0.015625)"/>
       <path d="M 3597 1894 
L 3597 1613 
L 953 1613 
Q 991 1019 1311 708 
Q 1631 397 2203 397 
Q 2534 397 2845 478 
Q 3156 559 3463 722 
L 3463 178 
Q 3153 47 2828 -22 
Q 2503 -91 2169 -91 
Q 1331 -91 842 396 
Q 353 884 353 1716 
Q 353 2575 817 3079 
Q 1281 3584 2069 3584 
Q 2775 3584 3186 3129 
Q 3597 2675 3597 1894 
z
M 3022 2063 
Q 3016 2534 2758 2815 
Q 2500 3097 2075 3097 
Q 1594 3097 1305 2825 
Q 1016 2553 972 2059 
L 3022 2063 
z
" id="DejaVuSans-65" transform="scale(0.015625)"/>
       <path d="M 2631 2963 
Q 2534 3019 2420 3045 
Q 2306 3072 2169 3072 
Q 1681 3072 1420 2755 
Q 1159 2438 1159 1844 
L 1159 0 
L 581 0 
L 581 3500 
L 1159 3500 
L 1159 2956 
Q 1341 3275 1631 3429 
Q 1922 3584 2338 3584 
Q 2397 3584 2469 3576 
Q 2541 3569 2628 3553 
L 2631 2963 
z
" id="DejaVuSans-72" transform="scale(0.015625)"/>
       <path id="DejaVuSans-20" transform="scale(0.015625)"/>
       <path d="M 1959 3097 
Q 1497 3097 1228 2736 
Q 959 2375 959 1747 
Q 959 1119 1226 758 
Q 1494 397 1959 397 
Q 2419 397 2687 759 
Q 2956 1122 2956 1747 
Q 2956 2369 2687 2733 
Q 2419 3097 1959 3097 
z
M 1959 3584 
Q 2709 3584 3137 3096 
Q 3566 2609 3566 1747 
Q 3566 888 3137 398 
Q 2709 -91 1959 -91 
Q 1206 -91 779 398 
Q 353 888 353 1747 
Q 353 2609 779 3096 
Q 1206 3584 1959 3584 
z
" id="DejaVuSans-6f" transform="scale(0.015625)"/>
       <path d="M 2375 4863 
L 2375 4384 
L 1825 4384 
Q 1516 4384 1395 4259 
Q 1275 4134 1275 3809 
L 1275 3500 
L 2222 3500 
L 2222 3053 
L 1275 3053 
L 1275 0 
L 697 0 
L 697 3053 
L 147 3053 
L 147 3500 
L 697 3500 
L 697 3744 
Q 697 4328 969 4595 
Q 1241 4863 1831 4863 
L 2375 4863 
z
" id="DejaVuSans-66" transform="scale(0.015625)"/>
       <path d="M 628 4666 
L 1259 4666 
L 1259 531 
L 3531 531 
L 3531 0 
L 628 0 
L 628 4666 
z
" id="DejaVuSans-4c" transform="scale(0.015625)"/>
       <path d="M 2194 1759 
Q 1497 1759 1228 1600 
Q 959 1441 959 1056 
Q 959 750 1161 570 
Q 1363 391 1709 391 
Q 2188 391 2477 730 
Q 2766 1069 2766 1631 
L 2766 1759 
L 2194 1759 
z
M 3341 1997 
L 3341 0 
L 2766 0 
L 2766 531 
Q 2569 213 2275 61 
Q 1981 -91 1556 -91 
Q 1019 -91 701 211 
Q 384 513 384 1019 
Q 384 1609 779 1909 
Q 1175 2209 1959 2209 
L 2766 2209 
L 2766 2266 
Q 2766 2663 2505 2880 
Q 2244 3097 1772 3097 
Q 1472 3097 1187 3025 
Q 903 2953 641 2809 
L 641 3341 
Q 956 3463 1253 3523 
Q 1550 3584 1831 3584 
Q 2591 3584 2966 3190 
Q 3341 2797 3341 1997 
z
" id="DejaVuSans-61" transform="scale(0.015625)"/>
       <path d="M 2059 -325 
Q 1816 -950 1584 -1140 
Q 1353 -1331 966 -1331 
L 506 -1331 
L 506 -850 
L 844 -850 
Q 1081 -850 1212 -737 
Q 1344 -625 1503 -206 
L 1606 56 
L 191 3500 
L 800 3500 
L 1894 763 
L 2988 3500 
L 3597 3500 
L 2059 -325 
z
" id="DejaVuSans-79" transform="scale(0.015625)"/>
       <path d="M 2834 3397 
L 2834 2853 
Q 2591 2978 2328 3040 
Q 2066 3103 1784 3103 
Q 1356 3103 1142 2972 
Q 928 2841 928 2578 
Q 928 2378 1081 2264 
Q 1234 2150 1697 2047 
L 1894 2003 
Q 2506 1872 2764 1633 
Q 3022 1394 3022 966 
Q 3022 478 2636 193 
Q 2250 -91 1575 -91 
Q 1294 -91 989 -36 
Q 684 19 347 128 
L 347 722 
Q 666 556 975 473 
Q 1284 391 1588 391 
Q 1994 391 2212 530 
Q 2431 669 2431 922 
Q 2431 1156 2273 1281 
Q 2116 1406 1581 1522 
L 1381 1569 
Q 847 1681 609 1914 
Q 372 2147 372 2553 
Q 372 3047 722 3315 
Q 1072 3584 1716 3584 
Q 2034 3584 2315 3537 
Q 2597 3491 2834 3397 
z
" id="DejaVuSans-73" transform="scale(0.015625)"/>
       <path d="M 550 4863 
L 1875 4863 
L 1875 4416 
L 1125 4416 
L 1125 -397 
L 1875 -397 
L 1875 -844 
L 550 -844 
L 550 4863 
z
" id="DejaVuSans-5b" transform="scale(0.015625)"/>
       <path d="M 3272 2816 
L 2363 2816 
L 2100 1772 
L 3016 1772 
L 3272 2816 
z
M 2803 4594 
L 2478 3297 
L 3391 3297 
L 3719 4594 
L 4219 4594 
L 3897 3297 
L 4872 3297 
L 4872 2816 
L 3775 2816 
L 3519 1772 
L 4513 1772 
L 4513 1294 
L 3397 1294 
L 3072 0 
L 2572 0 
L 2894 1294 
L 1978 1294 
L 1656 0 
L 1153 0 
L 1478 1294 
L 494 1294 
L 494 1772 
L 1594 1772 
L 1856 2816 
L 850 2816 
L 850 3297 
L 1978 3297 
L 2297 4594 
L 2803 4594 
z
" id="DejaVuSans-23" transform="scale(0.015625)"/>
       <path d="M 1947 4863 
L 1947 -844 
L 622 -844 
L 622 -397 
L 1369 -397 
L 1369 4416 
L 622 4416 
L 622 4863 
L 1947 4863 
z
" id="DejaVuSans-5d" transform="scale(0.015625)"/>
      </defs>
      <use xlink:href="#DejaVuSans-4e"/>
      <use x="74.804688" xlink:href="#DejaVuSans-75"/>
      <use x="138.183594" xlink:href="#DejaVuSans-6d"/>
      <use x="235.595703" xlink:href="#DejaVuSans-62"/>
      <use x="299.072266" xlink:href="#DejaVuSans-65"/>
      <use x="360.595703" xlink:href="#DejaVuSans-72"/>
      <use x="401.708984" xlink:href="#DejaVuSans-20"/>
      <use x="433.496094" xlink:href="#DejaVuSans-6f"/>
      <use x="494.677734" xlink:href="#DejaVuSans-66"/>
      <use x="529.882812" xlink:href="#DejaVuSans-20"/>
      <use x="561.669922" xlink:href="#DejaVuSans-4c"/>
      <use x="617.382812" xlink:href="#DejaVuSans-61"/>
      <use x="678.662109" xlink:href="#DejaVuSans-79"/>
      <use x="737.841797" xlink:href="#DejaVuSans-65"/>
      <use x="799.365234" xlink:href="#DejaVuSans-72"/>
      <use x="840.478516" xlink:href="#DejaVuSans-73"/>
      <use x="892.578125" xlink:href="#DejaVuSans-20"/>
      <use x="924.365234" xlink:href="#DejaVuSans-5b"/>
      <use x="963.378906" xlink:href="#DejaVuSans-23"/>
      <use x="1047.167969" xlink:href="#DejaVuSans-5d"/>
     </g>
    </g>
   </g>
   <g id="matplotlib.axis_2">
    <g id="ytick_1">
     <g id="line2d_9">
      <defs>
       <path d="M 0 0 
L -3.5 0 
" id="m54a8145b05" style="stroke:#000000;stroke-width:0.8;"/>
      </defs>
      <g>
       <use style="stroke:#000000;stroke-width:0.8;" x="43.78125" xlink:href="#m54a8145b05" y="276.310575"/>
      </g>
     </g>
     <g id="text_10">
      <!-- 0.0 -->
      <g transform="translate(20.878125 280.109794)scale(0.1 -0.1)">
       <defs>
        <path d="M 684 794 
L 1344 794 
L 1344 0 
L 684 0 
L 684 794 
z
" id="DejaVuSans-2e" transform="scale(0.015625)"/>
       </defs>
       <use xlink:href="#DejaVuSans-30"/>
       <use x="63.623047" xlink:href="#DejaVuSans-2e"/>
       <use x="95.410156" xlink:href="#DejaVuSans-30"/>
      </g>
     </g>
    </g>
    <g id="ytick_2">
     <g id="line2d_10">
      <g>
       <use style="stroke:#000000;stroke-width:0.8;" x="43.78125" xlink:href="#m54a8145b05" y="229.210593"/>
      </g>
     </g>
     <g id="text_11">
      <!-- 0.2 -->
      <g transform="translate(20.878125 233.009812)scale(0.1 -0.1)">
       <use xlink:href="#DejaVuSans-30"/>
       <use x="63.623047" xlink:href="#DejaVuSans-2e"/>
       <use x="95.410156" xlink:href="#DejaVuSans-32"/>
      </g>
     </g>
    </g>
    <g id="ytick_3">
     <g id="line2d_11">
      <g>
       <use style="stroke:#000000;stroke-width:0.8;" x="43.78125" xlink:href="#m54a8145b05" y="182.110612"/>
      </g>
     </g>
     <g id="text_12">
      <!-- 0.4 -->
      <g transform="translate(20.878125 185.90983)scale(0.1 -0.1)">
       <use xlink:href="#DejaVuSans-30"/>
       <use x="63.623047" xlink:href="#DejaVuSans-2e"/>
       <use x="95.410156" xlink:href="#DejaVuSans-34"/>
      </g>
     </g>
    </g>
    <g id="ytick_4">
     <g id="line2d_12">
      <g>
       <use style="stroke:#000000;stroke-width:0.8;" x="43.78125" xlink:href="#m54a8145b05" y="135.01063"/>
      </g>
     </g>
     <g id="text_13">
      <!-- 0.6 -->
      <g transform="translate(20.878125 138.809849)scale(0.1 -0.1)">
       <use xlink:href="#DejaVuSans-30"/>
       <use x="63.623047" xlink:href="#DejaVuSans-2e"/>
       <use x="95.410156" xlink:href="#DejaVuSans-36"/>
      </g>
     </g>
    </g>
    <g id="ytick_5">
     <g id="line2d_13">
      <g>
       <use style="stroke:#000000;stroke-width:0.8;" x="43.78125" xlink:href="#m54a8145b05" y="87.910648"/>
      </g>
     </g>
     <g id="text_14">
      <!-- 0.8 -->
      <g transform="translate(20.878125 91.709867)scale(0.1 -0.1)">
       <use xlink:href="#DejaVuSans-30"/>
       <use x="63.623047" xlink:href="#DejaVuSans-2e"/>
       <use x="95.410156" xlink:href="#DejaVuSans-38"/>
      </g>
     </g>
    </g>
    <g id="ytick_6">
     <g id="line2d_14">
      <g>
       <use style="stroke:#000000;stroke-width:0.8;" x="43.78125" xlink:href="#m54a8145b05" y="40.810666"/>
      </g>
     </g>
     <g id="text_15">
      <!-- 1.0 -->
      <g transform="translate(20.878125 44.609885)scale(0.1 -0.1)">
       <use xlink:href="#DejaVuSans-31"/>
       <use x="63.623047" xlink:href="#DejaVuSans-2e"/>
       <use x="95.410156" xlink:href="#DejaVuSans-30"/>
      </g>
     </g>
    </g>
    <g id="text_16">
     <!-- Filtration Efficiency -->
     <g transform="translate(14.798438 203.072562)rotate(-90)scale(0.1 -0.1)">
      <defs>
       <path d="M 628 4666 
L 3309 4666 
L 3309 4134 
L 1259 4134 
L 1259 2759 
L 3109 2759 
L 3109 2228 
L 1259 2228 
L 1259 0 
L 628 0 
L 628 4666 
z
" id="DejaVuSans-46" transform="scale(0.015625)"/>
       <path d="M 603 3500 
L 1178 3500 
L 1178 0 
L 603 0 
L 603 3500 
z
M 603 4863 
L 1178 4863 
L 1178 4134 
L 603 4134 
L 603 4863 
z
" id="DejaVuSans-69" transform="scale(0.015625)"/>
       <path d="M 603 4863 
L 1178 4863 
L 1178 0 
L 603 0 
L 603 4863 
z
" id="DejaVuSans-6c" transform="scale(0.015625)"/>
       <path d="M 1172 4494 
L 1172 3500 
L 2356 3500 
L 2356 3053 
L 1172 3053 
L 1172 1153 
Q 1172 725 1289 603 
Q 1406 481 1766 481 
L 2356 481 
L 2356 0 
L 1766 0 
Q 1100 0 847 248 
Q 594 497 594 1153 
L 594 3053 
L 172 3053 
L 172 3500 
L 594 3500 
L 594 4494 
L 1172 4494 
z
" id="DejaVuSans-74" transform="scale(0.015625)"/>
       <path d="M 3513 2113 
L 3513 0 
L 2938 0 
L 2938 2094 
Q 2938 2591 2744 2837 
Q 2550 3084 2163 3084 
Q 1697 3084 1428 2787 
Q 1159 2491 1159 1978 
L 1159 0 
L 581 0 
L 581 3500 
L 1159 3500 
L 1159 2956 
Q 1366 3272 1645 3428 
Q 1925 3584 2291 3584 
Q 2894 3584 3203 3211 
Q 3513 2838 3513 2113 
z
" id="DejaVuSans-6e" transform="scale(0.015625)"/>
       <path d="M 628 4666 
L 3578 4666 
L 3578 4134 
L 1259 4134 
L 1259 2753 
L 3481 2753 
L 3481 2222 
L 1259 2222 
L 1259 531 
L 3634 531 
L 3634 0 
L 628 0 
L 628 4666 
z
" id="DejaVuSans-45" transform="scale(0.015625)"/>
       <path d="M 3122 3366 
L 3122 2828 
Q 2878 2963 2633 3030 
Q 2388 3097 2138 3097 
Q 1578 3097 1268 2742 
Q 959 2388 959 1747 
Q 959 1106 1268 751 
Q 1578 397 2138 397 
Q 2388 397 2633 464 
Q 2878 531 3122 666 
L 3122 134 
Q 2881 22 2623 -34 
Q 2366 -91 2075 -91 
Q 1284 -91 818 406 
Q 353 903 353 1747 
Q 353 2603 823 3093 
Q 1294 3584 2113 3584 
Q 2378 3584 2631 3529 
Q 2884 3475 3122 3366 
z
" id="DejaVuSans-63" transform="scale(0.015625)"/>
      </defs>
      <use xlink:href="#DejaVuSans-46"/>
      <use x="50.269531" xlink:href="#DejaVuSans-69"/>
      <use x="78.052734" xlink:href="#DejaVuSans-6c"/>
      <use x="105.835938" xlink:href="#DejaVuSans-74"/>
      <use x="145.044922" xlink:href="#DejaVuSans-72"/>
      <use x="186.158203" xlink:href="#DejaVuSans-61"/>
      <use x="247.4375" xlink:href="#DejaVuSans-74"/>
      <use x="286.646484" xlink:href="#DejaVuSans-69"/>
      <use x="314.429688" xlink:href="#DejaVuSans-6f"/>
      <use x="375.611328" xlink:href="#DejaVuSans-6e"/>
      <use x="438.990234" xlink:href="#DejaVuSans-20"/>
      <use x="470.777344" xlink:href="#DejaVuSans-45"/>
      <use x="533.960938" xlink:href="#DejaVuSans-66"/>
      <use x="569.166016" xlink:href="#DejaVuSans-66"/>
      <use x="604.371094" xlink:href="#DejaVuSans-69"/>
      <use x="632.154297" xlink:href="#DejaVuSans-63"/>
      <use x="687.134766" xlink:href="#DejaVuSans-69"/>
      <use x="714.917969" xlink:href="#DejaVuSans-65"/>
      <use x="776.441406" xlink:href="#DejaVuSans-6e"/>
      <use x="839.820312" xlink:href="#DejaVuSans-63"/>
      <use x="894.800781" xlink:href="#DejaVuSans-79"/>
     </g>
    </g>
   </g>
   <g id="LineCollection_1">
    <path clip-path="url(#p1d6956c56e)" d="M 60.013977 276.334125 
L 60.013977 276.287025 
" style="fill:none;stroke:#0d0887;"/>
    <path clip-path="url(#p1d6956c56e)" d="M 124.944886 220.202776 
L 124.944886 123.408416 
" style="fill:none;stroke:#0d0887;"/>
    <path clip-path="url(#p1d6956c56e)" d="M 168.232159 106.405128 
L 168.232159 80.4369 
" style="fill:none;stroke:#0d0887;"/>
    <path clip-path="url(#p1d6956c56e)" d="M 211.519432 75.462984 
L 211.519432 63.278806 
" style="fill:none;stroke:#0d0887;"/>
   </g>
   <g id="LineCollection_2">
    <path clip-path="url(#p1d6956c56e)" d="M 60.013977 276.334125 
L 60.013977 276.287025 
" style="fill:none;stroke:#3e049c;"/>
    <path clip-path="url(#p1d6956c56e)" d="M 81.657614 232.6136 
L 81.657614 190.238577 
" style="fill:none;stroke:#3e049c;"/>
    <path clip-path="url(#p1d6956c56e)" d="M 103.30125 186.509673 
L 103.30125 98.289246 
" style="fill:none;stroke:#3e049c;"/>
    <path clip-path="url(#p1d6956c56e)" d="M 124.944886 175.625615 
L 124.944886 105.067086 
" style="fill:none;stroke:#3e049c;"/>
   </g>
   <g id="LineCollection_3">
    <path clip-path="url(#p1d6956c56e)" d="M 60.013977 276.334125 
L 60.013977 276.287025 
" style="fill:none;stroke:#6300a7;"/>
    <path clip-path="url(#p1d6956c56e)" d="M 81.657614 73.001665 
L 81.657614 49.44493 
" style="fill:none;stroke:#6300a7;"/>
    <path clip-path="url(#p1d6956c56e)" d="M 103.30125 52.655397 
L 103.30125 38.778432 
" style="fill:none;stroke:#6300a7;"/>
    <path clip-path="url(#p1d6956c56e)" d="M 124.944886 46.553566 
L 124.944886 39.825341 
" style="fill:none;stroke:#6300a7;"/>
   </g>
   <g id="LineCollection_4">
    <path clip-path="url(#p1d6956c56e)" d="M 60.013977 276.334125 
L 60.013977 276.287025 
" style="fill:none;stroke:#8606a6;"/>
    <path clip-path="url(#p1d6956c56e)" d="M 81.657614 40.810666 
L 81.657614 40.810666 
" style="fill:none;stroke:#8606a6;"/>
    <path clip-path="url(#p1d6956c56e)" d="M 103.30125 45.932712 
L 103.30125 39.931862 
" style="fill:none;stroke:#8606a6;"/>
    <path clip-path="url(#p1d6956c56e)" d="M 124.944886 40.810666 
L 124.944886 40.810666 
" style="fill:none;stroke:#8606a6;"/>
   </g>
   <g id="LineCollection_5">
    <path clip-path="url(#p1d6956c56e)" d="M 60.013977 276.334125 
L 60.013977 276.287025 
" style="fill:none;stroke:#a62098;"/>
    <path clip-path="url(#p1d6956c56e)" d="M 81.657614 104.681061 
L 81.657614 84.592108 
" style="fill:none;stroke:#a62098;"/>
    <path clip-path="url(#p1d6956c56e)" d="M 103.30125 56.231968 
L 103.30125 54.886323 
" style="fill:none;stroke:#a62098;"/>
    <path clip-path="url(#p1d6956c56e)" d="M 124.944886 78.092442 
L 124.944886 34.414125 
" style="fill:none;stroke:#a62098;"/>
   </g>
   <g id="LineCollection_6">
    <path clip-path="url(#p1d6956c56e)" d="M 60.013977 276.334125 
L 60.013977 276.287025 
" style="fill:none;stroke:#c03a83;"/>
    <path clip-path="url(#p1d6956c56e)" d="M 168.232159 166.19541 
L 168.232159 129.606461 
" style="fill:none;stroke:#c03a83;"/>
    <path clip-path="url(#p1d6956c56e)" d="M 276.450341 122.613906 
L 276.450341 95.540793 
" style="fill:none;stroke:#c03a83;"/>
    <path clip-path="url(#p1d6956c56e)" d="M 384.668523 97.235351 
L 384.668523 71.764522 
" style="fill:none;stroke:#c03a83;"/>
   </g>
   <g id="LineCollection_7">
    <path clip-path="url(#p1d6956c56e)" d="M 60.013977 276.334125 
L 60.013977 276.287025 
" style="fill:none;stroke:#d5546e;"/>
    <path clip-path="url(#p1d6956c56e)" d="M 81.657614 127.795327 
L 81.657614 103.503187 
" style="fill:none;stroke:#d5546e;"/>
    <path clip-path="url(#p1d6956c56e)" d="M 103.30125 97.032771 
L 103.30125 57.546601 
" style="fill:none;stroke:#d5546e;"/>
    <path clip-path="url(#p1d6956c56e)" d="M 124.944886 62.581141 
L 124.944886 40.925032 
" style="fill:none;stroke:#d5546e;"/>
   </g>
   <g id="LineCollection_8">
    <path clip-path="url(#p1d6956c56e)" d="M 60.013977 276.334125 
L 60.013977 276.287025 
" style="fill:none;stroke:#e76f5a;"/>
   </g>
   <g id="LineCollection_9">
    <path clip-path="url(#p1d6956c56e)" d="M 60.013977 276.334125 
L 60.013977 276.287025 
" style="fill:none;stroke:#f68d45;"/>
   </g>
   <g id="LineCollection_10">
    <path clip-path="url(#p1d6956c56e)" d="M 60.013977 276.334125 
L 60.013977 276.287025 
" style="fill:none;stroke:#fdae32;"/>
   </g>
   <g id="LineCollection_11">
    <path clip-path="url(#p1d6956c56e)" d="M 60.013977 276.334125 
L 60.013977 276.287025 
" style="fill:none;stroke:#fcd225;"/>
   </g>
   <g id="line2d_15">
    <defs>
     <path d="M 3 0 
L -3 -0 
" id="m735dfd43ba" style="stroke:#0d0887;stroke-width:2;"/>
    </defs>
    <g clip-path="url(#p1d6956c56e)">
     <use style="fill:#0d0887;stroke:#0d0887;stroke-width:2;" x="60.013977" xlink:href="#m735dfd43ba" y="276.334125"/>
     <use style="fill:#0d0887;stroke:#0d0887;stroke-width:2;" x="124.944886" xlink:href="#m735dfd43ba" y="220.202776"/>
     <use style="fill:#0d0887;stroke:#0d0887;stroke-width:2;" x="168.232159" xlink:href="#m735dfd43ba" y="106.405128"/>
     <use style="fill:#0d0887;stroke:#0d0887;stroke-width:2;" x="211.519432" xlink:href="#m735dfd43ba" y="75.462984"/>
    </g>
   </g>
   <g id="line2d_16">
    <g clip-path="url(#p1d6956c56e)">
     <use style="fill:#0d0887;stroke:#0d0887;stroke-width:2;" x="60.013977" xlink:href="#m735dfd43ba" y="276.287025"/>
     <use style="fill:#0d0887;stroke:#0d0887;stroke-width:2;" x="124.944886" xlink:href="#m735dfd43ba" y="123.408416"/>
     <use style="fill:#0d0887;stroke:#0d0887;stroke-width:2;" x="168.232159" xlink:href="#m735dfd43ba" y="80.4369"/>
     <use style="fill:#0d0887;stroke:#0d0887;stroke-width:2;" x="211.519432" xlink:href="#m735dfd43ba" y="63.278806"/>
    </g>
   </g>
   <g id="line2d_17">
    <defs>
     <path d="M 3 0 
L -3 -0 
" id="m83047f4123" style="stroke:#3e049c;stroke-width:2;"/>
    </defs>
    <g clip-path="url(#p1d6956c56e)">
     <use style="fill:#3e049c;stroke:#3e049c;stroke-width:2;" x="60.013977" xlink:href="#m83047f4123" y="276.334125"/>
     <use style="fill:#3e049c;stroke:#3e049c;stroke-width:2;" x="81.657614" xlink:href="#m83047f4123" y="232.6136"/>
     <use style="fill:#3e049c;stroke:#3e049c;stroke-width:2;" x="103.30125" xlink:href="#m83047f4123" y="186.509673"/>
     <use style="fill:#3e049c;stroke:#3e049c;stroke-width:2;" x="124.944886" xlink:href="#m83047f4123" y="175.625615"/>
    </g>
   </g>
   <g id="line2d_18">
    <g clip-path="url(#p1d6956c56e)">
     <use style="fill:#3e049c;stroke:#3e049c;stroke-width:2;" x="60.013977" xlink:href="#m83047f4123" y="276.287025"/>
     <use style="fill:#3e049c;stroke:#3e049c;stroke-width:2;" x="81.657614" xlink:href="#m83047f4123" y="190.238577"/>
     <use style="fill:#3e049c;stroke:#3e049c;stroke-width:2;" x="103.30125" xlink:href="#m83047f4123" y="98.289246"/>
     <use style="fill:#3e049c;stroke:#3e049c;stroke-width:2;" x="124.944886" xlink:href="#m83047f4123" y="105.067086"/>
    </g>
   </g>
   <g id="line2d_19">
    <defs>
     <path d="M 3 0 
L -3 -0 
" id="mda2594d833" style="stroke:#6300a7;stroke-width:2;"/>
    </defs>
    <g clip-path="url(#p1d6956c56e)">
     <use style="fill:#6300a7;stroke:#6300a7;stroke-width:2;" x="60.013977" xlink:href="#mda2594d833" y="276.334125"/>
     <use style="fill:#6300a7;stroke:#6300a7;stroke-width:2;" x="81.657614" xlink:href="#mda2594d833" y="73.001665"/>
     <use style="fill:#6300a7;stroke:#6300a7;stroke-width:2;" x="103.30125" xlink:href="#mda2594d833" y="52.655397"/>
     <use style="fill:#6300a7;stroke:#6300a7;stroke-width:2;" x="124.944886" xlink:href="#mda2594d833" y="46.553566"/>
    </g>
   </g>
   <g id="line2d_20">
    <g clip-path="url(#p1d6956c56e)">
     <use style="fill:#6300a7;stroke:#6300a7;stroke-width:2;" x="60.013977" xlink:href="#mda2594d833" y="276.287025"/>
     <use style="fill:#6300a7;stroke:#6300a7;stroke-width:2;" x="81.657614" xlink:href="#mda2594d833" y="49.44493"/>
     <use style="fill:#6300a7;stroke:#6300a7;stroke-width:2;" x="103.30125" xlink:href="#mda2594d833" y="38.778432"/>
     <use style="fill:#6300a7;stroke:#6300a7;stroke-width:2;" x="124.944886" xlink:href="#mda2594d833" y="39.825341"/>
    </g>
   </g>
   <g id="line2d_21">
    <defs>
     <path d="M 3 0 
L -3 -0 
" id="meedf3c469e" style="stroke:#8606a6;stroke-width:2;"/>
    </defs>
    <g clip-path="url(#p1d6956c56e)">
     <use style="fill:#8606a6;stroke:#8606a6;stroke-width:2;" x="60.013977" xlink:href="#meedf3c469e" y="276.334125"/>
     <use style="fill:#8606a6;stroke:#8606a6;stroke-width:2;" x="81.657614" xlink:href="#meedf3c469e" y="40.810666"/>
     <use style="fill:#8606a6;stroke:#8606a6;stroke-width:2;" x="103.30125" xlink:href="#meedf3c469e" y="45.932712"/>
     <use style="fill:#8606a6;stroke:#8606a6;stroke-width:2;" x="124.944886" xlink:href="#meedf3c469e" y="40.810666"/>
    </g>
   </g>
   <g id="line2d_22">
    <g clip-path="url(#p1d6956c56e)">
     <use style="fill:#8606a6;stroke:#8606a6;stroke-width:2;" x="60.013977" xlink:href="#meedf3c469e" y="276.287025"/>
     <use style="fill:#8606a6;stroke:#8606a6;stroke-width:2;" x="81.657614" xlink:href="#meedf3c469e" y="40.810666"/>
     <use style="fill:#8606a6;stroke:#8606a6;stroke-width:2;" x="103.30125" xlink:href="#meedf3c469e" y="39.931862"/>
     <use style="fill:#8606a6;stroke:#8606a6;stroke-width:2;" x="124.944886" xlink:href="#meedf3c469e" y="40.810666"/>
    </g>
   </g>
   <g id="line2d_23">
    <defs>
     <path d="M 3 0 
L -3 -0 
" id="m9ef84f4fe4" style="stroke:#a62098;stroke-width:2;"/>
    </defs>
    <g clip-path="url(#p1d6956c56e)">
     <use style="fill:#a62098;stroke:#a62098;stroke-width:2;" x="60.013977" xlink:href="#m9ef84f4fe4" y="276.334125"/>
     <use style="fill:#a62098;stroke:#a62098;stroke-width:2;" x="81.657614" xlink:href="#m9ef84f4fe4" y="104.681061"/>
     <use style="fill:#a62098;stroke:#a62098;stroke-width:2;" x="103.30125" xlink:href="#m9ef84f4fe4" y="56.231968"/>
     <use style="fill:#a62098;stroke:#a62098;stroke-width:2;" x="124.944886" xlink:href="#m9ef84f4fe4" y="78.092442"/>
    </g>
   </g>
   <g id="line2d_24">
    <g clip-path="url(#p1d6956c56e)">
     <use style="fill:#a62098;stroke:#a62098;stroke-width:2;" x="60.013977" xlink:href="#m9ef84f4fe4" y="276.287025"/>
     <use style="fill:#a62098;stroke:#a62098;stroke-width:2;" x="81.657614" xlink:href="#m9ef84f4fe4" y="84.592108"/>
     <use style="fill:#a62098;stroke:#a62098;stroke-width:2;" x="103.30125" xlink:href="#m9ef84f4fe4" y="54.886323"/>
     <use style="fill:#a62098;stroke:#a62098;stroke-width:2;" x="124.944886" xlink:href="#m9ef84f4fe4" y="34.414125"/>
    </g>
   </g>
   <g id="line2d_25">
    <defs>
     <path d="M 3 0 
L -3 -0 
" id="me54343e200" style="stroke:#c03a83;stroke-width:2;"/>
    </defs>
    <g clip-path="url(#p1d6956c56e)">
     <use style="fill:#c03a83;stroke:#c03a83;stroke-width:2;" x="60.013977" xlink:href="#me54343e200" y="276.334125"/>
     <use style="fill:#c03a83;stroke:#c03a83;stroke-width:2;" x="168.232159" xlink:href="#me54343e200" y="166.19541"/>
     <use style="fill:#c03a83;stroke:#c03a83;stroke-width:2;" x="276.450341" xlink:href="#me54343e200" y="122.613906"/>
     <use style="fill:#c03a83;stroke:#c03a83;stroke-width:2;" x="384.668523" xlink:href="#me54343e200" y="97.235351"/>
    </g>
   </g>
   <g id="line2d_26">
    <g clip-path="url(#p1d6956c56e)">
     <use style="fill:#c03a83;stroke:#c03a83;stroke-width:2;" x="60.013977" xlink:href="#me54343e200" y="276.287025"/>
     <use style="fill:#c03a83;stroke:#c03a83;stroke-width:2;" x="168.232159" xlink:href="#me54343e200" y="129.606461"/>
     <use style="fill:#c03a83;stroke:#c03a83;stroke-width:2;" x="276.450341" xlink:href="#me54343e200" y="95.540793"/>
     <use style="fill:#c03a83;stroke:#c03a83;stroke-width:2;" x="384.668523" xlink:href="#me54343e200" y="71.764522"/>
    </g>
   </g>
   <g id="line2d_27">
    <defs>
     <path d="M 3 0 
L -3 -0 
" id="ma0829c781b" style="stroke:#d5546e;stroke-width:2;"/>
    </defs>
    <g clip-path="url(#p1d6956c56e)">
     <use style="fill:#d5546e;stroke:#d5546e;stroke-width:2;" x="60.013977" xlink:href="#ma0829c781b" y="276.334125"/>
     <use style="fill:#d5546e;stroke:#d5546e;stroke-width:2;" x="81.657614" xlink:href="#ma0829c781b" y="127.795327"/>
     <use style="fill:#d5546e;stroke:#d5546e;stroke-width:2;" x="103.30125" xlink:href="#ma0829c781b" y="97.032771"/>
     <use style="fill:#d5546e;stroke:#d5546e;stroke-width:2;" x="124.944886" xlink:href="#ma0829c781b" y="62.581141"/>
    </g>
   </g>
   <g id="line2d_28">
    <g clip-path="url(#p1d6956c56e)">
     <use style="fill:#d5546e;stroke:#d5546e;stroke-width:2;" x="60.013977" xlink:href="#ma0829c781b" y="276.287025"/>
     <use style="fill:#d5546e;stroke:#d5546e;stroke-width:2;" x="81.657614" xlink:href="#ma0829c781b" y="103.503187"/>
     <use style="fill:#d5546e;stroke:#d5546e;stroke-width:2;" x="103.30125" xlink:href="#ma0829c781b" y="57.546601"/>
     <use style="fill:#d5546e;stroke:#d5546e;stroke-width:2;" x="124.944886" xlink:href="#ma0829c781b" y="40.925032"/>
    </g>
   </g>
   <g id="line2d_29">
    <defs>
     <path d="M 3 0 
L -3 -0 
" id="m68992c2b35" style="stroke:#e76f5a;stroke-width:2;"/>
    </defs>
    <g clip-path="url(#p1d6956c56e)">
     <use style="fill:#e76f5a;stroke:#e76f5a;stroke-width:2;" x="60.013977" xlink:href="#m68992c2b35" y="276.334125"/>
    </g>
   </g>
   <g id="line2d_30">
    <g clip-path="url(#p1d6956c56e)">
     <use style="fill:#e76f5a;stroke:#e76f5a;stroke-width:2;" x="60.013977" xlink:href="#m68992c2b35" y="276.287025"/>
    </g>
   </g>
   <g id="line2d_31">
    <defs>
     <path d="M 3 0 
L -3 -0 
" id="mf32e8902da" style="stroke:#f68d45;stroke-width:2;"/>
    </defs>
    <g clip-path="url(#p1d6956c56e)">
     <use style="fill:#f68d45;stroke:#f68d45;stroke-width:2;" x="60.013977" xlink:href="#mf32e8902da" y="276.334125"/>
    </g>
   </g>
   <g id="line2d_32">
    <g clip-path="url(#p1d6956c56e)">
     <use style="fill:#f68d45;stroke:#f68d45;stroke-width:2;" x="60.013977" xlink:href="#mf32e8902da" y="276.287025"/>
    </g>
   </g>
   <g id="line2d_33">
    <defs>
     <path d="M 3 0 
L -3 -0 
" id="m0e653259bf" style="stroke:#fdae32;stroke-width:2;"/>
    </defs>
    <g clip-path="url(#p1d6956c56e)">
     <use style="fill:#fdae32;stroke:#fdae32;stroke-width:2;" x="60.013977" xlink:href="#m0e653259bf" y="276.334125"/>
    </g>
   </g>
   <g id="line2d_34">
    <g clip-path="url(#p1d6956c56e)">
     <use style="fill:#fdae32;stroke:#fdae32;stroke-width:2;" x="60.013977" xlink:href="#m0e653259bf" y="276.287025"/>
    </g>
   </g>
   <g id="line2d_35">
    <defs>
     <path d="M 3 0 
L -3 -0 
" id="m2e5b18350b" style="stroke:#fcd225;stroke-width:2;"/>
    </defs>
    <g clip-path="url(#p1d6956c56e)">
     <use style="fill:#fcd225;stroke:#fcd225;stroke-width:2;" x="60.013977" xlink:href="#m2e5b18350b" y="276.334125"/>
    </g>
   </g>
   <g id="line2d_36">
    <g clip-path="url(#p1d6956c56e)">
     <use style="fill:#fcd225;stroke:#fcd225;stroke-width:2;" x="60.013977" xlink:href="#m2e5b18350b" y="276.287025"/>
    </g>
   </g>
   <g id="line2d_37">
    <path clip-path="url(#p1d6956c56e)" d="M 60.013977 276.310575 
L 65.167224 205.583485 
L 70.320471 156.097682 
L 75.473718 121.473825 
L 80.626964 97.248464 
L 85.780211 80.298643 
L 90.933458 68.439319 
L 96.086705 60.141676 
L 101.239951 54.336043 
L 106.393198 50.274001 
L 111.546445 47.431902 
L 116.699692 45.443363 
L 121.852938 44.052037 
L 127.006185 43.078564 
L 132.159432 42.397452 
L 137.312679 41.920897 
L 142.465925 41.587464 
L 147.619172 41.35417 
L 152.772419 41.190941 
L 157.925666 41.076734 
L 163.078912 40.996827 
L 168.232159 40.940918 
L 173.385406 40.9018 
L 178.538653 40.87443 
L 183.691899 40.85528 
L 188.845146 40.841881 
L 193.998393 40.832507 
L 199.15164 40.825947 
L 204.304886 40.821358 
L 209.458133 40.818147 
L 214.61138 40.8159 
L 219.764627 40.814328 
L 224.917873 40.813229 
L 230.07112 40.812459 
L 235.224367 40.811921 
L 240.377614 40.811544 
L 245.53086 40.81128 
L 250.684107 40.811096 
L 255.837354 40.810967 
L 260.990601 40.810877 
L 266.143847 40.810814 
L 271.297094 40.810769 
L 276.450341 40.810738 
L 281.603588 40.810717 
L 286.756834 40.810702 
L 291.910081 40.810691 
L 297.063328 40.810684 
L 302.216575 40.810678 
L 307.369821 40.810675 
L 312.523068 40.810672 
L 317.676315 40.810671 
L 322.829562 40.810669 
L 327.982808 40.810668 
L 333.136055 40.810668 
L 338.289302 40.810667 
L 343.442549 40.810667 
L 348.595795 40.810667 
L 353.749042 40.810667 
L 358.902289 40.810667 
L 364.055536 40.810667 
L 369.208782 40.810667 
L 374.362029 40.810666 
L 379.515276 40.810666 
L 384.668523 40.810666 
" style="fill:none;stroke:#fcd225;stroke-linecap:square;stroke-width:1.5;"/>
   </g>
   <g id="line2d_38">
    <path clip-path="url(#p1d6956c56e)" d="M 60.013977 276.310575 
L 65.167224 205.583485 
L 70.320471 156.097682 
L 75.473718 121.473825 
L 80.626964 97.248464 
L 85.780211 80.298643 
L 90.933458 68.439319 
L 96.086705 60.141676 
L 101.239951 54.336043 
L 106.393198 50.274001 
L 111.546445 47.431902 
L 116.699692 45.443363 
L 121.852938 44.052037 
L 127.006185 43.078564 
L 132.159432 42.397452 
L 137.312679 41.920897 
L 142.465925 41.587464 
L 147.619172 41.35417 
L 152.772419 41.190941 
L 157.925666 41.076734 
L 163.078912 40.996827 
L 168.232159 40.940918 
L 173.385406 40.9018 
L 178.538653 40.87443 
L 183.691899 40.85528 
L 188.845146 40.841881 
L 193.998393 40.832507 
L 199.15164 40.825947 
L 204.304886 40.821358 
L 209.458133 40.818147 
L 214.61138 40.8159 
L 219.764627 40.814328 
L 224.917873 40.813229 
L 230.07112 40.812459 
L 235.224367 40.811921 
L 240.377614 40.811544 
L 245.53086 40.81128 
L 250.684107 40.811096 
L 255.837354 40.810967 
L 260.990601 40.810877 
L 266.143847 40.810814 
L 271.297094 40.810769 
L 276.450341 40.810738 
L 281.603588 40.810717 
L 286.756834 40.810702 
L 291.910081 40.810691 
L 297.063328 40.810684 
L 302.216575 40.810678 
L 307.369821 40.810675 
L 312.523068 40.810672 
L 317.676315 40.810671 
L 322.829562 40.810669 
L 327.982808 40.810668 
L 333.136055 40.810668 
L 338.289302 40.810667 
L 343.442549 40.810667 
L 348.595795 40.810667 
L 353.749042 40.810667 
L 358.902289 40.810667 
L 364.055536 40.810667 
L 369.208782 40.810667 
L 374.362029 40.810666 
L 379.515276 40.810666 
L 384.668523 40.810666 
" style="fill:none;stroke:#fdae32;stroke-linecap:square;stroke-width:1.5;"/>
   </g>
   <g id="line2d_39">
    <path clip-path="url(#p1d6956c56e)" d="M 60.013977 276.310575 
L 65.167224 205.583485 
L 70.320471 156.097682 
L 75.473718 121.473825 
L 80.626964 97.248464 
L 85.780211 80.298643 
L 90.933458 68.439319 
L 96.086705 60.141676 
L 101.239951 54.336043 
L 106.393198 50.274001 
L 111.546445 47.431902 
L 116.699692 45.443363 
L 121.852938 44.052037 
L 127.006185 43.078564 
L 132.159432 42.397452 
L 137.312679 41.920897 
L 142.465925 41.587464 
L 147.619172 41.35417 
L 152.772419 41.190941 
L 157.925666 41.076734 
L 163.078912 40.996827 
L 168.232159 40.940918 
L 173.385406 40.9018 
L 178.538653 40.87443 
L 183.691899 40.85528 
L 188.845146 40.841881 
L 193.998393 40.832507 
L 199.15164 40.825947 
L 204.304886 40.821358 
L 209.458133 40.818147 
L 214.61138 40.8159 
L 219.764627 40.814328 
L 224.917873 40.813229 
L 230.07112 40.812459 
L 235.224367 40.811921 
L 240.377614 40.811544 
L 245.53086 40.81128 
L 250.684107 40.811096 
L 255.837354 40.810967 
L 260.990601 40.810877 
L 266.143847 40.810814 
L 271.297094 40.810769 
L 276.450341 40.810738 
L 281.603588 40.810717 
L 286.756834 40.810702 
L 291.910081 40.810691 
L 297.063328 40.810684 
L 302.216575 40.810678 
L 307.369821 40.810675 
L 312.523068 40.810672 
L 317.676315 40.810671 
L 322.829562 40.810669 
L 327.982808 40.810668 
L 333.136055 40.810668 
L 338.289302 40.810667 
L 343.442549 40.810667 
L 348.595795 40.810667 
L 353.749042 40.810667 
L 358.902289 40.810667 
L 364.055536 40.810667 
L 369.208782 40.810667 
L 374.362029 40.810666 
L 379.515276 40.810666 
L 384.668523 40.810666 
" style="fill:none;stroke:#f68d45;stroke-linecap:square;stroke-width:1.5;"/>
   </g>
   <g id="line2d_40">
    <path clip-path="url(#p1d6956c56e)" d="M 60.013977 276.310575 
L 65.167224 205.583485 
L 70.320471 156.097682 
L 75.473718 121.473825 
L 80.626964 97.248464 
L 85.780211 80.298643 
L 90.933458 68.439319 
L 96.086705 60.141676 
L 101.239951 54.336043 
L 106.393198 50.274001 
L 111.546445 47.431902 
L 116.699692 45.443363 
L 121.852938 44.052037 
L 127.006185 43.078564 
L 132.159432 42.397452 
L 137.312679 41.920897 
L 142.465925 41.587464 
L 147.619172 41.35417 
L 152.772419 41.190941 
L 157.925666 41.076734 
L 163.078912 40.996827 
L 168.232159 40.940918 
L 173.385406 40.9018 
L 178.538653 40.87443 
L 183.691899 40.85528 
L 188.845146 40.841881 
L 193.998393 40.832507 
L 199.15164 40.825947 
L 204.304886 40.821358 
L 209.458133 40.818147 
L 214.61138 40.8159 
L 219.764627 40.814328 
L 224.917873 40.813229 
L 230.07112 40.812459 
L 235.224367 40.811921 
L 240.377614 40.811544 
L 245.53086 40.81128 
L 250.684107 40.811096 
L 255.837354 40.810967 
L 260.990601 40.810877 
L 266.143847 40.810814 
L 271.297094 40.810769 
L 276.450341 40.810738 
L 281.603588 40.810717 
L 286.756834 40.810702 
L 291.910081 40.810691 
L 297.063328 40.810684 
L 302.216575 40.810678 
L 307.369821 40.810675 
L 312.523068 40.810672 
L 317.676315 40.810671 
L 322.829562 40.810669 
L 327.982808 40.810668 
L 333.136055 40.810668 
L 338.289302 40.810667 
L 343.442549 40.810667 
L 348.595795 40.810667 
L 353.749042 40.810667 
L 358.902289 40.810667 
L 364.055536 40.810667 
L 369.208782 40.810667 
L 374.362029 40.810666 
L 379.515276 40.810666 
L 384.668523 40.810666 
" style="fill:none;stroke:#e76f5a;stroke-linecap:square;stroke-width:1.5;"/>
   </g>
   <g id="line2d_41">
    <path clip-path="url(#p1d6956c56e)" d="M 60.013977 276.310575 
L 65.167224 222.051195 
L 70.320471 180.293223 
L 75.473718 148.156323 
L 80.626964 123.423792 
L 85.780211 104.389658 
L 90.933458 89.741004 
L 96.086705 78.467412 
L 101.239951 69.791266 
L 106.393198 63.114111 
L 111.546445 57.975378 
L 116.699692 54.020614 
L 121.852938 50.977031 
L 127.006185 48.634692 
L 132.159432 46.83203 
L 137.312679 45.444702 
L 142.465925 44.377017 
L 147.619172 43.555326 
L 152.772419 42.922954 
L 157.925666 42.436281 
L 163.078912 42.061738 
L 168.232159 41.77349 
L 173.385406 41.551655 
L 178.538653 41.38093 
L 183.691899 41.249541 
L 188.845146 41.148424 
L 193.998393 41.070604 
L 199.15164 41.010714 
L 204.304886 40.964623 
L 209.458133 40.929151 
L 214.61138 40.901852 
L 219.764627 40.880843 
L 224.917873 40.864674 
L 230.07112 40.852231 
L 235.224367 40.842654 
L 240.377614 40.835284 
L 245.53086 40.829612 
L 250.684107 40.825247 
L 255.837354 40.821888 
L 260.990601 40.819302 
L 266.143847 40.817313 
L 271.297094 40.815781 
L 276.450341 40.814603 
L 281.603588 40.813696 
L 286.756834 40.812998 
L 291.910081 40.812461 
L 297.063328 40.812047 
L 302.216575 40.811729 
L 307.369821 40.811484 
L 312.523068 40.811296 
L 317.676315 40.811151 
L 322.829562 40.811039 
L 327.982808 40.810953 
L 333.136055 40.810887 
L 338.289302 40.810836 
L 343.442549 40.810797 
L 348.595795 40.810767 
L 353.749042 40.810744 
L 358.902289 40.810726 
L 364.055536 40.810712 
L 369.208782 40.810702 
L 374.362029 40.810694 
L 379.515276 40.810687 
L 384.668523 40.810682 
" style="fill:none;stroke:#d5546e;stroke-linecap:square;stroke-width:1.5;"/>
   </g>
   <g id="line2d_42">
    <path clip-path="url(#p1d6956c56e)" d="M 60.013977 276.310575 
L 65.167224 269.325489 
L 70.320471 262.547586 
L 75.473718 255.970719 
L 80.626964 249.588927 
L 85.780211 243.396424 
L 90.933458 237.387594 
L 96.086705 231.55699 
L 101.239951 225.899325 
L 106.393198 220.409471 
L 111.546445 215.08245 
L 116.699692 209.913431 
L 121.852938 204.897729 
L 127.006185 200.030797 
L 132.159432 195.30822 
L 137.312679 190.725719 
L 142.465925 186.279138 
L 147.619172 181.964445 
L 152.772419 177.777729 
L 157.925666 173.715194 
L 163.078912 169.773156 
L 168.232159 165.948042 
L 173.385406 162.236383 
L 178.538653 158.634814 
L 183.691899 155.140071 
L 188.845146 151.748984 
L 193.998393 148.458478 
L 199.15164 145.265572 
L 204.304886 142.167369 
L 209.458133 139.161061 
L 214.61138 136.243922 
L 219.764627 133.413308 
L 224.917873 130.666651 
L 230.07112 128.001462 
L 235.224367 125.415324 
L 240.377614 122.905893 
L 245.53086 120.470893 
L 250.684107 118.108117 
L 255.837354 115.815423 
L 260.990601 113.590731 
L 266.143847 111.432026 
L 271.297094 109.337349 
L 276.450341 107.304801 
L 281.603588 105.33254 
L 286.756834 103.418778 
L 291.910081 101.561779 
L 297.063328 99.75986 
L 302.216575 98.011388 
L 307.369821 96.314776 
L 312.523068 94.668487 
L 317.676315 93.071027 
L 322.829562 91.52095 
L 327.982808 90.016849 
L 333.136055 88.55736 
L 338.289302 87.141161 
L 343.442549 85.766967 
L 348.595795 84.433533 
L 353.749042 83.13965 
L 358.902289 81.884144 
L 364.055536 80.665877 
L 369.208782 79.483744 
L 374.362029 78.336675 
L 379.515276 77.223628 
L 384.668523 76.143595 
" style="fill:none;stroke:#c03a83;stroke-linecap:square;stroke-width:1.5;"/>
   </g>
   <g id="line2d_43">
    <path clip-path="url(#p1d6956c56e)" d="M 60.013977 276.310575 
L 65.167224 210.089928 
L 70.320471 162.489985 
L 75.473718 128.274756 
L 80.626964 103.68057 
L 85.780211 86.002068 
L 90.933458 73.294615 
L 96.086705 64.160395 
L 101.239951 57.594642 
L 106.393198 52.875126 
L 111.546445 49.482698 
L 116.699692 47.044194 
L 121.852938 45.291377 
L 127.006185 44.031438 
L 132.159432 43.125783 
L 137.312679 42.474791 
L 142.465925 42.006853 
L 147.619172 41.670495 
L 152.772419 41.428718 
L 157.925666 41.254927 
L 163.078912 41.130005 
L 168.232159 41.040209 
L 173.385406 40.975664 
L 178.538653 40.929268 
L 183.691899 40.895918 
L 188.845146 40.871946 
L 193.998393 40.854715 
L 199.15164 40.842329 
L 204.304886 40.833425 
L 209.458133 40.827026 
L 214.61138 40.822426 
L 219.764627 40.819119 
L 224.917873 40.816742 
L 230.07112 40.815034 
L 235.224367 40.813806 
L 240.377614 40.812923 
L 245.53086 40.812288 
L 250.684107 40.811832 
L 255.837354 40.811504 
L 260.990601 40.811269 
L 266.143847 40.811099 
L 271.297094 40.810978 
L 276.450341 40.81089 
L 281.603588 40.810827 
L 286.756834 40.810782 
L 291.910081 40.810749 
L 297.063328 40.810726 
L 302.216575 40.810709 
L 307.369821 40.810697 
L 312.523068 40.810689 
L 317.676315 40.810682 
L 322.829562 40.810678 
L 327.982808 40.810675 
L 333.136055 40.810672 
L 338.289302 40.810671 
L 343.442549 40.810669 
L 348.595795 40.810669 
L 353.749042 40.810668 
L 358.902289 40.810668 
L 364.055536 40.810667 
L 369.208782 40.810667 
L 374.362029 40.810667 
L 379.515276 40.810667 
L 384.668523 40.810667 
" style="fill:none;stroke:#a62098;stroke-linecap:square;stroke-width:1.5;"/>
   </g>
   <g id="line2d_44">
    <path clip-path="url(#p1d6956c56e)" d="M 60.013977 276.310575 
L 65.167224 205.583485 
L 70.320471 156.097682 
L 75.473718 121.473825 
L 80.626964 97.248464 
L 85.780211 80.298643 
L 90.933458 68.439319 
L 96.086705 60.141676 
L 101.239951 54.336043 
L 106.393198 50.274001 
L 111.546445 47.431902 
L 116.699692 45.443363 
L 121.852938 44.052037 
L 127.006185 43.078564 
L 132.159432 42.397452 
L 137.312679 41.920897 
L 142.465925 41.587464 
L 147.619172 41.35417 
L 152.772419 41.190941 
L 157.925666 41.076734 
L 163.078912 40.996827 
L 168.232159 40.940918 
L 173.385406 40.9018 
L 178.538653 40.87443 
L 183.691899 40.85528 
L 188.845146 40.841881 
L 193.998393 40.832507 
L 199.15164 40.825947 
L 204.304886 40.821358 
L 209.458133 40.818147 
L 214.61138 40.8159 
L 219.764627 40.814328 
L 224.917873 40.813229 
L 230.07112 40.812459 
L 235.224367 40.811921 
L 240.377614 40.811544 
L 245.53086 40.81128 
L 250.684107 40.811096 
L 255.837354 40.810967 
L 260.990601 40.810877 
L 266.143847 40.810814 
L 271.297094 40.810769 
L 276.450341 40.810738 
L 281.603588 40.810717 
L 286.756834 40.810702 
L 291.910081 40.810691 
L 297.063328 40.810684 
L 302.216575 40.810678 
L 307.369821 40.810675 
L 312.523068 40.810672 
L 317.676315 40.810671 
L 322.829562 40.810669 
L 327.982808 40.810668 
L 333.136055 40.810668 
L 338.289302 40.810667 
L 343.442549 40.810667 
L 348.595795 40.810667 
L 353.749042 40.810667 
L 358.902289 40.810667 
L 364.055536 40.810667 
L 369.208782 40.810667 
L 374.362029 40.810666 
L 379.515276 40.810666 
L 384.668523 40.810666 
" style="fill:none;stroke:#8606a6;stroke-linecap:square;stroke-width:1.5;"/>
   </g>
   <g id="line2d_45">
    <path clip-path="url(#p1d6956c56e)" d="M 60.013977 276.310575 
L 65.167224 175.683753 
L 70.320471 118.053794 
L 75.473718 85.048556 
L 80.626964 66.146136 
L 85.780211 55.320536 
L 90.933458 49.12061 
L 96.086705 45.569852 
L 101.239951 43.536298 
L 106.393198 42.371662 
L 111.546445 41.704664 
L 116.699692 41.322667 
L 121.852938 41.103894 
L 127.006185 40.978601 
L 132.159432 40.906844 
L 137.312679 40.865748 
L 142.465925 40.842212 
L 147.619172 40.828733 
L 152.772419 40.821013 
L 157.925666 40.816592 
L 163.078912 40.81406 
L 168.232159 40.81261 
L 173.385406 40.81178 
L 178.538653 40.811304 
L 183.691899 40.811031 
L 188.845146 40.810875 
L 193.998393 40.810786 
L 199.15164 40.810735 
L 204.304886 40.810706 
L 209.458133 40.810689 
L 214.61138 40.810679 
L 219.764627 40.810674 
L 224.917873 40.810671 
L 230.07112 40.810669 
L 235.224367 40.810668 
L 240.377614 40.810667 
L 245.53086 40.810667 
L 250.684107 40.810667 
L 255.837354 40.810667 
L 260.990601 40.810666 
L 266.143847 40.810666 
L 271.297094 40.810666 
L 276.450341 40.810666 
L 281.603588 40.810666 
L 286.756834 40.810666 
L 291.910081 40.810666 
L 297.063328 40.810666 
L 302.216575 40.810666 
L 307.369821 40.810666 
L 312.523068 40.810666 
L 317.676315 40.810666 
L 322.829562 40.810666 
L 327.982808 40.810666 
L 333.136055 40.810666 
L 338.289302 40.810666 
L 343.442549 40.810666 
L 348.595795 40.810666 
L 353.749042 40.810666 
L 358.902289 40.810666 
L 364.055536 40.810666 
L 369.208782 40.810666 
L 374.362029 40.810666 
L 379.515276 40.810666 
L 384.668523 40.810666 
" style="fill:none;stroke:#6300a7;stroke-linecap:square;stroke-width:1.5;"/>
   </g>
   <g id="line2d_46">
    <path clip-path="url(#p1d6956c56e)" d="M 60.013977 276.310575 
L 65.167224 258.694674 
L 70.320471 242.396481 
L 75.473718 227.317427 
L 80.626964 213.366319 
L 85.780211 200.458784 
L 90.933458 188.516761 
L 96.086705 177.468027 
L 101.239951 167.245762 
L 106.393198 157.788144 
L 111.546445 149.037976 
L 116.699692 140.94234 
L 121.852938 133.452275 
L 127.006185 126.522483 
L 132.159432 120.111054 
L 137.312679 114.179214 
L 142.465925 108.691089 
L 147.619172 103.613487 
L 152.772419 98.915701 
L 157.925666 94.569319 
L 163.078912 90.548056 
L 168.232159 86.827592 
L 173.385406 83.385426 
L 178.538653 80.200743 
L 183.691899 77.25428 
L 188.845146 74.528219 
L 193.998393 72.006073 
L 199.15164 69.67259 
L 204.304886 67.513656 
L 209.458133 65.516215 
L 214.61138 63.668186 
L 219.764627 61.958395 
L 224.917873 60.376499 
L 230.07112 58.912932 
L 235.224367 57.558844 
L 240.377614 56.306044 
L 245.53086 55.146956 
L 250.684107 54.074571 
L 255.837354 53.082402 
L 260.990601 52.16445 
L 266.143847 51.315163 
L 271.297094 50.529404 
L 276.450341 49.802421 
L 281.603588 49.129818 
L 286.756834 48.507528 
L 291.910081 47.931786 
L 297.063328 47.399111 
L 302.216575 46.906281 
L 307.369821 46.450316 
L 312.523068 46.028458 
L 317.676315 45.638156 
L 322.829562 45.277049 
L 327.982808 44.942954 
L 333.136055 44.63385 
L 338.289302 44.347868 
L 343.442549 44.083278 
L 348.595795 43.838479 
L 353.749042 43.611992 
L 358.902289 43.402447 
L 364.055536 43.208576 
L 369.208782 43.029207 
L 374.362029 42.863256 
L 379.515276 42.709718 
L 384.668523 42.567665 
" style="fill:none;stroke:#3e049c;stroke-linecap:square;stroke-width:1.5;"/>
   </g>
   <g id="line2d_47">
    <path clip-path="url(#p1d6956c56e)" d="M 60.013977 276.310575 
L 65.167224 260.172726 
L 70.320471 245.140738 
L 75.473718 231.138831 
L 80.626964 218.096418 
L 85.780211 205.947748 
L 90.933458 194.631576 
L 96.086705 184.090856 
L 101.239951 174.272449 
L 106.393198 165.126857 
L 111.546445 156.607975 
L 116.699692 148.672857 
L 121.852938 141.281501 
L 127.006185 134.396644 
L 132.159432 127.983578 
L 137.312679 122.009974 
L 142.465925 116.445716 
L 147.619172 111.262755 
L 152.772419 106.43496 
L 157.925666 101.937995 
L 163.078912 97.749188 
L 168.232159 93.847423 
L 173.385406 90.21303 
L 178.538653 86.827688 
L 183.691899 83.674329 
L 188.845146 80.737057 
L 193.998393 78.001064 
L 199.15164 75.452558 
L 204.304886 73.07869 
L 209.458133 70.867494 
L 214.61138 68.807822 
L 219.764627 66.889291 
L 224.917873 65.102229 
L 230.07112 63.437627 
L 235.224367 61.887094 
L 240.377614 60.442812 
L 245.53086 59.097501 
L 250.684107 57.844379 
L 255.837354 56.677128 
L 260.990601 55.589864 
L 266.143847 54.577106 
L 271.297094 53.633748 
L 276.450341 52.755034 
L 281.603588 51.936536 
L 286.756834 51.174125 
L 291.910081 50.463959 
L 297.063328 49.802459 
L 302.216575 49.186288 
L 307.369821 48.612341 
L 312.523068 48.077724 
L 317.676315 47.579742 
L 322.829562 47.115885 
L 327.982808 46.683814 
L 333.136055 46.281351 
L 338.289302 45.906467 
L 343.442549 45.557273 
L 348.595795 45.232007 
L 353.749042 44.929031 
L 358.902289 44.646816 
L 364.055536 44.38394 
L 369.208782 44.139078 
L 374.362029 43.910996 
L 379.515276 43.698543 
L 384.668523 43.500648 
" style="fill:none;stroke:#0d0887;stroke-linecap:square;stroke-width:1.5;"/>
   </g>
   <g id="line2d_48">
    <defs>
     <path d="M 0 3 
C 0.795609 3 1.55874 2.683901 2.12132 2.12132 
C 2.683901 1.55874 3 0.795609 3 0 
C 3 -0.795609 2.683901 -1.55874 2.12132 -2.12132 
C 1.55874 -2.683901 0.795609 -3 0 -3 
C -0.795609 -3 -1.55874 -2.683901 -2.12132 -2.12132 
C -2.683901 -1.55874 -3 -0.795609 -3 0 
C -3 0.795609 -2.683901 1.55874 -2.12132 2.12132 
C -1.55874 2.683901 -0.795609 3 0 3 
z
" id="mc60788646f" style="stroke:#0d0887;stroke-width:2;"/>
    </defs>
    <g clip-path="url(#p1d6956c56e)">
     <use style="fill:#0d0887;stroke:#0d0887;stroke-width:2;" x="60.013977" xlink:href="#mc60788646f" y="276.310575"/>
     <use style="fill:#0d0887;stroke:#0d0887;stroke-width:2;" x="124.944886" xlink:href="#mc60788646f" y="171.805596"/>
     <use style="fill:#0d0887;stroke:#0d0887;stroke-width:2;" x="168.232159" xlink:href="#mc60788646f" y="93.421014"/>
     <use style="fill:#0d0887;stroke:#0d0887;stroke-width:2;" x="211.519432" xlink:href="#mc60788646f" y="69.370895"/>
    </g>
   </g>
   <g id="line2d_49">
    <defs>
     <path d="M 0 3 
C 0.795609 3 1.55874 2.683901 2.12132 2.12132 
C 2.683901 1.55874 3 0.795609 3 0 
C 3 -0.795609 2.683901 -1.55874 2.12132 -2.12132 
C 1.55874 -2.683901 0.795609 -3 0 -3 
C -0.795609 -3 -1.55874 -2.683901 -2.12132 -2.12132 
C -2.683901 -1.55874 -3 -0.795609 -3 0 
C -3 0.795609 -2.683901 1.55874 -2.12132 2.12132 
C -1.55874 2.683901 -0.795609 3 0 3 
z
" id="m855dbdc5d1" style="stroke:#3e049c;stroke-width:2;"/>
    </defs>
    <g clip-path="url(#p1d6956c56e)">
     <use style="fill:#3e049c;stroke:#3e049c;stroke-width:2;" x="60.013977" xlink:href="#m855dbdc5d1" y="276.310575"/>
     <use style="fill:#3e049c;stroke:#3e049c;stroke-width:2;" x="81.657614" xlink:href="#m855dbdc5d1" y="211.426089"/>
     <use style="fill:#3e049c;stroke:#3e049c;stroke-width:2;" x="103.30125" xlink:href="#m855dbdc5d1" y="142.39946"/>
     <use style="fill:#3e049c;stroke:#3e049c;stroke-width:2;" x="124.944886" xlink:href="#m855dbdc5d1" y="140.346351"/>
    </g>
   </g>
   <g id="line2d_50">
    <defs>
     <path d="M 0 3 
C 0.795609 3 1.55874 2.683901 2.12132 2.12132 
C 2.683901 1.55874 3 0.795609 3 0 
C 3 -0.795609 2.683901 -1.55874 2.12132 -2.12132 
C 1.55874 -2.683901 0.795609 -3 0 -3 
C -0.795609 -3 -1.55874 -2.683901 -2.12132 -2.12132 
C -2.683901 -1.55874 -3 -0.795609 -3 0 
C -3 0.795609 -2.683901 1.55874 -2.12132 2.12132 
C -1.55874 2.683901 -0.795609 3 0 3 
z
" id="md49fd0d175" style="stroke:#6300a7;stroke-width:2;"/>
    </defs>
    <g clip-path="url(#p1d6956c56e)">
     <use style="fill:#6300a7;stroke:#6300a7;stroke-width:2;" x="60.013977" xlink:href="#md49fd0d175" y="276.310575"/>
     <use style="fill:#6300a7;stroke:#6300a7;stroke-width:2;" x="81.657614" xlink:href="#md49fd0d175" y="61.223297"/>
     <use style="fill:#6300a7;stroke:#6300a7;stroke-width:2;" x="103.30125" xlink:href="#md49fd0d175" y="45.716914"/>
     <use style="fill:#6300a7;stroke:#6300a7;stroke-width:2;" x="124.944886" xlink:href="#md49fd0d175" y="43.189453"/>
    </g>
   </g>
   <g id="line2d_51">
    <defs>
     <path d="M 0 3 
C 0.795609 3 1.55874 2.683901 2.12132 2.12132 
C 2.683901 1.55874 3 0.795609 3 0 
C 3 -0.795609 2.683901 -1.55874 2.12132 -2.12132 
C 1.55874 -2.683901 0.795609 -3 0 -3 
C -0.795609 -3 -1.55874 -2.683901 -2.12132 -2.12132 
C -2.683901 -1.55874 -3 -0.795609 -3 0 
C -3 0.795609 -2.683901 1.55874 -2.12132 2.12132 
C -1.55874 2.683901 -0.795609 3 0 3 
z
" id="m80ff9ffa74" style="stroke:#8606a6;stroke-width:2;"/>
    </defs>
    <g clip-path="url(#p1d6956c56e)">
     <use style="fill:#8606a6;stroke:#8606a6;stroke-width:2;" x="60.013977" xlink:href="#m80ff9ffa74" y="276.310575"/>
     <use style="fill:#8606a6;stroke:#8606a6;stroke-width:2;" x="81.657614" xlink:href="#m80ff9ffa74" y="40.810666"/>
     <use style="fill:#8606a6;stroke:#8606a6;stroke-width:2;" x="103.30125" xlink:href="#m80ff9ffa74" y="42.932287"/>
     <use style="fill:#8606a6;stroke:#8606a6;stroke-width:2;" x="124.944886" xlink:href="#m80ff9ffa74" y="40.810666"/>
    </g>
   </g>
   <g id="line2d_52">
    <defs>
     <path d="M 0 3 
C 0.795609 3 1.55874 2.683901 2.12132 2.12132 
C 2.683901 1.55874 3 0.795609 3 0 
C 3 -0.795609 2.683901 -1.55874 2.12132 -2.12132 
C 1.55874 -2.683901 0.795609 -3 0 -3 
C -0.795609 -3 -1.55874 -2.683901 -2.12132 -2.12132 
C -2.683901 -1.55874 -3 -0.795609 -3 0 
C -3 0.795609 -2.683901 1.55874 -2.12132 2.12132 
C -1.55874 2.683901 -0.795609 3 0 3 
z
" id="m4dcbda31fc" style="stroke:#a62098;stroke-width:2;"/>
    </defs>
    <g clip-path="url(#p1d6956c56e)">
     <use style="fill:#a62098;stroke:#a62098;stroke-width:2;" x="60.013977" xlink:href="#m4dcbda31fc" y="276.310575"/>
     <use style="fill:#a62098;stroke:#a62098;stroke-width:2;" x="81.657614" xlink:href="#m4dcbda31fc" y="94.636584"/>
     <use style="fill:#a62098;stroke:#a62098;stroke-width:2;" x="103.30125" xlink:href="#m4dcbda31fc" y="55.559146"/>
     <use style="fill:#a62098;stroke:#a62098;stroke-width:2;" x="124.944886" xlink:href="#m4dcbda31fc" y="56.253283"/>
    </g>
   </g>
   <g id="line2d_53">
    <defs>
     <path d="M 0 3 
C 0.795609 3 1.55874 2.683901 2.12132 2.12132 
C 2.683901 1.55874 3 0.795609 3 0 
C 3 -0.795609 2.683901 -1.55874 2.12132 -2.12132 
C 1.55874 -2.683901 0.795609 -3 0 -3 
C -0.795609 -3 -1.55874 -2.683901 -2.12132 -2.12132 
C -2.683901 -1.55874 -3 -0.795609 -3 0 
C -3 0.795609 -2.683901 1.55874 -2.12132 2.12132 
C -1.55874 2.683901 -0.795609 3 0 3 
z
" id="m11f1e45bca" style="stroke:#c03a83;stroke-width:2;"/>
    </defs>
    <g clip-path="url(#p1d6956c56e)">
     <use style="fill:#c03a83;stroke:#c03a83;stroke-width:2;" x="60.013977" xlink:href="#m11f1e45bca" y="276.310575"/>
     <use style="fill:#c03a83;stroke:#c03a83;stroke-width:2;" x="168.232159" xlink:href="#m11f1e45bca" y="147.900936"/>
     <use style="fill:#c03a83;stroke:#c03a83;stroke-width:2;" x="276.450341" xlink:href="#m11f1e45bca" y="109.07735"/>
     <use style="fill:#c03a83;stroke:#c03a83;stroke-width:2;" x="384.668523" xlink:href="#m11f1e45bca" y="84.499937"/>
    </g>
   </g>
   <g id="line2d_54">
    <defs>
     <path d="M 0 3 
C 0.795609 3 1.55874 2.683901 2.12132 2.12132 
C 2.683901 1.55874 3 0.795609 3 0 
C 3 -0.795609 2.683901 -1.55874 2.12132 -2.12132 
C 1.55874 -2.683901 0.795609 -3 0 -3 
C -0.795609 -3 -1.55874 -2.683901 -2.12132 -2.12132 
C -2.683901 -1.55874 -3 -0.795609 -3 0 
C -3 0.795609 -2.683901 1.55874 -2.12132 2.12132 
C -1.55874 2.683901 -0.795609 3 0 3 
z
" id="mb44622e39d" style="stroke:#d5546e;stroke-width:2;"/>
    </defs>
    <g clip-path="url(#p1d6956c56e)">
     <use style="fill:#d5546e;stroke:#d5546e;stroke-width:2;" x="60.013977" xlink:href="#mb44622e39d" y="276.310575"/>
     <use style="fill:#d5546e;stroke:#d5546e;stroke-width:2;" x="81.657614" xlink:href="#mb44622e39d" y="115.649257"/>
     <use style="fill:#d5546e;stroke:#d5546e;stroke-width:2;" x="103.30125" xlink:href="#mb44622e39d" y="77.289686"/>
     <use style="fill:#d5546e;stroke:#d5546e;stroke-width:2;" x="124.944886" xlink:href="#mb44622e39d" y="51.753086"/>
    </g>
   </g>
   <g id="line2d_55">
    <defs>
     <path d="M 0 3 
C 0.795609 3 1.55874 2.683901 2.12132 2.12132 
C 2.683901 1.55874 3 0.795609 3 0 
C 3 -0.795609 2.683901 -1.55874 2.12132 -2.12132 
C 1.55874 -2.683901 0.795609 -3 0 -3 
C -0.795609 -3 -1.55874 -2.683901 -2.12132 -2.12132 
C -2.683901 -1.55874 -3 -0.795609 -3 0 
C -3 0.795609 -2.683901 1.55874 -2.12132 2.12132 
C -1.55874 2.683901 -0.795609 3 0 3 
z
" id="md1a262a9c9" style="stroke:#e76f5a;stroke-width:2;"/>
    </defs>
    <g clip-path="url(#p1d6956c56e)">
     <use style="fill:#e76f5a;stroke:#e76f5a;stroke-width:2;" x="60.013977" xlink:href="#md1a262a9c9" y="276.310575"/>
    </g>
   </g>
   <g id="line2d_56">
    <defs>
     <path d="M 0 3 
C 0.795609 3 1.55874 2.683901 2.12132 2.12132 
C 2.683901 1.55874 3 0.795609 3 0 
C 3 -0.795609 2.683901 -1.55874 2.12132 -2.12132 
C 1.55874 -2.683901 0.795609 -3 0 -3 
C -0.795609 -3 -1.55874 -2.683901 -2.12132 -2.12132 
C -2.683901 -1.55874 -3 -0.795609 -3 0 
C -3 0.795609 -2.683901 1.55874 -2.12132 2.12132 
C -1.55874 2.683901 -0.795609 3 0 3 
z
" id="m7c7a1bc4f9" style="stroke:#f68d45;stroke-width:2;"/>
    </defs>
    <g clip-path="url(#p1d6956c56e)">
     <use style="fill:#f68d45;stroke:#f68d45;stroke-width:2;" x="60.013977" xlink:href="#m7c7a1bc4f9" y="276.310575"/>
    </g>
   </g>
   <g id="line2d_57">
    <defs>
     <path d="M 0 3 
C 0.795609 3 1.55874 2.683901 2.12132 2.12132 
C 2.683901 1.55874 3 0.795609 3 0 
C 3 -0.795609 2.683901 -1.55874 2.12132 -2.12132 
C 1.55874 -2.683901 0.795609 -3 0 -3 
C -0.795609 -3 -1.55874 -2.683901 -2.12132 -2.12132 
C -2.683901 -1.55874 -3 -0.795609 -3 0 
C -3 0.795609 -2.683901 1.55874 -2.12132 2.12132 
C -1.55874 2.683901 -0.795609 3 0 3 
z
" id="m3f3a5a1f81" style="stroke:#fdae32;stroke-width:2;"/>
    </defs>
    <g clip-path="url(#p1d6956c56e)">
     <use style="fill:#fdae32;stroke:#fdae32;stroke-width:2;" x="60.013977" xlink:href="#m3f3a5a1f81" y="276.310575"/>
    </g>
   </g>
   <g id="line2d_58">
    <defs>
     <path d="M 0 3 
C 0.795609 3 1.55874 2.683901 2.12132 2.12132 
C 2.683901 1.55874 3 0.795609 3 0 
C 3 -0.795609 2.683901 -1.55874 2.12132 -2.12132 
C 1.55874 -2.683901 0.795609 -3 0 -3 
C -0.795609 -3 -1.55874 -2.683901 -2.12132 -2.12132 
C -2.683901 -1.55874 -3 -0.795609 -3 0 
C -3 0.795609 -2.683901 1.55874 -2.12132 2.12132 
C -1.55874 2.683901 -0.795609 3 0 3 
z
" id="m7f8fc6179f" style="stroke:#fcd225;stroke-width:2;"/>
    </defs>
    <g clip-path="url(#p1d6956c56e)">
     <use style="fill:#fcd225;stroke:#fcd225;stroke-width:2;" x="60.013977" xlink:href="#m7f8fc6179f" y="276.310575"/>
    </g>
   </g>
   <g id="patch_3">
    <path d="M 43.78125 288.430125 
L 43.78125 22.318125 
" style="fill:none;stroke:#000000;stroke-linecap:square;stroke-linejoin:miter;stroke-width:0.8;"/>
   </g>
   <g id="patch_4">
    <path d="M 400.90125 288.430125 
L 400.90125 22.318125 
" style="fill:none;stroke:#000000;stroke-linecap:square;stroke-linejoin:miter;stroke-width:0.8;"/>
   </g>
   <g id="patch_5">
    <path d="M 43.78125 288.430125 
L 400.90125 288.430125 
" style="fill:none;stroke:#000000;stroke-linecap:square;stroke-linejoin:miter;stroke-width:0.8;"/>
   </g>
   <g id="patch_6">
    <path d="M 43.78125 22.318125 
L 400.90125 22.318125 
" style="fill:none;stroke:#000000;stroke-linecap:square;stroke-linejoin:miter;stroke-width:0.8;"/>
   </g>
   <g id="text_17">
    <!-- Filtration Efficiency vs. Number of Layers at 2.58 um with Voltage On -->
    <g transform="translate(14.911875 16.318125)scale(0.12 -0.12)">
     <defs>
      <path d="M 191 3500 
L 800 3500 
L 1894 563 
L 2988 3500 
L 3597 3500 
L 2284 0 
L 1503 0 
L 191 3500 
z
" id="DejaVuSans-76" transform="scale(0.015625)"/>
      <path d="M 691 4666 
L 3169 4666 
L 3169 4134 
L 1269 4134 
L 1269 2991 
Q 1406 3038 1543 3061 
Q 1681 3084 1819 3084 
Q 2600 3084 3056 2656 
Q 3513 2228 3513 1497 
Q 3513 744 3044 326 
Q 2575 -91 1722 -91 
Q 1428 -91 1123 -41 
Q 819 9 494 109 
L 494 744 
Q 775 591 1075 516 
Q 1375 441 1709 441 
Q 2250 441 2565 725 
Q 2881 1009 2881 1497 
Q 2881 1984 2565 2268 
Q 2250 2553 1709 2553 
Q 1456 2553 1204 2497 
Q 953 2441 691 2322 
L 691 4666 
z
" id="DejaVuSans-35" transform="scale(0.015625)"/>
      <path d="M 269 3500 
L 844 3500 
L 1563 769 
L 2278 3500 
L 2956 3500 
L 3675 769 
L 4391 3500 
L 4966 3500 
L 4050 0 
L 3372 0 
L 2619 2869 
L 1863 0 
L 1184 0 
L 269 3500 
z
" id="DejaVuSans-77" transform="scale(0.015625)"/>
      <path d="M 3513 2113 
L 3513 0 
L 2938 0 
L 2938 2094 
Q 2938 2591 2744 2837 
Q 2550 3084 2163 3084 
Q 1697 3084 1428 2787 
Q 1159 2491 1159 1978 
L 1159 0 
L 581 0 
L 581 4863 
L 1159 4863 
L 1159 2956 
Q 1366 3272 1645 3428 
Q 1925 3584 2291 3584 
Q 2894 3584 3203 3211 
Q 3513 2838 3513 2113 
z
" id="DejaVuSans-68" transform="scale(0.015625)"/>
      <path d="M 1831 0 
L 50 4666 
L 709 4666 
L 2188 738 
L 3669 4666 
L 4325 4666 
L 2547 0 
L 1831 0 
z
" id="DejaVuSans-56" transform="scale(0.015625)"/>
      <path d="M 2906 1791 
Q 2906 2416 2648 2759 
Q 2391 3103 1925 3103 
Q 1463 3103 1205 2759 
Q 947 2416 947 1791 
Q 947 1169 1205 825 
Q 1463 481 1925 481 
Q 2391 481 2648 825 
Q 2906 1169 2906 1791 
z
M 3481 434 
Q 3481 -459 3084 -895 
Q 2688 -1331 1869 -1331 
Q 1566 -1331 1297 -1286 
Q 1028 -1241 775 -1147 
L 775 -588 
Q 1028 -725 1275 -790 
Q 1522 -856 1778 -856 
Q 2344 -856 2625 -561 
Q 2906 -266 2906 331 
L 2906 616 
Q 2728 306 2450 153 
Q 2172 0 1784 0 
Q 1141 0 747 490 
Q 353 981 353 1791 
Q 353 2603 747 3093 
Q 1141 3584 1784 3584 
Q 2172 3584 2450 3431 
Q 2728 3278 2906 2969 
L 2906 3500 
L 3481 3500 
L 3481 434 
z
" id="DejaVuSans-67" transform="scale(0.015625)"/>
      <path d="M 2522 4238 
Q 1834 4238 1429 3725 
Q 1025 3213 1025 2328 
Q 1025 1447 1429 934 
Q 1834 422 2522 422 
Q 3209 422 3611 934 
Q 4013 1447 4013 2328 
Q 4013 3213 3611 3725 
Q 3209 4238 2522 4238 
z
M 2522 4750 
Q 3503 4750 4090 4092 
Q 4678 3434 4678 2328 
Q 4678 1225 4090 567 
Q 3503 -91 2522 -91 
Q 1538 -91 948 565 
Q 359 1222 359 2328 
Q 359 3434 948 4092 
Q 1538 4750 2522 4750 
z
" id="DejaVuSans-4f" transform="scale(0.015625)"/>
     </defs>
     <use xlink:href="#DejaVuSans-46"/>
     <use x="50.269531" xlink:href="#DejaVuSans-69"/>
     <use x="78.052734" xlink:href="#DejaVuSans-6c"/>
     <use x="105.835938" xlink:href="#DejaVuSans-74"/>
     <use x="145.044922" xlink:href="#DejaVuSans-72"/>
     <use x="186.158203" xlink:href="#DejaVuSans-61"/>
     <use x="247.4375" xlink:href="#DejaVuSans-74"/>
     <use x="286.646484" xlink:href="#DejaVuSans-69"/>
     <use x="314.429688" xlink:href="#DejaVuSans-6f"/>
     <use x="375.611328" xlink:href="#DejaVuSans-6e"/>
     <use x="438.990234" xlink:href="#DejaVuSans-20"/>
     <use x="470.777344" xlink:href="#DejaVuSans-45"/>
     <use x="533.960938" xlink:href="#DejaVuSans-66"/>
     <use x="569.166016" xlink:href="#DejaVuSans-66"/>
     <use x="604.371094" xlink:href="#DejaVuSans-69"/>
     <use x="632.154297" xlink:href="#DejaVuSans-63"/>
     <use x="687.134766" xlink:href="#DejaVuSans-69"/>
     <use x="714.917969" xlink:href="#DejaVuSans-65"/>
     <use x="776.441406" xlink:href="#DejaVuSans-6e"/>
     <use x="839.820312" xlink:href="#DejaVuSans-63"/>
     <use x="894.800781" xlink:href="#DejaVuSans-79"/>
     <use x="953.980469" xlink:href="#DejaVuSans-20"/>
     <use x="985.767578" xlink:href="#DejaVuSans-76"/>
     <use x="1044.947266" xlink:href="#DejaVuSans-73"/>
     <use x="1097.046875" xlink:href="#DejaVuSans-2e"/>
     <use x="1128.833984" xlink:href="#DejaVuSans-20"/>
     <use x="1160.621094" xlink:href="#DejaVuSans-4e"/>
     <use x="1235.425781" xlink:href="#DejaVuSans-75"/>
     <use x="1298.804688" xlink:href="#DejaVuSans-6d"/>
     <use x="1396.216797" xlink:href="#DejaVuSans-62"/>
     <use x="1459.693359" xlink:href="#DejaVuSans-65"/>
     <use x="1521.216797" xlink:href="#DejaVuSans-72"/>
     <use x="1562.330078" xlink:href="#DejaVuSans-20"/>
     <use x="1594.117188" xlink:href="#DejaVuSans-6f"/>
     <use x="1655.298828" xlink:href="#DejaVuSans-66"/>
     <use x="1690.503906" xlink:href="#DejaVuSans-20"/>
     <use x="1722.291016" xlink:href="#DejaVuSans-4c"/>
     <use x="1778.003906" xlink:href="#DejaVuSans-61"/>
     <use x="1839.283203" xlink:href="#DejaVuSans-79"/>
     <use x="1898.462891" xlink:href="#DejaVuSans-65"/>
     <use x="1959.986328" xlink:href="#DejaVuSans-72"/>
     <use x="2001.099609" xlink:href="#DejaVuSans-73"/>
     <use x="2053.199219" xlink:href="#DejaVuSans-20"/>
     <use x="2084.986328" xlink:href="#DejaVuSans-61"/>
     <use x="2146.265625" xlink:href="#DejaVuSans-74"/>
     <use x="2185.474609" xlink:href="#DejaVuSans-20"/>
     <use x="2217.261719" xlink:href="#DejaVuSans-32"/>
     <use x="2280.884766" xlink:href="#DejaVuSans-2e"/>
     <use x="2312.671875" xlink:href="#DejaVuSans-35"/>
     <use x="2376.294922" xlink:href="#DejaVuSans-38"/>
     <use x="2439.917969" xlink:href="#DejaVuSans-20"/>
     <use x="2471.705078" xlink:href="#DejaVuSans-75"/>
     <use x="2535.083984" xlink:href="#DejaVuSans-6d"/>
     <use x="2632.496094" xlink:href="#DejaVuSans-20"/>
     <use x="2664.283203" xlink:href="#DejaVuSans-77"/>
     <use x="2746.070312" xlink:href="#DejaVuSans-69"/>
     <use x="2773.853516" xlink:href="#DejaVuSans-74"/>
     <use x="2813.0625" xlink:href="#DejaVuSans-68"/>
     <use x="2876.441406" xlink:href="#DejaVuSans-20"/>
     <use x="2908.228516" xlink:href="#DejaVuSans-56"/>
     <use x="2968.886719" xlink:href="#DejaVuSans-6f"/>
     <use x="3030.068359" xlink:href="#DejaVuSans-6c"/>
     <use x="3057.851562" xlink:href="#DejaVuSans-74"/>
     <use x="3097.060547" xlink:href="#DejaVuSans-61"/>
     <use x="3158.339844" xlink:href="#DejaVuSans-67"/>
     <use x="3221.816406" xlink:href="#DejaVuSans-65"/>
     <use x="3283.339844" xlink:href="#DejaVuSans-20"/>
     <use x="3315.126953" xlink:href="#DejaVuSans-4f"/>
     <use x="3393.837891" xlink:href="#DejaVuSans-6e"/>
    </g>
   </g>
  </g>
 </g>
 <defs>
  <clipPath id="p1d6956c56e">
   <rect height="266.112" width="357.12" x="43.78125" y="22.318125"/>
  </clipPath>
 </defs>
</svg>
