<?xml version="1.0" encoding="utf-8" standalone="no"?>
<!DOCTYPE svg PUBLIC "-//W3C//DTD SVG 1.1//EN"
  "http://www.w3.org/Graphics/SVG/1.1/DTD/svg11.dtd">
<svg height="325.986375pt" version="1.1" viewBox="0 0 720.801 325.986375" width="720.801pt" xmlns="http://www.w3.org/2000/svg" xmlns:xlink="http://www.w3.org/1999/xlink">
 <metadata>
  <rdf:RDF xmlns:cc="http://creativecommons.org/ns#" xmlns:dc="http://purl.org/dc/elements/1.1/" xmlns:rdf="http://www.w3.org/1999/02/22-rdf-syntax-ns#">
   <cc:Work>
    <dc:type rdf:resource="http://purl.org/dc/dcmitype/StillImage"/>
    <dc:date>2021-08-31T13:54:25.020913</dc:date>
    <dc:format>image/svg+xml</dc:format>
    <dc:creator>
     <cc:Agent>
      <dc:title>Matplotlib v3.4.2, https://matplotlib.org/</dc:title>
     </cc:Agent>
    </dc:creator>
   </cc:Work>
  </rdf:RDF>
 </metadata>
 <defs>
  <style type="text/css">*{stroke-linecap:butt;stroke-linejoin:round;}</style>
 </defs>
 <g id="figure_1">
  <g id="patch_1">
   <path d="M 0 325.986375 
L 720.801 325.986375 
L 720.801 0 
L 0 0 
z
" style="fill:#ffffff;"/>
  </g>
  <g id="axes_1">
   <g id="patch_2">
    <path d="M 46.965625 288.430125 
L 404.085625 288.430125 
L 404.085625 22.318125 
L 46.965625 22.318125 
z
" style="fill:#ffffff;"/>
   </g>
   <g id="matplotlib.axis_1">
    <g id="xtick_1">
     <g id="line2d_1">
      <defs>
       <path d="M 0 0 
L 0 3.5 
" id="md0463acaf9" style="stroke:#000000;stroke-width:0.8;"/>
      </defs>
      <g>
       <use style="stroke:#000000;stroke-width:0.8;" x="63.198352" xlink:href="#md0463acaf9" y="288.430125"/>
      </g>
     </g>
     <g id="text_1">
      <!-- 0 -->
      <g transform="translate(60.017102 303.028562)scale(0.1 -0.1)">
       <defs>
        <path d="M 2034 4250 
Q 1547 4250 1301 3770 
Q 1056 3291 1056 2328 
Q 1056 1369 1301 889 
Q 1547 409 2034 409 
Q 2525 409 2770 889 
Q 3016 1369 3016 2328 
Q 3016 3291 2770 3770 
Q 2525 4250 2034 4250 
z
M 2034 4750 
Q 2819 4750 3233 4129 
Q 3647 3509 3647 2328 
Q 3647 1150 3233 529 
Q 2819 -91 2034 -91 
Q 1250 -91 836 529 
Q 422 1150 422 2328 
Q 422 3509 836 4129 
Q 1250 4750 2034 4750 
z
" id="DejaVuSans-30" transform="scale(0.015625)"/>
       </defs>
       <use xlink:href="#DejaVuSans-30"/>
      </g>
     </g>
    </g>
    <g id="xtick_2">
     <g id="line2d_2">
      <g>
       <use style="stroke:#000000;stroke-width:0.8;" x="106.485625" xlink:href="#md0463acaf9" y="288.430125"/>
      </g>
     </g>
     <g id="text_2">
      <!-- 2 -->
      <g transform="translate(103.304375 303.028562)scale(0.1 -0.1)">
       <defs>
        <path d="M 1228 531 
L 3431 531 
L 3431 0 
L 469 0 
L 469 531 
Q 828 903 1448 1529 
Q 2069 2156 2228 2338 
Q 2531 2678 2651 2914 
Q 2772 3150 2772 3378 
Q 2772 3750 2511 3984 
Q 2250 4219 1831 4219 
Q 1534 4219 1204 4116 
Q 875 4013 500 3803 
L 500 4441 
Q 881 4594 1212 4672 
Q 1544 4750 1819 4750 
Q 2544 4750 2975 4387 
Q 3406 4025 3406 3419 
Q 3406 3131 3298 2873 
Q 3191 2616 2906 2266 
Q 2828 2175 2409 1742 
Q 1991 1309 1228 531 
z
" id="DejaVuSans-32" transform="scale(0.015625)"/>
       </defs>
       <use xlink:href="#DejaVuSans-32"/>
      </g>
     </g>
    </g>
    <g id="xtick_3">
     <g id="line2d_3">
      <g>
       <use style="stroke:#000000;stroke-width:0.8;" x="149.772898" xlink:href="#md0463acaf9" y="288.430125"/>
      </g>
     </g>
     <g id="text_3">
      <!-- 4 -->
      <g transform="translate(146.591648 303.028562)scale(0.1 -0.1)">
       <defs>
        <path d="M 2419 4116 
L 825 1625 
L 2419 1625 
L 2419 4116 
z
M 2253 4666 
L 3047 4666 
L 3047 1625 
L 3713 1625 
L 3713 1100 
L 3047 1100 
L 3047 0 
L 2419 0 
L 2419 1100 
L 313 1100 
L 313 1709 
L 2253 4666 
z
" id="DejaVuSans-34" transform="scale(0.015625)"/>
       </defs>
       <use xlink:href="#DejaVuSans-34"/>
      </g>
     </g>
    </g>
    <g id="xtick_4">
     <g id="line2d_4">
      <g>
       <use style="stroke:#000000;stroke-width:0.8;" x="193.06017" xlink:href="#md0463acaf9" y="288.430125"/>
      </g>
     </g>
     <g id="text_4">
      <!-- 6 -->
      <g transform="translate(189.87892 303.028562)scale(0.1 -0.1)">
       <defs>
        <path d="M 2113 2584 
Q 1688 2584 1439 2293 
Q 1191 2003 1191 1497 
Q 1191 994 1439 701 
Q 1688 409 2113 409 
Q 2538 409 2786 701 
Q 3034 994 3034 1497 
Q 3034 2003 2786 2293 
Q 2538 2584 2113 2584 
z
M 3366 4563 
L 3366 3988 
Q 3128 4100 2886 4159 
Q 2644 4219 2406 4219 
Q 1781 4219 1451 3797 
Q 1122 3375 1075 2522 
Q 1259 2794 1537 2939 
Q 1816 3084 2150 3084 
Q 2853 3084 3261 2657 
Q 3669 2231 3669 1497 
Q 3669 778 3244 343 
Q 2819 -91 2113 -91 
Q 1303 -91 875 529 
Q 447 1150 447 2328 
Q 447 3434 972 4092 
Q 1497 4750 2381 4750 
Q 2619 4750 2861 4703 
Q 3103 4656 3366 4563 
z
" id="DejaVuSans-36" transform="scale(0.015625)"/>
       </defs>
       <use xlink:href="#DejaVuSans-36"/>
      </g>
     </g>
    </g>
    <g id="xtick_5">
     <g id="line2d_5">
      <g>
       <use style="stroke:#000000;stroke-width:0.8;" x="236.347443" xlink:href="#md0463acaf9" y="288.430125"/>
      </g>
     </g>
     <g id="text_5">
      <!-- 8 -->
      <g transform="translate(233.166193 303.028562)scale(0.1 -0.1)">
       <defs>
        <path d="M 2034 2216 
Q 1584 2216 1326 1975 
Q 1069 1734 1069 1313 
Q 1069 891 1326 650 
Q 1584 409 2034 409 
Q 2484 409 2743 651 
Q 3003 894 3003 1313 
Q 3003 1734 2745 1975 
Q 2488 2216 2034 2216 
z
M 1403 2484 
Q 997 2584 770 2862 
Q 544 3141 544 3541 
Q 544 4100 942 4425 
Q 1341 4750 2034 4750 
Q 2731 4750 3128 4425 
Q 3525 4100 3525 3541 
Q 3525 3141 3298 2862 
Q 3072 2584 2669 2484 
Q 3125 2378 3379 2068 
Q 3634 1759 3634 1313 
Q 3634 634 3220 271 
Q 2806 -91 2034 -91 
Q 1263 -91 848 271 
Q 434 634 434 1313 
Q 434 1759 690 2068 
Q 947 2378 1403 2484 
z
M 1172 3481 
Q 1172 3119 1398 2916 
Q 1625 2713 2034 2713 
Q 2441 2713 2670 2916 
Q 2900 3119 2900 3481 
Q 2900 3844 2670 4047 
Q 2441 4250 2034 4250 
Q 1625 4250 1398 4047 
Q 1172 3844 1172 3481 
z
" id="DejaVuSans-38" transform="scale(0.015625)"/>
       </defs>
       <use xlink:href="#DejaVuSans-38"/>
      </g>
     </g>
    </g>
    <g id="xtick_6">
     <g id="line2d_6">
      <g>
       <use style="stroke:#000000;stroke-width:0.8;" x="279.634716" xlink:href="#md0463acaf9" y="288.430125"/>
      </g>
     </g>
     <g id="text_6">
      <!-- 10 -->
      <g transform="translate(273.272216 303.028562)scale(0.1 -0.1)">
       <defs>
        <path d="M 794 531 
L 1825 531 
L 1825 4091 
L 703 3866 
L 703 4441 
L 1819 4666 
L 2450 4666 
L 2450 531 
L 3481 531 
L 3481 0 
L 794 0 
L 794 531 
z
" id="DejaVuSans-31" transform="scale(0.015625)"/>
       </defs>
       <use xlink:href="#DejaVuSans-31"/>
       <use x="63.623047" xlink:href="#DejaVuSans-30"/>
      </g>
     </g>
    </g>
    <g id="xtick_7">
     <g id="line2d_7">
      <g>
       <use style="stroke:#000000;stroke-width:0.8;" x="322.921989" xlink:href="#md0463acaf9" y="288.430125"/>
      </g>
     </g>
     <g id="text_7">
      <!-- 12 -->
      <g transform="translate(316.559489 303.028562)scale(0.1 -0.1)">
       <use xlink:href="#DejaVuSans-31"/>
       <use x="63.623047" xlink:href="#DejaVuSans-32"/>
      </g>
     </g>
    </g>
    <g id="xtick_8">
     <g id="line2d_8">
      <g>
       <use style="stroke:#000000;stroke-width:0.8;" x="366.209261" xlink:href="#md0463acaf9" y="288.430125"/>
      </g>
     </g>
     <g id="text_8">
      <!-- 14 -->
      <g transform="translate(359.846761 303.028562)scale(0.1 -0.1)">
       <use xlink:href="#DejaVuSans-31"/>
       <use x="63.623047" xlink:href="#DejaVuSans-34"/>
      </g>
     </g>
    </g>
    <g id="text_9">
     <!-- Number of Layers [#] -->
     <g transform="translate(171.215469 316.706687)scale(0.1 -0.1)">
      <defs>
       <path d="M 628 4666 
L 1478 4666 
L 3547 763 
L 3547 4666 
L 4159 4666 
L 4159 0 
L 3309 0 
L 1241 3903 
L 1241 0 
L 628 0 
L 628 4666 
z
" id="DejaVuSans-4e" transform="scale(0.015625)"/>
       <path d="M 544 1381 
L 544 3500 
L 1119 3500 
L 1119 1403 
Q 1119 906 1312 657 
Q 1506 409 1894 409 
Q 2359 409 2629 706 
Q 2900 1003 2900 1516 
L 2900 3500 
L 3475 3500 
L 3475 0 
L 2900 0 
L 2900 538 
Q 2691 219 2414 64 
Q 2138 -91 1772 -91 
Q 1169 -91 856 284 
Q 544 659 544 1381 
z
M 1991 3584 
L 1991 3584 
z
" id="DejaVuSans-75" transform="scale(0.015625)"/>
       <path d="M 3328 2828 
Q 3544 3216 3844 3400 
Q 4144 3584 4550 3584 
Q 5097 3584 5394 3201 
Q 5691 2819 5691 2113 
L 5691 0 
L 5113 0 
L 5113 2094 
Q 5113 2597 4934 2840 
Q 4756 3084 4391 3084 
Q 3944 3084 3684 2787 
Q 3425 2491 3425 1978 
L 3425 0 
L 2847 0 
L 2847 2094 
Q 2847 2600 2669 2842 
Q 2491 3084 2119 3084 
Q 1678 3084 1418 2786 
Q 1159 2488 1159 1978 
L 1159 0 
L 581 0 
L 581 3500 
L 1159 3500 
L 1159 2956 
Q 1356 3278 1631 3431 
Q 1906 3584 2284 3584 
Q 2666 3584 2933 3390 
Q 3200 3197 3328 2828 
z
" id="DejaVuSans-6d" transform="scale(0.015625)"/>
       <path d="M 3116 1747 
Q 3116 2381 2855 2742 
Q 2594 3103 2138 3103 
Q 1681 3103 1420 2742 
Q 1159 2381 1159 1747 
Q 1159 1113 1420 752 
Q 1681 391 2138 391 
Q 2594 391 2855 752 
Q 3116 1113 3116 1747 
z
M 1159 2969 
Q 1341 3281 1617 3432 
Q 1894 3584 2278 3584 
Q 2916 3584 3314 3078 
Q 3713 2572 3713 1747 
Q 3713 922 3314 415 
Q 2916 -91 2278 -91 
Q 1894 -91 1617 61 
Q 1341 213 1159 525 
L 1159 0 
L 581 0 
L 581 4863 
L 1159 4863 
L 1159 2969 
z
" id="DejaVuSans-62" transform="scale(0.015625)"/>
       <path d="M 3597 1894 
L 3597 1613 
L 953 1613 
Q 991 1019 1311 708 
Q 1631 397 2203 397 
Q 2534 397 2845 478 
Q 3156 559 3463 722 
L 3463 178 
Q 3153 47 2828 -22 
Q 2503 -91 2169 -91 
Q 1331 -91 842 396 
Q 353 884 353 1716 
Q 353 2575 817 3079 
Q 1281 3584 2069 3584 
Q 2775 3584 3186 3129 
Q 3597 2675 3597 1894 
z
M 3022 2063 
Q 3016 2534 2758 2815 
Q 2500 3097 2075 3097 
Q 1594 3097 1305 2825 
Q 1016 2553 972 2059 
L 3022 2063 
z
" id="DejaVuSans-65" transform="scale(0.015625)"/>
       <path d="M 2631 2963 
Q 2534 3019 2420 3045 
Q 2306 3072 2169 3072 
Q 1681 3072 1420 2755 
Q 1159 2438 1159 1844 
L 1159 0 
L 581 0 
L 581 3500 
L 1159 3500 
L 1159 2956 
Q 1341 3275 1631 3429 
Q 1922 3584 2338 3584 
Q 2397 3584 2469 3576 
Q 2541 3569 2628 3553 
L 2631 2963 
z
" id="DejaVuSans-72" transform="scale(0.015625)"/>
       <path id="DejaVuSans-20" transform="scale(0.015625)"/>
       <path d="M 1959 3097 
Q 1497 3097 1228 2736 
Q 959 2375 959 1747 
Q 959 1119 1226 758 
Q 1494 397 1959 397 
Q 2419 397 2687 759 
Q 2956 1122 2956 1747 
Q 2956 2369 2687 2733 
Q 2419 3097 1959 3097 
z
M 1959 3584 
Q 2709 3584 3137 3096 
Q 3566 2609 3566 1747 
Q 3566 888 3137 398 
Q 2709 -91 1959 -91 
Q 1206 -91 779 398 
Q 353 888 353 1747 
Q 353 2609 779 3096 
Q 1206 3584 1959 3584 
z
" id="DejaVuSans-6f" transform="scale(0.015625)"/>
       <path d="M 2375 4863 
L 2375 4384 
L 1825 4384 
Q 1516 4384 1395 4259 
Q 1275 4134 1275 3809 
L 1275 3500 
L 2222 3500 
L 2222 3053 
L 1275 3053 
L 1275 0 
L 697 0 
L 697 3053 
L 147 3053 
L 147 3500 
L 697 3500 
L 697 3744 
Q 697 4328 969 4595 
Q 1241 4863 1831 4863 
L 2375 4863 
z
" id="DejaVuSans-66" transform="scale(0.015625)"/>
       <path d="M 628 4666 
L 1259 4666 
L 1259 531 
L 3531 531 
L 3531 0 
L 628 0 
L 628 4666 
z
" id="DejaVuSans-4c" transform="scale(0.015625)"/>
       <path d="M 2194 1759 
Q 1497 1759 1228 1600 
Q 959 1441 959 1056 
Q 959 750 1161 570 
Q 1363 391 1709 391 
Q 2188 391 2477 730 
Q 2766 1069 2766 1631 
L 2766 1759 
L 2194 1759 
z
M 3341 1997 
L 3341 0 
L 2766 0 
L 2766 531 
Q 2569 213 2275 61 
Q 1981 -91 1556 -91 
Q 1019 -91 701 211 
Q 384 513 384 1019 
Q 384 1609 779 1909 
Q 1175 2209 1959 2209 
L 2766 2209 
L 2766 2266 
Q 2766 2663 2505 2880 
Q 2244 3097 1772 3097 
Q 1472 3097 1187 3025 
Q 903 2953 641 2809 
L 641 3341 
Q 956 3463 1253 3523 
Q 1550 3584 1831 3584 
Q 2591 3584 2966 3190 
Q 3341 2797 3341 1997 
z
" id="DejaVuSans-61" transform="scale(0.015625)"/>
       <path d="M 2059 -325 
Q 1816 -950 1584 -1140 
Q 1353 -1331 966 -1331 
L 506 -1331 
L 506 -850 
L 844 -850 
Q 1081 -850 1212 -737 
Q 1344 -625 1503 -206 
L 1606 56 
L 191 3500 
L 800 3500 
L 1894 763 
L 2988 3500 
L 3597 3500 
L 2059 -325 
z
" id="DejaVuSans-79" transform="scale(0.015625)"/>
       <path d="M 2834 3397 
L 2834 2853 
Q 2591 2978 2328 3040 
Q 2066 3103 1784 3103 
Q 1356 3103 1142 2972 
Q 928 2841 928 2578 
Q 928 2378 1081 2264 
Q 1234 2150 1697 2047 
L 1894 2003 
Q 2506 1872 2764 1633 
Q 3022 1394 3022 966 
Q 3022 478 2636 193 
Q 2250 -91 1575 -91 
Q 1294 -91 989 -36 
Q 684 19 347 128 
L 347 722 
Q 666 556 975 473 
Q 1284 391 1588 391 
Q 1994 391 2212 530 
Q 2431 669 2431 922 
Q 2431 1156 2273 1281 
Q 2116 1406 1581 1522 
L 1381 1569 
Q 847 1681 609 1914 
Q 372 2147 372 2553 
Q 372 3047 722 3315 
Q 1072 3584 1716 3584 
Q 2034 3584 2315 3537 
Q 2597 3491 2834 3397 
z
" id="DejaVuSans-73" transform="scale(0.015625)"/>
       <path d="M 550 4863 
L 1875 4863 
L 1875 4416 
L 1125 4416 
L 1125 -397 
L 1875 -397 
L 1875 -844 
L 550 -844 
L 550 4863 
z
" id="DejaVuSans-5b" transform="scale(0.015625)"/>
       <path d="M 3272 2816 
L 2363 2816 
L 2100 1772 
L 3016 1772 
L 3272 2816 
z
M 2803 4594 
L 2478 3297 
L 3391 3297 
L 3719 4594 
L 4219 4594 
L 3897 3297 
L 4872 3297 
L 4872 2816 
L 3775 2816 
L 3519 1772 
L 4513 1772 
L 4513 1294 
L 3397 1294 
L 3072 0 
L 2572 0 
L 2894 1294 
L 1978 1294 
L 1656 0 
L 1153 0 
L 1478 1294 
L 494 1294 
L 494 1772 
L 1594 1772 
L 1856 2816 
L 850 2816 
L 850 3297 
L 1978 3297 
L 2297 4594 
L 2803 4594 
z
" id="DejaVuSans-23" transform="scale(0.015625)"/>
       <path d="M 1947 4863 
L 1947 -844 
L 622 -844 
L 622 -397 
L 1369 -397 
L 1369 4416 
L 622 4416 
L 622 4863 
L 1947 4863 
z
" id="DejaVuSans-5d" transform="scale(0.015625)"/>
      </defs>
      <use xlink:href="#DejaVuSans-4e"/>
      <use x="74.804688" xlink:href="#DejaVuSans-75"/>
      <use x="138.183594" xlink:href="#DejaVuSans-6d"/>
      <use x="235.595703" xlink:href="#DejaVuSans-62"/>
      <use x="299.072266" xlink:href="#DejaVuSans-65"/>
      <use x="360.595703" xlink:href="#DejaVuSans-72"/>
      <use x="401.708984" xlink:href="#DejaVuSans-20"/>
      <use x="433.496094" xlink:href="#DejaVuSans-6f"/>
      <use x="494.677734" xlink:href="#DejaVuSans-66"/>
      <use x="529.882812" xlink:href="#DejaVuSans-20"/>
      <use x="561.669922" xlink:href="#DejaVuSans-4c"/>
      <use x="617.382812" xlink:href="#DejaVuSans-61"/>
      <use x="678.662109" xlink:href="#DejaVuSans-79"/>
      <use x="737.841797" xlink:href="#DejaVuSans-65"/>
      <use x="799.365234" xlink:href="#DejaVuSans-72"/>
      <use x="840.478516" xlink:href="#DejaVuSans-73"/>
      <use x="892.578125" xlink:href="#DejaVuSans-20"/>
      <use x="924.365234" xlink:href="#DejaVuSans-5b"/>
      <use x="963.378906" xlink:href="#DejaVuSans-23"/>
      <use x="1047.167969" xlink:href="#DejaVuSans-5d"/>
     </g>
    </g>
   </g>
   <g id="matplotlib.axis_2">
    <g id="ytick_1">
     <g id="line2d_9">
      <defs>
       <path d="M 0 0 
L -3.5 0 
" id="med596d4c9e" style="stroke:#000000;stroke-width:0.8;"/>
      </defs>
      <g>
       <use style="stroke:#000000;stroke-width:0.8;" x="46.965625" xlink:href="#med596d4c9e" y="276.3339"/>
      </g>
     </g>
     <g id="text_10">
      <!-- 0 -->
      <g transform="translate(33.603125 280.133119)scale(0.1 -0.1)">
       <use xlink:href="#DejaVuSans-30"/>
      </g>
     </g>
    </g>
    <g id="ytick_2">
     <g id="line2d_10">
      <g>
       <use style="stroke:#000000;stroke-width:0.8;" x="46.965625" xlink:href="#med596d4c9e" y="231.405128"/>
      </g>
     </g>
     <g id="text_11">
      <!-- 20 -->
      <g transform="translate(27.240625 235.204347)scale(0.1 -0.1)">
       <use xlink:href="#DejaVuSans-32"/>
       <use x="63.623047" xlink:href="#DejaVuSans-30"/>
      </g>
     </g>
    </g>
    <g id="ytick_3">
     <g id="line2d_11">
      <g>
       <use style="stroke:#000000;stroke-width:0.8;" x="46.965625" xlink:href="#med596d4c9e" y="186.476355"/>
      </g>
     </g>
     <g id="text_12">
      <!-- 40 -->
      <g transform="translate(27.240625 190.275574)scale(0.1 -0.1)">
       <use xlink:href="#DejaVuSans-34"/>
       <use x="63.623047" xlink:href="#DejaVuSans-30"/>
      </g>
     </g>
    </g>
    <g id="ytick_4">
     <g id="line2d_12">
      <g>
       <use style="stroke:#000000;stroke-width:0.8;" x="46.965625" xlink:href="#med596d4c9e" y="141.547583"/>
      </g>
     </g>
     <g id="text_13">
      <!-- 60 -->
      <g transform="translate(27.240625 145.346801)scale(0.1 -0.1)">
       <use xlink:href="#DejaVuSans-36"/>
       <use x="63.623047" xlink:href="#DejaVuSans-30"/>
      </g>
     </g>
    </g>
    <g id="ytick_5">
     <g id="line2d_13">
      <g>
       <use style="stroke:#000000;stroke-width:0.8;" x="46.965625" xlink:href="#med596d4c9e" y="96.61881"/>
      </g>
     </g>
     <g id="text_14">
      <!-- 80 -->
      <g transform="translate(27.240625 100.418029)scale(0.1 -0.1)">
       <use xlink:href="#DejaVuSans-38"/>
       <use x="63.623047" xlink:href="#DejaVuSans-30"/>
      </g>
     </g>
    </g>
    <g id="ytick_6">
     <g id="line2d_14">
      <g>
       <use style="stroke:#000000;stroke-width:0.8;" x="46.965625" xlink:href="#med596d4c9e" y="51.690038"/>
      </g>
     </g>
     <g id="text_15">
      <!-- 100 -->
      <g transform="translate(20.878125 55.489256)scale(0.1 -0.1)">
       <use xlink:href="#DejaVuSans-31"/>
       <use x="63.623047" xlink:href="#DejaVuSans-30"/>
       <use x="127.246094" xlink:href="#DejaVuSans-30"/>
      </g>
     </g>
    </g>
    <g id="text_16">
     <!-- Pressure Drop [Pa] -->
     <g transform="translate(14.798438 201.678812)rotate(-90)scale(0.1 -0.1)">
      <defs>
       <path d="M 1259 4147 
L 1259 2394 
L 2053 2394 
Q 2494 2394 2734 2622 
Q 2975 2850 2975 3272 
Q 2975 3691 2734 3919 
Q 2494 4147 2053 4147 
L 1259 4147 
z
M 628 4666 
L 2053 4666 
Q 2838 4666 3239 4311 
Q 3641 3956 3641 3272 
Q 3641 2581 3239 2228 
Q 2838 1875 2053 1875 
L 1259 1875 
L 1259 0 
L 628 0 
L 628 4666 
z
" id="DejaVuSans-50" transform="scale(0.015625)"/>
       <path d="M 1259 4147 
L 1259 519 
L 2022 519 
Q 2988 519 3436 956 
Q 3884 1394 3884 2338 
Q 3884 3275 3436 3711 
Q 2988 4147 2022 4147 
L 1259 4147 
z
M 628 4666 
L 1925 4666 
Q 3281 4666 3915 4102 
Q 4550 3538 4550 2338 
Q 4550 1131 3912 565 
Q 3275 0 1925 0 
L 628 0 
L 628 4666 
z
" id="DejaVuSans-44" transform="scale(0.015625)"/>
       <path d="M 1159 525 
L 1159 -1331 
L 581 -1331 
L 581 3500 
L 1159 3500 
L 1159 2969 
Q 1341 3281 1617 3432 
Q 1894 3584 2278 3584 
Q 2916 3584 3314 3078 
Q 3713 2572 3713 1747 
Q 3713 922 3314 415 
Q 2916 -91 2278 -91 
Q 1894 -91 1617 61 
Q 1341 213 1159 525 
z
M 3116 1747 
Q 3116 2381 2855 2742 
Q 2594 3103 2138 3103 
Q 1681 3103 1420 2742 
Q 1159 2381 1159 1747 
Q 1159 1113 1420 752 
Q 1681 391 2138 391 
Q 2594 391 2855 752 
Q 3116 1113 3116 1747 
z
" id="DejaVuSans-70" transform="scale(0.015625)"/>
      </defs>
      <use xlink:href="#DejaVuSans-50"/>
      <use x="58.552734" xlink:href="#DejaVuSans-72"/>
      <use x="97.416016" xlink:href="#DejaVuSans-65"/>
      <use x="158.939453" xlink:href="#DejaVuSans-73"/>
      <use x="211.039062" xlink:href="#DejaVuSans-73"/>
      <use x="263.138672" xlink:href="#DejaVuSans-75"/>
      <use x="326.517578" xlink:href="#DejaVuSans-72"/>
      <use x="365.380859" xlink:href="#DejaVuSans-65"/>
      <use x="426.904297" xlink:href="#DejaVuSans-20"/>
      <use x="458.691406" xlink:href="#DejaVuSans-44"/>
      <use x="535.693359" xlink:href="#DejaVuSans-72"/>
      <use x="574.556641" xlink:href="#DejaVuSans-6f"/>
      <use x="635.738281" xlink:href="#DejaVuSans-70"/>
      <use x="699.214844" xlink:href="#DejaVuSans-20"/>
      <use x="731.001953" xlink:href="#DejaVuSans-5b"/>
      <use x="770.015625" xlink:href="#DejaVuSans-50"/>
      <use x="825.818359" xlink:href="#DejaVuSans-61"/>
      <use x="887.097656" xlink:href="#DejaVuSans-5d"/>
     </g>
    </g>
   </g>
   <g id="LineCollection_1">
    <path clip-path="url(#p5316cda019)" d="M 63.198352 276.334125 
L 63.198352 276.333676 
" style="fill:none;stroke:#0d0887;"/>
    <path clip-path="url(#p5316cda019)" d="M 128.129261 237.705799 
L 128.129261 235.587837 
" style="fill:none;stroke:#0d0887;"/>
    <path clip-path="url(#p5316cda019)" d="M 171.416534 211.261327 
L 171.416534 203.624904 
" style="fill:none;stroke:#0d0887;"/>
    <path clip-path="url(#p5316cda019)" d="M 214.703807 181.790028 
L 214.703807 176.186425 
" style="fill:none;stroke:#0d0887;"/>
   </g>
   <g id="LineCollection_2">
    <path clip-path="url(#p5316cda019)" d="M 63.198352 276.334125 
L 63.198352 276.333676 
" style="fill:none;stroke:#5302a3;"/>
    <path clip-path="url(#p5316cda019)" d="M 84.841989 262.416624 
L 84.841989 260.298662 
" style="fill:none;stroke:#5302a3;"/>
    <path clip-path="url(#p5316cda019)" d="M 106.485625 250.199597 
L 106.485625 242.563174 
" style="fill:none;stroke:#5302a3;"/>
    <path clip-path="url(#p5316cda019)" d="M 128.129261 232.709303 
L 128.129261 227.105701 
" style="fill:none;stroke:#5302a3;"/>
   </g>
   <g id="LineCollection_3">
    <path clip-path="url(#p5316cda019)" d="M 63.198352 276.334125 
L 63.198352 276.333676 
" style="fill:none;stroke:#8b0aa5;"/>
    <path clip-path="url(#p5316cda019)" d="M 84.841989 227.272235 
L 84.841989 217.566511 
" style="fill:none;stroke:#8b0aa5;"/>
    <path clip-path="url(#p5316cda019)" d="M 106.485625 179.136521 
L 106.485625 163.863675 
" style="fill:none;stroke:#8b0aa5;"/>
    <path clip-path="url(#p5316cda019)" d="M 128.129261 120.69047 
L 128.129261 95.011537 
" style="fill:none;stroke:#8b0aa5;"/>
   </g>
   <g id="LineCollection_4">
    <path clip-path="url(#p5316cda019)" d="M 63.198352 276.334125 
L 63.198352 276.333676 
" style="fill:none;stroke:#b83289;"/>
    <path clip-path="url(#p5316cda019)" d="M 84.841989 217.28733 
L 84.841989 191.608398 
" style="fill:none;stroke:#b83289;"/>
    <path clip-path="url(#p5316cda019)" d="M 106.485625 147.281134 
L 106.485625 138.809283 
" style="fill:none;stroke:#b83289;"/>
    <path clip-path="url(#p5316cda019)" d="M 128.129261 45.003938 
L 128.129261 34.414125 
" style="fill:none;stroke:#b83289;"/>
   </g>
   <g id="LineCollection_5">
    <path clip-path="url(#p5316cda019)" d="M 63.198352 276.334125 
L 63.198352 276.333676 
" style="fill:none;stroke:#db5c68;"/>
    <path clip-path="url(#p5316cda019)" d="M 84.841989 247.440367 
L 84.841989 245.322404 
" style="fill:none;stroke:#db5c68;"/>
    <path clip-path="url(#p5316cda019)" d="M 106.485625 217.733046 
L 106.485625 212.129443 
" style="fill:none;stroke:#db5c68;"/>
    <path clip-path="url(#p5316cda019)" d="M 128.129261 178.794776 
L 128.129261 173.191174 
" style="fill:none;stroke:#db5c68;"/>
   </g>
   <g id="LineCollection_6">
    <path clip-path="url(#p5316cda019)" d="M 63.198352 276.334125 
L 63.198352 276.333676 
" style="fill:none;stroke:#f48849;"/>
    <path clip-path="url(#p5316cda019)" d="M 171.416534 255.703724 
L 171.416534 252.035305 
" style="fill:none;stroke:#f48849;"/>
    <path clip-path="url(#p5316cda019)" d="M 279.634716 226.500021 
L 279.634716 222.831602 
" style="fill:none;stroke:#f48849;"/>
    <path clip-path="url(#p5316cda019)" d="M 387.852898 189.082779 
L 387.852898 179.377055 
" style="fill:none;stroke:#f48849;"/>
   </g>
   <g id="LineCollection_7">
    <path clip-path="url(#p5316cda019)" d="M 63.198352 276.334125 
L 63.198352 276.333676 
" style="fill:none;stroke:#febd2a;"/>
    <path clip-path="url(#p5316cda019)" d="M 84.841989 223.841354 
L 84.841989 216.504516 
" style="fill:none;stroke:#febd2a;"/>
    <path clip-path="url(#p5316cda019)" d="M 106.485625 163.818519 
L 106.485625 158.214916 
" style="fill:none;stroke:#febd2a;"/>
    <path clip-path="url(#p5316cda019)" d="M 128.129261 111.262856 
L 128.129261 87.965267 
" style="fill:none;stroke:#febd2a;"/>
   </g>
   <g id="line2d_15">
    <defs>
     <path d="M 3 0 
L -3 -0 
" id="mcfc09ec910" style="stroke:#0d0887;stroke-width:2;"/>
    </defs>
    <g clip-path="url(#p5316cda019)">
     <use style="fill:#0d0887;stroke:#0d0887;stroke-width:2;" x="63.198352" xlink:href="#mcfc09ec910" y="276.334125"/>
     <use style="fill:#0d0887;stroke:#0d0887;stroke-width:2;" x="128.129261" xlink:href="#mcfc09ec910" y="237.705799"/>
     <use style="fill:#0d0887;stroke:#0d0887;stroke-width:2;" x="171.416534" xlink:href="#mcfc09ec910" y="211.261327"/>
     <use style="fill:#0d0887;stroke:#0d0887;stroke-width:2;" x="214.703807" xlink:href="#mcfc09ec910" y="181.790028"/>
    </g>
   </g>
   <g id="line2d_16">
    <g clip-path="url(#p5316cda019)">
     <use style="fill:#0d0887;stroke:#0d0887;stroke-width:2;" x="63.198352" xlink:href="#mcfc09ec910" y="276.333676"/>
     <use style="fill:#0d0887;stroke:#0d0887;stroke-width:2;" x="128.129261" xlink:href="#mcfc09ec910" y="235.587837"/>
     <use style="fill:#0d0887;stroke:#0d0887;stroke-width:2;" x="171.416534" xlink:href="#mcfc09ec910" y="203.624904"/>
     <use style="fill:#0d0887;stroke:#0d0887;stroke-width:2;" x="214.703807" xlink:href="#mcfc09ec910" y="176.186425"/>
    </g>
   </g>
   <g id="line2d_17">
    <path clip-path="url(#p5316cda019)" d="M 63.198352 276.3339 
L 65.603201 274.828062 
L 68.008049 273.322223 
L 70.412898 271.816384 
L 72.817746 270.310545 
L 75.222595 268.804707 
L 77.627443 267.298868 
L 80.032292 265.793029 
L 82.43714 264.28719 
L 84.841989 262.781351 
L 87.246837 261.275513 
L 89.651686 259.769674 
L 92.056534 258.263835 
L 94.461383 256.757996 
L 96.866231 255.252158 
L 99.27108 253.746319 
L 101.675928 252.24048 
L 104.080777 250.734641 
L 106.485625 249.228803 
L 108.890473 247.722964 
L 111.295322 246.217125 
L 113.70017 244.711286 
L 116.105019 243.205447 
L 118.509867 241.699609 
L 120.914716 240.19377 
L 123.319564 238.687931 
L 125.724413 237.182092 
L 128.129261 235.676254 
L 130.53411 234.170415 
L 132.938958 232.664576 
L 135.343807 231.158737 
L 137.748655 229.652899 
L 140.153504 228.14706 
L 142.558352 226.641221 
L 144.963201 225.135382 
L 147.368049 223.629543 
L 149.772898 222.123705 
L 152.177746 220.617866 
L 154.582595 219.112027 
L 156.987443 217.606188 
L 159.392292 216.10035 
L 161.79714 214.594511 
L 164.201989 213.088672 
L 166.606837 211.582833 
L 169.011686 210.076995 
L 171.416534 208.571156 
L 173.821383 207.065317 
L 176.226231 205.559478 
L 178.63108 204.053639 
L 181.035928 202.547801 
L 183.440777 201.041962 
L 185.845625 199.536123 
L 188.250473 198.030284 
L 190.655322 196.524446 
L 193.06017 195.018607 
L 195.465019 193.512768 
L 197.869867 192.006929 
L 200.274716 190.501091 
L 202.679564 188.995252 
L 205.084413 187.489413 
L 207.489261 185.983574 
L 209.89411 184.477736 
L 212.298958 182.971897 
L 214.703807 181.466058 
" style="fill:none;stroke:#0d0887;stroke-linecap:square;stroke-width:1.5;"/>
   </g>
   <g id="line2d_18">
    <defs>
     <path d="M 3 0 
L -3 -0 
" id="m4b3d208619" style="stroke:#5302a3;stroke-width:2;"/>
    </defs>
    <g clip-path="url(#p5316cda019)">
     <use style="fill:#5302a3;stroke:#5302a3;stroke-width:2;" x="63.198352" xlink:href="#m4b3d208619" y="276.334125"/>
     <use style="fill:#5302a3;stroke:#5302a3;stroke-width:2;" x="84.841989" xlink:href="#m4b3d208619" y="262.416624"/>
     <use style="fill:#5302a3;stroke:#5302a3;stroke-width:2;" x="106.485625" xlink:href="#m4b3d208619" y="250.199597"/>
     <use style="fill:#5302a3;stroke:#5302a3;stroke-width:2;" x="128.129261" xlink:href="#m4b3d208619" y="232.709303"/>
    </g>
   </g>
   <g id="line2d_19">
    <g clip-path="url(#p5316cda019)">
     <use style="fill:#5302a3;stroke:#5302a3;stroke-width:2;" x="63.198352" xlink:href="#m4b3d208619" y="276.333676"/>
     <use style="fill:#5302a3;stroke:#5302a3;stroke-width:2;" x="84.841989" xlink:href="#m4b3d208619" y="260.298662"/>
     <use style="fill:#5302a3;stroke:#5302a3;stroke-width:2;" x="106.485625" xlink:href="#m4b3d208619" y="242.563174"/>
     <use style="fill:#5302a3;stroke:#5302a3;stroke-width:2;" x="128.129261" xlink:href="#m4b3d208619" y="227.105701"/>
    </g>
   </g>
   <g id="line2d_20">
    <path clip-path="url(#p5316cda019)" d="M 63.198352 276.3339 
L 64.229002 275.60896 
L 65.259651 274.88402 
L 66.2903 274.159079 
L 67.32095 273.434139 
L 68.351599 272.709199 
L 69.382248 271.984258 
L 70.412898 271.259318 
L 71.443547 270.534378 
L 72.474196 269.809438 
L 73.504846 269.084497 
L 74.535495 268.359557 
L 75.566144 267.634617 
L 76.596794 266.909676 
L 77.627443 266.184736 
L 78.658093 265.459796 
L 79.688742 264.734855 
L 80.719391 264.009915 
L 81.750041 263.284975 
L 82.78069 262.560034 
L 83.811339 261.835094 
L 84.841989 261.110154 
L 85.872638 260.385214 
L 86.903287 259.660273 
L 87.933937 258.935333 
L 88.964586 258.210393 
L 89.995235 257.485452 
L 91.025885 256.760512 
L 92.056534 256.035572 
L 93.087183 255.310631 
L 94.117833 254.585691 
L 95.148482 253.860751 
L 96.179131 253.13581 
L 97.209781 252.41087 
L 98.24043 251.68593 
L 99.27108 250.960989 
L 100.301729 250.236049 
L 101.332378 249.511109 
L 102.363028 248.786169 
L 103.393677 248.061228 
L 104.424326 247.336288 
L 105.454976 246.611348 
L 106.485625 245.886407 
L 107.516274 245.161467 
L 108.546924 244.436527 
L 109.577573 243.711586 
L 110.608222 242.986646 
L 111.638872 242.261706 
L 112.669521 241.536765 
L 113.70017 240.811825 
L 114.73082 240.086885 
L 115.761469 239.361945 
L 116.792119 238.637004 
L 117.822768 237.912064 
L 118.853417 237.187124 
L 119.884067 236.462183 
L 120.914716 235.737243 
L 121.945365 235.012303 
L 122.976015 234.287362 
L 124.006664 233.562422 
L 125.037313 232.837482 
L 126.067963 232.112541 
L 127.098612 231.387601 
L 128.129261 230.662661 
" style="fill:none;stroke:#5302a3;stroke-linecap:square;stroke-width:1.5;"/>
   </g>
   <g id="line2d_21">
    <defs>
     <path d="M 3 0 
L -3 -0 
" id="m92d91316c6" style="stroke:#8b0aa5;stroke-width:2;"/>
    </defs>
    <g clip-path="url(#p5316cda019)">
     <use style="fill:#8b0aa5;stroke:#8b0aa5;stroke-width:2;" x="63.198352" xlink:href="#m92d91316c6" y="276.334125"/>
     <use style="fill:#8b0aa5;stroke:#8b0aa5;stroke-width:2;" x="84.841989" xlink:href="#m92d91316c6" y="227.272235"/>
     <use style="fill:#8b0aa5;stroke:#8b0aa5;stroke-width:2;" x="106.485625" xlink:href="#m92d91316c6" y="179.136521"/>
     <use style="fill:#8b0aa5;stroke:#8b0aa5;stroke-width:2;" x="128.129261" xlink:href="#m92d91316c6" y="120.69047"/>
    </g>
   </g>
   <g id="line2d_22">
    <g clip-path="url(#p5316cda019)">
     <use style="fill:#8b0aa5;stroke:#8b0aa5;stroke-width:2;" x="63.198352" xlink:href="#m92d91316c6" y="276.333676"/>
     <use style="fill:#8b0aa5;stroke:#8b0aa5;stroke-width:2;" x="84.841989" xlink:href="#m92d91316c6" y="217.566511"/>
     <use style="fill:#8b0aa5;stroke:#8b0aa5;stroke-width:2;" x="106.485625" xlink:href="#m92d91316c6" y="163.863675"/>
     <use style="fill:#8b0aa5;stroke:#8b0aa5;stroke-width:2;" x="128.129261" xlink:href="#m92d91316c6" y="95.011537"/>
    </g>
   </g>
   <g id="line2d_23">
    <path clip-path="url(#p5316cda019)" d="M 63.198352 276.3339 
L 64.229002 273.760817 
L 65.259651 271.187733 
L 66.2903 268.614649 
L 67.32095 266.041565 
L 68.351599 263.468482 
L 69.382248 260.895398 
L 70.412898 258.322314 
L 71.443547 255.74923 
L 72.474196 253.176147 
L 73.504846 250.603063 
L 74.535495 248.029979 
L 75.566144 245.456895 
L 76.596794 242.883811 
L 77.627443 240.310728 
L 78.658093 237.737644 
L 79.688742 235.16456 
L 80.719391 232.591476 
L 81.750041 230.018393 
L 82.78069 227.445309 
L 83.811339 224.872225 
L 84.841989 222.299141 
L 85.872638 219.726058 
L 86.903287 217.152974 
L 87.933937 214.57989 
L 88.964586 212.006806 
L 89.995235 209.433723 
L 91.025885 206.860639 
L 92.056534 204.287555 
L 93.087183 201.714471 
L 94.117833 199.141388 
L 95.148482 196.568304 
L 96.179131 193.99522 
L 97.209781 191.422136 
L 98.24043 188.849052 
L 99.27108 186.275969 
L 100.301729 183.702885 
L 101.332378 181.129801 
L 102.363028 178.556717 
L 103.393677 175.983634 
L 104.424326 173.41055 
L 105.454976 170.837466 
L 106.485625 168.264382 
L 107.516274 165.691299 
L 108.546924 163.118215 
L 109.577573 160.545131 
L 110.608222 157.972047 
L 111.638872 155.398964 
L 112.669521 152.82588 
L 113.70017 150.252796 
L 114.73082 147.679712 
L 115.761469 145.106629 
L 116.792119 142.533545 
L 117.822768 139.960461 
L 118.853417 137.387377 
L 119.884067 134.814293 
L 120.914716 132.24121 
L 121.945365 129.668126 
L 122.976015 127.095042 
L 124.006664 124.521958 
L 125.037313 121.948875 
L 126.067963 119.375791 
L 127.098612 116.802707 
L 128.129261 114.229623 
" style="fill:none;stroke:#8b0aa5;stroke-linecap:square;stroke-width:1.5;"/>
   </g>
   <g id="line2d_24">
    <defs>
     <path d="M 3 0 
L -3 -0 
" id="m289ead9a3d" style="stroke:#b83289;stroke-width:2;"/>
    </defs>
    <g clip-path="url(#p5316cda019)">
     <use style="fill:#b83289;stroke:#b83289;stroke-width:2;" x="63.198352" xlink:href="#m289ead9a3d" y="276.334125"/>
     <use style="fill:#b83289;stroke:#b83289;stroke-width:2;" x="84.841989" xlink:href="#m289ead9a3d" y="217.28733"/>
     <use style="fill:#b83289;stroke:#b83289;stroke-width:2;" x="106.485625" xlink:href="#m289ead9a3d" y="147.281134"/>
     <use style="fill:#b83289;stroke:#b83289;stroke-width:2;" x="128.129261" xlink:href="#m289ead9a3d" y="45.003938"/>
    </g>
   </g>
   <g id="line2d_25">
    <g clip-path="url(#p5316cda019)">
     <use style="fill:#b83289;stroke:#b83289;stroke-width:2;" x="63.198352" xlink:href="#m289ead9a3d" y="276.333676"/>
     <use style="fill:#b83289;stroke:#b83289;stroke-width:2;" x="84.841989" xlink:href="#m289ead9a3d" y="191.608398"/>
     <use style="fill:#b83289;stroke:#b83289;stroke-width:2;" x="106.485625" xlink:href="#m289ead9a3d" y="138.809283"/>
     <use style="fill:#b83289;stroke:#b83289;stroke-width:2;" x="128.129261" xlink:href="#m289ead9a3d" y="34.414125"/>
    </g>
   </g>
   <g id="line2d_26">
    <path clip-path="url(#p5316cda019)" d="M 63.198352 276.3339 
L 64.229002 272.817681 
L 65.259651 269.301461 
L 66.2903 265.785241 
L 67.32095 262.269022 
L 68.351599 258.752802 
L 69.382248 255.236582 
L 70.412898 251.720362 
L 71.443547 248.204143 
L 72.474196 244.687923 
L 73.504846 241.171703 
L 74.535495 237.655484 
L 75.566144 234.139264 
L 76.596794 230.623044 
L 77.627443 227.106825 
L 78.658093 223.590605 
L 79.688742 220.074385 
L 80.719391 216.558166 
L 81.750041 213.041946 
L 82.78069 209.525726 
L 83.811339 206.009506 
L 84.841989 202.493287 
L 85.872638 198.977067 
L 86.903287 195.460847 
L 87.933937 191.944628 
L 88.964586 188.428408 
L 89.995235 184.912188 
L 91.025885 181.395969 
L 92.056534 177.879749 
L 93.087183 174.363529 
L 94.117833 170.84731 
L 95.148482 167.33109 
L 96.179131 163.81487 
L 97.209781 160.29865 
L 98.24043 156.782431 
L 99.27108 153.266211 
L 100.301729 149.749991 
L 101.332378 146.233772 
L 102.363028 142.717552 
L 103.393677 139.201332 
L 104.424326 135.685113 
L 105.454976 132.168893 
L 106.485625 128.652673 
L 107.516274 125.136453 
L 108.546924 121.620234 
L 109.577573 118.104014 
L 110.608222 114.587794 
L 111.638872 111.071575 
L 112.669521 107.555355 
L 113.70017 104.039135 
L 114.73082 100.522916 
L 115.761469 97.006696 
L 116.792119 93.490476 
L 117.822768 89.974257 
L 118.853417 86.458037 
L 119.884067 82.941817 
L 120.914716 79.425597 
L 121.945365 75.909378 
L 122.976015 72.393158 
L 124.006664 68.876938 
L 125.037313 65.360719 
L 126.067963 61.844499 
L 127.098612 58.328279 
L 128.129261 54.81206 
" style="fill:none;stroke:#b83289;stroke-linecap:square;stroke-width:1.5;"/>
   </g>
   <g id="line2d_27">
    <defs>
     <path d="M 3 0 
L -3 -0 
" id="m549e1933e2" style="stroke:#db5c68;stroke-width:2;"/>
    </defs>
    <g clip-path="url(#p5316cda019)">
     <use style="fill:#db5c68;stroke:#db5c68;stroke-width:2;" x="63.198352" xlink:href="#m549e1933e2" y="276.334125"/>
     <use style="fill:#db5c68;stroke:#db5c68;stroke-width:2;" x="84.841989" xlink:href="#m549e1933e2" y="247.440367"/>
     <use style="fill:#db5c68;stroke:#db5c68;stroke-width:2;" x="106.485625" xlink:href="#m549e1933e2" y="217.733046"/>
     <use style="fill:#db5c68;stroke:#db5c68;stroke-width:2;" x="128.129261" xlink:href="#m549e1933e2" y="178.794776"/>
    </g>
   </g>
   <g id="line2d_28">
    <g clip-path="url(#p5316cda019)">
     <use style="fill:#db5c68;stroke:#db5c68;stroke-width:2;" x="63.198352" xlink:href="#m549e1933e2" y="276.333676"/>
     <use style="fill:#db5c68;stroke:#db5c68;stroke-width:2;" x="84.841989" xlink:href="#m549e1933e2" y="245.322404"/>
     <use style="fill:#db5c68;stroke:#db5c68;stroke-width:2;" x="106.485625" xlink:href="#m549e1933e2" y="212.129443"/>
     <use style="fill:#db5c68;stroke:#db5c68;stroke-width:2;" x="128.129261" xlink:href="#m549e1933e2" y="173.191174"/>
    </g>
   </g>
   <g id="line2d_29">
    <path clip-path="url(#p5316cda019)" d="M 63.198352 276.3339 
L 64.229002 274.825577 
L 65.259651 273.317254 
L 66.2903 271.808931 
L 67.32095 270.300608 
L 68.351599 268.792285 
L 69.382248 267.283962 
L 70.412898 265.775639 
L 71.443547 264.267316 
L 72.474196 262.758993 
L 73.504846 261.25067 
L 74.535495 259.742346 
L 75.566144 258.234023 
L 76.596794 256.7257 
L 77.627443 255.217377 
L 78.658093 253.709054 
L 79.688742 252.200731 
L 80.719391 250.692408 
L 81.750041 249.184085 
L 82.78069 247.675762 
L 83.811339 246.167439 
L 84.841989 244.659116 
L 85.872638 243.150793 
L 86.903287 241.64247 
L 87.933937 240.134146 
L 88.964586 238.625823 
L 89.995235 237.1175 
L 91.025885 235.609177 
L 92.056534 234.100854 
L 93.087183 232.592531 
L 94.117833 231.084208 
L 95.148482 229.575885 
L 96.179131 228.067562 
L 97.209781 226.559239 
L 98.24043 225.050916 
L 99.27108 223.542593 
L 100.301729 222.03427 
L 101.332378 220.525946 
L 102.363028 219.017623 
L 103.393677 217.5093 
L 104.424326 216.000977 
L 105.454976 214.492654 
L 106.485625 212.984331 
L 107.516274 211.476008 
L 108.546924 209.967685 
L 109.577573 208.459362 
L 110.608222 206.951039 
L 111.638872 205.442716 
L 112.669521 203.934393 
L 113.70017 202.42607 
L 114.73082 200.917746 
L 115.761469 199.409423 
L 116.792119 197.9011 
L 117.822768 196.392777 
L 118.853417 194.884454 
L 119.884067 193.376131 
L 120.914716 191.867808 
L 121.945365 190.359485 
L 122.976015 188.851162 
L 124.006664 187.342839 
L 125.037313 185.834516 
L 126.067963 184.326193 
L 127.098612 182.817869 
L 128.129261 181.309546 
" style="fill:none;stroke:#db5c68;stroke-linecap:square;stroke-width:1.5;"/>
   </g>
   <g id="line2d_30">
    <defs>
     <path d="M 3 0 
L -3 -0 
" id="mcd7e4f9184" style="stroke:#f48849;stroke-width:2;"/>
    </defs>
    <g clip-path="url(#p5316cda019)">
     <use style="fill:#f48849;stroke:#f48849;stroke-width:2;" x="63.198352" xlink:href="#mcd7e4f9184" y="276.334125"/>
     <use style="fill:#f48849;stroke:#f48849;stroke-width:2;" x="171.416534" xlink:href="#mcd7e4f9184" y="255.703724"/>
     <use style="fill:#f48849;stroke:#f48849;stroke-width:2;" x="279.634716" xlink:href="#mcd7e4f9184" y="226.500021"/>
     <use style="fill:#f48849;stroke:#f48849;stroke-width:2;" x="387.852898" xlink:href="#mcd7e4f9184" y="189.082779"/>
    </g>
   </g>
   <g id="line2d_31">
    <g clip-path="url(#p5316cda019)">
     <use style="fill:#f48849;stroke:#f48849;stroke-width:2;" x="63.198352" xlink:href="#mcd7e4f9184" y="276.333676"/>
     <use style="fill:#f48849;stroke:#f48849;stroke-width:2;" x="171.416534" xlink:href="#mcd7e4f9184" y="252.035305"/>
     <use style="fill:#f48849;stroke:#f48849;stroke-width:2;" x="279.634716" xlink:href="#mcd7e4f9184" y="222.831602"/>
     <use style="fill:#f48849;stroke:#f48849;stroke-width:2;" x="387.852898" xlink:href="#mcd7e4f9184" y="179.377055"/>
    </g>
   </g>
   <g id="line2d_32">
    <path clip-path="url(#p5316cda019)" d="M 63.198352 276.3339 
L 68.351599 275.081827 
L 73.504846 273.829753 
L 78.658093 272.57768 
L 83.811339 271.325606 
L 88.964586 270.073533 
L 94.117833 268.821459 
L 99.27108 267.569386 
L 104.424326 266.317313 
L 109.577573 265.065239 
L 114.73082 263.813166 
L 119.884067 262.561092 
L 125.037313 261.309019 
L 130.19056 260.056945 
L 135.343807 258.804872 
L 140.497054 257.552798 
L 145.6503 256.300725 
L 150.803547 255.048651 
L 155.956794 253.796578 
L 161.110041 252.544504 
L 166.263287 251.292431 
L 171.416534 250.040357 
L 176.569781 248.788284 
L 181.723028 247.53621 
L 186.876274 246.284137 
L 192.029521 245.032063 
L 197.182768 243.77999 
L 202.336015 242.527916 
L 207.489261 241.275843 
L 212.642508 240.02377 
L 217.795755 238.771696 
L 222.949002 237.519623 
L 228.102248 236.267549 
L 233.255495 235.015476 
L 238.408742 233.763402 
L 243.561989 232.511329 
L 248.715235 231.259255 
L 253.868482 230.007182 
L 259.021729 228.755108 
L 264.174976 227.503035 
L 269.328222 226.250961 
L 274.481469 224.998888 
L 279.634716 223.746814 
L 284.787963 222.494741 
L 289.941209 221.242667 
L 295.094456 219.990594 
L 300.247703 218.73852 
L 305.40095 217.486447 
L 310.554196 216.234373 
L 315.707443 214.9823 
L 320.86069 213.730226 
L 326.013937 212.478153 
L 331.167183 211.22608 
L 336.32043 209.974006 
L 341.473677 208.721933 
L 346.626924 207.469859 
L 351.78017 206.217786 
L 356.933417 204.965712 
L 362.086664 203.713639 
L 367.239911 202.461565 
L 372.393157 201.209492 
L 377.546404 199.957418 
L 382.699651 198.705345 
L 387.852898 197.453271 
" style="fill:none;stroke:#f48849;stroke-linecap:square;stroke-width:1.5;"/>
   </g>
   <g id="line2d_33">
    <defs>
     <path d="M 3 0 
L -3 -0 
" id="m7757c1369f" style="stroke:#febd2a;stroke-width:2;"/>
    </defs>
    <g clip-path="url(#p5316cda019)">
     <use style="fill:#febd2a;stroke:#febd2a;stroke-width:2;" x="63.198352" xlink:href="#m7757c1369f" y="276.334125"/>
     <use style="fill:#febd2a;stroke:#febd2a;stroke-width:2;" x="84.841989" xlink:href="#m7757c1369f" y="223.841354"/>
     <use style="fill:#febd2a;stroke:#febd2a;stroke-width:2;" x="106.485625" xlink:href="#m7757c1369f" y="163.818519"/>
     <use style="fill:#febd2a;stroke:#febd2a;stroke-width:2;" x="128.129261" xlink:href="#m7757c1369f" y="111.262856"/>
    </g>
   </g>
   <g id="line2d_34">
    <g clip-path="url(#p5316cda019)">
     <use style="fill:#febd2a;stroke:#febd2a;stroke-width:2;" x="63.198352" xlink:href="#m7757c1369f" y="276.333676"/>
     <use style="fill:#febd2a;stroke:#febd2a;stroke-width:2;" x="84.841989" xlink:href="#m7757c1369f" y="216.504516"/>
     <use style="fill:#febd2a;stroke:#febd2a;stroke-width:2;" x="106.485625" xlink:href="#m7757c1369f" y="158.214916"/>
     <use style="fill:#febd2a;stroke:#febd2a;stroke-width:2;" x="128.129261" xlink:href="#m7757c1369f" y="87.965267"/>
    </g>
   </g>
   <g id="line2d_35">
    <path clip-path="url(#p5316cda019)" d="M 63.198352 276.3339 
L 64.229002 273.590341 
L 65.259651 270.846782 
L 66.2903 268.103223 
L 67.32095 265.359664 
L 68.351599 262.616105 
L 69.382248 259.872546 
L 70.412898 257.128987 
L 71.443547 254.385428 
L 72.474196 251.641869 
L 73.504846 248.89831 
L 74.535495 246.154751 
L 75.566144 243.411192 
L 76.596794 240.667633 
L 77.627443 237.924074 
L 78.658093 235.180515 
L 79.688742 232.436956 
L 80.719391 229.693397 
L 81.750041 226.949838 
L 82.78069 224.206279 
L 83.811339 221.46272 
L 84.841989 218.719161 
L 85.872638 215.975602 
L 86.903287 213.232043 
L 87.933937 210.488483 
L 88.964586 207.744924 
L 89.995235 205.001365 
L 91.025885 202.257806 
L 92.056534 199.514247 
L 93.087183 196.770688 
L 94.117833 194.027129 
L 95.148482 191.28357 
L 96.179131 188.540011 
L 97.209781 185.796452 
L 98.24043 183.052893 
L 99.27108 180.309334 
L 100.301729 177.565775 
L 101.332378 174.822216 
L 102.363028 172.078657 
L 103.393677 169.335098 
L 104.424326 166.591539 
L 105.454976 163.84798 
L 106.485625 161.104421 
L 107.516274 158.360862 
L 108.546924 155.617303 
L 109.577573 152.873744 
L 110.608222 150.130185 
L 111.638872 147.386626 
L 112.669521 144.643067 
L 113.70017 141.899508 
L 114.73082 139.155949 
L 115.761469 136.41239 
L 116.792119 133.66883 
L 117.822768 130.925271 
L 118.853417 128.181712 
L 119.884067 125.438153 
L 120.914716 122.694594 
L 121.945365 119.951035 
L 122.976015 117.207476 
L 124.006664 114.463917 
L 125.037313 111.720358 
L 126.067963 108.976799 
L 127.098612 106.23324 
L 128.129261 103.489681 
" style="fill:none;stroke:#febd2a;stroke-linecap:square;stroke-width:1.5;"/>
   </g>
   <g id="line2d_36">
    <defs>
     <path d="M 0 3 
C 0.795609 3 1.55874 2.683901 2.12132 2.12132 
C 2.683901 1.55874 3 0.795609 3 0 
C 3 -0.795609 2.683901 -1.55874 2.12132 -2.12132 
C 1.55874 -2.683901 0.795609 -3 0 -3 
C -0.795609 -3 -1.55874 -2.683901 -2.12132 -2.12132 
C -2.683901 -1.55874 -3 -0.795609 -3 0 
C -3 0.795609 -2.683901 1.55874 -2.12132 2.12132 
C -1.55874 2.683901 -0.795609 3 0 3 
z
" id="m1066547505" style="stroke:#0d0887;stroke-width:2;"/>
    </defs>
    <g clip-path="url(#p5316cda019)">
     <use style="fill:#0d0887;stroke:#0d0887;stroke-width:2;" x="63.198352" xlink:href="#m1066547505" y="276.3339"/>
     <use style="fill:#0d0887;stroke:#0d0887;stroke-width:2;" x="128.129261" xlink:href="#m1066547505" y="236.646818"/>
     <use style="fill:#0d0887;stroke:#0d0887;stroke-width:2;" x="171.416534" xlink:href="#m1066547505" y="207.443116"/>
     <use style="fill:#0d0887;stroke:#0d0887;stroke-width:2;" x="214.703807" xlink:href="#m1066547505" y="178.988227"/>
    </g>
   </g>
   <g id="line2d_37">
    <defs>
     <path d="M 0 3 
C 0.795609 3 1.55874 2.683901 2.12132 2.12132 
C 2.683901 1.55874 3 0.795609 3 0 
C 3 -0.795609 2.683901 -1.55874 2.12132 -2.12132 
C 1.55874 -2.683901 0.795609 -3 0 -3 
C -0.795609 -3 -1.55874 -2.683901 -2.12132 -2.12132 
C -2.683901 -1.55874 -3 -0.795609 -3 0 
C -3 0.795609 -2.683901 1.55874 -2.12132 2.12132 
C -1.55874 2.683901 -0.795609 3 0 3 
z
" id="m8fbd21182c" style="stroke:#5302a3;stroke-width:2;"/>
    </defs>
    <g clip-path="url(#p5316cda019)">
     <use style="fill:#5302a3;stroke:#5302a3;stroke-width:2;" x="63.198352" xlink:href="#m8fbd21182c" y="276.3339"/>
     <use style="fill:#5302a3;stroke:#5302a3;stroke-width:2;" x="84.841989" xlink:href="#m8fbd21182c" y="261.357643"/>
     <use style="fill:#5302a3;stroke:#5302a3;stroke-width:2;" x="106.485625" xlink:href="#m8fbd21182c" y="246.381385"/>
     <use style="fill:#5302a3;stroke:#5302a3;stroke-width:2;" x="128.129261" xlink:href="#m8fbd21182c" y="229.907502"/>
    </g>
   </g>
   <g id="line2d_38">
    <defs>
     <path d="M 0 3 
C 0.795609 3 1.55874 2.683901 2.12132 2.12132 
C 2.683901 1.55874 3 0.795609 3 0 
C 3 -0.795609 2.683901 -1.55874 2.12132 -2.12132 
C 1.55874 -2.683901 0.795609 -3 0 -3 
C -0.795609 -3 -1.55874 -2.683901 -2.12132 -2.12132 
C -2.683901 -1.55874 -3 -0.795609 -3 0 
C -3 0.795609 -2.683901 1.55874 -2.12132 2.12132 
C -1.55874 2.683901 -0.795609 3 0 3 
z
" id="me0967eaa8b" style="stroke:#8b0aa5;stroke-width:2;"/>
    </defs>
    <g clip-path="url(#p5316cda019)">
     <use style="fill:#8b0aa5;stroke:#8b0aa5;stroke-width:2;" x="63.198352" xlink:href="#me0967eaa8b" y="276.3339"/>
     <use style="fill:#8b0aa5;stroke:#8b0aa5;stroke-width:2;" x="84.841989" xlink:href="#me0967eaa8b" y="222.419373"/>
     <use style="fill:#8b0aa5;stroke:#8b0aa5;stroke-width:2;" x="106.485625" xlink:href="#me0967eaa8b" y="171.500098"/>
     <use style="fill:#8b0aa5;stroke:#8b0aa5;stroke-width:2;" x="128.129261" xlink:href="#me0967eaa8b" y="107.851003"/>
    </g>
   </g>
   <g id="line2d_39">
    <defs>
     <path d="M 0 3 
C 0.795609 3 1.55874 2.683901 2.12132 2.12132 
C 2.683901 1.55874 3 0.795609 3 0 
C 3 -0.795609 2.683901 -1.55874 2.12132 -2.12132 
C 1.55874 -2.683901 0.795609 -3 0 -3 
C -0.795609 -3 -1.55874 -2.683901 -2.12132 -2.12132 
C -2.683901 -1.55874 -3 -0.795609 -3 0 
C -3 0.795609 -2.683901 1.55874 -2.12132 2.12132 
C -1.55874 2.683901 -0.795609 3 0 3 
z
" id="m9fc2b148b1" style="stroke:#b83289;stroke-width:2;"/>
    </defs>
    <g clip-path="url(#p5316cda019)">
     <use style="fill:#b83289;stroke:#b83289;stroke-width:2;" x="63.198352" xlink:href="#m9fc2b148b1" y="276.3339"/>
     <use style="fill:#b83289;stroke:#b83289;stroke-width:2;" x="84.841989" xlink:href="#m9fc2b148b1" y="204.447864"/>
     <use style="fill:#b83289;stroke:#b83289;stroke-width:2;" x="106.485625" xlink:href="#m9fc2b148b1" y="143.045208"/>
     <use style="fill:#b83289;stroke:#b83289;stroke-width:2;" x="128.129261" xlink:href="#m9fc2b148b1" y="39.709032"/>
    </g>
   </g>
   <g id="line2d_40">
    <defs>
     <path d="M 0 3 
C 0.795609 3 1.55874 2.683901 2.12132 2.12132 
C 2.683901 1.55874 3 0.795609 3 0 
C 3 -0.795609 2.683901 -1.55874 2.12132 -2.12132 
C 1.55874 -2.683901 0.795609 -3 0 -3 
C -0.795609 -3 -1.55874 -2.683901 -2.12132 -2.12132 
C -2.683901 -1.55874 -3 -0.795609 -3 0 
C -3 0.795609 -2.683901 1.55874 -2.12132 2.12132 
C -1.55874 2.683901 -0.795609 3 0 3 
z
" id="mb594825266" style="stroke:#db5c68;stroke-width:2;"/>
    </defs>
    <g clip-path="url(#p5316cda019)">
     <use style="fill:#db5c68;stroke:#db5c68;stroke-width:2;" x="63.198352" xlink:href="#mb594825266" y="276.3339"/>
     <use style="fill:#db5c68;stroke:#db5c68;stroke-width:2;" x="84.841989" xlink:href="#mb594825266" y="246.381385"/>
     <use style="fill:#db5c68;stroke:#db5c68;stroke-width:2;" x="106.485625" xlink:href="#mb594825266" y="214.931245"/>
     <use style="fill:#db5c68;stroke:#db5c68;stroke-width:2;" x="128.129261" xlink:href="#mb594825266" y="175.992975"/>
    </g>
   </g>
   <g id="line2d_41">
    <defs>
     <path d="M 0 3 
C 0.795609 3 1.55874 2.683901 2.12132 2.12132 
C 2.683901 1.55874 3 0.795609 3 0 
C 3 -0.795609 2.683901 -1.55874 2.12132 -2.12132 
C 1.55874 -2.683901 0.795609 -3 0 -3 
C -0.795609 -3 -1.55874 -2.683901 -2.12132 -2.12132 
C -2.683901 -1.55874 -3 -0.795609 -3 0 
C -3 0.795609 -2.683901 1.55874 -2.12132 2.12132 
C -1.55874 2.683901 -0.795609 3 0 3 
z
" id="m8bc12ef31c" style="stroke:#f48849;stroke-width:2;"/>
    </defs>
    <g clip-path="url(#p5316cda019)">
     <use style="fill:#f48849;stroke:#f48849;stroke-width:2;" x="63.198352" xlink:href="#m8bc12ef31c" y="276.3339"/>
     <use style="fill:#f48849;stroke:#f48849;stroke-width:2;" x="171.416534" xlink:href="#m8bc12ef31c" y="253.869514"/>
     <use style="fill:#f48849;stroke:#f48849;stroke-width:2;" x="279.634716" xlink:href="#m8bc12ef31c" y="224.665812"/>
     <use style="fill:#f48849;stroke:#f48849;stroke-width:2;" x="387.852898" xlink:href="#m8bc12ef31c" y="184.229917"/>
    </g>
   </g>
   <g id="line2d_42">
    <defs>
     <path d="M 0 3 
C 0.795609 3 1.55874 2.683901 2.12132 2.12132 
C 2.683901 1.55874 3 0.795609 3 0 
C 3 -0.795609 2.683901 -1.55874 2.12132 -2.12132 
C 1.55874 -2.683901 0.795609 -3 0 -3 
C -0.795609 -3 -1.55874 -2.683901 -2.12132 -2.12132 
C -2.683901 -1.55874 -3 -0.795609 -3 0 
C -3 0.795609 -2.683901 1.55874 -2.12132 2.12132 
C -1.55874 2.683901 -0.795609 3 0 3 
z
" id="m07d6577614" style="stroke:#febd2a;stroke-width:2;"/>
    </defs>
    <g clip-path="url(#p5316cda019)">
     <use style="fill:#febd2a;stroke:#febd2a;stroke-width:2;" x="63.198352" xlink:href="#m07d6577614" y="276.3339"/>
     <use style="fill:#febd2a;stroke:#febd2a;stroke-width:2;" x="84.841989" xlink:href="#m07d6577614" y="220.172935"/>
     <use style="fill:#febd2a;stroke:#febd2a;stroke-width:2;" x="106.485625" xlink:href="#m07d6577614" y="161.016717"/>
     <use style="fill:#febd2a;stroke:#febd2a;stroke-width:2;" x="128.129261" xlink:href="#m07d6577614" y="99.614062"/>
    </g>
   </g>
   <g id="patch_3">
    <path d="M 46.965625 288.430125 
L 46.965625 22.318125 
" style="fill:none;stroke:#000000;stroke-linecap:square;stroke-linejoin:miter;stroke-width:0.8;"/>
   </g>
   <g id="patch_4">
    <path d="M 404.085625 288.430125 
L 404.085625 22.318125 
" style="fill:none;stroke:#000000;stroke-linecap:square;stroke-linejoin:miter;stroke-width:0.8;"/>
   </g>
   <g id="patch_5">
    <path d="M 46.965625 288.430125 
L 404.085625 288.430125 
" style="fill:none;stroke:#000000;stroke-linecap:square;stroke-linejoin:miter;stroke-width:0.8;"/>
   </g>
   <g id="patch_6">
    <path d="M 46.965625 22.318125 
L 404.085625 22.318125 
" style="fill:none;stroke:#000000;stroke-linecap:square;stroke-linejoin:miter;stroke-width:0.8;"/>
   </g>
   <g id="text_17">
    <!-- Pressure Drop vs. Number of Layers with Voltage On -->
    <g transform="translate(68.138125 16.318125)scale(0.12 -0.12)">
     <defs>
      <path d="M 191 3500 
L 800 3500 
L 1894 563 
L 2988 3500 
L 3597 3500 
L 2284 0 
L 1503 0 
L 191 3500 
z
" id="DejaVuSans-76" transform="scale(0.015625)"/>
      <path d="M 684 794 
L 1344 794 
L 1344 0 
L 684 0 
L 684 794 
z
" id="DejaVuSans-2e" transform="scale(0.015625)"/>
      <path d="M 269 3500 
L 844 3500 
L 1563 769 
L 2278 3500 
L 2956 3500 
L 3675 769 
L 4391 3500 
L 4966 3500 
L 4050 0 
L 3372 0 
L 2619 2869 
L 1863 0 
L 1184 0 
L 269 3500 
z
" id="DejaVuSans-77" transform="scale(0.015625)"/>
      <path d="M 603 3500 
L 1178 3500 
L 1178 0 
L 603 0 
L 603 3500 
z
M 603 4863 
L 1178 4863 
L 1178 4134 
L 603 4134 
L 603 4863 
z
" id="DejaVuSans-69" transform="scale(0.015625)"/>
      <path d="M 1172 4494 
L 1172 3500 
L 2356 3500 
L 2356 3053 
L 1172 3053 
L 1172 1153 
Q 1172 725 1289 603 
Q 1406 481 1766 481 
L 2356 481 
L 2356 0 
L 1766 0 
Q 1100 0 847 248 
Q 594 497 594 1153 
L 594 3053 
L 172 3053 
L 172 3500 
L 594 3500 
L 594 4494 
L 1172 4494 
z
" id="DejaVuSans-74" transform="scale(0.015625)"/>
      <path d="M 3513 2113 
L 3513 0 
L 2938 0 
L 2938 2094 
Q 2938 2591 2744 2837 
Q 2550 3084 2163 3084 
Q 1697 3084 1428 2787 
Q 1159 2491 1159 1978 
L 1159 0 
L 581 0 
L 581 4863 
L 1159 4863 
L 1159 2956 
Q 1366 3272 1645 3428 
Q 1925 3584 2291 3584 
Q 2894 3584 3203 3211 
Q 3513 2838 3513 2113 
z
" id="DejaVuSans-68" transform="scale(0.015625)"/>
      <path d="M 1831 0 
L 50 4666 
L 709 4666 
L 2188 738 
L 3669 4666 
L 4325 4666 
L 2547 0 
L 1831 0 
z
" id="DejaVuSans-56" transform="scale(0.015625)"/>
      <path d="M 603 4863 
L 1178 4863 
L 1178 0 
L 603 0 
L 603 4863 
z
" id="DejaVuSans-6c" transform="scale(0.015625)"/>
      <path d="M 2906 1791 
Q 2906 2416 2648 2759 
Q 2391 3103 1925 3103 
Q 1463 3103 1205 2759 
Q 947 2416 947 1791 
Q 947 1169 1205 825 
Q 1463 481 1925 481 
Q 2391 481 2648 825 
Q 2906 1169 2906 1791 
z
M 3481 434 
Q 3481 -459 3084 -895 
Q 2688 -1331 1869 -1331 
Q 1566 -1331 1297 -1286 
Q 1028 -1241 775 -1147 
L 775 -588 
Q 1028 -725 1275 -790 
Q 1522 -856 1778 -856 
Q 2344 -856 2625 -561 
Q 2906 -266 2906 331 
L 2906 616 
Q 2728 306 2450 153 
Q 2172 0 1784 0 
Q 1141 0 747 490 
Q 353 981 353 1791 
Q 353 2603 747 3093 
Q 1141 3584 1784 3584 
Q 2172 3584 2450 3431 
Q 2728 3278 2906 2969 
L 2906 3500 
L 3481 3500 
L 3481 434 
z
" id="DejaVuSans-67" transform="scale(0.015625)"/>
      <path d="M 2522 4238 
Q 1834 4238 1429 3725 
Q 1025 3213 1025 2328 
Q 1025 1447 1429 934 
Q 1834 422 2522 422 
Q 3209 422 3611 934 
Q 4013 1447 4013 2328 
Q 4013 3213 3611 3725 
Q 3209 4238 2522 4238 
z
M 2522 4750 
Q 3503 4750 4090 4092 
Q 4678 3434 4678 2328 
Q 4678 1225 4090 567 
Q 3503 -91 2522 -91 
Q 1538 -91 948 565 
Q 359 1222 359 2328 
Q 359 3434 948 4092 
Q 1538 4750 2522 4750 
z
" id="DejaVuSans-4f" transform="scale(0.015625)"/>
      <path d="M 3513 2113 
L 3513 0 
L 2938 0 
L 2938 2094 
Q 2938 2591 2744 2837 
Q 2550 3084 2163 3084 
Q 1697 3084 1428 2787 
Q 1159 2491 1159 1978 
L 1159 0 
L 581 0 
L 581 3500 
L 1159 3500 
L 1159 2956 
Q 1366 3272 1645 3428 
Q 1925 3584 2291 3584 
Q 2894 3584 3203 3211 
Q 3513 2838 3513 2113 
z
" id="DejaVuSans-6e" transform="scale(0.015625)"/>
     </defs>
     <use xlink:href="#DejaVuSans-50"/>
     <use x="58.552734" xlink:href="#DejaVuSans-72"/>
     <use x="97.416016" xlink:href="#DejaVuSans-65"/>
     <use x="158.939453" xlink:href="#DejaVuSans-73"/>
     <use x="211.039062" xlink:href="#DejaVuSans-73"/>
     <use x="263.138672" xlink:href="#DejaVuSans-75"/>
     <use x="326.517578" xlink:href="#DejaVuSans-72"/>
     <use x="365.380859" xlink:href="#DejaVuSans-65"/>
     <use x="426.904297" xlink:href="#DejaVuSans-20"/>
     <use x="458.691406" xlink:href="#DejaVuSans-44"/>
     <use x="535.693359" xlink:href="#DejaVuSans-72"/>
     <use x="574.556641" xlink:href="#DejaVuSans-6f"/>
     <use x="635.738281" xlink:href="#DejaVuSans-70"/>
     <use x="699.214844" xlink:href="#DejaVuSans-20"/>
     <use x="731.001953" xlink:href="#DejaVuSans-76"/>
     <use x="790.181641" xlink:href="#DejaVuSans-73"/>
     <use x="842.28125" xlink:href="#DejaVuSans-2e"/>
     <use x="874.068359" xlink:href="#DejaVuSans-20"/>
     <use x="905.855469" xlink:href="#DejaVuSans-4e"/>
     <use x="980.660156" xlink:href="#DejaVuSans-75"/>
     <use x="1044.039062" xlink:href="#DejaVuSans-6d"/>
     <use x="1141.451172" xlink:href="#DejaVuSans-62"/>
     <use x="1204.927734" xlink:href="#DejaVuSans-65"/>
     <use x="1266.451172" xlink:href="#DejaVuSans-72"/>
     <use x="1307.564453" xlink:href="#DejaVuSans-20"/>
     <use x="1339.351562" xlink:href="#DejaVuSans-6f"/>
     <use x="1400.533203" xlink:href="#DejaVuSans-66"/>
     <use x="1435.738281" xlink:href="#DejaVuSans-20"/>
     <use x="1467.525391" xlink:href="#DejaVuSans-4c"/>
     <use x="1523.238281" xlink:href="#DejaVuSans-61"/>
     <use x="1584.517578" xlink:href="#DejaVuSans-79"/>
     <use x="1643.697266" xlink:href="#DejaVuSans-65"/>
     <use x="1705.220703" xlink:href="#DejaVuSans-72"/>
     <use x="1746.333984" xlink:href="#DejaVuSans-73"/>
     <use x="1798.433594" xlink:href="#DejaVuSans-20"/>
     <use x="1830.220703" xlink:href="#DejaVuSans-77"/>
     <use x="1912.007812" xlink:href="#DejaVuSans-69"/>
     <use x="1939.791016" xlink:href="#DejaVuSans-74"/>
     <use x="1979" xlink:href="#DejaVuSans-68"/>
     <use x="2042.378906" xlink:href="#DejaVuSans-20"/>
     <use x="2074.166016" xlink:href="#DejaVuSans-56"/>
     <use x="2134.824219" xlink:href="#DejaVuSans-6f"/>
     <use x="2196.005859" xlink:href="#DejaVuSans-6c"/>
     <use x="2223.789062" xlink:href="#DejaVuSans-74"/>
     <use x="2262.998047" xlink:href="#DejaVuSans-61"/>
     <use x="2324.277344" xlink:href="#DejaVuSans-67"/>
     <use x="2387.753906" xlink:href="#DejaVuSans-65"/>
     <use x="2449.277344" xlink:href="#DejaVuSans-20"/>
     <use x="2481.064453" xlink:href="#DejaVuSans-4f"/>
     <use x="2559.775391" xlink:href="#DejaVuSans-6e"/>
    </g>
   </g>
   <g id="legend_1">
    <g id="patch_7">
     <path d="M 428.941625 133.899375 
L 711.601 133.899375 
Q 713.601 133.899375 713.601 131.899375 
L 713.601 29.318125 
Q 713.601 27.318125 711.601 27.318125 
L 428.941625 27.318125 
Q 426.941625 27.318125 426.941625 29.318125 
L 426.941625 131.899375 
Q 426.941625 133.899375 428.941625 133.899375 
z
" style="fill:#ffffff;opacity:0.8;stroke:#cccccc;stroke-linejoin:miter;"/>
    </g>
    <g id="line2d_43">
     <path d="M 430.941625 35.416562 
L 450.941625 35.416562 
" style="fill:none;stroke:#0d0887;stroke-linecap:square;stroke-width:1.5;"/>
    </g>
    <g id="line2d_44"/>
    <g id="text_18">
     <!--  SMT_FB_THCK, Model: 6.0329*n, R^2: 0.9987 -->
     <g transform="translate(458.941625 38.916562)scale(0.1 -0.1)">
      <defs>
       <path d="M 3425 4513 
L 3425 3897 
Q 3066 4069 2747 4153 
Q 2428 4238 2131 4238 
Q 1616 4238 1336 4038 
Q 1056 3838 1056 3469 
Q 1056 3159 1242 3001 
Q 1428 2844 1947 2747 
L 2328 2669 
Q 3034 2534 3370 2195 
Q 3706 1856 3706 1288 
Q 3706 609 3251 259 
Q 2797 -91 1919 -91 
Q 1588 -91 1214 -16 
Q 841 59 441 206 
L 441 856 
Q 825 641 1194 531 
Q 1563 422 1919 422 
Q 2459 422 2753 634 
Q 3047 847 3047 1241 
Q 3047 1584 2836 1778 
Q 2625 1972 2144 2069 
L 1759 2144 
Q 1053 2284 737 2584 
Q 422 2884 422 3419 
Q 422 4038 858 4394 
Q 1294 4750 2059 4750 
Q 2388 4750 2728 4690 
Q 3069 4631 3425 4513 
z
" id="DejaVuSans-53" transform="scale(0.015625)"/>
       <path d="M 628 4666 
L 1569 4666 
L 2759 1491 
L 3956 4666 
L 4897 4666 
L 4897 0 
L 4281 0 
L 4281 4097 
L 3078 897 
L 2444 897 
L 1241 4097 
L 1241 0 
L 628 0 
L 628 4666 
z
" id="DejaVuSans-4d" transform="scale(0.015625)"/>
       <path d="M -19 4666 
L 3928 4666 
L 3928 4134 
L 2272 4134 
L 2272 0 
L 1638 0 
L 1638 4134 
L -19 4134 
L -19 4666 
z
" id="DejaVuSans-54" transform="scale(0.015625)"/>
       <path d="M 3263 -1063 
L 3263 -1509 
L -63 -1509 
L -63 -1063 
L 3263 -1063 
z
" id="DejaVuSans-5f" transform="scale(0.015625)"/>
       <path d="M 628 4666 
L 3309 4666 
L 3309 4134 
L 1259 4134 
L 1259 2759 
L 3109 2759 
L 3109 2228 
L 1259 2228 
L 1259 0 
L 628 0 
L 628 4666 
z
" id="DejaVuSans-46" transform="scale(0.015625)"/>
       <path d="M 1259 2228 
L 1259 519 
L 2272 519 
Q 2781 519 3026 730 
Q 3272 941 3272 1375 
Q 3272 1813 3026 2020 
Q 2781 2228 2272 2228 
L 1259 2228 
z
M 1259 4147 
L 1259 2741 
L 2194 2741 
Q 2656 2741 2882 2914 
Q 3109 3088 3109 3444 
Q 3109 3797 2882 3972 
Q 2656 4147 2194 4147 
L 1259 4147 
z
M 628 4666 
L 2241 4666 
Q 2963 4666 3353 4366 
Q 3744 4066 3744 3513 
Q 3744 3084 3544 2831 
Q 3344 2578 2956 2516 
Q 3422 2416 3680 2098 
Q 3938 1781 3938 1306 
Q 3938 681 3513 340 
Q 3088 0 2303 0 
L 628 0 
L 628 4666 
z
" id="DejaVuSans-42" transform="scale(0.015625)"/>
       <path d="M 628 4666 
L 1259 4666 
L 1259 2753 
L 3553 2753 
L 3553 4666 
L 4184 4666 
L 4184 0 
L 3553 0 
L 3553 2222 
L 1259 2222 
L 1259 0 
L 628 0 
L 628 4666 
z
" id="DejaVuSans-48" transform="scale(0.015625)"/>
       <path d="M 4122 4306 
L 4122 3641 
Q 3803 3938 3442 4084 
Q 3081 4231 2675 4231 
Q 1875 4231 1450 3742 
Q 1025 3253 1025 2328 
Q 1025 1406 1450 917 
Q 1875 428 2675 428 
Q 3081 428 3442 575 
Q 3803 722 4122 1019 
L 4122 359 
Q 3791 134 3420 21 
Q 3050 -91 2638 -91 
Q 1578 -91 968 557 
Q 359 1206 359 2328 
Q 359 3453 968 4101 
Q 1578 4750 2638 4750 
Q 3056 4750 3426 4639 
Q 3797 4528 4122 4306 
z
" id="DejaVuSans-43" transform="scale(0.015625)"/>
       <path d="M 628 4666 
L 1259 4666 
L 1259 2694 
L 3353 4666 
L 4166 4666 
L 1850 2491 
L 4331 0 
L 3500 0 
L 1259 2247 
L 1259 0 
L 628 0 
L 628 4666 
z
" id="DejaVuSans-4b" transform="scale(0.015625)"/>
       <path d="M 750 794 
L 1409 794 
L 1409 256 
L 897 -744 
L 494 -744 
L 750 256 
L 750 794 
z
" id="DejaVuSans-2c" transform="scale(0.015625)"/>
       <path d="M 2906 2969 
L 2906 4863 
L 3481 4863 
L 3481 0 
L 2906 0 
L 2906 525 
Q 2725 213 2448 61 
Q 2172 -91 1784 -91 
Q 1150 -91 751 415 
Q 353 922 353 1747 
Q 353 2572 751 3078 
Q 1150 3584 1784 3584 
Q 2172 3584 2448 3432 
Q 2725 3281 2906 2969 
z
M 947 1747 
Q 947 1113 1208 752 
Q 1469 391 1925 391 
Q 2381 391 2643 752 
Q 2906 1113 2906 1747 
Q 2906 2381 2643 2742 
Q 2381 3103 1925 3103 
Q 1469 3103 1208 2742 
Q 947 2381 947 1747 
z
" id="DejaVuSans-64" transform="scale(0.015625)"/>
       <path d="M 750 794 
L 1409 794 
L 1409 0 
L 750 0 
L 750 794 
z
M 750 3309 
L 1409 3309 
L 1409 2516 
L 750 2516 
L 750 3309 
z
" id="DejaVuSans-3a" transform="scale(0.015625)"/>
       <path d="M 2597 2516 
Q 3050 2419 3304 2112 
Q 3559 1806 3559 1356 
Q 3559 666 3084 287 
Q 2609 -91 1734 -91 
Q 1441 -91 1130 -33 
Q 819 25 488 141 
L 488 750 
Q 750 597 1062 519 
Q 1375 441 1716 441 
Q 2309 441 2620 675 
Q 2931 909 2931 1356 
Q 2931 1769 2642 2001 
Q 2353 2234 1838 2234 
L 1294 2234 
L 1294 2753 
L 1863 2753 
Q 2328 2753 2575 2939 
Q 2822 3125 2822 3475 
Q 2822 3834 2567 4026 
Q 2313 4219 1838 4219 
Q 1578 4219 1281 4162 
Q 984 4106 628 3988 
L 628 4550 
Q 988 4650 1302 4700 
Q 1616 4750 1894 4750 
Q 2613 4750 3031 4423 
Q 3450 4097 3450 3541 
Q 3450 3153 3228 2886 
Q 3006 2619 2597 2516 
z
" id="DejaVuSans-33" transform="scale(0.015625)"/>
       <path d="M 703 97 
L 703 672 
Q 941 559 1184 500 
Q 1428 441 1663 441 
Q 2288 441 2617 861 
Q 2947 1281 2994 2138 
Q 2813 1869 2534 1725 
Q 2256 1581 1919 1581 
Q 1219 1581 811 2004 
Q 403 2428 403 3163 
Q 403 3881 828 4315 
Q 1253 4750 1959 4750 
Q 2769 4750 3195 4129 
Q 3622 3509 3622 2328 
Q 3622 1225 3098 567 
Q 2575 -91 1691 -91 
Q 1453 -91 1209 -44 
Q 966 3 703 97 
z
M 1959 2075 
Q 2384 2075 2632 2365 
Q 2881 2656 2881 3163 
Q 2881 3666 2632 3958 
Q 2384 4250 1959 4250 
Q 1534 4250 1286 3958 
Q 1038 3666 1038 3163 
Q 1038 2656 1286 2365 
Q 1534 2075 1959 2075 
z
" id="DejaVuSans-39" transform="scale(0.015625)"/>
       <path d="M 3009 3897 
L 1888 3291 
L 3009 2681 
L 2828 2375 
L 1778 3009 
L 1778 1831 
L 1422 1831 
L 1422 3009 
L 372 2375 
L 191 2681 
L 1313 3291 
L 191 3897 
L 372 4206 
L 1422 3572 
L 1422 4750 
L 1778 4750 
L 1778 3572 
L 2828 4206 
L 3009 3897 
z
" id="DejaVuSans-2a" transform="scale(0.015625)"/>
       <path d="M 2841 2188 
Q 3044 2119 3236 1894 
Q 3428 1669 3622 1275 
L 4263 0 
L 3584 0 
L 2988 1197 
Q 2756 1666 2539 1819 
Q 2322 1972 1947 1972 
L 1259 1972 
L 1259 0 
L 628 0 
L 628 4666 
L 2053 4666 
Q 2853 4666 3247 4331 
Q 3641 3997 3641 3322 
Q 3641 2881 3436 2590 
Q 3231 2300 2841 2188 
z
M 1259 4147 
L 1259 2491 
L 2053 2491 
Q 2509 2491 2742 2702 
Q 2975 2913 2975 3322 
Q 2975 3731 2742 3939 
Q 2509 4147 2053 4147 
L 1259 4147 
z
" id="DejaVuSans-52" transform="scale(0.015625)"/>
       <path d="M 2988 4666 
L 4684 2925 
L 4056 2925 
L 2681 4159 
L 1306 2925 
L 678 2925 
L 2375 4666 
L 2988 4666 
z
" id="DejaVuSans-5e" transform="scale(0.015625)"/>
       <path d="M 525 4666 
L 3525 4666 
L 3525 4397 
L 1831 0 
L 1172 0 
L 2766 4134 
L 525 4134 
L 525 4666 
z
" id="DejaVuSans-37" transform="scale(0.015625)"/>
      </defs>
      <use xlink:href="#DejaVuSans-20"/>
      <use x="31.787109" xlink:href="#DejaVuSans-53"/>
      <use x="95.263672" xlink:href="#DejaVuSans-4d"/>
      <use x="181.542969" xlink:href="#DejaVuSans-54"/>
      <use x="242.626953" xlink:href="#DejaVuSans-5f"/>
      <use x="292.626953" xlink:href="#DejaVuSans-46"/>
      <use x="350.146484" xlink:href="#DejaVuSans-42"/>
      <use x="418.75" xlink:href="#DejaVuSans-5f"/>
      <use x="468.75" xlink:href="#DejaVuSans-54"/>
      <use x="529.833984" xlink:href="#DejaVuSans-48"/>
      <use x="605.029297" xlink:href="#DejaVuSans-43"/>
      <use x="674.853516" xlink:href="#DejaVuSans-4b"/>
      <use x="740.429688" xlink:href="#DejaVuSans-2c"/>
      <use x="772.216797" xlink:href="#DejaVuSans-20"/>
      <use x="804.003906" xlink:href="#DejaVuSans-4d"/>
      <use x="890.283203" xlink:href="#DejaVuSans-6f"/>
      <use x="951.464844" xlink:href="#DejaVuSans-64"/>
      <use x="1014.941406" xlink:href="#DejaVuSans-65"/>
      <use x="1076.464844" xlink:href="#DejaVuSans-6c"/>
      <use x="1104.248047" xlink:href="#DejaVuSans-3a"/>
      <use x="1137.939453" xlink:href="#DejaVuSans-20"/>
      <use x="1169.726562" xlink:href="#DejaVuSans-36"/>
      <use x="1233.349609" xlink:href="#DejaVuSans-2e"/>
      <use x="1265.136719" xlink:href="#DejaVuSans-30"/>
      <use x="1328.759766" xlink:href="#DejaVuSans-33"/>
      <use x="1392.382812" xlink:href="#DejaVuSans-32"/>
      <use x="1456.005859" xlink:href="#DejaVuSans-39"/>
      <use x="1519.628906" xlink:href="#DejaVuSans-2a"/>
      <use x="1569.628906" xlink:href="#DejaVuSans-6e"/>
      <use x="1633.007812" xlink:href="#DejaVuSans-2c"/>
      <use x="1664.794922" xlink:href="#DejaVuSans-20"/>
      <use x="1696.582031" xlink:href="#DejaVuSans-52"/>
      <use x="1766.064453" xlink:href="#DejaVuSans-5e"/>
      <use x="1849.853516" xlink:href="#DejaVuSans-32"/>
      <use x="1913.476562" xlink:href="#DejaVuSans-3a"/>
      <use x="1947.167969" xlink:href="#DejaVuSans-20"/>
      <use x="1978.955078" xlink:href="#DejaVuSans-30"/>
      <use x="2042.578125" xlink:href="#DejaVuSans-2e"/>
      <use x="2074.365234" xlink:href="#DejaVuSans-39"/>
      <use x="2137.988281" xlink:href="#DejaVuSans-39"/>
      <use x="2201.611328" xlink:href="#DejaVuSans-38"/>
      <use x="2265.234375" xlink:href="#DejaVuSans-37"/>
     </g>
    </g>
    <g id="line2d_45">
     <path d="M 430.941625 50.372813 
L 450.941625 50.372813 
" style="fill:none;stroke:#5302a3;stroke-linecap:square;stroke-width:1.5;"/>
    </g>
    <g id="line2d_46"/>
    <g id="text_19">
     <!--  OLFN, Model: 6.7768*n, R^2: 0.9994 -->
     <g transform="translate(458.941625 53.872813)scale(0.1 -0.1)">
      <use xlink:href="#DejaVuSans-20"/>
      <use x="31.787109" xlink:href="#DejaVuSans-4f"/>
      <use x="110.498047" xlink:href="#DejaVuSans-4c"/>
      <use x="166.210938" xlink:href="#DejaVuSans-46"/>
      <use x="223.730469" xlink:href="#DejaVuSans-4e"/>
      <use x="298.535156" xlink:href="#DejaVuSans-2c"/>
      <use x="330.322266" xlink:href="#DejaVuSans-20"/>
      <use x="362.109375" xlink:href="#DejaVuSans-4d"/>
      <use x="448.388672" xlink:href="#DejaVuSans-6f"/>
      <use x="509.570312" xlink:href="#DejaVuSans-64"/>
      <use x="573.046875" xlink:href="#DejaVuSans-65"/>
      <use x="634.570312" xlink:href="#DejaVuSans-6c"/>
      <use x="662.353516" xlink:href="#DejaVuSans-3a"/>
      <use x="696.044922" xlink:href="#DejaVuSans-20"/>
      <use x="727.832031" xlink:href="#DejaVuSans-36"/>
      <use x="791.455078" xlink:href="#DejaVuSans-2e"/>
      <use x="823.242188" xlink:href="#DejaVuSans-37"/>
      <use x="886.865234" xlink:href="#DejaVuSans-37"/>
      <use x="950.488281" xlink:href="#DejaVuSans-36"/>
      <use x="1014.111328" xlink:href="#DejaVuSans-38"/>
      <use x="1077.734375" xlink:href="#DejaVuSans-2a"/>
      <use x="1127.734375" xlink:href="#DejaVuSans-6e"/>
      <use x="1191.113281" xlink:href="#DejaVuSans-2c"/>
      <use x="1222.900391" xlink:href="#DejaVuSans-20"/>
      <use x="1254.6875" xlink:href="#DejaVuSans-52"/>
      <use x="1324.169922" xlink:href="#DejaVuSans-5e"/>
      <use x="1407.958984" xlink:href="#DejaVuSans-32"/>
      <use x="1471.582031" xlink:href="#DejaVuSans-3a"/>
      <use x="1505.273438" xlink:href="#DejaVuSans-20"/>
      <use x="1537.060547" xlink:href="#DejaVuSans-30"/>
      <use x="1600.683594" xlink:href="#DejaVuSans-2e"/>
      <use x="1632.470703" xlink:href="#DejaVuSans-39"/>
      <use x="1696.09375" xlink:href="#DejaVuSans-39"/>
      <use x="1759.716797" xlink:href="#DejaVuSans-39"/>
      <use x="1823.339844" xlink:href="#DejaVuSans-34"/>
     </g>
    </g>
    <g id="line2d_47">
     <path d="M 430.941625 65.050937 
L 450.941625 65.050937 
" style="fill:none;stroke:#8b0aa5;stroke-linecap:square;stroke-width:1.5;"/>
    </g>
    <g id="line2d_48"/>
    <g id="text_20">
     <!--  ADVANCHK_SMS, Model: 24.0535*n, R^2: 0.9973 -->
     <g transform="translate(458.941625 68.550937)scale(0.1 -0.1)">
      <defs>
       <path d="M 2188 4044 
L 1331 1722 
L 3047 1722 
L 2188 4044 
z
M 1831 4666 
L 2547 4666 
L 4325 0 
L 3669 0 
L 3244 1197 
L 1141 1197 
L 716 0 
L 50 0 
L 1831 4666 
z
" id="DejaVuSans-41" transform="scale(0.015625)"/>
       <path d="M 691 4666 
L 3169 4666 
L 3169 4134 
L 1269 4134 
L 1269 2991 
Q 1406 3038 1543 3061 
Q 1681 3084 1819 3084 
Q 2600 3084 3056 2656 
Q 3513 2228 3513 1497 
Q 3513 744 3044 326 
Q 2575 -91 1722 -91 
Q 1428 -91 1123 -41 
Q 819 9 494 109 
L 494 744 
Q 775 591 1075 516 
Q 1375 441 1709 441 
Q 2250 441 2565 725 
Q 2881 1009 2881 1497 
Q 2881 1984 2565 2268 
Q 2250 2553 1709 2553 
Q 1456 2553 1204 2497 
Q 953 2441 691 2322 
L 691 4666 
z
" id="DejaVuSans-35" transform="scale(0.015625)"/>
      </defs>
      <use xlink:href="#DejaVuSans-20"/>
      <use x="31.787109" xlink:href="#DejaVuSans-41"/>
      <use x="100.195312" xlink:href="#DejaVuSans-44"/>
      <use x="175.447266" xlink:href="#DejaVuSans-56"/>
      <use x="237.480469" xlink:href="#DejaVuSans-41"/>
      <use x="305.888672" xlink:href="#DejaVuSans-4e"/>
      <use x="380.693359" xlink:href="#DejaVuSans-43"/>
      <use x="450.517578" xlink:href="#DejaVuSans-48"/>
      <use x="525.712891" xlink:href="#DejaVuSans-4b"/>
      <use x="591.289062" xlink:href="#DejaVuSans-5f"/>
      <use x="641.289062" xlink:href="#DejaVuSans-53"/>
      <use x="704.765625" xlink:href="#DejaVuSans-4d"/>
      <use x="791.044922" xlink:href="#DejaVuSans-53"/>
      <use x="854.521484" xlink:href="#DejaVuSans-2c"/>
      <use x="886.308594" xlink:href="#DejaVuSans-20"/>
      <use x="918.095703" xlink:href="#DejaVuSans-4d"/>
      <use x="1004.375" xlink:href="#DejaVuSans-6f"/>
      <use x="1065.556641" xlink:href="#DejaVuSans-64"/>
      <use x="1129.033203" xlink:href="#DejaVuSans-65"/>
      <use x="1190.556641" xlink:href="#DejaVuSans-6c"/>
      <use x="1218.339844" xlink:href="#DejaVuSans-3a"/>
      <use x="1252.03125" xlink:href="#DejaVuSans-20"/>
      <use x="1283.818359" xlink:href="#DejaVuSans-32"/>
      <use x="1347.441406" xlink:href="#DejaVuSans-34"/>
      <use x="1411.064453" xlink:href="#DejaVuSans-2e"/>
      <use x="1442.851562" xlink:href="#DejaVuSans-30"/>
      <use x="1506.474609" xlink:href="#DejaVuSans-35"/>
      <use x="1570.097656" xlink:href="#DejaVuSans-33"/>
      <use x="1633.720703" xlink:href="#DejaVuSans-35"/>
      <use x="1697.34375" xlink:href="#DejaVuSans-2a"/>
      <use x="1747.34375" xlink:href="#DejaVuSans-6e"/>
      <use x="1810.722656" xlink:href="#DejaVuSans-2c"/>
      <use x="1842.509766" xlink:href="#DejaVuSans-20"/>
      <use x="1874.296875" xlink:href="#DejaVuSans-52"/>
      <use x="1943.779297" xlink:href="#DejaVuSans-5e"/>
      <use x="2027.568359" xlink:href="#DejaVuSans-32"/>
      <use x="2091.191406" xlink:href="#DejaVuSans-3a"/>
      <use x="2124.882812" xlink:href="#DejaVuSans-20"/>
      <use x="2156.669922" xlink:href="#DejaVuSans-30"/>
      <use x="2220.292969" xlink:href="#DejaVuSans-2e"/>
      <use x="2252.080078" xlink:href="#DejaVuSans-39"/>
      <use x="2315.703125" xlink:href="#DejaVuSans-39"/>
      <use x="2379.326172" xlink:href="#DejaVuSans-37"/>
      <use x="2442.949219" xlink:href="#DejaVuSans-33"/>
     </g>
    </g>
    <g id="line2d_49">
     <path d="M 430.941625 80.007187 
L 450.941625 80.007187 
" style="fill:none;stroke:#b83289;stroke-linecap:square;stroke-width:1.5;"/>
    </g>
    <g id="line2d_50"/>
    <g id="text_21">
     <!--  H400, Model: 32.8701*n, R^2: 0.9923 -->
     <g transform="translate(458.941625 83.507187)scale(0.1 -0.1)">
      <use xlink:href="#DejaVuSans-20"/>
      <use x="31.787109" xlink:href="#DejaVuSans-48"/>
      <use x="106.982422" xlink:href="#DejaVuSans-34"/>
      <use x="170.605469" xlink:href="#DejaVuSans-30"/>
      <use x="234.228516" xlink:href="#DejaVuSans-30"/>
      <use x="297.851562" xlink:href="#DejaVuSans-2c"/>
      <use x="329.638672" xlink:href="#DejaVuSans-20"/>
      <use x="361.425781" xlink:href="#DejaVuSans-4d"/>
      <use x="447.705078" xlink:href="#DejaVuSans-6f"/>
      <use x="508.886719" xlink:href="#DejaVuSans-64"/>
      <use x="572.363281" xlink:href="#DejaVuSans-65"/>
      <use x="633.886719" xlink:href="#DejaVuSans-6c"/>
      <use x="661.669922" xlink:href="#DejaVuSans-3a"/>
      <use x="695.361328" xlink:href="#DejaVuSans-20"/>
      <use x="727.148438" xlink:href="#DejaVuSans-33"/>
      <use x="790.771484" xlink:href="#DejaVuSans-32"/>
      <use x="854.394531" xlink:href="#DejaVuSans-2e"/>
      <use x="886.181641" xlink:href="#DejaVuSans-38"/>
      <use x="949.804688" xlink:href="#DejaVuSans-37"/>
      <use x="1013.427734" xlink:href="#DejaVuSans-30"/>
      <use x="1077.050781" xlink:href="#DejaVuSans-31"/>
      <use x="1140.673828" xlink:href="#DejaVuSans-2a"/>
      <use x="1190.673828" xlink:href="#DejaVuSans-6e"/>
      <use x="1254.052734" xlink:href="#DejaVuSans-2c"/>
      <use x="1285.839844" xlink:href="#DejaVuSans-20"/>
      <use x="1317.626953" xlink:href="#DejaVuSans-52"/>
      <use x="1387.109375" xlink:href="#DejaVuSans-5e"/>
      <use x="1470.898438" xlink:href="#DejaVuSans-32"/>
      <use x="1534.521484" xlink:href="#DejaVuSans-3a"/>
      <use x="1568.212891" xlink:href="#DejaVuSans-20"/>
      <use x="1600" xlink:href="#DejaVuSans-30"/>
      <use x="1663.623047" xlink:href="#DejaVuSans-2e"/>
      <use x="1695.410156" xlink:href="#DejaVuSans-39"/>
      <use x="1759.033203" xlink:href="#DejaVuSans-39"/>
      <use x="1822.65625" xlink:href="#DejaVuSans-32"/>
      <use x="1886.279297" xlink:href="#DejaVuSans-33"/>
     </g>
    </g>
    <g id="line2d_51">
     <path d="M 430.941625 94.685313 
L 450.941625 94.685313 
" style="fill:none;stroke:#db5c68;stroke-linecap:square;stroke-width:1.5;"/>
    </g>
    <g id="line2d_52"/>
    <g id="text_22">
     <!--  H100, Model: 14.1000*n, R^2: 0.9949 -->
     <g transform="translate(458.941625 98.185313)scale(0.1 -0.1)">
      <use xlink:href="#DejaVuSans-20"/>
      <use x="31.787109" xlink:href="#DejaVuSans-48"/>
      <use x="106.982422" xlink:href="#DejaVuSans-31"/>
      <use x="170.605469" xlink:href="#DejaVuSans-30"/>
      <use x="234.228516" xlink:href="#DejaVuSans-30"/>
      <use x="297.851562" xlink:href="#DejaVuSans-2c"/>
      <use x="329.638672" xlink:href="#DejaVuSans-20"/>
      <use x="361.425781" xlink:href="#DejaVuSans-4d"/>
      <use x="447.705078" xlink:href="#DejaVuSans-6f"/>
      <use x="508.886719" xlink:href="#DejaVuSans-64"/>
      <use x="572.363281" xlink:href="#DejaVuSans-65"/>
      <use x="633.886719" xlink:href="#DejaVuSans-6c"/>
      <use x="661.669922" xlink:href="#DejaVuSans-3a"/>
      <use x="695.361328" xlink:href="#DejaVuSans-20"/>
      <use x="727.148438" xlink:href="#DejaVuSans-31"/>
      <use x="790.771484" xlink:href="#DejaVuSans-34"/>
      <use x="854.394531" xlink:href="#DejaVuSans-2e"/>
      <use x="886.181641" xlink:href="#DejaVuSans-31"/>
      <use x="949.804688" xlink:href="#DejaVuSans-30"/>
      <use x="1013.427734" xlink:href="#DejaVuSans-30"/>
      <use x="1077.050781" xlink:href="#DejaVuSans-30"/>
      <use x="1140.673828" xlink:href="#DejaVuSans-2a"/>
      <use x="1190.673828" xlink:href="#DejaVuSans-6e"/>
      <use x="1254.052734" xlink:href="#DejaVuSans-2c"/>
      <use x="1285.839844" xlink:href="#DejaVuSans-20"/>
      <use x="1317.626953" xlink:href="#DejaVuSans-52"/>
      <use x="1387.109375" xlink:href="#DejaVuSans-5e"/>
      <use x="1470.898438" xlink:href="#DejaVuSans-32"/>
      <use x="1534.521484" xlink:href="#DejaVuSans-3a"/>
      <use x="1568.212891" xlink:href="#DejaVuSans-20"/>
      <use x="1600" xlink:href="#DejaVuSans-30"/>
      <use x="1663.623047" xlink:href="#DejaVuSans-2e"/>
      <use x="1695.410156" xlink:href="#DejaVuSans-39"/>
      <use x="1759.033203" xlink:href="#DejaVuSans-39"/>
      <use x="1822.65625" xlink:href="#DejaVuSans-34"/>
      <use x="1886.279297" xlink:href="#DejaVuSans-39"/>
     </g>
    </g>
    <g id="line2d_53">
     <path d="M 430.941625 109.363438 
L 450.941625 109.363438 
" style="fill:none;stroke:#f48849;stroke-linecap:square;stroke-width:1.5;"/>
    </g>
    <g id="line2d_54"/>
    <g id="text_23">
     <!--  PELL_930, Model: 2.3409*n, R^2: 0.9632 -->
     <g transform="translate(458.941625 112.863438)scale(0.1 -0.1)">
      <defs>
       <path d="M 628 4666 
L 3578 4666 
L 3578 4134 
L 1259 4134 
L 1259 2753 
L 3481 2753 
L 3481 2222 
L 1259 2222 
L 1259 531 
L 3634 531 
L 3634 0 
L 628 0 
L 628 4666 
z
" id="DejaVuSans-45" transform="scale(0.015625)"/>
      </defs>
      <use xlink:href="#DejaVuSans-20"/>
      <use x="31.787109" xlink:href="#DejaVuSans-50"/>
      <use x="92.089844" xlink:href="#DejaVuSans-45"/>
      <use x="155.273438" xlink:href="#DejaVuSans-4c"/>
      <use x="210.986328" xlink:href="#DejaVuSans-4c"/>
      <use x="266.699219" xlink:href="#DejaVuSans-5f"/>
      <use x="316.699219" xlink:href="#DejaVuSans-39"/>
      <use x="380.322266" xlink:href="#DejaVuSans-33"/>
      <use x="443.945312" xlink:href="#DejaVuSans-30"/>
      <use x="507.568359" xlink:href="#DejaVuSans-2c"/>
      <use x="539.355469" xlink:href="#DejaVuSans-20"/>
      <use x="571.142578" xlink:href="#DejaVuSans-4d"/>
      <use x="657.421875" xlink:href="#DejaVuSans-6f"/>
      <use x="718.603516" xlink:href="#DejaVuSans-64"/>
      <use x="782.080078" xlink:href="#DejaVuSans-65"/>
      <use x="843.603516" xlink:href="#DejaVuSans-6c"/>
      <use x="871.386719" xlink:href="#DejaVuSans-3a"/>
      <use x="905.078125" xlink:href="#DejaVuSans-20"/>
      <use x="936.865234" xlink:href="#DejaVuSans-32"/>
      <use x="1000.488281" xlink:href="#DejaVuSans-2e"/>
      <use x="1032.275391" xlink:href="#DejaVuSans-33"/>
      <use x="1095.898438" xlink:href="#DejaVuSans-34"/>
      <use x="1159.521484" xlink:href="#DejaVuSans-30"/>
      <use x="1223.144531" xlink:href="#DejaVuSans-39"/>
      <use x="1286.767578" xlink:href="#DejaVuSans-2a"/>
      <use x="1336.767578" xlink:href="#DejaVuSans-6e"/>
      <use x="1400.146484" xlink:href="#DejaVuSans-2c"/>
      <use x="1431.933594" xlink:href="#DejaVuSans-20"/>
      <use x="1463.720703" xlink:href="#DejaVuSans-52"/>
      <use x="1533.203125" xlink:href="#DejaVuSans-5e"/>
      <use x="1616.992188" xlink:href="#DejaVuSans-32"/>
      <use x="1680.615234" xlink:href="#DejaVuSans-3a"/>
      <use x="1714.306641" xlink:href="#DejaVuSans-20"/>
      <use x="1746.09375" xlink:href="#DejaVuSans-30"/>
      <use x="1809.716797" xlink:href="#DejaVuSans-2e"/>
      <use x="1841.503906" xlink:href="#DejaVuSans-39"/>
      <use x="1905.126953" xlink:href="#DejaVuSans-36"/>
      <use x="1968.75" xlink:href="#DejaVuSans-33"/>
      <use x="2032.373047" xlink:href="#DejaVuSans-32"/>
     </g>
    </g>
    <g id="line2d_55">
     <path d="M 430.941625 124.319687 
L 450.941625 124.319687 
" style="fill:none;stroke:#febd2a;stroke-linecap:square;stroke-width:1.5;"/>
    </g>
    <g id="line2d_56"/>
    <g id="text_24">
     <!--  FLANNEL, Model: 25.6471*n, R^2: 0.9990 -->
     <g transform="translate(458.941625 127.819687)scale(0.1 -0.1)">
      <use xlink:href="#DejaVuSans-20"/>
      <use x="31.787109" xlink:href="#DejaVuSans-46"/>
      <use x="89.306641" xlink:href="#DejaVuSans-4c"/>
      <use x="147.269531" xlink:href="#DejaVuSans-41"/>
      <use x="215.677734" xlink:href="#DejaVuSans-4e"/>
      <use x="290.482422" xlink:href="#DejaVuSans-4e"/>
      <use x="365.287109" xlink:href="#DejaVuSans-45"/>
      <use x="428.470703" xlink:href="#DejaVuSans-4c"/>
      <use x="484.183594" xlink:href="#DejaVuSans-2c"/>
      <use x="515.970703" xlink:href="#DejaVuSans-20"/>
      <use x="547.757812" xlink:href="#DejaVuSans-4d"/>
      <use x="634.037109" xlink:href="#DejaVuSans-6f"/>
      <use x="695.21875" xlink:href="#DejaVuSans-64"/>
      <use x="758.695312" xlink:href="#DejaVuSans-65"/>
      <use x="820.21875" xlink:href="#DejaVuSans-6c"/>
      <use x="848.001953" xlink:href="#DejaVuSans-3a"/>
      <use x="881.693359" xlink:href="#DejaVuSans-20"/>
      <use x="913.480469" xlink:href="#DejaVuSans-32"/>
      <use x="977.103516" xlink:href="#DejaVuSans-35"/>
      <use x="1040.726562" xlink:href="#DejaVuSans-2e"/>
      <use x="1072.513672" xlink:href="#DejaVuSans-36"/>
      <use x="1136.136719" xlink:href="#DejaVuSans-34"/>
      <use x="1199.759766" xlink:href="#DejaVuSans-37"/>
      <use x="1263.382812" xlink:href="#DejaVuSans-31"/>
      <use x="1327.005859" xlink:href="#DejaVuSans-2a"/>
      <use x="1377.005859" xlink:href="#DejaVuSans-6e"/>
      <use x="1440.384766" xlink:href="#DejaVuSans-2c"/>
      <use x="1472.171875" xlink:href="#DejaVuSans-20"/>
      <use x="1503.958984" xlink:href="#DejaVuSans-52"/>
      <use x="1573.441406" xlink:href="#DejaVuSans-5e"/>
      <use x="1657.230469" xlink:href="#DejaVuSans-32"/>
      <use x="1720.853516" xlink:href="#DejaVuSans-3a"/>
      <use x="1754.544922" xlink:href="#DejaVuSans-20"/>
      <use x="1786.332031" xlink:href="#DejaVuSans-30"/>
      <use x="1849.955078" xlink:href="#DejaVuSans-2e"/>
      <use x="1881.742188" xlink:href="#DejaVuSans-39"/>
      <use x="1945.365234" xlink:href="#DejaVuSans-39"/>
      <use x="2008.988281" xlink:href="#DejaVuSans-39"/>
      <use x="2072.611328" xlink:href="#DejaVuSans-30"/>
     </g>
    </g>
   </g>
  </g>
 </g>
 <defs>
  <clipPath id="p5316cda019">
   <rect height="266.112" width="357.12" x="46.965625" y="22.318125"/>
  </clipPath>
 </defs>
</svg>
